<svg width="480" height="480" viewBox="0 0 480 480" fill="none" xmlns="http://www.w3.org/2000/svg">
<rect width="480" height="480" fill="white"/>
<rect x="17.5" y="21.5" width="445" height="445" rx="4.5" fill="white" stroke="#1A1040" stroke-width="3"/>
<path d="M146.234 72L144.578 66.5625H136.25L134.594 72H129.375L137.438 49.0625H143.359L151.453 72H146.234ZM143.422 62.5L141.766 57.1875C141.661 56.8333 141.521 56.3802 141.344 55.8281C141.177 55.2656 141.005 54.6979 140.828 54.125C140.661 53.5417 140.526 53.0365 140.422 52.6094C140.318 53.0365 140.172 53.5677 139.984 54.2031C139.807 54.8281 139.635 55.4219 139.469 55.9844C139.302 56.5469 139.182 56.9479 139.109 57.1875L137.469 62.5H143.422ZM164.047 52.8594C163.12 52.8594 162.297 53.0417 161.578 53.4062C160.87 53.7604 160.271 54.276 159.781 54.9531C159.302 55.6302 158.938 56.4479 158.688 57.4062C158.438 58.3646 158.312 59.4427 158.312 60.6406C158.312 62.2552 158.51 63.6354 158.906 64.7812C159.312 65.9167 159.938 66.7865 160.781 67.3906C161.625 67.9844 162.714 68.2812 164.047 68.2812C164.974 68.2812 165.901 68.1771 166.828 67.9688C167.766 67.7604 168.781 67.4635 169.875 67.0781V71.1406C168.865 71.5573 167.87 71.8542 166.891 72.0312C165.911 72.2188 164.812 72.3125 163.594 72.3125C161.24 72.3125 159.302 71.8281 157.781 70.8594C156.271 69.8802 155.151 68.5156 154.422 66.7656C153.693 65.0052 153.328 62.9531 153.328 60.6094C153.328 58.8802 153.562 57.2969 154.031 55.8594C154.5 54.4219 155.188 53.1771 156.094 52.125C157 51.0729 158.12 50.2604 159.453 49.6875C160.786 49.1146 162.318 48.8281 164.047 48.8281C165.182 48.8281 166.318 48.974 167.453 49.2656C168.599 49.5469 169.693 49.9375 170.734 50.4375L169.172 54.375C168.318 53.9688 167.458 53.6146 166.594 53.3125C165.729 53.0104 164.88 52.8594 164.047 52.8594ZM183.562 72H178.719V53.1875H172.516V49.1562H189.766V53.1875H183.562V72ZM193.281 72V49.1562H198.125V72H193.281ZM221.797 49.1562L214.031 72H208.75L201 49.1562H205.891L210.188 62.75C210.26 62.9792 210.38 63.4115 210.547 64.0469C210.714 64.6719 210.88 65.3385 211.047 66.0469C211.224 66.7448 211.344 67.3229 211.406 67.7812C211.469 67.3229 211.578 66.7448 211.734 66.0469C211.901 65.349 212.062 64.6875 212.219 64.0625C212.385 63.4271 212.505 62.9896 212.578 62.75L216.906 49.1562H221.797ZM238.672 72L237.016 66.5625H228.688L227.031 72H221.812L229.875 49.0625H235.797L243.891 72H238.672ZM235.859 62.5L234.203 57.1875C234.099 56.8333 233.958 56.3802 233.781 55.8281C233.615 55.2656 233.443 54.6979 233.266 54.125C233.099 53.5417 232.964 53.0365 232.859 52.6094C232.755 53.0365 232.609 53.5677 232.422 54.2031C232.245 54.8281 232.073 55.4219 231.906 55.9844C231.74 56.5469 231.62 56.9479 231.547 57.1875L229.906 62.5H235.859ZM255.594 72H250.75V53.1875H244.547V49.1562H261.797V53.1875H255.594V72ZM265.312 72V49.1562H270.156V72H265.312ZM296.172 72H290.016L280.078 54.7188H279.938C279.979 55.4375 280.016 56.1615 280.047 56.8906C280.078 57.6198 280.109 58.349 280.141 59.0781C280.172 59.7969 280.203 60.5208 280.234 61.25V72H275.906V49.1562H282.016L291.938 66.2656H292.047C292.026 65.5573 292 64.8542 291.969 64.1562C291.938 63.4583 291.906 62.7604 291.875 62.0625C291.854 61.3646 291.833 60.6667 291.812 59.9688V49.1562H296.172V72ZM310.609 59.1719H319.672V71.0156C318.474 71.4115 317.229 71.7292 315.938 71.9688C314.646 72.1979 313.182 72.3125 311.547 72.3125C309.276 72.3125 307.349 71.8646 305.766 70.9688C304.182 70.0729 302.979 68.75 302.156 67C301.333 65.25 300.922 63.099 300.922 60.5469C300.922 58.151 301.38 56.0781 302.297 54.3281C303.224 52.5781 304.573 51.224 306.344 50.2656C308.125 49.3073 310.297 48.8281 312.859 48.8281C314.068 48.8281 315.26 48.9583 316.438 49.2188C317.615 49.4792 318.682 49.8177 319.641 50.2344L318.031 54.1094C317.333 53.7552 316.536 53.4583 315.641 53.2188C314.745 52.9792 313.807 52.8594 312.828 52.8594C311.422 52.8594 310.198 53.1823 309.156 53.8281C308.125 54.474 307.323 55.3802 306.75 56.5469C306.188 57.7031 305.906 59.0677 305.906 60.6406C305.906 62.1302 306.109 63.4531 306.516 64.6094C306.922 65.7552 307.562 66.6562 308.438 67.3125C309.312 67.9583 310.453 68.2812 311.859 68.2812C312.547 68.2812 313.125 68.25 313.594 68.1875C314.073 68.1146 314.521 68.0417 314.938 67.9688V63.2031H310.609V59.1719ZM324.078 69.7656C324.078 68.7865 324.344 68.099 324.875 67.7031C325.417 67.3073 326.068 67.1094 326.828 67.1094C327.568 67.1094 328.203 67.3073 328.734 67.7031C329.276 68.099 329.547 68.7865 329.547 69.7656C329.547 70.7031 329.276 71.3802 328.734 71.7969C328.203 72.2135 327.568 72.4219 326.828 72.4219C326.068 72.4219 325.417 72.2135 324.875 71.7969C324.344 71.3802 324.078 70.7031 324.078 69.7656ZM333.203 69.7656C333.203 68.7865 333.469 68.099 334 67.7031C334.542 67.3073 335.193 67.1094 335.953 67.1094C336.693 67.1094 337.328 67.3073 337.859 67.7031C338.401 68.099 338.672 68.7865 338.672 69.7656C338.672 70.7031 338.401 71.3802 337.859 71.7969C337.328 72.2135 336.693 72.4219 335.953 72.4219C335.193 72.4219 334.542 72.2135 334 71.7969C333.469 71.3802 333.203 70.7031 333.203 69.7656ZM342.328 69.7656C342.328 68.7865 342.594 68.099 343.125 67.7031C343.667 67.3073 344.318 67.1094 345.078 67.1094C345.818 67.1094 346.453 67.3073 346.984 67.7031C347.526 68.099 347.797 68.7865 347.797 69.7656C347.797 70.7031 347.526 71.3802 346.984 71.7969C346.453 72.2135 345.818 72.4219 345.078 72.4219C344.318 72.4219 343.667 72.2135 343.125 71.7969C342.594 71.3802 342.328 70.7031 342.328 69.7656Z" fill="#31344E"/>
<path d="M16 98H464V462C464 465.314 461.314 468 458 468H22C18.6863 468 16 465.314 16 462V98Z" fill="#1A1040"/>
<path d="M304.18 221.508C314.032 221.508 322.019 229.495 322.02 239.348V253.62C322.019 263.473 314.032 271.46 304.18 271.46H174.84C164.987 271.46 157 263.473 157 253.62V239.348C157 229.495 164.987 221.508 174.84 221.508H304.18ZM260.472 242.023C258.009 242.024 256.012 244.021 256.012 246.483C256.012 248.946 258.009 250.943 260.472 250.943H297.044C299.507 250.943 301.504 248.946 301.504 246.483C301.504 244.021 299.507 242.024 297.044 242.023H260.472ZM181.929 242.023C179.492 242.024 177.516 244 177.516 246.437C177.516 248.874 179.492 250.85 181.929 250.851C184.366 250.85 186.343 248.874 186.343 246.437C186.342 243.999 184.366 242.024 181.929 242.023ZM200.262 242.023C197.824 242.024 195.848 244 195.848 246.438C195.848 248.875 197.824 250.85 200.262 250.851C202.699 250.85 204.675 248.875 204.675 246.438C204.675 244 202.699 242.024 200.262 242.023ZM218.594 242.023C216.157 242.024 214.18 244 214.18 246.438C214.18 248.875 216.157 250.85 218.594 250.851C221.031 250.85 223.007 248.875 223.007 246.438C223.007 244 221.031 242.024 218.594 242.023Z" fill="white"/>
<circle cx="201.217" cy="309.734" r="9.00513" fill="white" stroke="white" stroke-width="0.423242"/>
<circle cx="239.5" cy="309.734" r="9.00513" fill="white" stroke="white" stroke-width="0.423242"/>
<circle cx="277.783" cy="309.734" r="9.00513" fill="white" stroke="white" stroke-width="0.423242"/>
</svg>
