<svg width="480" height="480" viewBox="0 0 480 480" fill="none" xmlns="http://www.w3.org/2000/svg">
<rect width="480" height="480" fill="white"/>
<rect x="17.5" y="21.5" width="445" height="445" rx="4.5" fill="white" stroke="#999999" stroke-width="3"/>
<path d="M129.891 60.3594C129.891 64.1198 128.818 67 126.672 69C124.536 71 121.448 72 117.406 72H110.938V49.1562H118.109C121.839 49.1562 124.734 50.1406 126.797 52.1094C128.859 54.0781 129.891 56.8281 129.891 60.3594ZM124.859 60.4844C124.859 55.5781 122.693 53.125 118.359 53.125H115.781V68H117.859C122.526 68 124.859 65.4948 124.859 60.4844ZM147.781 72H134.625V49.1562H147.781V53.125H139.469V58.1406H147.203V62.1094H139.469V68H147.781V72ZM166.547 72L164.891 66.5625H156.562L154.906 72H149.688L157.75 49.0625H163.672L171.766 72H166.547ZM163.734 62.5C162.203 57.5729 161.339 54.7865 161.141 54.1406C160.953 53.4948 160.818 52.9844 160.734 52.6094C160.391 53.9427 159.406 57.2396 157.781 62.5H163.734ZM184.359 52.8594C182.536 52.8594 181.125 53.5469 180.125 54.9219C179.125 56.2865 178.625 58.1927 178.625 60.6406C178.625 65.7344 180.536 68.2812 184.359 68.2812C185.964 68.2812 187.906 67.8802 190.188 67.0781V71.1406C188.312 71.9219 186.219 72.3125 183.906 72.3125C180.583 72.3125 178.042 71.3073 176.281 69.2969C174.521 67.276 173.641 64.3802 173.641 60.6094C173.641 58.2344 174.073 56.1562 174.938 54.375C175.802 52.5833 177.042 51.2135 178.656 50.2656C180.281 49.3073 182.182 48.8281 184.359 48.8281C186.578 48.8281 188.807 49.3646 191.047 50.4375L189.484 54.375C188.63 53.9688 187.771 53.6146 186.906 53.3125C186.042 53.0104 185.193 52.8594 184.359 52.8594ZM203.875 72H199.031V53.1875H192.828V49.1562H210.078V53.1875H203.875V72ZM213.594 72V49.1562H218.438V72H213.594ZM237.219 49.1562H242.109L234.344 72H229.062L221.312 49.1562H226.203L230.5 62.75C230.74 63.5521 230.984 64.4896 231.234 65.5625C231.495 66.625 231.656 67.3646 231.719 67.7812C231.833 66.8229 232.224 65.1458 232.891 62.75L237.219 49.1562ZM258.984 72L257.328 66.5625H249L247.344 72H242.125L250.188 49.0625H256.109L264.203 72H258.984ZM256.172 62.5C254.641 57.5729 253.776 54.7865 253.578 54.1406C253.391 53.4948 253.255 52.9844 253.172 52.6094C252.828 53.9427 251.844 57.2396 250.219 62.5H256.172ZM275.906 72H271.062V53.1875H264.859V49.1562H282.109V53.1875H275.906V72ZM285.625 72V49.1562H290.469V72H285.625ZM316.484 72H310.328L300.391 54.7188H300.25C300.448 57.7708 300.547 59.9479 300.547 61.25V72H296.219V49.1562H302.328L312.25 66.2656H312.359C312.203 63.2969 312.125 61.1979 312.125 59.9688V49.1562H316.484V72ZM330.922 59.1719H339.984V71.0156C338.516 71.4948 337.13 71.8281 335.828 72.0156C334.536 72.2135 333.214 72.3125 331.859 72.3125C328.411 72.3125 325.776 71.3021 323.953 69.2812C322.141 67.25 321.234 64.3385 321.234 60.5469C321.234 56.8594 322.286 53.9844 324.391 51.9219C326.505 49.8594 329.432 48.8281 333.172 48.8281C335.516 48.8281 337.776 49.2969 339.953 50.2344L338.344 54.1094C336.677 53.276 334.943 52.8594 333.141 52.8594C331.047 52.8594 329.37 53.5625 328.109 54.9688C326.849 56.375 326.219 58.2656 326.219 60.6406C326.219 63.1198 326.724 65.0156 327.734 66.3281C328.755 67.6302 330.234 68.2812 332.172 68.2812C333.182 68.2812 334.208 68.1771 335.25 67.9688V63.2031H330.922V59.1719ZM344.391 69.7656C344.391 68.8906 344.625 68.2292 345.094 67.7812C345.562 67.3333 346.245 67.1094 347.141 67.1094C348.005 67.1094 348.672 67.3385 349.141 67.7969C349.62 68.2552 349.859 68.9115 349.859 69.7656C349.859 70.5885 349.62 71.2396 349.141 71.7188C348.661 72.1875 347.995 72.4219 347.141 72.4219C346.266 72.4219 345.589 72.1927 345.109 71.7344C344.63 71.2656 344.391 70.6094 344.391 69.7656ZM353.516 69.7656C353.516 68.8906 353.75 68.2292 354.219 67.7812C354.688 67.3333 355.37 67.1094 356.266 67.1094C357.13 67.1094 357.797 67.3385 358.266 67.7969C358.745 68.2552 358.984 68.9115 358.984 69.7656C358.984 70.5885 358.745 71.2396 358.266 71.7188C357.786 72.1875 357.12 72.4219 356.266 72.4219C355.391 72.4219 354.714 72.1927 354.234 71.7344C353.755 71.2656 353.516 70.6094 353.516 69.7656ZM362.641 69.7656C362.641 68.8906 362.875 68.2292 363.344 67.7812C363.812 67.3333 364.495 67.1094 365.391 67.1094C366.255 67.1094 366.922 67.3385 367.391 67.7969C367.87 68.2552 368.109 68.9115 368.109 69.7656C368.109 70.5885 367.87 71.2396 367.391 71.7188C366.911 72.1875 366.245 72.4219 365.391 72.4219C364.516 72.4219 363.839 72.1927 363.359 71.7344C362.88 71.2656 362.641 70.6094 362.641 69.7656Z" fill="#31344E"/>
<path d="M16 98H464V462C464 465.314 461.314 468 458 468H22C18.6863 468 16 465.314 16 462V98Z" fill="#999999"/>
<path d="M314.042 198.656C316.636 197.239 319.888 198.193 321.306 200.786C322.723 203.38 321.769 206.633 319.175 208.05L164.92 292.344C162.326 293.761 159.074 292.807 157.656 290.213C156.239 287.619 157.193 284.368 159.786 282.95L314.042 198.656ZM309.398 221.523C316.705 223.754 322.02 230.55 322.021 238.587V252.86C322.02 262.712 314.033 270.699 304.181 270.699H219.408L258.148 249.53C258.825 249.944 259.621 250.183 260.473 250.183H297.045C299.508 250.182 301.505 248.186 301.505 245.723C301.505 243.26 299.508 241.263 297.045 241.263H273.276L309.398 221.523ZM220.446 241.67C219.883 241.409 219.256 241.263 218.595 241.263C216.363 241.263 214.518 242.921 214.223 245.072L169.07 269.744C162.05 267.346 157.001 260.693 157.001 252.86V238.587C157.001 228.735 164.988 220.747 174.841 220.747H258.735L220.446 241.67ZM181.93 241.263C179.493 241.263 177.517 243.239 177.517 245.676C177.517 248.113 179.493 250.09 181.93 250.09C184.367 250.09 186.344 248.113 186.344 245.676C186.343 243.239 184.367 241.263 181.93 241.263ZM200.263 241.263C197.825 241.263 195.849 243.24 195.849 245.677C195.849 248.114 197.825 250.09 200.263 250.09C202.7 250.09 204.676 248.114 204.676 245.677C204.676 243.24 202.7 241.263 200.263 241.263Z" fill="white"/>
<circle cx="202.217" cy="319.217" r="9.00513" fill="white" stroke="white" stroke-width="0.423242"/>
<circle cx="240.5" cy="319.217" r="9.00513" fill="white" stroke="white" stroke-width="0.423242"/>
<circle cx="278.783" cy="319.217" r="9.00513" fill="white" stroke="white" stroke-width="0.423242"/>
</svg>
