<svg width="480" height="480" viewBox="0 0 480 480" fill="none" xmlns="http://www.w3.org/2000/svg">
<rect width="480" height="480" fill="#F6F6F6"/>
<g filter="url(#filter0_d_3927_28597)">
<rect x="16" y="384" width="448" height="80" rx="5" fill="#1A1040" shape-rendering="crispEdges"/>
<path d="M224.484 428.742C224.484 429.758 224.238 430.641 223.746 431.391C223.254 432.141 222.535 432.719 221.59 433.125C220.652 433.531 219.512 433.734 218.168 433.734C217.574 433.734 216.992 433.695 216.422 433.617C215.859 433.539 215.316 433.426 214.793 433.277C214.277 433.121 213.785 432.93 213.316 432.703V429.328C214.129 429.688 214.973 430.012 215.848 430.301C216.723 430.59 217.59 430.734 218.449 430.734C219.043 430.734 219.52 430.656 219.879 430.5C220.246 430.344 220.512 430.129 220.676 429.855C220.84 429.582 220.922 429.27 220.922 428.918C220.922 428.488 220.777 428.121 220.488 427.816C220.199 427.512 219.801 427.227 219.293 426.961C218.793 426.695 218.227 426.41 217.594 426.105C217.195 425.918 216.762 425.691 216.293 425.426C215.824 425.152 215.379 424.82 214.957 424.43C214.535 424.039 214.188 423.566 213.914 423.012C213.648 422.449 213.516 421.777 213.516 420.996C213.516 419.973 213.75 419.098 214.219 418.371C214.688 417.645 215.355 417.09 216.223 416.707C217.098 416.316 218.129 416.121 219.316 416.121C220.207 416.121 221.055 416.227 221.859 416.438C222.672 416.641 223.52 416.938 224.402 417.328L223.23 420.152C222.441 419.832 221.734 419.586 221.109 419.414C220.484 419.234 219.848 419.145 219.199 419.145C218.746 419.145 218.359 419.219 218.039 419.367C217.719 419.508 217.477 419.711 217.312 419.977C217.148 420.234 217.066 420.535 217.066 420.879C217.066 421.285 217.184 421.629 217.418 421.91C217.66 422.184 218.02 422.449 218.496 422.707C218.98 422.965 219.582 423.266 220.301 423.609C221.176 424.023 221.922 424.457 222.539 424.91C223.164 425.355 223.645 425.883 223.98 426.492C224.316 427.094 224.484 427.844 224.484 428.742ZM232.676 420.129C234.434 420.129 235.781 420.512 236.719 421.277C237.656 422.043 238.125 423.207 238.125 424.77V433.5H235.629L234.938 431.719H234.844C234.469 432.188 234.086 432.57 233.695 432.867C233.305 433.164 232.855 433.383 232.348 433.523C231.84 433.664 231.223 433.734 230.496 433.734C229.723 433.734 229.027 433.586 228.41 433.289C227.801 432.992 227.32 432.539 226.969 431.93C226.617 431.312 226.441 430.531 226.441 429.586C226.441 428.195 226.93 427.172 227.906 426.516C228.883 425.852 230.348 425.484 232.301 425.414L234.574 425.344V424.77C234.574 424.082 234.395 423.578 234.035 423.258C233.676 422.938 233.176 422.777 232.535 422.777C231.902 422.777 231.281 422.867 230.672 423.047C230.062 423.227 229.453 423.453 228.844 423.727L227.66 421.312C228.355 420.945 229.133 420.656 229.992 420.445C230.859 420.234 231.754 420.129 232.676 420.129ZM234.574 427.43L233.191 427.477C232.035 427.508 231.23 427.715 230.777 428.098C230.332 428.48 230.109 428.984 230.109 429.609C230.109 430.156 230.27 430.547 230.59 430.781C230.91 431.008 231.328 431.121 231.844 431.121C232.609 431.121 233.254 430.895 233.777 430.441C234.309 429.988 234.574 429.344 234.574 428.508V427.43ZM244.934 433.5L239.941 420.398H243.68L246.211 427.863C246.352 428.301 246.461 428.762 246.539 429.246C246.625 429.73 246.684 430.164 246.715 430.547H246.809C246.832 430.133 246.887 429.691 246.973 429.223C247.066 428.754 247.188 428.301 247.336 427.863L249.855 420.398H253.594L248.602 433.5H244.934ZM260.883 420.152C262.094 420.152 263.137 420.387 264.012 420.855C264.887 421.316 265.562 421.988 266.039 422.871C266.516 423.754 266.754 424.832 266.754 426.105V427.84H258.305C258.344 428.848 258.645 429.641 259.207 430.219C259.777 430.789 260.566 431.074 261.574 431.074C262.41 431.074 263.176 430.988 263.871 430.816C264.566 430.645 265.281 430.387 266.016 430.043V432.809C265.367 433.129 264.688 433.363 263.977 433.512C263.273 433.66 262.418 433.734 261.41 433.734C260.098 433.734 258.934 433.492 257.918 433.008C256.91 432.523 256.117 431.785 255.539 430.793C254.969 429.801 254.684 428.551 254.684 427.043C254.684 425.512 254.941 424.238 255.457 423.223C255.98 422.199 256.707 421.434 257.637 420.926C258.566 420.41 259.648 420.152 260.883 420.152ZM260.906 422.695C260.211 422.695 259.633 422.918 259.172 423.363C258.719 423.809 258.457 424.508 258.387 425.461H263.402C263.395 424.93 263.297 424.457 263.109 424.043C262.93 423.629 262.656 423.301 262.289 423.059C261.93 422.816 261.469 422.695 260.906 422.695Z" fill="white"/>
</g>
<mask id="path-3-inside-1_3927_28597" fill="white">
<path d="M0 0H480V64H0V0Z"/>
</mask>
<path d="M0 0H480V64H0V0Z" fill="white"/>
<path d="M480 64V63H0V64V65H480V64Z" fill="#D1D1D1" mask="url(#path-3-inside-1_3927_28597)"/>
<path d="M209.363 36.0352C209.363 36.8815 209.158 37.6172 208.748 38.2422C208.338 38.8672 207.739 39.349 206.951 39.6875C206.17 40.026 205.219 40.1953 204.1 40.1953C203.605 40.1953 203.12 40.1628 202.645 40.0977C202.176 40.0326 201.723 39.9382 201.287 39.8145C200.857 39.6842 200.447 39.5247 200.057 39.3359V36.5234C200.734 36.8229 201.437 37.0931 202.166 37.334C202.895 37.5749 203.618 37.6953 204.334 37.6953C204.829 37.6953 205.226 37.6302 205.525 37.5C205.831 37.3698 206.053 37.1908 206.189 36.9629C206.326 36.735 206.395 36.4746 206.395 36.1816C206.395 35.8236 206.274 35.5176 206.033 35.2637C205.792 35.0098 205.46 34.7721 205.037 34.5508C204.62 34.3294 204.148 34.0918 203.621 33.8379C203.289 33.6816 202.928 33.4928 202.537 33.2715C202.146 33.0436 201.775 32.7669 201.424 32.4414C201.072 32.1159 200.783 31.722 200.555 31.2598C200.333 30.791 200.223 30.2311 200.223 29.5801C200.223 28.7272 200.418 27.998 200.809 27.3926C201.199 26.7871 201.756 26.3249 202.479 26.0059C203.208 25.6803 204.067 25.5176 205.057 25.5176C205.799 25.5176 206.505 25.6055 207.176 25.7812C207.853 25.9505 208.559 26.1979 209.295 26.5234L208.318 28.877C207.661 28.61 207.072 28.4049 206.551 28.2617C206.03 28.112 205.499 28.0371 204.959 28.0371C204.581 28.0371 204.259 28.099 203.992 28.2227C203.725 28.3398 203.523 28.5091 203.387 28.7305C203.25 28.9453 203.182 29.196 203.182 29.4824C203.182 29.821 203.279 30.1074 203.475 30.3418C203.676 30.5697 203.976 30.791 204.373 31.0059C204.777 31.2207 205.278 31.4714 205.877 31.7578C206.606 32.1029 207.228 32.4642 207.742 32.8418C208.263 33.2129 208.663 33.6523 208.943 34.1602C209.223 34.6615 209.363 35.2865 209.363 36.0352ZM216.219 28.877C217.228 28.877 218.097 29.0723 218.826 29.4629C219.555 29.847 220.118 30.4069 220.516 31.1426C220.913 31.8783 221.111 32.7767 221.111 33.8379V35.2832H214.07C214.103 36.123 214.354 36.7839 214.822 37.2656C215.298 37.7409 215.955 37.9785 216.795 37.9785C217.492 37.9785 218.13 37.9069 218.709 37.7637C219.288 37.6204 219.884 37.4056 220.496 37.1191V39.4238C219.956 39.6908 219.389 39.8861 218.797 40.0098C218.211 40.1335 217.498 40.1953 216.658 40.1953C215.564 40.1953 214.594 39.9935 213.748 39.5898C212.908 39.1862 212.247 38.571 211.766 37.7441C211.29 36.9173 211.053 35.8757 211.053 34.6191C211.053 33.3431 211.268 32.2819 211.697 31.4355C212.133 30.5827 212.739 29.9447 213.514 29.5215C214.288 29.0918 215.19 28.877 216.219 28.877ZM216.238 30.9961C215.659 30.9961 215.177 31.1816 214.793 31.5527C214.415 31.9238 214.197 32.5065 214.139 33.3008H218.318C218.312 32.8581 218.23 32.4642 218.074 32.1191C217.924 31.7741 217.697 31.5007 217.391 31.2988C217.091 31.097 216.707 30.9961 216.238 30.9961ZM228.133 37.8223C228.458 37.8223 228.774 37.7897 229.08 37.7246C229.393 37.6595 229.702 37.5781 230.008 37.4805V39.6973C229.689 39.8405 229.292 39.9577 228.816 40.0488C228.348 40.1465 227.833 40.1953 227.273 40.1953C226.622 40.1953 226.036 40.0911 225.516 39.8828C225.001 39.668 224.594 39.3001 224.295 38.7793C224.002 38.252 223.855 37.5195 223.855 36.582V31.3184H222.43V30.0586L224.07 29.0625L224.93 26.7578H226.834V29.082H229.891V31.3184H226.834V36.582C226.834 36.9987 226.951 37.3112 227.186 37.5195C227.426 37.7214 227.742 37.8223 228.133 37.8223ZM236.824 37.8223C237.15 37.8223 237.465 37.7897 237.771 37.7246C238.084 37.6595 238.393 37.5781 238.699 37.4805V39.6973C238.38 39.8405 237.983 39.9577 237.508 40.0488C237.039 40.1465 236.525 40.1953 235.965 40.1953C235.314 40.1953 234.728 40.0911 234.207 39.8828C233.693 39.668 233.286 39.3001 232.986 38.7793C232.693 38.252 232.547 37.5195 232.547 36.582V31.3184H231.121V30.0586L232.762 29.0625L233.621 26.7578H235.525V29.082H238.582V31.3184H235.525V36.582C235.525 36.9987 235.643 37.3112 235.877 37.5195C236.118 37.7214 236.434 37.8223 236.824 37.8223ZM243.895 29.082V40H240.916V29.082H243.895ZM242.41 24.8047C242.853 24.8047 243.234 24.9089 243.553 25.1172C243.872 25.319 244.031 25.6999 244.031 26.2598C244.031 26.8132 243.872 27.1973 243.553 27.4121C243.234 27.6204 242.853 27.7246 242.41 27.7246C241.961 27.7246 241.577 27.6204 241.258 27.4121C240.945 27.1973 240.789 26.8132 240.789 26.2598C240.789 25.6999 240.945 25.319 241.258 25.1172C241.577 24.9089 241.961 24.8047 242.41 24.8047ZM253.23 28.877C254.396 28.877 255.333 29.196 256.043 29.834C256.753 30.4655 257.107 31.4811 257.107 32.8809V40H254.129V33.623C254.129 32.8418 253.986 32.2526 253.699 31.8555C253.419 31.4583 252.977 31.2598 252.371 31.2598C251.46 31.2598 250.838 31.569 250.506 32.1875C250.174 32.806 250.008 33.6979 250.008 34.8633V40H247.029V29.082H249.305L249.705 30.4785H249.871C250.105 30.1009 250.395 29.7949 250.74 29.5605C251.092 29.3262 251.479 29.1536 251.902 29.043C252.332 28.9323 252.775 28.877 253.23 28.877ZM263.367 44.8047C261.844 44.8047 260.678 44.5378 259.871 44.0039C259.07 43.4766 258.67 42.7344 258.67 41.7773C258.67 41.1198 258.875 40.5697 259.285 40.127C259.695 39.6842 260.298 39.3685 261.092 39.1797C260.786 39.0495 260.519 38.8379 260.291 38.5449C260.063 38.2454 259.949 37.9297 259.949 37.5977C259.949 37.181 260.07 36.8359 260.311 36.5625C260.551 36.2826 260.9 36.0091 261.355 35.7422C260.783 35.4948 260.327 35.0977 259.988 34.5508C259.656 34.0039 259.49 33.3594 259.49 32.6172C259.49 31.8229 259.663 31.1491 260.008 30.5957C260.359 30.0358 260.867 29.6094 261.531 29.3164C262.202 29.0234 263.016 28.877 263.973 28.877C264.174 28.877 264.409 28.89 264.676 28.916C264.943 28.9421 265.187 28.9714 265.408 29.0039C265.636 29.0365 265.789 29.0625 265.867 29.082H269.676V30.5957L267.967 31.0352C268.123 31.276 268.24 31.5332 268.318 31.8066C268.396 32.0801 268.436 32.3698 268.436 32.6758C268.436 33.8477 268.025 34.7624 267.205 35.4199C266.391 36.071 265.258 36.3965 263.807 36.3965C263.462 36.377 263.136 36.3509 262.83 36.3184C262.68 36.4355 262.566 36.5592 262.488 36.6895C262.41 36.8197 262.371 36.9564 262.371 37.0996C262.371 37.2428 262.43 37.3633 262.547 37.4609C262.671 37.5521 262.853 37.6237 263.094 37.6758C263.341 37.7214 263.647 37.7441 264.012 37.7441H265.867C267.065 37.7441 267.977 38.0013 268.602 38.5156C269.233 39.0299 269.549 39.7852 269.549 40.7812C269.549 42.0573 269.015 43.0469 267.947 43.75C266.886 44.4531 265.359 44.8047 263.367 44.8047ZM263.494 42.8613C264.204 42.8613 264.812 42.793 265.32 42.6562C265.835 42.526 266.229 42.3372 266.502 42.0898C266.775 41.849 266.912 41.5592 266.912 41.2207C266.912 40.9473 266.831 40.7292 266.668 40.5664C266.512 40.4102 266.271 40.2995 265.945 40.2344C265.626 40.1693 265.216 40.1367 264.715 40.1367H263.172C262.807 40.1367 262.479 40.1953 262.186 40.3125C261.899 40.4297 261.671 40.5924 261.502 40.8008C261.333 41.0156 261.248 41.263 261.248 41.543C261.248 41.9531 261.443 42.2754 261.834 42.5098C262.231 42.7441 262.785 42.8613 263.494 42.8613ZM263.973 34.5801C264.533 34.5801 264.943 34.4076 265.203 34.0625C265.464 33.7174 265.594 33.2487 265.594 32.6562C265.594 31.9987 265.457 31.5072 265.184 31.1816C264.917 30.8496 264.513 30.6836 263.973 30.6836C263.426 30.6836 263.016 30.8496 262.742 31.1816C262.469 31.5072 262.332 31.9987 262.332 32.6562C262.332 33.2487 262.465 33.7174 262.732 34.0625C263.006 34.4076 263.419 34.5801 263.973 34.5801ZM279.1 36.7578C279.1 37.5 278.924 38.1283 278.572 38.6426C278.227 39.1504 277.71 39.5378 277.02 39.8047C276.329 40.0651 275.47 40.1953 274.441 40.1953C273.68 40.1953 273.025 40.1465 272.479 40.0488C271.938 39.9512 271.391 39.7884 270.838 39.5605V37.0996C271.43 37.3665 272.065 37.5879 272.742 37.7637C273.426 37.9329 274.025 38.0176 274.539 38.0176C275.118 38.0176 275.532 37.9329 275.779 37.7637C276.033 37.5879 276.16 37.36 276.16 37.0801C276.16 36.8978 276.108 36.735 276.004 36.5918C275.906 36.4421 275.691 36.276 275.359 36.0938C275.027 35.9049 274.507 35.6608 273.797 35.3613C273.113 35.0749 272.55 34.7852 272.107 34.4922C271.671 34.1992 271.346 33.8542 271.131 33.457C270.923 33.0534 270.818 32.5423 270.818 31.9238C270.818 30.9147 271.209 30.1562 271.99 29.6484C272.778 29.1341 273.829 28.877 275.145 28.877C275.822 28.877 276.466 28.9453 277.078 29.082C277.697 29.2188 278.331 29.4368 278.982 29.7363L278.084 31.8848C277.544 31.6504 277.033 31.4583 276.551 31.3086C276.076 31.1589 275.59 31.084 275.096 31.084C274.66 31.084 274.331 31.1426 274.109 31.2598C273.888 31.377 273.777 31.556 273.777 31.7969C273.777 31.9727 273.833 32.1289 273.943 32.2656C274.061 32.4023 274.282 32.5553 274.607 32.7246C274.939 32.8874 275.424 33.099 276.062 33.3594C276.681 33.6133 277.218 33.8802 277.674 34.1602C278.13 34.4336 278.481 34.7754 278.729 35.1855C278.976 35.5892 279.1 36.1133 279.1 36.7578Z" fill="#31344E"/>
<path fill-rule="evenodd" clip-rule="evenodd" d="M31.208 43.2971C32.1518 44.2343 33.6819 44.2343 34.6257 43.2971C35.5694 42.3598 35.5694 40.8402 34.6257 39.9029L29.0845 34.4L47.4168 34.4C48.7515 34.4 49.8335 33.3255 49.8335 32C49.8335 30.6745 48.7515 29.6 47.4168 29.6L29.0845 29.6L34.6257 24.0971C35.5694 23.1598 35.5694 21.6402 34.6257 20.7029C33.6819 19.7657 32.1518 19.7657 31.208 20.7029L21.5418 30.3025C21.1042 30.7368 20.8335 31.337 20.8335 32C20.8335 32.6638 21.1048 33.2646 21.5434 33.6991M21.5434 33.6991L31.208 43.2971L21.5434 33.6991Z" fill="#1A1040"/>
<path d="M459.29 24.0987C460.227 23.1616 460.227 21.6399 459.29 20.7028C458.353 19.7657 456.831 19.7657 455.894 20.7028L448 28.6041L440.099 20.7103C439.162 19.7732 437.64 19.7732 436.703 20.7103C435.766 21.6474 435.766 23.1691 436.703 24.1062L444.604 32L436.71 39.9013C435.773 40.8384 435.773 42.3601 436.71 43.2972C437.647 44.2343 439.169 44.2343 440.106 43.2972L448 35.3959L455.901 43.2897C456.838 44.2268 458.36 44.2268 459.297 43.2897C460.234 42.3526 460.234 40.8309 459.297 39.8938L451.396 32L459.29 24.0987Z" fill="#1A1040"/>
<g filter="url(#filter1_d_3927_28597)">
<rect x="16.02" y="80" width="448" height="151" rx="10" fill="white" shape-rendering="crispEdges"/>
<rect x="16.52" y="80.5" width="447" height="150" rx="9.5" stroke="#D9D9D9" shape-rendering="crispEdges"/>
<path d="M33.7075 114.15H37.5308C39.189 114.15 40.4399 114.391 41.2837 114.871C42.1274 115.352 42.5493 116.181 42.5493 117.358C42.5493 117.851 42.4614 118.296 42.2856 118.694C42.1157 119.087 41.8667 119.412 41.5386 119.67C41.2104 119.922 40.8062 120.092 40.3257 120.18V120.268C40.8237 120.355 41.2661 120.511 41.6528 120.733C42.0454 120.956 42.353 121.275 42.5757 121.691C42.8042 122.107 42.9185 122.646 42.9185 123.309C42.9185 124.094 42.731 124.762 42.356 125.312C41.9868 125.863 41.4565 126.282 40.7651 126.569C40.0796 126.856 39.2651 127 38.3218 127H33.7075V114.15ZM35.8169 119.45H37.8384C38.7935 119.45 39.4556 119.295 39.8247 118.984C40.1938 118.674 40.3784 118.22 40.3784 117.622C40.3784 117.013 40.1587 116.573 39.7192 116.304C39.2856 116.034 38.5942 115.899 37.645 115.899H35.8169V119.45ZM35.8169 121.155V125.233H38.0405C39.0249 125.233 39.7163 125.043 40.1147 124.662C40.5132 124.281 40.7124 123.766 40.7124 123.115C40.7124 122.717 40.6216 122.371 40.4399 122.078C40.2642 121.785 39.9741 121.56 39.5698 121.401C39.1655 121.237 38.6206 121.155 37.9351 121.155H35.8169ZM50.2925 117.086C50.4565 117.086 50.6353 117.095 50.8286 117.112C51.022 117.13 51.189 117.153 51.3296 117.183L51.1362 119.116C51.0132 119.081 50.8608 119.055 50.6792 119.037C50.5034 119.02 50.3452 119.011 50.2046 119.011C49.8354 119.011 49.4839 119.072 49.1499 119.195C48.8159 119.312 48.52 119.494 48.2622 119.74C48.0044 119.98 47.8022 120.282 47.6558 120.646C47.5093 121.009 47.436 121.431 47.436 121.911V127H45.3618V117.271H46.979L47.2603 118.984H47.3569C47.5503 118.639 47.7905 118.322 48.0776 118.035C48.3647 117.748 48.6929 117.52 49.062 117.35C49.437 117.174 49.8472 117.086 50.2925 117.086ZM55.1968 117.271V127H53.1313V117.271H55.1968ZM54.1772 113.544C54.4937 113.544 54.7661 113.629 54.9946 113.799C55.229 113.969 55.3462 114.262 55.3462 114.678C55.3462 115.088 55.229 115.381 54.9946 115.557C54.7661 115.727 54.4937 115.812 54.1772 115.812C53.8491 115.812 53.5708 115.727 53.3423 115.557C53.1196 115.381 53.0083 115.088 53.0083 114.678C53.0083 114.262 53.1196 113.969 53.3423 113.799C53.5708 113.629 53.8491 113.544 54.1772 113.544ZM60.936 131.324C59.6177 131.324 58.6069 131.087 57.9038 130.612C57.2007 130.138 56.8491 129.473 56.8491 128.617C56.8491 128.02 57.0366 127.513 57.4116 127.097C57.7866 126.687 58.3228 126.402 59.02 126.244C58.7563 126.127 58.5278 125.945 58.3345 125.699C58.147 125.447 58.0532 125.169 58.0532 124.864C58.0532 124.501 58.1558 124.19 58.3608 123.933C58.5659 123.675 58.8735 123.426 59.2837 123.186C58.7739 122.969 58.3638 122.617 58.0532 122.131C57.7485 121.639 57.5962 121.062 57.5962 120.399C57.5962 119.696 57.7456 119.099 58.0444 118.606C58.3433 118.108 58.7798 117.73 59.354 117.473C59.9282 117.209 60.6226 117.077 61.437 117.077C61.6128 117.077 61.8032 117.089 62.0083 117.112C62.2192 117.13 62.4126 117.153 62.5884 117.183C62.77 117.206 62.9077 117.232 63.0015 117.262H66.3677V118.413L64.7153 118.721C64.8735 118.943 64.9995 119.198 65.0933 119.485C65.187 119.767 65.2339 120.074 65.2339 120.408C65.2339 121.416 64.8853 122.21 64.188 122.79C63.4966 123.364 62.5415 123.651 61.3228 123.651C61.0298 123.64 60.7456 123.616 60.4702 123.581C60.2593 123.71 60.0981 123.854 59.9868 124.012C59.8755 124.164 59.8198 124.337 59.8198 124.53C59.8198 124.688 59.8755 124.817 59.9868 124.917C60.0981 125.011 60.2622 125.081 60.479 125.128C60.7017 125.175 60.9712 125.198 61.2876 125.198H62.9663C64.0327 125.198 64.8472 125.424 65.4097 125.875C65.9722 126.326 66.2534 126.988 66.2534 127.861C66.2534 128.969 65.7964 129.821 64.8823 130.419C63.9683 131.022 62.6528 131.324 60.936 131.324ZM61.0151 129.874C61.7358 129.874 62.3423 129.804 62.8345 129.663C63.3267 129.522 63.6987 129.32 63.9507 129.057C64.2026 128.799 64.3286 128.491 64.3286 128.134C64.3286 127.817 64.2495 127.574 64.0913 127.404C63.9331 127.234 63.6958 127.117 63.3794 127.053C63.063 126.988 62.6704 126.956 62.2017 126.956H60.6724C60.2915 126.956 59.9546 127.015 59.6616 127.132C59.3687 127.255 59.1401 127.431 58.9761 127.659C58.8179 127.888 58.7388 128.163 58.7388 128.485C58.7388 128.931 58.9351 129.273 59.3276 129.514C59.7261 129.754 60.2886 129.874 61.0151 129.874ZM61.4194 122.298C62.0229 122.298 62.4712 122.134 62.7642 121.806C63.0571 121.472 63.2036 121.003 63.2036 120.399C63.2036 119.743 63.0513 119.251 62.7466 118.923C62.4478 118.595 62.0024 118.431 61.4106 118.431C60.8306 118.431 60.3882 118.598 60.0835 118.932C59.7847 119.266 59.6353 119.761 59.6353 120.417C59.6353 121.009 59.7847 121.472 60.0835 121.806C60.3882 122.134 60.8335 122.298 61.4194 122.298ZM70.2085 113.324V116.761C70.2085 117.118 70.1968 117.467 70.1733 117.807C70.1558 118.146 70.1353 118.41 70.1118 118.598H70.2261C70.4312 118.258 70.6831 117.979 70.9819 117.763C71.2808 117.54 71.6147 117.373 71.9839 117.262C72.3589 117.15 72.7573 117.095 73.1792 117.095C73.9233 117.095 74.5562 117.221 75.0776 117.473C75.5991 117.719 75.9976 118.103 76.2729 118.624C76.5542 119.146 76.6948 119.822 76.6948 120.654V127H74.6294V121.041C74.6294 120.285 74.4741 119.72 74.1636 119.345C73.853 118.964 73.3726 118.773 72.7222 118.773C72.0952 118.773 71.5972 118.905 71.228 119.169C70.8647 119.427 70.604 119.811 70.4458 120.32C70.2876 120.824 70.2085 121.439 70.2085 122.166V127H68.1431V113.324H70.2085ZM83.2075 125.506C83.4771 125.506 83.7437 125.482 84.0073 125.436C84.271 125.383 84.5112 125.321 84.728 125.251V126.815C84.4995 126.915 84.2036 127 83.8403 127.07C83.4771 127.141 83.0991 127.176 82.7065 127.176C82.1558 127.176 81.6606 127.085 81.2212 126.903C80.7817 126.716 80.4331 126.396 80.1753 125.945C79.9175 125.494 79.7886 124.87 79.7886 124.073V118.844H78.4614V117.921L79.8853 117.191L80.562 115.108H81.8628V117.271H84.6489V118.844H81.8628V124.047C81.8628 124.539 81.9858 124.905 82.2319 125.146C82.478 125.386 82.8032 125.506 83.2075 125.506ZM91.7769 117.086C92.8726 117.086 93.7251 117.37 94.3345 117.938C94.9497 118.501 95.2573 119.406 95.2573 120.654V127H93.1919V121.041C93.1919 120.285 93.0366 119.72 92.7261 119.345C92.4155 118.964 91.9351 118.773 91.2847 118.773C90.3413 118.773 89.6851 119.063 89.3159 119.644C88.9526 120.224 88.771 121.064 88.771 122.166V127H86.7056V117.271H88.314L88.604 118.589H88.7183C88.9292 118.249 89.1899 117.971 89.5005 117.754C89.8169 117.531 90.1685 117.364 90.5552 117.253C90.9478 117.142 91.355 117.086 91.7769 117.086ZM102.025 117.086C102.892 117.086 103.636 117.265 104.257 117.622C104.878 117.979 105.356 118.486 105.69 119.143C106.024 119.799 106.191 120.584 106.191 121.498V122.605H99.6958C99.7192 123.549 99.9712 124.275 100.452 124.785C100.938 125.295 101.618 125.55 102.491 125.55C103.112 125.55 103.668 125.491 104.161 125.374C104.659 125.251 105.171 125.072 105.699 124.838V126.517C105.212 126.745 104.717 126.912 104.213 127.018C103.709 127.123 103.106 127.176 102.403 127.176C101.448 127.176 100.607 126.991 99.8804 126.622C99.1597 126.247 98.5942 125.69 98.1841 124.952C97.7798 124.214 97.5776 123.297 97.5776 122.201C97.5776 121.111 97.7622 120.186 98.1313 119.424C98.5005 118.662 99.019 118.082 99.687 117.684C100.355 117.285 101.134 117.086 102.025 117.086ZM102.025 118.642C101.375 118.642 100.847 118.853 100.443 119.274C100.044 119.696 99.8101 120.314 99.7397 121.129H104.169C104.164 120.643 104.082 120.212 103.923 119.837C103.771 119.462 103.537 119.169 103.22 118.958C102.91 118.747 102.511 118.642 102.025 118.642ZM115.059 124.223C115.059 124.861 114.904 125.4 114.593 125.84C114.283 126.279 113.829 126.613 113.231 126.842C112.639 127.064 111.913 127.176 111.051 127.176C110.372 127.176 109.786 127.126 109.293 127.026C108.807 126.933 108.347 126.786 107.914 126.587V124.803C108.376 125.02 108.895 125.207 109.469 125.365C110.049 125.523 110.597 125.603 111.113 125.603C111.792 125.603 112.282 125.497 112.581 125.286C112.879 125.069 113.029 124.782 113.029 124.425C113.029 124.214 112.967 124.026 112.844 123.862C112.727 123.692 112.504 123.52 112.176 123.344C111.854 123.162 111.379 122.945 110.752 122.693C110.137 122.447 109.619 122.201 109.197 121.955C108.775 121.709 108.456 121.413 108.239 121.067C108.022 120.716 107.914 120.268 107.914 119.723C107.914 118.861 108.253 118.208 108.933 117.763C109.619 117.312 110.524 117.086 111.649 117.086C112.247 117.086 112.809 117.147 113.336 117.271C113.87 117.388 114.391 117.561 114.901 117.789L114.25 119.345C113.811 119.151 113.369 118.993 112.923 118.87C112.484 118.741 112.036 118.677 111.579 118.677C111.045 118.677 110.638 118.759 110.357 118.923C110.082 119.087 109.944 119.321 109.944 119.626C109.944 119.854 110.011 120.048 110.146 120.206C110.281 120.364 110.512 120.522 110.84 120.681C111.174 120.839 111.637 121.035 112.229 121.27C112.809 121.492 113.31 121.727 113.732 121.973C114.16 122.213 114.488 122.509 114.716 122.86C114.945 123.212 115.059 123.666 115.059 124.223ZM123.831 124.223C123.831 124.861 123.675 125.4 123.365 125.84C123.054 126.279 122.6 126.613 122.002 126.842C121.411 127.064 120.684 127.176 119.823 127.176C119.143 127.176 118.557 127.126 118.065 127.026C117.579 126.933 117.119 126.786 116.685 126.587V124.803C117.148 125.02 117.667 125.207 118.241 125.365C118.821 125.523 119.369 125.603 119.884 125.603C120.564 125.603 121.053 125.497 121.352 125.286C121.651 125.069 121.8 124.782 121.8 124.425C121.8 124.214 121.739 124.026 121.616 123.862C121.499 123.692 121.276 123.52 120.948 123.344C120.625 123.162 120.151 122.945 119.524 122.693C118.909 122.447 118.39 122.201 117.968 121.955C117.546 121.709 117.227 121.413 117.01 121.067C116.793 120.716 116.685 120.268 116.685 119.723C116.685 118.861 117.025 118.208 117.705 117.763C118.39 117.312 119.295 117.086 120.42 117.086C121.018 117.086 121.581 117.147 122.108 117.271C122.641 117.388 123.163 117.561 123.672 117.789L123.022 119.345C122.583 119.151 122.14 118.993 121.695 118.87C121.255 118.741 120.807 118.677 120.35 118.677C119.817 118.677 119.41 118.759 119.128 118.923C118.853 119.087 118.715 119.321 118.715 119.626C118.715 119.854 118.783 120.048 118.917 120.206C119.052 120.364 119.284 120.522 119.612 120.681C119.946 120.839 120.409 121.035 121 121.27C121.581 121.492 122.082 121.727 122.503 121.973C122.931 122.213 123.259 122.509 123.488 122.86C123.716 123.212 123.831 123.666 123.831 124.223Z" fill="#31344E"/>
<g filter="url(#filter2_i_3927_28597)">
<rect x="32.02" y="144" width="416" height="16" rx="8" fill="#D9D9D9"/>
</g>
<rect x="32.02" y="144" width="196" height="16" rx="8" fill="#31344E"/>
<g filter="url(#filter3_d_3927_28597)">
<circle cx="228.02" cy="152" r="14" fill="#828282"/>
</g>
<path d="M46 197.909C46.7028 197.909 47.2724 198.479 47.2725 199.182V200.728C47.2723 201.43 46.7028 202 46 202C45.2972 202 44.7277 201.43 44.7275 200.728V199.182C44.7276 198.479 45.2972 197.909 46 197.909ZM36.9912 195.39C37.4882 194.893 38.2941 194.893 38.791 195.39C39.288 195.887 39.288 196.693 38.791 197.19L37.9912 197.99C37.4943 198.487 36.6885 198.487 36.1914 197.99C35.6944 197.493 35.6944 196.687 36.1914 196.19L36.9912 195.39ZM53.3896 195.39C53.8867 194.893 54.6934 194.893 55.1904 195.39L55.9902 196.19C56.4869 196.687 56.4872 197.493 55.9902 197.99C55.4933 198.487 54.6875 198.487 54.1904 197.99L53.3896 197.19C52.8927 196.693 52.8926 195.887 53.3896 195.39ZM46 182C49.3137 182 52 184.686 52 188C52 191.314 49.3137 194 46 194C42.6863 194 40 191.314 40 188C40 184.686 42.6863 182 46 182ZM46 184.5C44.067 184.5 42.5 186.067 42.5 188C42.5 189.933 44.067 191.5 46 191.5C47.933 191.5 49.5 189.933 49.5 188C49.5 186.067 47.933 184.5 46 184.5ZM34.8184 186.728C35.5212 186.728 36.0908 187.297 36.0908 188C36.0908 188.703 35.5212 189.272 34.8184 189.272H33.2725C32.5697 189.272 32 188.703 32 188C32 187.297 32.5697 186.728 33.2725 186.728H34.8184ZM58.7275 186.728C59.4303 186.728 60 187.297 60 188C60 188.703 59.4303 189.272 58.7275 189.272H57.1816C56.4788 189.272 55.9092 188.703 55.9092 188C55.9092 187.297 56.4788 186.728 57.1816 186.728H58.7275ZM36.1914 178.191C36.6884 177.694 37.4942 177.694 37.9912 178.191L38.791 178.991C39.2878 179.488 39.2879 180.294 38.791 180.791C38.2941 181.288 37.4883 181.288 36.9912 180.791L36.1914 179.991C35.6944 179.494 35.6944 178.688 36.1914 178.191ZM54.1904 178.191C54.6875 177.694 55.4932 177.694 55.9902 178.191C56.4869 178.688 56.4871 179.494 55.9902 179.991L55.1904 180.791C54.6934 181.288 53.8867 181.288 53.3896 180.791C52.8929 180.294 52.8931 179.488 53.3896 178.991L54.1904 178.191ZM46 174C46.7028 174 47.2723 174.57 47.2725 175.272V176.818C47.2724 177.521 46.7028 178.091 46 178.091C45.2972 178.091 44.7276 177.521 44.7275 176.818V175.272C44.7277 174.57 45.2972 174 46 174Z" fill="#31344E"/>
<path d="M434 194.909C434.703 194.909 435.272 195.479 435.272 196.182V200.728C435.272 201.43 434.703 202 434 202C433.297 202 432.728 201.43 432.728 200.728V196.182C432.728 195.479 433.297 194.909 434 194.909ZM426.991 193.39C427.488 192.893 428.294 192.893 428.791 193.39C429.288 193.887 429.288 194.693 428.791 195.19L425.991 197.99C425.494 198.487 424.688 198.487 424.191 197.99C423.694 197.493 423.694 196.687 424.191 196.19L426.991 193.39ZM439.39 193.39C439.887 192.893 440.693 192.893 441.19 193.39L443.99 196.19C444.487 196.687 444.487 197.493 443.99 197.99C443.493 198.487 442.687 198.487 442.19 197.99L439.39 195.19C438.893 194.693 438.893 193.887 439.39 193.39ZM434 182C437.314 182 440 184.686 440 188C440 191.314 437.314 194 434 194C430.686 194 428 191.314 428 188C428 184.686 430.686 182 434 182ZM434 184.5C432.067 184.5 430.5 186.067 430.5 188C430.5 189.933 432.067 191.5 434 191.5C435.933 191.5 437.5 189.933 437.5 188C437.5 186.067 435.933 184.5 434 184.5ZM425.818 186.728C426.521 186.728 427.091 187.297 427.091 188C427.091 188.703 426.521 189.272 425.818 189.272H421.272C420.57 189.272 420 188.703 420 188C420 187.297 420.57 186.728 421.272 186.728H425.818ZM446.728 186.728C447.43 186.728 448 187.297 448 188C448 188.703 447.43 189.272 446.728 189.272H442.182C441.479 189.272 440.909 188.703 440.909 188C440.909 187.297 441.479 186.728 442.182 186.728H446.728ZM424.191 178.191C424.688 177.694 425.494 177.694 425.991 178.191L428.791 180.991C429.288 181.488 429.288 182.294 428.791 182.791C428.294 183.288 427.488 183.288 426.991 182.791L424.191 179.991C423.694 179.494 423.694 178.688 424.191 178.191ZM442.19 178.191C442.687 177.694 443.493 177.694 443.99 178.191C444.487 178.688 444.487 179.494 443.99 179.991L441.19 182.791C440.693 183.288 439.887 183.288 439.39 182.791C438.893 182.294 438.893 181.488 439.39 180.991L442.19 178.191ZM434 175C434.703 175 435.272 175.57 435.272 176.272V179.818C435.272 180.521 434.703 181.091 434 181.091C433.297 181.091 432.728 180.521 432.728 179.818V176.272C432.728 175.57 433.297 175 434 175Z" fill="#31344E"/>
</g>
<g filter="url(#filter4_d_3927_28597)">
<rect x="16.02" y="243" width="448" height="57" rx="10" fill="white" shape-rendering="crispEdges"/>
<rect x="16.52" y="243.5" width="447" height="56" rx="9.5" stroke="#D9D9D9" shape-rendering="crispEdges"/>
<path d="M41.6704 278L40.4136 274.432H35.5005L34.2437 278H32.02L36.8013 265.098H39.1392L43.9116 278H41.6704ZM39.8687 272.621L38.647 269.105C38.6001 268.953 38.5327 268.739 38.4448 268.464C38.3569 268.183 38.269 267.898 38.1812 267.611C38.0933 267.318 38.02 267.072 37.9614 266.873C37.9028 267.113 37.8296 267.383 37.7417 267.682C37.6597 267.975 37.5776 268.25 37.4956 268.508C37.4194 268.766 37.3608 268.965 37.3198 269.105L36.0894 272.621H39.8687ZM48.6665 278.176C47.5063 278.176 46.5747 277.754 45.8716 276.91C45.1743 276.061 44.8257 274.81 44.8257 273.157C44.8257 271.487 45.1802 270.225 45.8892 269.369C46.604 268.514 47.5444 268.086 48.7104 268.086C49.2026 268.086 49.6333 268.153 50.0024 268.288C50.3716 268.417 50.688 268.593 50.9517 268.815C51.2212 269.038 51.4497 269.287 51.6372 269.562H51.7339C51.7046 269.381 51.6694 269.12 51.6284 268.78C51.5933 268.435 51.5757 268.115 51.5757 267.822V264.324H53.6499V278H52.0327L51.6636 276.673H51.5757C51.3999 276.954 51.1772 277.209 50.9077 277.438C50.644 277.66 50.3276 277.839 49.9585 277.974C49.5952 278.108 49.1646 278.176 48.6665 278.176ZM49.2466 276.497C50.1313 276.497 50.7554 276.242 51.1187 275.732C51.4819 275.223 51.6694 274.458 51.6812 273.438V273.166C51.6812 272.076 51.5054 271.241 51.1538 270.661C50.8022 270.075 50.1606 269.782 49.229 269.782C48.4849 269.782 47.9165 270.084 47.5239 270.688C47.1372 271.285 46.9438 272.12 46.9438 273.192C46.9438 274.265 47.1372 275.085 47.5239 275.653C47.9165 276.216 48.4907 276.497 49.2466 276.497ZM60.4263 268.086C61.6567 268.086 62.5854 268.358 63.2124 268.903C63.8452 269.448 64.1616 270.298 64.1616 271.452V278H62.6938L62.2983 276.62H62.228C61.9526 276.972 61.6685 277.262 61.3755 277.49C61.0825 277.719 60.7427 277.889 60.356 278C59.9751 278.117 59.5093 278.176 58.9585 278.176C58.3784 278.176 57.8599 278.07 57.4028 277.859C56.9458 277.643 56.5854 277.314 56.3218 276.875C56.0581 276.436 55.9263 275.879 55.9263 275.205C55.9263 274.203 56.2983 273.45 57.0425 272.946C57.7925 272.442 58.9233 272.164 60.4351 272.111L62.1226 272.05V271.54C62.1226 270.866 61.9644 270.386 61.6479 270.099C61.3374 269.812 60.8979 269.668 60.3296 269.668C59.8433 269.668 59.3716 269.738 58.9146 269.879C58.4575 270.02 58.0122 270.192 57.5786 270.397L56.9106 268.938C57.3853 268.687 57.9243 268.481 58.5278 268.323C59.1372 268.165 59.77 268.086 60.4263 268.086ZM62.1138 273.351L60.8569 273.395C59.8257 273.43 59.1021 273.605 58.686 273.922C58.27 274.238 58.062 274.672 58.062 275.223C58.062 275.703 58.2056 276.055 58.4927 276.277C58.7798 276.494 59.1577 276.603 59.6265 276.603C60.3413 276.603 60.9331 276.4 61.4019 275.996C61.8765 275.586 62.1138 274.985 62.1138 274.194V273.351ZM72.0454 268.086C73.1997 268.086 74.1255 268.508 74.8228 269.352C75.5259 270.195 75.8774 271.449 75.8774 273.113C75.8774 274.215 75.7134 275.144 75.3853 275.899C75.063 276.649 74.6089 277.218 74.0229 277.604C73.4429 277.985 72.7661 278.176 71.9927 278.176C71.5005 278.176 71.0728 278.111 70.7095 277.982C70.3462 277.854 70.0356 277.687 69.7778 277.481C69.52 277.271 69.3032 277.042 69.1274 276.796H69.0044C69.0337 277.03 69.0601 277.291 69.0835 277.578C69.1128 277.859 69.1274 278.117 69.1274 278.352V282.315H67.0532V268.271H68.7407L69.0308 269.615H69.1274C69.3091 269.34 69.5288 269.085 69.7866 268.851C70.0503 268.616 70.3667 268.432 70.7358 268.297C71.1108 268.156 71.5474 268.086 72.0454 268.086ZM71.4917 269.773C70.9233 269.773 70.4663 269.888 70.1206 270.116C69.7808 270.339 69.5317 270.676 69.3735 271.127C69.2212 271.578 69.1392 272.144 69.1274 272.823V273.113C69.1274 273.834 69.2007 274.446 69.3472 274.95C69.4995 275.448 69.7485 275.829 70.0942 276.093C70.4458 276.351 70.9204 276.479 71.5181 276.479C72.022 276.479 72.438 276.342 72.7661 276.066C73.1001 275.791 73.3491 275.398 73.5132 274.889C73.6772 274.379 73.7593 273.778 73.7593 273.087C73.7593 272.038 73.5718 271.224 73.1968 270.644C72.8276 270.063 72.2593 269.773 71.4917 269.773ZM81.8892 276.506C82.1587 276.506 82.4253 276.482 82.689 276.436C82.9526 276.383 83.1929 276.321 83.4097 276.251V277.815C83.1812 277.915 82.8853 278 82.522 278.07C82.1587 278.141 81.7808 278.176 81.3882 278.176C80.8374 278.176 80.3423 278.085 79.9028 277.903C79.4634 277.716 79.1147 277.396 78.8569 276.945C78.5991 276.494 78.4702 275.87 78.4702 275.073V269.844H77.1431V268.921L78.5669 268.191L79.2437 266.108H80.5444V268.271H83.3306V269.844H80.5444V275.047C80.5444 275.539 80.6675 275.905 80.9136 276.146C81.1597 276.386 81.4849 276.506 81.8892 276.506ZM87.4526 268.271V278H85.3872V268.271H87.4526ZM86.4331 264.544C86.7495 264.544 87.022 264.629 87.2505 264.799C87.4849 264.969 87.6021 265.262 87.6021 265.678C87.6021 266.088 87.4849 266.381 87.2505 266.557C87.022 266.727 86.7495 266.812 86.4331 266.812C86.105 266.812 85.8267 266.727 85.5981 266.557C85.3755 266.381 85.2642 266.088 85.2642 265.678C85.2642 265.262 85.3755 264.969 85.5981 264.799C85.8267 264.629 86.105 264.544 86.4331 264.544ZM92.6382 278L88.938 268.271H91.1265L93.1304 273.983C93.2593 274.347 93.3765 274.739 93.4819 275.161C93.5874 275.583 93.6606 275.938 93.7017 276.225H93.772C93.813 275.926 93.8921 275.568 94.0093 275.152C94.1265 274.73 94.2466 274.341 94.3696 273.983L96.3735 268.271H98.5532L94.853 278H92.6382ZM103.906 268.086C104.773 268.086 105.517 268.265 106.138 268.622C106.759 268.979 107.237 269.486 107.571 270.143C107.905 270.799 108.072 271.584 108.072 272.498V273.605H101.577C101.6 274.549 101.852 275.275 102.333 275.785C102.819 276.295 103.499 276.55 104.372 276.55C104.993 276.55 105.549 276.491 106.042 276.374C106.54 276.251 107.052 276.072 107.58 275.838V277.517C107.093 277.745 106.598 277.912 106.094 278.018C105.59 278.123 104.987 278.176 104.284 278.176C103.329 278.176 102.488 277.991 101.761 277.622C101.041 277.247 100.475 276.69 100.065 275.952C99.6606 275.214 99.4585 274.297 99.4585 273.201C99.4585 272.111 99.6431 271.186 100.012 270.424C100.381 269.662 100.9 269.082 101.568 268.684C102.236 268.285 103.015 268.086 103.906 268.086ZM103.906 269.642C103.255 269.642 102.728 269.853 102.324 270.274C101.925 270.696 101.691 271.314 101.621 272.129H106.05C106.044 271.643 105.962 271.212 105.804 270.837C105.652 270.462 105.417 270.169 105.101 269.958C104.791 269.747 104.392 269.642 103.906 269.642ZM115.288 278V265.15H117.397V276.207H122.855V278H115.288ZM126.933 268.271V278H124.868V268.271H126.933ZM125.914 264.544C126.23 264.544 126.502 264.629 126.731 264.799C126.965 264.969 127.083 265.262 127.083 265.678C127.083 266.088 126.965 266.381 126.731 266.557C126.502 266.727 126.23 266.812 125.914 266.812C125.585 266.812 125.307 266.727 125.079 266.557C124.856 266.381 124.745 266.088 124.745 265.678C124.745 265.262 124.856 264.969 125.079 264.799C125.307 264.629 125.585 264.544 125.914 264.544ZM132.672 282.324C131.354 282.324 130.343 282.087 129.64 281.612C128.937 281.138 128.585 280.473 128.585 279.617C128.585 279.02 128.773 278.513 129.148 278.097C129.523 277.687 130.059 277.402 130.756 277.244C130.493 277.127 130.264 276.945 130.071 276.699C129.883 276.447 129.79 276.169 129.79 275.864C129.79 275.501 129.892 275.19 130.097 274.933C130.302 274.675 130.61 274.426 131.02 274.186C130.51 273.969 130.1 273.617 129.79 273.131C129.485 272.639 129.333 272.062 129.333 271.399C129.333 270.696 129.482 270.099 129.781 269.606C130.08 269.108 130.516 268.73 131.09 268.473C131.665 268.209 132.359 268.077 133.173 268.077C133.349 268.077 133.54 268.089 133.745 268.112C133.956 268.13 134.149 268.153 134.325 268.183C134.506 268.206 134.644 268.232 134.738 268.262H138.104V269.413L136.452 269.721C136.61 269.943 136.736 270.198 136.83 270.485C136.923 270.767 136.97 271.074 136.97 271.408C136.97 272.416 136.622 273.21 135.924 273.79C135.233 274.364 134.278 274.651 133.059 274.651C132.766 274.64 132.482 274.616 132.207 274.581C131.996 274.71 131.834 274.854 131.723 275.012C131.612 275.164 131.556 275.337 131.556 275.53C131.556 275.688 131.612 275.817 131.723 275.917C131.834 276.011 131.999 276.081 132.215 276.128C132.438 276.175 132.708 276.198 133.024 276.198H134.703C135.769 276.198 136.583 276.424 137.146 276.875C137.708 277.326 137.99 277.988 137.99 278.861C137.99 279.969 137.533 280.821 136.619 281.419C135.705 282.022 134.389 282.324 132.672 282.324ZM132.751 280.874C133.472 280.874 134.079 280.804 134.571 280.663C135.063 280.522 135.435 280.32 135.687 280.057C135.939 279.799 136.065 279.491 136.065 279.134C136.065 278.817 135.986 278.574 135.828 278.404C135.669 278.234 135.432 278.117 135.116 278.053C134.799 277.988 134.407 277.956 133.938 277.956H132.409C132.028 277.956 131.691 278.015 131.398 278.132C131.105 278.255 130.876 278.431 130.712 278.659C130.554 278.888 130.475 279.163 130.475 279.485C130.475 279.931 130.671 280.273 131.064 280.514C131.462 280.754 132.025 280.874 132.751 280.874ZM133.156 273.298C133.759 273.298 134.208 273.134 134.5 272.806C134.793 272.472 134.94 272.003 134.94 271.399C134.94 270.743 134.788 270.251 134.483 269.923C134.184 269.595 133.739 269.431 133.147 269.431C132.567 269.431 132.125 269.598 131.82 269.932C131.521 270.266 131.372 270.761 131.372 271.417C131.372 272.009 131.521 272.472 131.82 272.806C132.125 273.134 132.57 273.298 133.156 273.298ZM141.945 264.324V267.761C141.945 268.118 141.933 268.467 141.91 268.807C141.892 269.146 141.872 269.41 141.848 269.598H141.962C142.167 269.258 142.419 268.979 142.718 268.763C143.017 268.54 143.351 268.373 143.72 268.262C144.095 268.15 144.494 268.095 144.916 268.095C145.66 268.095 146.292 268.221 146.814 268.473C147.335 268.719 147.734 269.103 148.009 269.624C148.291 270.146 148.431 270.822 148.431 271.654V278H146.366V272.041C146.366 271.285 146.21 270.72 145.9 270.345C145.589 269.964 145.109 269.773 144.458 269.773C143.832 269.773 143.333 269.905 142.964 270.169C142.601 270.427 142.34 270.811 142.182 271.32C142.024 271.824 141.945 272.439 141.945 273.166V278H139.879V264.324H141.945ZM154.944 276.506C155.213 276.506 155.48 276.482 155.744 276.436C156.007 276.383 156.248 276.321 156.464 276.251V277.815C156.236 277.915 155.94 278 155.577 278.07C155.213 278.141 154.835 278.176 154.443 278.176C153.892 278.176 153.397 278.085 152.958 277.903C152.518 277.716 152.169 277.396 151.912 276.945C151.654 276.494 151.525 275.87 151.525 275.073V269.844H150.198V268.921L151.622 268.191L152.298 266.108H153.599V268.271H156.385V269.844H153.599V275.047C153.599 275.539 153.722 275.905 153.968 276.146C154.214 276.386 154.54 276.506 154.944 276.506ZM160.507 268.271V278H158.442V268.271H160.507ZM159.488 264.544C159.804 264.544 160.077 264.629 160.305 264.799C160.54 264.969 160.657 265.262 160.657 265.678C160.657 266.088 160.54 266.381 160.305 266.557C160.077 266.727 159.804 266.812 159.488 266.812C159.16 266.812 158.881 266.727 158.653 266.557C158.43 266.381 158.319 266.088 158.319 265.678C158.319 265.262 158.43 264.969 158.653 264.799C158.881 264.629 159.16 264.544 159.488 264.544ZM168.541 268.086C169.636 268.086 170.489 268.37 171.098 268.938C171.713 269.501 172.021 270.406 172.021 271.654V278H169.956V272.041C169.956 271.285 169.8 270.72 169.49 270.345C169.179 269.964 168.699 269.773 168.048 269.773C167.105 269.773 166.449 270.063 166.08 270.644C165.716 271.224 165.535 272.064 165.535 273.166V278H163.469V268.271H165.078L165.368 269.589H165.482C165.693 269.249 165.954 268.971 166.264 268.754C166.581 268.531 166.932 268.364 167.319 268.253C167.711 268.142 168.119 268.086 168.541 268.086ZM177.69 282.324C176.372 282.324 175.361 282.087 174.658 281.612C173.955 281.138 173.603 280.473 173.603 279.617C173.603 279.02 173.791 278.513 174.166 278.097C174.541 277.687 175.077 277.402 175.774 277.244C175.51 277.127 175.282 276.945 175.088 276.699C174.901 276.447 174.807 276.169 174.807 275.864C174.807 275.501 174.91 275.19 175.115 274.933C175.32 274.675 175.627 274.426 176.038 274.186C175.528 273.969 175.118 273.617 174.807 273.131C174.502 272.639 174.35 272.062 174.35 271.399C174.35 270.696 174.5 270.099 174.798 269.606C175.097 269.108 175.534 268.73 176.108 268.473C176.682 268.209 177.376 268.077 178.191 268.077C178.367 268.077 178.557 268.089 178.762 268.112C178.973 268.13 179.167 268.153 179.342 268.183C179.524 268.206 179.662 268.232 179.755 268.262H183.122V269.413L181.469 269.721C181.627 269.943 181.753 270.198 181.847 270.485C181.941 270.767 181.988 271.074 181.988 271.408C181.988 272.416 181.639 273.21 180.942 273.79C180.25 274.364 179.295 274.651 178.077 274.651C177.784 274.64 177.5 274.616 177.224 274.581C177.013 274.71 176.852 274.854 176.741 275.012C176.629 275.164 176.574 275.337 176.574 275.53C176.574 275.688 176.629 275.817 176.741 275.917C176.852 276.011 177.016 276.081 177.233 276.128C177.456 276.175 177.725 276.198 178.042 276.198H179.72C180.787 276.198 181.601 276.424 182.164 276.875C182.726 277.326 183.007 277.988 183.007 278.861C183.007 279.969 182.55 280.821 181.636 281.419C180.722 282.022 179.407 282.324 177.69 282.324ZM177.769 280.874C178.49 280.874 179.096 280.804 179.588 280.663C180.081 280.522 180.453 280.32 180.705 280.057C180.957 279.799 181.083 279.491 181.083 279.134C181.083 278.817 181.003 278.574 180.845 278.404C180.687 278.234 180.45 278.117 180.133 278.053C179.817 277.988 179.424 277.956 178.956 277.956H177.426C177.045 277.956 176.708 278.015 176.416 278.132C176.123 278.255 175.894 278.431 175.73 278.659C175.572 278.888 175.493 279.163 175.493 279.485C175.493 279.931 175.689 280.273 176.082 280.514C176.48 280.754 177.042 280.874 177.769 280.874ZM178.173 273.298C178.777 273.298 179.225 273.134 179.518 272.806C179.811 272.472 179.958 272.003 179.958 271.399C179.958 270.743 179.805 270.251 179.5 269.923C179.202 269.595 178.756 269.431 178.165 269.431C177.584 269.431 177.142 269.598 176.837 269.932C176.539 270.266 176.389 270.761 176.389 271.417C176.389 272.009 176.539 272.472 176.837 272.806C177.142 273.134 177.587 273.298 178.173 273.298Z" fill="#31344E"/>
<rect x="380.7" y="253.68" width="68.64" height="35.64" rx="17.82" fill="white" stroke="#D1D1D1" stroke-width="2.64"/>
<ellipse cx="399.164" cy="271.5" rx="14.5415" ry="14.2453" fill="#707070"/>
</g>
<defs>
<filter id="filter0_d_3927_28597" x="12" y="382" width="456" height="88" filterUnits="userSpaceOnUse" color-interpolation-filters="sRGB">
<feFlood flood-opacity="0" result="BackgroundImageFix"/>
<feColorMatrix in="SourceAlpha" type="matrix" values="0 0 0 0 0 0 0 0 0 0 0 0 0 0 0 0 0 0 127 0" result="hardAlpha"/>
<feOffset dy="2"/>
<feGaussianBlur stdDeviation="2"/>
<feComposite in2="hardAlpha" operator="out"/>
<feColorMatrix type="matrix" values="0 0 0 0 0 0 0 0 0 0 0 0 0 0 0 0 0 0 0.25 0"/>
<feBlend mode="normal" in2="BackgroundImageFix" result="effect1_dropShadow_3927_28597"/>
<feBlend mode="normal" in="SourceGraphic" in2="effect1_dropShadow_3927_28597" result="shape"/>
</filter>
<filter id="filter1_d_3927_28597" x="10.02" y="77" width="460" height="163" filterUnits="userSpaceOnUse" color-interpolation-filters="sRGB">
<feFlood flood-opacity="0" result="BackgroundImageFix"/>
<feColorMatrix in="SourceAlpha" type="matrix" values="0 0 0 0 0 0 0 0 0 0 0 0 0 0 0 0 0 0 127 0" result="hardAlpha"/>
<feOffset dy="3"/>
<feGaussianBlur stdDeviation="3"/>
<feComposite in2="hardAlpha" operator="out"/>
<feColorMatrix type="matrix" values="0 0 0 0 0 0 0 0 0 0 0 0 0 0 0 0 0 0 0.25 0"/>
<feBlend mode="normal" in2="BackgroundImageFix" result="effect1_dropShadow_3927_28597"/>
<feBlend mode="normal" in="SourceGraphic" in2="effect1_dropShadow_3927_28597" result="shape"/>
</filter>
<filter id="filter2_i_3927_28597" x="32.02" y="144" width="416" height="18" filterUnits="userSpaceOnUse" color-interpolation-filters="sRGB">
<feFlood flood-opacity="0" result="BackgroundImageFix"/>
<feBlend mode="normal" in="SourceGraphic" in2="BackgroundImageFix" result="shape"/>
<feColorMatrix in="SourceAlpha" type="matrix" values="0 0 0 0 0 0 0 0 0 0 0 0 0 0 0 0 0 0 127 0" result="hardAlpha"/>
<feOffset dy="2"/>
<feGaussianBlur stdDeviation="2"/>
<feComposite in2="hardAlpha" operator="arithmetic" k2="-1" k3="1"/>
<feColorMatrix type="matrix" values="0 0 0 0 0 0 0 0 0 0 0 0 0 0 0 0 0 0 0.25 0"/>
<feBlend mode="normal" in2="shape" result="effect1_innerShadow_3927_28597"/>
</filter>
<filter id="filter3_d_3927_28597" x="210.02" y="134" width="36" height="36" filterUnits="userSpaceOnUse" color-interpolation-filters="sRGB">
<feFlood flood-opacity="0" result="BackgroundImageFix"/>
<feColorMatrix in="SourceAlpha" type="matrix" values="0 0 0 0 0 0 0 0 0 0 0 0 0 0 0 0 0 0 127 0" result="hardAlpha"/>
<feOffset/>
<feGaussianBlur stdDeviation="2"/>
<feComposite in2="hardAlpha" operator="out"/>
<feColorMatrix type="matrix" values="0 0 0 0 0 0 0 0 0 0 0 0 0 0 0 0 0 0 0.25 0"/>
<feBlend mode="normal" in2="BackgroundImageFix" result="effect1_dropShadow_3927_28597"/>
<feBlend mode="normal" in="SourceGraphic" in2="effect1_dropShadow_3927_28597" result="shape"/>
</filter>
<filter id="filter4_d_3927_28597" x="10.02" y="240" width="460" height="69" filterUnits="userSpaceOnUse" color-interpolation-filters="sRGB">
<feFlood flood-opacity="0" result="BackgroundImageFix"/>
<feColorMatrix in="SourceAlpha" type="matrix" values="0 0 0 0 0 0 0 0 0 0 0 0 0 0 0 0 0 0 127 0" result="hardAlpha"/>
<feOffset dy="3"/>
<feGaussianBlur stdDeviation="3"/>
<feComposite in2="hardAlpha" operator="out"/>
<feColorMatrix type="matrix" values="0 0 0 0 0 0 0 0 0 0 0 0 0 0 0 0 0 0 0.25 0"/>
<feBlend mode="normal" in2="BackgroundImageFix" result="effect1_dropShadow_3927_28597"/>
<feBlend mode="normal" in="SourceGraphic" in2="effect1_dropShadow_3927_28597" result="shape"/>
</filter>
</defs>
</svg>
