<svg width="480" height="480" viewBox="0 0 480 480" fill="none" xmlns="http://www.w3.org/2000/svg">
<rect width="480" height="480" fill="#F6F6F6"/>
<g filter="url(#filter0_d_6143_17039)">
<rect x="16.5" y="80.5" width="447" height="289" rx="6.5" fill="white" stroke="#D1D1D1"/>
<path d="M40.9648 113H33.6875V100.15H40.9648V101.926H35.7969V105.415H40.6396V107.182H35.7969V111.216H40.9648V113ZM45.6846 108.025L42.4326 103.271H44.7881L47.0117 106.689L49.2441 103.271H51.5908L48.3213 108.025L51.7578 113H49.3936L47.0117 109.353L44.6211 113H42.2744L45.6846 108.025ZM55.5107 103.271V113H53.4453V103.271H55.5107ZM54.4912 99.5439C54.8076 99.5439 55.0801 99.6289 55.3086 99.7988C55.543 99.9688 55.6602 100.262 55.6602 100.678C55.6602 101.088 55.543 101.381 55.3086 101.557C55.0801 101.727 54.8076 101.812 54.4912 101.812C54.1631 101.812 53.8848 101.727 53.6562 101.557C53.4336 101.381 53.3223 101.088 53.3223 100.678C53.3223 100.262 53.4336 99.9688 53.6562 99.7988C53.8848 99.6289 54.1631 99.5439 54.4912 99.5439ZM62.0938 111.506C62.3633 111.506 62.6299 111.482 62.8936 111.436C63.1572 111.383 63.3975 111.321 63.6143 111.251V112.815C63.3857 112.915 63.0898 113 62.7266 113.07C62.3633 113.141 61.9854 113.176 61.5928 113.176C61.042 113.176 60.5469 113.085 60.1074 112.903C59.668 112.716 59.3193 112.396 59.0615 111.945C58.8037 111.494 58.6748 110.87 58.6748 110.073V104.844H57.3477V103.921L58.7715 103.191L59.4482 101.108H60.749V103.271H63.5352V104.844H60.749V110.047C60.749 110.539 60.8721 110.905 61.1182 111.146C61.3643 111.386 61.6895 111.506 62.0938 111.506ZM78.4414 113L77.1846 109.432H72.2715L71.0146 113H68.791L73.5723 100.098H75.9102L80.6826 113H78.4414ZM76.6396 107.621L75.418 104.105C75.3711 103.953 75.3037 103.739 75.2158 103.464C75.1279 103.183 75.04 102.898 74.9521 102.611C74.8643 102.318 74.791 102.072 74.7324 101.873C74.6738 102.113 74.6006 102.383 74.5127 102.682C74.4307 102.975 74.3486 103.25 74.2666 103.508C74.1904 103.766 74.1318 103.965 74.0908 104.105L72.8604 107.621H76.6396ZM84.2422 113H82.168V99.3242H84.2422V113ZM91.0713 103.086C91.9385 103.086 92.6826 103.265 93.3037 103.622C93.9248 103.979 94.4023 104.486 94.7363 105.143C95.0703 105.799 95.2373 106.584 95.2373 107.498V108.605H88.7422C88.7656 109.549 89.0176 110.275 89.498 110.785C89.9844 111.295 90.6641 111.55 91.5371 111.55C92.1582 111.55 92.7148 111.491 93.207 111.374C93.7051 111.251 94.2178 111.072 94.7451 110.838V112.517C94.2588 112.745 93.7637 112.912 93.2598 113.018C92.7559 113.123 92.1523 113.176 91.4492 113.176C90.4941 113.176 89.6533 112.991 88.9268 112.622C88.2061 112.247 87.6406 111.69 87.2305 110.952C86.8262 110.214 86.624 109.297 86.624 108.201C86.624 107.111 86.8086 106.186 87.1777 105.424C87.5469 104.662 88.0654 104.082 88.7334 103.684C89.4014 103.285 90.1807 103.086 91.0713 103.086ZM91.0713 104.642C90.4209 104.642 89.8936 104.853 89.4893 105.274C89.0908 105.696 88.8564 106.314 88.7861 107.129H93.2158C93.21 106.643 93.1279 106.212 92.9697 105.837C92.8174 105.462 92.583 105.169 92.2666 104.958C91.9561 104.747 91.5576 104.642 91.0713 104.642ZM102.497 103.086C102.661 103.086 102.84 103.095 103.033 103.112C103.227 103.13 103.394 103.153 103.534 103.183L103.341 105.116C103.218 105.081 103.065 105.055 102.884 105.037C102.708 105.02 102.55 105.011 102.409 105.011C102.04 105.011 101.688 105.072 101.354 105.195C101.021 105.312 100.725 105.494 100.467 105.74C100.209 105.98 100.007 106.282 99.8604 106.646C99.7139 107.009 99.6406 107.431 99.6406 107.911V113H97.5664V103.271H99.1836L99.4648 104.984H99.5615C99.7549 104.639 99.9951 104.322 100.282 104.035C100.569 103.748 100.897 103.52 101.267 103.35C101.642 103.174 102.052 103.086 102.497 103.086ZM108.957 111.506C109.227 111.506 109.493 111.482 109.757 111.436C110.021 111.383 110.261 111.321 110.478 111.251V112.815C110.249 112.915 109.953 113 109.59 113.07C109.227 113.141 108.849 113.176 108.456 113.176C107.905 113.176 107.41 113.085 106.971 112.903C106.531 112.716 106.183 112.396 105.925 111.945C105.667 111.494 105.538 110.87 105.538 110.073V104.844H104.211V103.921L105.635 103.191L106.312 101.108H107.612V103.271H110.398V104.844H107.612V110.047C107.612 110.539 107.735 110.905 107.981 111.146C108.228 111.386 108.553 111.506 108.957 111.506ZM124.76 109.502C124.76 110.264 124.572 110.92 124.197 111.471C123.828 112.021 123.295 112.443 122.598 112.736C121.906 113.029 121.08 113.176 120.119 113.176C119.65 113.176 119.202 113.149 118.774 113.097C118.347 113.044 117.942 112.968 117.562 112.868C117.187 112.763 116.844 112.637 116.533 112.49V110.504C117.055 110.732 117.638 110.94 118.282 111.128C118.927 111.31 119.583 111.4 120.251 111.4C120.796 111.4 121.247 111.33 121.604 111.189C121.968 111.043 122.237 110.838 122.413 110.574C122.589 110.305 122.677 109.991 122.677 109.634C122.677 109.253 122.574 108.931 122.369 108.667C122.164 108.403 121.854 108.163 121.438 107.946C121.027 107.724 120.512 107.486 119.891 107.234C119.469 107.064 119.064 106.871 118.678 106.654C118.297 106.438 117.957 106.183 117.658 105.89C117.359 105.597 117.122 105.251 116.946 104.853C116.776 104.448 116.691 103.974 116.691 103.429C116.691 102.702 116.864 102.081 117.21 101.565C117.562 101.05 118.054 100.654 118.687 100.379C119.325 100.104 120.069 99.9658 120.919 99.9658C121.593 99.9658 122.226 100.036 122.817 100.177C123.415 100.317 124.001 100.517 124.575 100.774L123.907 102.471C123.38 102.254 122.867 102.081 122.369 101.952C121.877 101.823 121.373 101.759 120.857 101.759C120.412 101.759 120.034 101.826 119.724 101.961C119.413 102.096 119.176 102.286 119.012 102.532C118.854 102.772 118.774 103.06 118.774 103.394C118.774 103.769 118.865 104.085 119.047 104.343C119.234 104.595 119.521 104.826 119.908 105.037C120.301 105.248 120.805 105.482 121.42 105.74C122.129 106.033 122.729 106.341 123.222 106.663C123.72 106.985 124.101 107.372 124.364 107.823C124.628 108.269 124.76 108.828 124.76 109.502ZM130.947 113.176C130.027 113.176 129.23 112.997 128.557 112.64C127.883 112.282 127.364 111.734 127.001 110.996C126.638 110.258 126.456 109.32 126.456 108.184C126.456 107 126.655 106.033 127.054 105.283C127.452 104.533 128.003 103.979 128.706 103.622C129.415 103.265 130.227 103.086 131.141 103.086C131.721 103.086 132.245 103.145 132.714 103.262C133.188 103.373 133.59 103.511 133.918 103.675L133.303 105.327C132.945 105.181 132.579 105.058 132.204 104.958C131.829 104.858 131.469 104.809 131.123 104.809C130.555 104.809 130.08 104.935 129.699 105.187C129.324 105.438 129.043 105.813 128.855 106.312C128.674 106.81 128.583 107.428 128.583 108.166C128.583 108.881 128.677 109.484 128.864 109.977C129.052 110.463 129.33 110.832 129.699 111.084C130.068 111.33 130.522 111.453 131.062 111.453C131.595 111.453 132.072 111.389 132.494 111.26C132.916 111.131 133.314 110.964 133.689 110.759V112.552C133.32 112.763 132.925 112.918 132.503 113.018C132.081 113.123 131.562 113.176 130.947 113.176ZM138.04 99.3242V102.761C138.04 103.118 138.028 103.467 138.005 103.807C137.987 104.146 137.967 104.41 137.943 104.598H138.058C138.263 104.258 138.515 103.979 138.813 103.763C139.112 103.54 139.446 103.373 139.815 103.262C140.19 103.15 140.589 103.095 141.011 103.095C141.755 103.095 142.388 103.221 142.909 103.473C143.431 103.719 143.829 104.103 144.104 104.624C144.386 105.146 144.526 105.822 144.526 106.654V113H142.461V107.041C142.461 106.285 142.306 105.72 141.995 105.345C141.685 104.964 141.204 104.773 140.554 104.773C139.927 104.773 139.429 104.905 139.06 105.169C138.696 105.427 138.436 105.811 138.277 106.32C138.119 106.824 138.04 107.439 138.04 108.166V113H135.975V99.3242H138.04ZM151.294 103.086C152.161 103.086 152.905 103.265 153.526 103.622C154.147 103.979 154.625 104.486 154.959 105.143C155.293 105.799 155.46 106.584 155.46 107.498V108.605H148.965C148.988 109.549 149.24 110.275 149.721 110.785C150.207 111.295 150.887 111.55 151.76 111.55C152.381 111.55 152.938 111.491 153.43 111.374C153.928 111.251 154.44 111.072 154.968 110.838V112.517C154.481 112.745 153.986 112.912 153.482 113.018C152.979 113.123 152.375 113.176 151.672 113.176C150.717 113.176 149.876 112.991 149.149 112.622C148.429 112.247 147.863 111.69 147.453 110.952C147.049 110.214 146.847 109.297 146.847 108.201C146.847 107.111 147.031 106.186 147.4 105.424C147.77 104.662 148.288 104.082 148.956 103.684C149.624 103.285 150.403 103.086 151.294 103.086ZM151.294 104.642C150.644 104.642 150.116 104.853 149.712 105.274C149.313 105.696 149.079 106.314 149.009 107.129H153.438C153.433 106.643 153.351 106.212 153.192 105.837C153.04 105.462 152.806 105.169 152.489 104.958C152.179 104.747 151.78 104.642 151.294 104.642ZM161.059 113.176C159.898 113.176 158.967 112.754 158.264 111.91C157.566 111.061 157.218 109.81 157.218 108.157C157.218 106.487 157.572 105.225 158.281 104.369C158.996 103.514 159.937 103.086 161.103 103.086C161.595 103.086 162.025 103.153 162.395 103.288C162.764 103.417 163.08 103.593 163.344 103.815C163.613 104.038 163.842 104.287 164.029 104.562H164.126C164.097 104.381 164.062 104.12 164.021 103.78C163.985 103.435 163.968 103.115 163.968 102.822V99.3242H166.042V113H164.425L164.056 111.673H163.968C163.792 111.954 163.569 112.209 163.3 112.438C163.036 112.66 162.72 112.839 162.351 112.974C161.987 113.108 161.557 113.176 161.059 113.176ZM161.639 111.497C162.523 111.497 163.147 111.242 163.511 110.732C163.874 110.223 164.062 109.458 164.073 108.438V108.166C164.073 107.076 163.897 106.241 163.546 105.661C163.194 105.075 162.553 104.782 161.621 104.782C160.877 104.782 160.309 105.084 159.916 105.688C159.529 106.285 159.336 107.12 159.336 108.192C159.336 109.265 159.529 110.085 159.916 110.653C160.309 111.216 160.883 111.497 161.639 111.497ZM177.485 103.271V113H175.859L175.578 111.69H175.464C175.259 112.024 174.998 112.303 174.682 112.525C174.365 112.742 174.014 112.903 173.627 113.009C173.24 113.12 172.833 113.176 172.405 113.176C171.673 113.176 171.046 113.053 170.524 112.807C170.009 112.555 169.613 112.168 169.338 111.646C169.062 111.125 168.925 110.451 168.925 109.625V103.271H170.999V109.238C170.999 109.994 171.151 110.56 171.456 110.935C171.767 111.31 172.247 111.497 172.897 111.497C173.524 111.497 174.022 111.368 174.392 111.11C174.761 110.853 175.021 110.472 175.174 109.968C175.332 109.464 175.411 108.846 175.411 108.113V103.271H177.485ZM182.521 113H180.447V99.3242H182.521V113ZM189.351 103.086C190.218 103.086 190.962 103.265 191.583 103.622C192.204 103.979 192.682 104.486 193.016 105.143C193.35 105.799 193.517 106.584 193.517 107.498V108.605H187.021C187.045 109.549 187.297 110.275 187.777 110.785C188.264 111.295 188.943 111.55 189.816 111.55C190.438 111.55 190.994 111.491 191.486 111.374C191.984 111.251 192.497 111.072 193.024 110.838V112.517C192.538 112.745 192.043 112.912 191.539 113.018C191.035 113.123 190.432 113.176 189.729 113.176C188.773 113.176 187.933 112.991 187.206 112.622C186.485 112.247 185.92 111.69 185.51 110.952C185.105 110.214 184.903 109.297 184.903 108.201C184.903 107.111 185.088 106.186 185.457 105.424C185.826 104.662 186.345 104.082 187.013 103.684C187.681 103.285 188.46 103.086 189.351 103.086ZM189.351 104.642C188.7 104.642 188.173 104.853 187.769 105.274C187.37 105.696 187.136 106.314 187.065 107.129H191.495C191.489 106.643 191.407 106.212 191.249 105.837C191.097 105.462 190.862 105.169 190.546 104.958C190.235 104.747 189.837 104.642 189.351 104.642Z" fill="#31344E"/>
<g filter="url(#filter1_d_6143_17039)">
<path d="M42 132.5H437C442.247 132.5 446.5 136.753 446.5 142V186C446.5 191.247 442.247 195.5 437 195.5H42C36.7533 195.5 32.5 191.247 32.5 186V142C32.5 136.753 36.7533 132.5 42 132.5Z" fill="white"/>
<path d="M42 132.5H437C442.247 132.5 446.5 136.753 446.5 142V186C446.5 191.247 442.247 195.5 437 195.5H42C36.7533 195.5 32.5 191.247 32.5 186V142C32.5 136.753 36.7533 132.5 42 132.5Z" stroke="#D1D1D1"/>
<path d="M56.0088 167.081C56.0088 167.843 55.8184 168.493 55.4375 169.032C55.0625 169.565 54.5352 169.973 53.8555 170.254C53.1758 170.535 52.376 170.676 51.4561 170.676C50.9697 170.676 50.5098 170.652 50.0762 170.605C49.6426 170.559 49.2441 170.491 48.8809 170.403C48.5176 170.315 48.1982 170.207 47.9229 170.078V168.646C48.3623 168.827 48.8984 168.997 49.5312 169.155C50.1641 169.308 50.8262 169.384 51.5176 169.384C52.1621 169.384 52.707 169.299 53.1523 169.129C53.5977 168.953 53.9346 168.704 54.1631 168.382C54.3975 168.054 54.5146 167.661 54.5146 167.204C54.5146 166.765 54.418 166.398 54.2246 166.105C54.0312 165.807 53.709 165.537 53.2578 165.297C52.8125 165.051 52.2031 164.79 51.4297 164.515C50.8848 164.321 50.4043 164.11 49.9883 163.882C49.5723 163.647 49.2236 163.384 48.9424 163.091C48.6611 162.798 48.4473 162.458 48.3008 162.071C48.1602 161.685 48.0898 161.242 48.0898 160.744C48.0898 160.059 48.2627 159.473 48.6084 158.986C48.96 158.494 49.4434 158.119 50.0586 157.861C50.6797 157.598 51.3916 157.466 52.1943 157.466C52.8799 157.466 53.5127 157.53 54.0928 157.659C54.6787 157.788 55.2148 157.961 55.7012 158.178L55.2354 159.461C54.7725 159.268 54.2803 159.106 53.7588 158.978C53.2432 158.849 52.71 158.784 52.1592 158.784C51.6084 158.784 51.1426 158.866 50.7617 159.03C50.3867 159.188 50.0996 159.414 49.9004 159.707C49.7012 160 49.6016 160.349 49.6016 160.753C49.6016 161.204 49.6953 161.579 49.8828 161.878C50.0762 162.177 50.3809 162.443 50.7969 162.678C51.2188 162.906 51.7754 163.146 52.4668 163.398C53.2227 163.674 53.8643 163.967 54.3916 164.277C54.9189 164.582 55.3203 164.957 55.5957 165.402C55.8711 165.842 56.0088 166.401 56.0088 167.081ZM62.2754 170.676C61.4082 170.676 60.6436 170.497 59.9814 170.14C59.3193 169.782 58.8037 169.237 58.4346 168.505C58.0654 167.772 57.8809 166.85 57.8809 165.736C57.8809 164.57 58.0742 163.618 58.4609 162.88C58.8535 162.136 59.3926 161.585 60.0781 161.228C60.7637 160.87 61.543 160.691 62.416 160.691C62.8965 160.691 63.3594 160.741 63.8047 160.841C64.2559 160.935 64.625 161.055 64.9121 161.201L64.4727 162.423C64.1797 162.306 63.8398 162.2 63.4531 162.106C63.0723 162.013 62.7148 161.966 62.3809 161.966C61.7129 161.966 61.1562 162.109 60.7109 162.396C60.2715 162.684 59.9404 163.105 59.7178 163.662C59.501 164.219 59.3926 164.904 59.3926 165.719C59.3926 166.498 59.498 167.163 59.709 167.714C59.9258 168.265 60.2451 168.687 60.667 168.979C61.0947 169.267 61.6279 169.41 62.2666 169.41C62.7764 169.41 63.2363 169.357 63.6465 169.252C64.0566 169.141 64.4287 169.012 64.7627 168.865V170.166C64.4404 170.33 64.0801 170.456 63.6816 170.544C63.2891 170.632 62.8203 170.676 62.2754 170.676ZM68.5068 156.824V160.911C68.5068 161.146 68.501 161.383 68.4893 161.623C68.4775 161.857 68.457 162.074 68.4277 162.273H68.5244C68.7236 161.934 68.9756 161.649 69.2803 161.421C69.5908 161.187 69.9424 161.011 70.335 160.894C70.7275 160.771 71.1436 160.709 71.583 160.709C72.3564 160.709 73.001 160.832 73.5166 161.078C74.0381 161.324 74.4277 161.705 74.6855 162.221C74.9492 162.736 75.0811 163.404 75.0811 164.225V170.5H73.6396V164.321C73.6396 163.519 73.4551 162.918 73.0859 162.52C72.7227 162.121 72.1631 161.922 71.4072 161.922C70.6924 161.922 70.1211 162.06 69.6934 162.335C69.2715 162.604 68.9668 163.003 68.7793 163.53C68.5977 164.058 68.5068 164.702 68.5068 165.464V170.5H67.0479V156.824H68.5068ZM81.7959 160.691C82.6162 160.691 83.3193 160.873 83.9053 161.236C84.4912 161.6 84.9395 162.109 85.25 162.766C85.5605 163.416 85.7158 164.178 85.7158 165.051V165.956H79.0625C79.0801 167.087 79.3613 167.948 79.9062 168.54C80.4512 169.132 81.2188 169.428 82.209 169.428C82.8184 169.428 83.3574 169.372 83.8262 169.261C84.2949 169.149 84.7812 168.985 85.2852 168.769V170.052C84.7988 170.269 84.3154 170.427 83.835 170.526C83.3604 170.626 82.7979 170.676 82.1475 170.676C81.2217 170.676 80.4131 170.488 79.7217 170.113C79.0361 169.732 78.5029 169.176 78.1221 168.443C77.7412 167.711 77.5508 166.814 77.5508 165.754C77.5508 164.717 77.7236 163.82 78.0693 163.064C78.4209 162.303 78.9131 161.717 79.5459 161.307C80.1846 160.896 80.9346 160.691 81.7959 160.691ZM81.7783 161.887C80.999 161.887 80.3779 162.142 79.915 162.651C79.4521 163.161 79.1768 163.873 79.0889 164.787H84.1865C84.1807 164.213 84.0898 163.709 83.9141 163.275C83.7441 162.836 83.4834 162.496 83.1318 162.256C82.7803 162.01 82.3291 161.887 81.7783 161.887ZM91.6221 170.676C90.4033 170.676 89.4365 170.26 88.7217 169.428C88.0127 168.596 87.6582 167.359 87.6582 165.719C87.6582 164.061 88.0215 162.81 88.748 161.966C89.4746 161.116 90.4414 160.691 91.6484 160.691C92.1582 160.691 92.6035 160.759 92.9844 160.894C93.3652 161.028 93.6934 161.21 93.9688 161.438C94.2441 161.661 94.4756 161.916 94.6631 162.203H94.7686C94.7451 162.021 94.7217 161.772 94.6982 161.456C94.6748 161.14 94.6631 160.882 94.6631 160.683V156.824H96.1221V170.5H94.9443L94.7246 169.129H94.6631C94.4814 169.416 94.25 169.677 93.9688 169.911C93.6934 170.146 93.3623 170.333 92.9756 170.474C92.5947 170.608 92.1436 170.676 91.6221 170.676ZM91.8506 169.463C92.8818 169.463 93.6113 169.17 94.0391 168.584C94.4668 167.998 94.6807 167.128 94.6807 165.974V165.71C94.6807 164.485 94.4756 163.545 94.0654 162.889C93.6611 162.232 92.9229 161.904 91.8506 161.904C90.9541 161.904 90.2832 162.25 89.8379 162.941C89.3926 163.627 89.1699 164.564 89.1699 165.754C89.1699 166.938 89.3896 167.852 89.8291 168.496C90.2744 169.141 90.9482 169.463 91.8506 169.463ZM107.17 160.867V170.5H105.975L105.764 169.146H105.685C105.485 169.48 105.228 169.762 104.911 169.99C104.595 170.219 104.237 170.389 103.839 170.5C103.446 170.617 103.027 170.676 102.582 170.676C101.82 170.676 101.182 170.553 100.666 170.307C100.15 170.061 99.7607 169.68 99.4971 169.164C99.2393 168.648 99.1104 167.986 99.1104 167.178V160.867H100.587V167.072C100.587 167.875 100.769 168.476 101.132 168.874C101.495 169.267 102.049 169.463 102.793 169.463C103.508 169.463 104.076 169.328 104.498 169.059C104.926 168.789 105.233 168.394 105.421 167.872C105.608 167.345 105.702 166.7 105.702 165.938V160.867H107.17ZM111.723 170.5H110.255V156.824H111.723V170.5ZM118.517 160.691C119.337 160.691 120.04 160.873 120.626 161.236C121.212 161.6 121.66 162.109 121.971 162.766C122.281 163.416 122.437 164.178 122.437 165.051V165.956H115.783C115.801 167.087 116.082 167.948 116.627 168.54C117.172 169.132 117.939 169.428 118.93 169.428C119.539 169.428 120.078 169.372 120.547 169.261C121.016 169.149 121.502 168.985 122.006 168.769V170.052C121.52 170.269 121.036 170.427 120.556 170.526C120.081 170.626 119.519 170.676 118.868 170.676C117.942 170.676 117.134 170.488 116.442 170.113C115.757 169.732 115.224 169.176 114.843 168.443C114.462 167.711 114.271 166.814 114.271 165.754C114.271 164.717 114.444 163.82 114.79 163.064C115.142 162.303 115.634 161.717 116.267 161.307C116.905 160.896 117.655 160.691 118.517 160.691ZM118.499 161.887C117.72 161.887 117.099 162.142 116.636 162.651C116.173 163.161 115.897 163.873 115.81 164.787H120.907C120.901 164.213 120.811 163.709 120.635 163.275C120.465 162.836 120.204 162.496 119.853 162.256C119.501 162.01 119.05 161.887 118.499 161.887ZM128.343 170.676C127.124 170.676 126.157 170.26 125.442 169.428C124.733 168.596 124.379 167.359 124.379 165.719C124.379 164.061 124.742 162.81 125.469 161.966C126.195 161.116 127.162 160.691 128.369 160.691C128.879 160.691 129.324 160.759 129.705 160.894C130.086 161.028 130.414 161.21 130.689 161.438C130.965 161.661 131.196 161.916 131.384 162.203H131.489C131.466 162.021 131.442 161.772 131.419 161.456C131.396 161.14 131.384 160.882 131.384 160.683V156.824H132.843V170.5H131.665L131.445 169.129H131.384C131.202 169.416 130.971 169.677 130.689 169.911C130.414 170.146 130.083 170.333 129.696 170.474C129.315 170.608 128.864 170.676 128.343 170.676ZM128.571 169.463C129.603 169.463 130.332 169.17 130.76 168.584C131.188 167.998 131.401 167.128 131.401 165.974V165.71C131.401 164.485 131.196 163.545 130.786 162.889C130.382 162.232 129.644 161.904 128.571 161.904C127.675 161.904 127.004 162.25 126.559 162.941C126.113 163.627 125.891 164.564 125.891 165.754C125.891 166.938 126.11 167.852 126.55 168.496C126.995 169.141 127.669 169.463 128.571 169.463ZM146.483 170.5L142.168 159.127H142.098C142.121 159.367 142.142 159.66 142.159 160.006C142.177 160.352 142.191 160.729 142.203 161.14C142.215 161.544 142.221 161.957 142.221 162.379V170.5H140.832V157.65H143.047L147.116 168.338H147.178L151.309 157.65H153.506V170.5H152.029V162.273C152.029 161.893 152.035 161.512 152.047 161.131C152.059 160.744 152.073 160.381 152.091 160.041C152.108 159.695 152.126 159.396 152.144 159.145H152.073L147.705 170.5H146.483ZM165.107 165.666C165.107 166.457 165.005 167.163 164.8 167.784C164.595 168.405 164.299 168.93 163.912 169.357C163.525 169.785 163.057 170.113 162.506 170.342C161.961 170.564 161.343 170.676 160.651 170.676C160.007 170.676 159.415 170.564 158.876 170.342C158.343 170.113 157.88 169.785 157.487 169.357C157.101 168.93 156.799 168.405 156.582 167.784C156.371 167.163 156.266 166.457 156.266 165.666C156.266 164.611 156.444 163.715 156.802 162.977C157.159 162.232 157.669 161.667 158.331 161.28C158.999 160.888 159.793 160.691 160.713 160.691C161.592 160.691 162.359 160.888 163.016 161.28C163.678 161.673 164.19 162.241 164.554 162.985C164.923 163.724 165.107 164.617 165.107 165.666ZM157.777 165.666C157.777 166.439 157.88 167.11 158.085 167.679C158.29 168.247 158.606 168.687 159.034 168.997C159.462 169.308 160.013 169.463 160.687 169.463C161.354 169.463 161.902 169.308 162.33 168.997C162.764 168.687 163.083 168.247 163.288 167.679C163.493 167.11 163.596 166.439 163.596 165.666C163.596 164.898 163.493 164.236 163.288 163.68C163.083 163.117 162.767 162.684 162.339 162.379C161.911 162.074 161.357 161.922 160.678 161.922C159.676 161.922 158.94 162.253 158.472 162.915C158.009 163.577 157.777 164.494 157.777 165.666ZM172.191 160.691C173.334 160.691 174.198 160.973 174.784 161.535C175.37 162.092 175.663 162.988 175.663 164.225V170.5H174.222V164.321C174.222 163.519 174.037 162.918 173.668 162.52C173.305 162.121 172.745 161.922 171.989 161.922C170.923 161.922 170.173 162.224 169.739 162.827C169.306 163.431 169.089 164.307 169.089 165.455V170.5H167.63V160.867H168.808L169.027 162.256H169.106C169.312 161.916 169.572 161.632 169.889 161.403C170.205 161.169 170.56 160.993 170.952 160.876C171.345 160.753 171.758 160.691 172.191 160.691ZM180.128 160.867V170.5H178.669V160.867H180.128ZM179.416 157.264C179.656 157.264 179.861 157.343 180.031 157.501C180.207 157.653 180.295 157.894 180.295 158.222C180.295 158.544 180.207 158.784 180.031 158.942C179.861 159.101 179.656 159.18 179.416 159.18C179.164 159.18 178.953 159.101 178.783 158.942C178.619 158.784 178.537 158.544 178.537 158.222C178.537 157.894 178.619 157.653 178.783 157.501C178.953 157.343 179.164 157.264 179.416 157.264ZM186.333 169.48C186.573 169.48 186.819 169.46 187.071 169.419C187.323 169.378 187.528 169.328 187.687 169.27V170.403C187.517 170.479 187.279 170.544 186.975 170.597C186.676 170.649 186.383 170.676 186.096 170.676C185.586 170.676 185.123 170.588 184.707 170.412C184.291 170.23 183.957 169.926 183.705 169.498C183.459 169.07 183.336 168.479 183.336 167.723V162.01H181.965V161.298L183.345 160.727L183.925 158.635H184.804V160.867H187.625V162.01H184.804V167.679C184.804 168.282 184.941 168.733 185.217 169.032C185.498 169.331 185.87 169.48 186.333 169.48ZM197.943 165.666C197.943 166.457 197.841 167.163 197.636 167.784C197.431 168.405 197.135 168.93 196.748 169.357C196.361 169.785 195.893 170.113 195.342 170.342C194.797 170.564 194.179 170.676 193.487 170.676C192.843 170.676 192.251 170.564 191.712 170.342C191.179 170.113 190.716 169.785 190.323 169.357C189.937 168.93 189.635 168.405 189.418 167.784C189.207 167.163 189.102 166.457 189.102 165.666C189.102 164.611 189.28 163.715 189.638 162.977C189.995 162.232 190.505 161.667 191.167 161.28C191.835 160.888 192.629 160.691 193.549 160.691C194.428 160.691 195.195 160.888 195.852 161.28C196.514 161.673 197.026 162.241 197.39 162.985C197.759 163.724 197.943 164.617 197.943 165.666ZM190.613 165.666C190.613 166.439 190.716 167.11 190.921 167.679C191.126 168.247 191.442 168.687 191.87 168.997C192.298 169.308 192.849 169.463 193.522 169.463C194.19 169.463 194.738 169.308 195.166 168.997C195.6 168.687 195.919 168.247 196.124 167.679C196.329 167.11 196.432 166.439 196.432 165.666C196.432 164.898 196.329 164.236 196.124 163.68C195.919 163.117 195.603 162.684 195.175 162.379C194.747 162.074 194.193 161.922 193.514 161.922C192.512 161.922 191.776 162.253 191.308 162.915C190.845 163.577 190.613 164.494 190.613 165.666ZM204.843 160.691C205.036 160.691 205.238 160.703 205.449 160.727C205.66 160.744 205.848 160.771 206.012 160.806L205.827 162.159C205.669 162.118 205.493 162.086 205.3 162.062C205.106 162.039 204.925 162.027 204.755 162.027C204.368 162.027 204.002 162.106 203.656 162.265C203.316 162.417 203.018 162.64 202.76 162.933C202.502 163.22 202.3 163.568 202.153 163.979C202.007 164.383 201.934 164.834 201.934 165.332V170.5H200.466V160.867H201.679L201.837 162.643H201.898C202.098 162.285 202.338 161.96 202.619 161.667C202.9 161.368 203.226 161.131 203.595 160.955C203.97 160.779 204.386 160.691 204.843 160.691ZM209.29 160.867V170.5H207.831V160.867H209.29ZM208.578 157.264C208.818 157.264 209.023 157.343 209.193 157.501C209.369 157.653 209.457 157.894 209.457 158.222C209.457 158.544 209.369 158.784 209.193 158.942C209.023 159.101 208.818 159.18 208.578 159.18C208.326 159.18 208.115 159.101 207.945 158.942C207.781 158.784 207.699 158.544 207.699 158.222C207.699 157.894 207.781 157.653 207.945 157.501C208.115 157.343 208.326 157.264 208.578 157.264ZM216.945 160.691C218.088 160.691 218.952 160.973 219.538 161.535C220.124 162.092 220.417 162.988 220.417 164.225V170.5H218.976V164.321C218.976 163.519 218.791 162.918 218.422 162.52C218.059 162.121 217.499 161.922 216.743 161.922C215.677 161.922 214.927 162.224 214.493 162.827C214.06 163.431 213.843 164.307 213.843 165.455V170.5H212.384V160.867H213.562L213.781 162.256H213.86C214.065 161.916 214.326 161.632 214.643 161.403C214.959 161.169 215.313 160.993 215.706 160.876C216.099 160.753 216.512 160.691 216.945 160.691ZM226.112 174.824C224.847 174.824 223.871 174.587 223.186 174.112C222.5 173.644 222.157 172.984 222.157 172.135C222.157 171.531 222.348 171.016 222.729 170.588C223.115 170.16 223.648 169.876 224.328 169.735C224.076 169.618 223.859 169.442 223.678 169.208C223.502 168.974 223.414 168.704 223.414 168.399C223.414 168.048 223.511 167.74 223.704 167.477C223.903 167.207 224.205 166.949 224.609 166.703C224.105 166.498 223.695 166.152 223.379 165.666C223.068 165.174 222.913 164.603 222.913 163.952C222.913 163.261 223.057 162.672 223.344 162.186C223.631 161.693 224.047 161.318 224.592 161.061C225.137 160.803 225.796 160.674 226.569 160.674C226.739 160.674 226.909 160.683 227.079 160.7C227.255 160.712 227.422 160.732 227.58 160.762C227.738 160.785 227.876 160.814 227.993 160.85H231.298V161.79L229.522 162.01C229.698 162.238 229.845 162.514 229.962 162.836C230.079 163.158 230.138 163.516 230.138 163.908C230.138 164.869 229.812 165.634 229.162 166.202C228.512 166.765 227.618 167.046 226.481 167.046C226.212 167.046 225.937 167.022 225.655 166.976C225.368 167.134 225.148 167.31 224.996 167.503C224.85 167.696 224.776 167.919 224.776 168.171C224.776 168.358 224.832 168.508 224.943 168.619C225.061 168.73 225.228 168.812 225.444 168.865C225.661 168.912 225.922 168.936 226.227 168.936H227.923C228.972 168.936 229.774 169.155 230.331 169.595C230.894 170.034 231.175 170.676 231.175 171.52C231.175 172.586 230.741 173.403 229.874 173.972C229.007 174.54 227.753 174.824 226.112 174.824ZM226.156 173.682C226.953 173.682 227.612 173.6 228.134 173.436C228.661 173.277 229.054 173.046 229.312 172.741C229.575 172.442 229.707 172.085 229.707 171.669C229.707 171.282 229.619 170.989 229.443 170.79C229.268 170.597 229.01 170.468 228.67 170.403C228.33 170.333 227.914 170.298 227.422 170.298H225.752C225.318 170.298 224.94 170.365 224.618 170.5C224.296 170.635 224.047 170.834 223.871 171.098C223.701 171.361 223.616 171.689 223.616 172.082C223.616 172.604 223.836 172.999 224.275 173.269C224.715 173.544 225.342 173.682 226.156 173.682ZM226.534 165.982C227.231 165.982 227.756 165.807 228.107 165.455C228.459 165.104 228.635 164.591 228.635 163.917C228.635 163.196 228.456 162.657 228.099 162.3C227.741 161.937 227.214 161.755 226.517 161.755C225.849 161.755 225.333 161.942 224.97 162.317C224.612 162.687 224.434 163.229 224.434 163.943C224.434 164.6 224.615 165.104 224.979 165.455C225.342 165.807 225.86 165.982 226.534 165.982Z" fill="#31344E"/>
<path d="M421.06 171.054C420.26 172.053 418.74 172.053 417.94 171.054L411.282 162.751C410.232 161.442 411.164 159.5 412.842 159.5L426.158 159.5C427.836 159.5 428.768 161.442 427.718 162.751L421.06 171.054Z" fill="#707070"/>
</g>
<path d="M41.1055 219.502C41.1055 220.264 40.918 220.92 40.543 221.471C40.1738 222.021 39.6406 222.443 38.9434 222.736C38.252 223.029 37.4258 223.176 36.4648 223.176C35.9961 223.176 35.5479 223.149 35.1201 223.097C34.6924 223.044 34.2881 222.968 33.9072 222.868C33.5322 222.763 33.1895 222.637 32.8789 222.49V220.504C33.4004 220.732 33.9834 220.94 34.6279 221.128C35.2725 221.31 35.9287 221.4 36.5967 221.4C37.1416 221.4 37.5928 221.33 37.9502 221.189C38.3135 221.043 38.583 220.838 38.7588 220.574C38.9346 220.305 39.0225 219.991 39.0225 219.634C39.0225 219.253 38.9199 218.931 38.7148 218.667C38.5098 218.403 38.1992 218.163 37.7832 217.946C37.373 217.724 36.8574 217.486 36.2363 217.234C35.8145 217.064 35.4102 216.871 35.0234 216.654C34.6426 216.438 34.3027 216.183 34.0039 215.89C33.7051 215.597 33.4678 215.251 33.292 214.853C33.1221 214.448 33.0371 213.974 33.0371 213.429C33.0371 212.702 33.21 212.081 33.5557 211.565C33.9072 211.05 34.3994 210.654 35.0322 210.379C35.6709 210.104 36.415 209.966 37.2646 209.966C37.9385 209.966 38.5713 210.036 39.1631 210.177C39.7607 210.317 40.3467 210.517 40.9209 210.774L40.2529 212.471C39.7256 212.254 39.2129 212.081 38.7148 211.952C38.2227 211.823 37.7188 211.759 37.2031 211.759C36.7578 211.759 36.3799 211.826 36.0693 211.961C35.7588 212.096 35.5215 212.286 35.3574 212.532C35.1992 212.772 35.1201 213.06 35.1201 213.394C35.1201 213.769 35.2109 214.085 35.3926 214.343C35.5801 214.595 35.8672 214.826 36.2539 215.037C36.6465 215.248 37.1504 215.482 37.7656 215.74C38.4746 216.033 39.0752 216.341 39.5674 216.663C40.0654 216.985 40.4463 217.372 40.71 217.823C40.9736 218.269 41.1055 218.828 41.1055 219.502ZM46.9941 221.506C47.2637 221.506 47.5303 221.482 47.7939 221.436C48.0576 221.383 48.2979 221.321 48.5146 221.251V222.815C48.2861 222.915 47.9902 223 47.627 223.07C47.2637 223.141 46.8857 223.176 46.4932 223.176C45.9424 223.176 45.4473 223.085 45.0078 222.903C44.5684 222.716 44.2197 222.396 43.9619 221.945C43.7041 221.494 43.5752 220.87 43.5752 220.073V214.844H42.248V213.921L43.6719 213.191L44.3486 211.108H45.6494V213.271H48.4355V214.844H45.6494V220.047C45.6494 220.539 45.7725 220.905 46.0186 221.146C46.2646 221.386 46.5898 221.506 46.9941 221.506ZM54.3066 213.086C55.5371 213.086 56.4658 213.358 57.0928 213.903C57.7256 214.448 58.042 215.298 58.042 216.452V223H56.5742L56.1787 221.62H56.1084C55.833 221.972 55.5488 222.262 55.2559 222.49C54.9629 222.719 54.623 222.889 54.2363 223C53.8555 223.117 53.3896 223.176 52.8389 223.176C52.2588 223.176 51.7402 223.07 51.2832 222.859C50.8262 222.643 50.4658 222.314 50.2021 221.875C49.9385 221.436 49.8066 220.879 49.8066 220.205C49.8066 219.203 50.1787 218.45 50.9229 217.946C51.6729 217.442 52.8037 217.164 54.3154 217.111L56.0029 217.05V216.54C56.0029 215.866 55.8447 215.386 55.5283 215.099C55.2178 214.812 54.7783 214.668 54.21 214.668C53.7236 214.668 53.252 214.738 52.7949 214.879C52.3379 215.02 51.8926 215.192 51.459 215.397L50.791 213.938C51.2656 213.687 51.8047 213.481 52.4082 213.323C53.0176 213.165 53.6504 213.086 54.3066 213.086ZM55.9941 218.351L54.7373 218.395C53.7061 218.43 52.9824 218.605 52.5664 218.922C52.1504 219.238 51.9424 219.672 51.9424 220.223C51.9424 220.703 52.0859 221.055 52.373 221.277C52.6602 221.494 53.0381 221.603 53.5068 221.603C54.2217 221.603 54.8135 221.4 55.2822 220.996C55.7568 220.586 55.9941 219.985 55.9941 219.194V218.351ZM65.8643 213.086C66.0283 213.086 66.207 213.095 66.4004 213.112C66.5938 213.13 66.7607 213.153 66.9014 213.183L66.708 215.116C66.585 215.081 66.4326 215.055 66.251 215.037C66.0752 215.02 65.917 215.011 65.7764 215.011C65.4072 215.011 65.0557 215.072 64.7217 215.195C64.3877 215.312 64.0918 215.494 63.834 215.74C63.5762 215.98 63.374 216.282 63.2275 216.646C63.0811 217.009 63.0078 217.431 63.0078 217.911V223H60.9336V213.271H62.5508L62.832 214.984H62.9287C63.1221 214.639 63.3623 214.322 63.6494 214.035C63.9365 213.748 64.2646 213.52 64.6338 213.35C65.0088 213.174 65.4189 213.086 65.8643 213.086ZM72.3242 221.506C72.5938 221.506 72.8604 221.482 73.124 221.436C73.3877 221.383 73.6279 221.321 73.8447 221.251V222.815C73.6162 222.915 73.3203 223 72.957 223.07C72.5938 223.141 72.2158 223.176 71.8232 223.176C71.2725 223.176 70.7773 223.085 70.3379 222.903C69.8984 222.716 69.5498 222.396 69.292 221.945C69.0342 221.494 68.9053 220.87 68.9053 220.073V214.844H67.5781V213.921L69.002 213.191L69.6787 211.108H70.9795V213.271H73.7656V214.844H70.9795V220.047C70.9795 220.539 71.1025 220.905 71.3486 221.146C71.5947 221.386 71.9199 221.506 72.3242 221.506ZM85.165 223H83.0469V211.943H79.2852V210.15H88.918V211.943H85.165V223ZM92.7412 213.271V223H90.6758V213.271H92.7412ZM91.7217 209.544C92.0381 209.544 92.3105 209.629 92.5391 209.799C92.7734 209.969 92.8906 210.262 92.8906 210.678C92.8906 211.088 92.7734 211.381 92.5391 211.557C92.3105 211.727 92.0381 211.812 91.7217 211.812C91.3936 211.812 91.1152 211.727 90.8867 211.557C90.6641 211.381 90.5527 211.088 90.5527 210.678C90.5527 210.262 90.6641 209.969 90.8867 209.799C91.1152 209.629 91.3936 209.544 91.7217 209.544ZM106.698 213.086C107.788 213.086 108.608 213.367 109.159 213.93C109.716 214.492 109.994 215.395 109.994 216.637V223H107.929V217.006C107.929 216.268 107.785 215.711 107.498 215.336C107.211 214.961 106.774 214.773 106.188 214.773C105.368 214.773 104.776 215.037 104.413 215.564C104.056 216.086 103.877 216.845 103.877 217.841V223H101.812V217.006C101.812 216.514 101.747 216.104 101.618 215.775C101.495 215.441 101.305 215.192 101.047 215.028C100.789 214.858 100.464 214.773 100.071 214.773C99.5029 214.773 99.0488 214.902 98.709 215.16C98.375 215.418 98.1348 215.799 97.9883 216.303C97.8418 216.801 97.7686 217.413 97.7686 218.14V223H95.7031V213.271H97.3115L97.6016 214.58H97.7158C97.915 214.24 98.1611 213.962 98.4541 213.745C98.7529 213.522 99.084 213.358 99.4473 213.253C99.8105 213.142 100.188 213.086 100.581 213.086C101.308 213.086 101.92 213.215 102.418 213.473C102.916 213.725 103.288 214.111 103.534 214.633H103.692C103.997 214.105 104.422 213.716 104.967 213.464C105.512 213.212 106.089 213.086 106.698 213.086ZM116.753 213.086C117.62 213.086 118.364 213.265 118.985 213.622C119.606 213.979 120.084 214.486 120.418 215.143C120.752 215.799 120.919 216.584 120.919 217.498V218.605H114.424C114.447 219.549 114.699 220.275 115.18 220.785C115.666 221.295 116.346 221.55 117.219 221.55C117.84 221.55 118.396 221.491 118.889 221.374C119.387 221.251 119.899 221.072 120.427 220.838V222.517C119.94 222.745 119.445 222.912 118.941 223.018C118.438 223.123 117.834 223.176 117.131 223.176C116.176 223.176 115.335 222.991 114.608 222.622C113.888 222.247 113.322 221.69 112.912 220.952C112.508 220.214 112.306 219.297 112.306 218.201C112.306 217.111 112.49 216.186 112.859 215.424C113.229 214.662 113.747 214.082 114.415 213.684C115.083 213.285 115.862 213.086 116.753 213.086ZM116.753 214.642C116.103 214.642 115.575 214.853 115.171 215.274C114.772 215.696 114.538 216.314 114.468 217.129H118.897C118.892 216.643 118.81 216.212 118.651 215.837C118.499 215.462 118.265 215.169 117.948 214.958C117.638 214.747 117.239 214.642 116.753 214.642Z" fill="#31344E"/>
<rect x="32" y="229" width="234" height="48" rx="5" fill="#F6F6F6"/>
<path d="M59.3252 252.126C59.3252 252.905 59.2695 253.664 59.1582 254.402C59.0527 255.141 58.8682 255.829 58.6045 256.468C58.3467 257.106 57.9951 257.666 57.5498 258.146C57.1045 258.627 56.5449 259.005 55.8711 259.28C55.2031 259.55 54.4033 259.685 53.4717 259.685C53.2197 259.685 52.9326 259.667 52.6104 259.632C52.2881 259.603 52.0244 259.559 51.8193 259.5V258.234C52.0361 258.311 52.291 258.372 52.584 258.419C52.877 258.46 53.1641 258.48 53.4453 258.48C54.541 258.48 55.4023 258.246 56.0293 257.777C56.6562 257.303 57.1074 256.661 57.3828 255.853C57.6582 255.038 57.8135 254.124 57.8486 253.11H57.7432C57.5674 253.392 57.3359 253.652 57.0488 253.893C56.7676 254.127 56.4248 254.317 56.0205 254.464C55.6162 254.604 55.1445 254.675 54.6055 254.675C53.8613 254.675 53.2109 254.522 52.6543 254.218C52.1035 253.913 51.6729 253.471 51.3623 252.891C51.0576 252.311 50.9053 251.61 50.9053 250.79C50.9053 249.905 51.0723 249.141 51.4062 248.496C51.7461 247.846 52.2207 247.345 52.8301 246.993C53.4395 246.642 54.1572 246.466 54.9834 246.466C55.6162 246.466 56.1963 246.586 56.7236 246.826C57.251 247.066 57.708 247.427 58.0947 247.907C58.4873 248.382 58.7891 248.971 59 249.674C59.2168 250.377 59.3252 251.194 59.3252 252.126ZM54.9834 247.705C54.2041 247.705 53.5713 247.96 53.085 248.47C52.6045 248.979 52.3643 249.747 52.3643 250.772C52.3643 251.622 52.5723 252.293 52.9883 252.785C53.4043 253.277 54.0459 253.523 54.9131 253.523C55.5107 253.523 56.0264 253.403 56.46 253.163C56.8994 252.923 57.2363 252.618 57.4707 252.249C57.7109 251.88 57.8311 251.502 57.8311 251.115C57.8311 250.729 57.7725 250.336 57.6553 249.938C57.5439 249.539 57.3711 249.173 57.1367 248.839C56.9023 248.499 56.6064 248.227 56.249 248.021C55.8916 247.811 55.4697 247.705 54.9834 247.705ZM61.6191 258.586C61.6191 258.176 61.7188 257.886 61.918 257.716C62.1172 257.54 62.3604 257.452 62.6475 257.452C62.9463 257.452 63.1982 257.54 63.4033 257.716C63.6084 257.886 63.7109 258.176 63.7109 258.586C63.7109 258.99 63.6084 259.286 63.4033 259.474C63.1982 259.655 62.9463 259.746 62.6475 259.746C62.3604 259.746 62.1172 259.655 61.918 259.474C61.7188 259.286 61.6191 258.99 61.6191 258.586ZM61.6191 250.79C61.6191 250.368 61.7188 250.072 61.918 249.902C62.1172 249.727 62.3604 249.639 62.6475 249.639C62.9463 249.639 63.1982 249.727 63.4033 249.902C63.6084 250.072 63.7109 250.368 63.7109 250.79C63.7109 251.188 63.6084 251.479 63.4033 251.66C63.1982 251.842 62.9463 251.933 62.6475 251.933C62.3604 251.933 62.1172 251.842 61.918 251.66C61.7188 251.479 61.6191 251.188 61.6191 250.79ZM74.4072 253.058C74.4072 254.101 74.3281 255.032 74.1699 255.853C74.0117 256.673 73.7627 257.367 73.4229 257.936C73.083 258.504 72.6436 258.938 72.1045 259.236C71.5654 259.529 70.918 259.676 70.1621 259.676C69.207 259.676 68.416 259.415 67.7891 258.894C67.168 258.372 66.7021 257.619 66.3916 256.635C66.0869 255.645 65.9346 254.452 65.9346 253.058C65.9346 251.687 66.0723 250.509 66.3477 249.524C66.6289 248.534 67.0801 247.775 67.7012 247.248C68.3223 246.715 69.1426 246.448 70.1621 246.448C71.1289 246.448 71.9258 246.712 72.5527 247.239C73.1797 247.761 73.6455 248.517 73.9502 249.507C74.2549 250.491 74.4072 251.675 74.4072 253.058ZM67.4023 253.058C67.4023 254.253 67.4932 255.249 67.6748 256.046C67.8564 256.843 68.1494 257.44 68.5537 257.839C68.9639 258.231 69.5 258.428 70.1621 258.428C70.8242 258.428 71.3574 258.231 71.7617 257.839C72.1719 257.446 72.4678 256.852 72.6494 256.055C72.8369 255.258 72.9307 254.259 72.9307 253.058C72.9307 251.88 72.8398 250.896 72.6582 250.104C72.4766 249.308 72.1836 248.71 71.7793 248.312C71.375 247.907 70.8359 247.705 70.1621 247.705C69.4883 247.705 68.9492 247.907 68.5449 248.312C68.1406 248.71 67.8477 249.308 67.666 250.104C67.4902 250.896 67.4023 251.88 67.4023 253.058ZM84.708 253.058C84.708 254.101 84.6289 255.032 84.4707 255.853C84.3125 256.673 84.0635 257.367 83.7236 257.936C83.3838 258.504 82.9443 258.938 82.4053 259.236C81.8662 259.529 81.2188 259.676 80.4629 259.676C79.5078 259.676 78.7168 259.415 78.0898 258.894C77.4688 258.372 77.0029 257.619 76.6924 256.635C76.3877 255.645 76.2354 254.452 76.2354 253.058C76.2354 251.687 76.373 250.509 76.6484 249.524C76.9297 248.534 77.3809 247.775 78.002 247.248C78.623 246.715 79.4434 246.448 80.4629 246.448C81.4297 246.448 82.2266 246.712 82.8535 247.239C83.4805 247.761 83.9463 248.517 84.251 249.507C84.5557 250.491 84.708 251.675 84.708 253.058ZM77.7031 253.058C77.7031 254.253 77.7939 255.249 77.9756 256.046C78.1572 256.843 78.4502 257.44 78.8545 257.839C79.2646 258.231 79.8008 258.428 80.4629 258.428C81.125 258.428 81.6582 258.231 82.0625 257.839C82.4727 257.446 82.7686 256.852 82.9502 256.055C83.1377 255.258 83.2314 254.259 83.2314 253.058C83.2314 251.88 83.1406 250.896 82.959 250.104C82.7773 249.308 82.4844 248.71 82.0801 248.312C81.6758 247.907 81.1367 247.705 80.4629 247.705C79.7891 247.705 79.25 247.907 78.8457 248.312C78.4414 248.71 78.1484 249.308 77.9668 250.104C77.791 250.896 77.7031 251.88 77.7031 253.058ZM95.4219 246.65C97.0801 246.65 98.29 246.976 99.0518 247.626C99.8193 248.271 100.203 249.196 100.203 250.403C100.203 250.948 100.112 251.467 99.9307 251.959C99.7549 252.445 99.4678 252.876 99.0693 253.251C98.6709 253.62 98.1465 253.913 97.4961 254.13C96.8516 254.341 96.0605 254.446 95.123 254.446H93.5586V259.5H92.0645V246.65H95.4219ZM95.2812 247.925H93.5586V253.163H94.9561C95.7764 253.163 96.459 253.075 97.0039 252.899C97.5547 252.724 97.9678 252.439 98.2432 252.047C98.5186 251.648 98.6562 251.121 98.6562 250.465C98.6562 249.609 98.3838 248.974 97.8389 248.558C97.2939 248.136 96.4414 247.925 95.2812 247.925ZM108.544 259.5L104.229 248.127H104.158C104.182 248.367 104.202 248.66 104.22 249.006C104.237 249.352 104.252 249.729 104.264 250.14C104.275 250.544 104.281 250.957 104.281 251.379V259.5H102.893V246.65H105.107L109.177 257.338H109.238L113.369 246.65H115.566V259.5H114.09V251.273C114.09 250.893 114.096 250.512 114.107 250.131C114.119 249.744 114.134 249.381 114.151 249.041C114.169 248.695 114.187 248.396 114.204 248.145H114.134L109.766 259.5H108.544Z" fill="#31344E"/>
<g filter="url(#filter2_d_6143_17039)">
<rect x="276" y="229" width="171" height="48" rx="5" fill="white" shape-rendering="crispEdges"/>
<rect x="277.5" y="230.5" width="168" height="45" rx="3.5" stroke="#1A1040" stroke-width="3" shape-rendering="crispEdges"/>
<path d="M335.159 248.733C334.638 248.733 334.175 248.836 333.771 249.041C333.372 249.24 333.035 249.53 332.76 249.911C332.49 250.292 332.285 250.752 332.145 251.291C332.004 251.83 331.934 252.437 331.934 253.11C331.934 254.019 332.045 254.795 332.268 255.439C332.496 256.078 332.848 256.567 333.322 256.907C333.797 257.241 334.409 257.408 335.159 257.408C335.681 257.408 336.202 257.35 336.724 257.232C337.251 257.115 337.822 256.948 338.438 256.731V259.017C337.869 259.251 337.31 259.418 336.759 259.518C336.208 259.623 335.59 259.676 334.904 259.676C333.58 259.676 332.49 259.403 331.635 258.858C330.785 258.308 330.155 257.54 329.745 256.556C329.335 255.565 329.13 254.411 329.13 253.093C329.13 252.12 329.262 251.229 329.525 250.421C329.789 249.612 330.176 248.912 330.686 248.32C331.195 247.729 331.825 247.271 332.575 246.949C333.325 246.627 334.187 246.466 335.159 246.466C335.798 246.466 336.437 246.548 337.075 246.712C337.72 246.87 338.335 247.09 338.921 247.371L338.042 249.586C337.562 249.357 337.078 249.158 336.592 248.988C336.105 248.818 335.628 248.733 335.159 248.733ZM343.649 245.824V248.61C343.649 249.097 343.632 249.56 343.597 249.999C343.567 250.438 343.544 250.749 343.526 250.931H343.667C343.878 250.591 344.127 250.315 344.414 250.104C344.707 249.894 345.029 249.738 345.381 249.639C345.732 249.539 346.11 249.489 346.515 249.489C347.224 249.489 347.842 249.615 348.369 249.867C348.896 250.113 349.307 250.503 349.6 251.036C349.893 251.563 350.039 252.249 350.039 253.093V259.5H347.358V253.761C347.358 253.058 347.229 252.527 346.972 252.17C346.714 251.812 346.315 251.634 345.776 251.634C345.237 251.634 344.812 251.76 344.502 252.012C344.191 252.258 343.972 252.624 343.843 253.11C343.714 253.591 343.649 254.18 343.649 254.877V259.5H340.969V245.824H343.649ZM356.824 249.472C358.143 249.472 359.153 249.759 359.856 250.333C360.56 250.907 360.911 251.78 360.911 252.952V259.5H359.039L358.521 258.164H358.45C358.169 258.516 357.882 258.803 357.589 259.025C357.296 259.248 356.959 259.412 356.578 259.518C356.197 259.623 355.734 259.676 355.189 259.676C354.609 259.676 354.088 259.564 353.625 259.342C353.168 259.119 352.808 258.779 352.544 258.322C352.28 257.859 352.148 257.273 352.148 256.564C352.148 255.521 352.515 254.754 353.247 254.262C353.979 253.764 355.078 253.488 356.543 253.436L358.248 253.383V252.952C358.248 252.437 358.113 252.059 357.844 251.818C357.574 251.578 357.199 251.458 356.719 251.458C356.244 251.458 355.778 251.525 355.321 251.66C354.864 251.795 354.407 251.965 353.95 252.17L353.062 250.359C353.584 250.084 354.167 249.867 354.812 249.709C355.462 249.551 356.133 249.472 356.824 249.472ZM358.248 254.947L357.211 254.982C356.344 255.006 355.74 255.161 355.4 255.448C355.066 255.735 354.899 256.113 354.899 256.582C354.899 256.992 355.02 257.285 355.26 257.461C355.5 257.631 355.813 257.716 356.2 257.716C356.774 257.716 357.258 257.546 357.65 257.206C358.049 256.866 358.248 256.383 358.248 255.756V254.947ZM369.261 249.489C370.31 249.489 371.153 249.776 371.792 250.351C372.431 250.919 372.75 251.833 372.75 253.093V259.5H370.069V253.761C370.069 253.058 369.94 252.527 369.683 252.17C369.431 251.812 369.032 251.634 368.487 251.634C367.667 251.634 367.107 251.912 366.809 252.469C366.51 253.025 366.36 253.828 366.36 254.877V259.5H363.68V249.674H365.728L366.088 250.931H366.237C366.448 250.591 366.709 250.315 367.02 250.104C367.336 249.894 367.685 249.738 368.065 249.639C368.452 249.539 368.851 249.489 369.261 249.489ZM378.384 263.824C377.013 263.824 375.964 263.584 375.237 263.104C374.517 262.629 374.156 261.961 374.156 261.1C374.156 260.508 374.341 260.013 374.71 259.614C375.079 259.216 375.621 258.932 376.336 258.762C376.061 258.645 375.82 258.454 375.615 258.19C375.41 257.921 375.308 257.637 375.308 257.338C375.308 256.963 375.416 256.652 375.633 256.406C375.85 256.154 376.163 255.908 376.573 255.668C376.058 255.445 375.647 255.088 375.343 254.596C375.044 254.104 374.895 253.523 374.895 252.855C374.895 252.141 375.05 251.534 375.36 251.036C375.677 250.532 376.134 250.148 376.731 249.885C377.335 249.621 378.067 249.489 378.929 249.489C379.11 249.489 379.321 249.501 379.562 249.524C379.802 249.548 380.021 249.574 380.221 249.604C380.426 249.633 380.563 249.656 380.634 249.674H384.062V251.036L382.523 251.432C382.664 251.648 382.77 251.88 382.84 252.126C382.91 252.372 382.945 252.633 382.945 252.908C382.945 253.963 382.576 254.786 381.838 255.378C381.105 255.964 380.086 256.257 378.779 256.257C378.469 256.239 378.176 256.216 377.9 256.187C377.766 256.292 377.663 256.403 377.593 256.521C377.522 256.638 377.487 256.761 377.487 256.89C377.487 257.019 377.54 257.127 377.646 257.215C377.757 257.297 377.921 257.361 378.138 257.408C378.36 257.449 378.636 257.47 378.964 257.47H380.634C381.712 257.47 382.532 257.701 383.095 258.164C383.663 258.627 383.947 259.307 383.947 260.203C383.947 261.352 383.467 262.242 382.506 262.875C381.551 263.508 380.177 263.824 378.384 263.824ZM378.498 262.075C379.137 262.075 379.685 262.014 380.142 261.891C380.604 261.773 380.959 261.604 381.205 261.381C381.451 261.164 381.574 260.903 381.574 260.599C381.574 260.353 381.501 260.156 381.354 260.01C381.214 259.869 380.997 259.77 380.704 259.711C380.417 259.652 380.048 259.623 379.597 259.623H378.208C377.88 259.623 377.584 259.676 377.32 259.781C377.062 259.887 376.857 260.033 376.705 260.221C376.553 260.414 376.477 260.637 376.477 260.889C376.477 261.258 376.652 261.548 377.004 261.759C377.361 261.97 377.859 262.075 378.498 262.075ZM378.929 254.622C379.433 254.622 379.802 254.467 380.036 254.156C380.271 253.846 380.388 253.424 380.388 252.891C380.388 252.299 380.265 251.856 380.019 251.563C379.778 251.265 379.415 251.115 378.929 251.115C378.437 251.115 378.067 251.265 377.821 251.563C377.575 251.856 377.452 252.299 377.452 252.891C377.452 253.424 377.572 253.846 377.812 254.156C378.059 254.467 378.431 254.622 378.929 254.622ZM389.739 249.489C390.647 249.489 391.43 249.665 392.086 250.017C392.742 250.362 393.249 250.866 393.606 251.528C393.964 252.19 394.143 252.999 394.143 253.954V255.255H387.806C387.835 256.011 388.061 256.605 388.482 257.039C388.91 257.467 389.502 257.681 390.258 257.681C390.885 257.681 391.459 257.616 391.98 257.487C392.502 257.358 393.038 257.165 393.589 256.907V258.981C393.103 259.222 392.593 259.397 392.06 259.509C391.532 259.62 390.891 259.676 390.135 259.676C389.15 259.676 388.277 259.494 387.516 259.131C386.76 258.768 386.165 258.214 385.731 257.47C385.304 256.726 385.09 255.788 385.09 254.657C385.09 253.509 385.283 252.554 385.67 251.792C386.062 251.024 386.607 250.45 387.305 250.069C388.002 249.683 388.813 249.489 389.739 249.489ZM389.757 251.396C389.235 251.396 388.802 251.563 388.456 251.897C388.116 252.231 387.92 252.756 387.867 253.471H391.629C391.623 253.072 391.55 252.718 391.409 252.407C391.274 252.097 391.069 251.851 390.794 251.669C390.524 251.487 390.179 251.396 389.757 251.396Z" fill="#1A1040"/>
</g>
<path d="M40.9648 300H33.6875V287.15H40.9648V288.926H35.7969V292.415H40.6396V294.182H35.7969V298.216H40.9648V300ZM48.6025 290.086C49.6982 290.086 50.5508 290.37 51.1602 290.938C51.7754 291.501 52.083 292.406 52.083 293.654V300H50.0176V294.041C50.0176 293.285 49.8623 292.72 49.5518 292.345C49.2412 291.964 48.7607 291.773 48.1104 291.773C47.167 291.773 46.5107 292.063 46.1416 292.644C45.7783 293.224 45.5967 294.064 45.5967 295.166V300H43.5312V290.271H45.1396L45.4297 291.589H45.5439C45.7549 291.249 46.0156 290.971 46.3262 290.754C46.6426 290.531 46.9941 290.364 47.3809 290.253C47.7734 290.142 48.1807 290.086 48.6025 290.086ZM58.2441 300.176C57.084 300.176 56.1523 299.754 55.4492 298.91C54.752 298.061 54.4033 296.81 54.4033 295.157C54.4033 293.487 54.7578 292.225 55.4668 291.369C56.1816 290.514 57.1221 290.086 58.2881 290.086C58.7803 290.086 59.2109 290.153 59.5801 290.288C59.9492 290.417 60.2656 290.593 60.5293 290.815C60.7988 291.038 61.0273 291.287 61.2148 291.562H61.3115C61.2822 291.381 61.2471 291.12 61.2061 290.78C61.1709 290.435 61.1533 290.115 61.1533 289.822V286.324H63.2275V300H61.6104L61.2412 298.673H61.1533C60.9775 298.954 60.7549 299.209 60.4854 299.438C60.2217 299.66 59.9053 299.839 59.5361 299.974C59.1729 300.108 58.7422 300.176 58.2441 300.176ZM58.8242 298.497C59.709 298.497 60.333 298.242 60.6963 297.732C61.0596 297.223 61.2471 296.458 61.2588 295.438V295.166C61.2588 294.076 61.083 293.241 60.7314 292.661C60.3799 292.075 59.7383 291.782 58.8066 291.782C58.0625 291.782 57.4941 292.084 57.1016 292.688C56.7148 293.285 56.5215 294.12 56.5215 295.192C56.5215 296.265 56.7148 297.085 57.1016 297.653C57.4941 298.216 58.0684 298.497 58.8242 298.497ZM75.5322 300H73.4141V288.943H69.6523V287.15H79.2852V288.943H75.5322V300ZM83.1084 290.271V300H81.043V290.271H83.1084ZM82.0889 286.544C82.4053 286.544 82.6777 286.629 82.9062 286.799C83.1406 286.969 83.2578 287.262 83.2578 287.678C83.2578 288.088 83.1406 288.381 82.9062 288.557C82.6777 288.727 82.4053 288.812 82.0889 288.812C81.7607 288.812 81.4824 288.727 81.2539 288.557C81.0312 288.381 80.9199 288.088 80.9199 287.678C80.9199 287.262 81.0312 286.969 81.2539 286.799C81.4824 286.629 81.7607 286.544 82.0889 286.544ZM97.0654 290.086C98.1553 290.086 98.9756 290.367 99.5264 290.93C100.083 291.492 100.361 292.395 100.361 293.637V300H98.2959V294.006C98.2959 293.268 98.1523 292.711 97.8652 292.336C97.5781 291.961 97.1416 291.773 96.5557 291.773C95.7354 291.773 95.1436 292.037 94.7803 292.564C94.4229 293.086 94.2441 293.845 94.2441 294.841V300H92.1787V294.006C92.1787 293.514 92.1143 293.104 91.9854 292.775C91.8623 292.441 91.6719 292.192 91.4141 292.028C91.1562 291.858 90.8311 291.773 90.4385 291.773C89.8701 291.773 89.416 291.902 89.0762 292.16C88.7422 292.418 88.502 292.799 88.3555 293.303C88.209 293.801 88.1357 294.413 88.1357 295.14V300H86.0703V290.271H87.6787L87.9688 291.58H88.083C88.2822 291.24 88.5283 290.962 88.8213 290.745C89.1201 290.522 89.4512 290.358 89.8145 290.253C90.1777 290.142 90.5557 290.086 90.9482 290.086C91.6748 290.086 92.2871 290.215 92.7852 290.473C93.2832 290.725 93.6553 291.111 93.9014 291.633H94.0596C94.3643 291.105 94.7891 290.716 95.334 290.464C95.8789 290.212 96.4561 290.086 97.0654 290.086ZM107.12 290.086C107.987 290.086 108.731 290.265 109.353 290.622C109.974 290.979 110.451 291.486 110.785 292.143C111.119 292.799 111.286 293.584 111.286 294.498V295.605H104.791C104.814 296.549 105.066 297.275 105.547 297.785C106.033 298.295 106.713 298.55 107.586 298.55C108.207 298.55 108.764 298.491 109.256 298.374C109.754 298.251 110.267 298.072 110.794 297.838V299.517C110.308 299.745 109.812 299.912 109.309 300.018C108.805 300.123 108.201 300.176 107.498 300.176C106.543 300.176 105.702 299.991 104.976 299.622C104.255 299.247 103.689 298.69 103.279 297.952C102.875 297.214 102.673 296.297 102.673 295.201C102.673 294.111 102.857 293.186 103.227 292.424C103.596 291.662 104.114 291.082 104.782 290.684C105.45 290.285 106.229 290.086 107.12 290.086ZM107.12 291.642C106.47 291.642 105.942 291.853 105.538 292.274C105.14 292.696 104.905 293.314 104.835 294.129H109.265C109.259 293.643 109.177 293.212 109.019 292.837C108.866 292.462 108.632 292.169 108.315 291.958C108.005 291.747 107.606 291.642 107.12 291.642Z" fill="#31344E"/>
<rect x="32" y="306" width="234" height="48" rx="5" fill="#F6F6F6"/>
<path d="M52.5488 336.5L57.8223 324.986H50.8174V323.65H59.3867V324.775L54.1484 336.5H52.5488ZM61.6191 335.586C61.6191 335.176 61.7188 334.886 61.918 334.716C62.1172 334.54 62.3604 334.452 62.6475 334.452C62.9463 334.452 63.1982 334.54 63.4033 334.716C63.6084 334.886 63.7109 335.176 63.7109 335.586C63.7109 335.99 63.6084 336.286 63.4033 336.474C63.1982 336.655 62.9463 336.746 62.6475 336.746C62.3604 336.746 62.1172 336.655 61.918 336.474C61.7188 336.286 61.6191 335.99 61.6191 335.586ZM61.6191 327.79C61.6191 327.368 61.7188 327.072 61.918 326.902C62.1172 326.727 62.3604 326.639 62.6475 326.639C62.9463 326.639 63.1982 326.727 63.4033 326.902C63.6084 327.072 63.7109 327.368 63.7109 327.79C63.7109 328.188 63.6084 328.479 63.4033 328.66C63.1982 328.842 62.9463 328.933 62.6475 328.933C62.3604 328.933 62.1172 328.842 61.918 328.66C61.7188 328.479 61.6191 328.188 61.6191 327.79ZM74.4072 330.058C74.4072 331.101 74.3281 332.032 74.1699 332.853C74.0117 333.673 73.7627 334.367 73.4229 334.936C73.083 335.504 72.6436 335.938 72.1045 336.236C71.5654 336.529 70.918 336.676 70.1621 336.676C69.207 336.676 68.416 336.415 67.7891 335.894C67.168 335.372 66.7021 334.619 66.3916 333.635C66.0869 332.645 65.9346 331.452 65.9346 330.058C65.9346 328.687 66.0723 327.509 66.3477 326.524C66.6289 325.534 67.0801 324.775 67.7012 324.248C68.3223 323.715 69.1426 323.448 70.1621 323.448C71.1289 323.448 71.9258 323.712 72.5527 324.239C73.1797 324.761 73.6455 325.517 73.9502 326.507C74.2549 327.491 74.4072 328.675 74.4072 330.058ZM67.4023 330.058C67.4023 331.253 67.4932 332.249 67.6748 333.046C67.8564 333.843 68.1494 334.44 68.5537 334.839C68.9639 335.231 69.5 335.428 70.1621 335.428C70.8242 335.428 71.3574 335.231 71.7617 334.839C72.1719 334.446 72.4678 333.852 72.6494 333.055C72.8369 332.258 72.9307 331.259 72.9307 330.058C72.9307 328.88 72.8398 327.896 72.6582 327.104C72.4766 326.308 72.1836 325.71 71.7793 325.312C71.375 324.907 70.8359 324.705 70.1621 324.705C69.4883 324.705 68.9492 324.907 68.5449 325.312C68.1406 325.71 67.8477 326.308 67.666 327.104C67.4902 327.896 67.4023 328.88 67.4023 330.058ZM84.708 330.058C84.708 331.101 84.6289 332.032 84.4707 332.853C84.3125 333.673 84.0635 334.367 83.7236 334.936C83.3838 335.504 82.9443 335.938 82.4053 336.236C81.8662 336.529 81.2188 336.676 80.4629 336.676C79.5078 336.676 78.7168 336.415 78.0898 335.894C77.4688 335.372 77.0029 334.619 76.6924 333.635C76.3877 332.645 76.2354 331.452 76.2354 330.058C76.2354 328.687 76.373 327.509 76.6484 326.524C76.9297 325.534 77.3809 324.775 78.002 324.248C78.623 323.715 79.4434 323.448 80.4629 323.448C81.4297 323.448 82.2266 323.712 82.8535 324.239C83.4805 324.761 83.9463 325.517 84.251 326.507C84.5557 327.491 84.708 328.675 84.708 330.058ZM77.7031 330.058C77.7031 331.253 77.7939 332.249 77.9756 333.046C78.1572 333.843 78.4502 334.44 78.8545 334.839C79.2646 335.231 79.8008 335.428 80.4629 335.428C81.125 335.428 81.6582 335.231 82.0625 334.839C82.4727 334.446 82.7686 333.852 82.9502 333.055C83.1377 332.258 83.2314 331.259 83.2314 330.058C83.2314 328.88 83.1406 327.896 82.959 327.104C82.7773 326.308 82.4844 325.71 82.0801 325.312C81.6758 324.907 81.1367 324.705 80.4629 324.705C79.7891 324.705 79.25 324.907 78.8457 325.312C78.4414 325.71 78.1484 326.308 77.9668 327.104C77.791 327.896 77.7031 328.88 77.7031 330.058ZM100.124 336.5L98.542 332.422H93.3916L91.8184 336.5H90.3066L95.334 323.598H96.6787L101.671 336.5H100.124ZM98.0938 331.095L96.5908 327.043C96.5557 326.938 96.4971 326.765 96.415 326.524C96.3389 326.284 96.2598 326.035 96.1777 325.777C96.0957 325.52 96.0283 325.312 95.9756 325.153C95.917 325.394 95.8525 325.634 95.7822 325.874C95.7178 326.108 95.6533 326.328 95.5889 326.533C95.5244 326.732 95.4688 326.902 95.4219 327.043L93.8926 331.095H98.0938ZM109.106 336.5L104.791 325.127H104.721C104.744 325.367 104.765 325.66 104.782 326.006C104.8 326.352 104.814 326.729 104.826 327.14C104.838 327.544 104.844 327.957 104.844 328.379V336.5H103.455V323.65H105.67L109.739 334.338H109.801L113.932 323.65H116.129V336.5H114.652V328.273C114.652 327.893 114.658 327.512 114.67 327.131C114.682 326.744 114.696 326.381 114.714 326.041C114.731 325.695 114.749 325.396 114.767 325.145H114.696L110.328 336.5H109.106Z" fill="#31344E"/>
<g filter="url(#filter3_d_6143_17039)">
<rect x="276" y="306" width="171" height="48" rx="5" fill="white" shape-rendering="crispEdges"/>
<rect x="277.5" y="307.5" width="168" height="45" rx="3.5" stroke="#1A1040" stroke-width="3" shape-rendering="crispEdges"/>
<path d="M335.159 325.733C334.638 325.733 334.175 325.836 333.771 326.041C333.372 326.24 333.035 326.53 332.76 326.911C332.49 327.292 332.285 327.752 332.145 328.291C332.004 328.83 331.934 329.437 331.934 330.11C331.934 331.019 332.045 331.795 332.268 332.439C332.496 333.078 332.848 333.567 333.322 333.907C333.797 334.241 334.409 334.408 335.159 334.408C335.681 334.408 336.202 334.35 336.724 334.232C337.251 334.115 337.822 333.948 338.438 333.731V336.017C337.869 336.251 337.31 336.418 336.759 336.518C336.208 336.623 335.59 336.676 334.904 336.676C333.58 336.676 332.49 336.403 331.635 335.858C330.785 335.308 330.155 334.54 329.745 333.556C329.335 332.565 329.13 331.411 329.13 330.093C329.13 329.12 329.262 328.229 329.525 327.421C329.789 326.612 330.176 325.912 330.686 325.32C331.195 324.729 331.825 324.271 332.575 323.949C333.325 323.627 334.187 323.466 335.159 323.466C335.798 323.466 336.437 323.548 337.075 323.712C337.72 323.87 338.335 324.09 338.921 324.371L338.042 326.586C337.562 326.357 337.078 326.158 336.592 325.988C336.105 325.818 335.628 325.733 335.159 325.733ZM343.649 322.824V325.61C343.649 326.097 343.632 326.56 343.597 326.999C343.567 327.438 343.544 327.749 343.526 327.931H343.667C343.878 327.591 344.127 327.315 344.414 327.104C344.707 326.894 345.029 326.738 345.381 326.639C345.732 326.539 346.11 326.489 346.515 326.489C347.224 326.489 347.842 326.615 348.369 326.867C348.896 327.113 349.307 327.503 349.6 328.036C349.893 328.563 350.039 329.249 350.039 330.093V336.5H347.358V330.761C347.358 330.058 347.229 329.527 346.972 329.17C346.714 328.812 346.315 328.634 345.776 328.634C345.237 328.634 344.812 328.76 344.502 329.012C344.191 329.258 343.972 329.624 343.843 330.11C343.714 330.591 343.649 331.18 343.649 331.877V336.5H340.969V322.824H343.649ZM356.824 326.472C358.143 326.472 359.153 326.759 359.856 327.333C360.56 327.907 360.911 328.78 360.911 329.952V336.5H359.039L358.521 335.164H358.45C358.169 335.516 357.882 335.803 357.589 336.025C357.296 336.248 356.959 336.412 356.578 336.518C356.197 336.623 355.734 336.676 355.189 336.676C354.609 336.676 354.088 336.564 353.625 336.342C353.168 336.119 352.808 335.779 352.544 335.322C352.28 334.859 352.148 334.273 352.148 333.564C352.148 332.521 352.515 331.754 353.247 331.262C353.979 330.764 355.078 330.488 356.543 330.436L358.248 330.383V329.952C358.248 329.437 358.113 329.059 357.844 328.818C357.574 328.578 357.199 328.458 356.719 328.458C356.244 328.458 355.778 328.525 355.321 328.66C354.864 328.795 354.407 328.965 353.95 329.17L353.062 327.359C353.584 327.084 354.167 326.867 354.812 326.709C355.462 326.551 356.133 326.472 356.824 326.472ZM358.248 331.947L357.211 331.982C356.344 332.006 355.74 332.161 355.4 332.448C355.066 332.735 354.899 333.113 354.899 333.582C354.899 333.992 355.02 334.285 355.26 334.461C355.5 334.631 355.813 334.716 356.2 334.716C356.774 334.716 357.258 334.546 357.65 334.206C358.049 333.866 358.248 333.383 358.248 332.756V331.947ZM369.261 326.489C370.31 326.489 371.153 326.776 371.792 327.351C372.431 327.919 372.75 328.833 372.75 330.093V336.5H370.069V330.761C370.069 330.058 369.94 329.527 369.683 329.17C369.431 328.812 369.032 328.634 368.487 328.634C367.667 328.634 367.107 328.912 366.809 329.469C366.51 330.025 366.36 330.828 366.36 331.877V336.5H363.68V326.674H365.728L366.088 327.931H366.237C366.448 327.591 366.709 327.315 367.02 327.104C367.336 326.894 367.685 326.738 368.065 326.639C368.452 326.539 368.851 326.489 369.261 326.489ZM378.384 340.824C377.013 340.824 375.964 340.584 375.237 340.104C374.517 339.629 374.156 338.961 374.156 338.1C374.156 337.508 374.341 337.013 374.71 336.614C375.079 336.216 375.621 335.932 376.336 335.762C376.061 335.645 375.82 335.454 375.615 335.19C375.41 334.921 375.308 334.637 375.308 334.338C375.308 333.963 375.416 333.652 375.633 333.406C375.85 333.154 376.163 332.908 376.573 332.668C376.058 332.445 375.647 332.088 375.343 331.596C375.044 331.104 374.895 330.523 374.895 329.855C374.895 329.141 375.05 328.534 375.36 328.036C375.677 327.532 376.134 327.148 376.731 326.885C377.335 326.621 378.067 326.489 378.929 326.489C379.11 326.489 379.321 326.501 379.562 326.524C379.802 326.548 380.021 326.574 380.221 326.604C380.426 326.633 380.563 326.656 380.634 326.674H384.062V328.036L382.523 328.432C382.664 328.648 382.77 328.88 382.84 329.126C382.91 329.372 382.945 329.633 382.945 329.908C382.945 330.963 382.576 331.786 381.838 332.378C381.105 332.964 380.086 333.257 378.779 333.257C378.469 333.239 378.176 333.216 377.9 333.187C377.766 333.292 377.663 333.403 377.593 333.521C377.522 333.638 377.487 333.761 377.487 333.89C377.487 334.019 377.54 334.127 377.646 334.215C377.757 334.297 377.921 334.361 378.138 334.408C378.36 334.449 378.636 334.47 378.964 334.47H380.634C381.712 334.47 382.532 334.701 383.095 335.164C383.663 335.627 383.947 336.307 383.947 337.203C383.947 338.352 383.467 339.242 382.506 339.875C381.551 340.508 380.177 340.824 378.384 340.824ZM378.498 339.075C379.137 339.075 379.685 339.014 380.142 338.891C380.604 338.773 380.959 338.604 381.205 338.381C381.451 338.164 381.574 337.903 381.574 337.599C381.574 337.353 381.501 337.156 381.354 337.01C381.214 336.869 380.997 336.77 380.704 336.711C380.417 336.652 380.048 336.623 379.597 336.623H378.208C377.88 336.623 377.584 336.676 377.32 336.781C377.062 336.887 376.857 337.033 376.705 337.221C376.553 337.414 376.477 337.637 376.477 337.889C376.477 338.258 376.652 338.548 377.004 338.759C377.361 338.97 377.859 339.075 378.498 339.075ZM378.929 331.622C379.433 331.622 379.802 331.467 380.036 331.156C380.271 330.846 380.388 330.424 380.388 329.891C380.388 329.299 380.265 328.856 380.019 328.563C379.778 328.265 379.415 328.115 378.929 328.115C378.437 328.115 378.067 328.265 377.821 328.563C377.575 328.856 377.452 329.299 377.452 329.891C377.452 330.424 377.572 330.846 377.812 331.156C378.059 331.467 378.431 331.622 378.929 331.622ZM389.739 326.489C390.647 326.489 391.43 326.665 392.086 327.017C392.742 327.362 393.249 327.866 393.606 328.528C393.964 329.19 394.143 329.999 394.143 330.954V332.255H387.806C387.835 333.011 388.061 333.605 388.482 334.039C388.91 334.467 389.502 334.681 390.258 334.681C390.885 334.681 391.459 334.616 391.98 334.487C392.502 334.358 393.038 334.165 393.589 333.907V335.981C393.103 336.222 392.593 336.397 392.06 336.509C391.532 336.62 390.891 336.676 390.135 336.676C389.15 336.676 388.277 336.494 387.516 336.131C386.76 335.768 386.165 335.214 385.731 334.47C385.304 333.726 385.09 332.788 385.09 331.657C385.09 330.509 385.283 329.554 385.67 328.792C386.062 328.024 386.607 327.45 387.305 327.069C388.002 326.683 388.813 326.489 389.739 326.489ZM389.757 328.396C389.235 328.396 388.802 328.563 388.456 328.897C388.116 329.231 387.92 329.756 387.867 330.471H391.629C391.623 330.072 391.55 329.718 391.409 329.407C391.274 329.097 391.069 328.851 390.794 328.669C390.524 328.487 390.179 328.396 389.757 328.396Z" fill="#1A1040"/>
</g>
</g>
<mask id="path-18-inside-1_6143_17039" fill="white">
<path d="M0 0H480V64H0V0Z"/>
</mask>
<path d="M0 0H480V64H0V0Z" fill="white"/>
<path d="M480 64V63H0V64V65H480V64Z" fill="#D1D1D1" mask="url(#path-18-inside-1_6143_17039)"/>
<path d="M209.363 36.0352C209.363 36.8816 209.158 37.6173 208.748 38.2423C208.338 38.8673 207.739 39.349 206.951 39.6876C206.17 40.0261 205.219 40.1954 204.1 40.1954C203.605 40.1954 203.12 40.1628 202.645 40.0977C202.176 40.0326 201.723 39.9382 201.287 39.8145C200.857 39.6843 200.447 39.5248 200.057 39.336V36.5235C200.734 36.823 201.437 37.0932 202.166 37.3341C202.895 37.5749 203.618 37.6954 204.334 37.6954C204.829 37.6954 205.226 37.6303 205.525 37.5001C205.831 37.3699 206.053 37.1908 206.189 36.963C206.326 36.7351 206.395 36.4747 206.395 36.1817C206.395 35.8236 206.274 35.5177 206.033 35.2637C205.792 35.0098 205.46 34.7722 205.037 34.5509C204.62 34.3295 204.148 34.0919 203.621 33.838C203.289 33.6817 202.928 33.4929 202.537 33.2716C202.146 33.0437 201.775 32.767 201.424 32.4415C201.072 32.116 200.783 31.7221 200.555 31.2598C200.333 30.7911 200.223 30.2312 200.223 29.5802C200.223 28.7273 200.418 27.9981 200.809 27.3927C201.199 26.7872 201.756 26.3249 202.479 26.0059C203.208 25.6804 204.067 25.5177 205.057 25.5177C205.799 25.5177 206.505 25.6055 207.176 25.7813C207.853 25.9506 208.559 26.198 209.295 26.5235L208.318 28.877C207.661 28.6101 207.072 28.405 206.551 28.2618C206.03 28.1121 205.499 28.0372 204.959 28.0372C204.581 28.0372 204.259 28.099 203.992 28.2227C203.725 28.3399 203.523 28.5092 203.387 28.7305C203.25 28.9454 203.182 29.196 203.182 29.4825C203.182 29.821 203.279 30.1075 203.475 30.3419C203.676 30.5697 203.976 30.7911 204.373 31.0059C204.777 31.2208 205.278 31.4714 205.877 31.7579C206.606 32.1029 207.228 32.4643 207.742 32.8419C208.263 33.213 208.663 33.6524 208.943 34.1602C209.223 34.6615 209.363 35.2865 209.363 36.0352ZM216.219 28.877C217.228 28.877 218.097 29.0723 218.826 29.463C219.555 29.8471 220.118 30.407 220.516 31.1427C220.913 31.8783 221.111 32.7768 221.111 33.838V35.2833H214.07C214.103 36.1231 214.354 36.7839 214.822 37.2657C215.298 37.741 215.955 37.9786 216.795 37.9786C217.492 37.9786 218.13 37.907 218.709 37.7637C219.288 37.6205 219.884 37.4057 220.496 37.1192V39.4239C219.956 39.6908 219.389 39.8861 218.797 40.0098C218.211 40.1335 217.498 40.1954 216.658 40.1954C215.564 40.1954 214.594 39.9936 213.748 39.5899C212.908 39.1863 212.247 38.571 211.766 37.7442C211.29 36.9174 211.053 35.8757 211.053 34.6192C211.053 33.3432 211.268 32.282 211.697 31.4356C212.133 30.5828 212.739 29.9447 213.514 29.5216C214.288 29.0919 215.19 28.877 216.219 28.877ZM216.238 30.9962C215.659 30.9962 215.177 31.1817 214.793 31.5528C214.415 31.9239 214.197 32.5066 214.139 33.3009H218.318C218.312 32.8581 218.23 32.4643 218.074 32.1192C217.924 31.7742 217.697 31.5007 217.391 31.2989C217.091 31.0971 216.707 30.9962 216.238 30.9962ZM228.133 37.8223C228.458 37.8223 228.774 37.7898 229.08 37.7247C229.393 37.6596 229.702 37.5782 230.008 37.4805V39.6973C229.689 39.8406 229.292 39.9578 228.816 40.0489C228.348 40.1466 227.833 40.1954 227.273 40.1954C226.622 40.1954 226.036 40.0912 225.516 39.8829C225.001 39.668 224.594 39.3002 224.295 38.7794C224.002 38.252 223.855 37.5196 223.855 36.5821V31.3184H222.43V30.0587L224.07 29.0626L224.93 26.7579H226.834V29.0821H229.891V31.3184H226.834V36.5821C226.834 36.9988 226.951 37.3113 227.186 37.5196C227.426 37.7214 227.742 37.8223 228.133 37.8223ZM236.824 37.8223C237.15 37.8223 237.465 37.7898 237.771 37.7247C238.084 37.6596 238.393 37.5782 238.699 37.4805V39.6973C238.38 39.8406 237.983 39.9578 237.508 40.0489C237.039 40.1466 236.525 40.1954 235.965 40.1954C235.314 40.1954 234.728 40.0912 234.207 39.8829C233.693 39.668 233.286 39.3002 232.986 38.7794C232.693 38.252 232.547 37.5196 232.547 36.5821V31.3184H231.121V30.0587L232.762 29.0626L233.621 26.7579H235.525V29.0821H238.582V31.3184H235.525V36.5821C235.525 36.9988 235.643 37.3113 235.877 37.5196C236.118 37.7214 236.434 37.8223 236.824 37.8223ZM243.895 29.0821V40.0001H240.916V29.0821H243.895ZM242.41 24.8048C242.853 24.8048 243.234 24.9089 243.553 25.1173C243.872 25.3191 244.031 25.6999 244.031 26.2598C244.031 26.8132 243.872 27.1973 243.553 27.4122C243.234 27.6205 242.853 27.7247 242.41 27.7247C241.961 27.7247 241.577 27.6205 241.258 27.4122C240.945 27.1973 240.789 26.8132 240.789 26.2598C240.789 25.6999 240.945 25.3191 241.258 25.1173C241.577 24.9089 241.961 24.8048 242.41 24.8048ZM253.23 28.877C254.396 28.877 255.333 29.196 256.043 29.8341C256.753 30.4656 257.107 31.4812 257.107 32.8809V40.0001H254.129V33.6231C254.129 32.8419 253.986 32.2527 253.699 31.8555C253.419 31.4584 252.977 31.2598 252.371 31.2598C251.46 31.2598 250.838 31.5691 250.506 32.1876C250.174 32.8061 250.008 33.698 250.008 34.8634V40.0001H247.029V29.0821H249.305L249.705 30.4786H249.871C250.105 30.101 250.395 29.795 250.74 29.5606C251.092 29.3262 251.479 29.1537 251.902 29.043C252.332 28.9324 252.775 28.877 253.23 28.877ZM263.367 44.8048C261.844 44.8048 260.678 44.5378 259.871 44.004C259.07 43.4766 258.67 42.7345 258.67 41.7774C258.67 41.1199 258.875 40.5697 259.285 40.127C259.695 39.6843 260.298 39.3686 261.092 39.1798C260.786 39.0496 260.519 38.838 260.291 38.545C260.063 38.2455 259.949 37.9298 259.949 37.5977C259.949 37.1811 260.07 36.836 260.311 36.5626C260.551 36.2826 260.9 36.0092 261.355 35.7423C260.783 35.4949 260.327 35.0977 259.988 34.5509C259.656 34.004 259.49 33.3595 259.49 32.6173C259.49 31.823 259.663 31.1492 260.008 30.5958C260.359 30.0359 260.867 29.6095 261.531 29.3165C262.202 29.0235 263.016 28.877 263.973 28.877C264.174 28.877 264.409 28.8901 264.676 28.9161C264.943 28.9421 265.187 28.9714 265.408 29.004C265.636 29.0365 265.789 29.0626 265.867 29.0821H269.676V30.5958L267.967 31.0352C268.123 31.2761 268.24 31.5333 268.318 31.8067C268.396 32.0802 268.436 32.3699 268.436 32.6759C268.436 33.8477 268.025 34.7624 267.205 35.42C266.391 36.071 265.258 36.3966 263.807 36.3966C263.462 36.377 263.136 36.351 262.83 36.3184C262.68 36.4356 262.566 36.5593 262.488 36.6895C262.41 36.8197 262.371 36.9565 262.371 37.0997C262.371 37.2429 262.43 37.3634 262.547 37.461C262.671 37.5522 262.853 37.6238 263.094 37.6759C263.341 37.7214 263.647 37.7442 264.012 37.7442H265.867C267.065 37.7442 267.977 38.0014 268.602 38.5157C269.233 39.03 269.549 39.7852 269.549 40.7813C269.549 42.0574 269.015 43.047 267.947 43.7501C266.886 44.4532 265.359 44.8048 263.367 44.8048ZM263.494 42.8614C264.204 42.8614 264.812 42.793 265.32 42.6563C265.835 42.5261 266.229 42.3373 266.502 42.0899C266.775 41.849 266.912 41.5593 266.912 41.2208C266.912 40.9473 266.831 40.7292 266.668 40.5665C266.512 40.4102 266.271 40.2996 265.945 40.2345C265.626 40.1693 265.216 40.1368 264.715 40.1368H263.172C262.807 40.1368 262.479 40.1954 262.186 40.3126C261.899 40.4298 261.671 40.5925 261.502 40.8009C261.333 41.0157 261.248 41.2631 261.248 41.543C261.248 41.9532 261.443 42.2755 261.834 42.5098C262.231 42.7442 262.785 42.8614 263.494 42.8614ZM263.973 34.5802C264.533 34.5802 264.943 34.4076 265.203 34.0626C265.464 33.7175 265.594 33.2488 265.594 32.6563C265.594 31.9988 265.457 31.5072 265.184 31.1817C264.917 30.8497 264.513 30.6837 263.973 30.6837C263.426 30.6837 263.016 30.8497 262.742 31.1817C262.469 31.5072 262.332 31.9988 262.332 32.6563C262.332 33.2488 262.465 33.7175 262.732 34.0626C263.006 34.4076 263.419 34.5802 263.973 34.5802ZM279.1 36.7579C279.1 37.5001 278.924 38.1283 278.572 38.6427C278.227 39.1505 277.71 39.5378 277.02 39.8048C276.329 40.0652 275.47 40.1954 274.441 40.1954C273.68 40.1954 273.025 40.1466 272.479 40.0489C271.938 39.9512 271.391 39.7885 270.838 39.5606V37.0997C271.43 37.3666 272.065 37.588 272.742 37.7637C273.426 37.933 274.025 38.0177 274.539 38.0177C275.118 38.0177 275.532 37.933 275.779 37.7637C276.033 37.588 276.16 37.3601 276.16 37.0802C276.16 36.8979 276.108 36.7351 276.004 36.5919C275.906 36.4421 275.691 36.2761 275.359 36.0938C275.027 35.905 274.507 35.6609 273.797 35.3614C273.113 35.0749 272.55 34.7852 272.107 34.4923C271.671 34.1993 271.346 33.8542 271.131 33.4571C270.923 33.0535 270.818 32.5424 270.818 31.9239C270.818 30.9148 271.209 30.1563 271.99 29.6485C272.778 29.1342 273.829 28.877 275.145 28.877C275.822 28.877 276.466 28.9454 277.078 29.0821C277.697 29.2188 278.331 29.4369 278.982 29.7364L278.084 31.8848C277.544 31.6505 277.033 31.4584 276.551 31.3087C276.076 31.1589 275.59 31.0841 275.096 31.0841C274.66 31.0841 274.331 31.1427 274.109 31.2598C273.888 31.377 273.777 31.5561 273.777 31.797C273.777 31.9727 273.833 32.129 273.943 32.2657C274.061 32.4024 274.282 32.5554 274.607 32.7247C274.939 32.8874 275.424 33.099 276.062 33.3595C276.681 33.6134 277.218 33.8803 277.674 34.1602C278.13 34.4337 278.481 34.7755 278.729 35.1856C278.976 35.5893 279.1 36.1134 279.1 36.7579Z" fill="black"/>
<path d="M459.29 24.0987C460.227 23.1616 460.227 21.6399 459.29 20.7028C458.353 19.7657 456.831 19.7657 455.894 20.7028L448 28.6041L440.099 20.7103C439.162 19.7732 437.64 19.7732 436.703 20.7103C435.766 21.6474 435.766 23.1691 436.703 24.1062L444.604 32L436.71 39.9013C435.773 40.8384 435.773 42.3601 436.71 43.2972C437.647 44.2343 439.169 44.2343 440.106 43.2972L448 35.3959L455.901 43.2897C456.838 44.2268 458.36 44.2268 459.297 43.2897C460.234 42.3526 460.234 40.8309 459.297 39.8938L451.396 32L459.29 24.0987Z" fill="#1A1040"/>
<path d="M36 15.8496C44.8828 15.8496 52.1504 23.1172 52.1504 32C52.1504 40.8828 44.8828 48.1504 36 48.1504C27.1172 48.1504 19.8496 40.8828 19.8496 32C19.8496 23.1172 27.1172 15.8496 36 15.8496ZM36 19.1504C28.8828 19.1504 23.1504 24.8828 23.1504 32C23.1504 39.1172 28.8828 44.8496 36 44.8496C43.1172 44.8496 48.8496 39.1172 48.8496 32C48.8496 24.8828 43.1172 19.1504 36 19.1504Z" fill="#1A1040" stroke="#1A1040" stroke-width="0.3"/>
<path d="M36 23.8496C37.1874 23.8496 38.1504 24.8126 38.1504 26C38.1504 27.1874 37.1874 28.1504 36 28.1504C34.8126 28.1504 33.8496 27.1874 33.8496 26C33.8496 24.8126 34.8126 23.8496 36 23.8496Z" fill="#1A1040" stroke="#1A1040" stroke-width="0.3"/>
<path d="M36 29.8496C37.1828 29.8496 38.1504 30.8172 38.1504 32V38C38.1504 39.1828 37.1828 40.1504 36 40.1504C34.8172 40.1504 33.8496 39.1828 33.8496 38V32C33.8496 30.8172 34.8172 29.8496 36 29.8496Z" fill="#1A1040" stroke="#1A1040" stroke-width="0.3"/>
<g filter="url(#filter4_d_6143_17039)">
<rect x="16" y="384" width="216" height="80" rx="5" fill="white" shape-rendering="crispEdges"/>
<rect x="17.5" y="385.5" width="213" height="77" rx="3.5" stroke="#1A1040" stroke-width="3" shape-rendering="crispEdges"/>
<path d="M97.2227 416.367H102.555C104.836 416.367 106.562 416.688 107.734 417.328C108.906 417.969 109.492 419.094 109.492 420.703C109.492 421.352 109.387 421.938 109.176 422.461C108.973 422.984 108.676 423.414 108.285 423.75C107.895 424.086 107.418 424.305 106.855 424.406V424.523C107.426 424.641 107.941 424.844 108.402 425.133C108.863 425.414 109.23 425.828 109.504 426.375C109.785 426.914 109.926 427.633 109.926 428.531C109.926 429.57 109.672 430.461 109.164 431.203C108.656 431.945 107.93 432.516 106.984 432.914C106.047 433.305 104.93 433.5 103.633 433.5H97.2227V416.367ZM100.855 423.152H102.965C104.02 423.152 104.75 422.988 105.156 422.66C105.562 422.324 105.766 421.832 105.766 421.184C105.766 420.527 105.523 420.059 105.039 419.777C104.562 419.488 103.805 419.344 102.766 419.344H100.855V423.152ZM100.855 426.035V430.5H103.223C104.316 430.5 105.078 430.289 105.508 429.867C105.938 429.445 106.152 428.879 106.152 428.168C106.152 427.746 106.059 427.375 105.871 427.055C105.684 426.734 105.367 426.484 104.922 426.305C104.484 426.125 103.879 426.035 103.105 426.035H100.855ZM118.434 420.129C120.191 420.129 121.539 420.512 122.477 421.277C123.414 422.043 123.883 423.207 123.883 424.77V433.5H121.387L120.695 431.719H120.602C120.227 432.188 119.844 432.57 119.453 432.867C119.062 433.164 118.613 433.383 118.105 433.523C117.598 433.664 116.98 433.734 116.254 433.734C115.48 433.734 114.785 433.586 114.168 433.289C113.559 432.992 113.078 432.539 112.727 431.93C112.375 431.312 112.199 430.531 112.199 429.586C112.199 428.195 112.688 427.172 113.664 426.516C114.641 425.852 116.105 425.484 118.059 425.414L120.332 425.344V424.77C120.332 424.082 120.152 423.578 119.793 423.258C119.434 422.938 118.934 422.777 118.293 422.777C117.66 422.777 117.039 422.867 116.43 423.047C115.82 423.227 115.211 423.453 114.602 423.727L113.418 421.312C114.113 420.945 114.891 420.656 115.75 420.445C116.617 420.234 117.512 420.129 118.434 420.129ZM120.332 427.43L118.949 427.477C117.793 427.508 116.988 427.715 116.535 428.098C116.09 428.48 115.867 428.984 115.867 429.609C115.867 430.156 116.027 430.547 116.348 430.781C116.668 431.008 117.086 431.121 117.602 431.121C118.367 431.121 119.012 430.895 119.535 430.441C120.066 429.988 120.332 429.344 120.332 428.508V427.43ZM132.895 433.734C131.598 433.734 130.492 433.5 129.578 433.031C128.664 432.555 127.969 431.82 127.492 430.828C127.016 429.836 126.777 428.566 126.777 427.02C126.777 425.418 127.047 424.113 127.586 423.105C128.133 422.09 128.887 421.344 129.848 420.867C130.816 420.391 131.938 420.152 133.211 420.152C134.117 420.152 134.898 420.242 135.555 420.422C136.219 420.594 136.797 420.801 137.289 421.043L136.234 423.809C135.672 423.582 135.148 423.398 134.664 423.258C134.18 423.109 133.695 423.035 133.211 423.035C132.586 423.035 132.066 423.184 131.652 423.48C131.238 423.77 130.93 424.207 130.727 424.793C130.523 425.379 130.422 426.113 130.422 426.996C130.422 427.863 130.531 428.582 130.75 429.152C130.969 429.723 131.285 430.148 131.699 430.43C132.113 430.703 132.617 430.84 133.211 430.84C133.953 430.84 134.613 430.742 135.191 430.547C135.77 430.344 136.332 430.062 136.879 429.703V432.762C136.332 433.105 135.758 433.352 135.156 433.5C134.562 433.656 133.809 433.734 132.895 433.734ZM143.5 415.266V423.422C143.5 423.914 143.48 424.406 143.441 424.898C143.402 425.391 143.359 425.883 143.312 426.375H143.359C143.602 426.031 143.848 425.691 144.098 425.355C144.355 425.02 144.629 424.695 144.918 424.383L148.586 420.398H152.617L147.414 426.082L152.934 433.5H148.809L145.035 428.191L143.5 429.422V433.5H139.926V415.266H143.5Z" fill="#1A1040"/>
</g>
<g filter="url(#filter5_d_6143_17039)">
<rect x="248" y="384" width="216" height="80" rx="5" fill="#1A1040" shape-rendering="crispEdges"/>
<path d="M344.352 433.5H339.734L332.281 420.539H332.176C332.207 421.078 332.234 421.621 332.258 422.168C332.281 422.715 332.305 423.262 332.328 423.809C332.352 424.348 332.375 424.891 332.398 425.438V433.5H329.152V416.367H333.734L341.176 429.199H341.258C341.242 428.668 341.223 428.141 341.199 427.617C341.176 427.094 341.152 426.57 341.129 426.047C341.113 425.523 341.098 425 341.082 424.477V416.367H344.352V433.5ZM353.797 420.152C355.008 420.152 356.051 420.387 356.926 420.855C357.801 421.316 358.477 421.988 358.953 422.871C359.43 423.754 359.668 424.832 359.668 426.105V427.84H351.219C351.258 428.848 351.559 429.641 352.121 430.219C352.691 430.789 353.48 431.074 354.488 431.074C355.324 431.074 356.09 430.988 356.785 430.816C357.48 430.645 358.195 430.387 358.93 430.043V432.809C358.281 433.129 357.602 433.363 356.891 433.512C356.188 433.66 355.332 433.734 354.324 433.734C353.012 433.734 351.848 433.492 350.832 433.008C349.824 432.523 349.031 431.785 348.453 430.793C347.883 429.801 347.598 428.551 347.598 427.043C347.598 425.512 347.855 424.238 348.371 423.223C348.895 422.199 349.621 421.434 350.551 420.926C351.48 420.41 352.562 420.152 353.797 420.152ZM353.82 422.695C353.125 422.695 352.547 422.918 352.086 423.363C351.633 423.809 351.371 424.508 351.301 425.461H356.316C356.309 424.93 356.211 424.457 356.023 424.043C355.844 423.629 355.57 423.301 355.203 423.059C354.844 422.816 354.383 422.695 353.82 422.695ZM365.258 426.809L361.039 420.398H365.094L367.637 424.57L370.203 420.398H374.258L369.992 426.809L374.457 433.5H370.391L367.637 429.012L364.871 433.5H360.816L365.258 426.809ZM381.969 430.887C382.359 430.887 382.738 430.848 383.105 430.77C383.48 430.691 383.852 430.594 384.219 430.477V433.137C383.836 433.309 383.359 433.449 382.789 433.559C382.227 433.676 381.609 433.734 380.938 433.734C380.156 433.734 379.453 433.609 378.828 433.359C378.211 433.102 377.723 432.66 377.363 432.035C377.012 431.402 376.836 430.523 376.836 429.398V423.082H375.125V421.57L377.094 420.375L378.125 417.609H380.41V420.398H384.078V423.082H380.41V429.398C380.41 429.898 380.551 430.273 380.832 430.523C381.121 430.766 381.5 430.887 381.969 430.887Z" fill="white"/>
</g>
<defs>
<filter id="filter0_d_6143_17039" x="10" y="77" width="460" height="302" filterUnits="userSpaceOnUse" color-interpolation-filters="sRGB">
<feFlood flood-opacity="0" result="BackgroundImageFix"/>
<feColorMatrix in="SourceAlpha" type="matrix" values="0 0 0 0 0 0 0 0 0 0 0 0 0 0 0 0 0 0 127 0" result="hardAlpha"/>
<feOffset dy="3"/>
<feGaussianBlur stdDeviation="3"/>
<feComposite in2="hardAlpha" operator="out"/>
<feColorMatrix type="matrix" values="0 0 0 0 0 0 0 0 0 0 0 0 0 0 0 0 0 0 0.25 0"/>
<feBlend mode="normal" in2="BackgroundImageFix" result="effect1_dropShadow_6143_17039"/>
<feBlend mode="normal" in="SourceGraphic" in2="effect1_dropShadow_6143_17039" result="shape"/>
</filter>
<filter id="filter1_d_6143_17039" x="28" y="130" width="423" height="72" filterUnits="userSpaceOnUse" color-interpolation-filters="sRGB">
<feFlood flood-opacity="0" result="BackgroundImageFix"/>
<feColorMatrix in="SourceAlpha" type="matrix" values="0 0 0 0 0 0 0 0 0 0 0 0 0 0 0 0 0 0 127 0" result="hardAlpha"/>
<feOffset dy="2"/>
<feGaussianBlur stdDeviation="2"/>
<feComposite in2="hardAlpha" operator="out"/>
<feColorMatrix type="matrix" values="0 0 0 0 0 0 0 0 0 0 0 0 0 0 0 0 0 0 0.25 0"/>
<feBlend mode="normal" in2="BackgroundImageFix" result="effect1_dropShadow_6143_17039"/>
<feBlend mode="normal" in="SourceGraphic" in2="effect1_dropShadow_6143_17039" result="shape"/>
</filter>
<filter id="filter2_d_6143_17039" x="272" y="227" width="179" height="56" filterUnits="userSpaceOnUse" color-interpolation-filters="sRGB">
<feFlood flood-opacity="0" result="BackgroundImageFix"/>
<feColorMatrix in="SourceAlpha" type="matrix" values="0 0 0 0 0 0 0 0 0 0 0 0 0 0 0 0 0 0 127 0" result="hardAlpha"/>
<feOffset dy="2"/>
<feGaussianBlur stdDeviation="2"/>
<feComposite in2="hardAlpha" operator="out"/>
<feColorMatrix type="matrix" values="0 0 0 0 0 0 0 0 0 0 0 0 0 0 0 0 0 0 0.25 0"/>
<feBlend mode="normal" in2="BackgroundImageFix" result="effect1_dropShadow_6143_17039"/>
<feBlend mode="normal" in="SourceGraphic" in2="effect1_dropShadow_6143_17039" result="shape"/>
</filter>
<filter id="filter3_d_6143_17039" x="272" y="304" width="179" height="56" filterUnits="userSpaceOnUse" color-interpolation-filters="sRGB">
<feFlood flood-opacity="0" result="BackgroundImageFix"/>
<feColorMatrix in="SourceAlpha" type="matrix" values="0 0 0 0 0 0 0 0 0 0 0 0 0 0 0 0 0 0 127 0" result="hardAlpha"/>
<feOffset dy="2"/>
<feGaussianBlur stdDeviation="2"/>
<feComposite in2="hardAlpha" operator="out"/>
<feColorMatrix type="matrix" values="0 0 0 0 0 0 0 0 0 0 0 0 0 0 0 0 0 0 0.25 0"/>
<feBlend mode="normal" in2="BackgroundImageFix" result="effect1_dropShadow_6143_17039"/>
<feBlend mode="normal" in="SourceGraphic" in2="effect1_dropShadow_6143_17039" result="shape"/>
</filter>
<filter id="filter4_d_6143_17039" x="12" y="382" width="224" height="88" filterUnits="userSpaceOnUse" color-interpolation-filters="sRGB">
<feFlood flood-opacity="0" result="BackgroundImageFix"/>
<feColorMatrix in="SourceAlpha" type="matrix" values="0 0 0 0 0 0 0 0 0 0 0 0 0 0 0 0 0 0 127 0" result="hardAlpha"/>
<feOffset dy="2"/>
<feGaussianBlur stdDeviation="2"/>
<feComposite in2="hardAlpha" operator="out"/>
<feColorMatrix type="matrix" values="0 0 0 0 0 0 0 0 0 0 0 0 0 0 0 0 0 0 0.25 0"/>
<feBlend mode="normal" in2="BackgroundImageFix" result="effect1_dropShadow_6143_17039"/>
<feBlend mode="normal" in="SourceGraphic" in2="effect1_dropShadow_6143_17039" result="shape"/>
</filter>
<filter id="filter5_d_6143_17039" x="244" y="382" width="224" height="88" filterUnits="userSpaceOnUse" color-interpolation-filters="sRGB">
<feFlood flood-opacity="0" result="BackgroundImageFix"/>
<feColorMatrix in="SourceAlpha" type="matrix" values="0 0 0 0 0 0 0 0 0 0 0 0 0 0 0 0 0 0 127 0" result="hardAlpha"/>
<feOffset dy="2"/>
<feGaussianBlur stdDeviation="2"/>
<feComposite in2="hardAlpha" operator="out"/>
<feColorMatrix type="matrix" values="0 0 0 0 0 0 0 0 0 0 0 0 0 0 0 0 0 0 0.25 0"/>
<feBlend mode="normal" in2="BackgroundImageFix" result="effect1_dropShadow_6143_17039"/>
<feBlend mode="normal" in="SourceGraphic" in2="effect1_dropShadow_6143_17039" result="shape"/>
</filter>
</defs>
</svg>
