<svg width="480" height="480" viewBox="0 0 480 480" fill="none" xmlns="http://www.w3.org/2000/svg">
<rect width="480" height="480" fill="#F6F6F6"/>
<g filter="url(#filter0_d_3927_32501)">
<rect x="16" y="384" width="448" height="80" rx="5" fill="#1A1040" shape-rendering="crispEdges"/>
<path d="M224.484 428.742C224.484 429.758 224.238 430.641 223.746 431.391C223.254 432.141 222.535 432.719 221.59 433.125C220.652 433.531 219.512 433.734 218.168 433.734C217.574 433.734 216.992 433.695 216.422 433.617C215.859 433.539 215.316 433.426 214.793 433.277C214.277 433.121 213.785 432.93 213.316 432.703V429.328C214.129 429.688 214.973 430.012 215.848 430.301C216.723 430.59 217.59 430.734 218.449 430.734C219.043 430.734 219.52 430.656 219.879 430.5C220.246 430.344 220.512 430.129 220.676 429.855C220.84 429.582 220.922 429.27 220.922 428.918C220.922 428.488 220.777 428.121 220.488 427.816C220.199 427.512 219.801 427.227 219.293 426.961C218.793 426.695 218.227 426.41 217.594 426.105C217.195 425.918 216.762 425.691 216.293 425.426C215.824 425.152 215.379 424.82 214.957 424.43C214.535 424.039 214.188 423.566 213.914 423.012C213.648 422.449 213.516 421.777 213.516 420.996C213.516 419.973 213.75 419.098 214.219 418.371C214.688 417.645 215.355 417.09 216.223 416.707C217.098 416.316 218.129 416.121 219.316 416.121C220.207 416.121 221.055 416.227 221.859 416.438C222.672 416.641 223.52 416.938 224.402 417.328L223.23 420.152C222.441 419.832 221.734 419.586 221.109 419.414C220.484 419.234 219.848 419.145 219.199 419.145C218.746 419.145 218.359 419.219 218.039 419.367C217.719 419.508 217.477 419.711 217.312 419.977C217.148 420.234 217.066 420.535 217.066 420.879C217.066 421.285 217.184 421.629 217.418 421.91C217.66 422.184 218.02 422.449 218.496 422.707C218.98 422.965 219.582 423.266 220.301 423.609C221.176 424.023 221.922 424.457 222.539 424.91C223.164 425.355 223.645 425.883 223.98 426.492C224.316 427.094 224.484 427.844 224.484 428.742ZM232.676 420.129C234.434 420.129 235.781 420.512 236.719 421.277C237.656 422.043 238.125 423.207 238.125 424.77V433.5H235.629L234.938 431.719H234.844C234.469 432.188 234.086 432.57 233.695 432.867C233.305 433.164 232.855 433.383 232.348 433.523C231.84 433.664 231.223 433.734 230.496 433.734C229.723 433.734 229.027 433.586 228.41 433.289C227.801 432.992 227.32 432.539 226.969 431.93C226.617 431.312 226.441 430.531 226.441 429.586C226.441 428.195 226.93 427.172 227.906 426.516C228.883 425.852 230.348 425.484 232.301 425.414L234.574 425.344V424.77C234.574 424.082 234.395 423.578 234.035 423.258C233.676 422.938 233.176 422.777 232.535 422.777C231.902 422.777 231.281 422.867 230.672 423.047C230.062 423.227 229.453 423.453 228.844 423.727L227.66 421.312C228.355 420.945 229.133 420.656 229.992 420.445C230.859 420.234 231.754 420.129 232.676 420.129ZM234.574 427.43L233.191 427.477C232.035 427.508 231.23 427.715 230.777 428.098C230.332 428.48 230.109 428.984 230.109 429.609C230.109 430.156 230.27 430.547 230.59 430.781C230.91 431.008 231.328 431.121 231.844 431.121C232.609 431.121 233.254 430.895 233.777 430.441C234.309 429.988 234.574 429.344 234.574 428.508V427.43ZM244.934 433.5L239.941 420.398H243.68L246.211 427.863C246.352 428.301 246.461 428.762 246.539 429.246C246.625 429.73 246.684 430.164 246.715 430.547H246.809C246.832 430.133 246.887 429.691 246.973 429.223C247.066 428.754 247.188 428.301 247.336 427.863L249.855 420.398H253.594L248.602 433.5H244.934ZM260.883 420.152C262.094 420.152 263.137 420.387 264.012 420.855C264.887 421.316 265.562 421.988 266.039 422.871C266.516 423.754 266.754 424.832 266.754 426.105V427.84H258.305C258.344 428.848 258.645 429.641 259.207 430.219C259.777 430.789 260.566 431.074 261.574 431.074C262.41 431.074 263.176 430.988 263.871 430.816C264.566 430.645 265.281 430.387 266.016 430.043V432.809C265.367 433.129 264.688 433.363 263.977 433.512C263.273 433.66 262.418 433.734 261.41 433.734C260.098 433.734 258.934 433.492 257.918 433.008C256.91 432.523 256.117 431.785 255.539 430.793C254.969 429.801 254.684 428.551 254.684 427.043C254.684 425.512 254.941 424.238 255.457 423.223C255.98 422.199 256.707 421.434 257.637 420.926C258.566 420.41 259.648 420.152 260.883 420.152ZM260.906 422.695C260.211 422.695 259.633 422.918 259.172 423.363C258.719 423.809 258.457 424.508 258.387 425.461H263.402C263.395 424.93 263.297 424.457 263.109 424.043C262.93 423.629 262.656 423.301 262.289 423.059C261.93 422.816 261.469 422.695 260.906 422.695Z" fill="white"/>
</g>
<mask id="path-3-inside-1_3927_32501" fill="white">
<path d="M0 0H480V64H0V0Z"/>
</mask>
<path d="M0 0H480V64H0V0Z" fill="white"/>
<path d="M480 64V63H0V64V65H480V64Z" fill="#D1D1D1" mask="url(#path-3-inside-1_3927_32501)"/>
<path d="M209.363 36.0352C209.363 36.8815 209.158 37.6172 208.748 38.2422C208.338 38.8672 207.739 39.349 206.951 39.6875C206.17 40.026 205.219 40.1953 204.1 40.1953C203.605 40.1953 203.12 40.1628 202.645 40.0977C202.176 40.0326 201.723 39.9382 201.287 39.8145C200.857 39.6842 200.447 39.5247 200.057 39.3359V36.5234C200.734 36.8229 201.437 37.0931 202.166 37.334C202.895 37.5749 203.618 37.6953 204.334 37.6953C204.829 37.6953 205.226 37.6302 205.525 37.5C205.831 37.3698 206.053 37.1908 206.189 36.9629C206.326 36.735 206.395 36.4746 206.395 36.1816C206.395 35.8236 206.274 35.5176 206.033 35.2637C205.792 35.0098 205.46 34.7721 205.037 34.5508C204.62 34.3294 204.148 34.0918 203.621 33.8379C203.289 33.6816 202.928 33.4928 202.537 33.2715C202.146 33.0436 201.775 32.7669 201.424 32.4414C201.072 32.1159 200.783 31.722 200.555 31.2598C200.333 30.791 200.223 30.2311 200.223 29.5801C200.223 28.7272 200.418 27.998 200.809 27.3926C201.199 26.7871 201.756 26.3249 202.479 26.0059C203.208 25.6803 204.067 25.5176 205.057 25.5176C205.799 25.5176 206.505 25.6055 207.176 25.7812C207.853 25.9505 208.559 26.1979 209.295 26.5234L208.318 28.877C207.661 28.61 207.072 28.4049 206.551 28.2617C206.03 28.112 205.499 28.0371 204.959 28.0371C204.581 28.0371 204.259 28.099 203.992 28.2227C203.725 28.3398 203.523 28.5091 203.387 28.7305C203.25 28.9453 203.182 29.196 203.182 29.4824C203.182 29.821 203.279 30.1074 203.475 30.3418C203.676 30.5697 203.976 30.791 204.373 31.0059C204.777 31.2207 205.278 31.4714 205.877 31.7578C206.606 32.1029 207.228 32.4642 207.742 32.8418C208.263 33.2129 208.663 33.6523 208.943 34.1602C209.223 34.6615 209.363 35.2865 209.363 36.0352ZM216.219 28.877C217.228 28.877 218.097 29.0723 218.826 29.4629C219.555 29.847 220.118 30.4069 220.516 31.1426C220.913 31.8783 221.111 32.7767 221.111 33.8379V35.2832H214.07C214.103 36.123 214.354 36.7839 214.822 37.2656C215.298 37.7409 215.955 37.9785 216.795 37.9785C217.492 37.9785 218.13 37.9069 218.709 37.7637C219.288 37.6204 219.884 37.4056 220.496 37.1191V39.4238C219.956 39.6908 219.389 39.8861 218.797 40.0098C218.211 40.1335 217.498 40.1953 216.658 40.1953C215.564 40.1953 214.594 39.9935 213.748 39.5898C212.908 39.1862 212.247 38.571 211.766 37.7441C211.29 36.9173 211.053 35.8757 211.053 34.6191C211.053 33.3431 211.268 32.2819 211.697 31.4355C212.133 30.5827 212.739 29.9447 213.514 29.5215C214.288 29.0918 215.19 28.877 216.219 28.877ZM216.238 30.9961C215.659 30.9961 215.177 31.1816 214.793 31.5527C214.415 31.9238 214.197 32.5065 214.139 33.3008H218.318C218.312 32.8581 218.23 32.4642 218.074 32.1191C217.924 31.7741 217.697 31.5007 217.391 31.2988C217.091 31.097 216.707 30.9961 216.238 30.9961ZM228.133 37.8223C228.458 37.8223 228.774 37.7897 229.08 37.7246C229.393 37.6595 229.702 37.5781 230.008 37.4805V39.6973C229.689 39.8405 229.292 39.9577 228.816 40.0488C228.348 40.1465 227.833 40.1953 227.273 40.1953C226.622 40.1953 226.036 40.0911 225.516 39.8828C225.001 39.668 224.594 39.3001 224.295 38.7793C224.002 38.252 223.855 37.5195 223.855 36.582V31.3184H222.43V30.0586L224.07 29.0625L224.93 26.7578H226.834V29.082H229.891V31.3184H226.834V36.582C226.834 36.9987 226.951 37.3112 227.186 37.5195C227.426 37.7214 227.742 37.8223 228.133 37.8223ZM236.824 37.8223C237.15 37.8223 237.465 37.7897 237.771 37.7246C238.084 37.6595 238.393 37.5781 238.699 37.4805V39.6973C238.38 39.8405 237.983 39.9577 237.508 40.0488C237.039 40.1465 236.525 40.1953 235.965 40.1953C235.314 40.1953 234.728 40.0911 234.207 39.8828C233.693 39.668 233.286 39.3001 232.986 38.7793C232.693 38.252 232.547 37.5195 232.547 36.582V31.3184H231.121V30.0586L232.762 29.0625L233.621 26.7578H235.525V29.082H238.582V31.3184H235.525V36.582C235.525 36.9987 235.643 37.3112 235.877 37.5195C236.118 37.7214 236.434 37.8223 236.824 37.8223ZM243.895 29.082V40H240.916V29.082H243.895ZM242.41 24.8047C242.853 24.8047 243.234 24.9089 243.553 25.1172C243.872 25.319 244.031 25.6999 244.031 26.2598C244.031 26.8132 243.872 27.1973 243.553 27.4121C243.234 27.6204 242.853 27.7246 242.41 27.7246C241.961 27.7246 241.577 27.6204 241.258 27.4121C240.945 27.1973 240.789 26.8132 240.789 26.2598C240.789 25.6999 240.945 25.319 241.258 25.1172C241.577 24.9089 241.961 24.8047 242.41 24.8047ZM253.23 28.877C254.396 28.877 255.333 29.196 256.043 29.834C256.753 30.4655 257.107 31.4811 257.107 32.8809V40H254.129V33.623C254.129 32.8418 253.986 32.2526 253.699 31.8555C253.419 31.4583 252.977 31.2598 252.371 31.2598C251.46 31.2598 250.838 31.569 250.506 32.1875C250.174 32.806 250.008 33.6979 250.008 34.8633V40H247.029V29.082H249.305L249.705 30.4785H249.871C250.105 30.1009 250.395 29.7949 250.74 29.5605C251.092 29.3262 251.479 29.1536 251.902 29.043C252.332 28.9323 252.775 28.877 253.23 28.877ZM263.367 44.8047C261.844 44.8047 260.678 44.5378 259.871 44.0039C259.07 43.4766 258.67 42.7344 258.67 41.7773C258.67 41.1198 258.875 40.5697 259.285 40.127C259.695 39.6842 260.298 39.3685 261.092 39.1797C260.786 39.0495 260.519 38.8379 260.291 38.5449C260.063 38.2454 259.949 37.9297 259.949 37.5977C259.949 37.181 260.07 36.8359 260.311 36.5625C260.551 36.2826 260.9 36.0091 261.355 35.7422C260.783 35.4948 260.327 35.0977 259.988 34.5508C259.656 34.0039 259.49 33.3594 259.49 32.6172C259.49 31.8229 259.663 31.1491 260.008 30.5957C260.359 30.0358 260.867 29.6094 261.531 29.3164C262.202 29.0234 263.016 28.877 263.973 28.877C264.174 28.877 264.409 28.89 264.676 28.916C264.943 28.9421 265.187 28.9714 265.408 29.0039C265.636 29.0365 265.789 29.0625 265.867 29.082H269.676V30.5957L267.967 31.0352C268.123 31.276 268.24 31.5332 268.318 31.8066C268.396 32.0801 268.436 32.3698 268.436 32.6758C268.436 33.8477 268.025 34.7624 267.205 35.4199C266.391 36.071 265.258 36.3965 263.807 36.3965C263.462 36.377 263.136 36.3509 262.83 36.3184C262.68 36.4355 262.566 36.5592 262.488 36.6895C262.41 36.8197 262.371 36.9564 262.371 37.0996C262.371 37.2428 262.43 37.3633 262.547 37.4609C262.671 37.5521 262.853 37.6237 263.094 37.6758C263.341 37.7214 263.647 37.7441 264.012 37.7441H265.867C267.065 37.7441 267.977 38.0013 268.602 38.5156C269.233 39.0299 269.549 39.7852 269.549 40.7812C269.549 42.0573 269.015 43.0469 267.947 43.75C266.886 44.4531 265.359 44.8047 263.367 44.8047ZM263.494 42.8613C264.204 42.8613 264.812 42.793 265.32 42.6562C265.835 42.526 266.229 42.3372 266.502 42.0898C266.775 41.849 266.912 41.5592 266.912 41.2207C266.912 40.9473 266.831 40.7292 266.668 40.5664C266.512 40.4102 266.271 40.2995 265.945 40.2344C265.626 40.1693 265.216 40.1367 264.715 40.1367H263.172C262.807 40.1367 262.479 40.1953 262.186 40.3125C261.899 40.4297 261.671 40.5924 261.502 40.8008C261.333 41.0156 261.248 41.263 261.248 41.543C261.248 41.9531 261.443 42.2754 261.834 42.5098C262.231 42.7441 262.785 42.8613 263.494 42.8613ZM263.973 34.5801C264.533 34.5801 264.943 34.4076 265.203 34.0625C265.464 33.7174 265.594 33.2487 265.594 32.6562C265.594 31.9987 265.457 31.5072 265.184 31.1816C264.917 30.8496 264.513 30.6836 263.973 30.6836C263.426 30.6836 263.016 30.8496 262.742 31.1816C262.469 31.5072 262.332 31.9987 262.332 32.6562C262.332 33.2487 262.465 33.7174 262.732 34.0625C263.006 34.4076 263.419 34.5801 263.973 34.5801ZM279.1 36.7578C279.1 37.5 278.924 38.1283 278.572 38.6426C278.227 39.1504 277.71 39.5378 277.02 39.8047C276.329 40.0651 275.47 40.1953 274.441 40.1953C273.68 40.1953 273.025 40.1465 272.479 40.0488C271.938 39.9512 271.391 39.7884 270.838 39.5605V37.0996C271.43 37.3665 272.065 37.5879 272.742 37.7637C273.426 37.9329 274.025 38.0176 274.539 38.0176C275.118 38.0176 275.532 37.9329 275.779 37.7637C276.033 37.5879 276.16 37.36 276.16 37.0801C276.16 36.8978 276.108 36.735 276.004 36.5918C275.906 36.4421 275.691 36.276 275.359 36.0938C275.027 35.9049 274.507 35.6608 273.797 35.3613C273.113 35.0749 272.55 34.7852 272.107 34.4922C271.671 34.1992 271.346 33.8542 271.131 33.457C270.923 33.0534 270.818 32.5423 270.818 31.9238C270.818 30.9147 271.209 30.1562 271.99 29.6484C272.778 29.1341 273.829 28.877 275.145 28.877C275.822 28.877 276.466 28.9453 277.078 29.082C277.697 29.2188 278.331 29.4368 278.982 29.7363L278.084 31.8848C277.544 31.6504 277.033 31.4583 276.551 31.3086C276.076 31.1589 275.59 31.084 275.096 31.084C274.66 31.084 274.331 31.1426 274.109 31.2598C273.888 31.377 273.777 31.556 273.777 31.7969C273.777 31.9727 273.833 32.1289 273.943 32.2656C274.061 32.4023 274.282 32.5553 274.607 32.7246C274.939 32.8874 275.424 33.099 276.062 33.3594C276.681 33.6133 277.218 33.8802 277.674 34.1602C278.13 34.4336 278.481 34.7754 278.729 35.1855C278.976 35.5892 279.1 36.1133 279.1 36.7578Z" fill="#31344E"/>
<path fill-rule="evenodd" clip-rule="evenodd" d="M31.208 43.2971C32.1518 44.2343 33.6819 44.2343 34.6257 43.2971C35.5694 42.3598 35.5694 40.8402 34.6257 39.9029L29.0845 34.4L47.4168 34.4C48.7515 34.4 49.8335 33.3255 49.8335 32C49.8335 30.6745 48.7515 29.6 47.4168 29.6L29.0845 29.6L34.6257 24.0971C35.5694 23.1598 35.5694 21.6402 34.6257 20.7029C33.6819 19.7657 32.1518 19.7657 31.208 20.7029L21.5418 30.3025C21.1042 30.7368 20.8335 31.337 20.8335 32C20.8335 32.6638 21.1048 33.2646 21.5434 33.6991M21.5434 33.6991L31.208 43.2971L21.5434 33.6991Z" fill="#1A1040"/>
<path d="M459.29 24.0987C460.227 23.1616 460.227 21.6399 459.29 20.7028C458.353 19.7657 456.831 19.7657 455.894 20.7028L448 28.6041L440.099 20.7103C439.162 19.7732 437.64 19.7732 436.703 20.7103C435.766 21.6474 435.766 23.1691 436.703 24.1062L444.604 32L436.71 39.9013C435.773 40.8384 435.773 42.3601 436.71 43.2972C437.647 44.2343 439.169 44.2343 440.106 43.2972L448 35.3959L455.901 43.2897C456.838 44.2268 458.36 44.2268 459.297 43.2897C460.234 42.3526 460.234 40.8309 459.297 39.8938L451.396 32L459.29 24.0987Z" fill="#1A1040"/>
<g filter="url(#filter1_d_3927_32501)">
<rect x="16" y="110" width="448" height="249" rx="10" fill="white" shape-rendering="crispEdges"/>
<rect x="16.5" y="110.5" width="447" height="248" rx="9.5" stroke="#D9D9D9" shape-rendering="crispEdges"/>
<path d="M43.2148 259.15L38.7236 272H36.4912L32 259.15H34.1621L36.8691 267.201C36.9512 267.436 37.0391 267.72 37.1328 268.054C37.2324 268.388 37.3232 268.725 37.4053 269.064C37.4932 269.404 37.5605 269.706 37.6074 269.97C37.6543 269.706 37.7188 269.404 37.8008 269.064C37.8887 268.725 37.9795 268.388 38.0732 268.054C38.167 267.72 38.2549 267.433 38.3369 267.192L41.0527 259.15H43.2148ZM53.3047 267.113C53.3047 267.922 53.1992 268.64 52.9883 269.267C52.7773 269.894 52.4697 270.424 52.0654 270.857C51.6611 271.285 51.1748 271.613 50.6064 271.842C50.0381 272.064 49.3965 272.176 48.6816 272.176C48.0137 272.176 47.4014 272.064 46.8447 271.842C46.2881 271.613 45.8047 271.285 45.3945 270.857C44.9902 270.424 44.6768 269.894 44.4541 269.267C44.2314 268.64 44.1201 267.922 44.1201 267.113C44.1201 266.041 44.3047 265.133 44.6738 264.389C45.0488 263.639 45.582 263.067 46.2734 262.675C46.9648 262.282 47.7881 262.086 48.7432 262.086C49.6396 262.086 50.4307 262.282 51.1162 262.675C51.8018 263.067 52.3379 263.639 52.7246 264.389C53.1113 265.139 53.3047 266.047 53.3047 267.113ZM46.2471 267.113C46.2471 267.822 46.332 268.429 46.502 268.933C46.6777 269.437 46.9473 269.823 47.3105 270.093C47.6738 270.356 48.1426 270.488 48.7168 270.488C49.291 270.488 49.7598 270.356 50.123 270.093C50.4863 269.823 50.7529 269.437 50.9229 268.933C51.0928 268.429 51.1777 267.822 51.1777 267.113C51.1777 266.404 51.0928 265.804 50.9229 265.312C50.7529 264.813 50.4863 264.436 50.123 264.178C49.7598 263.914 49.2881 263.782 48.708 263.782C47.8525 263.782 47.2285 264.069 46.8359 264.644C46.4434 265.218 46.2471 266.041 46.2471 267.113ZM57.752 272H55.6777V258.324H57.752V272ZM69.1865 262.271V272H67.5605L67.2793 270.69H67.165C66.96 271.024 66.6992 271.303 66.3828 271.525C66.0664 271.742 65.7148 271.903 65.3281 272.009C64.9414 272.12 64.5342 272.176 64.1064 272.176C63.374 272.176 62.7471 272.053 62.2256 271.807C61.71 271.555 61.3145 271.168 61.0391 270.646C60.7637 270.125 60.626 269.451 60.626 268.625V262.271H62.7002V268.238C62.7002 268.994 62.8525 269.56 63.1572 269.935C63.4678 270.31 63.9482 270.497 64.5986 270.497C65.2256 270.497 65.7236 270.368 66.0928 270.11C66.4619 269.853 66.7227 269.472 66.875 268.968C67.0332 268.464 67.1123 267.846 67.1123 267.113V262.271H69.1865ZM83.1436 262.086C84.2334 262.086 85.0537 262.367 85.6045 262.93C86.1611 263.492 86.4395 264.395 86.4395 265.637V272H84.374V266.006C84.374 265.268 84.2305 264.711 83.9434 264.336C83.6562 263.961 83.2197 263.773 82.6338 263.773C81.8135 263.773 81.2217 264.037 80.8584 264.564C80.501 265.086 80.3223 265.845 80.3223 266.841V272H78.2568V266.006C78.2568 265.514 78.1924 265.104 78.0635 264.775C77.9404 264.441 77.75 264.192 77.4922 264.028C77.2344 263.858 76.9092 263.773 76.5166 263.773C75.9482 263.773 75.4941 263.902 75.1543 264.16C74.8203 264.418 74.5801 264.799 74.4336 265.303C74.2871 265.801 74.2139 266.413 74.2139 267.14V272H72.1484V262.271H73.7568L74.0469 263.58H74.1611C74.3604 263.24 74.6064 262.962 74.8994 262.745C75.1982 262.522 75.5293 262.358 75.8926 262.253C76.2559 262.142 76.6338 262.086 77.0264 262.086C77.7529 262.086 78.3652 262.215 78.8633 262.473C79.3613 262.725 79.7334 263.111 79.9795 263.633H80.1377C80.4424 263.105 80.8672 262.716 81.4121 262.464C81.957 262.212 82.5342 262.086 83.1436 262.086ZM93.1982 262.086C94.0654 262.086 94.8096 262.265 95.4307 262.622C96.0518 262.979 96.5293 263.486 96.8633 264.143C97.1973 264.799 97.3643 265.584 97.3643 266.498V267.605H90.8691C90.8926 268.549 91.1445 269.275 91.625 269.785C92.1113 270.295 92.791 270.55 93.6641 270.55C94.2852 270.55 94.8418 270.491 95.334 270.374C95.832 270.251 96.3447 270.072 96.8721 269.838V271.517C96.3857 271.745 95.8906 271.912 95.3867 272.018C94.8828 272.123 94.2793 272.176 93.5762 272.176C92.6211 272.176 91.7803 271.991 91.0537 271.622C90.333 271.247 89.7676 270.69 89.3574 269.952C88.9531 269.214 88.751 268.297 88.751 267.201C88.751 266.111 88.9355 265.186 89.3047 264.424C89.6738 263.662 90.1924 263.082 90.8604 262.684C91.5283 262.285 92.3076 262.086 93.1982 262.086ZM93.1982 263.642C92.5479 263.642 92.0205 263.853 91.6162 264.274C91.2178 264.696 90.9834 265.314 90.9131 266.129H95.3428C95.3369 265.643 95.2549 265.212 95.0967 264.837C94.9443 264.462 94.71 264.169 94.3936 263.958C94.083 263.747 93.6846 263.642 93.1982 263.642Z" fill="#31344E"/>
<path d="M62 301L418 301" stroke="#F6F6F6" stroke-width="16" stroke-linecap="round"/>
<path d="M64 301H416" stroke="#707070"/>
<g filter="url(#filter2_d_3927_32501)">
<circle cx="48" cy="301" r="16" fill="#F6F6F6" stroke="#1A1040" stroke-width="2"/>
<circle cx="48" cy="301" r="9" fill="#1A1040"/>
</g>
<circle cx="240" cy="301" r="16" fill="#F6F6F6"/>
<circle cx="240" cy="301" r="9" fill="#707070"/>
<circle cx="432" cy="301" r="16" fill="#F6F6F6"/>
<circle cx="432" cy="301" r="9" fill="#707070"/>
<path d="M33.4648 337V326.292H34.71V335.887H39.4634V337H33.4648ZM48.04 332.972C48.04 333.631 47.9546 334.219 47.7837 334.737C47.6128 335.254 47.3662 335.691 47.0439 336.048C46.7217 336.404 46.3311 336.678 45.8721 336.868C45.418 337.054 44.9028 337.146 44.3267 337.146C43.7896 337.146 43.2964 337.054 42.8472 336.868C42.4028 336.678 42.0171 336.404 41.6899 336.048C41.3677 335.691 41.1162 335.254 40.9355 334.737C40.7598 334.219 40.6719 333.631 40.6719 332.972C40.6719 332.093 40.8208 331.346 41.1187 330.73C41.4165 330.11 41.8413 329.639 42.3931 329.317C42.9497 328.99 43.6113 328.826 44.3779 328.826C45.1104 328.826 45.75 328.99 46.2969 329.317C46.8486 329.644 47.2759 330.118 47.5786 330.738C47.8862 331.353 48.04 332.098 48.04 332.972ZM41.9316 332.972C41.9316 333.616 42.0171 334.175 42.188 334.649C42.3589 335.123 42.6226 335.489 42.979 335.748C43.3354 336.006 43.7944 336.136 44.356 336.136C44.9126 336.136 45.3691 336.006 45.7256 335.748C46.0869 335.489 46.353 335.123 46.5239 334.649C46.6948 334.175 46.7803 333.616 46.7803 332.972C46.7803 332.332 46.6948 331.78 46.5239 331.316C46.353 330.848 46.0894 330.486 45.7329 330.232C45.3765 329.979 44.915 329.852 44.3486 329.852C43.5137 329.852 42.9009 330.127 42.5103 330.679C42.1245 331.231 41.9316 331.995 41.9316 332.972ZM56.6753 336.985L55.2471 332.312C55.1836 332.112 55.1226 331.917 55.064 331.727C55.0103 331.531 54.959 331.346 54.9102 331.17C54.8662 330.989 54.8247 330.823 54.7856 330.672C54.7515 330.516 54.7222 330.381 54.6978 330.269H54.6465C54.627 330.381 54.6001 330.516 54.5659 330.672C54.5317 330.823 54.4902 330.989 54.4414 331.17C54.3975 331.351 54.3486 331.541 54.2949 331.741C54.2412 331.937 54.1802 332.134 54.1118 332.334L52.6177 336.985H51.248L49.0361 328.958H50.2959L51.4531 333.389C51.5312 333.682 51.6045 333.973 51.6729 334.261C51.7461 334.544 51.8071 334.812 51.856 335.066C51.9097 335.315 51.9487 335.533 51.9731 335.718H52.0317C52.061 335.596 52.0928 335.45 52.127 335.279C52.166 335.108 52.2075 334.927 52.2515 334.737C52.3003 334.542 52.3516 334.349 52.4053 334.158C52.459 333.963 52.5127 333.78 52.5664 333.609L54.0459 328.958H55.3569L56.7852 333.602C56.8584 333.836 56.9292 334.08 56.9976 334.334C57.0708 334.588 57.1367 334.834 57.1953 335.074C57.2539 335.308 57.2954 335.518 57.3198 335.704H57.3784C57.3979 335.538 57.4346 335.333 57.4883 335.088C57.542 334.844 57.603 334.576 57.6714 334.283C57.7446 333.99 57.8203 333.692 57.8984 333.389L59.0703 328.958H60.3081L58.0889 336.985H56.6753Z" fill="#31344E"/>
<path d="M216.185 337L212.589 327.522H212.53C212.55 327.723 212.567 327.967 212.582 328.255C212.596 328.543 212.608 328.858 212.618 329.2C212.628 329.537 212.633 329.881 212.633 330.232V337H211.476V326.292H213.321L216.712 335.198H216.764L220.206 326.292H222.037V337H220.807V330.145C220.807 329.827 220.812 329.51 220.821 329.192C220.831 328.87 220.843 328.567 220.858 328.284C220.873 327.996 220.887 327.747 220.902 327.537H220.843L217.203 337H216.185ZM227.875 328.826C228.558 328.826 229.144 328.978 229.632 329.28C230.121 329.583 230.494 330.008 230.753 330.555C231.012 331.097 231.141 331.731 231.141 332.459V333.213H225.597C225.611 334.156 225.846 334.874 226.3 335.367C226.754 335.86 227.394 336.106 228.219 336.106C228.727 336.106 229.176 336.06 229.566 335.967C229.957 335.875 230.362 335.738 230.782 335.557V336.626C230.377 336.807 229.974 336.939 229.574 337.022C229.178 337.105 228.709 337.146 228.167 337.146C227.396 337.146 226.722 336.99 226.146 336.678C225.575 336.36 225.13 335.896 224.813 335.286C224.496 334.676 224.337 333.929 224.337 333.045C224.337 332.181 224.481 331.434 224.769 330.804C225.062 330.169 225.472 329.681 226 329.339C226.532 328.997 227.157 328.826 227.875 328.826ZM227.86 329.822C227.21 329.822 226.693 330.035 226.307 330.459C225.921 330.884 225.692 331.478 225.619 332.239H229.867C229.862 331.761 229.786 331.341 229.64 330.979C229.498 330.613 229.281 330.33 228.988 330.13C228.695 329.925 228.319 329.822 227.86 329.822ZM236.063 337.146C235.047 337.146 234.242 336.8 233.646 336.106C233.055 335.413 232.76 334.383 232.76 333.016C232.76 331.634 233.062 330.591 233.668 329.888C234.273 329.18 235.079 328.826 236.085 328.826C236.51 328.826 236.881 328.882 237.198 328.995C237.516 329.107 237.789 329.258 238.019 329.449C238.248 329.634 238.441 329.847 238.597 330.086H238.685C238.666 329.935 238.646 329.727 238.626 329.463C238.607 329.2 238.597 328.985 238.597 328.819V325.604H239.813V337H238.832L238.648 335.857H238.597C238.446 336.097 238.253 336.314 238.019 336.509C237.789 336.705 237.513 336.861 237.191 336.978C236.874 337.09 236.498 337.146 236.063 337.146ZM236.253 336.136C237.113 336.136 237.721 335.892 238.077 335.403C238.434 334.915 238.612 334.19 238.612 333.228V333.008C238.612 331.988 238.441 331.204 238.099 330.657C237.762 330.11 237.147 329.837 236.253 329.837C235.506 329.837 234.947 330.125 234.576 330.701C234.205 331.272 234.02 332.054 234.02 333.045C234.02 334.031 234.203 334.793 234.569 335.33C234.94 335.867 235.501 336.136 236.253 336.136ZM243.607 328.973V337H242.391V328.973H243.607ZM243.014 325.97C243.214 325.97 243.385 326.036 243.526 326.167C243.673 326.294 243.746 326.495 243.746 326.768C243.746 327.037 243.673 327.237 243.526 327.369C243.385 327.5 243.214 327.566 243.014 327.566C242.804 327.566 242.628 327.5 242.486 327.369C242.35 327.237 242.281 327.037 242.281 326.768C242.281 326.495 242.35 326.294 242.486 326.167C242.628 326.036 242.804 325.97 243.014 325.97ZM252.813 328.973V337H251.817L251.642 335.872H251.576C251.41 336.15 251.195 336.385 250.931 336.575C250.667 336.766 250.37 336.907 250.038 337C249.71 337.098 249.361 337.146 248.99 337.146C248.355 337.146 247.823 337.044 247.394 336.839C246.964 336.634 246.639 336.316 246.419 335.887C246.205 335.457 246.097 334.905 246.097 334.231V328.973H247.328V334.144C247.328 334.812 247.479 335.313 247.782 335.645C248.084 335.972 248.546 336.136 249.166 336.136C249.762 336.136 250.235 336.023 250.587 335.799C250.943 335.574 251.2 335.245 251.356 334.81C251.512 334.371 251.59 333.833 251.59 333.199V328.973H252.813ZM264.1 328.826C264.984 328.826 265.65 329.058 266.1 329.522C266.549 329.981 266.773 330.721 266.773 331.741V337H265.572V331.8C265.572 331.15 265.431 330.665 265.147 330.342C264.869 330.015 264.454 329.852 263.902 329.852C263.126 329.852 262.562 330.076 262.21 330.525C261.859 330.975 261.683 331.636 261.683 332.51V337H260.475V331.8C260.475 331.365 260.411 331.004 260.284 330.716C260.162 330.428 259.977 330.213 259.728 330.071C259.483 329.925 259.173 329.852 258.797 329.852C258.265 329.852 257.838 329.961 257.516 330.181C257.193 330.401 256.959 330.728 256.812 331.163C256.671 331.592 256.6 332.122 256.6 332.752V337H255.384V328.973H256.366L256.549 330.108H256.615C256.776 329.83 256.979 329.595 257.223 329.405C257.467 329.214 257.74 329.07 258.043 328.973C258.346 328.875 258.668 328.826 259.01 328.826C259.62 328.826 260.13 328.941 260.541 329.17C260.956 329.395 261.256 329.739 261.441 330.203H261.507C261.771 329.739 262.132 329.395 262.591 329.17C263.05 328.941 263.553 328.826 264.1 328.826Z" fill="#31344E"/>
<path d="M425.383 337H424.138V331.954H418.513V337H417.268V326.292H418.513V330.855H424.138V326.292H425.383V337ZM429.36 328.973V337H428.144V328.973H429.36ZM428.767 325.97C428.967 325.97 429.138 326.036 429.279 326.167C429.426 326.294 429.499 326.495 429.499 326.768C429.499 327.037 429.426 327.237 429.279 327.369C429.138 327.5 428.967 327.566 428.767 327.566C428.557 327.566 428.381 327.5 428.239 327.369C428.103 327.237 428.034 327.037 428.034 326.768C428.034 326.495 428.103 326.294 428.239 326.167C428.381 326.036 428.557 325.97 428.767 325.97ZM434.179 340.604C433.125 340.604 432.312 340.406 431.74 340.01C431.169 339.62 430.883 339.07 430.883 338.362C430.883 337.859 431.042 337.43 431.359 337.073C431.682 336.717 432.126 336.48 432.692 336.363C432.482 336.265 432.302 336.119 432.15 335.923C432.004 335.728 431.931 335.503 431.931 335.25C431.931 334.957 432.011 334.7 432.172 334.48C432.338 334.256 432.59 334.041 432.927 333.836C432.507 333.665 432.165 333.377 431.901 332.972C431.643 332.562 431.513 332.085 431.513 331.543C431.513 330.967 431.633 330.477 431.872 330.071C432.111 329.661 432.458 329.349 432.912 329.134C433.366 328.919 433.916 328.812 434.56 328.812C434.702 328.812 434.843 328.819 434.985 328.833C435.131 328.843 435.271 328.86 435.402 328.885C435.534 328.904 435.649 328.929 435.747 328.958H438.5V329.742L437.021 329.925C437.167 330.115 437.29 330.345 437.387 330.613C437.485 330.882 437.534 331.18 437.534 331.507C437.534 332.308 437.263 332.945 436.721 333.418C436.179 333.887 435.434 334.122 434.487 334.122C434.262 334.122 434.033 334.102 433.798 334.063C433.559 334.195 433.376 334.341 433.249 334.502C433.127 334.664 433.066 334.849 433.066 335.059C433.066 335.215 433.112 335.34 433.205 335.433C433.303 335.525 433.442 335.594 433.623 335.638C433.803 335.677 434.021 335.696 434.274 335.696H435.688C436.562 335.696 437.231 335.879 437.695 336.246C438.164 336.612 438.398 337.146 438.398 337.85C438.398 338.738 438.037 339.419 437.314 339.893C436.591 340.367 435.546 340.604 434.179 340.604ZM434.216 339.651C434.88 339.651 435.429 339.583 435.864 339.446C436.303 339.314 436.63 339.122 436.845 338.868C437.065 338.619 437.175 338.321 437.175 337.974C437.175 337.652 437.102 337.408 436.955 337.242C436.809 337.081 436.594 336.973 436.311 336.919C436.027 336.861 435.681 336.832 435.271 336.832H433.879C433.518 336.832 433.203 336.888 432.934 337C432.666 337.112 432.458 337.278 432.312 337.498C432.17 337.718 432.099 337.991 432.099 338.318C432.099 338.753 432.282 339.083 432.648 339.307C433.015 339.537 433.537 339.651 434.216 339.651ZM434.531 333.235C435.112 333.235 435.549 333.089 435.842 332.796C436.135 332.503 436.281 332.076 436.281 331.514C436.281 330.914 436.132 330.464 435.834 330.167C435.537 329.864 435.097 329.712 434.516 329.712C433.959 329.712 433.53 329.869 433.227 330.181C432.929 330.489 432.78 330.94 432.78 331.536C432.78 332.083 432.932 332.503 433.234 332.796C433.537 333.089 433.969 333.235 434.531 333.235ZM441.298 325.604V329.009C441.298 329.205 441.293 329.402 441.284 329.603C441.274 329.798 441.257 329.979 441.232 330.145H441.313C441.479 329.861 441.689 329.625 441.943 329.434C442.202 329.239 442.495 329.092 442.822 328.995C443.149 328.892 443.496 328.841 443.862 328.841C444.506 328.841 445.043 328.943 445.473 329.148C445.908 329.354 446.232 329.671 446.447 330.101C446.667 330.53 446.777 331.087 446.777 331.771V337H445.576V331.851C445.576 331.182 445.422 330.682 445.114 330.35C444.812 330.018 444.345 329.852 443.715 329.852C443.12 329.852 442.644 329.966 442.287 330.196C441.936 330.42 441.682 330.752 441.525 331.192C441.374 331.631 441.298 332.168 441.298 332.803V337H440.083V325.604H441.298Z" fill="#31344E"/>
<path d="M33.6875 171V158.15H35.7969V169.207H41.2549V171H33.6875ZM47.082 161.086C48.3125 161.086 49.2412 161.358 49.8682 161.903C50.501 162.448 50.8174 163.298 50.8174 164.452V171H49.3496L48.9541 169.62H48.8838C48.6084 169.972 48.3242 170.262 48.0312 170.49C47.7383 170.719 47.3984 170.889 47.0117 171C46.6309 171.117 46.165 171.176 45.6143 171.176C45.0342 171.176 44.5156 171.07 44.0586 170.859C43.6016 170.643 43.2412 170.314 42.9775 169.875C42.7139 169.436 42.582 168.879 42.582 168.205C42.582 167.203 42.9541 166.45 43.6982 165.946C44.4482 165.442 45.5791 165.164 47.0908 165.111L48.7783 165.05V164.54C48.7783 163.866 48.6201 163.386 48.3037 163.099C47.9932 162.812 47.5537 162.668 46.9854 162.668C46.499 162.668 46.0273 162.738 45.5703 162.879C45.1133 163.02 44.668 163.192 44.2344 163.397L43.5664 161.938C44.041 161.687 44.5801 161.481 45.1836 161.323C45.793 161.165 46.4258 161.086 47.082 161.086ZM48.7695 166.351L47.5127 166.395C46.4814 166.43 45.7578 166.605 45.3418 166.922C44.9258 167.238 44.7178 167.672 44.7178 168.223C44.7178 168.703 44.8613 169.055 45.1484 169.277C45.4355 169.494 45.8135 169.603 46.2822 169.603C46.9971 169.603 47.5889 169.4 48.0576 168.996C48.5322 168.586 48.7695 167.985 48.7695 167.194V166.351ZM58.7803 161.086C59.876 161.086 60.7285 161.37 61.3379 161.938C61.9531 162.501 62.2607 163.406 62.2607 164.654V171H60.1953V165.041C60.1953 164.285 60.04 163.72 59.7295 163.345C59.4189 162.964 58.9385 162.773 58.2881 162.773C57.3447 162.773 56.6885 163.063 56.3193 163.644C55.9561 164.224 55.7744 165.064 55.7744 166.166V171H53.709V161.271H55.3174L55.6074 162.589H55.7217C55.9326 162.249 56.1934 161.971 56.5039 161.754C56.8203 161.531 57.1719 161.364 57.5586 161.253C57.9512 161.142 58.3584 161.086 58.7803 161.086ZM67.9297 175.324C66.6113 175.324 65.6006 175.087 64.8975 174.612C64.1943 174.138 63.8428 173.473 63.8428 172.617C63.8428 172.02 64.0303 171.513 64.4053 171.097C64.7803 170.687 65.3164 170.402 66.0137 170.244C65.75 170.127 65.5215 169.945 65.3281 169.699C65.1406 169.447 65.0469 169.169 65.0469 168.864C65.0469 168.501 65.1494 168.19 65.3545 167.933C65.5596 167.675 65.8672 167.426 66.2773 167.186C65.7676 166.969 65.3574 166.617 65.0469 166.131C64.7422 165.639 64.5898 165.062 64.5898 164.399C64.5898 163.696 64.7393 163.099 65.0381 162.606C65.3369 162.108 65.7734 161.73 66.3477 161.473C66.9219 161.209 67.6162 161.077 68.4307 161.077C68.6064 161.077 68.7969 161.089 69.002 161.112C69.2129 161.13 69.4062 161.153 69.582 161.183C69.7637 161.206 69.9014 161.232 69.9951 161.262H73.3613V162.413L71.709 162.721C71.8672 162.943 71.9932 163.198 72.0869 163.485C72.1807 163.767 72.2275 164.074 72.2275 164.408C72.2275 165.416 71.8789 166.21 71.1816 166.79C70.4902 167.364 69.5352 167.651 68.3164 167.651C68.0234 167.64 67.7393 167.616 67.4639 167.581C67.2529 167.71 67.0918 167.854 66.9805 168.012C66.8691 168.164 66.8135 168.337 66.8135 168.53C66.8135 168.688 66.8691 168.817 66.9805 168.917C67.0918 169.011 67.2559 169.081 67.4727 169.128C67.6953 169.175 67.9648 169.198 68.2812 169.198H69.96C71.0264 169.198 71.8408 169.424 72.4033 169.875C72.9658 170.326 73.2471 170.988 73.2471 171.861C73.2471 172.969 72.79 173.821 71.876 174.419C70.9619 175.022 69.6465 175.324 67.9297 175.324ZM68.0088 173.874C68.7295 173.874 69.3359 173.804 69.8281 173.663C70.3203 173.522 70.6924 173.32 70.9443 173.057C71.1963 172.799 71.3223 172.491 71.3223 172.134C71.3223 171.817 71.2432 171.574 71.085 171.404C70.9268 171.234 70.6895 171.117 70.373 171.053C70.0566 170.988 69.6641 170.956 69.1953 170.956H67.666C67.2852 170.956 66.9482 171.015 66.6553 171.132C66.3623 171.255 66.1338 171.431 65.9697 171.659C65.8115 171.888 65.7324 172.163 65.7324 172.485C65.7324 172.931 65.9287 173.273 66.3213 173.514C66.7197 173.754 67.2822 173.874 68.0088 173.874ZM68.4131 166.298C69.0166 166.298 69.4648 166.134 69.7578 165.806C70.0508 165.472 70.1973 165.003 70.1973 164.399C70.1973 163.743 70.0449 163.251 69.7402 162.923C69.4414 162.595 68.9961 162.431 68.4043 162.431C67.8242 162.431 67.3818 162.598 67.0771 162.932C66.7783 163.266 66.6289 163.761 66.6289 164.417C66.6289 165.009 66.7783 165.472 67.0771 165.806C67.3818 166.134 67.8271 166.298 68.4131 166.298ZM83.6182 161.271V171H81.9922L81.7109 169.69H81.5967C81.3916 170.024 81.1309 170.303 80.8145 170.525C80.498 170.742 80.1465 170.903 79.7598 171.009C79.373 171.12 78.9658 171.176 78.5381 171.176C77.8057 171.176 77.1787 171.053 76.6572 170.807C76.1416 170.555 75.7461 170.168 75.4707 169.646C75.1953 169.125 75.0576 168.451 75.0576 167.625V161.271H77.1318V167.238C77.1318 167.994 77.2842 168.56 77.5889 168.935C77.8994 169.31 78.3799 169.497 79.0303 169.497C79.6572 169.497 80.1553 169.368 80.5244 169.11C80.8936 168.853 81.1543 168.472 81.3066 167.968C81.4648 167.464 81.5439 166.846 81.5439 166.113V161.271H83.6182ZM90.3945 161.086C91.625 161.086 92.5537 161.358 93.1807 161.903C93.8135 162.448 94.1299 163.298 94.1299 164.452V171H92.6621L92.2666 169.62H92.1963C91.9209 169.972 91.6367 170.262 91.3438 170.49C91.0508 170.719 90.7109 170.889 90.3242 171C89.9434 171.117 89.4775 171.176 88.9268 171.176C88.3467 171.176 87.8281 171.07 87.3711 170.859C86.9141 170.643 86.5537 170.314 86.29 169.875C86.0264 169.436 85.8945 168.879 85.8945 168.205C85.8945 167.203 86.2666 166.45 87.0107 165.946C87.7607 165.442 88.8916 165.164 90.4033 165.111L92.0908 165.05V164.54C92.0908 163.866 91.9326 163.386 91.6162 163.099C91.3057 162.812 90.8662 162.668 90.2979 162.668C89.8115 162.668 89.3398 162.738 88.8828 162.879C88.4258 163.02 87.9805 163.192 87.5469 163.397L86.8789 161.938C87.3535 161.687 87.8926 161.481 88.4961 161.323C89.1055 161.165 89.7383 161.086 90.3945 161.086ZM92.082 166.351L90.8252 166.395C89.7939 166.43 89.0703 166.605 88.6543 166.922C88.2383 167.238 88.0303 167.672 88.0303 168.223C88.0303 168.703 88.1738 169.055 88.4609 169.277C88.748 169.494 89.126 169.603 89.5947 169.603C90.3096 169.603 90.9014 169.4 91.3701 168.996C91.8447 168.586 92.082 167.985 92.082 167.194V166.351ZM99.7988 175.324C98.4805 175.324 97.4697 175.087 96.7666 174.612C96.0635 174.138 95.7119 173.473 95.7119 172.617C95.7119 172.02 95.8994 171.513 96.2744 171.097C96.6494 170.687 97.1855 170.402 97.8828 170.244C97.6191 170.127 97.3906 169.945 97.1973 169.699C97.0098 169.447 96.916 169.169 96.916 168.864C96.916 168.501 97.0186 168.19 97.2236 167.933C97.4287 167.675 97.7363 167.426 98.1465 167.186C97.6367 166.969 97.2266 166.617 96.916 166.131C96.6113 165.639 96.459 165.062 96.459 164.399C96.459 163.696 96.6084 163.099 96.9072 162.606C97.2061 162.108 97.6426 161.73 98.2168 161.473C98.791 161.209 99.4854 161.077 100.3 161.077C100.476 161.077 100.666 161.089 100.871 161.112C101.082 161.13 101.275 161.153 101.451 161.183C101.633 161.206 101.771 161.232 101.864 161.262H105.23V162.413L103.578 162.721C103.736 162.943 103.862 163.198 103.956 163.485C104.05 163.767 104.097 164.074 104.097 164.408C104.097 165.416 103.748 166.21 103.051 166.79C102.359 167.364 101.404 167.651 100.186 167.651C99.8926 167.64 99.6084 167.616 99.333 167.581C99.1221 167.71 98.9609 167.854 98.8496 168.012C98.7383 168.164 98.6826 168.337 98.6826 168.53C98.6826 168.688 98.7383 168.817 98.8496 168.917C98.9609 169.011 99.125 169.081 99.3418 169.128C99.5645 169.175 99.834 169.198 100.15 169.198H101.829C102.896 169.198 103.71 169.424 104.272 169.875C104.835 170.326 105.116 170.988 105.116 171.861C105.116 172.969 104.659 173.821 103.745 174.419C102.831 175.022 101.516 175.324 99.7988 175.324ZM99.8779 173.874C100.599 173.874 101.205 173.804 101.697 173.663C102.189 173.522 102.562 173.32 102.813 173.057C103.065 172.799 103.191 172.491 103.191 172.134C103.191 171.817 103.112 171.574 102.954 171.404C102.796 171.234 102.559 171.117 102.242 171.053C101.926 170.988 101.533 170.956 101.064 170.956H99.5352C99.1543 170.956 98.8174 171.015 98.5244 171.132C98.2314 171.255 98.0029 171.431 97.8389 171.659C97.6807 171.888 97.6016 172.163 97.6016 172.485C97.6016 172.931 97.7979 173.273 98.1904 173.514C98.5889 173.754 99.1514 173.874 99.8779 173.874ZM100.282 166.298C100.886 166.298 101.334 166.134 101.627 165.806C101.92 165.472 102.066 165.003 102.066 164.399C102.066 163.743 101.914 163.251 101.609 162.923C101.311 162.595 100.865 162.431 100.273 162.431C99.6934 162.431 99.251 162.598 98.9463 162.932C98.6475 163.266 98.498 163.761 98.498 164.417C98.498 165.009 98.6475 165.472 98.9463 165.806C99.251 166.134 99.6963 166.298 100.282 166.298ZM110.882 161.086C111.749 161.086 112.493 161.265 113.114 161.622C113.735 161.979 114.213 162.486 114.547 163.143C114.881 163.799 115.048 164.584 115.048 165.498V166.605H108.553C108.576 167.549 108.828 168.275 109.309 168.785C109.795 169.295 110.475 169.55 111.348 169.55C111.969 169.55 112.525 169.491 113.018 169.374C113.516 169.251 114.028 169.072 114.556 168.838V170.517C114.069 170.745 113.574 170.912 113.07 171.018C112.566 171.123 111.963 171.176 111.26 171.176C110.305 171.176 109.464 170.991 108.737 170.622C108.017 170.247 107.451 169.69 107.041 168.952C106.637 168.214 106.435 167.297 106.435 166.201C106.435 165.111 106.619 164.186 106.988 163.424C107.357 162.662 107.876 162.082 108.544 161.684C109.212 161.285 109.991 161.086 110.882 161.086ZM110.882 162.642C110.231 162.642 109.704 162.853 109.3 163.274C108.901 163.696 108.667 164.314 108.597 165.129H113.026C113.021 164.643 112.938 164.212 112.78 163.837C112.628 163.462 112.394 163.169 112.077 162.958C111.767 162.747 111.368 162.642 110.882 162.642Z" fill="#31344E"/>
<rect x="32" y="184" width="203" height="48" rx="5" fill="#F6F6F6"/>
<path d="M57.9219 214H51.5625V202.578H57.9219V203.75H52.8906V207.445H57.6328V208.602H52.8906V212.828H57.9219V214ZM64.3125 205.281C65.3281 205.281 66.0964 205.531 66.6172 206.031C67.138 206.526 67.3984 207.323 67.3984 208.422V214H66.1172V208.508C66.1172 207.794 65.9531 207.26 65.625 206.906C65.3021 206.552 64.8047 206.375 64.1328 206.375C63.1849 206.375 62.5182 206.643 62.1328 207.18C61.7474 207.716 61.5547 208.495 61.5547 209.516V214H60.2578V205.438H61.3047L61.5 206.672H61.5703C61.7526 206.37 61.9844 206.117 62.2656 205.914C62.5469 205.706 62.862 205.549 63.2109 205.445C63.5599 205.336 63.9271 205.281 64.3125 205.281ZM72.4609 217.844C71.3359 217.844 70.4688 217.633 69.8594 217.211C69.25 216.794 68.9453 216.208 68.9453 215.453C68.9453 214.917 69.1146 214.458 69.4531 214.078C69.7969 213.698 70.2708 213.445 70.875 213.32C70.651 213.216 70.4583 213.06 70.2969 212.852C70.1406 212.643 70.0625 212.404 70.0625 212.133C70.0625 211.82 70.1484 211.547 70.3203 211.312C70.4974 211.073 70.7656 210.844 71.125 210.625C70.6771 210.443 70.3125 210.135 70.0312 209.703C69.7552 209.266 69.6172 208.758 69.6172 208.18C69.6172 207.565 69.7448 207.042 70 206.609C70.2552 206.172 70.625 205.839 71.1094 205.609C71.5938 205.38 72.1797 205.266 72.8672 205.266C73.0182 205.266 73.1693 205.273 73.3203 205.289C73.4766 205.299 73.625 205.318 73.7656 205.344C73.9062 205.365 74.0286 205.391 74.1328 205.422H77.0703V206.258L75.4922 206.453C75.6484 206.656 75.7786 206.901 75.8828 207.188C75.987 207.474 76.0391 207.792 76.0391 208.141C76.0391 208.995 75.75 209.674 75.1719 210.18C74.5938 210.68 73.7995 210.93 72.7891 210.93C72.5495 210.93 72.3047 210.909 72.0547 210.867C71.7995 211.008 71.6042 211.164 71.4688 211.336C71.3385 211.508 71.2734 211.706 71.2734 211.93C71.2734 212.096 71.3229 212.229 71.4219 212.328C71.526 212.427 71.6745 212.5 71.8672 212.547C72.0599 212.589 72.2917 212.609 72.5625 212.609H74.0703C75.0026 212.609 75.7161 212.805 76.2109 213.195C76.7109 213.586 76.9609 214.156 76.9609 214.906C76.9609 215.854 76.5755 216.581 75.8047 217.086C75.0339 217.591 73.9193 217.844 72.4609 217.844ZM72.5 216.828C73.2083 216.828 73.7943 216.755 74.2578 216.609C74.7266 216.469 75.0755 216.263 75.3047 215.992C75.5391 215.727 75.6562 215.409 75.6562 215.039C75.6562 214.695 75.5781 214.435 75.4219 214.258C75.2656 214.086 75.0365 213.971 74.7344 213.914C74.4323 213.852 74.0625 213.82 73.625 213.82H72.1406C71.7552 213.82 71.4193 213.88 71.1328 214C70.8464 214.12 70.625 214.297 70.4688 214.531C70.3177 214.766 70.2422 215.057 70.2422 215.406C70.2422 215.87 70.4375 216.221 70.8281 216.461C71.2188 216.706 71.776 216.828 72.5 216.828ZM72.8359 209.984C73.4557 209.984 73.9219 209.828 74.2344 209.516C74.5469 209.203 74.7031 208.747 74.7031 208.148C74.7031 207.508 74.5443 207.029 74.2266 206.711C73.9089 206.388 73.4401 206.227 72.8203 206.227C72.2266 206.227 71.7682 206.393 71.4453 206.727C71.1276 207.055 70.9688 207.536 70.9688 208.172C70.9688 208.755 71.1302 209.203 71.4531 209.516C71.776 209.828 72.237 209.984 72.8359 209.984ZM80.0625 214H78.7578V201.844H80.0625V214ZM84.1016 205.438V214H82.8047V205.438H84.1016ZM83.4688 202.234C83.6823 202.234 83.8646 202.305 84.0156 202.445C84.1719 202.581 84.25 202.794 84.25 203.086C84.25 203.372 84.1719 203.586 84.0156 203.727C83.8646 203.867 83.6823 203.938 83.4688 203.938C83.2448 203.938 83.0573 203.867 82.9062 203.727C82.7604 203.586 82.6875 203.372 82.6875 203.086C82.6875 202.794 82.7604 202.581 82.9062 202.445C83.0573 202.305 83.2448 202.234 83.4688 202.234ZM92.3906 211.656C92.3906 212.203 92.2526 212.664 91.9766 213.039C91.7057 213.409 91.3151 213.688 90.8047 213.875C90.2995 214.062 89.6953 214.156 88.9922 214.156C88.3932 214.156 87.875 214.109 87.4375 214.016C87 213.922 86.6172 213.789 86.2891 213.617V212.422C86.638 212.594 87.0547 212.75 87.5391 212.891C88.0234 213.031 88.5182 213.102 89.0234 213.102C89.763 213.102 90.2995 212.982 90.6328 212.742C90.9661 212.503 91.1328 212.177 91.1328 211.766C91.1328 211.531 91.0651 211.326 90.9297 211.148C90.7995 210.966 90.5781 210.792 90.2656 210.625C89.9531 210.453 89.5208 210.266 88.9688 210.062C88.4219 209.854 87.9479 209.648 87.5469 209.445C87.151 209.237 86.8438 208.984 86.625 208.688C86.4115 208.391 86.3047 208.005 86.3047 207.531C86.3047 206.807 86.5964 206.253 87.1797 205.867C87.7682 205.477 88.5391 205.281 89.4922 205.281C90.0078 205.281 90.4896 205.333 90.9375 205.438C91.3906 205.536 91.8125 205.672 92.2031 205.844L91.7656 206.883C91.4115 206.732 91.0339 206.604 90.6328 206.5C90.2318 206.396 89.8229 206.344 89.4062 206.344C88.8073 206.344 88.3464 206.443 88.0234 206.641C87.7057 206.839 87.5469 207.109 87.5469 207.453C87.5469 207.719 87.6198 207.938 87.7656 208.109C87.9167 208.281 88.1562 208.443 88.4844 208.594C88.8125 208.745 89.2448 208.922 89.7812 209.125C90.3177 209.323 90.7812 209.529 91.1719 209.742C91.5625 209.951 91.862 210.206 92.0703 210.508C92.2839 210.805 92.3906 211.188 92.3906 211.656ZM95.7734 201.844V205.477C95.7734 205.685 95.7682 205.896 95.7578 206.109C95.7474 206.318 95.7292 206.51 95.7031 206.688H95.7891C95.9661 206.385 96.1901 206.133 96.4609 205.93C96.737 205.721 97.0495 205.565 97.3984 205.461C97.7474 205.352 98.1172 205.297 98.5078 205.297C99.1953 205.297 99.7682 205.406 100.227 205.625C100.69 205.844 101.036 206.182 101.266 206.641C101.5 207.099 101.617 207.693 101.617 208.422V214H100.336V208.508C100.336 207.794 100.172 207.26 99.8438 206.906C99.5208 206.552 99.0234 206.375 98.3516 206.375C97.7161 206.375 97.2083 206.497 96.8281 206.742C96.4531 206.982 96.1823 207.336 96.0156 207.805C95.8542 208.273 95.7734 208.846 95.7734 209.523V214H94.4766V201.844H95.7734Z" fill="#31344E"/>
<g filter="url(#filter3_d_3927_32501)">
<rect x="245" y="184" width="203" height="48" rx="5" fill="white" shape-rendering="crispEdges"/>
<rect x="246.5" y="185.5" width="200" height="45" rx="3.5" stroke="#1A1040" stroke-width="3" shape-rendering="crispEdges"/>
<path d="M274.526 203.733C274.005 203.733 273.542 203.836 273.138 204.041C272.739 204.24 272.402 204.53 272.127 204.911C271.857 205.292 271.652 205.752 271.512 206.291C271.371 206.83 271.301 207.437 271.301 208.11C271.301 209.019 271.412 209.795 271.635 210.439C271.863 211.078 272.215 211.567 272.689 211.907C273.164 212.241 273.776 212.408 274.526 212.408C275.048 212.408 275.569 212.35 276.091 212.232C276.618 212.115 277.189 211.948 277.805 211.731V214.017C277.236 214.251 276.677 214.418 276.126 214.518C275.575 214.623 274.957 214.676 274.271 214.676C272.947 214.676 271.857 214.403 271.002 213.858C270.152 213.308 269.522 212.54 269.112 211.556C268.702 210.565 268.497 209.411 268.497 208.093C268.497 207.12 268.629 206.229 268.893 205.421C269.156 204.612 269.543 203.912 270.053 203.32C270.562 202.729 271.192 202.271 271.942 201.949C272.692 201.627 273.554 201.466 274.526 201.466C275.165 201.466 275.804 201.548 276.442 201.712C277.087 201.87 277.702 202.09 278.288 202.371L277.409 204.586C276.929 204.357 276.445 204.158 275.959 203.988C275.473 203.818 274.995 203.733 274.526 203.733ZM283.017 200.824V203.61C283.017 204.097 282.999 204.56 282.964 204.999C282.935 205.438 282.911 205.749 282.894 205.931H283.034C283.245 205.591 283.494 205.315 283.781 205.104C284.074 204.894 284.396 204.738 284.748 204.639C285.1 204.539 285.478 204.489 285.882 204.489C286.591 204.489 287.209 204.615 287.736 204.867C288.264 205.113 288.674 205.503 288.967 206.036C289.26 206.563 289.406 207.249 289.406 208.093V214.5H286.726V208.761C286.726 208.058 286.597 207.527 286.339 207.17C286.081 206.812 285.683 206.634 285.144 206.634C284.604 206.634 284.18 206.76 283.869 207.012C283.559 207.258 283.339 207.624 283.21 208.11C283.081 208.591 283.017 209.18 283.017 209.877V214.5H280.336V200.824H283.017ZM296.191 204.472C297.51 204.472 298.521 204.759 299.224 205.333C299.927 205.907 300.278 206.78 300.278 207.952V214.5H298.406L297.888 213.164H297.817C297.536 213.516 297.249 213.803 296.956 214.025C296.663 214.248 296.326 214.412 295.945 214.518C295.564 214.623 295.102 214.676 294.557 214.676C293.977 214.676 293.455 214.564 292.992 214.342C292.535 214.119 292.175 213.779 291.911 213.322C291.647 212.859 291.516 212.273 291.516 211.564C291.516 210.521 291.882 209.754 292.614 209.262C293.347 208.764 294.445 208.488 295.91 208.436L297.615 208.383V207.952C297.615 207.437 297.48 207.059 297.211 206.818C296.941 206.578 296.566 206.458 296.086 206.458C295.611 206.458 295.146 206.525 294.688 206.66C294.231 206.795 293.774 206.965 293.317 207.17L292.43 205.359C292.951 205.084 293.534 204.867 294.179 204.709C294.829 204.551 295.5 204.472 296.191 204.472ZM297.615 209.947L296.578 209.982C295.711 210.006 295.107 210.161 294.768 210.448C294.434 210.735 294.267 211.113 294.267 211.582C294.267 211.992 294.387 212.285 294.627 212.461C294.867 212.631 295.181 212.716 295.567 212.716C296.142 212.716 296.625 212.546 297.018 212.206C297.416 211.866 297.615 211.383 297.615 210.756V209.947ZM308.628 204.489C309.677 204.489 310.521 204.776 311.159 205.351C311.798 205.919 312.117 206.833 312.117 208.093V214.5H309.437V208.761C309.437 208.058 309.308 207.527 309.05 207.17C308.798 206.812 308.399 206.634 307.854 206.634C307.034 206.634 306.475 206.912 306.176 207.469C305.877 208.025 305.728 208.828 305.728 209.877V214.5H303.047V204.674H305.095L305.455 205.931H305.604C305.815 205.591 306.076 205.315 306.387 205.104C306.703 204.894 307.052 204.738 307.433 204.639C307.819 204.539 308.218 204.489 308.628 204.489ZM317.751 218.824C316.38 218.824 315.331 218.584 314.604 218.104C313.884 217.629 313.523 216.961 313.523 216.1C313.523 215.508 313.708 215.013 314.077 214.614C314.446 214.216 314.988 213.932 315.703 213.762C315.428 213.645 315.188 213.454 314.982 213.19C314.777 212.921 314.675 212.637 314.675 212.338C314.675 211.963 314.783 211.652 315 211.406C315.217 211.154 315.53 210.908 315.94 210.668C315.425 210.445 315.015 210.088 314.71 209.596C314.411 209.104 314.262 208.523 314.262 207.855C314.262 207.141 314.417 206.534 314.728 206.036C315.044 205.532 315.501 205.148 316.099 204.885C316.702 204.621 317.435 204.489 318.296 204.489C318.478 204.489 318.688 204.501 318.929 204.524C319.169 204.548 319.389 204.574 319.588 204.604C319.793 204.633 319.931 204.656 320.001 204.674H323.429V206.036L321.891 206.432C322.031 206.648 322.137 206.88 322.207 207.126C322.277 207.372 322.312 207.633 322.312 207.908C322.312 208.963 321.943 209.786 321.205 210.378C320.473 210.964 319.453 211.257 318.146 211.257C317.836 211.239 317.543 211.216 317.268 211.187C317.133 211.292 317.03 211.403 316.96 211.521C316.89 211.638 316.854 211.761 316.854 211.89C316.854 212.019 316.907 212.127 317.013 212.215C317.124 212.297 317.288 212.361 317.505 212.408C317.728 212.449 318.003 212.47 318.331 212.47H320.001C321.079 212.47 321.899 212.701 322.462 213.164C323.03 213.627 323.314 214.307 323.314 215.203C323.314 216.352 322.834 217.242 321.873 217.875C320.918 218.508 319.544 218.824 317.751 218.824ZM317.865 217.075C318.504 217.075 319.052 217.014 319.509 216.891C319.972 216.773 320.326 216.604 320.572 216.381C320.818 216.164 320.941 215.903 320.941 215.599C320.941 215.353 320.868 215.156 320.722 215.01C320.581 214.869 320.364 214.77 320.071 214.711C319.784 214.652 319.415 214.623 318.964 214.623H317.575C317.247 214.623 316.951 214.676 316.688 214.781C316.43 214.887 316.225 215.033 316.072 215.221C315.92 215.414 315.844 215.637 315.844 215.889C315.844 216.258 316.02 216.548 316.371 216.759C316.729 216.97 317.227 217.075 317.865 217.075ZM318.296 209.622C318.8 209.622 319.169 209.467 319.403 209.156C319.638 208.846 319.755 208.424 319.755 207.891C319.755 207.299 319.632 206.856 319.386 206.563C319.146 206.265 318.782 206.115 318.296 206.115C317.804 206.115 317.435 206.265 317.188 206.563C316.942 206.856 316.819 207.299 316.819 207.891C316.819 208.424 316.939 208.846 317.18 209.156C317.426 209.467 317.798 209.622 318.296 209.622ZM329.106 204.489C330.015 204.489 330.797 204.665 331.453 205.017C332.109 205.362 332.616 205.866 332.974 206.528C333.331 207.19 333.51 207.999 333.51 208.954V210.255H327.173C327.202 211.011 327.428 211.605 327.85 212.039C328.277 212.467 328.869 212.681 329.625 212.681C330.252 212.681 330.826 212.616 331.348 212.487C331.869 212.358 332.405 212.165 332.956 211.907V213.981C332.47 214.222 331.96 214.397 331.427 214.509C330.899 214.62 330.258 214.676 329.502 214.676C328.518 214.676 327.645 214.494 326.883 214.131C326.127 213.768 325.532 213.214 325.099 212.47C324.671 211.726 324.457 210.788 324.457 209.657C324.457 208.509 324.65 207.554 325.037 206.792C325.43 206.024 325.975 205.45 326.672 205.069C327.369 204.683 328.181 204.489 329.106 204.489ZM329.124 206.396C328.603 206.396 328.169 206.563 327.823 206.897C327.483 207.231 327.287 207.756 327.234 208.471H330.996C330.99 208.072 330.917 207.718 330.776 207.407C330.642 207.097 330.437 206.851 330.161 206.669C329.892 206.487 329.546 206.396 329.124 206.396ZM340.576 214.5V201.65H343.301V212.25H348.513V214.5H340.576ZM354.568 204.472C355.887 204.472 356.897 204.759 357.601 205.333C358.304 205.907 358.655 206.78 358.655 207.952V214.5H356.783L356.265 213.164H356.194C355.913 213.516 355.626 213.803 355.333 214.025C355.04 214.248 354.703 214.412 354.322 214.518C353.941 214.623 353.479 214.676 352.934 214.676C352.354 214.676 351.832 214.564 351.369 214.342C350.912 214.119 350.552 213.779 350.288 213.322C350.024 212.859 349.893 212.273 349.893 211.564C349.893 210.521 350.259 209.754 350.991 209.262C351.724 208.764 352.822 208.488 354.287 208.436L355.992 208.383V207.952C355.992 207.437 355.857 207.059 355.588 206.818C355.318 206.578 354.943 206.458 354.463 206.458C353.988 206.458 353.522 206.525 353.065 206.66C352.608 206.795 352.151 206.965 351.694 207.17L350.807 205.359C351.328 205.084 351.911 204.867 352.556 204.709C353.206 204.551 353.877 204.472 354.568 204.472ZM355.992 209.947L354.955 209.982C354.088 210.006 353.484 210.161 353.145 210.448C352.811 210.735 352.644 211.113 352.644 211.582C352.644 211.992 352.764 212.285 353.004 212.461C353.244 212.631 353.558 212.716 353.944 212.716C354.519 212.716 355.002 212.546 355.395 212.206C355.793 211.866 355.992 211.383 355.992 210.756V209.947ZM367.005 204.489C368.054 204.489 368.897 204.776 369.536 205.351C370.175 205.919 370.494 206.833 370.494 208.093V214.5H367.813V208.761C367.813 208.058 367.685 207.527 367.427 207.17C367.175 206.812 366.776 206.634 366.231 206.634C365.411 206.634 364.852 206.912 364.553 207.469C364.254 208.025 364.104 208.828 364.104 209.877V214.5H361.424V204.674H363.472L363.832 205.931H363.981C364.192 205.591 364.453 205.315 364.764 205.104C365.08 204.894 365.429 204.738 365.81 204.639C366.196 204.539 366.595 204.489 367.005 204.489ZM376.128 218.824C374.757 218.824 373.708 218.584 372.981 218.104C372.261 217.629 371.9 216.961 371.9 216.1C371.9 215.508 372.085 215.013 372.454 214.614C372.823 214.216 373.365 213.932 374.08 213.762C373.805 213.645 373.564 213.454 373.359 213.19C373.154 212.921 373.052 212.637 373.052 212.338C373.052 211.963 373.16 211.652 373.377 211.406C373.594 211.154 373.907 210.908 374.317 210.668C373.802 210.445 373.392 210.088 373.087 209.596C372.788 209.104 372.639 208.523 372.639 207.855C372.639 207.141 372.794 206.534 373.104 206.036C373.421 205.532 373.878 205.148 374.476 204.885C375.079 204.621 375.812 204.489 376.673 204.489C376.854 204.489 377.065 204.501 377.306 204.524C377.546 204.548 377.766 204.574 377.965 204.604C378.17 204.633 378.308 204.656 378.378 204.674H381.806V206.036L380.268 206.432C380.408 206.648 380.514 206.88 380.584 207.126C380.654 207.372 380.689 207.633 380.689 207.908C380.689 208.963 380.32 209.786 379.582 210.378C378.85 210.964 377.83 211.257 376.523 211.257C376.213 211.239 375.92 211.216 375.645 211.187C375.51 211.292 375.407 211.403 375.337 211.521C375.267 211.638 375.231 211.761 375.231 211.89C375.231 212.019 375.284 212.127 375.39 212.215C375.501 212.297 375.665 212.361 375.882 212.408C376.104 212.449 376.38 212.47 376.708 212.47H378.378C379.456 212.47 380.276 212.701 380.839 213.164C381.407 213.627 381.691 214.307 381.691 215.203C381.691 216.352 381.211 217.242 380.25 217.875C379.295 218.508 377.921 218.824 376.128 218.824ZM376.242 217.075C376.881 217.075 377.429 217.014 377.886 216.891C378.349 216.773 378.703 216.604 378.949 216.381C379.195 216.164 379.318 215.903 379.318 215.599C379.318 215.353 379.245 215.156 379.099 215.01C378.958 214.869 378.741 214.77 378.448 214.711C378.161 214.652 377.792 214.623 377.341 214.623H375.952C375.624 214.623 375.328 214.676 375.064 214.781C374.807 214.887 374.602 215.033 374.449 215.221C374.297 215.414 374.221 215.637 374.221 215.889C374.221 216.258 374.396 216.548 374.748 216.759C375.105 216.97 375.604 217.075 376.242 217.075ZM376.673 209.622C377.177 209.622 377.546 209.467 377.78 209.156C378.015 208.846 378.132 208.424 378.132 207.891C378.132 207.299 378.009 206.856 377.763 206.563C377.522 206.265 377.159 206.115 376.673 206.115C376.181 206.115 375.812 206.265 375.565 206.563C375.319 206.856 375.196 207.299 375.196 207.891C375.196 208.424 375.316 208.846 375.557 209.156C375.803 209.467 376.175 209.622 376.673 209.622ZM392.449 204.674V214.5H390.393L390.032 213.243H389.892C389.681 213.577 389.417 213.85 389.101 214.061C388.784 214.271 388.436 214.427 388.055 214.526C387.674 214.626 387.278 214.676 386.868 214.676C386.165 214.676 385.553 214.553 385.031 214.307C384.51 214.055 384.103 213.665 383.81 213.138C383.522 212.61 383.379 211.925 383.379 211.081V204.674H386.06V210.413C386.06 211.116 386.186 211.646 386.438 212.004C386.689 212.361 387.091 212.54 387.642 212.54C388.187 212.54 388.614 212.417 388.925 212.171C389.235 211.919 389.452 211.553 389.575 211.072C389.704 210.586 389.769 209.994 389.769 209.297V204.674H392.449ZM399.287 204.472C400.605 204.472 401.616 204.759 402.319 205.333C403.022 205.907 403.374 206.78 403.374 207.952V214.5H401.502L400.983 213.164H400.913C400.632 213.516 400.345 213.803 400.052 214.025C399.759 214.248 399.422 214.412 399.041 214.518C398.66 214.623 398.197 214.676 397.652 214.676C397.072 214.676 396.551 214.564 396.088 214.342C395.631 214.119 395.271 213.779 395.007 213.322C394.743 212.859 394.611 212.273 394.611 211.564C394.611 210.521 394.978 209.754 395.71 209.262C396.442 208.764 397.541 208.488 399.006 208.436L400.711 208.383V207.952C400.711 207.437 400.576 207.059 400.307 206.818C400.037 206.578 399.662 206.458 399.182 206.458C398.707 206.458 398.241 206.525 397.784 206.66C397.327 206.795 396.87 206.965 396.413 207.17L395.525 205.359C396.047 205.084 396.63 204.867 397.274 204.709C397.925 204.551 398.596 204.472 399.287 204.472ZM400.711 209.947L399.674 209.982C398.807 210.006 398.203 210.161 397.863 210.448C397.529 210.735 397.362 211.113 397.362 211.582C397.362 211.992 397.482 212.285 397.723 212.461C397.963 212.631 398.276 212.716 398.663 212.716C399.237 212.716 399.721 212.546 400.113 212.206C400.512 211.866 400.711 211.383 400.711 210.756V209.947ZM409.017 218.824C407.646 218.824 406.597 218.584 405.87 218.104C405.149 217.629 404.789 216.961 404.789 216.1C404.789 215.508 404.974 215.013 405.343 214.614C405.712 214.216 406.254 213.932 406.969 213.762C406.693 213.645 406.453 213.454 406.248 213.19C406.043 212.921 405.94 212.637 405.94 212.338C405.94 211.963 406.049 211.652 406.266 211.406C406.482 211.154 406.796 210.908 407.206 210.668C406.69 210.445 406.28 210.088 405.976 209.596C405.677 209.104 405.527 208.523 405.527 207.855C405.527 207.141 405.683 206.534 405.993 206.036C406.31 205.532 406.767 205.148 407.364 204.885C407.968 204.621 408.7 204.489 409.562 204.489C409.743 204.489 409.954 204.501 410.194 204.524C410.435 204.548 410.654 204.574 410.854 204.604C411.059 204.633 411.196 204.656 411.267 204.674H414.694V206.036L413.156 206.432C413.297 206.648 413.402 206.88 413.473 207.126C413.543 207.372 413.578 207.633 413.578 207.908C413.578 208.963 413.209 209.786 412.471 210.378C411.738 210.964 410.719 211.257 409.412 211.257C409.102 211.239 408.809 211.216 408.533 211.187C408.398 211.292 408.296 211.403 408.226 211.521C408.155 211.638 408.12 211.761 408.12 211.89C408.12 212.019 408.173 212.127 408.278 212.215C408.39 212.297 408.554 212.361 408.771 212.408C408.993 212.449 409.269 212.47 409.597 212.47H411.267C412.345 212.47 413.165 212.701 413.728 213.164C414.296 213.627 414.58 214.307 414.58 215.203C414.58 216.352 414.1 217.242 413.139 217.875C412.184 218.508 410.81 218.824 409.017 218.824ZM409.131 217.075C409.77 217.075 410.317 217.014 410.774 216.891C411.237 216.773 411.592 216.604 411.838 216.381C412.084 216.164 412.207 215.903 412.207 215.599C412.207 215.353 412.134 215.156 411.987 215.01C411.847 214.869 411.63 214.77 411.337 214.711C411.05 214.652 410.681 214.623 410.229 214.623H408.841C408.513 214.623 408.217 214.676 407.953 214.781C407.695 214.887 407.49 215.033 407.338 215.221C407.186 215.414 407.109 215.637 407.109 215.889C407.109 216.258 407.285 216.548 407.637 216.759C407.994 216.97 408.492 217.075 409.131 217.075ZM409.562 209.622C410.065 209.622 410.435 209.467 410.669 209.156C410.903 208.846 411.021 208.424 411.021 207.891C411.021 207.299 410.897 206.856 410.651 206.563C410.411 206.265 410.048 206.115 409.562 206.115C409.069 206.115 408.7 206.265 408.454 206.563C408.208 206.856 408.085 207.299 408.085 207.891C408.085 208.424 408.205 208.846 408.445 209.156C408.691 209.467 409.063 209.622 409.562 209.622ZM420.372 204.489C421.28 204.489 422.062 204.665 422.719 205.017C423.375 205.362 423.882 205.866 424.239 206.528C424.597 207.19 424.775 207.999 424.775 208.954V210.255H418.438C418.468 211.011 418.693 211.605 419.115 212.039C419.543 212.467 420.135 212.681 420.891 212.681C421.518 212.681 422.092 212.616 422.613 212.487C423.135 212.358 423.671 212.165 424.222 211.907V213.981C423.735 214.222 423.226 214.397 422.692 214.509C422.165 214.62 421.523 214.676 420.768 214.676C419.783 214.676 418.91 214.494 418.148 214.131C417.393 213.768 416.798 213.214 416.364 212.47C415.937 211.726 415.723 210.788 415.723 209.657C415.723 208.509 415.916 207.554 416.303 206.792C416.695 206.024 417.24 205.45 417.938 205.069C418.635 204.683 419.446 204.489 420.372 204.489ZM420.39 206.396C419.868 206.396 419.435 206.563 419.089 206.897C418.749 207.231 418.553 207.756 418.5 208.471H422.262C422.256 208.072 422.183 207.718 422.042 207.407C421.907 207.097 421.702 206.851 421.427 206.669C421.157 206.487 420.812 206.396 420.39 206.396Z" fill="#31344E"/>
</g>
</g>
<g filter="url(#filter4_d_3927_32501)">
<rect x="16" y="80" width="448" height="57" rx="10" fill="white" shape-rendering="crispEdges"/>
<rect x="16.5" y="80.5" width="447" height="56" rx="9.5" stroke="#D9D9D9" shape-rendering="crispEdges"/>
<path d="M33.6875 115V102.15H35.7969V115H33.6875ZM44.0498 105.086C45.1455 105.086 45.998 105.37 46.6074 105.938C47.2227 106.501 47.5303 107.406 47.5303 108.654V115H45.4648V109.041C45.4648 108.285 45.3096 107.72 44.999 107.345C44.6885 106.964 44.208 106.773 43.5576 106.773C42.6143 106.773 41.958 107.063 41.5889 107.644C41.2256 108.224 41.0439 109.064 41.0439 110.166V115H38.9785V105.271H40.5869L40.877 106.589H40.9912C41.2021 106.249 41.4629 105.971 41.7734 105.754C42.0898 105.531 42.4414 105.364 42.8281 105.253C43.2207 105.142 43.6279 105.086 44.0498 105.086ZM49.5781 111.045V109.296H54.1133V111.045H49.5781ZM60.0459 102.15C61.1533 102.15 62.0674 102.285 62.7881 102.555C63.5146 102.824 64.0537 103.234 64.4053 103.785C64.7627 104.336 64.9414 105.036 64.9414 105.886C64.9414 106.519 64.8242 107.058 64.5898 107.503C64.3555 107.948 64.0479 108.317 63.667 108.61C63.2861 108.903 62.8789 109.138 62.4453 109.313L66.0928 115H63.7109L60.6084 109.85H58.543V115H56.4336V102.15H60.0459ZM59.9053 103.908H58.543V108.109H60.002C60.9805 108.109 61.6895 107.928 62.1289 107.564C62.5742 107.201 62.7969 106.665 62.7969 105.956C62.7969 105.212 62.5596 104.685 62.085 104.374C61.6162 104.063 60.8896 103.908 59.9053 103.908ZM76.332 110.113C76.332 110.922 76.2266 111.64 76.0156 112.267C75.8047 112.894 75.4971 113.424 75.0928 113.857C74.6885 114.285 74.2021 114.613 73.6338 114.842C73.0654 115.064 72.4238 115.176 71.709 115.176C71.041 115.176 70.4287 115.064 69.8721 114.842C69.3154 114.613 68.832 114.285 68.4219 113.857C68.0176 113.424 67.7041 112.894 67.4814 112.267C67.2588 111.64 67.1475 110.922 67.1475 110.113C67.1475 109.041 67.332 108.133 67.7012 107.389C68.0762 106.639 68.6094 106.067 69.3008 105.675C69.9922 105.282 70.8154 105.086 71.7705 105.086C72.667 105.086 73.458 105.282 74.1436 105.675C74.8291 106.067 75.3652 106.639 75.752 107.389C76.1387 108.139 76.332 109.047 76.332 110.113ZM69.2744 110.113C69.2744 110.822 69.3594 111.429 69.5293 111.933C69.7051 112.437 69.9746 112.823 70.3379 113.093C70.7012 113.356 71.1699 113.488 71.7441 113.488C72.3184 113.488 72.7871 113.356 73.1504 113.093C73.5137 112.823 73.7803 112.437 73.9502 111.933C74.1201 111.429 74.2051 110.822 74.2051 110.113C74.2051 109.404 74.1201 108.804 73.9502 108.312C73.7803 107.813 73.5137 107.436 73.1504 107.178C72.7871 106.914 72.3154 106.782 71.7354 106.782C70.8799 106.782 70.2559 107.069 69.8633 107.644C69.4707 108.218 69.2744 109.041 69.2744 110.113ZM87.3184 110.113C87.3184 110.922 87.2129 111.64 87.002 112.267C86.791 112.894 86.4834 113.424 86.0791 113.857C85.6748 114.285 85.1885 114.613 84.6201 114.842C84.0518 115.064 83.4102 115.176 82.6953 115.176C82.0273 115.176 81.415 115.064 80.8584 114.842C80.3018 114.613 79.8184 114.285 79.4082 113.857C79.0039 113.424 78.6904 112.894 78.4678 112.267C78.2451 111.64 78.1338 110.922 78.1338 110.113C78.1338 109.041 78.3184 108.133 78.6875 107.389C79.0625 106.639 79.5957 106.067 80.2871 105.675C80.9785 105.282 81.8018 105.086 82.7568 105.086C83.6533 105.086 84.4443 105.282 85.1299 105.675C85.8154 106.067 86.3516 106.639 86.7383 107.389C87.125 108.139 87.3184 109.047 87.3184 110.113ZM80.2607 110.113C80.2607 110.822 80.3457 111.429 80.5156 111.933C80.6914 112.437 80.9609 112.823 81.3242 113.093C81.6875 113.356 82.1562 113.488 82.7305 113.488C83.3047 113.488 83.7734 113.356 84.1367 113.093C84.5 112.823 84.7666 112.437 84.9365 111.933C85.1064 111.429 85.1914 110.822 85.1914 110.113C85.1914 109.404 85.1064 108.804 84.9365 108.312C84.7666 107.813 84.5 107.436 84.1367 107.178C83.7734 106.914 83.3018 106.782 82.7217 106.782C81.8662 106.782 81.2422 107.069 80.8496 107.644C80.457 108.218 80.2607 109.041 80.2607 110.113ZM100.687 105.086C101.776 105.086 102.597 105.367 103.147 105.93C103.704 106.492 103.982 107.395 103.982 108.637V115H101.917V109.006C101.917 108.268 101.773 107.711 101.486 107.336C101.199 106.961 100.763 106.773 100.177 106.773C99.3564 106.773 98.7646 107.037 98.4014 107.564C98.0439 108.086 97.8652 108.845 97.8652 109.841V115H95.7998V109.006C95.7998 108.514 95.7354 108.104 95.6064 107.775C95.4834 107.441 95.293 107.192 95.0352 107.028C94.7773 106.858 94.4521 106.773 94.0596 106.773C93.4912 106.773 93.0371 106.902 92.6973 107.16C92.3633 107.418 92.123 107.799 91.9766 108.303C91.8301 108.801 91.7568 109.413 91.7568 110.14V115H89.6914V105.271H91.2998L91.5898 106.58H91.7041C91.9033 106.24 92.1494 105.962 92.4424 105.745C92.7412 105.522 93.0723 105.358 93.4355 105.253C93.7988 105.142 94.1768 105.086 94.5693 105.086C95.2959 105.086 95.9082 105.215 96.4062 105.473C96.9043 105.725 97.2764 106.111 97.5225 106.633H97.6807C97.9854 106.105 98.4102 105.716 98.9551 105.464C99.5 105.212 100.077 105.086 100.687 105.086ZM119.715 115L118.458 111.432H113.545L112.288 115H110.064L114.846 102.098H117.184L121.956 115H119.715ZM117.913 109.621L116.691 106.105C116.645 105.953 116.577 105.739 116.489 105.464C116.401 105.183 116.313 104.898 116.226 104.611C116.138 104.318 116.064 104.072 116.006 103.873C115.947 104.113 115.874 104.383 115.786 104.682C115.704 104.975 115.622 105.25 115.54 105.508C115.464 105.766 115.405 105.965 115.364 106.105L114.134 109.621H117.913ZM125.516 115H123.441V101.324H125.516V115ZM132.345 105.086C133.212 105.086 133.956 105.265 134.577 105.622C135.198 105.979 135.676 106.486 136.01 107.143C136.344 107.799 136.511 108.584 136.511 109.498V110.605H130.016C130.039 111.549 130.291 112.275 130.771 112.785C131.258 113.295 131.938 113.55 132.811 113.55C133.432 113.55 133.988 113.491 134.48 113.374C134.979 113.251 135.491 113.072 136.019 112.838V114.517C135.532 114.745 135.037 114.912 134.533 115.018C134.029 115.123 133.426 115.176 132.723 115.176C131.768 115.176 130.927 114.991 130.2 114.622C129.479 114.247 128.914 113.69 128.504 112.952C128.1 112.214 127.897 111.297 127.897 110.201C127.897 109.111 128.082 108.186 128.451 107.424C128.82 106.662 129.339 106.082 130.007 105.684C130.675 105.285 131.454 105.086 132.345 105.086ZM132.345 106.642C131.694 106.642 131.167 106.853 130.763 107.274C130.364 107.696 130.13 108.314 130.06 109.129H134.489C134.483 108.643 134.401 108.212 134.243 107.837C134.091 107.462 133.856 107.169 133.54 106.958C133.229 106.747 132.831 106.642 132.345 106.642ZM143.771 105.086C143.935 105.086 144.113 105.095 144.307 105.112C144.5 105.13 144.667 105.153 144.808 105.183L144.614 107.116C144.491 107.081 144.339 107.055 144.157 107.037C143.981 107.02 143.823 107.011 143.683 107.011C143.313 107.011 142.962 107.072 142.628 107.195C142.294 107.312 141.998 107.494 141.74 107.74C141.482 107.98 141.28 108.282 141.134 108.646C140.987 109.009 140.914 109.431 140.914 109.911V115H138.84V105.271H140.457L140.738 106.984H140.835C141.028 106.639 141.269 106.322 141.556 106.035C141.843 105.748 142.171 105.52 142.54 105.35C142.915 105.174 143.325 105.086 143.771 105.086ZM150.23 113.506C150.5 113.506 150.767 113.482 151.03 113.436C151.294 113.383 151.534 113.321 151.751 113.251V114.815C151.522 114.915 151.227 115 150.863 115.07C150.5 115.141 150.122 115.176 149.729 115.176C149.179 115.176 148.684 115.085 148.244 114.903C147.805 114.716 147.456 114.396 147.198 113.945C146.94 113.494 146.812 112.87 146.812 112.073V106.844H145.484V105.921L146.908 105.191L147.585 103.108H148.886V105.271H151.672V106.844H148.886V112.047C148.886 112.539 149.009 112.905 149.255 113.146C149.501 113.386 149.826 113.506 150.23 113.506ZM166.578 115L165.321 111.432H160.408L159.151 115H156.928L161.709 102.098H164.047L168.819 115H166.578ZM164.776 109.621L163.555 106.105C163.508 105.953 163.44 105.739 163.353 105.464C163.265 105.183 163.177 104.898 163.089 104.611C163.001 104.318 162.928 104.072 162.869 103.873C162.811 104.113 162.737 104.383 162.649 104.682C162.567 104.975 162.485 105.25 162.403 105.508C162.327 105.766 162.269 105.965 162.228 106.105L160.997 109.621H164.776ZM178.786 105.271V115H177.16L176.879 113.69H176.765C176.56 114.024 176.299 114.303 175.982 114.525C175.666 114.742 175.314 114.903 174.928 115.009C174.541 115.12 174.134 115.176 173.706 115.176C172.974 115.176 172.347 115.053 171.825 114.807C171.31 114.555 170.914 114.168 170.639 113.646C170.363 113.125 170.226 112.451 170.226 111.625V105.271H172.3V111.238C172.3 111.994 172.452 112.56 172.757 112.935C173.067 113.31 173.548 113.497 174.198 113.497C174.825 113.497 175.323 113.368 175.692 113.11C176.062 112.853 176.322 112.472 176.475 111.968C176.633 111.464 176.712 110.846 176.712 110.113V105.271H178.786ZM185.018 115.176C183.857 115.176 182.926 114.754 182.223 113.91C181.525 113.061 181.177 111.81 181.177 110.157C181.177 108.487 181.531 107.225 182.24 106.369C182.955 105.514 183.896 105.086 185.062 105.086C185.554 105.086 185.984 105.153 186.354 105.288C186.723 105.417 187.039 105.593 187.303 105.815C187.572 106.038 187.801 106.287 187.988 106.562H188.085C188.056 106.381 188.021 106.12 187.979 105.78C187.944 105.435 187.927 105.115 187.927 104.822V101.324H190.001V115H188.384L188.015 113.673H187.927C187.751 113.954 187.528 114.209 187.259 114.438C186.995 114.66 186.679 114.839 186.31 114.974C185.946 115.108 185.516 115.176 185.018 115.176ZM185.598 113.497C186.482 113.497 187.106 113.242 187.47 112.732C187.833 112.223 188.021 111.458 188.032 110.438V110.166C188.032 109.076 187.856 108.241 187.505 107.661C187.153 107.075 186.512 106.782 185.58 106.782C184.836 106.782 184.268 107.084 183.875 107.688C183.488 108.285 183.295 109.12 183.295 110.192C183.295 111.265 183.488 112.085 183.875 112.653C184.268 113.216 184.842 113.497 185.598 113.497ZM195.028 105.271V115H192.963V105.271H195.028ZM194.009 101.544C194.325 101.544 194.598 101.629 194.826 101.799C195.061 101.969 195.178 102.262 195.178 102.678C195.178 103.088 195.061 103.381 194.826 103.557C194.598 103.727 194.325 103.812 194.009 103.812C193.681 103.812 193.402 103.727 193.174 103.557C192.951 103.381 192.84 103.088 192.84 102.678C192.84 102.262 192.951 101.969 193.174 101.799C193.402 101.629 193.681 101.544 194.009 101.544ZM206.604 110.113C206.604 110.922 206.498 111.64 206.287 112.267C206.076 112.894 205.769 113.424 205.364 113.857C204.96 114.285 204.474 114.613 203.905 114.842C203.337 115.064 202.695 115.176 201.98 115.176C201.312 115.176 200.7 115.064 200.144 114.842C199.587 114.613 199.104 114.285 198.693 113.857C198.289 113.424 197.976 112.894 197.753 112.267C197.53 111.64 197.419 110.922 197.419 110.113C197.419 109.041 197.604 108.133 197.973 107.389C198.348 106.639 198.881 106.067 199.572 105.675C200.264 105.282 201.087 105.086 202.042 105.086C202.938 105.086 203.729 105.282 204.415 105.675C205.101 106.067 205.637 106.639 206.023 107.389C206.41 108.139 206.604 109.047 206.604 110.113ZM199.546 110.113C199.546 110.822 199.631 111.429 199.801 111.933C199.977 112.437 200.246 112.823 200.609 113.093C200.973 113.356 201.441 113.488 202.016 113.488C202.59 113.488 203.059 113.356 203.422 113.093C203.785 112.823 204.052 112.437 204.222 111.933C204.392 111.429 204.477 110.822 204.477 110.113C204.477 109.404 204.392 108.804 204.222 108.312C204.052 107.813 203.785 107.436 203.422 107.178C203.059 106.914 202.587 106.782 202.007 106.782C201.151 106.782 200.527 107.069 200.135 107.644C199.742 108.218 199.546 109.041 199.546 110.113Z" fill="#31344E"/>
<rect x="397" y="95" width="52" height="27" rx="13.5" fill="white" stroke="#D1D1D1" stroke-width="2"/>
<rect x="410.817" y="97.9316" width="24.648" height="21.2484" fill="#BBE4CB"/>
<ellipse cx="435.015" cy="108.5" rx="11.0163" ry="10.7919" fill="#218448"/>
<ellipse cx="410.988" cy="108.5" rx="11.0163" ry="10.7919" fill="#BBE4CB"/>
</g>
<defs>
<filter id="filter0_d_3927_32501" x="12" y="382" width="456" height="88" filterUnits="userSpaceOnUse" color-interpolation-filters="sRGB">
<feFlood flood-opacity="0" result="BackgroundImageFix"/>
<feColorMatrix in="SourceAlpha" type="matrix" values="0 0 0 0 0 0 0 0 0 0 0 0 0 0 0 0 0 0 127 0" result="hardAlpha"/>
<feOffset dy="2"/>
<feGaussianBlur stdDeviation="2"/>
<feComposite in2="hardAlpha" operator="out"/>
<feColorMatrix type="matrix" values="0 0 0 0 0 0 0 0 0 0 0 0 0 0 0 0 0 0 0.25 0"/>
<feBlend mode="normal" in2="BackgroundImageFix" result="effect1_dropShadow_3927_32501"/>
<feBlend mode="normal" in="SourceGraphic" in2="effect1_dropShadow_3927_32501" result="shape"/>
</filter>
<filter id="filter1_d_3927_32501" x="10" y="107" width="460" height="261" filterUnits="userSpaceOnUse" color-interpolation-filters="sRGB">
<feFlood flood-opacity="0" result="BackgroundImageFix"/>
<feColorMatrix in="SourceAlpha" type="matrix" values="0 0 0 0 0 0 0 0 0 0 0 0 0 0 0 0 0 0 127 0" result="hardAlpha"/>
<feOffset dy="3"/>
<feGaussianBlur stdDeviation="3"/>
<feComposite in2="hardAlpha" operator="out"/>
<feColorMatrix type="matrix" values="0 0 0 0 0 0 0 0 0 0 0 0 0 0 0 0 0 0 0.25 0"/>
<feBlend mode="normal" in2="BackgroundImageFix" result="effect1_dropShadow_3927_32501"/>
<feBlend mode="normal" in="SourceGraphic" in2="effect1_dropShadow_3927_32501" result="shape"/>
</filter>
<filter id="filter2_d_3927_32501" x="27" y="282" width="42" height="42" filterUnits="userSpaceOnUse" color-interpolation-filters="sRGB">
<feFlood flood-opacity="0" result="BackgroundImageFix"/>
<feColorMatrix in="SourceAlpha" type="matrix" values="0 0 0 0 0 0 0 0 0 0 0 0 0 0 0 0 0 0 127 0" result="hardAlpha"/>
<feOffset dy="2"/>
<feGaussianBlur stdDeviation="2"/>
<feComposite in2="hardAlpha" operator="out"/>
<feColorMatrix type="matrix" values="0 0 0 0 0 0 0 0 0 0 0 0 0 0 0 0 0 0 0.25 0"/>
<feBlend mode="normal" in2="BackgroundImageFix" result="effect1_dropShadow_3927_32501"/>
<feBlend mode="normal" in="SourceGraphic" in2="effect1_dropShadow_3927_32501" result="shape"/>
</filter>
<filter id="filter3_d_3927_32501" x="241" y="182" width="211" height="56" filterUnits="userSpaceOnUse" color-interpolation-filters="sRGB">
<feFlood flood-opacity="0" result="BackgroundImageFix"/>
<feColorMatrix in="SourceAlpha" type="matrix" values="0 0 0 0 0 0 0 0 0 0 0 0 0 0 0 0 0 0 127 0" result="hardAlpha"/>
<feOffset dy="2"/>
<feGaussianBlur stdDeviation="2"/>
<feComposite in2="hardAlpha" operator="out"/>
<feColorMatrix type="matrix" values="0 0 0 0 0 0 0 0 0 0 0 0 0 0 0 0 0 0 0.25 0"/>
<feBlend mode="normal" in2="BackgroundImageFix" result="effect1_dropShadow_3927_32501"/>
<feBlend mode="normal" in="SourceGraphic" in2="effect1_dropShadow_3927_32501" result="shape"/>
</filter>
<filter id="filter4_d_3927_32501" x="10" y="77" width="460" height="69" filterUnits="userSpaceOnUse" color-interpolation-filters="sRGB">
<feFlood flood-opacity="0" result="BackgroundImageFix"/>
<feColorMatrix in="SourceAlpha" type="matrix" values="0 0 0 0 0 0 0 0 0 0 0 0 0 0 0 0 0 0 127 0" result="hardAlpha"/>
<feOffset dy="3"/>
<feGaussianBlur stdDeviation="3"/>
<feComposite in2="hardAlpha" operator="out"/>
<feColorMatrix type="matrix" values="0 0 0 0 0 0 0 0 0 0 0 0 0 0 0 0 0 0 0.25 0"/>
<feBlend mode="normal" in2="BackgroundImageFix" result="effect1_dropShadow_3927_32501"/>
<feBlend mode="normal" in="SourceGraphic" in2="effect1_dropShadow_3927_32501" result="shape"/>
</filter>
</defs>
</svg>
