<svg width="480" height="480" viewBox="0 0 480 480" fill="none" xmlns="http://www.w3.org/2000/svg">
<rect width="480" height="480" fill="#F6F6F6"/>
<mask id="path-1-inside-1_6176_37157" fill="white">
<path d="M0 0H480V64H0V0Z"/>
</mask>
<path d="M0 0H480V64H0V0Z" fill="white"/>
<path d="M480 64V63H0V64V65H480V64Z" fill="#D1D1D1" mask="url(#path-1-inside-1_6176_37157)"/>
<path d="M209.363 36.0352C209.363 36.8815 209.158 37.6172 208.748 38.2422C208.338 38.8672 207.739 39.349 206.951 39.6875C206.17 40.026 205.219 40.1953 204.1 40.1953C203.605 40.1953 203.12 40.1628 202.645 40.0977C202.176 40.0326 201.723 39.9382 201.287 39.8145C200.857 39.6842 200.447 39.5247 200.057 39.3359V36.5234C200.734 36.8229 201.437 37.0931 202.166 37.334C202.895 37.5749 203.618 37.6953 204.334 37.6953C204.829 37.6953 205.226 37.6302 205.525 37.5C205.831 37.3698 206.053 37.1908 206.189 36.9629C206.326 36.735 206.395 36.4746 206.395 36.1816C206.395 35.8236 206.274 35.5176 206.033 35.2637C205.792 35.0098 205.46 34.7721 205.037 34.5508C204.62 34.3294 204.148 34.0918 203.621 33.8379C203.289 33.6816 202.928 33.4928 202.537 33.2715C202.146 33.0436 201.775 32.7669 201.424 32.4414C201.072 32.1159 200.783 31.722 200.555 31.2598C200.333 30.791 200.223 30.2311 200.223 29.5801C200.223 28.7272 200.418 27.998 200.809 27.3926C201.199 26.7871 201.756 26.3249 202.479 26.0059C203.208 25.6803 204.067 25.5176 205.057 25.5176C205.799 25.5176 206.505 25.6055 207.176 25.7812C207.853 25.9505 208.559 26.1979 209.295 26.5234L208.318 28.877C207.661 28.61 207.072 28.4049 206.551 28.2617C206.03 28.112 205.499 28.0371 204.959 28.0371C204.581 28.0371 204.259 28.099 203.992 28.2227C203.725 28.3398 203.523 28.5091 203.387 28.7305C203.25 28.9453 203.182 29.196 203.182 29.4824C203.182 29.821 203.279 30.1074 203.475 30.3418C203.676 30.5697 203.976 30.791 204.373 31.0059C204.777 31.2207 205.278 31.4714 205.877 31.7578C206.606 32.1029 207.228 32.4642 207.742 32.8418C208.263 33.2129 208.663 33.6523 208.943 34.1602C209.223 34.6615 209.363 35.2865 209.363 36.0352ZM216.219 28.877C217.228 28.877 218.097 29.0723 218.826 29.4629C219.555 29.847 220.118 30.4069 220.516 31.1426C220.913 31.8783 221.111 32.7767 221.111 33.8379V35.2832H214.07C214.103 36.123 214.354 36.7839 214.822 37.2656C215.298 37.7409 215.955 37.9785 216.795 37.9785C217.492 37.9785 218.13 37.9069 218.709 37.7637C219.288 37.6204 219.884 37.4056 220.496 37.1191V39.4238C219.956 39.6908 219.389 39.8861 218.797 40.0098C218.211 40.1335 217.498 40.1953 216.658 40.1953C215.564 40.1953 214.594 39.9935 213.748 39.5898C212.908 39.1862 212.247 38.571 211.766 37.7441C211.29 36.9173 211.053 35.8757 211.053 34.6191C211.053 33.3431 211.268 32.2819 211.697 31.4355C212.133 30.5827 212.739 29.9447 213.514 29.5215C214.288 29.0918 215.19 28.877 216.219 28.877ZM216.238 30.9961C215.659 30.9961 215.177 31.1816 214.793 31.5527C214.415 31.9238 214.197 32.5065 214.139 33.3008H218.318C218.312 32.8581 218.23 32.4642 218.074 32.1191C217.924 31.7741 217.697 31.5007 217.391 31.2988C217.091 31.097 216.707 30.9961 216.238 30.9961ZM228.133 37.8223C228.458 37.8223 228.774 37.7897 229.08 37.7246C229.393 37.6595 229.702 37.5781 230.008 37.4805V39.6973C229.689 39.8405 229.292 39.9577 228.816 40.0488C228.348 40.1465 227.833 40.1953 227.273 40.1953C226.622 40.1953 226.036 40.0911 225.516 39.8828C225.001 39.668 224.594 39.3001 224.295 38.7793C224.002 38.252 223.855 37.5195 223.855 36.582V31.3184H222.43V30.0586L224.07 29.0625L224.93 26.7578H226.834V29.082H229.891V31.3184H226.834V36.582C226.834 36.9987 226.951 37.3112 227.186 37.5195C227.426 37.7214 227.742 37.8223 228.133 37.8223ZM236.824 37.8223C237.15 37.8223 237.465 37.7897 237.771 37.7246C238.084 37.6595 238.393 37.5781 238.699 37.4805V39.6973C238.38 39.8405 237.983 39.9577 237.508 40.0488C237.039 40.1465 236.525 40.1953 235.965 40.1953C235.314 40.1953 234.728 40.0911 234.207 39.8828C233.693 39.668 233.286 39.3001 232.986 38.7793C232.693 38.252 232.547 37.5195 232.547 36.582V31.3184H231.121V30.0586L232.762 29.0625L233.621 26.7578H235.525V29.082H238.582V31.3184H235.525V36.582C235.525 36.9987 235.643 37.3112 235.877 37.5195C236.118 37.7214 236.434 37.8223 236.824 37.8223ZM243.895 29.082V40H240.916V29.082H243.895ZM242.41 24.8047C242.853 24.8047 243.234 24.9089 243.553 25.1172C243.872 25.319 244.031 25.6999 244.031 26.2598C244.031 26.8132 243.872 27.1973 243.553 27.4121C243.234 27.6204 242.853 27.7246 242.41 27.7246C241.961 27.7246 241.577 27.6204 241.258 27.4121C240.945 27.1973 240.789 26.8132 240.789 26.2598C240.789 25.6999 240.945 25.319 241.258 25.1172C241.577 24.9089 241.961 24.8047 242.41 24.8047ZM253.23 28.877C254.396 28.877 255.333 29.196 256.043 29.834C256.753 30.4655 257.107 31.4811 257.107 32.8809V40H254.129V33.623C254.129 32.8418 253.986 32.2526 253.699 31.8555C253.419 31.4583 252.977 31.2598 252.371 31.2598C251.46 31.2598 250.838 31.569 250.506 32.1875C250.174 32.806 250.008 33.6979 250.008 34.8633V40H247.029V29.082H249.305L249.705 30.4785H249.871C250.105 30.1009 250.395 29.7949 250.74 29.5605C251.092 29.3262 251.479 29.1536 251.902 29.043C252.332 28.9323 252.775 28.877 253.23 28.877ZM263.367 44.8047C261.844 44.8047 260.678 44.5378 259.871 44.0039C259.07 43.4766 258.67 42.7344 258.67 41.7773C258.67 41.1198 258.875 40.5697 259.285 40.127C259.695 39.6842 260.298 39.3685 261.092 39.1797C260.786 39.0495 260.519 38.8379 260.291 38.5449C260.063 38.2454 259.949 37.9297 259.949 37.5977C259.949 37.181 260.07 36.8359 260.311 36.5625C260.551 36.2826 260.9 36.0091 261.355 35.7422C260.783 35.4948 260.327 35.0977 259.988 34.5508C259.656 34.0039 259.49 33.3594 259.49 32.6172C259.49 31.8229 259.663 31.1491 260.008 30.5957C260.359 30.0358 260.867 29.6094 261.531 29.3164C262.202 29.0234 263.016 28.877 263.973 28.877C264.174 28.877 264.409 28.89 264.676 28.916C264.943 28.9421 265.187 28.9714 265.408 29.0039C265.636 29.0365 265.789 29.0625 265.867 29.082H269.676V30.5957L267.967 31.0352C268.123 31.276 268.24 31.5332 268.318 31.8066C268.396 32.0801 268.436 32.3698 268.436 32.6758C268.436 33.8477 268.025 34.7624 267.205 35.4199C266.391 36.071 265.258 36.3965 263.807 36.3965C263.462 36.377 263.136 36.3509 262.83 36.3184C262.68 36.4355 262.566 36.5592 262.488 36.6895C262.41 36.8197 262.371 36.9564 262.371 37.0996C262.371 37.2428 262.43 37.3633 262.547 37.4609C262.671 37.5521 262.853 37.6237 263.094 37.6758C263.341 37.7214 263.647 37.7441 264.012 37.7441H265.867C267.065 37.7441 267.977 38.0013 268.602 38.5156C269.233 39.0299 269.549 39.7852 269.549 40.7812C269.549 42.0573 269.015 43.0469 267.947 43.75C266.886 44.4531 265.359 44.8047 263.367 44.8047ZM263.494 42.8613C264.204 42.8613 264.812 42.793 265.32 42.6562C265.835 42.526 266.229 42.3372 266.502 42.0898C266.775 41.849 266.912 41.5592 266.912 41.2207C266.912 40.9473 266.831 40.7292 266.668 40.5664C266.512 40.4102 266.271 40.2995 265.945 40.2344C265.626 40.1693 265.216 40.1367 264.715 40.1367H263.172C262.807 40.1367 262.479 40.1953 262.186 40.3125C261.899 40.4297 261.671 40.5924 261.502 40.8008C261.333 41.0156 261.248 41.263 261.248 41.543C261.248 41.9531 261.443 42.2754 261.834 42.5098C262.231 42.7441 262.785 42.8613 263.494 42.8613ZM263.973 34.5801C264.533 34.5801 264.943 34.4076 265.203 34.0625C265.464 33.7174 265.594 33.2487 265.594 32.6562C265.594 31.9987 265.457 31.5072 265.184 31.1816C264.917 30.8496 264.513 30.6836 263.973 30.6836C263.426 30.6836 263.016 30.8496 262.742 31.1816C262.469 31.5072 262.332 31.9987 262.332 32.6562C262.332 33.2487 262.465 33.7174 262.732 34.0625C263.006 34.4076 263.419 34.5801 263.973 34.5801ZM279.1 36.7578C279.1 37.5 278.924 38.1283 278.572 38.6426C278.227 39.1504 277.71 39.5378 277.02 39.8047C276.329 40.0651 275.47 40.1953 274.441 40.1953C273.68 40.1953 273.025 40.1465 272.479 40.0488C271.938 39.9512 271.391 39.7884 270.838 39.5605V37.0996C271.43 37.3665 272.065 37.5879 272.742 37.7637C273.426 37.9329 274.025 38.0176 274.539 38.0176C275.118 38.0176 275.532 37.9329 275.779 37.7637C276.033 37.5879 276.16 37.36 276.16 37.0801C276.16 36.8978 276.108 36.735 276.004 36.5918C275.906 36.4421 275.691 36.276 275.359 36.0938C275.027 35.9049 274.507 35.6608 273.797 35.3613C273.113 35.0749 272.55 34.7852 272.107 34.4922C271.671 34.1992 271.346 33.8542 271.131 33.457C270.923 33.0534 270.818 32.5423 270.818 31.9238C270.818 30.9147 271.209 30.1562 271.99 29.6484C272.778 29.1341 273.829 28.877 275.145 28.877C275.822 28.877 276.466 28.9453 277.078 29.082C277.697 29.2188 278.331 29.4368 278.982 29.7363L278.084 31.8848C277.544 31.6504 277.033 31.4583 276.551 31.3086C276.076 31.1589 275.59 31.084 275.096 31.084C274.66 31.084 274.331 31.1426 274.109 31.2598C273.888 31.377 273.777 31.556 273.777 31.7969C273.777 31.9727 273.833 32.1289 273.943 32.2656C274.061 32.4023 274.282 32.5553 274.607 32.7246C274.939 32.8874 275.424 33.099 276.062 33.3594C276.681 33.6133 277.218 33.8802 277.674 34.1602C278.13 34.4336 278.481 34.7754 278.729 35.1855C278.976 35.5892 279.1 36.1133 279.1 36.7578Z" fill="#31344E"/>
<path fill-rule="evenodd" clip-rule="evenodd" d="M31.208 43.2971C32.1518 44.2343 33.6819 44.2343 34.6257 43.2971C35.5694 42.3598 35.5694 40.8402 34.6257 39.9029L29.0845 34.4L47.4168 34.4C48.7515 34.4 49.8335 33.3255 49.8335 32C49.8335 30.6745 48.7515 29.6 47.4168 29.6L29.0845 29.6L34.6257 24.0971C35.5694 23.1598 35.5694 21.6402 34.6257 20.7029C33.6819 19.7657 32.1518 19.7657 31.208 20.7029L21.5418 30.3025C21.1042 30.7368 20.8335 31.337 20.8335 32C20.8335 32.6638 21.1048 33.2646 21.5434 33.6991M21.5434 33.6991L31.208 43.2971L21.5434 33.6991Z" fill="#1A1040"/>
<path d="M459.29 24.0987C460.227 23.1616 460.227 21.6399 459.29 20.7028C458.353 19.7657 456.831 19.7657 455.894 20.7028L448 28.6041L440.099 20.7103C439.162 19.7732 437.64 19.7732 436.703 20.7103C435.766 21.6474 435.766 23.1691 436.703 24.1062L444.604 32L436.71 39.9013C435.773 40.8384 435.773 42.3601 436.71 43.2972C437.647 44.2343 439.169 44.2343 440.106 43.2972L448 35.3959L455.901 43.2897C456.838 44.2268 458.36 44.2268 459.297 43.2897C460.234 42.3526 460.234 40.8309 459.297 39.8938L451.396 32L459.29 24.0987Z" fill="#1A1040"/>
<g filter="url(#filter0_d_6176_37157)">
<rect x="16" y="384" width="448" height="80" rx="5" fill="#1A1040" shape-rendering="crispEdges"/>
<path d="M224.484 428.742C224.484 429.758 224.238 430.641 223.746 431.391C223.254 432.141 222.535 432.719 221.59 433.125C220.652 433.531 219.512 433.734 218.168 433.734C217.574 433.734 216.992 433.695 216.422 433.617C215.859 433.539 215.316 433.426 214.793 433.277C214.277 433.121 213.785 432.93 213.316 432.703V429.328C214.129 429.688 214.973 430.012 215.848 430.301C216.723 430.59 217.59 430.734 218.449 430.734C219.043 430.734 219.52 430.656 219.879 430.5C220.246 430.344 220.512 430.129 220.676 429.855C220.84 429.582 220.922 429.27 220.922 428.918C220.922 428.488 220.777 428.121 220.488 427.816C220.199 427.512 219.801 427.227 219.293 426.961C218.793 426.695 218.227 426.41 217.594 426.105C217.195 425.918 216.762 425.691 216.293 425.426C215.824 425.152 215.379 424.82 214.957 424.43C214.535 424.039 214.188 423.566 213.914 423.012C213.648 422.449 213.516 421.777 213.516 420.996C213.516 419.973 213.75 419.098 214.219 418.371C214.688 417.645 215.355 417.09 216.223 416.707C217.098 416.316 218.129 416.121 219.316 416.121C220.207 416.121 221.055 416.227 221.859 416.438C222.672 416.641 223.52 416.938 224.402 417.328L223.23 420.152C222.441 419.832 221.734 419.586 221.109 419.414C220.484 419.234 219.848 419.145 219.199 419.145C218.746 419.145 218.359 419.219 218.039 419.367C217.719 419.508 217.477 419.711 217.312 419.977C217.148 420.234 217.066 420.535 217.066 420.879C217.066 421.285 217.184 421.629 217.418 421.91C217.66 422.184 218.02 422.449 218.496 422.707C218.98 422.965 219.582 423.266 220.301 423.609C221.176 424.023 221.922 424.457 222.539 424.91C223.164 425.355 223.645 425.883 223.98 426.492C224.316 427.094 224.484 427.844 224.484 428.742ZM232.676 420.129C234.434 420.129 235.781 420.512 236.719 421.277C237.656 422.043 238.125 423.207 238.125 424.77V433.5H235.629L234.938 431.719H234.844C234.469 432.188 234.086 432.57 233.695 432.867C233.305 433.164 232.855 433.383 232.348 433.523C231.84 433.664 231.223 433.734 230.496 433.734C229.723 433.734 229.027 433.586 228.41 433.289C227.801 432.992 227.32 432.539 226.969 431.93C226.617 431.312 226.441 430.531 226.441 429.586C226.441 428.195 226.93 427.172 227.906 426.516C228.883 425.852 230.348 425.484 232.301 425.414L234.574 425.344V424.77C234.574 424.082 234.395 423.578 234.035 423.258C233.676 422.938 233.176 422.777 232.535 422.777C231.902 422.777 231.281 422.867 230.672 423.047C230.062 423.227 229.453 423.453 228.844 423.727L227.66 421.312C228.355 420.945 229.133 420.656 229.992 420.445C230.859 420.234 231.754 420.129 232.676 420.129ZM234.574 427.43L233.191 427.477C232.035 427.508 231.23 427.715 230.777 428.098C230.332 428.48 230.109 428.984 230.109 429.609C230.109 430.156 230.27 430.547 230.59 430.781C230.91 431.008 231.328 431.121 231.844 431.121C232.609 431.121 233.254 430.895 233.777 430.441C234.309 429.988 234.574 429.344 234.574 428.508V427.43ZM244.934 433.5L239.941 420.398H243.68L246.211 427.863C246.352 428.301 246.461 428.762 246.539 429.246C246.625 429.73 246.684 430.164 246.715 430.547H246.809C246.832 430.133 246.887 429.691 246.973 429.223C247.066 428.754 247.188 428.301 247.336 427.863L249.855 420.398H253.594L248.602 433.5H244.934ZM260.883 420.152C262.094 420.152 263.137 420.387 264.012 420.855C264.887 421.316 265.562 421.988 266.039 422.871C266.516 423.754 266.754 424.832 266.754 426.105V427.84H258.305C258.344 428.848 258.645 429.641 259.207 430.219C259.777 430.789 260.566 431.074 261.574 431.074C262.41 431.074 263.176 430.988 263.871 430.816C264.566 430.645 265.281 430.387 266.016 430.043V432.809C265.367 433.129 264.688 433.363 263.977 433.512C263.273 433.66 262.418 433.734 261.41 433.734C260.098 433.734 258.934 433.492 257.918 433.008C256.91 432.523 256.117 431.785 255.539 430.793C254.969 429.801 254.684 428.551 254.684 427.043C254.684 425.512 254.941 424.238 255.457 423.223C255.98 422.199 256.707 421.434 257.637 420.926C258.566 420.41 259.648 420.152 260.883 420.152ZM260.906 422.695C260.211 422.695 259.633 422.918 259.172 423.363C258.719 423.809 258.457 424.508 258.387 425.461H263.402C263.395 424.93 263.297 424.457 263.109 424.043C262.93 423.629 262.656 423.301 262.289 423.059C261.93 422.816 261.469 422.695 260.906 422.695Z" fill="white"/>
</g>
<g filter="url(#filter1_d_6176_37157)">
<rect x="16.5" y="80.5" width="447" height="215" rx="6.5" fill="white" stroke="#D1D1D1"/>
</g>
<path d="M33.6875 108.15H37.5107C39.1689 108.15 40.4199 108.391 41.2637 108.871C42.1074 109.352 42.5293 110.181 42.5293 111.358C42.5293 111.851 42.4414 112.296 42.2656 112.694C42.0957 113.087 41.8467 113.412 41.5186 113.67C41.1904 113.922 40.7861 114.092 40.3057 114.18V114.268C40.8037 114.355 41.2461 114.511 41.6328 114.733C42.0254 114.956 42.333 115.275 42.5557 115.691C42.7842 116.107 42.8984 116.646 42.8984 117.309C42.8984 118.094 42.7109 118.762 42.3359 119.312C41.9668 119.863 41.4365 120.282 40.7451 120.569C40.0596 120.856 39.2451 121 38.3018 121H33.6875V108.15ZM35.7969 113.45H37.8184C38.7734 113.45 39.4355 113.295 39.8047 112.984C40.1738 112.674 40.3584 112.22 40.3584 111.622C40.3584 111.013 40.1387 110.573 39.6992 110.304C39.2656 110.034 38.5742 109.899 37.625 109.899H35.7969V113.45ZM35.7969 115.155V119.233H38.0205C39.0049 119.233 39.6963 119.043 40.0947 118.662C40.4932 118.281 40.6924 117.766 40.6924 117.115C40.6924 116.717 40.6016 116.371 40.4199 116.078C40.2441 115.785 39.9541 115.56 39.5498 115.401C39.1455 115.237 38.6006 115.155 37.915 115.155H35.7969ZM49.2178 111.086C50.085 111.086 50.8291 111.265 51.4502 111.622C52.0713 111.979 52.5488 112.486 52.8828 113.143C53.2168 113.799 53.3838 114.584 53.3838 115.498V116.605H46.8887C46.9121 117.549 47.1641 118.275 47.6445 118.785C48.1309 119.295 48.8105 119.55 49.6836 119.55C50.3047 119.55 50.8613 119.491 51.3535 119.374C51.8516 119.251 52.3643 119.072 52.8916 118.838V120.517C52.4053 120.745 51.9102 120.912 51.4062 121.018C50.9023 121.123 50.2988 121.176 49.5957 121.176C48.6406 121.176 47.7998 120.991 47.0732 120.622C46.3525 120.247 45.7871 119.69 45.377 118.952C44.9727 118.214 44.7705 117.297 44.7705 116.201C44.7705 115.111 44.9551 114.186 45.3242 113.424C45.6934 112.662 46.2119 112.082 46.8799 111.684C47.5479 111.285 48.3271 111.086 49.2178 111.086ZM49.2178 112.642C48.5674 112.642 48.04 112.853 47.6357 113.274C47.2373 113.696 47.0029 114.314 46.9326 115.129H51.3623C51.3564 114.643 51.2744 114.212 51.1162 113.837C50.9639 113.462 50.7295 113.169 50.4131 112.958C50.1025 112.747 49.7041 112.642 49.2178 112.642ZM58.9824 121.176C57.8223 121.176 56.8906 120.754 56.1875 119.91C55.4902 119.061 55.1416 117.81 55.1416 116.157C55.1416 114.487 55.4961 113.225 56.2051 112.369C56.9199 111.514 57.8604 111.086 59.0264 111.086C59.5186 111.086 59.9492 111.153 60.3184 111.288C60.6875 111.417 61.0039 111.593 61.2676 111.815C61.5371 112.038 61.7656 112.287 61.9531 112.562H62.0498C62.0205 112.381 61.9854 112.12 61.9443 111.78C61.9092 111.435 61.8916 111.115 61.8916 110.822V107.324H63.9658V121H62.3486L61.9795 119.673H61.8916C61.7158 119.954 61.4932 120.209 61.2236 120.438C60.96 120.66 60.6436 120.839 60.2744 120.974C59.9111 121.108 59.4805 121.176 58.9824 121.176ZM59.5625 119.497C60.4473 119.497 61.0713 119.242 61.4346 118.732C61.7979 118.223 61.9854 117.458 61.9971 116.438V116.166C61.9971 115.076 61.8213 114.241 61.4697 113.661C61.1182 113.075 60.4766 112.782 59.5449 112.782C58.8008 112.782 58.2324 113.084 57.8398 113.688C57.4531 114.285 57.2598 115.12 57.2598 116.192C57.2598 117.265 57.4531 118.085 57.8398 118.653C58.2324 119.216 58.8066 119.497 59.5625 119.497ZM75.5498 108.15C77.208 108.15 78.418 108.49 79.1797 109.17C79.9414 109.85 80.3223 110.802 80.3223 112.026C80.3223 112.583 80.2344 113.113 80.0586 113.617C79.8887 114.115 79.6074 114.558 79.2148 114.944C78.8223 115.325 78.3037 115.627 77.6592 115.85C77.0205 116.072 76.2324 116.184 75.2949 116.184H73.9238V121H71.8145V108.15H75.5498ZM75.4092 109.899H73.9238V114.426H75.0752C75.7373 114.426 76.2998 114.35 76.7627 114.197C77.2256 114.039 77.5771 113.79 77.8174 113.45C78.0576 113.11 78.1777 112.662 78.1777 112.105C78.1777 111.361 77.9521 110.808 77.501 110.444C77.0557 110.081 76.3584 109.899 75.4092 109.899ZM84.752 121H82.6777V107.324H84.752V121ZM91.5195 111.086C92.75 111.086 93.6787 111.358 94.3057 111.903C94.9385 112.448 95.2549 113.298 95.2549 114.452V121H93.7871L93.3916 119.62H93.3213C93.0459 119.972 92.7617 120.262 92.4688 120.49C92.1758 120.719 91.8359 120.889 91.4492 121C91.0684 121.117 90.6025 121.176 90.0518 121.176C89.4717 121.176 88.9531 121.07 88.4961 120.859C88.0391 120.643 87.6787 120.314 87.415 119.875C87.1514 119.436 87.0195 118.879 87.0195 118.205C87.0195 117.203 87.3916 116.45 88.1357 115.946C88.8857 115.442 90.0166 115.164 91.5283 115.111L93.2158 115.05V114.54C93.2158 113.866 93.0576 113.386 92.7412 113.099C92.4307 112.812 91.9912 112.668 91.4229 112.668C90.9365 112.668 90.4648 112.738 90.0078 112.879C89.5508 113.02 89.1055 113.192 88.6719 113.397L88.0039 111.938C88.4785 111.687 89.0176 111.481 89.6211 111.323C90.2305 111.165 90.8633 111.086 91.5195 111.086ZM93.207 116.351L91.9502 116.395C90.9189 116.43 90.1953 116.605 89.7793 116.922C89.3633 117.238 89.1553 117.672 89.1553 118.223C89.1553 118.703 89.2988 119.055 89.5859 119.277C89.873 119.494 90.251 119.603 90.7197 119.603C91.4346 119.603 92.0264 119.4 92.4951 118.996C92.9697 118.586 93.207 117.985 93.207 117.194V116.351ZM102.066 121.176C101.146 121.176 100.35 120.997 99.6758 120.64C99.002 120.282 98.4834 119.734 98.1201 118.996C97.7568 118.258 97.5752 117.32 97.5752 116.184C97.5752 115 97.7744 114.033 98.1729 113.283C98.5713 112.533 99.1221 111.979 99.8252 111.622C100.534 111.265 101.346 111.086 102.26 111.086C102.84 111.086 103.364 111.145 103.833 111.262C104.308 111.373 104.709 111.511 105.037 111.675L104.422 113.327C104.064 113.181 103.698 113.058 103.323 112.958C102.948 112.858 102.588 112.809 102.242 112.809C101.674 112.809 101.199 112.935 100.818 113.187C100.443 113.438 100.162 113.813 99.9746 114.312C99.793 114.81 99.7021 115.428 99.7021 116.166C99.7021 116.881 99.7959 117.484 99.9834 117.977C100.171 118.463 100.449 118.832 100.818 119.084C101.188 119.33 101.642 119.453 102.181 119.453C102.714 119.453 103.191 119.389 103.613 119.26C104.035 119.131 104.434 118.964 104.809 118.759V120.552C104.439 120.763 104.044 120.918 103.622 121.018C103.2 121.123 102.682 121.176 102.066 121.176ZM110.97 111.086C111.837 111.086 112.581 111.265 113.202 111.622C113.823 111.979 114.301 112.486 114.635 113.143C114.969 113.799 115.136 114.584 115.136 115.498V116.605H108.641C108.664 117.549 108.916 118.275 109.396 118.785C109.883 119.295 110.562 119.55 111.436 119.55C112.057 119.55 112.613 119.491 113.105 119.374C113.604 119.251 114.116 119.072 114.644 118.838V120.517C114.157 120.745 113.662 120.912 113.158 121.018C112.654 121.123 112.051 121.176 111.348 121.176C110.393 121.176 109.552 120.991 108.825 120.622C108.104 120.247 107.539 119.69 107.129 118.952C106.725 118.214 106.522 117.297 106.522 116.201C106.522 115.111 106.707 114.186 107.076 113.424C107.445 112.662 107.964 112.082 108.632 111.684C109.3 111.285 110.079 111.086 110.97 111.086ZM110.97 112.642C110.319 112.642 109.792 112.853 109.388 113.274C108.989 113.696 108.755 114.314 108.685 115.129H113.114C113.108 114.643 113.026 114.212 112.868 113.837C112.716 113.462 112.481 113.169 112.165 112.958C111.854 112.747 111.456 112.642 110.97 112.642ZM128.46 111.086C129.55 111.086 130.37 111.367 130.921 111.93C131.478 112.492 131.756 113.395 131.756 114.637V121H129.69V115.006C129.69 114.268 129.547 113.711 129.26 113.336C128.973 112.961 128.536 112.773 127.95 112.773C127.13 112.773 126.538 113.037 126.175 113.564C125.817 114.086 125.639 114.845 125.639 115.841V121H123.573V115.006C123.573 114.514 123.509 114.104 123.38 113.775C123.257 113.441 123.066 113.192 122.809 113.028C122.551 112.858 122.226 112.773 121.833 112.773C121.265 112.773 120.811 112.902 120.471 113.16C120.137 113.418 119.896 113.799 119.75 114.303C119.604 114.801 119.53 115.413 119.53 116.14V121H117.465V111.271H119.073L119.363 112.58H119.478C119.677 112.24 119.923 111.962 120.216 111.745C120.515 111.522 120.846 111.358 121.209 111.253C121.572 111.142 121.95 111.086 122.343 111.086C123.069 111.086 123.682 111.215 124.18 111.473C124.678 111.725 125.05 112.111 125.296 112.633H125.454C125.759 112.105 126.184 111.716 126.729 111.464C127.273 111.212 127.851 111.086 128.46 111.086ZM138.515 111.086C139.382 111.086 140.126 111.265 140.747 111.622C141.368 111.979 141.846 112.486 142.18 113.143C142.514 113.799 142.681 114.584 142.681 115.498V116.605H136.186C136.209 117.549 136.461 118.275 136.941 118.785C137.428 119.295 138.107 119.55 138.98 119.55C139.602 119.55 140.158 119.491 140.65 119.374C141.148 119.251 141.661 119.072 142.188 118.838V120.517C141.702 120.745 141.207 120.912 140.703 121.018C140.199 121.123 139.596 121.176 138.893 121.176C137.938 121.176 137.097 120.991 136.37 120.622C135.649 120.247 135.084 119.69 134.674 118.952C134.27 118.214 134.067 117.297 134.067 116.201C134.067 115.111 134.252 114.186 134.621 113.424C134.99 112.662 135.509 112.082 136.177 111.684C136.845 111.285 137.624 111.086 138.515 111.086ZM138.515 112.642C137.864 112.642 137.337 112.853 136.933 113.274C136.534 113.696 136.3 114.314 136.229 115.129H140.659C140.653 114.643 140.571 114.212 140.413 113.837C140.261 113.462 140.026 113.169 139.71 112.958C139.399 112.747 139.001 112.642 138.515 112.642ZM150.081 111.086C151.177 111.086 152.029 111.37 152.639 111.938C153.254 112.501 153.562 113.406 153.562 114.654V121H151.496V115.041C151.496 114.285 151.341 113.72 151.03 113.345C150.72 112.964 150.239 112.773 149.589 112.773C148.646 112.773 147.989 113.063 147.62 113.644C147.257 114.224 147.075 115.064 147.075 116.166V121H145.01V111.271H146.618L146.908 112.589H147.022C147.233 112.249 147.494 111.971 147.805 111.754C148.121 111.531 148.473 111.364 148.859 111.253C149.252 111.142 149.659 111.086 150.081 111.086ZM160.074 119.506C160.344 119.506 160.61 119.482 160.874 119.436C161.138 119.383 161.378 119.321 161.595 119.251V120.815C161.366 120.915 161.07 121 160.707 121.07C160.344 121.141 159.966 121.176 159.573 121.176C159.022 121.176 158.527 121.085 158.088 120.903C157.648 120.716 157.3 120.396 157.042 119.945C156.784 119.494 156.655 118.87 156.655 118.073V112.844H155.328V111.921L156.752 111.191L157.429 109.108H158.729V111.271H161.516V112.844H158.729V118.047C158.729 118.539 158.853 118.905 159.099 119.146C159.345 119.386 159.67 119.506 160.074 119.506Z" fill="#31344E"/>
<path d="M62 199L418 199" stroke="#F6F6F6" stroke-width="16" stroke-linecap="round"/>
<path d="M64 199H416" stroke="#707070"/>
<circle cx="240" cy="199" r="16" fill="#F6F6F6"/>
<circle cx="240" cy="199" r="9" fill="#707070"/>
<g filter="url(#filter2_d_6176_37157)">
<circle cx="48" cy="199" r="16" fill="#F6F6F6" stroke="#1A1040" stroke-width="2"/>
<circle cx="48" cy="199" r="9" fill="#1A1040"/>
</g>
<circle cx="432" cy="199" r="16" fill="#F6F6F6"/>
<circle cx="432" cy="199" r="9" fill="#707070"/>
<path d="M33.4648 239V228.292H34.71V237.887H39.4634V239H33.4648ZM44.2095 230.826C44.8931 230.826 45.479 230.978 45.9673 231.28C46.4556 231.583 46.8291 232.008 47.0879 232.555C47.3467 233.097 47.4761 233.731 47.4761 234.459V235.213H41.9316C41.9463 236.156 42.1807 236.874 42.6348 237.367C43.0889 237.86 43.7285 238.106 44.5537 238.106C45.0615 238.106 45.5107 238.06 45.9014 237.967C46.292 237.875 46.6973 237.738 47.1172 237.557V238.626C46.7119 238.807 46.3091 238.939 45.9087 239.022C45.5132 239.105 45.0444 239.146 44.5024 239.146C43.731 239.146 43.0571 238.99 42.481 238.678C41.9097 238.36 41.4653 237.896 41.1479 237.286C40.8306 236.676 40.6719 235.929 40.6719 235.045C40.6719 234.181 40.8159 233.434 41.104 232.804C41.397 232.169 41.8071 231.681 42.3345 231.339C42.8667 230.997 43.4917 230.826 44.2095 230.826ZM44.1948 231.822C43.5454 231.822 43.0278 232.035 42.6421 232.459C42.2563 232.884 42.0269 233.478 41.9536 234.239H46.2017C46.1968 233.761 46.1211 233.341 45.9746 232.979C45.833 232.613 45.6157 232.33 45.3228 232.13C45.0298 231.925 44.6538 231.822 44.1948 231.822ZM53.1157 231.925H51.1162V239H49.9004V231.925H48.4795V231.339L49.9004 230.936V230.401C49.9004 229.728 50.0005 229.181 50.2007 228.761C50.4009 228.336 50.6914 228.023 51.0723 227.823C51.4531 227.623 51.917 227.523 52.4639 227.523C52.7715 227.523 53.0522 227.55 53.3062 227.604C53.5649 227.657 53.792 227.718 53.9873 227.787L53.6724 228.746C53.5063 228.692 53.3184 228.644 53.1084 228.6C52.9033 228.551 52.6934 228.526 52.4785 228.526C52.0146 228.526 51.6704 228.678 51.4458 228.98C51.2261 229.278 51.1162 229.747 51.1162 230.387V230.973H53.1157V231.925ZM57.188 238.15C57.3882 238.15 57.5933 238.133 57.8032 238.099C58.0132 238.065 58.1841 238.023 58.3159 237.975V238.919C58.1743 238.983 57.9766 239.037 57.7227 239.081C57.4736 239.125 57.2295 239.146 56.9902 239.146C56.5654 239.146 56.1797 239.073 55.833 238.927C55.4863 238.775 55.208 238.521 54.998 238.165C54.793 237.809 54.6904 237.315 54.6904 236.686V231.925H53.5479V231.332L54.6978 230.855L55.1812 229.112H55.9136V230.973H58.2646V231.925H55.9136V236.649C55.9136 237.152 56.0283 237.528 56.2578 237.777C56.4922 238.026 56.8022 238.15 57.188 238.15ZM76.187 228.292L73.3232 239H72.0708L69.9468 231.793C69.8833 231.588 69.8223 231.383 69.7637 231.178C69.71 230.968 69.6587 230.77 69.6099 230.584C69.561 230.394 69.5195 230.228 69.4854 230.086C69.4561 229.94 69.4341 229.83 69.4194 229.757C69.4097 229.83 69.3901 229.938 69.3608 230.079C69.3364 230.221 69.3022 230.384 69.2583 230.57C69.2192 230.755 69.1704 230.953 69.1118 231.163C69.0581 231.373 68.9995 231.585 68.936 231.8L66.8706 239H65.6182L62.7764 228.292H64.0728L65.7939 235.008C65.8525 235.233 65.9062 235.455 65.9551 235.675C66.0088 235.89 66.0552 236.1 66.0942 236.305C66.1382 236.51 66.1772 236.71 66.2114 236.905C66.2456 237.101 66.2773 237.291 66.3066 237.477C66.3311 237.286 66.3628 237.088 66.4019 236.883C66.4409 236.673 66.4824 236.461 66.5264 236.246C66.5752 236.031 66.6265 235.814 66.6802 235.594C66.7388 235.375 66.7998 235.155 66.8633 234.935L68.7896 228.292H70.0713L72.0781 234.986C72.1465 235.216 72.21 235.443 72.2686 235.667C72.3271 235.892 72.3784 236.112 72.4224 236.327C72.4712 236.537 72.5127 236.739 72.5469 236.935C72.5859 237.125 72.6201 237.306 72.6494 237.477C72.6836 237.237 72.7251 236.986 72.7739 236.722C72.8228 236.458 72.8789 236.183 72.9424 235.895C73.0107 235.606 73.084 235.309 73.1621 235.001L74.8833 228.292H76.187ZM80.6987 230.841C81.6558 230.841 82.3662 231.056 82.8301 231.485C83.2939 231.915 83.5259 232.601 83.5259 233.543V239H82.6396L82.4053 237.813H82.3467C82.1221 238.106 81.8877 238.353 81.6436 238.553C81.3994 238.749 81.1162 238.897 80.7939 239C80.4766 239.098 80.0859 239.146 79.6221 239.146C79.1338 239.146 78.6992 239.061 78.3184 238.89C77.9424 238.719 77.6445 238.46 77.4248 238.114C77.21 237.767 77.1025 237.328 77.1025 236.795C77.1025 235.995 77.4199 235.379 78.0547 234.95C78.6895 234.52 79.6562 234.286 80.9551 234.247L82.3394 234.188V233.697C82.3394 233.004 82.1904 232.518 81.8926 232.24C81.5947 231.961 81.1748 231.822 80.6328 231.822C80.2129 231.822 79.8125 231.883 79.4316 232.005C79.0508 232.127 78.6895 232.271 78.3477 232.438L77.9741 231.515C78.3354 231.329 78.7505 231.17 79.2192 231.039C79.688 230.907 80.1812 230.841 80.6987 230.841ZM82.3247 235.045L81.1016 235.096C80.1006 235.135 79.395 235.299 78.9849 235.587C78.5747 235.875 78.3696 236.283 78.3696 236.81C78.3696 237.269 78.5088 237.608 78.7871 237.828C79.0654 238.048 79.4341 238.158 79.8931 238.158C80.606 238.158 81.1895 237.96 81.6436 237.564C82.0977 237.169 82.3247 236.576 82.3247 235.785V235.045ZM87.2539 239H86.0308V227.604H87.2539V239ZM91.0479 239H89.8247V227.604H91.0479V239Z" fill="#31344E"/>
<path d="M222.054 229.237C221.463 229.237 220.931 229.339 220.457 229.544C219.988 229.745 219.588 230.038 219.256 230.423C218.929 230.804 218.677 231.266 218.501 231.808C218.326 232.35 218.238 232.96 218.238 233.639C218.238 234.537 218.377 235.318 218.655 235.982C218.938 236.642 219.358 237.152 219.915 237.513C220.477 237.875 221.177 238.055 222.017 238.055C222.496 238.055 222.945 238.016 223.365 237.938C223.79 237.855 224.202 237.752 224.603 237.63V238.714C224.212 238.861 223.802 238.968 223.372 239.037C222.942 239.11 222.432 239.146 221.841 239.146C220.752 239.146 219.842 238.922 219.109 238.473C218.382 238.019 217.835 237.379 217.469 236.554C217.107 235.729 216.927 234.754 216.927 233.631C216.927 232.821 217.039 232.081 217.264 231.412C217.493 230.738 217.825 230.157 218.26 229.669C218.699 229.181 219.236 228.805 219.871 228.541C220.511 228.272 221.243 228.138 222.068 228.138C222.61 228.138 223.133 228.192 223.636 228.299C224.139 228.407 224.593 228.561 224.998 228.761L224.5 229.815C224.158 229.659 223.782 229.525 223.372 229.413C222.967 229.295 222.527 229.237 222.054 229.237ZM229.832 230.826C230.516 230.826 231.102 230.978 231.59 231.28C232.078 231.583 232.452 232.008 232.71 232.555C232.969 233.097 233.099 233.731 233.099 234.459V235.213H227.554C227.569 236.156 227.803 236.874 228.257 237.367C228.711 237.86 229.351 238.106 230.176 238.106C230.684 238.106 231.133 238.06 231.524 237.967C231.915 237.875 232.32 237.738 232.74 237.557V238.626C232.334 238.807 231.932 238.939 231.531 239.022C231.136 239.105 230.667 239.146 230.125 239.146C229.354 239.146 228.68 238.99 228.104 238.678C227.532 238.36 227.088 237.896 226.771 237.286C226.453 236.676 226.294 235.929 226.294 235.045C226.294 234.181 226.438 233.434 226.727 232.804C227.02 232.169 227.43 231.681 227.957 231.339C228.489 230.997 229.114 230.826 229.832 230.826ZM229.817 231.822C229.168 231.822 228.65 232.035 228.265 232.459C227.879 232.884 227.649 233.478 227.576 234.239H231.824C231.819 233.761 231.744 233.341 231.597 232.979C231.456 232.613 231.238 232.33 230.945 232.13C230.652 231.925 230.276 231.822 229.817 231.822ZM238.965 230.826C239.917 230.826 240.638 231.061 241.126 231.529C241.614 231.993 241.858 232.74 241.858 233.771V239H240.657V233.851C240.657 233.182 240.503 232.682 240.196 232.35C239.893 232.018 239.427 231.852 238.797 231.852C237.908 231.852 237.283 232.103 236.922 232.606C236.561 233.109 236.38 233.839 236.38 234.796V239H235.164V230.973H236.146L236.329 232.13H236.395C236.565 231.847 236.783 231.61 237.046 231.419C237.31 231.224 237.605 231.078 237.933 230.98C238.26 230.877 238.604 230.826 238.965 230.826ZM246.956 238.15C247.156 238.15 247.361 238.133 247.571 238.099C247.781 238.065 247.952 238.023 248.084 237.975V238.919C247.942 238.983 247.745 239.037 247.491 239.081C247.242 239.125 246.998 239.146 246.758 239.146C246.333 239.146 245.948 239.073 245.601 238.927C245.254 238.775 244.976 238.521 244.766 238.165C244.561 237.809 244.458 237.315 244.458 236.686V231.925H243.316V231.332L244.466 230.855L244.949 229.112H245.682V230.973H248.033V231.925H245.682V236.649C245.682 237.152 245.796 237.528 246.026 237.777C246.26 238.026 246.57 238.15 246.956 238.15ZM252.801 230.826C253.484 230.826 254.07 230.978 254.559 231.28C255.047 231.583 255.42 232.008 255.679 232.555C255.938 233.097 256.067 233.731 256.067 234.459V235.213H250.523C250.538 236.156 250.772 236.874 251.226 237.367C251.68 237.86 252.32 238.106 253.145 238.106C253.653 238.106 254.102 238.06 254.493 237.967C254.883 237.875 255.289 237.738 255.708 237.557V238.626C255.303 238.807 254.9 238.939 254.5 239.022C254.104 239.105 253.636 239.146 253.094 239.146C252.322 239.146 251.648 238.99 251.072 238.678C250.501 238.36 250.057 237.896 249.739 237.286C249.422 236.676 249.263 235.929 249.263 235.045C249.263 234.181 249.407 233.434 249.695 232.804C249.988 232.169 250.398 231.681 250.926 231.339C251.458 230.997 252.083 230.826 252.801 230.826ZM252.786 231.822C252.137 231.822 251.619 232.035 251.233 232.459C250.848 232.884 250.618 233.478 250.545 234.239H254.793C254.788 233.761 254.712 233.341 254.566 232.979C254.424 232.613 254.207 232.33 253.914 232.13C253.621 231.925 253.245 231.822 252.786 231.822ZM261.78 230.826C261.941 230.826 262.11 230.836 262.286 230.855C262.461 230.87 262.618 230.892 262.754 230.921L262.601 232.049C262.469 232.015 262.322 231.988 262.161 231.969C262 231.949 261.849 231.939 261.707 231.939C261.385 231.939 261.08 232.005 260.792 232.137C260.508 232.264 260.259 232.45 260.044 232.694C259.83 232.933 259.661 233.224 259.539 233.565C259.417 233.902 259.356 234.278 259.356 234.693V239H258.133V230.973H259.144L259.275 232.452H259.327C259.493 232.154 259.693 231.883 259.927 231.639C260.162 231.39 260.433 231.192 260.74 231.046C261.053 230.899 261.399 230.826 261.78 230.826Z" fill="#707070"/>
<path d="M382.939 228.292C383.818 228.292 384.543 228.402 385.114 228.622C385.69 228.836 386.12 229.166 386.403 229.61C386.687 230.055 386.828 230.621 386.828 231.31C386.828 231.876 386.726 232.35 386.521 232.73C386.315 233.106 386.047 233.412 385.715 233.646C385.383 233.88 385.029 234.061 384.653 234.188L387.59 239H386.14L383.518 234.532H381.291V239H380.046V228.292H382.939ZM382.866 229.369H381.291V233.478H382.99C383.864 233.478 384.506 233.299 384.917 232.943C385.332 232.586 385.539 232.062 385.539 231.368C385.539 230.641 385.319 230.125 384.88 229.823C384.445 229.52 383.774 229.369 382.866 229.369ZM390.336 230.973V239H389.121V230.973H390.336ZM389.743 227.97C389.943 227.97 390.114 228.036 390.256 228.167C390.402 228.294 390.476 228.495 390.476 228.768C390.476 229.037 390.402 229.237 390.256 229.369C390.114 229.5 389.943 229.566 389.743 229.566C389.533 229.566 389.357 229.5 389.216 229.369C389.079 229.237 389.011 229.037 389.011 228.768C389.011 228.495 389.079 228.294 389.216 228.167C389.357 228.036 389.533 227.97 389.743 227.97ZM395.156 242.604C394.101 242.604 393.288 242.406 392.717 242.01C392.146 241.62 391.86 241.07 391.86 240.362C391.86 239.859 392.019 239.43 392.336 239.073C392.658 238.717 393.103 238.48 393.669 238.363C393.459 238.265 393.278 238.119 393.127 237.923C392.98 237.728 392.907 237.503 392.907 237.25C392.907 236.957 392.988 236.7 393.149 236.48C393.315 236.256 393.566 236.041 393.903 235.836C393.483 235.665 393.142 235.377 392.878 234.972C392.619 234.562 392.49 234.085 392.49 233.543C392.49 232.967 392.609 232.477 392.849 232.071C393.088 231.661 393.435 231.349 393.889 231.134C394.343 230.919 394.892 230.812 395.537 230.812C395.678 230.812 395.82 230.819 395.961 230.833C396.108 230.843 396.247 230.86 396.379 230.885C396.511 230.904 396.625 230.929 396.723 230.958H399.477V231.742L397.998 231.925C398.144 232.115 398.266 232.345 398.364 232.613C398.461 232.882 398.51 233.18 398.51 233.507C398.51 234.308 398.239 234.945 397.697 235.418C397.155 235.887 396.411 236.122 395.463 236.122C395.239 236.122 395.009 236.102 394.775 236.063C394.536 236.195 394.353 236.341 394.226 236.502C394.104 236.664 394.042 236.849 394.042 237.059C394.042 237.215 394.089 237.34 394.182 237.433C394.279 237.525 394.418 237.594 394.599 237.638C394.78 237.677 394.997 237.696 395.251 237.696H396.665C397.539 237.696 398.208 237.879 398.671 238.246C399.14 238.612 399.375 239.146 399.375 239.85C399.375 240.738 399.013 241.419 398.291 241.893C397.568 242.367 396.523 242.604 395.156 242.604ZM395.192 241.651C395.856 241.651 396.406 241.583 396.84 241.446C397.28 241.314 397.607 241.122 397.822 240.868C398.042 240.619 398.151 240.321 398.151 239.974C398.151 239.652 398.078 239.408 397.932 239.242C397.785 239.081 397.57 238.973 397.287 238.919C397.004 238.861 396.657 238.832 396.247 238.832H394.855C394.494 238.832 394.179 238.888 393.911 239C393.642 239.112 393.435 239.278 393.288 239.498C393.146 239.718 393.076 239.991 393.076 240.318C393.076 240.753 393.259 241.083 393.625 241.307C393.991 241.537 394.514 241.651 395.192 241.651ZM395.507 235.235C396.088 235.235 396.525 235.089 396.818 234.796C397.111 234.503 397.258 234.076 397.258 233.514C397.258 232.914 397.109 232.464 396.811 232.167C396.513 231.864 396.074 231.712 395.493 231.712C394.936 231.712 394.506 231.869 394.204 232.181C393.906 232.489 393.757 232.94 393.757 233.536C393.757 234.083 393.908 234.503 394.211 234.796C394.514 235.089 394.946 235.235 395.507 235.235ZM402.275 227.604V231.009C402.275 231.205 402.27 231.402 402.26 231.603C402.25 231.798 402.233 231.979 402.209 232.145H402.29C402.456 231.861 402.666 231.625 402.919 231.434C403.178 231.239 403.471 231.092 403.798 230.995C404.125 230.892 404.472 230.841 404.838 230.841C405.483 230.841 406.02 230.943 406.45 231.148C406.884 231.354 407.209 231.671 407.424 232.101C407.644 232.53 407.753 233.087 407.753 233.771V239H406.552V233.851C406.552 233.182 406.398 232.682 406.091 232.35C405.788 232.018 405.322 231.852 404.692 231.852C404.096 231.852 403.62 231.966 403.264 232.196C402.912 232.42 402.658 232.752 402.502 233.192C402.351 233.631 402.275 234.168 402.275 234.803V239H401.059V227.604H402.275ZM412.851 238.15C413.051 238.15 413.256 238.133 413.466 238.099C413.676 238.065 413.847 238.023 413.979 237.975V238.919C413.837 238.983 413.64 239.037 413.386 239.081C413.137 239.125 412.893 239.146 412.653 239.146C412.229 239.146 411.843 239.073 411.496 238.927C411.149 238.775 410.871 238.521 410.661 238.165C410.456 237.809 410.354 237.315 410.354 236.686V231.925H409.211V231.332L410.361 230.855L410.844 229.112H411.577V230.973H413.928V231.925H411.577V236.649C411.577 237.152 411.691 237.528 411.921 237.777C412.155 238.026 412.465 238.15 412.851 238.15ZM431.85 228.292L428.986 239H427.734L425.61 231.793C425.546 231.588 425.485 231.383 425.427 231.178C425.373 230.968 425.322 230.77 425.273 230.584C425.224 230.394 425.183 230.228 425.148 230.086C425.119 229.94 425.097 229.83 425.083 229.757C425.073 229.83 425.053 229.938 425.024 230.079C425 230.221 424.965 230.384 424.921 230.57C424.882 230.755 424.833 230.953 424.775 231.163C424.721 231.373 424.663 231.585 424.599 231.8L422.534 239H421.281L418.439 228.292H419.736L421.457 235.008C421.516 235.233 421.569 235.455 421.618 235.675C421.672 235.89 421.718 236.1 421.757 236.305C421.801 236.51 421.84 236.71 421.875 236.905C421.909 237.101 421.94 237.291 421.97 237.477C421.994 237.286 422.026 237.088 422.065 236.883C422.104 236.673 422.146 236.461 422.189 236.246C422.238 236.031 422.29 235.814 422.343 235.594C422.402 235.375 422.463 235.155 422.526 234.935L424.453 228.292H425.734L427.741 234.986C427.81 235.216 427.873 235.443 427.932 235.667C427.99 235.892 428.042 236.112 428.085 236.327C428.134 236.537 428.176 236.739 428.21 236.935C428.249 237.125 428.283 237.306 428.312 237.477C428.347 237.237 428.388 236.986 428.437 236.722C428.486 236.458 428.542 236.183 428.605 235.895C428.674 235.606 428.747 235.309 428.825 235.001L430.546 228.292H431.85ZM436.362 230.841C437.319 230.841 438.029 231.056 438.493 231.485C438.957 231.915 439.189 232.601 439.189 233.543V239H438.303L438.068 237.813H438.01C437.785 238.106 437.551 238.353 437.307 238.553C437.062 238.749 436.779 238.897 436.457 239C436.14 239.098 435.749 239.146 435.285 239.146C434.797 239.146 434.362 239.061 433.981 238.89C433.605 238.719 433.308 238.46 433.088 238.114C432.873 237.767 432.766 237.328 432.766 236.795C432.766 235.995 433.083 235.379 433.718 234.95C434.353 234.52 435.319 234.286 436.618 234.247L438.002 234.188V233.697C438.002 233.004 437.854 232.518 437.556 232.24C437.258 231.961 436.838 231.822 436.296 231.822C435.876 231.822 435.476 231.883 435.095 232.005C434.714 232.127 434.353 232.271 434.011 232.438L433.637 231.515C433.999 231.329 434.414 231.17 434.882 231.039C435.351 230.907 435.844 230.841 436.362 230.841ZM437.988 235.045L436.765 235.096C435.764 235.135 435.058 235.299 434.648 235.587C434.238 235.875 434.033 236.283 434.033 236.81C434.033 237.269 434.172 237.608 434.45 237.828C434.729 238.048 435.097 238.158 435.556 238.158C436.269 238.158 436.853 237.96 437.307 237.564C437.761 237.169 437.988 236.576 437.988 235.785V235.045ZM442.917 239H441.694V227.604H442.917V239ZM446.711 239H445.488V227.604H446.711V239Z" fill="#707070"/>
<path d="M231.26 173.963C231.26 174.536 230.795 175 230.223 175C229.65 175 229.186 174.536 229.186 173.963V171.89H231.26V173.963ZM250.963 173.963C250.963 174.536 250.498 175 249.926 175C249.353 175 248.889 174.536 248.889 173.963V171.89H250.963V173.963ZM253.036 171.009C253.036 171.495 252.641 171.889 252.155 171.889H227.991C227.505 171.888 227.111 171.495 227.111 171.009V169.815H253.036V171.009ZM251.434 158.407C252.891 158.407 254.073 159.59 254.073 161.048V168.777H226.075V161.048C226.075 159.59 227.257 158.407 228.715 158.407H251.434ZM250.083 147C250.569 147 250.963 147.394 250.963 147.88V157.37H246.297V154.257C246.297 153.112 245.368 152.184 244.223 152.184H235.928C234.782 152.184 233.854 153.112 233.854 154.257V157.37H229.187V147.88C229.187 147.394 229.58 147 230.066 147H250.083ZM244.223 153.738C244.509 153.738 244.741 153.971 244.741 154.257V157.37H235.409V154.257C235.409 153.971 235.642 153.738 235.928 153.738H244.223Z" fill="#707070"/>
<path fill-rule="evenodd" clip-rule="evenodd" d="M221.708 147.2C222.652 147.2 223.417 147.965 223.417 148.908L223.417 149.506C223.417 150.45 222.652 151.214 221.708 151.214C220.765 151.214 220 150.45 220 149.506L220 148.908C220 147.965 220.765 147.2 221.708 147.2ZM221.708 152.581C222.652 152.581 223.417 153.346 223.417 154.289L223.417 155.485C223.417 156.428 222.652 157.193 221.708 157.193C220.765 157.193 220 156.428 220 155.485L220 154.289C220 153.346 220.765 152.581 221.708 152.581ZM221.708 158.56C222.652 158.56 223.417 159.325 223.417 160.268L223.417 161.464C223.417 162.407 222.652 163.172 221.708 163.172C220.765 163.172 220 162.407 220 161.464L220 160.268C220 159.325 220.765 158.56 221.708 158.56ZM221.708 164.538C222.652 164.538 223.417 165.303 223.417 166.247L223.417 167.442C223.417 168.386 222.652 169.151 221.708 169.151C220.765 169.151 220 168.386 220 167.442L220 166.247C220 165.303 220.765 164.538 221.708 164.538ZM221.708 170.517C222.652 170.517 223.417 171.282 223.417 172.225L223.417 172.823C223.417 173.767 222.652 174.532 221.708 174.532C220.765 174.532 220 173.767 220 172.823L220 172.225C220 171.282 220.765 170.517 221.708 170.517Z" fill="#707070"/>
<path fill-rule="evenodd" clip-rule="evenodd" d="M258.606 147.2C259.55 147.2 260.314 147.965 260.314 148.908L260.314 149.506C260.314 150.45 259.55 151.214 258.606 151.214C257.663 151.214 256.898 150.45 256.898 149.506L256.898 148.908C256.898 147.965 257.663 147.2 258.606 147.2ZM258.606 152.581C259.55 152.581 260.314 153.346 260.314 154.289L260.314 155.485C260.314 156.428 259.55 157.193 258.606 157.193C257.663 157.193 256.898 156.428 256.898 155.485L256.898 154.289C256.898 153.346 257.663 152.581 258.606 152.581ZM258.606 158.56C259.55 158.56 260.314 159.325 260.314 160.268L260.314 161.464C260.314 162.407 259.55 163.172 258.606 163.172C257.663 163.172 256.898 162.407 256.898 161.464L256.898 160.268C256.898 159.325 257.663 158.56 258.606 158.56ZM258.606 164.538C259.55 164.538 260.314 165.303 260.314 166.247L260.314 167.442C260.314 168.386 259.55 169.151 258.606 169.151C257.663 169.151 256.898 168.386 256.898 167.442L256.898 166.247C256.898 165.303 257.663 164.538 258.606 164.538ZM258.606 170.517C259.55 170.517 260.314 171.282 260.314 172.225L260.314 172.823C260.314 173.767 259.55 174.532 258.606 174.532C257.663 174.532 256.898 173.767 256.898 172.823L256.898 172.225C256.898 171.282 257.663 170.517 258.606 170.517Z" fill="#707070"/>
<path d="M65.7935 167.009C65.7933 167.495 65.3995 167.889 64.9136 167.889H63.7202V169.963C63.7202 170.536 63.2558 171 62.6831 171C62.1105 171 61.646 170.535 61.646 169.963V167.889H44.0161V169.963C44.0161 170.536 43.5517 171 42.979 171C42.4064 171 41.9419 170.536 41.9419 169.963V167.889H40.7495C40.2636 167.889 39.8688 167.495 39.8687 167.009V165.814H65.7935V167.009ZM64.1909 154.407C65.6488 154.407 66.8315 155.59 66.8315 157.048V164.777H38.8325V157.048C38.8325 155.59 40.0143 154.407 41.4722 154.407H64.1909ZM62.8384 143C63.3243 143 63.7182 143.394 63.7183 143.88V153.37H59.0513V150.258C59.051 149.113 58.1223 148.185 56.9771 148.185H48.6812C47.5363 148.185 46.6081 149.113 46.6079 150.258V153.37H41.9419V143.88C41.9419 143.394 42.336 143 42.8218 143H62.8384ZM56.9771 149.739C57.2633 149.739 57.4954 149.972 57.4956 150.258V153.37H48.1636V150.258C48.1638 149.972 48.3953 149.74 48.6812 149.739H56.9771Z" fill="#31344E"/>
<rect x="32" y="143" width="4.09979" height="27.3319" rx="1.07373" fill="#31344E"/>
<path d="M439.961 171.009C439.961 171.495 439.567 171.889 439.081 171.889H437.888V173.963C437.888 174.536 437.423 175 436.851 175C436.278 175 435.813 174.536 435.813 173.963V171.889H418.184V173.963C418.184 174.536 417.719 175 417.146 175C416.574 175 416.109 174.535 416.109 173.963V171.889H414.917C414.431 171.889 414.036 171.495 414.036 171.009V169.814H439.961V171.009ZM438.358 158.407C439.816 158.407 440.999 159.589 440.999 161.047V168.777H413V161.047C413 159.589 414.182 158.407 415.64 158.407H438.358ZM437.007 147C437.493 147 437.887 147.394 437.887 147.88V157.37H433.22V154.258C433.22 153.113 432.292 152.185 431.146 152.185H422.851C421.705 152.185 420.777 153.113 420.776 154.258V157.37H416.11V147.88C416.11 147.394 416.504 147 416.99 147H437.007ZM431.146 153.739C431.432 153.74 431.665 153.972 431.665 154.258V157.37H422.332V154.258C422.332 153.972 422.564 153.739 422.851 153.739H431.146Z" fill="#707070"/>
<rect x="443.731" y="147" width="4.09978" height="27.3319" rx="1.07373" fill="#707070"/>
<path d="M42.7666 264.534C42.3519 264.534 42.0078 264.409 41.7344 264.158C41.4609 263.903 41.3242 263.491 41.3242 262.921C41.3242 262.529 41.388 262.21 41.5156 261.964C41.6432 261.718 41.8187 261.538 42.042 261.424C42.2653 261.305 42.5182 261.246 42.8008 261.246C43.0742 261.246 43.3203 261.301 43.5391 261.41C43.7578 261.515 43.931 261.686 44.0586 261.923C44.1862 262.16 44.25 262.472 44.25 262.859C44.25 263.242 44.1839 263.559 44.0518 263.81C43.9242 264.056 43.7487 264.238 43.5254 264.356C43.3021 264.475 43.0492 264.534 42.7666 264.534ZM54.9551 268L54.5244 258.006H55.6592L55.8779 264.261C55.8916 264.634 55.8916 265.02 55.8779 265.416C55.8688 265.808 55.8529 266.186 55.8301 266.551H55.8711C56.0033 266.195 56.1559 265.797 56.3291 265.354C56.5068 264.908 56.6937 264.482 56.8896 264.076L59.7334 258.006H60.9023L61.21 264.056C61.2373 264.475 61.2555 264.912 61.2646 265.368C61.2738 265.824 61.276 266.22 61.2715 266.558H61.3125C61.3945 266.325 61.4811 266.081 61.5723 265.826C61.6634 265.566 61.7591 265.302 61.8594 265.033C61.9596 264.764 62.0667 264.495 62.1807 264.227L64.8945 258.006H66.1182L61.5859 268H60.4102L60.082 261.376C60.0684 261.175 60.057 260.966 60.0479 260.747C60.0387 260.528 60.0319 260.312 60.0273 260.098C60.0273 259.883 60.0273 259.683 60.0273 259.496H59.9863C59.8997 259.77 59.7972 260.045 59.6787 260.323C59.5602 260.601 59.403 260.954 59.207 261.383L56.1377 268H54.9551ZM67.6426 268.137C67.237 268.137 66.8815 268.039 66.5762 267.843C66.2708 267.647 66.0339 267.357 65.8652 266.975C65.6966 266.592 65.6123 266.125 65.6123 265.573C65.6123 265.022 65.6693 264.491 65.7832 263.98C65.9017 263.47 66.068 262.996 66.2822 262.559C66.4964 262.121 66.7539 261.738 67.0547 261.41C67.36 261.082 67.7018 260.827 68.0801 260.645C68.4583 260.462 68.8662 260.371 69.3037 260.371C69.641 260.371 69.9326 260.435 70.1787 260.562C70.4294 260.69 70.6367 260.859 70.8008 261.068C70.9694 261.273 71.1016 261.492 71.1973 261.725H71.2656L71.7031 260.508H72.5713L70.9854 268H70.0762L70.2812 266.551H70.2266C70.0215 266.824 69.7868 267.082 69.5225 267.323C69.2581 267.565 68.9688 267.761 68.6543 267.911C68.3398 268.062 68.0026 268.137 67.6426 268.137ZM68.0117 267.193C68.3626 267.193 68.709 267.066 69.0508 266.811C69.3971 266.551 69.707 266.202 69.9805 265.765C70.2585 265.323 70.4704 264.826 70.6162 264.274C70.6891 264.006 70.737 263.759 70.7598 263.536C70.7871 263.308 70.8008 263.096 70.8008 262.9C70.8008 262.431 70.6755 262.053 70.4248 261.766C70.1787 261.474 69.8415 261.328 69.4131 261.328C69.1077 261.328 68.8206 261.406 68.5518 261.561C68.2829 261.711 68.0391 261.923 67.8203 262.196C67.6061 262.465 67.4215 262.78 67.2666 263.14C67.1117 263.495 66.9909 263.882 66.9043 264.302C66.8223 264.721 66.7812 265.152 66.7812 265.594C66.7812 266.118 66.8883 266.517 67.1025 266.79C67.3167 267.059 67.6198 267.193 68.0117 267.193ZM73.2344 268L75.5039 257.363H76.6387L74.376 268H73.2344ZM76.7754 268L79.0449 257.363H80.1797L77.917 268H76.7754ZM86.2842 268.137C85.874 268.137 85.5163 268.041 85.2109 267.85C84.9056 267.658 84.6686 267.373 84.5 266.995C84.3314 266.612 84.2471 266.138 84.2471 265.573C84.2471 265.035 84.3018 264.514 84.4111 264.008C84.5205 263.497 84.6777 263.023 84.8828 262.586C85.0924 262.148 85.3477 261.766 85.6484 261.438C85.9492 261.105 86.291 260.847 86.6738 260.665C87.0612 260.478 87.485 260.385 87.9453 260.385C88.2962 260.385 88.597 260.449 88.8477 260.576C89.0983 260.704 89.3057 260.87 89.4697 261.075C89.6383 261.276 89.7705 261.492 89.8662 261.725H89.9346C89.9619 261.515 89.9893 261.312 90.0166 261.116C90.0439 260.916 90.0758 260.713 90.1123 260.508C90.1533 260.303 90.1989 260.091 90.249 259.872L90.7754 257.363H91.9033L89.6475 268H88.7109L88.8955 266.551H88.8477C88.6289 266.833 88.3896 267.095 88.1299 267.337C87.8747 267.578 87.5944 267.772 87.2891 267.918C86.9837 268.064 86.6488 268.137 86.2842 268.137ZM86.667 267.193C86.8812 267.193 87.0977 267.141 87.3164 267.036C87.5397 266.931 87.7562 266.783 87.9658 266.592C88.1755 266.396 88.3714 266.166 88.5537 265.901C88.736 265.637 88.8955 265.345 89.0322 265.026C89.1735 264.707 89.2829 264.37 89.3604 264.015C89.4378 263.659 89.4766 263.292 89.4766 262.914C89.4766 262.431 89.3604 262.046 89.1279 261.759C88.8955 261.472 88.5241 261.328 88.0137 261.328C87.6992 261.328 87.4076 261.408 87.1387 261.567C86.8743 261.727 86.6351 261.946 86.4209 262.224C86.2067 262.502 86.0244 262.823 85.874 263.188C85.7282 263.548 85.6143 263.935 85.5322 264.35C85.4548 264.76 85.416 265.174 85.416 265.594C85.416 266.118 85.5208 266.517 85.7305 266.79C85.9401 267.059 86.2523 267.193 86.667 267.193ZM92.0605 268L93.6533 260.508H94.7949L93.2021 268H92.0605ZM94.6104 259.195C94.4281 259.195 94.2754 259.143 94.1523 259.038C94.0339 258.929 93.9746 258.776 93.9746 258.58C93.9746 258.43 94.0042 258.288 94.0635 258.156C94.1273 258.024 94.2161 257.919 94.3301 257.842C94.4486 257.76 94.5921 257.719 94.7607 257.719C94.9613 257.719 95.1117 257.771 95.2119 257.876C95.3122 257.981 95.3623 258.127 95.3623 258.313C95.3623 258.582 95.2848 258.797 95.1299 258.956C94.9749 259.116 94.8018 259.195 94.6104 259.195ZM95.6016 268L97.1943 260.508H98.124L97.9463 261.957H98.0146C98.2061 261.697 98.4111 261.447 98.6299 261.205C98.8486 260.959 99.097 260.758 99.375 260.604C99.6576 260.449 99.9811 260.371 100.346 260.371C100.482 260.371 100.621 260.38 100.763 260.398C100.904 260.412 101.036 260.437 101.159 260.474L100.913 261.492C100.79 261.465 100.669 261.444 100.551 261.431C100.437 261.417 100.318 261.41 100.195 261.41C99.849 261.41 99.5277 261.501 99.2314 261.684C98.9352 261.861 98.6686 262.101 98.4316 262.401C98.1992 262.702 98.001 263.037 97.8369 263.406C97.6774 263.775 97.5566 264.151 97.4746 264.534L96.7432 268H95.6016ZM104.14 268.137C103.579 268.137 103.096 268.025 102.69 267.802C102.285 267.574 101.973 267.25 101.754 266.831C101.54 266.407 101.433 265.901 101.433 265.313C101.433 264.707 101.519 264.113 101.692 263.529C101.87 262.941 102.123 262.41 102.451 261.937C102.779 261.458 103.174 261.077 103.634 260.795C104.099 260.512 104.618 260.371 105.192 260.371C105.881 260.371 106.402 260.526 106.758 260.836C107.113 261.141 107.291 261.563 107.291 262.101C107.291 262.479 107.202 262.827 107.024 263.146C106.851 263.465 106.582 263.743 106.218 263.98C105.858 264.213 105.4 264.395 104.844 264.527C104.292 264.655 103.638 264.719 102.882 264.719H102.622C102.613 264.801 102.604 264.892 102.595 264.992C102.59 265.092 102.588 265.186 102.588 265.272C102.588 265.874 102.734 266.346 103.025 266.688C103.317 267.025 103.755 267.193 104.338 267.193C104.698 267.193 105.037 267.143 105.356 267.043C105.68 266.938 106.017 266.801 106.368 266.633V267.61C106.031 267.765 105.691 267.893 105.35 267.993C105.008 268.089 104.604 268.137 104.14 268.137ZM102.786 263.789H102.95C103.534 263.789 104.069 263.739 104.557 263.639C105.044 263.534 105.436 263.365 105.732 263.133C106.029 262.896 106.177 262.581 106.177 262.189C106.177 261.934 106.09 261.725 105.917 261.561C105.744 261.396 105.479 261.314 105.124 261.314C104.81 261.314 104.5 261.412 104.194 261.608C103.889 261.8 103.611 262.08 103.36 262.449C103.114 262.818 102.923 263.265 102.786 263.789ZM111.174 268.137C110.618 268.137 110.13 268.032 109.711 267.822C109.296 267.608 108.973 267.294 108.74 266.879C108.512 266.464 108.398 265.949 108.398 265.334C108.398 264.801 108.455 264.288 108.569 263.796C108.688 263.304 108.859 262.85 109.082 262.436C109.305 262.021 109.576 261.659 109.896 261.349C110.215 261.039 110.577 260.799 110.982 260.631C111.393 260.458 111.839 260.371 112.322 260.371C112.646 260.371 112.967 260.403 113.286 260.467C113.61 260.526 113.901 260.613 114.161 260.727L113.84 261.684C113.648 261.592 113.423 261.51 113.163 261.438C112.903 261.365 112.625 261.328 112.329 261.328C111.914 261.328 111.536 261.433 111.194 261.643C110.857 261.852 110.565 262.144 110.319 262.518C110.078 262.887 109.891 263.311 109.759 263.789C109.627 264.268 109.561 264.778 109.561 265.32C109.561 265.708 109.629 266.043 109.766 266.325C109.902 266.603 110.098 266.817 110.354 266.968C110.613 267.118 110.923 267.193 111.283 267.193C111.616 267.193 111.928 267.148 112.22 267.057C112.516 266.965 112.805 266.856 113.088 266.729V267.699C112.837 267.827 112.55 267.932 112.227 268.014C111.908 268.096 111.557 268.137 111.174 268.137ZM116.588 268.137C116.091 268.137 115.676 268.018 115.344 267.781C115.016 267.54 114.852 267.127 114.852 266.544C114.852 266.403 114.861 266.25 114.879 266.086C114.897 265.917 114.927 265.744 114.968 265.566L115.85 261.376H114.694L114.804 260.85L116.048 260.371L116.868 258.785H117.545L117.169 260.508H119.097L118.919 261.376H116.998L116.109 265.58C116.077 265.708 116.048 265.844 116.021 265.99C115.998 266.136 115.986 266.275 115.986 266.407C115.986 266.635 116.046 266.826 116.164 266.981C116.283 267.132 116.481 267.207 116.759 267.207C116.932 267.207 117.096 267.191 117.251 267.159C117.41 267.127 117.579 267.082 117.757 267.022V267.897C117.643 267.952 117.47 268.005 117.237 268.055C117.009 268.109 116.793 268.137 116.588 268.137ZM119.062 268L121.332 257.363H122.467L120.204 268H119.062ZM121.824 271.37C121.601 271.37 121.421 271.356 121.284 271.329C121.143 271.302 121.006 271.268 120.874 271.227V270.304C120.997 270.336 121.134 270.363 121.284 270.386C121.435 270.413 121.594 270.427 121.763 270.427C122.136 270.427 122.458 270.308 122.727 270.071C122.995 269.834 123.257 269.486 123.513 269.025L124.039 268.089L122.891 260.508H124.039L124.559 264.356C124.604 264.657 124.641 264.981 124.668 265.327C124.695 265.669 124.716 265.995 124.729 266.305C124.743 266.61 124.75 266.858 124.75 267.05H124.791C124.855 266.899 124.951 266.683 125.078 266.4C125.206 266.113 125.342 265.815 125.488 265.505C125.634 265.195 125.764 264.935 125.878 264.726L128.127 260.508H129.344L124.545 269.299C124.299 269.755 124.046 270.135 123.786 270.44C123.531 270.75 123.246 270.983 122.932 271.138C122.617 271.293 122.248 271.37 121.824 271.37ZM132.659 268L134.266 260.474H135.271L135.093 261.916H135.106C135.28 261.679 135.487 261.44 135.729 261.198C135.975 260.952 136.259 260.747 136.583 260.583C136.911 260.414 137.283 260.33 137.697 260.33C138.098 260.33 138.442 260.405 138.729 260.556C139.017 260.701 139.238 260.916 139.393 261.198C139.548 261.476 139.625 261.813 139.625 262.21C139.625 262.42 139.609 262.632 139.577 262.846C139.545 263.06 139.511 263.251 139.475 263.42L138.477 268H137.267L138.278 263.27C138.319 263.064 138.351 262.889 138.374 262.743C138.401 262.597 138.415 262.461 138.415 262.333C138.415 262.014 138.328 261.772 138.155 261.608C137.982 261.444 137.727 261.362 137.39 261.362C137.057 261.362 136.706 261.476 136.337 261.704C135.968 261.932 135.626 262.292 135.312 262.784C134.997 263.272 134.753 263.91 134.58 264.698L133.876 268H132.659ZM143.774 268.137C143.214 268.137 142.731 268.025 142.325 267.802C141.92 267.574 141.607 267.25 141.389 266.831C141.174 266.407 141.067 265.901 141.067 265.313C141.067 264.707 141.154 264.113 141.327 263.529C141.505 262.941 141.758 262.41 142.086 261.937C142.414 261.458 142.808 261.077 143.269 260.795C143.733 260.512 144.253 260.371 144.827 260.371C145.515 260.371 146.037 260.526 146.393 260.836C146.748 261.141 146.926 261.563 146.926 262.101C146.926 262.479 146.837 262.827 146.659 263.146C146.486 263.465 146.217 263.743 145.853 263.98C145.493 264.213 145.035 264.395 144.479 264.527C143.927 264.655 143.273 264.719 142.517 264.719H142.257C142.248 264.801 142.239 264.892 142.229 264.992C142.225 265.092 142.223 265.186 142.223 265.272C142.223 265.874 142.368 266.346 142.66 266.688C142.952 267.025 143.389 267.193 143.973 267.193C144.333 267.193 144.672 267.143 144.991 267.043C145.315 266.938 145.652 266.801 146.003 266.633V267.61C145.666 267.765 145.326 267.893 144.984 267.993C144.643 268.089 144.239 268.137 143.774 268.137ZM142.421 263.789H142.585C143.168 263.789 143.704 263.739 144.191 263.639C144.679 263.534 145.071 263.365 145.367 263.133C145.663 262.896 145.812 262.581 145.812 262.189C145.812 261.934 145.725 261.725 145.552 261.561C145.379 261.396 145.114 261.314 144.759 261.314C144.444 261.314 144.134 261.412 143.829 261.608C143.524 261.8 143.246 262.08 142.995 262.449C142.749 262.818 142.558 263.265 142.421 263.789ZM146.837 268L150.098 264.145L148.471 260.508H149.619L150.822 263.338L153.105 260.508H154.425L151.294 264.192L153.03 268H151.868L150.556 265.02L148.156 268H146.837ZM156.605 268.137C156.109 268.137 155.694 268.018 155.361 267.781C155.033 267.54 154.869 267.127 154.869 266.544C154.869 266.403 154.878 266.25 154.896 266.086C154.915 265.917 154.944 265.744 154.985 265.566L155.867 261.376H154.712L154.821 260.85L156.065 260.371L156.886 258.785H157.562L157.187 260.508H159.114L158.937 261.376H157.016L156.127 265.58C156.095 265.708 156.065 265.844 156.038 265.99C156.015 266.136 156.004 266.275 156.004 266.407C156.004 266.635 156.063 266.826 156.182 266.981C156.3 267.132 156.498 267.207 156.776 267.207C156.95 267.207 157.114 267.191 157.269 267.159C157.428 267.127 157.597 267.082 157.774 267.022V267.897C157.66 267.952 157.487 268.005 157.255 268.055C157.027 268.109 156.811 268.137 156.605 268.137ZM164.863 268.137C164.367 268.137 163.952 268.018 163.619 267.781C163.291 267.54 163.127 267.127 163.127 266.544C163.127 266.403 163.136 266.25 163.154 266.086C163.173 265.917 163.202 265.744 163.243 265.566L164.125 261.376H162.97L163.079 260.85L164.323 260.371L165.144 258.785H165.82L165.444 260.508H167.372L167.194 261.376H165.273L164.385 265.58C164.353 265.708 164.323 265.844 164.296 265.99C164.273 266.136 164.262 266.275 164.262 266.407C164.262 266.635 164.321 266.826 164.439 266.981C164.558 267.132 164.756 267.207 165.034 267.207C165.207 267.207 165.371 267.191 165.526 267.159C165.686 267.127 165.854 267.082 166.032 267.022V267.897C165.918 267.952 165.745 268.005 165.513 268.055C165.285 268.109 165.068 268.137 164.863 268.137ZM170.407 268.109C169.833 268.109 169.339 267.993 168.924 267.761C168.509 267.524 168.19 267.191 167.967 266.763C167.748 266.33 167.639 265.819 167.639 265.231C167.639 264.757 167.691 264.29 167.796 263.83C167.901 263.365 168.056 262.928 168.261 262.518C168.466 262.103 168.719 261.738 169.02 261.424C169.325 261.105 169.676 260.856 170.072 260.679C170.469 260.496 170.911 260.405 171.398 260.405C171.982 260.405 172.479 260.524 172.889 260.761C173.303 260.993 173.62 261.326 173.839 261.759C174.062 262.192 174.174 262.704 174.174 263.297C174.174 263.762 174.121 264.224 174.017 264.685C173.916 265.145 173.764 265.582 173.559 265.997C173.358 266.407 173.105 266.772 172.8 267.091C172.499 267.405 172.148 267.654 171.747 267.836C171.351 268.018 170.904 268.109 170.407 268.109ZM170.476 267.166C170.758 267.166 171.027 267.107 171.282 266.988C171.537 266.87 171.77 266.699 171.979 266.476C172.189 266.248 172.369 265.972 172.52 265.648C172.674 265.32 172.793 264.949 172.875 264.534C172.962 264.119 173.005 263.664 173.005 263.167C173.005 262.871 172.952 262.584 172.848 262.306C172.743 262.028 172.574 261.8 172.342 261.622C172.109 261.44 171.799 261.349 171.412 261.349C171.093 261.349 170.797 261.415 170.523 261.547C170.255 261.679 170.013 261.866 169.799 262.107C169.585 262.349 169.402 262.634 169.252 262.962C169.106 263.29 168.992 263.65 168.91 264.042C168.833 264.434 168.794 264.846 168.794 265.279C168.794 265.876 168.94 266.341 169.231 266.674C169.523 267.002 169.938 267.166 170.476 267.166ZM181.01 268.137C180.513 268.137 180.098 268.018 179.766 267.781C179.438 267.54 179.273 267.127 179.273 266.544C179.273 266.403 179.283 266.25 179.301 266.086C179.319 265.917 179.349 265.744 179.39 265.566L180.271 261.376H179.116L179.226 260.85L180.47 260.371L181.29 258.785H181.967L181.591 260.508H183.519L183.341 261.376H181.42L180.531 265.58C180.499 265.708 180.47 265.844 180.442 265.99C180.42 266.136 180.408 266.275 180.408 266.407C180.408 266.635 180.467 266.826 180.586 266.981C180.704 267.132 180.903 267.207 181.181 267.207C181.354 267.207 181.518 267.191 181.673 267.159C181.832 267.127 182.001 267.082 182.179 267.022V267.897C182.065 267.952 181.892 268.005 181.659 268.055C181.431 268.109 181.215 268.137 181.01 268.137ZM183.498 268L185.754 257.363H186.889L186.287 260.125C186.251 260.321 186.205 260.524 186.15 260.733C186.1 260.938 186.048 261.146 185.993 261.355C185.938 261.561 185.884 261.763 185.829 261.964H185.897C186.075 261.722 186.285 261.481 186.526 261.239C186.772 260.998 187.057 260.795 187.381 260.631C187.709 260.467 188.078 260.385 188.488 260.385C188.88 260.385 189.215 260.455 189.493 260.597C189.776 260.738 189.992 260.95 190.143 261.232C190.298 261.51 190.375 261.861 190.375 262.285C190.375 262.463 190.361 262.645 190.334 262.832C190.307 263.014 190.272 263.206 190.231 263.406L189.247 268H188.105L189.104 263.283C189.149 263.078 189.181 262.903 189.199 262.757C189.217 262.611 189.227 262.483 189.227 262.374C189.227 262.041 189.142 261.784 188.974 261.602C188.81 261.419 188.545 261.328 188.181 261.328C187.839 261.328 187.479 261.444 187.101 261.677C186.727 261.905 186.381 262.267 186.062 262.764C185.747 263.256 185.506 263.901 185.337 264.698L184.64 268H183.498ZM194.565 268.137C194.005 268.137 193.522 268.025 193.116 267.802C192.711 267.574 192.398 267.25 192.18 266.831C191.965 266.407 191.858 265.901 191.858 265.313C191.858 264.707 191.945 264.113 192.118 263.529C192.296 262.941 192.549 262.41 192.877 261.937C193.205 261.458 193.599 261.077 194.06 260.795C194.524 260.512 195.044 260.371 195.618 260.371C196.306 260.371 196.828 260.526 197.184 260.836C197.539 261.141 197.717 261.563 197.717 262.101C197.717 262.479 197.628 262.827 197.45 263.146C197.277 263.465 197.008 263.743 196.644 263.98C196.284 264.213 195.826 264.395 195.27 264.527C194.718 264.655 194.064 264.719 193.308 264.719H193.048C193.039 264.801 193.03 264.892 193.021 264.992C193.016 265.092 193.014 265.186 193.014 265.272C193.014 265.874 193.16 266.346 193.451 266.688C193.743 267.025 194.18 267.193 194.764 267.193C195.124 267.193 195.463 267.143 195.782 267.043C196.106 266.938 196.443 266.801 196.794 266.633V267.61C196.457 267.765 196.117 267.893 195.775 267.993C195.434 268.089 195.03 268.137 194.565 268.137ZM193.212 263.789H193.376C193.959 263.789 194.495 263.739 194.982 263.639C195.47 263.534 195.862 263.365 196.158 263.133C196.454 262.896 196.603 262.581 196.603 262.189C196.603 261.934 196.516 261.725 196.343 261.561C196.17 261.396 195.905 261.314 195.55 261.314C195.235 261.314 194.925 261.412 194.62 261.608C194.315 261.8 194.037 262.08 193.786 262.449C193.54 262.818 193.349 263.265 193.212 263.789ZM202.16 268L204.43 257.363H205.564L203.302 268H202.16ZM208.716 268.137C208.155 268.137 207.672 268.025 207.267 267.802C206.861 267.574 206.549 267.25 206.33 266.831C206.116 266.407 206.009 265.901 206.009 265.313C206.009 264.707 206.095 264.113 206.269 263.529C206.446 262.941 206.699 262.41 207.027 261.937C207.355 261.458 207.75 261.077 208.21 260.795C208.675 260.512 209.194 260.371 209.769 260.371C210.457 260.371 210.979 260.526 211.334 260.836C211.689 261.141 211.867 261.563 211.867 262.101C211.867 262.479 211.778 262.827 211.601 263.146C211.427 263.465 211.159 263.743 210.794 263.98C210.434 264.213 209.976 264.395 209.42 264.527C208.868 264.655 208.215 264.719 207.458 264.719H207.198C207.189 264.801 207.18 264.892 207.171 264.992C207.166 265.092 207.164 265.186 207.164 265.272C207.164 265.874 207.31 266.346 207.602 266.688C207.893 267.025 208.331 267.193 208.914 267.193C209.274 267.193 209.614 267.143 209.933 267.043C210.256 266.938 210.593 266.801 210.944 266.633V267.61C210.607 267.765 210.268 267.893 209.926 267.993C209.584 268.089 209.181 268.137 208.716 268.137ZM207.362 263.789H207.526C208.11 263.789 208.645 263.739 209.133 263.639C209.62 263.534 210.012 263.365 210.309 263.133C210.605 262.896 210.753 262.581 210.753 262.189C210.753 261.934 210.666 261.725 210.493 261.561C210.32 261.396 210.056 261.314 209.7 261.314C209.386 261.314 209.076 261.412 208.771 261.608C208.465 261.8 208.187 262.08 207.937 262.449C207.69 262.818 207.499 263.265 207.362 263.789ZM211.587 271.363C211.409 271.363 211.245 271.35 211.095 271.322C210.944 271.295 210.812 271.261 210.698 271.22V270.256C210.821 270.301 210.947 270.338 211.074 270.365C211.202 270.397 211.339 270.413 211.484 270.413C211.822 270.413 212.084 270.279 212.271 270.01C212.457 269.741 212.608 269.351 212.722 268.841L214.294 261.376H212.988L213.084 260.891L214.472 260.474L214.636 259.749C214.741 259.284 214.866 258.895 215.012 258.58C215.162 258.261 215.338 258.008 215.538 257.821C215.739 257.63 215.971 257.493 216.235 257.411C216.504 257.329 216.812 257.288 217.158 257.288C217.386 257.288 217.618 257.315 217.855 257.37C218.097 257.42 218.293 257.479 218.443 257.548L218.149 258.416C218.013 258.366 217.867 258.323 217.712 258.286C217.557 258.245 217.388 258.225 217.206 258.225C216.819 258.225 216.513 258.334 216.29 258.553C216.071 258.767 215.898 259.168 215.771 259.756L215.6 260.508H217.213L217.049 261.376H215.429L213.829 268.971C213.72 269.472 213.572 269.9 213.385 270.256C213.198 270.616 212.959 270.889 212.667 271.076C212.375 271.268 212.015 271.363 211.587 271.363ZM219.195 268.137C218.699 268.137 218.284 268.018 217.951 267.781C217.623 267.54 217.459 267.127 217.459 266.544C217.459 266.403 217.468 266.25 217.486 266.086C217.505 265.917 217.534 265.744 217.575 265.566L218.457 261.376H217.302L217.411 260.85L218.655 260.371L219.476 258.785H220.152L219.776 260.508H221.704L221.526 261.376H219.605L218.717 265.58C218.685 265.708 218.655 265.844 218.628 265.99C218.605 266.136 218.594 266.275 218.594 266.407C218.594 266.635 218.653 266.826 218.771 266.981C218.89 267.132 219.088 267.207 219.366 267.207C219.539 267.207 219.703 267.191 219.858 267.159C220.018 267.127 220.187 267.082 220.364 267.022V267.897C220.25 267.952 220.077 268.005 219.845 268.055C219.617 268.109 219.4 268.137 219.195 268.137ZM227.104 268.137C226.649 268.137 226.248 268.091 225.901 268C225.56 267.909 225.261 267.795 225.006 267.658V266.605C225.247 266.751 225.553 266.888 225.922 267.016C226.296 267.143 226.678 267.207 227.07 267.207C227.458 267.207 227.779 267.155 228.034 267.05C228.294 266.945 228.488 266.801 228.615 266.619C228.747 266.432 228.813 266.216 228.813 265.97C228.813 265.774 228.77 265.605 228.684 265.464C228.602 265.318 228.465 265.177 228.273 265.04C228.087 264.903 227.836 264.746 227.521 264.568C227.171 264.372 226.874 264.174 226.633 263.974C226.391 263.773 226.207 263.554 226.079 263.317C225.956 263.076 225.895 262.796 225.895 262.477C225.895 262.048 225.999 261.677 226.209 261.362C226.419 261.048 226.713 260.804 227.091 260.631C227.474 260.458 227.92 260.371 228.431 260.371C228.882 260.371 229.299 260.424 229.682 260.528C230.064 260.629 230.395 260.745 230.673 260.877L230.304 261.786C230.067 261.672 229.796 261.567 229.49 261.472C229.185 261.376 228.832 261.328 228.431 261.328C228.002 261.328 227.66 261.426 227.405 261.622C227.155 261.818 227.029 262.082 227.029 262.415C227.029 262.588 227.066 262.743 227.139 262.88C227.216 263.017 227.348 263.153 227.535 263.29C227.722 263.422 227.977 263.577 228.301 263.755C228.615 263.937 228.898 264.124 229.148 264.315C229.404 264.502 229.604 264.719 229.75 264.965C229.9 265.206 229.976 265.505 229.976 265.86C229.976 266.348 229.859 266.763 229.627 267.104C229.395 267.442 229.062 267.699 228.629 267.877C228.201 268.05 227.692 268.137 227.104 268.137ZM231.363 268L232.956 260.508H234.098L232.505 268H231.363ZM233.913 259.195C233.731 259.195 233.578 259.143 233.455 259.038C233.337 258.929 233.277 258.776 233.277 258.58C233.277 258.43 233.307 258.288 233.366 258.156C233.43 258.024 233.519 257.919 233.633 257.842C233.751 257.76 233.895 257.719 234.063 257.719C234.264 257.719 234.414 257.771 234.515 257.876C234.615 257.981 234.665 258.127 234.665 258.313C234.665 258.582 234.588 258.797 234.433 258.956C234.278 259.116 234.104 259.195 233.913 259.195ZM237.222 268.137C236.812 268.137 236.454 268.041 236.148 267.85C235.843 267.658 235.606 267.373 235.438 266.995C235.269 266.612 235.185 266.138 235.185 265.573C235.185 265.035 235.239 264.514 235.349 264.008C235.458 263.497 235.615 263.023 235.82 262.586C236.03 262.148 236.285 261.766 236.586 261.438C236.887 261.105 237.229 260.847 237.611 260.665C237.999 260.478 238.423 260.385 238.883 260.385C239.234 260.385 239.535 260.449 239.785 260.576C240.036 260.704 240.243 260.87 240.407 261.075C240.576 261.276 240.708 261.492 240.804 261.725H240.872C240.899 261.515 240.927 261.312 240.954 261.116C240.981 260.916 241.013 260.713 241.05 260.508C241.091 260.303 241.136 260.091 241.187 259.872L241.713 257.363H242.841L240.585 268H239.648L239.833 266.551H239.785C239.566 266.833 239.327 267.095 239.067 267.337C238.812 267.578 238.532 267.772 238.227 267.918C237.921 268.064 237.586 268.137 237.222 268.137ZM237.604 267.193C237.819 267.193 238.035 267.141 238.254 267.036C238.477 266.931 238.694 266.783 238.903 266.592C239.113 266.396 239.309 266.166 239.491 265.901C239.674 265.637 239.833 265.345 239.97 265.026C240.111 264.707 240.22 264.37 240.298 264.015C240.375 263.659 240.414 263.292 240.414 262.914C240.414 262.431 240.298 262.046 240.065 261.759C239.833 261.472 239.462 261.328 238.951 261.328C238.637 261.328 238.345 261.408 238.076 261.567C237.812 261.727 237.573 261.946 237.358 262.224C237.144 262.502 236.962 262.823 236.812 263.188C236.666 263.548 236.552 263.935 236.47 264.35C236.392 264.76 236.354 265.174 236.354 265.594C236.354 266.118 236.458 266.517 236.668 266.79C236.878 267.059 237.19 267.193 237.604 267.193ZM245.999 268.137C245.438 268.137 244.955 268.025 244.55 267.802C244.144 267.574 243.832 267.25 243.613 266.831C243.399 266.407 243.292 265.901 243.292 265.313C243.292 264.707 243.379 264.113 243.552 263.529C243.729 262.941 243.982 262.41 244.311 261.937C244.639 261.458 245.033 261.077 245.493 260.795C245.958 260.512 246.478 260.371 247.052 260.371C247.74 260.371 248.262 260.526 248.617 260.836C248.973 261.141 249.15 261.563 249.15 262.101C249.15 262.479 249.062 262.827 248.884 263.146C248.711 263.465 248.442 263.743 248.077 263.98C247.717 264.213 247.259 264.395 246.703 264.527C246.152 264.655 245.498 264.719 244.741 264.719H244.481C244.472 264.801 244.463 264.892 244.454 264.992C244.45 265.092 244.447 265.186 244.447 265.272C244.447 265.874 244.593 266.346 244.885 266.688C245.176 267.025 245.614 267.193 246.197 267.193C246.557 267.193 246.897 267.143 247.216 267.043C247.539 266.938 247.877 266.801 248.228 266.633V267.61C247.89 267.765 247.551 267.893 247.209 267.993C246.867 268.089 246.464 268.137 245.999 268.137ZM244.646 263.789H244.81C245.393 263.789 245.928 263.739 246.416 263.639C246.904 263.534 247.296 263.365 247.592 263.133C247.888 262.896 248.036 262.581 248.036 262.189C248.036 261.934 247.95 261.725 247.776 261.561C247.603 261.396 247.339 261.314 246.983 261.314C246.669 261.314 246.359 261.412 246.054 261.608C245.748 261.8 245.47 262.08 245.22 262.449C244.974 262.818 244.782 263.265 244.646 263.789ZM256.663 268.109C256.089 268.109 255.594 267.993 255.18 267.761C254.765 267.524 254.446 267.191 254.223 266.763C254.004 266.33 253.895 265.819 253.895 265.231C253.895 264.757 253.947 264.29 254.052 263.83C254.157 263.365 254.312 262.928 254.517 262.518C254.722 262.103 254.975 261.738 255.275 261.424C255.581 261.105 255.932 260.856 256.328 260.679C256.725 260.496 257.167 260.405 257.654 260.405C258.238 260.405 258.734 260.524 259.145 260.761C259.559 260.993 259.876 261.326 260.095 261.759C260.318 262.192 260.43 262.704 260.43 263.297C260.43 263.762 260.377 264.224 260.272 264.685C260.172 265.145 260.02 265.582 259.814 265.997C259.614 266.407 259.361 266.772 259.056 267.091C258.755 267.405 258.404 267.654 258.003 267.836C257.606 268.018 257.16 268.109 256.663 268.109ZM256.731 267.166C257.014 267.166 257.283 267.107 257.538 266.988C257.793 266.87 258.026 266.699 258.235 266.476C258.445 266.248 258.625 265.972 258.775 265.648C258.93 265.32 259.049 264.949 259.131 264.534C259.217 264.119 259.261 263.664 259.261 263.167C259.261 262.871 259.208 262.584 259.104 262.306C258.999 262.028 258.83 261.8 258.598 261.622C258.365 261.44 258.055 261.349 257.668 261.349C257.349 261.349 257.053 261.415 256.779 261.547C256.51 261.679 256.269 261.866 256.055 262.107C255.84 262.349 255.658 262.634 255.508 262.962C255.362 263.29 255.248 263.65 255.166 264.042C255.089 264.434 255.05 264.846 255.05 265.279C255.05 265.876 255.196 266.341 255.487 266.674C255.779 267.002 256.194 267.166 256.731 267.166ZM260.396 271.363C260.218 271.363 260.054 271.35 259.903 271.322C259.753 271.295 259.621 271.261 259.507 271.22V270.256C259.63 270.301 259.755 270.338 259.883 270.365C260.01 270.397 260.147 270.413 260.293 270.413C260.63 270.413 260.892 270.279 261.079 270.01C261.266 269.741 261.416 269.351 261.53 268.841L263.103 261.376H261.797L261.893 260.891L263.28 260.474L263.444 259.749C263.549 259.284 263.674 258.895 263.82 258.58C263.971 258.261 264.146 258.008 264.347 257.821C264.547 257.63 264.78 257.493 265.044 257.411C265.313 257.329 265.62 257.288 265.967 257.288C266.195 257.288 266.427 257.315 266.664 257.37C266.906 257.42 267.102 257.479 267.252 257.548L266.958 258.416C266.821 258.366 266.675 258.323 266.521 258.286C266.366 258.245 266.197 258.225 266.015 258.225C265.627 258.225 265.322 258.334 265.099 258.553C264.88 258.767 264.707 259.168 264.579 259.756L264.408 260.508H266.021L265.857 261.376H264.237L262.638 268.971C262.528 269.472 262.38 269.9 262.193 270.256C262.007 270.616 261.767 270.889 261.476 271.076C261.184 271.268 260.824 271.363 260.396 271.363ZM271.641 268.137C271.144 268.137 270.729 268.018 270.396 267.781C270.068 267.54 269.904 267.127 269.904 266.544C269.904 266.403 269.913 266.25 269.932 266.086C269.95 265.917 269.979 265.744 270.021 265.566L270.902 261.376H269.747L269.856 260.85L271.101 260.371L271.921 258.785H272.598L272.222 260.508H274.149L273.972 261.376H272.051L271.162 265.58C271.13 265.708 271.101 265.844 271.073 265.99C271.05 266.136 271.039 266.275 271.039 266.407C271.039 266.635 271.098 266.826 271.217 266.981C271.335 267.132 271.534 267.207 271.812 267.207C271.985 267.207 272.149 267.191 272.304 267.159C272.463 267.127 272.632 267.082 272.81 267.022V267.897C272.696 267.952 272.522 268.005 272.29 268.055C272.062 268.109 271.846 268.137 271.641 268.137ZM274.129 268L276.385 257.363H277.52L276.918 260.125C276.882 260.321 276.836 260.524 276.781 260.733C276.731 260.938 276.679 261.146 276.624 261.355C276.569 261.561 276.515 261.763 276.46 261.964H276.528C276.706 261.722 276.916 261.481 277.157 261.239C277.403 260.998 277.688 260.795 278.012 260.631C278.34 260.467 278.709 260.385 279.119 260.385C279.511 260.385 279.846 260.455 280.124 260.597C280.407 260.738 280.623 260.95 280.773 261.232C280.928 261.51 281.006 261.861 281.006 262.285C281.006 262.463 280.992 262.645 280.965 262.832C280.938 263.014 280.903 263.206 280.862 263.406L279.878 268H278.736L279.734 263.283C279.78 263.078 279.812 262.903 279.83 262.757C279.848 262.611 279.857 262.483 279.857 262.374C279.857 262.041 279.773 261.784 279.604 261.602C279.44 261.419 279.176 261.328 278.812 261.328C278.47 261.328 278.11 261.444 277.731 261.677C277.358 261.905 277.011 262.267 276.692 262.764C276.378 263.256 276.136 263.901 275.968 264.698L275.271 268H274.129ZM285.196 268.137C284.636 268.137 284.153 268.025 283.747 267.802C283.341 267.574 283.029 267.25 282.811 266.831C282.596 266.407 282.489 265.901 282.489 265.313C282.489 264.707 282.576 264.113 282.749 263.529C282.927 262.941 283.18 262.41 283.508 261.937C283.836 261.458 284.23 261.077 284.69 260.795C285.155 260.512 285.675 260.371 286.249 260.371C286.937 260.371 287.459 260.526 287.814 260.836C288.17 261.141 288.348 261.563 288.348 262.101C288.348 262.479 288.259 262.827 288.081 263.146C287.908 263.465 287.639 263.743 287.274 263.98C286.914 264.213 286.456 264.395 285.9 264.527C285.349 264.655 284.695 264.719 283.938 264.719H283.679C283.67 264.801 283.66 264.892 283.651 264.992C283.647 265.092 283.645 265.186 283.645 265.272C283.645 265.874 283.79 266.346 284.082 266.688C284.374 267.025 284.811 267.193 285.395 267.193C285.755 267.193 286.094 267.143 286.413 267.043C286.737 266.938 287.074 266.801 287.425 266.633V267.61C287.088 267.765 286.748 267.893 286.406 267.993C286.064 268.089 285.661 268.137 285.196 268.137ZM283.843 263.789H284.007C284.59 263.789 285.126 263.739 285.613 263.639C286.101 263.534 286.493 263.365 286.789 263.133C287.085 262.896 287.233 262.581 287.233 262.189C287.233 261.934 287.147 261.725 286.974 261.561C286.8 261.396 286.536 261.314 286.181 261.314C285.866 261.314 285.556 261.412 285.251 261.608C284.946 261.8 284.668 262.08 284.417 262.449C284.171 262.818 283.979 263.265 283.843 263.789ZM296.127 268.137C295.776 268.137 295.471 268.075 295.211 267.952C294.956 267.825 294.744 267.658 294.575 267.453C294.407 267.248 294.274 267.027 294.179 266.79H294.117L293.666 268H292.805L295.061 257.363H296.195L295.648 259.934C295.585 260.239 295.516 260.542 295.443 260.843C295.37 261.139 295.304 261.392 295.245 261.602C295.19 261.807 295.154 261.927 295.136 261.964H295.19C295.409 261.686 295.644 261.428 295.895 261.191C296.15 260.95 296.428 260.756 296.729 260.61C297.034 260.46 297.367 260.385 297.727 260.385C298.146 260.385 298.51 260.483 298.82 260.679C299.13 260.87 299.369 261.155 299.538 261.533C299.711 261.911 299.798 262.381 299.798 262.941C299.798 263.479 299.743 264.003 299.634 264.514C299.529 265.02 299.374 265.491 299.169 265.929C298.964 266.366 298.713 266.751 298.417 267.084C298.121 267.412 297.779 267.67 297.392 267.856C297.009 268.043 296.587 268.137 296.127 268.137ZM296.045 267.193C296.364 267.193 296.656 267.114 296.92 266.954C297.189 266.795 297.428 266.578 297.638 266.305C297.852 266.027 298.032 265.705 298.178 265.341C298.328 264.976 298.442 264.589 298.52 264.179C298.597 263.769 298.636 263.352 298.636 262.928C298.636 262.399 298.529 262 298.314 261.731C298.105 261.463 297.79 261.328 297.371 261.328C297.152 261.328 296.929 261.383 296.701 261.492C296.478 261.597 296.261 261.747 296.052 261.943C295.842 262.139 295.646 262.369 295.464 262.634C295.286 262.898 295.129 263.19 294.992 263.509C294.86 263.828 294.755 264.165 294.678 264.521C294.6 264.876 294.562 265.238 294.562 265.607C294.562 266.086 294.682 266.471 294.924 266.763C295.17 267.05 295.544 267.193 296.045 267.193ZM303.899 268.137C303.339 268.137 302.856 268.025 302.45 267.802C302.045 267.574 301.732 267.25 301.514 266.831C301.299 266.407 301.192 265.901 301.192 265.313C301.192 264.707 301.279 264.113 301.452 263.529C301.63 262.941 301.883 262.41 302.211 261.937C302.539 261.458 302.933 261.077 303.394 260.795C303.858 260.512 304.378 260.371 304.952 260.371C305.64 260.371 306.162 260.526 306.518 260.836C306.873 261.141 307.051 261.563 307.051 262.101C307.051 262.479 306.962 262.827 306.784 263.146C306.611 263.465 306.342 263.743 305.978 263.98C305.618 264.213 305.16 264.395 304.604 264.527C304.052 264.655 303.398 264.719 302.642 264.719H302.382C302.373 264.801 302.364 264.892 302.354 264.992C302.35 265.092 302.348 265.186 302.348 265.272C302.348 265.874 302.493 266.346 302.785 266.688C303.077 267.025 303.514 267.193 304.098 267.193C304.458 267.193 304.797 267.143 305.116 267.043C305.44 266.938 305.777 266.801 306.128 266.633V267.61C305.791 267.765 305.451 267.893 305.109 267.993C304.768 268.089 304.364 268.137 303.899 268.137ZM302.546 263.789H302.71C303.293 263.789 303.829 263.739 304.316 263.639C304.804 263.534 305.196 263.365 305.492 263.133C305.788 262.896 305.937 262.581 305.937 262.189C305.937 261.934 305.85 261.725 305.677 261.561C305.504 261.396 305.239 261.314 304.884 261.314C304.569 261.314 304.259 261.412 303.954 261.608C303.649 261.8 303.371 262.08 303.12 262.449C302.874 262.818 302.683 263.265 302.546 263.789ZM310.188 268.137C309.778 268.137 309.421 268.041 309.115 267.85C308.81 267.658 308.573 267.373 308.404 266.995C308.236 266.612 308.151 266.138 308.151 265.573C308.151 265.035 308.206 264.514 308.315 264.008C308.425 263.497 308.582 263.023 308.787 262.586C308.997 262.148 309.252 261.766 309.553 261.438C309.854 261.105 310.195 260.847 310.578 260.665C310.965 260.478 311.389 260.385 311.85 260.385C312.201 260.385 312.501 260.449 312.752 260.576C313.003 260.704 313.21 260.87 313.374 261.075C313.543 261.276 313.675 261.492 313.771 261.725H313.839C313.866 261.515 313.894 261.312 313.921 261.116C313.948 260.916 313.98 260.713 314.017 260.508C314.058 260.303 314.103 260.091 314.153 259.872L314.68 257.363H315.808L313.552 268H312.615L312.8 266.551H312.752C312.533 266.833 312.294 267.095 312.034 267.337C311.779 267.578 311.499 267.772 311.193 267.918C310.888 268.064 310.553 268.137 310.188 268.137ZM310.571 267.193C310.785 267.193 311.002 267.141 311.221 267.036C311.444 266.931 311.66 266.783 311.87 266.592C312.08 266.396 312.276 266.166 312.458 265.901C312.64 265.637 312.8 265.345 312.937 265.026C313.078 264.707 313.187 264.37 313.265 264.015C313.342 263.659 313.381 263.292 313.381 262.914C313.381 262.431 313.265 262.046 313.032 261.759C312.8 261.472 312.428 261.328 311.918 261.328C311.604 261.328 311.312 261.408 311.043 261.567C310.779 261.727 310.539 261.946 310.325 262.224C310.111 262.502 309.929 262.823 309.778 263.188C309.632 263.548 309.519 263.935 309.437 264.35C309.359 264.76 309.32 265.174 309.32 265.594C309.32 266.118 309.425 266.517 309.635 266.79C309.844 267.059 310.157 267.193 310.571 267.193ZM316.546 268.191C316.332 268.191 316.165 268.13 316.047 268.007C315.928 267.888 315.869 267.72 315.869 267.501C315.869 267.214 315.949 266.961 316.108 266.742C316.272 266.519 316.528 266.407 316.874 266.407C317.065 266.407 317.22 266.466 317.339 266.585C317.457 266.703 317.517 266.877 317.517 267.104C317.517 267.373 317.437 267.622 317.277 267.85C317.118 268.077 316.874 268.191 316.546 268.191Z" fill="#707070"/>
<defs>
<filter id="filter0_d_6176_37157" x="12" y="382" width="456" height="88" filterUnits="userSpaceOnUse" color-interpolation-filters="sRGB">
<feFlood flood-opacity="0" result="BackgroundImageFix"/>
<feColorMatrix in="SourceAlpha" type="matrix" values="0 0 0 0 0 0 0 0 0 0 0 0 0 0 0 0 0 0 127 0" result="hardAlpha"/>
<feOffset dy="2"/>
<feGaussianBlur stdDeviation="2"/>
<feComposite in2="hardAlpha" operator="out"/>
<feColorMatrix type="matrix" values="0 0 0 0 0 0 0 0 0 0 0 0 0 0 0 0 0 0 0.25 0"/>
<feBlend mode="normal" in2="BackgroundImageFix" result="effect1_dropShadow_6176_37157"/>
<feBlend mode="normal" in="SourceGraphic" in2="effect1_dropShadow_6176_37157" result="shape"/>
</filter>
<filter id="filter1_d_6176_37157" x="12" y="76" width="460" height="228" filterUnits="userSpaceOnUse" color-interpolation-filters="sRGB">
<feFlood flood-opacity="0" result="BackgroundImageFix"/>
<feColorMatrix in="SourceAlpha" type="matrix" values="0 0 0 0 0 0 0 0 0 0 0 0 0 0 0 0 0 0 127 0" result="hardAlpha"/>
<feOffset dx="2" dy="2"/>
<feGaussianBlur stdDeviation="3"/>
<feComposite in2="hardAlpha" operator="out"/>
<feColorMatrix type="matrix" values="0 0 0 0 0 0 0 0 0 0 0 0 0 0 0 0 0 0 0.25 0"/>
<feBlend mode="normal" in2="BackgroundImageFix" result="effect1_dropShadow_6176_37157"/>
<feBlend mode="normal" in="SourceGraphic" in2="effect1_dropShadow_6176_37157" result="shape"/>
</filter>
<filter id="filter2_d_6176_37157" x="27" y="180" width="42" height="42" filterUnits="userSpaceOnUse" color-interpolation-filters="sRGB">
<feFlood flood-opacity="0" result="BackgroundImageFix"/>
<feColorMatrix in="SourceAlpha" type="matrix" values="0 0 0 0 0 0 0 0 0 0 0 0 0 0 0 0 0 0 127 0" result="hardAlpha"/>
<feOffset dy="2"/>
<feGaussianBlur stdDeviation="2"/>
<feComposite in2="hardAlpha" operator="out"/>
<feColorMatrix type="matrix" values="0 0 0 0 0 0 0 0 0 0 0 0 0 0 0 0 0 0 0.25 0"/>
<feBlend mode="normal" in2="BackgroundImageFix" result="effect1_dropShadow_6176_37157"/>
<feBlend mode="normal" in="SourceGraphic" in2="effect1_dropShadow_6176_37157" result="shape"/>
</filter>
</defs>
</svg>
