<svg width="480" height="480" viewBox="0 0 480 480" fill="none" xmlns="http://www.w3.org/2000/svg">
<rect width="480" height="480" fill="#F6F6F6"/>
<mask id="path-1-inside-1_6176_35427" fill="white">
<path d="M0 0H480V64H0V0Z"/>
</mask>
<path d="M0 0H480V64H0V0Z" fill="white"/>
<path d="M480 64V63H0V64V65H480V64Z" fill="#D1D1D1" mask="url(#path-1-inside-1_6176_35427)"/>
<path d="M209.363 36.0352C209.363 36.8815 209.158 37.6172 208.748 38.2422C208.338 38.8672 207.739 39.349 206.951 39.6875C206.17 40.026 205.219 40.1953 204.1 40.1953C203.605 40.1953 203.12 40.1628 202.645 40.0977C202.176 40.0326 201.723 39.9382 201.287 39.8145C200.857 39.6842 200.447 39.5247 200.057 39.3359V36.5234C200.734 36.8229 201.437 37.0931 202.166 37.334C202.895 37.5749 203.618 37.6953 204.334 37.6953C204.829 37.6953 205.226 37.6302 205.525 37.5C205.831 37.3698 206.053 37.1908 206.189 36.9629C206.326 36.735 206.395 36.4746 206.395 36.1816C206.395 35.8236 206.274 35.5176 206.033 35.2637C205.792 35.0098 205.46 34.7721 205.037 34.5508C204.62 34.3294 204.148 34.0918 203.621 33.8379C203.289 33.6816 202.928 33.4928 202.537 33.2715C202.146 33.0436 201.775 32.7669 201.424 32.4414C201.072 32.1159 200.783 31.722 200.555 31.2598C200.333 30.791 200.223 30.2311 200.223 29.5801C200.223 28.7272 200.418 27.998 200.809 27.3926C201.199 26.7871 201.756 26.3249 202.479 26.0059C203.208 25.6803 204.067 25.5176 205.057 25.5176C205.799 25.5176 206.505 25.6055 207.176 25.7812C207.853 25.9505 208.559 26.1979 209.295 26.5234L208.318 28.877C207.661 28.61 207.072 28.4049 206.551 28.2617C206.03 28.112 205.499 28.0371 204.959 28.0371C204.581 28.0371 204.259 28.099 203.992 28.2227C203.725 28.3398 203.523 28.5091 203.387 28.7305C203.25 28.9453 203.182 29.196 203.182 29.4824C203.182 29.821 203.279 30.1074 203.475 30.3418C203.676 30.5697 203.976 30.791 204.373 31.0059C204.777 31.2207 205.278 31.4714 205.877 31.7578C206.606 32.1029 207.228 32.4642 207.742 32.8418C208.263 33.2129 208.663 33.6523 208.943 34.1602C209.223 34.6615 209.363 35.2865 209.363 36.0352ZM216.219 28.877C217.228 28.877 218.097 29.0723 218.826 29.4629C219.555 29.847 220.118 30.4069 220.516 31.1426C220.913 31.8783 221.111 32.7767 221.111 33.8379V35.2832H214.07C214.103 36.123 214.354 36.7839 214.822 37.2656C215.298 37.7409 215.955 37.9785 216.795 37.9785C217.492 37.9785 218.13 37.9069 218.709 37.7637C219.288 37.6204 219.884 37.4056 220.496 37.1191V39.4238C219.956 39.6908 219.389 39.8861 218.797 40.0098C218.211 40.1335 217.498 40.1953 216.658 40.1953C215.564 40.1953 214.594 39.9935 213.748 39.5898C212.908 39.1862 212.247 38.571 211.766 37.7441C211.29 36.9173 211.053 35.8757 211.053 34.6191C211.053 33.3431 211.268 32.2819 211.697 31.4355C212.133 30.5827 212.739 29.9447 213.514 29.5215C214.288 29.0918 215.19 28.877 216.219 28.877ZM216.238 30.9961C215.659 30.9961 215.177 31.1816 214.793 31.5527C214.415 31.9238 214.197 32.5065 214.139 33.3008H218.318C218.312 32.8581 218.23 32.4642 218.074 32.1191C217.924 31.7741 217.697 31.5007 217.391 31.2988C217.091 31.097 216.707 30.9961 216.238 30.9961ZM228.133 37.8223C228.458 37.8223 228.774 37.7897 229.08 37.7246C229.393 37.6595 229.702 37.5781 230.008 37.4805V39.6973C229.689 39.8405 229.292 39.9577 228.816 40.0488C228.348 40.1465 227.833 40.1953 227.273 40.1953C226.622 40.1953 226.036 40.0911 225.516 39.8828C225.001 39.668 224.594 39.3001 224.295 38.7793C224.002 38.252 223.855 37.5195 223.855 36.582V31.3184H222.43V30.0586L224.07 29.0625L224.93 26.7578H226.834V29.082H229.891V31.3184H226.834V36.582C226.834 36.9987 226.951 37.3112 227.186 37.5195C227.426 37.7214 227.742 37.8223 228.133 37.8223ZM236.824 37.8223C237.15 37.8223 237.465 37.7897 237.771 37.7246C238.084 37.6595 238.393 37.5781 238.699 37.4805V39.6973C238.38 39.8405 237.983 39.9577 237.508 40.0488C237.039 40.1465 236.525 40.1953 235.965 40.1953C235.314 40.1953 234.728 40.0911 234.207 39.8828C233.693 39.668 233.286 39.3001 232.986 38.7793C232.693 38.252 232.547 37.5195 232.547 36.582V31.3184H231.121V30.0586L232.762 29.0625L233.621 26.7578H235.525V29.082H238.582V31.3184H235.525V36.582C235.525 36.9987 235.643 37.3112 235.877 37.5195C236.118 37.7214 236.434 37.8223 236.824 37.8223ZM243.895 29.082V40H240.916V29.082H243.895ZM242.41 24.8047C242.853 24.8047 243.234 24.9089 243.553 25.1172C243.872 25.319 244.031 25.6999 244.031 26.2598C244.031 26.8132 243.872 27.1973 243.553 27.4121C243.234 27.6204 242.853 27.7246 242.41 27.7246C241.961 27.7246 241.577 27.6204 241.258 27.4121C240.945 27.1973 240.789 26.8132 240.789 26.2598C240.789 25.6999 240.945 25.319 241.258 25.1172C241.577 24.9089 241.961 24.8047 242.41 24.8047ZM253.23 28.877C254.396 28.877 255.333 29.196 256.043 29.834C256.753 30.4655 257.107 31.4811 257.107 32.8809V40H254.129V33.623C254.129 32.8418 253.986 32.2526 253.699 31.8555C253.419 31.4583 252.977 31.2598 252.371 31.2598C251.46 31.2598 250.838 31.569 250.506 32.1875C250.174 32.806 250.008 33.6979 250.008 34.8633V40H247.029V29.082H249.305L249.705 30.4785H249.871C250.105 30.1009 250.395 29.7949 250.74 29.5605C251.092 29.3262 251.479 29.1536 251.902 29.043C252.332 28.9323 252.775 28.877 253.23 28.877ZM263.367 44.8047C261.844 44.8047 260.678 44.5378 259.871 44.0039C259.07 43.4766 258.67 42.7344 258.67 41.7773C258.67 41.1198 258.875 40.5697 259.285 40.127C259.695 39.6842 260.298 39.3685 261.092 39.1797C260.786 39.0495 260.519 38.8379 260.291 38.5449C260.063 38.2454 259.949 37.9297 259.949 37.5977C259.949 37.181 260.07 36.8359 260.311 36.5625C260.551 36.2826 260.9 36.0091 261.355 35.7422C260.783 35.4948 260.327 35.0977 259.988 34.5508C259.656 34.0039 259.49 33.3594 259.49 32.6172C259.49 31.8229 259.663 31.1491 260.008 30.5957C260.359 30.0358 260.867 29.6094 261.531 29.3164C262.202 29.0234 263.016 28.877 263.973 28.877C264.174 28.877 264.409 28.89 264.676 28.916C264.943 28.9421 265.187 28.9714 265.408 29.0039C265.636 29.0365 265.789 29.0625 265.867 29.082H269.676V30.5957L267.967 31.0352C268.123 31.276 268.24 31.5332 268.318 31.8066C268.396 32.0801 268.436 32.3698 268.436 32.6758C268.436 33.8477 268.025 34.7624 267.205 35.4199C266.391 36.071 265.258 36.3965 263.807 36.3965C263.462 36.377 263.136 36.3509 262.83 36.3184C262.68 36.4355 262.566 36.5592 262.488 36.6895C262.41 36.8197 262.371 36.9564 262.371 37.0996C262.371 37.2428 262.43 37.3633 262.547 37.4609C262.671 37.5521 262.853 37.6237 263.094 37.6758C263.341 37.7214 263.647 37.7441 264.012 37.7441H265.867C267.065 37.7441 267.977 38.0013 268.602 38.5156C269.233 39.0299 269.549 39.7852 269.549 40.7812C269.549 42.0573 269.015 43.0469 267.947 43.75C266.886 44.4531 265.359 44.8047 263.367 44.8047ZM263.494 42.8613C264.204 42.8613 264.812 42.793 265.32 42.6562C265.835 42.526 266.229 42.3372 266.502 42.0898C266.775 41.849 266.912 41.5592 266.912 41.2207C266.912 40.9473 266.831 40.7292 266.668 40.5664C266.512 40.4102 266.271 40.2995 265.945 40.2344C265.626 40.1693 265.216 40.1367 264.715 40.1367H263.172C262.807 40.1367 262.479 40.1953 262.186 40.3125C261.899 40.4297 261.671 40.5924 261.502 40.8008C261.333 41.0156 261.248 41.263 261.248 41.543C261.248 41.9531 261.443 42.2754 261.834 42.5098C262.231 42.7441 262.785 42.8613 263.494 42.8613ZM263.973 34.5801C264.533 34.5801 264.943 34.4076 265.203 34.0625C265.464 33.7174 265.594 33.2487 265.594 32.6562C265.594 31.9987 265.457 31.5072 265.184 31.1816C264.917 30.8496 264.513 30.6836 263.973 30.6836C263.426 30.6836 263.016 30.8496 262.742 31.1816C262.469 31.5072 262.332 31.9987 262.332 32.6562C262.332 33.2487 262.465 33.7174 262.732 34.0625C263.006 34.4076 263.419 34.5801 263.973 34.5801ZM279.1 36.7578C279.1 37.5 278.924 38.1283 278.572 38.6426C278.227 39.1504 277.71 39.5378 277.02 39.8047C276.329 40.0651 275.47 40.1953 274.441 40.1953C273.68 40.1953 273.025 40.1465 272.479 40.0488C271.938 39.9512 271.391 39.7884 270.838 39.5605V37.0996C271.43 37.3665 272.065 37.5879 272.742 37.7637C273.426 37.9329 274.025 38.0176 274.539 38.0176C275.118 38.0176 275.532 37.9329 275.779 37.7637C276.033 37.5879 276.16 37.36 276.16 37.0801C276.16 36.8978 276.108 36.735 276.004 36.5918C275.906 36.4421 275.691 36.276 275.359 36.0938C275.027 35.9049 274.507 35.6608 273.797 35.3613C273.113 35.0749 272.55 34.7852 272.107 34.4922C271.671 34.1992 271.346 33.8542 271.131 33.457C270.923 33.0534 270.818 32.5423 270.818 31.9238C270.818 30.9147 271.209 30.1562 271.99 29.6484C272.778 29.1341 273.829 28.877 275.145 28.877C275.822 28.877 276.466 28.9453 277.078 29.082C277.697 29.2188 278.331 29.4368 278.982 29.7363L278.084 31.8848C277.544 31.6504 277.033 31.4583 276.551 31.3086C276.076 31.1589 275.59 31.084 275.096 31.084C274.66 31.084 274.331 31.1426 274.109 31.2598C273.888 31.377 273.777 31.556 273.777 31.7969C273.777 31.9727 273.833 32.1289 273.943 32.2656C274.061 32.4023 274.282 32.5553 274.607 32.7246C274.939 32.8874 275.424 33.099 276.062 33.3594C276.681 33.6133 277.218 33.8802 277.674 34.1602C278.13 34.4336 278.481 34.7754 278.729 35.1855C278.976 35.5892 279.1 36.1133 279.1 36.7578Z" fill="#31344E"/>
<path fill-rule="evenodd" clip-rule="evenodd" d="M31.208 43.2971C32.1518 44.2343 33.6819 44.2343 34.6257 43.2971C35.5694 42.3598 35.5694 40.8402 34.6257 39.9029L29.0845 34.4L47.4168 34.4C48.7515 34.4 49.8335 33.3255 49.8335 32C49.8335 30.6745 48.7515 29.6 47.4168 29.6L29.0845 29.6L34.6257 24.0971C35.5694 23.1598 35.5694 21.6402 34.6257 20.7029C33.6819 19.7657 32.1518 19.7657 31.208 20.7029L21.5418 30.3025C21.1042 30.7368 20.8335 31.337 20.8335 32C20.8335 32.6638 21.1048 33.2646 21.5434 33.6991M21.5434 33.6991L31.208 43.2971L21.5434 33.6991Z" fill="#1A1040"/>
<path d="M459.29 24.0987C460.227 23.1616 460.227 21.6399 459.29 20.7028C458.353 19.7657 456.831 19.7657 455.894 20.7028L448 28.6041L440.099 20.7103C439.162 19.7732 437.64 19.7732 436.703 20.7103C435.766 21.6474 435.766 23.1691 436.703 24.1062L444.604 32L436.71 39.9013C435.773 40.8384 435.773 42.3601 436.71 43.2972C437.647 44.2343 439.169 44.2343 440.106 43.2972L448 35.3959L455.901 43.2897C456.838 44.2268 458.36 44.2268 459.297 43.2897C460.234 42.3526 460.234 40.8309 459.297 39.8938L451.396 32L459.29 24.0987Z" fill="#1A1040"/>
<g filter="url(#filter0_d_6176_35427)">
<rect x="16" y="384" width="448" height="80" rx="5" fill="#1A1040" shape-rendering="crispEdges"/>
<path d="M224.484 428.742C224.484 429.758 224.238 430.641 223.746 431.391C223.254 432.141 222.535 432.719 221.59 433.125C220.652 433.531 219.512 433.734 218.168 433.734C217.574 433.734 216.992 433.695 216.422 433.617C215.859 433.539 215.316 433.426 214.793 433.277C214.277 433.121 213.785 432.93 213.316 432.703V429.328C214.129 429.688 214.973 430.012 215.848 430.301C216.723 430.59 217.59 430.734 218.449 430.734C219.043 430.734 219.52 430.656 219.879 430.5C220.246 430.344 220.512 430.129 220.676 429.855C220.84 429.582 220.922 429.27 220.922 428.918C220.922 428.488 220.777 428.121 220.488 427.816C220.199 427.512 219.801 427.227 219.293 426.961C218.793 426.695 218.227 426.41 217.594 426.105C217.195 425.918 216.762 425.691 216.293 425.426C215.824 425.152 215.379 424.82 214.957 424.43C214.535 424.039 214.188 423.566 213.914 423.012C213.648 422.449 213.516 421.777 213.516 420.996C213.516 419.973 213.75 419.098 214.219 418.371C214.688 417.645 215.355 417.09 216.223 416.707C217.098 416.316 218.129 416.121 219.316 416.121C220.207 416.121 221.055 416.227 221.859 416.438C222.672 416.641 223.52 416.938 224.402 417.328L223.23 420.152C222.441 419.832 221.734 419.586 221.109 419.414C220.484 419.234 219.848 419.145 219.199 419.145C218.746 419.145 218.359 419.219 218.039 419.367C217.719 419.508 217.477 419.711 217.312 419.977C217.148 420.234 217.066 420.535 217.066 420.879C217.066 421.285 217.184 421.629 217.418 421.91C217.66 422.184 218.02 422.449 218.496 422.707C218.98 422.965 219.582 423.266 220.301 423.609C221.176 424.023 221.922 424.457 222.539 424.91C223.164 425.355 223.645 425.883 223.98 426.492C224.316 427.094 224.484 427.844 224.484 428.742ZM232.676 420.129C234.434 420.129 235.781 420.512 236.719 421.277C237.656 422.043 238.125 423.207 238.125 424.77V433.5H235.629L234.938 431.719H234.844C234.469 432.188 234.086 432.57 233.695 432.867C233.305 433.164 232.855 433.383 232.348 433.523C231.84 433.664 231.223 433.734 230.496 433.734C229.723 433.734 229.027 433.586 228.41 433.289C227.801 432.992 227.32 432.539 226.969 431.93C226.617 431.312 226.441 430.531 226.441 429.586C226.441 428.195 226.93 427.172 227.906 426.516C228.883 425.852 230.348 425.484 232.301 425.414L234.574 425.344V424.77C234.574 424.082 234.395 423.578 234.035 423.258C233.676 422.938 233.176 422.777 232.535 422.777C231.902 422.777 231.281 422.867 230.672 423.047C230.062 423.227 229.453 423.453 228.844 423.727L227.66 421.312C228.355 420.945 229.133 420.656 229.992 420.445C230.859 420.234 231.754 420.129 232.676 420.129ZM234.574 427.43L233.191 427.477C232.035 427.508 231.23 427.715 230.777 428.098C230.332 428.48 230.109 428.984 230.109 429.609C230.109 430.156 230.27 430.547 230.59 430.781C230.91 431.008 231.328 431.121 231.844 431.121C232.609 431.121 233.254 430.895 233.777 430.441C234.309 429.988 234.574 429.344 234.574 428.508V427.43ZM244.934 433.5L239.941 420.398H243.68L246.211 427.863C246.352 428.301 246.461 428.762 246.539 429.246C246.625 429.73 246.684 430.164 246.715 430.547H246.809C246.832 430.133 246.887 429.691 246.973 429.223C247.066 428.754 247.188 428.301 247.336 427.863L249.855 420.398H253.594L248.602 433.5H244.934ZM260.883 420.152C262.094 420.152 263.137 420.387 264.012 420.855C264.887 421.316 265.562 421.988 266.039 422.871C266.516 423.754 266.754 424.832 266.754 426.105V427.84H258.305C258.344 428.848 258.645 429.641 259.207 430.219C259.777 430.789 260.566 431.074 261.574 431.074C262.41 431.074 263.176 430.988 263.871 430.816C264.566 430.645 265.281 430.387 266.016 430.043V432.809C265.367 433.129 264.688 433.363 263.977 433.512C263.273 433.66 262.418 433.734 261.41 433.734C260.098 433.734 258.934 433.492 257.918 433.008C256.91 432.523 256.117 431.785 255.539 430.793C254.969 429.801 254.684 428.551 254.684 427.043C254.684 425.512 254.941 424.238 255.457 423.223C255.98 422.199 256.707 421.434 257.637 420.926C258.566 420.41 259.648 420.152 260.883 420.152ZM260.906 422.695C260.211 422.695 259.633 422.918 259.172 423.363C258.719 423.809 258.457 424.508 258.387 425.461H263.402C263.395 424.93 263.297 424.457 263.109 424.043C262.93 423.629 262.656 423.301 262.289 423.059C261.93 422.816 261.469 422.695 260.906 422.695Z" fill="white"/>
</g>
<g filter="url(#filter1_d_6176_35427)">
<rect x="16" y="80" width="448" height="227" rx="10" fill="white" shape-rendering="crispEdges"/>
<rect x="16.5" y="80.5" width="447" height="226" rx="9.5" stroke="#D9D9D9" shape-rendering="crispEdges"/>
<path d="M33.6875 100.15H37.5107C39.1689 100.15 40.4199 100.391 41.2637 100.871C42.1074 101.352 42.5293 102.181 42.5293 103.358C42.5293 103.851 42.4414 104.296 42.2656 104.694C42.0957 105.087 41.8467 105.412 41.5186 105.67C41.1904 105.922 40.7861 106.092 40.3057 106.18V106.268C40.8037 106.355 41.2461 106.511 41.6328 106.733C42.0254 106.956 42.333 107.275 42.5557 107.691C42.7842 108.107 42.8984 108.646 42.8984 109.309C42.8984 110.094 42.7109 110.762 42.3359 111.312C41.9668 111.863 41.4365 112.282 40.7451 112.569C40.0596 112.856 39.2451 113 38.3018 113H33.6875V100.15ZM35.7969 105.45H37.8184C38.7734 105.45 39.4355 105.295 39.8047 104.984C40.1738 104.674 40.3584 104.22 40.3584 103.622C40.3584 103.013 40.1387 102.573 39.6992 102.304C39.2656 102.034 38.5742 101.899 37.625 101.899H35.7969V105.45ZM35.7969 107.155V111.233H38.0205C39.0049 111.233 39.6963 111.043 40.0947 110.662C40.4932 110.281 40.6924 109.766 40.6924 109.115C40.6924 108.717 40.6016 108.371 40.4199 108.078C40.2441 107.785 39.9541 107.56 39.5498 107.401C39.1455 107.237 38.6006 107.155 37.915 107.155H35.7969ZM49.2178 103.086C50.085 103.086 50.8291 103.265 51.4502 103.622C52.0713 103.979 52.5488 104.486 52.8828 105.143C53.2168 105.799 53.3838 106.584 53.3838 107.498V108.605H46.8887C46.9121 109.549 47.1641 110.275 47.6445 110.785C48.1309 111.295 48.8105 111.55 49.6836 111.55C50.3047 111.55 50.8613 111.491 51.3535 111.374C51.8516 111.251 52.3643 111.072 52.8916 110.838V112.517C52.4053 112.745 51.9102 112.912 51.4062 113.018C50.9023 113.123 50.2988 113.176 49.5957 113.176C48.6406 113.176 47.7998 112.991 47.0732 112.622C46.3525 112.247 45.7871 111.69 45.377 110.952C44.9727 110.214 44.7705 109.297 44.7705 108.201C44.7705 107.111 44.9551 106.186 45.3242 105.424C45.6934 104.662 46.2119 104.082 46.8799 103.684C47.5479 103.285 48.3271 103.086 49.2178 103.086ZM49.2178 104.642C48.5674 104.642 48.04 104.853 47.6357 105.274C47.2373 105.696 47.0029 106.314 46.9326 107.129H51.3623C51.3564 106.643 51.2744 106.212 51.1162 105.837C50.9639 105.462 50.7295 105.169 50.4131 104.958C50.1025 104.747 49.7041 104.642 49.2178 104.642ZM58.9824 113.176C57.8223 113.176 56.8906 112.754 56.1875 111.91C55.4902 111.061 55.1416 109.81 55.1416 108.157C55.1416 106.487 55.4961 105.225 56.2051 104.369C56.9199 103.514 57.8604 103.086 59.0264 103.086C59.5186 103.086 59.9492 103.153 60.3184 103.288C60.6875 103.417 61.0039 103.593 61.2676 103.815C61.5371 104.038 61.7656 104.287 61.9531 104.562H62.0498C62.0205 104.381 61.9854 104.12 61.9443 103.78C61.9092 103.435 61.8916 103.115 61.8916 102.822V99.3242H63.9658V113H62.3486L61.9795 111.673H61.8916C61.7158 111.954 61.4932 112.209 61.2236 112.438C60.96 112.66 60.6436 112.839 60.2744 112.974C59.9111 113.108 59.4805 113.176 58.9824 113.176ZM59.5625 111.497C60.4473 111.497 61.0713 111.242 61.4346 110.732C61.7979 110.223 61.9854 109.458 61.9971 108.438V108.166C61.9971 107.076 61.8213 106.241 61.4697 105.661C61.1182 105.075 60.4766 104.782 59.5449 104.782C58.8008 104.782 58.2324 105.084 57.8398 105.688C57.4531 106.285 57.2598 107.12 57.2598 108.192C57.2598 109.265 57.4531 110.085 57.8398 110.653C58.2324 111.216 58.8066 111.497 59.5625 111.497ZM87.0107 100.15L83.6533 113H81.3506L79.2061 105.301C79.1533 105.113 79.0947 104.891 79.0303 104.633C78.9658 104.375 78.9014 104.111 78.8369 103.842C78.7783 103.572 78.7256 103.326 78.6787 103.104C78.6377 102.875 78.6084 102.699 78.5908 102.576C78.5791 102.699 78.5527 102.872 78.5117 103.095C78.4707 103.317 78.4209 103.563 78.3623 103.833C78.3096 104.097 78.251 104.36 78.1865 104.624C78.1221 104.882 78.0635 105.11 78.0107 105.31L75.9014 113H73.6074L70.2588 100.15H72.377L74.2314 107.683C74.29 107.923 74.3486 108.184 74.4072 108.465C74.4717 108.74 74.5303 109.019 74.583 109.3C74.6416 109.581 74.6943 109.856 74.7412 110.126C74.7881 110.39 74.8262 110.63 74.8555 110.847C74.8848 110.624 74.9229 110.378 74.9697 110.108C75.0166 109.833 75.0664 109.555 75.1191 109.273C75.1777 108.986 75.2363 108.711 75.2949 108.447C75.3594 108.184 75.4238 107.946 75.4883 107.735L77.5801 100.15H79.6367L81.7725 107.762C81.8369 107.979 81.8984 108.222 81.957 108.491C82.0215 108.761 82.083 109.036 82.1416 109.317C82.2002 109.599 82.2529 109.871 82.2998 110.135C82.3467 110.398 82.3848 110.636 82.4141 110.847C82.4551 110.56 82.5078 110.231 82.5723 109.862C82.6367 109.493 82.71 109.118 82.792 108.737C82.874 108.356 82.9561 108.005 83.0381 107.683L84.8838 100.15H87.0107ZM90.6846 103.271V113H88.6191V103.271H90.6846ZM89.665 99.5439C89.9814 99.5439 90.2539 99.6289 90.4824 99.7988C90.7168 99.9688 90.834 100.262 90.834 100.678C90.834 101.088 90.7168 101.381 90.4824 101.557C90.2539 101.727 89.9814 101.812 89.665 101.812C89.3369 101.812 89.0586 101.727 88.8301 101.557C88.6074 101.381 88.4961 101.088 88.4961 100.678C88.4961 100.262 88.6074 99.9688 88.8301 99.7988C89.0586 99.6289 89.3369 99.5439 89.665 99.5439ZM96.916 113.176C95.7559 113.176 94.8242 112.754 94.1211 111.91C93.4238 111.061 93.0752 109.81 93.0752 108.157C93.0752 106.487 93.4297 105.225 94.1387 104.369C94.8535 103.514 95.7939 103.086 96.96 103.086C97.4521 103.086 97.8828 103.153 98.252 103.288C98.6211 103.417 98.9375 103.593 99.2012 103.815C99.4707 104.038 99.6992 104.287 99.8867 104.562H99.9834C99.9541 104.381 99.9189 104.12 99.8779 103.78C99.8428 103.435 99.8252 103.115 99.8252 102.822V99.3242H101.899V113H100.282L99.9131 111.673H99.8252C99.6494 111.954 99.4268 112.209 99.1572 112.438C98.8936 112.66 98.5771 112.839 98.208 112.974C97.8447 113.108 97.4141 113.176 96.916 113.176ZM97.4961 111.497C98.3809 111.497 99.0049 111.242 99.3682 110.732C99.7314 110.223 99.9189 109.458 99.9307 108.438V108.166C99.9307 107.076 99.7549 106.241 99.4033 105.661C99.0518 105.075 98.4102 104.782 97.4785 104.782C96.7344 104.782 96.166 105.084 95.7734 105.688C95.3867 106.285 95.1934 107.12 95.1934 108.192C95.1934 109.265 95.3867 110.085 95.7734 110.653C96.166 111.216 96.7402 111.497 97.4961 111.497ZM108.482 111.506C108.752 111.506 109.019 111.482 109.282 111.436C109.546 111.383 109.786 111.321 110.003 111.251V112.815C109.774 112.915 109.479 113 109.115 113.07C108.752 113.141 108.374 113.176 107.981 113.176C107.431 113.176 106.936 113.085 106.496 112.903C106.057 112.716 105.708 112.396 105.45 111.945C105.192 111.494 105.063 110.87 105.063 110.073V104.844H103.736V103.921L105.16 103.191L105.837 101.108H107.138V103.271H109.924V104.844H107.138V110.047C107.138 110.539 107.261 110.905 107.507 111.146C107.753 111.386 108.078 111.506 108.482 111.506ZM114.046 99.3242V102.761C114.046 103.118 114.034 103.467 114.011 103.807C113.993 104.146 113.973 104.41 113.949 104.598H114.063C114.269 104.258 114.521 103.979 114.819 103.763C115.118 103.54 115.452 103.373 115.821 103.262C116.196 103.15 116.595 103.095 117.017 103.095C117.761 103.095 118.394 103.221 118.915 103.473C119.437 103.719 119.835 104.103 120.11 104.624C120.392 105.146 120.532 105.822 120.532 106.654V113H118.467V107.041C118.467 106.285 118.312 105.72 118.001 105.345C117.69 104.964 117.21 104.773 116.56 104.773C115.933 104.773 115.435 104.905 115.065 105.169C114.702 105.427 114.441 105.811 114.283 106.32C114.125 106.824 114.046 107.439 114.046 108.166V113H111.98V99.3242H114.046Z" fill="#31344E"/>
<path d="M62 183L418 183" stroke="#F6F6F6" stroke-width="16" stroke-linecap="round"/>
<path d="M64 183H416" stroke="#707070"/>
<g filter="url(#filter2_d_6176_35427)">
<circle cx="432" cy="183" r="16" fill="#F6F6F6" stroke="#1A1040" stroke-width="2"/>
<circle cx="432" cy="183" r="9" fill="#1A1040"/>
</g>
<circle cx="240" cy="183" r="16" fill="#F6F6F6"/>
<circle cx="240" cy="183" r="9" fill="#707070"/>
<circle cx="48" cy="183" r="16" fill="#F6F6F6"/>
<circle cx="48" cy="183" r="9" fill="#707070"/>
<path d="M39.5073 220.151C39.5073 220.786 39.3486 221.328 39.0312 221.777C38.7188 222.221 38.2793 222.561 37.7129 222.795C37.1465 223.029 36.48 223.146 35.7134 223.146C35.3081 223.146 34.9248 223.127 34.5635 223.088C34.2021 223.049 33.8701 222.993 33.5674 222.919C33.2646 222.846 32.9985 222.756 32.769 222.648V221.455C33.1353 221.606 33.582 221.748 34.1094 221.879C34.6367 222.006 35.1885 222.07 35.7646 222.07C36.3018 222.07 36.7559 221.999 37.127 221.857C37.498 221.711 37.7788 221.503 37.9692 221.235C38.1646 220.961 38.2622 220.634 38.2622 220.253C38.2622 219.887 38.1816 219.582 38.0205 219.338C37.8594 219.089 37.5908 218.864 37.2148 218.664C36.8438 218.459 36.3359 218.242 35.6914 218.012C35.2373 217.851 34.8369 217.675 34.4902 217.485C34.1436 217.29 33.853 217.07 33.6187 216.826C33.3843 216.582 33.2061 216.298 33.084 215.976C32.9668 215.654 32.9082 215.285 32.9082 214.87C32.9082 214.299 33.0522 213.811 33.3403 213.405C33.6333 212.995 34.0361 212.683 34.5488 212.468C35.0664 212.248 35.6597 212.138 36.3286 212.138C36.8999 212.138 37.4272 212.192 37.9106 212.299C38.3989 212.407 38.8457 212.551 39.251 212.731L38.8628 213.801C38.4771 213.64 38.0669 213.505 37.6323 213.398C37.2026 213.291 36.7583 213.237 36.2993 213.237C35.8403 213.237 35.4521 213.305 35.1348 213.442C34.8223 213.574 34.583 213.762 34.417 214.006C34.251 214.25 34.168 214.541 34.168 214.877C34.168 215.253 34.2461 215.566 34.4023 215.815C34.5635 216.064 34.8174 216.286 35.1641 216.481C35.5156 216.672 35.9795 216.872 36.5557 217.082C37.1855 217.312 37.7202 217.556 38.1597 217.814C38.5991 218.068 38.9336 218.381 39.1631 218.752C39.3926 219.118 39.5073 219.584 39.5073 220.151ZM44.1069 222.15C44.3071 222.15 44.5122 222.133 44.7222 222.099C44.9321 222.065 45.103 222.023 45.2349 221.975V222.919C45.0933 222.983 44.8955 223.037 44.6416 223.081C44.3926 223.125 44.1484 223.146 43.9092 223.146C43.4844 223.146 43.0986 223.073 42.752 222.927C42.4053 222.775 42.127 222.521 41.917 222.165C41.7119 221.809 41.6094 221.315 41.6094 220.686V215.925H40.4668V215.332L41.6167 214.855L42.1001 213.112H42.8325V214.973H45.1836V215.925H42.8325V220.649C42.8325 221.152 42.9473 221.528 43.1768 221.777C43.4111 222.026 43.7212 222.15 44.1069 222.15ZM49.8638 214.841C50.8208 214.841 51.5312 215.056 51.9951 215.485C52.459 215.915 52.6909 216.601 52.6909 217.543V223H51.8047L51.5703 221.813H51.5117C51.2871 222.106 51.0527 222.353 50.8086 222.553C50.5645 222.749 50.2812 222.897 49.959 223C49.6416 223.098 49.251 223.146 48.7871 223.146C48.2988 223.146 47.8643 223.061 47.4834 222.89C47.1074 222.719 46.8096 222.46 46.5898 222.114C46.375 221.767 46.2676 221.328 46.2676 220.795C46.2676 219.995 46.585 219.379 47.2197 218.95C47.8545 218.52 48.8213 218.286 50.1201 218.247L51.5044 218.188V217.697C51.5044 217.004 51.3555 216.518 51.0576 216.24C50.7598 215.961 50.3398 215.822 49.7979 215.822C49.3779 215.822 48.9775 215.883 48.5967 216.005C48.2158 216.127 47.8545 216.271 47.5127 216.438L47.1392 215.515C47.5005 215.329 47.9155 215.17 48.3843 215.039C48.853 214.907 49.3462 214.841 49.8638 214.841ZM51.4897 219.045L50.2666 219.096C49.2656 219.135 48.5601 219.299 48.1499 219.587C47.7397 219.875 47.5347 220.283 47.5347 220.81C47.5347 221.269 47.6738 221.608 47.9521 221.828C48.2305 222.048 48.5991 222.158 49.0581 222.158C49.771 222.158 50.3545 221.96 50.8086 221.564C51.2627 221.169 51.4897 220.576 51.4897 219.785V219.045ZM58.9971 214.826C59.9492 214.826 60.6694 215.061 61.1577 215.529C61.646 215.993 61.8901 216.74 61.8901 217.771V223H60.689V217.851C60.689 217.182 60.5352 216.682 60.2275 216.35C59.9248 216.018 59.4585 215.852 58.8286 215.852C57.9399 215.852 57.3149 216.103 56.9536 216.606C56.5923 217.109 56.4116 217.839 56.4116 218.796V223H55.1958V214.973H56.1772L56.3604 216.13H56.4263C56.5972 215.847 56.8145 215.61 57.0781 215.419C57.3418 215.224 57.6372 215.078 57.9644 214.98C58.2915 214.877 58.6357 214.826 58.9971 214.826ZM67.2515 223.146C66.2358 223.146 65.4302 222.8 64.8345 222.106C64.2437 221.413 63.9482 220.383 63.9482 219.016C63.9482 217.634 64.251 216.591 64.8564 215.888C65.4619 215.18 66.2676 214.826 67.2734 214.826C67.6982 214.826 68.0693 214.882 68.3867 214.995C68.7041 215.107 68.9775 215.258 69.207 215.449C69.4365 215.634 69.6294 215.847 69.7856 216.086H69.8735C69.854 215.935 69.8345 215.727 69.8149 215.463C69.7954 215.2 69.7856 214.985 69.7856 214.819V211.604H71.0015V223H70.02L69.8369 221.857H69.7856C69.6343 222.097 69.4414 222.314 69.207 222.509C68.9775 222.705 68.7017 222.861 68.3794 222.978C68.062 223.09 67.686 223.146 67.2515 223.146ZM67.4419 222.136C68.3013 222.136 68.9092 221.892 69.2656 221.403C69.6221 220.915 69.8003 220.19 69.8003 219.228V219.008C69.8003 217.988 69.6294 217.204 69.2876 216.657C68.9507 216.11 68.3354 215.837 67.4419 215.837C66.6948 215.837 66.1357 216.125 65.7646 216.701C65.3936 217.272 65.208 218.054 65.208 219.045C65.208 220.031 65.3911 220.793 65.7573 221.33C66.1284 221.867 66.6899 222.136 67.4419 222.136ZM76.5825 214.841C77.5396 214.841 78.25 215.056 78.7139 215.485C79.1777 215.915 79.4097 216.601 79.4097 217.543V223H78.5234L78.2891 221.813H78.2305C78.0059 222.106 77.7715 222.353 77.5273 222.553C77.2832 222.749 77 222.897 76.6777 223C76.3604 223.098 75.9697 223.146 75.5059 223.146C75.0176 223.146 74.583 223.061 74.2021 222.89C73.8262 222.719 73.5283 222.46 73.3086 222.114C73.0938 221.767 72.9863 221.328 72.9863 220.795C72.9863 219.995 73.3037 219.379 73.9385 218.95C74.5732 218.52 75.54 218.286 76.8389 218.247L78.2231 218.188V217.697C78.2231 217.004 78.0742 216.518 77.7764 216.24C77.4785 215.961 77.0586 215.822 76.5166 215.822C76.0967 215.822 75.6963 215.883 75.3154 216.005C74.9346 216.127 74.5732 216.271 74.2314 216.438L73.8579 215.515C74.2192 215.329 74.6343 215.17 75.103 215.039C75.5718 214.907 76.0649 214.841 76.5825 214.841ZM78.2085 219.045L76.9854 219.096C75.9844 219.135 75.2788 219.299 74.8687 219.587C74.4585 219.875 74.2534 220.283 74.2534 220.81C74.2534 221.269 74.3926 221.608 74.6709 221.828C74.9492 222.048 75.3179 222.158 75.7769 222.158C76.4897 222.158 77.0732 221.96 77.5273 221.564C77.9814 221.169 78.2085 220.576 78.2085 219.785V219.045ZM85.562 214.826C85.7231 214.826 85.8916 214.836 86.0674 214.855C86.2432 214.87 86.3994 214.892 86.5361 214.921L86.3823 216.049C86.2505 216.015 86.104 215.988 85.9429 215.969C85.7817 215.949 85.6304 215.939 85.4888 215.939C85.1665 215.939 84.8613 216.005 84.5732 216.137C84.29 216.264 84.041 216.45 83.8262 216.694C83.6113 216.933 83.4429 217.224 83.3208 217.565C83.1987 217.902 83.1377 218.278 83.1377 218.693V223H81.9146V214.973H82.9253L83.0571 216.452H83.1084C83.2744 216.154 83.4746 215.883 83.709 215.639C83.9434 215.39 84.2144 215.192 84.522 215.046C84.8345 214.899 85.1812 214.826 85.562 214.826ZM90.9087 223.146C89.8931 223.146 89.0874 222.8 88.4917 222.106C87.9009 221.413 87.6055 220.383 87.6055 219.016C87.6055 217.634 87.9082 216.591 88.5137 215.888C89.1191 215.18 89.9248 214.826 90.9307 214.826C91.3555 214.826 91.7266 214.882 92.0439 214.995C92.3613 215.107 92.6348 215.258 92.8643 215.449C93.0938 215.634 93.2866 215.847 93.4429 216.086H93.5308C93.5112 215.935 93.4917 215.727 93.4722 215.463C93.4526 215.2 93.4429 214.985 93.4429 214.819V211.604H94.6587V223H93.6772L93.4941 221.857H93.4429C93.2915 222.097 93.0986 222.314 92.8643 222.509C92.6348 222.705 92.3589 222.861 92.0366 222.978C91.7192 223.09 91.3433 223.146 90.9087 223.146ZM91.0991 222.136C91.9585 222.136 92.5664 221.892 92.9229 221.403C93.2793 220.915 93.4575 220.19 93.4575 219.228V219.008C93.4575 217.988 93.2866 217.204 92.9448 216.657C92.6079 216.11 91.9927 215.837 91.0991 215.837C90.3521 215.837 89.793 216.125 89.4219 216.701C89.0508 217.272 88.8652 218.054 88.8652 219.045C88.8652 220.031 89.0483 220.793 89.4146 221.33C89.7856 221.867 90.3472 222.136 91.0991 222.136Z" fill="#707070"/>
<path d="M235.001 212.292L232.137 223H230.885L228.761 215.793C228.697 215.588 228.636 215.383 228.578 215.178C228.524 214.968 228.473 214.77 228.424 214.584C228.375 214.394 228.333 214.228 228.299 214.086C228.27 213.94 228.248 213.83 228.233 213.757C228.224 213.83 228.204 213.938 228.175 214.079C228.15 214.221 228.116 214.384 228.072 214.57C228.033 214.755 227.984 214.953 227.926 215.163C227.872 215.373 227.813 215.585 227.75 215.8L225.685 223H224.432L221.59 212.292H222.887L224.608 219.008C224.667 219.233 224.72 219.455 224.769 219.675C224.823 219.89 224.869 220.1 224.908 220.305C224.952 220.51 224.991 220.71 225.025 220.905C225.06 221.101 225.091 221.291 225.121 221.477C225.145 221.286 225.177 221.088 225.216 220.883C225.255 220.673 225.296 220.461 225.34 220.246C225.389 220.031 225.44 219.814 225.494 219.594C225.553 219.375 225.614 219.155 225.677 218.935L227.604 212.292H228.885L230.892 218.986C230.96 219.216 231.024 219.443 231.083 219.667C231.141 219.892 231.192 220.112 231.236 220.327C231.285 220.537 231.327 220.739 231.361 220.935C231.4 221.125 231.434 221.306 231.463 221.477C231.498 221.237 231.539 220.986 231.588 220.722C231.637 220.458 231.693 220.183 231.756 219.895C231.825 219.606 231.898 219.309 231.976 219.001L233.697 212.292H235.001ZM237.726 214.973V223H236.51V214.973H237.726ZM237.132 211.97C237.333 211.97 237.503 212.036 237.645 212.167C237.792 212.294 237.865 212.495 237.865 212.768C237.865 213.037 237.792 213.237 237.645 213.369C237.503 213.5 237.333 213.566 237.132 213.566C236.922 213.566 236.747 213.5 236.605 213.369C236.468 213.237 236.4 213.037 236.4 212.768C236.4 212.495 236.468 212.294 236.605 212.167C236.747 212.036 236.922 211.97 237.132 211.97ZM243.16 223.146C242.145 223.146 241.339 222.8 240.743 222.106C240.152 221.413 239.857 220.383 239.857 219.016C239.857 217.634 240.16 216.591 240.765 215.888C241.371 215.18 242.176 214.826 243.182 214.826C243.607 214.826 243.978 214.882 244.295 214.995C244.613 215.107 244.886 215.258 245.116 215.449C245.345 215.634 245.538 215.847 245.694 216.086H245.782C245.763 215.935 245.743 215.727 245.724 215.463C245.704 215.2 245.694 214.985 245.694 214.819V211.604H246.91V223H245.929L245.746 221.857H245.694C245.543 222.097 245.35 222.314 245.116 222.509C244.886 222.705 244.61 222.861 244.288 222.978C243.971 223.09 243.595 223.146 243.16 223.146ZM243.351 222.136C244.21 222.136 244.818 221.892 245.174 221.403C245.531 220.915 245.709 220.19 245.709 219.228V219.008C245.709 217.988 245.538 217.204 245.196 216.657C244.859 216.11 244.244 215.837 243.351 215.837C242.604 215.837 242.044 216.125 241.673 216.701C241.302 217.272 241.117 218.054 241.117 219.045C241.117 220.031 241.3 220.793 241.666 221.33C242.037 221.867 242.599 222.136 243.351 222.136ZM252.579 214.826C253.263 214.826 253.849 214.978 254.337 215.28C254.825 215.583 255.199 216.008 255.458 216.555C255.716 217.097 255.846 217.731 255.846 218.459V219.213H250.301C250.316 220.156 250.55 220.874 251.004 221.367C251.458 221.86 252.098 222.106 252.923 222.106C253.431 222.106 253.88 222.06 254.271 221.967C254.662 221.875 255.067 221.738 255.487 221.557V222.626C255.082 222.807 254.679 222.939 254.278 223.022C253.883 223.105 253.414 223.146 252.872 223.146C252.101 223.146 251.427 222.99 250.851 222.678C250.279 222.36 249.835 221.896 249.518 221.286C249.2 220.676 249.042 219.929 249.042 219.045C249.042 218.181 249.186 217.434 249.474 216.804C249.767 216.169 250.177 215.681 250.704 215.339C251.236 214.997 251.861 214.826 252.579 214.826ZM252.564 215.822C251.915 215.822 251.397 216.035 251.012 216.459C250.626 216.884 250.396 217.478 250.323 218.239H254.571C254.566 217.761 254.491 217.341 254.344 216.979C254.203 216.613 253.985 216.33 253.692 216.13C253.399 215.925 253.023 215.822 252.564 215.822Z" fill="#31344E"/>
<path d="M399.99 213.237C399.399 213.237 398.867 213.339 398.393 213.544C397.924 213.745 397.524 214.038 397.192 214.423C396.865 214.804 396.613 215.266 396.438 215.808C396.262 216.35 396.174 216.96 396.174 217.639C396.174 218.537 396.313 219.318 396.591 219.982C396.875 220.642 397.294 221.152 397.851 221.513C398.413 221.875 399.113 222.055 399.953 222.055C400.432 222.055 400.881 222.016 401.301 221.938C401.726 221.855 402.138 221.752 402.539 221.63V222.714C402.148 222.861 401.738 222.968 401.308 223.037C400.878 223.11 400.368 223.146 399.777 223.146C398.688 223.146 397.778 222.922 397.045 222.473C396.318 222.019 395.771 221.379 395.405 220.554C395.043 219.729 394.863 218.754 394.863 217.631C394.863 216.821 394.975 216.081 395.2 215.412C395.429 214.738 395.761 214.157 396.196 213.669C396.635 213.181 397.172 212.805 397.807 212.541C398.447 212.272 399.179 212.138 400.004 212.138C400.546 212.138 401.069 212.192 401.572 212.299C402.075 212.407 402.529 212.561 402.934 212.761L402.436 213.815C402.094 213.659 401.718 213.525 401.308 213.413C400.903 213.295 400.463 213.237 399.99 213.237ZM411.306 214.973V223H410.31L410.134 221.872H410.068C409.902 222.15 409.687 222.385 409.423 222.575C409.16 222.766 408.862 222.907 408.53 223C408.203 223.098 407.854 223.146 407.482 223.146C406.848 223.146 406.315 223.044 405.886 222.839C405.456 222.634 405.131 222.316 404.912 221.887C404.697 221.457 404.589 220.905 404.589 220.231V214.973H405.82V220.144C405.82 220.812 405.971 221.313 406.274 221.645C406.577 221.972 407.038 222.136 407.658 222.136C408.254 222.136 408.728 222.023 409.079 221.799C409.436 221.574 409.692 221.245 409.848 220.81C410.004 220.371 410.083 219.833 410.083 219.199V214.973H411.306ZM419.069 220.803C419.069 221.315 418.94 221.748 418.681 222.099C418.427 222.446 418.061 222.707 417.583 222.883C417.109 223.059 416.542 223.146 415.883 223.146C415.322 223.146 414.836 223.103 414.426 223.015C414.016 222.927 413.657 222.802 413.349 222.641V221.521C413.676 221.682 414.067 221.828 414.521 221.96C414.975 222.092 415.439 222.158 415.913 222.158C416.606 222.158 417.109 222.045 417.421 221.821C417.734 221.596 417.89 221.291 417.89 220.905C417.89 220.686 417.827 220.493 417.7 220.327C417.578 220.156 417.37 219.992 417.077 219.836C416.784 219.675 416.379 219.499 415.861 219.309C415.349 219.113 414.904 218.92 414.528 218.73C414.157 218.535 413.869 218.298 413.664 218.02C413.464 217.741 413.364 217.38 413.364 216.936C413.364 216.257 413.637 215.737 414.184 215.375C414.736 215.009 415.458 214.826 416.352 214.826C416.835 214.826 417.287 214.875 417.707 214.973C418.132 215.065 418.527 215.192 418.894 215.354L418.483 216.328C418.151 216.186 417.797 216.066 417.421 215.969C417.045 215.871 416.662 215.822 416.271 215.822C415.71 215.822 415.278 215.915 414.975 216.101C414.677 216.286 414.528 216.54 414.528 216.862C414.528 217.111 414.597 217.316 414.733 217.478C414.875 217.639 415.1 217.79 415.407 217.932C415.715 218.073 416.12 218.239 416.623 218.43C417.126 218.615 417.561 218.808 417.927 219.008C418.293 219.204 418.574 219.443 418.769 219.726C418.969 220.004 419.069 220.363 419.069 220.803ZM423.618 222.15C423.818 222.15 424.023 222.133 424.233 222.099C424.443 222.065 424.614 222.023 424.746 221.975V222.919C424.604 222.983 424.406 223.037 424.152 223.081C423.903 223.125 423.659 223.146 423.42 223.146C422.995 223.146 422.609 223.073 422.263 222.927C421.916 222.775 421.638 222.521 421.428 222.165C421.223 221.809 421.12 221.315 421.12 220.686V215.925H419.978V215.332L421.127 214.855L421.611 213.112H422.343V214.973H424.694V215.925H422.343V220.649C422.343 221.152 422.458 221.528 422.688 221.777C422.922 222.026 423.232 222.15 423.618 222.15ZM433.293 218.972C433.293 219.631 433.208 220.219 433.037 220.737C432.866 221.254 432.619 221.691 432.297 222.048C431.975 222.404 431.584 222.678 431.125 222.868C430.671 223.054 430.156 223.146 429.58 223.146C429.042 223.146 428.549 223.054 428.1 222.868C427.656 222.678 427.27 222.404 426.943 222.048C426.621 221.691 426.369 221.254 426.188 220.737C426.013 220.219 425.925 219.631 425.925 218.972C425.925 218.093 426.074 217.346 426.372 216.73C426.669 216.11 427.094 215.639 427.646 215.317C428.203 214.99 428.864 214.826 429.631 214.826C430.363 214.826 431.003 214.99 431.55 215.317C432.102 215.644 432.529 216.118 432.832 216.738C433.139 217.353 433.293 218.098 433.293 218.972ZM427.185 218.972C427.185 219.616 427.27 220.175 427.441 220.649C427.612 221.123 427.875 221.489 428.232 221.748C428.588 222.006 429.047 222.136 429.609 222.136C430.166 222.136 430.622 222.006 430.979 221.748C431.34 221.489 431.606 221.123 431.777 220.649C431.948 220.175 432.033 219.616 432.033 218.972C432.033 218.332 431.948 217.78 431.777 217.316C431.606 216.848 431.342 216.486 430.986 216.232C430.629 215.979 430.168 215.852 429.602 215.852C428.767 215.852 428.154 216.127 427.763 216.679C427.377 217.231 427.185 217.995 427.185 218.972ZM444.111 214.826C444.995 214.826 445.661 215.058 446.11 215.522C446.56 215.981 446.784 216.721 446.784 217.741V223H445.583V217.8C445.583 217.15 445.441 216.665 445.158 216.342C444.88 216.015 444.465 215.852 443.913 215.852C443.137 215.852 442.573 216.076 442.221 216.525C441.87 216.975 441.694 217.636 441.694 218.51V223H440.485V217.8C440.485 217.365 440.422 217.004 440.295 216.716C440.173 216.428 439.987 216.213 439.738 216.071C439.494 215.925 439.184 215.852 438.808 215.852C438.276 215.852 437.849 215.961 437.526 216.181C437.204 216.401 436.97 216.728 436.823 217.163C436.682 217.592 436.611 218.122 436.611 218.752V223H435.395V214.973H436.376L436.56 216.108H436.625C436.787 215.83 436.989 215.595 437.233 215.405C437.478 215.214 437.751 215.07 438.054 214.973C438.356 214.875 438.679 214.826 439.021 214.826C439.631 214.826 440.141 214.941 440.551 215.17C440.966 215.395 441.267 215.739 441.452 216.203H441.518C441.782 215.739 442.143 215.395 442.602 215.17C443.061 214.941 443.564 214.826 444.111 214.826Z" fill="#707070"/>
<path d="M224.079 132.122C224.079 131.502 224.576 131 225.189 131H254.808C255.421 131 255.917 131.502 255.917 132.122V141.37H246.674V138.26C246.674 137.115 245.754 136.186 244.62 136.186H236.403C235.269 136.186 234.349 137.115 234.349 138.26V141.37H224.079V132.122Z" fill="#707070"/>
<path d="M245.133 138.26V141.37H235.89V138.26C235.89 137.974 236.12 137.742 236.403 137.742H244.62C244.903 137.742 245.133 137.974 245.133 138.26Z" fill="#707070"/>
<path d="M221 145.776C221 143.917 222.49 142.409 224.328 142.409H255.672C257.51 142.409 259 143.917 259 145.776V152.779H221V145.776Z" fill="#707070"/>
<path d="M223.053 153.815H256.945V154.767C256.945 155.386 256.448 155.889 255.836 155.889H224.162C223.55 155.889 223.053 155.386 223.053 154.767V153.815Z" fill="#707070"/>
<path d="M227.164 155.889H225.11V157.961C225.11 158.535 225.57 159 226.137 159C226.704 159 227.164 158.535 227.164 157.961V155.889Z" fill="#707070"/>
<path d="M252.84 155.889H254.894V157.961C254.894 158.535 254.434 159 253.867 159C253.299 159 252.84 158.535 252.84 157.961V155.889Z" fill="#707070"/>
<path d="M444.6 157.499L444.6 133.699C444.6 132.764 445.365 131.999 446.3 131.999C447.235 131.999 448 132.764 448 133.699L448 157.499C448 158.434 447.235 159.199 446.3 159.199C445.365 159.199 444.6 158.434 444.6 157.499ZM414 157.499L414 133.699C414 132.764 414.765 131.999 415.7 131.999C416.635 131.999 417.4 132.764 417.4 133.699L417.4 157.499C417.4 158.434 416.635 159.199 415.7 159.199C414.765 159.199 414 158.434 414 157.499ZM425.9 143.899L425.9 140.856C425.9 140.091 424.982 139.717 424.455 140.261L419.712 145.004C419.372 145.344 419.372 145.871 419.712 146.211L424.455 150.954C424.982 151.481 425.9 151.107 425.9 150.342L425.9 147.299L436.1 147.299L436.1 150.342C436.1 151.107 437.018 151.481 437.545 150.937L442.288 146.194C442.628 145.854 442.628 145.327 442.288 144.987L437.545 140.244C437.018 139.717 436.1 140.091 436.1 140.839L436.1 143.899L425.9 143.899Z" fill="#31344E"/>
<path d="M35.1106 129.166C35.1106 128.577 35.6121 128.1 36.2306 128.1H55.7684C56.387 128.1 56.8884 128.577 56.8884 129.166V137.952H52.222V134.996C52.222 133.908 51.2934 133.026 50.1479 133.026H41.8516C40.7061 133.026 39.7775 133.908 39.7775 134.996V137.952H35.1106V129.166Z" fill="#707070"/>
<path d="M50.6664 134.996V137.952H41.3331V134.996C41.3331 134.724 41.5652 134.503 41.8516 134.503H50.1479C50.4343 134.503 50.6664 134.724 50.6664 134.996Z" fill="#707070"/>
<path d="M32 142.136C32 140.37 33.5043 138.938 35.36 138.938H56.64C58.4957 138.938 60 140.37 60 142.136V148.789H32V142.136Z" fill="#707070"/>
<path d="M33.0367 149.774H58.9626V150.678C58.9626 151.267 58.4612 151.745 57.8426 151.745H34.1567C33.5381 151.745 33.0367 151.267 33.0367 150.678V149.774Z" fill="#707070"/>
<path d="M37.1848 151.745H35.1107V153.713C35.1107 154.258 35.575 154.7 36.1477 154.7C36.7205 154.7 37.1848 154.258 37.1848 153.713V151.745Z" fill="#707070"/>
<path d="M54.8152 151.745H56.8893V153.713C56.8893 154.258 56.425 154.7 55.8522 154.7C55.2795 154.7 54.8152 154.258 54.8152 153.713V151.745Z" fill="#707070"/>
<rect x="32.0001" y="243" width="203" height="48" rx="5" fill="#F6F6F6"/>
<path d="M52.8907 273H51.5626V261.578H57.922V262.75H52.8907V266.938H57.6173V268.102H52.8907V273ZM66.7032 264.438V273H65.6407L65.4532 271.797H65.3829C65.2059 272.094 64.9767 272.344 64.6954 272.547C64.4142 272.75 64.0965 272.901 63.7423 273C63.3934 273.104 63.021 273.156 62.6251 273.156C61.948 273.156 61.3803 273.047 60.922 272.828C60.4637 272.609 60.1173 272.271 59.8829 271.812C59.6538 271.354 59.5392 270.766 59.5392 270.047V264.438H60.8517V269.953C60.8517 270.667 61.0131 271.201 61.3361 271.555C61.659 271.904 62.1512 272.078 62.8126 272.078C63.448 272.078 63.9532 271.958 64.3282 271.719C64.7085 271.479 64.9819 271.128 65.1486 270.664C65.3152 270.195 65.3986 269.622 65.3986 268.945V264.438H66.7032ZM70.7501 273H69.4454V260.844H70.7501V273ZM74.797 273H73.4923V260.844H74.797V273ZM81.8673 261.578L77.6173 273H76.3361L80.5939 261.578H81.8673ZM84.9376 273H83.6095V261.578H89.9689V262.75H84.9376V266.938H89.6642V268.102H84.9376V273ZM98.7501 264.438V273H97.6876L97.5001 271.797H97.4298C97.2527 272.094 97.0236 272.344 96.7423 272.547C96.4611 272.75 96.1434 272.901 95.7892 273C95.4402 273.104 95.0678 273.156 94.672 273.156C93.9949 273.156 93.4272 273.047 92.9689 272.828C92.5105 272.609 92.1642 272.271 91.9298 271.812C91.7006 271.354 91.5861 270.766 91.5861 270.047V264.438H92.8986V269.953C92.8986 270.667 93.06 271.201 93.3829 271.555C93.7059 271.904 94.198 272.078 94.8595 272.078C95.4949 272.078 96.0001 271.958 96.3751 271.719C96.7553 271.479 97.0288 271.128 97.1954 270.664C97.3621 270.195 97.4454 269.622 97.4454 268.945V264.438H98.7501ZM102.797 273H101.492V260.844H102.797V273ZM106.844 273H105.539V260.844H106.844V273ZM121.563 273H120.055L116.969 267.969L113.836 273H112.422L116.227 267.047L112.688 261.578H114.164L117.016 266.133L119.883 261.578H121.289L117.758 267.023L121.563 273ZM123.188 273V261.578H124.516V271.812H129.586V273H123.188ZM134.781 268.617C134.781 267.737 134.865 266.88 135.031 266.047C135.203 265.214 135.464 264.419 135.813 263.664C136.162 262.909 136.602 262.214 137.133 261.578H138.375C137.62 262.568 137.052 263.667 136.672 264.875C136.292 266.083 136.102 267.326 136.102 268.602C136.102 269.435 136.185 270.258 136.352 271.07C136.524 271.878 136.776 272.656 137.109 273.406C137.448 274.156 137.865 274.865 138.359 275.531H137.133C136.602 274.906 136.162 274.224 135.813 273.484C135.464 272.75 135.203 271.971 135.031 271.148C134.865 270.326 134.781 269.482 134.781 268.617ZM143.258 266.016C144.034 266.016 144.708 266.148 145.281 266.414C145.854 266.674 146.297 267.055 146.609 267.555C146.927 268.055 147.086 268.661 147.086 269.375C147.086 270.156 146.917 270.831 146.578 271.398C146.24 271.961 145.753 272.396 145.117 272.703C144.482 273.005 143.721 273.156 142.836 273.156C142.242 273.156 141.69 273.104 141.18 273C140.669 272.896 140.24 272.74 139.891 272.531V271.297C140.271 271.526 140.732 271.708 141.274 271.844C141.815 271.979 142.341 272.047 142.852 272.047C143.43 272.047 143.935 271.956 144.367 271.773C144.805 271.586 145.143 271.305 145.383 270.93C145.628 270.549 145.75 270.073 145.75 269.5C145.75 268.74 145.516 268.154 145.047 267.742C144.583 267.326 143.849 267.117 142.844 267.117C142.521 267.117 142.167 267.143 141.781 267.195C141.396 267.247 141.078 267.305 140.828 267.367L140.172 266.938L140.609 261.578H146.289V262.766H141.719L141.43 266.211C141.628 266.169 141.883 266.128 142.195 266.086C142.508 266.039 142.862 266.016 143.258 266.016ZM156.859 270.352H155.149V273H153.883V270.352H148.359V269.258L153.797 261.516H155.149V269.18H156.859V270.352ZM153.883 269.18V265.445C153.883 265.159 153.886 264.901 153.891 264.672C153.896 264.438 153.904 264.221 153.914 264.023C153.925 263.82 153.932 263.628 153.938 263.445C153.948 263.263 153.956 263.083 153.961 262.906H153.899C153.8 263.115 153.685 263.336 153.555 263.57C153.43 263.799 153.302 264.005 153.172 264.188L149.649 269.18H153.883ZM163.992 264.438V273H162.695V264.438H163.992ZM163.359 261.234C163.573 261.234 163.755 261.305 163.906 261.445C164.063 261.581 164.141 261.794 164.141 262.086C164.141 262.372 164.063 262.586 163.906 262.727C163.755 262.867 163.573 262.938 163.359 262.938C163.136 262.938 162.948 262.867 162.797 262.727C162.651 262.586 162.578 262.372 162.578 262.086C162.578 261.794 162.651 261.581 162.797 261.445C162.948 261.305 163.136 261.234 163.359 261.234ZM170.797 264.281C171.813 264.281 172.581 264.531 173.102 265.031C173.623 265.526 173.883 266.323 173.883 267.422V273H172.602V267.508C172.602 266.794 172.438 266.26 172.109 265.906C171.787 265.552 171.289 265.375 170.617 265.375C169.669 265.375 169.003 265.643 168.617 266.18C168.232 266.716 168.039 267.495 168.039 268.516V273H166.742V264.438H167.789L167.984 265.672H168.055C168.237 265.37 168.469 265.117 168.75 264.914C169.031 264.706 169.346 264.549 169.695 264.445C170.044 264.336 170.412 264.281 170.797 264.281ZM176.359 272.188C176.359 271.823 176.448 271.565 176.625 271.414C176.802 271.258 177.018 271.18 177.274 271.18C177.539 271.18 177.763 271.258 177.945 271.414C178.128 271.565 178.219 271.823 178.219 272.188C178.219 272.547 178.128 272.81 177.945 272.977C177.763 273.138 177.539 273.219 177.274 273.219C177.018 273.219 176.802 273.138 176.625 272.977C176.448 272.81 176.359 272.547 176.359 272.188ZM183.469 268.602C183.469 269.471 183.383 270.32 183.211 271.148C183.044 271.971 182.787 272.753 182.438 273.492C182.094 274.232 181.654 274.911 181.117 275.531H179.891C180.391 274.87 180.807 274.161 181.141 273.406C181.479 272.651 181.732 271.87 181.899 271.062C182.07 270.25 182.156 269.427 182.156 268.594C182.156 267.745 182.07 266.909 181.899 266.086C181.727 265.263 181.471 264.471 181.133 263.711C180.8 262.951 180.38 262.24 179.875 261.578H181.117C181.654 262.219 182.094 262.917 182.438 263.672C182.787 264.422 183.044 265.214 183.211 266.047C183.383 266.875 183.469 267.727 183.469 268.602Z" fill="#31344E"/>
<g filter="url(#filter3_d_6176_35427)">
<rect x="245" y="243" width="203" height="48" rx="5" fill="white" shape-rendering="crispEdges"/>
<rect x="246.5" y="244.5" width="200" height="45" rx="3.5" stroke="#1A1040" stroke-width="3" shape-rendering="crispEdges"/>
<path d="M290.848 262.733C289.822 262.733 289.028 263.12 288.466 263.894C287.903 264.661 287.622 265.733 287.622 267.11C287.622 269.976 288.697 271.408 290.848 271.408C291.75 271.408 292.843 271.183 294.126 270.731V273.017C293.071 273.456 291.894 273.676 290.593 273.676C288.724 273.676 287.294 273.11 286.304 271.979C285.313 270.843 284.818 269.214 284.818 267.093C284.818 265.757 285.062 264.588 285.548 263.586C286.034 262.578 286.731 261.808 287.64 261.274C288.554 260.735 289.623 260.466 290.848 260.466C292.096 260.466 293.35 260.768 294.609 261.371L293.73 263.586C293.25 263.357 292.767 263.158 292.28 262.988C291.794 262.818 291.316 262.733 290.848 262.733ZM305.728 273.5H303.047V267.761C303.047 266.343 302.52 265.634 301.465 265.634C300.715 265.634 300.173 265.889 299.839 266.398C299.505 266.908 299.338 267.734 299.338 268.877V273.5H296.657V259.824H299.338V262.61C299.338 262.827 299.317 263.337 299.276 264.14L299.215 264.931H299.355C299.953 263.97 300.902 263.489 302.203 263.489C303.357 263.489 304.233 263.8 304.831 264.421C305.429 265.042 305.728 265.933 305.728 267.093V273.5ZM314.728 273.5L314.209 272.164H314.139C313.688 272.732 313.222 273.128 312.741 273.351C312.267 273.567 311.646 273.676 310.878 273.676C309.935 273.676 309.19 273.406 308.646 272.867C308.106 272.328 307.837 271.561 307.837 270.564C307.837 269.521 308.2 268.754 308.927 268.262C309.659 267.764 310.761 267.488 312.231 267.436L313.937 267.383V266.952C313.937 265.956 313.427 265.458 312.407 265.458C311.622 265.458 310.699 265.695 309.639 266.17L308.751 264.359C309.882 263.768 311.136 263.472 312.513 263.472C313.831 263.472 314.842 263.759 315.545 264.333C316.248 264.907 316.6 265.78 316.6 266.952V273.5H314.728ZM313.937 268.947L312.899 268.982C312.12 269.006 311.54 269.146 311.159 269.404C310.778 269.662 310.588 270.055 310.588 270.582C310.588 271.338 311.021 271.716 311.889 271.716C312.51 271.716 313.005 271.537 313.374 271.18C313.749 270.822 313.937 270.348 313.937 269.756V268.947ZM328.438 273.5H325.758V267.761C325.758 267.052 325.632 266.521 325.38 266.17C325.128 265.812 324.727 265.634 324.176 265.634C323.426 265.634 322.884 265.886 322.55 266.39C322.216 266.888 322.049 267.717 322.049 268.877V273.5H319.368V263.674H321.416L321.776 264.931H321.926C322.225 264.456 322.635 264.099 323.156 263.858C323.684 263.612 324.281 263.489 324.949 263.489C326.092 263.489 326.959 263.8 327.551 264.421C328.143 265.036 328.438 265.927 328.438 267.093V273.5ZM339.75 263.674V265.036L338.212 265.432C338.493 265.871 338.634 266.363 338.634 266.908C338.634 267.963 338.265 268.786 337.526 269.378C336.794 269.964 335.774 270.257 334.468 270.257L333.984 270.23L333.589 270.187C333.313 270.397 333.176 270.632 333.176 270.89C333.176 271.276 333.668 271.47 334.652 271.47H336.322C337.4 271.47 338.221 271.701 338.783 272.164C339.352 272.627 339.636 273.307 339.636 274.203C339.636 275.352 339.155 276.242 338.194 276.875C337.239 277.508 335.865 277.824 334.072 277.824C332.701 277.824 331.652 277.584 330.926 277.104C330.205 276.629 329.845 275.961 329.845 275.1C329.845 274.508 330.029 274.013 330.398 273.614C330.768 273.216 331.31 272.932 332.024 272.762C331.749 272.645 331.509 272.454 331.304 272.19C331.099 271.921 330.996 271.637 330.996 271.338C330.996 270.963 331.104 270.652 331.321 270.406C331.538 270.154 331.852 269.908 332.262 269.668C331.746 269.445 331.336 269.088 331.031 268.596C330.732 268.104 330.583 267.523 330.583 266.855C330.583 265.783 330.932 264.954 331.629 264.368C332.326 263.782 333.322 263.489 334.617 263.489C334.893 263.489 335.218 263.516 335.593 263.568C335.974 263.615 336.217 263.65 336.322 263.674H339.75ZM332.165 274.889C332.165 275.258 332.341 275.548 332.692 275.759C333.05 275.97 333.548 276.075 334.187 276.075C335.147 276.075 335.9 275.943 336.445 275.68C336.99 275.416 337.263 275.056 337.263 274.599C337.263 274.229 337.102 273.975 336.779 273.834C336.457 273.693 335.959 273.623 335.285 273.623H333.896C333.404 273.623 332.991 273.737 332.657 273.966C332.329 274.2 332.165 274.508 332.165 274.889ZM333.141 266.891C333.141 267.424 333.261 267.846 333.501 268.156C333.747 268.467 334.119 268.622 334.617 268.622C335.121 268.622 335.49 268.467 335.725 268.156C335.959 267.846 336.076 267.424 336.076 266.891C336.076 265.707 335.59 265.115 334.617 265.115C333.633 265.115 333.141 265.707 333.141 266.891ZM345.445 265.396C344.877 265.396 344.432 265.578 344.109 265.941C343.787 266.299 343.603 266.809 343.556 267.471H347.317C347.306 266.809 347.133 266.299 346.799 265.941C346.465 265.578 346.014 265.396 345.445 265.396ZM345.823 273.676C344.241 273.676 343.005 273.239 342.114 272.366C341.224 271.493 340.778 270.257 340.778 268.657C340.778 267.011 341.188 265.739 342.009 264.843C342.835 263.94 343.975 263.489 345.428 263.489C346.816 263.489 347.897 263.885 348.671 264.676C349.444 265.467 349.831 266.56 349.831 267.954V269.255H343.494C343.523 270.017 343.749 270.611 344.171 271.039C344.593 271.467 345.185 271.681 345.946 271.681C346.538 271.681 347.098 271.619 347.625 271.496C348.152 271.373 348.703 271.177 349.277 270.907V272.981C348.809 273.216 348.308 273.389 347.774 273.5C347.241 273.617 346.591 273.676 345.823 273.676ZM369.413 273.5H366.311L364.57 266.75C364.506 266.51 364.395 266.015 364.236 265.265C364.084 264.509 363.996 264.002 363.973 263.744C363.938 264.061 363.85 264.57 363.709 265.273C363.568 265.971 363.46 266.469 363.384 266.768L361.652 273.5H358.559L355.28 260.65H357.961L359.604 267.664C359.892 268.959 360.1 270.081 360.229 271.03C360.264 270.696 360.343 270.181 360.466 269.483C360.595 268.78 360.715 268.235 360.826 267.849L362.698 260.65H365.273L367.146 267.849C367.228 268.171 367.33 268.663 367.453 269.325C367.576 269.987 367.67 270.556 367.734 271.03C367.793 270.573 367.887 270.005 368.016 269.325C368.145 268.64 368.262 268.086 368.367 267.664L370.002 260.65H372.683L369.413 273.5ZM373.975 261.134C373.975 260.261 374.461 259.824 375.434 259.824C376.406 259.824 376.893 260.261 376.893 261.134C376.893 261.55 376.77 261.875 376.523 262.109C376.283 262.338 375.92 262.452 375.434 262.452C374.461 262.452 373.975 262.013 373.975 261.134ZM376.77 273.5H374.089V263.674H376.77V273.5ZM382.702 273.676C381.548 273.676 380.64 273.228 379.978 272.331C379.321 271.435 378.993 270.192 378.993 268.604C378.993 266.993 379.327 265.739 379.995 264.843C380.669 263.94 381.595 263.489 382.772 263.489C384.009 263.489 384.952 263.97 385.603 264.931H385.69C385.556 264.198 385.488 263.545 385.488 262.971V259.824H388.178V273.5H386.121L385.603 272.226H385.488C384.879 273.192 383.95 273.676 382.702 273.676ZM383.643 271.54C384.328 271.54 384.829 271.341 385.146 270.942C385.468 270.544 385.644 269.867 385.673 268.912V268.622C385.673 267.567 385.509 266.812 385.181 266.354C384.858 265.897 384.331 265.669 383.599 265.669C383.001 265.669 382.535 265.924 382.201 266.434C381.873 266.938 381.709 267.673 381.709 268.64C381.709 269.606 381.876 270.333 382.21 270.819C382.544 271.3 383.021 271.54 383.643 271.54ZM395.121 271.54C395.59 271.54 396.152 271.438 396.809 271.232V273.228C396.141 273.526 395.32 273.676 394.348 273.676C393.275 273.676 392.493 273.406 392.001 272.867C391.515 272.322 391.271 271.508 391.271 270.424V265.687H389.988V264.553L391.465 263.656L392.238 261.582H393.952V263.674H396.703V265.687H393.952V270.424C393.952 270.805 394.058 271.086 394.269 271.268C394.485 271.449 394.77 271.54 395.121 271.54ZM407.874 273.5H405.193V267.761C405.193 266.343 404.666 265.634 403.611 265.634C402.861 265.634 402.319 265.889 401.985 266.398C401.651 266.908 401.484 267.734 401.484 268.877V273.5H398.804V259.824H401.484V262.61C401.484 262.827 401.464 263.337 401.423 264.14L401.361 264.931H401.502C402.1 263.97 403.049 263.489 404.35 263.489C405.504 263.489 406.38 263.8 406.978 264.421C407.575 265.042 407.874 265.933 407.874 267.093V273.5Z" fill="#31344E"/>
</g>
</g>
<defs>
<filter id="filter0_d_6176_35427" x="12" y="382" width="456" height="88" filterUnits="userSpaceOnUse" color-interpolation-filters="sRGB">
<feFlood flood-opacity="0" result="BackgroundImageFix"/>
<feColorMatrix in="SourceAlpha" type="matrix" values="0 0 0 0 0 0 0 0 0 0 0 0 0 0 0 0 0 0 127 0" result="hardAlpha"/>
<feOffset dy="2"/>
<feGaussianBlur stdDeviation="2"/>
<feComposite in2="hardAlpha" operator="out"/>
<feColorMatrix type="matrix" values="0 0 0 0 0 0 0 0 0 0 0 0 0 0 0 0 0 0 0.25 0"/>
<feBlend mode="normal" in2="BackgroundImageFix" result="effect1_dropShadow_6176_35427"/>
<feBlend mode="normal" in="SourceGraphic" in2="effect1_dropShadow_6176_35427" result="shape"/>
</filter>
<filter id="filter1_d_6176_35427" x="10" y="77" width="460" height="239" filterUnits="userSpaceOnUse" color-interpolation-filters="sRGB">
<feFlood flood-opacity="0" result="BackgroundImageFix"/>
<feColorMatrix in="SourceAlpha" type="matrix" values="0 0 0 0 0 0 0 0 0 0 0 0 0 0 0 0 0 0 127 0" result="hardAlpha"/>
<feOffset dy="3"/>
<feGaussianBlur stdDeviation="3"/>
<feComposite in2="hardAlpha" operator="out"/>
<feColorMatrix type="matrix" values="0 0 0 0 0 0 0 0 0 0 0 0 0 0 0 0 0 0 0.25 0"/>
<feBlend mode="normal" in2="BackgroundImageFix" result="effect1_dropShadow_6176_35427"/>
<feBlend mode="normal" in="SourceGraphic" in2="effect1_dropShadow_6176_35427" result="shape"/>
</filter>
<filter id="filter2_d_6176_35427" x="411" y="164" width="42" height="42" filterUnits="userSpaceOnUse" color-interpolation-filters="sRGB">
<feFlood flood-opacity="0" result="BackgroundImageFix"/>
<feColorMatrix in="SourceAlpha" type="matrix" values="0 0 0 0 0 0 0 0 0 0 0 0 0 0 0 0 0 0 127 0" result="hardAlpha"/>
<feOffset dy="2"/>
<feGaussianBlur stdDeviation="2"/>
<feComposite in2="hardAlpha" operator="out"/>
<feColorMatrix type="matrix" values="0 0 0 0 0 0 0 0 0 0 0 0 0 0 0 0 0 0 0.25 0"/>
<feBlend mode="normal" in2="BackgroundImageFix" result="effect1_dropShadow_6176_35427"/>
<feBlend mode="normal" in="SourceGraphic" in2="effect1_dropShadow_6176_35427" result="shape"/>
</filter>
<filter id="filter3_d_6176_35427" x="241" y="241" width="211" height="56" filterUnits="userSpaceOnUse" color-interpolation-filters="sRGB">
<feFlood flood-opacity="0" result="BackgroundImageFix"/>
<feColorMatrix in="SourceAlpha" type="matrix" values="0 0 0 0 0 0 0 0 0 0 0 0 0 0 0 0 0 0 127 0" result="hardAlpha"/>
<feOffset dy="2"/>
<feGaussianBlur stdDeviation="2"/>
<feComposite in2="hardAlpha" operator="out"/>
<feColorMatrix type="matrix" values="0 0 0 0 0 0 0 0 0 0 0 0 0 0 0 0 0 0 0.25 0"/>
<feBlend mode="normal" in2="BackgroundImageFix" result="effect1_dropShadow_6176_35427"/>
<feBlend mode="normal" in="SourceGraphic" in2="effect1_dropShadow_6176_35427" result="shape"/>
</filter>
</defs>
</svg>
