<svg width="480" height="480" viewBox="0 0 480 480" fill="none" xmlns="http://www.w3.org/2000/svg">
<rect width="480" height="480" fill="#F6F6F6"/>
<mask id="path-1-inside-1_3949_45915" fill="white">
<path d="M0 0H480V64H0V0Z"/>
</mask>
<path d="M0 0H480V64H0V0Z" fill="white"/>
<path d="M480 64V63H0V64V65H480V64Z" fill="#D1D1D1" mask="url(#path-1-inside-1_3949_45915)"/>
<path d="M210.363 36.0352C210.363 36.8815 210.158 37.6172 209.748 38.2422C209.338 38.8672 208.739 39.349 207.951 39.6875C207.17 40.026 206.219 40.1953 205.1 40.1953C204.605 40.1953 204.12 40.1628 203.645 40.0977C203.176 40.0326 202.723 39.9382 202.287 39.8145C201.857 39.6842 201.447 39.5247 201.057 39.3359V36.5234C201.734 36.8229 202.437 37.0931 203.166 37.334C203.895 37.5749 204.618 37.6953 205.334 37.6953C205.829 37.6953 206.226 37.6302 206.525 37.5C206.831 37.3698 207.053 37.1908 207.189 36.9629C207.326 36.735 207.395 36.4746 207.395 36.1816C207.395 35.8236 207.274 35.5176 207.033 35.2637C206.792 35.0098 206.46 34.7721 206.037 34.5508C205.62 34.3294 205.148 34.0918 204.621 33.8379C204.289 33.6816 203.928 33.4928 203.537 33.2715C203.146 33.0436 202.775 32.7669 202.424 32.4414C202.072 32.1159 201.783 31.722 201.555 31.2598C201.333 30.791 201.223 30.2311 201.223 29.5801C201.223 28.7272 201.418 27.998 201.809 27.3926C202.199 26.7871 202.756 26.3249 203.479 26.0059C204.208 25.6803 205.067 25.5176 206.057 25.5176C206.799 25.5176 207.505 25.6055 208.176 25.7812C208.853 25.9505 209.559 26.1979 210.295 26.5234L209.318 28.877C208.661 28.61 208.072 28.4049 207.551 28.2617C207.03 28.112 206.499 28.0371 205.959 28.0371C205.581 28.0371 205.259 28.099 204.992 28.2227C204.725 28.3398 204.523 28.5091 204.387 28.7305C204.25 28.9453 204.182 29.196 204.182 29.4824C204.182 29.821 204.279 30.1074 204.475 30.3418C204.676 30.5697 204.976 30.791 205.373 31.0059C205.777 31.2207 206.278 31.4714 206.877 31.7578C207.606 32.1029 208.228 32.4642 208.742 32.8418C209.263 33.2129 209.663 33.6523 209.943 34.1602C210.223 34.6615 210.363 35.2865 210.363 36.0352ZM217.219 28.877C218.228 28.877 219.097 29.0723 219.826 29.4629C220.555 29.847 221.118 30.4069 221.516 31.1426C221.913 31.8783 222.111 32.7767 222.111 33.8379V35.2832H215.07C215.103 36.123 215.354 36.7839 215.822 37.2656C216.298 37.7409 216.955 37.9785 217.795 37.9785C218.492 37.9785 219.13 37.9069 219.709 37.7637C220.288 37.6204 220.884 37.4056 221.496 37.1191V39.4238C220.956 39.6908 220.389 39.8861 219.797 40.0098C219.211 40.1335 218.498 40.1953 217.658 40.1953C216.564 40.1953 215.594 39.9935 214.748 39.5898C213.908 39.1862 213.247 38.571 212.766 37.7441C212.29 36.9173 212.053 35.8757 212.053 34.6191C212.053 33.3431 212.268 32.2819 212.697 31.4355C213.133 30.5827 213.739 29.9447 214.514 29.5215C215.288 29.0918 216.19 28.877 217.219 28.877ZM217.238 30.9961C216.659 30.9961 216.177 31.1816 215.793 31.5527C215.415 31.9238 215.197 32.5065 215.139 33.3008H219.318C219.312 32.8581 219.23 32.4642 219.074 32.1191C218.924 31.7741 218.697 31.5007 218.391 31.2988C218.091 31.097 217.707 30.9961 217.238 30.9961ZM229.133 37.8223C229.458 37.8223 229.774 37.7897 230.08 37.7246C230.393 37.6595 230.702 37.5781 231.008 37.4805V39.6973C230.689 39.8405 230.292 39.9577 229.816 40.0488C229.348 40.1465 228.833 40.1953 228.273 40.1953C227.622 40.1953 227.036 40.0911 226.516 39.8828C226.001 39.668 225.594 39.3001 225.295 38.7793C225.002 38.252 224.855 37.5195 224.855 36.582V31.3184H223.43V30.0586L225.07 29.0625L225.93 26.7578H227.834V29.082H230.891V31.3184H227.834V36.582C227.834 36.9987 227.951 37.3112 228.186 37.5195C228.426 37.7214 228.742 37.8223 229.133 37.8223ZM237.824 37.8223C238.15 37.8223 238.465 37.7897 238.771 37.7246C239.084 37.6595 239.393 37.5781 239.699 37.4805V39.6973C239.38 39.8405 238.983 39.9577 238.508 40.0488C238.039 40.1465 237.525 40.1953 236.965 40.1953C236.314 40.1953 235.728 40.0911 235.207 39.8828C234.693 39.668 234.286 39.3001 233.986 38.7793C233.693 38.252 233.547 37.5195 233.547 36.582V31.3184H232.121V30.0586L233.762 29.0625L234.621 26.7578H236.525V29.082H239.582V31.3184H236.525V36.582C236.525 36.9987 236.643 37.3112 236.877 37.5195C237.118 37.7214 237.434 37.8223 237.824 37.8223ZM244.895 29.082V40H241.916V29.082H244.895ZM243.41 24.8047C243.853 24.8047 244.234 24.9089 244.553 25.1172C244.872 25.319 245.031 25.6999 245.031 26.2598C245.031 26.8132 244.872 27.1973 244.553 27.4121C244.234 27.6204 243.853 27.7246 243.41 27.7246C242.961 27.7246 242.577 27.6204 242.258 27.4121C241.945 27.1973 241.789 26.8132 241.789 26.2598C241.789 25.6999 241.945 25.319 242.258 25.1172C242.577 24.9089 242.961 24.8047 243.41 24.8047ZM254.23 28.877C255.396 28.877 256.333 29.196 257.043 29.834C257.753 30.4655 258.107 31.4811 258.107 32.8809V40H255.129V33.623C255.129 32.8418 254.986 32.2526 254.699 31.8555C254.419 31.4583 253.977 31.2598 253.371 31.2598C252.46 31.2598 251.838 31.569 251.506 32.1875C251.174 32.806 251.008 33.6979 251.008 34.8633V40H248.029V29.082H250.305L250.705 30.4785H250.871C251.105 30.1009 251.395 29.7949 251.74 29.5605C252.092 29.3262 252.479 29.1536 252.902 29.043C253.332 28.9323 253.775 28.877 254.23 28.877ZM264.367 44.8047C262.844 44.8047 261.678 44.5378 260.871 44.0039C260.07 43.4766 259.67 42.7344 259.67 41.7773C259.67 41.1198 259.875 40.5697 260.285 40.127C260.695 39.6842 261.298 39.3685 262.092 39.1797C261.786 39.0495 261.519 38.8379 261.291 38.5449C261.063 38.2454 260.949 37.9297 260.949 37.5977C260.949 37.181 261.07 36.8359 261.311 36.5625C261.551 36.2826 261.9 36.0091 262.355 35.7422C261.783 35.4948 261.327 35.0977 260.988 34.5508C260.656 34.0039 260.49 33.3594 260.49 32.6172C260.49 31.8229 260.663 31.1491 261.008 30.5957C261.359 30.0358 261.867 29.6094 262.531 29.3164C263.202 29.0234 264.016 28.877 264.973 28.877C265.174 28.877 265.409 28.89 265.676 28.916C265.943 28.9421 266.187 28.9714 266.408 29.0039C266.636 29.0365 266.789 29.0625 266.867 29.082H270.676V30.5957L268.967 31.0352C269.123 31.276 269.24 31.5332 269.318 31.8066C269.396 32.0801 269.436 32.3698 269.436 32.6758C269.436 33.8477 269.025 34.7624 268.205 35.4199C267.391 36.071 266.258 36.3965 264.807 36.3965C264.462 36.377 264.136 36.3509 263.83 36.3184C263.68 36.4355 263.566 36.5592 263.488 36.6895C263.41 36.8197 263.371 36.9564 263.371 37.0996C263.371 37.2428 263.43 37.3633 263.547 37.4609C263.671 37.5521 263.853 37.6237 264.094 37.6758C264.341 37.7214 264.647 37.7441 265.012 37.7441H266.867C268.065 37.7441 268.977 38.0013 269.602 38.5156C270.233 39.0299 270.549 39.7852 270.549 40.7812C270.549 42.0573 270.015 43.0469 268.947 43.75C267.886 44.4531 266.359 44.8047 264.367 44.8047ZM264.494 42.8613C265.204 42.8613 265.812 42.793 266.32 42.6562C266.835 42.526 267.229 42.3372 267.502 42.0898C267.775 41.849 267.912 41.5592 267.912 41.2207C267.912 40.9473 267.831 40.7292 267.668 40.5664C267.512 40.4102 267.271 40.2995 266.945 40.2344C266.626 40.1693 266.216 40.1367 265.715 40.1367H264.172C263.807 40.1367 263.479 40.1953 263.186 40.3125C262.899 40.4297 262.671 40.5924 262.502 40.8008C262.333 41.0156 262.248 41.263 262.248 41.543C262.248 41.9531 262.443 42.2754 262.834 42.5098C263.231 42.7441 263.785 42.8613 264.494 42.8613ZM264.973 34.5801C265.533 34.5801 265.943 34.4076 266.203 34.0625C266.464 33.7174 266.594 33.2487 266.594 32.6562C266.594 31.9987 266.457 31.5072 266.184 31.1816C265.917 30.8496 265.513 30.6836 264.973 30.6836C264.426 30.6836 264.016 30.8496 263.742 31.1816C263.469 31.5072 263.332 31.9987 263.332 32.6562C263.332 33.2487 263.465 33.7174 263.732 34.0625C264.006 34.4076 264.419 34.5801 264.973 34.5801ZM280.1 36.7578C280.1 37.5 279.924 38.1283 279.572 38.6426C279.227 39.1504 278.71 39.5378 278.02 39.8047C277.329 40.0651 276.47 40.1953 275.441 40.1953C274.68 40.1953 274.025 40.1465 273.479 40.0488C272.938 39.9512 272.391 39.7884 271.838 39.5605V37.0996C272.43 37.3665 273.065 37.5879 273.742 37.7637C274.426 37.9329 275.025 38.0176 275.539 38.0176C276.118 38.0176 276.532 37.9329 276.779 37.7637C277.033 37.5879 277.16 37.36 277.16 37.0801C277.16 36.8978 277.108 36.735 277.004 36.5918C276.906 36.4421 276.691 36.276 276.359 36.0938C276.027 35.9049 275.507 35.6608 274.797 35.3613C274.113 35.0749 273.55 34.7852 273.107 34.4922C272.671 34.1992 272.346 33.8542 272.131 33.457C271.923 33.0534 271.818 32.5423 271.818 31.9238C271.818 30.9147 272.209 30.1562 272.99 29.6484C273.778 29.1341 274.829 28.877 276.145 28.877C276.822 28.877 277.466 28.9453 278.078 29.082C278.697 29.2188 279.331 29.4368 279.982 29.7363L279.084 31.8848C278.544 31.6504 278.033 31.4583 277.551 31.3086C277.076 31.1589 276.59 31.084 276.096 31.084C275.66 31.084 275.331 31.1426 275.109 31.2598C274.888 31.377 274.777 31.556 274.777 31.7969C274.777 31.9727 274.833 32.1289 274.943 32.2656C275.061 32.4023 275.282 32.5553 275.607 32.7246C275.939 32.8874 276.424 33.099 277.062 33.3594C277.681 33.6133 278.218 33.8802 278.674 34.1602C279.13 34.4336 279.481 34.7754 279.729 35.1855C279.976 35.5892 280.1 36.1133 280.1 36.7578Z" fill="#31344E"/>
<path d="M459.29 24.0987C460.227 23.1616 460.227 21.6399 459.29 20.7028C458.353 19.7657 456.831 19.7657 455.894 20.7028L448 28.6041L440.099 20.7103C439.162 19.7732 437.64 19.7732 436.703 20.7103C435.766 21.6474 435.766 23.1691 436.703 24.1062L444.604 32L436.71 39.9013C435.773 40.8384 435.773 42.3601 436.71 43.2972C437.647 44.2343 439.169 44.2343 440.106 43.2972L448 35.3959L455.901 43.2897C456.838 44.2268 458.36 44.2268 459.297 43.2897C460.234 42.3526 460.234 40.8309 459.297 39.8938L451.396 32L459.29 24.0987Z" fill="#1A1040"/>
<path d="M36 15.8496C44.8828 15.8496 52.1504 23.1172 52.1504 32C52.1504 40.8828 44.8828 48.1504 36 48.1504C27.1172 48.1504 19.8496 40.8828 19.8496 32C19.8496 23.1172 27.1172 15.8496 36 15.8496ZM36 19.1504C28.8828 19.1504 23.1504 24.8828 23.1504 32C23.1504 39.1172 28.8828 44.8496 36 44.8496C43.1172 44.8496 48.8496 39.1172 48.8496 32C48.8496 24.8828 43.1172 19.1504 36 19.1504Z" fill="#1A1040" stroke="#1A1040" stroke-width="0.3"/>
<path d="M36 23.8496C37.1874 23.8496 38.1504 24.8126 38.1504 26C38.1504 27.1874 37.1874 28.1504 36 28.1504C34.8126 28.1504 33.8496 27.1874 33.8496 26C33.8496 24.8126 34.8126 23.8496 36 23.8496Z" fill="#1A1040" stroke="#1A1040" stroke-width="0.3"/>
<path d="M36 29.8496C37.1828 29.8496 38.1504 30.8172 38.1504 32V38C38.1504 39.1828 37.1828 40.1504 36 40.1504C34.8172 40.1504 33.8496 39.1828 33.8496 38V32C33.8496 30.8172 34.8172 29.8496 36 29.8496Z" fill="#1A1040" stroke="#1A1040" stroke-width="0.3"/>
<g filter="url(#filter0_d_3949_45915)">
<rect x="247" y="384" width="216" height="80" rx="5" fill="#1A1040" shape-rendering="crispEdges"/>
<path d="M317.91 433.5L316.668 429.422H310.422L309.18 433.5H305.266L311.312 416.297H315.754L321.824 433.5H317.91ZM315.801 426.375L314.559 422.391C314.48 422.125 314.375 421.785 314.242 421.371C314.117 420.949 313.988 420.523 313.855 420.094C313.73 419.656 313.629 419.277 313.551 418.957C313.473 419.277 313.363 419.676 313.223 420.152C313.09 420.621 312.961 421.066 312.836 421.488C312.711 421.91 312.621 422.211 312.566 422.391L311.336 426.375H315.801ZM329.031 433.734C327.734 433.734 326.629 433.5 325.715 433.031C324.801 432.555 324.105 431.82 323.629 430.828C323.152 429.836 322.914 428.566 322.914 427.02C322.914 425.418 323.184 424.113 323.723 423.105C324.27 422.09 325.023 421.344 325.984 420.867C326.953 420.391 328.074 420.152 329.348 420.152C330.254 420.152 331.035 420.242 331.691 420.422C332.355 420.594 332.934 420.801 333.426 421.043L332.371 423.809C331.809 423.582 331.285 423.398 330.801 423.258C330.316 423.109 329.832 423.035 329.348 423.035C328.723 423.035 328.203 423.184 327.789 423.48C327.375 423.77 327.066 424.207 326.863 424.793C326.66 425.379 326.559 426.113 326.559 426.996C326.559 427.863 326.668 428.582 326.887 429.152C327.105 429.723 327.422 430.148 327.836 430.43C328.25 430.703 328.754 430.84 329.348 430.84C330.09 430.84 330.75 430.742 331.328 430.547C331.906 430.344 332.469 430.062 333.016 429.703V432.762C332.469 433.105 331.895 433.352 331.293 433.5C330.699 433.656 329.945 433.734 329.031 433.734ZM341.582 430.887C341.973 430.887 342.352 430.848 342.719 430.77C343.094 430.691 343.465 430.594 343.832 430.477V433.137C343.449 433.309 342.973 433.449 342.402 433.559C341.84 433.676 341.223 433.734 340.551 433.734C339.77 433.734 339.066 433.609 338.441 433.359C337.824 433.102 337.336 432.66 336.977 432.035C336.625 431.402 336.449 430.523 336.449 429.398V423.082H334.738V421.57L336.707 420.375L337.738 417.609H340.023V420.398H343.691V423.082H340.023V429.398C340.023 429.898 340.164 430.273 340.445 430.523C340.734 430.766 341.113 430.887 341.582 430.887ZM350.066 420.398V433.5H346.492V420.398H350.066ZM348.285 415.266C348.816 415.266 349.273 415.391 349.656 415.641C350.039 415.883 350.23 416.34 350.23 417.012C350.23 417.676 350.039 418.137 349.656 418.395C349.273 418.645 348.816 418.77 348.285 418.77C347.746 418.77 347.285 418.645 346.902 418.395C346.527 418.137 346.34 417.676 346.34 417.012C346.34 416.34 346.527 415.883 346.902 415.641C347.285 415.391 347.746 415.266 348.285 415.266ZM356.945 433.5L351.953 420.398H355.691L358.223 427.863C358.363 428.301 358.473 428.762 358.551 429.246C358.637 429.73 358.695 430.164 358.727 430.547H358.82C358.844 430.133 358.898 429.691 358.984 429.223C359.078 428.754 359.199 428.301 359.348 427.863L361.867 420.398H365.605L360.613 433.5H356.945ZM372.859 420.129C374.617 420.129 375.965 420.512 376.902 421.277C377.84 422.043 378.309 423.207 378.309 424.77V433.5H375.812L375.121 431.719H375.027C374.652 432.188 374.27 432.57 373.879 432.867C373.488 433.164 373.039 433.383 372.531 433.523C372.023 433.664 371.406 433.734 370.68 433.734C369.906 433.734 369.211 433.586 368.594 433.289C367.984 432.992 367.504 432.539 367.152 431.93C366.801 431.312 366.625 430.531 366.625 429.586C366.625 428.195 367.113 427.172 368.09 426.516C369.066 425.852 370.531 425.484 372.484 425.414L374.758 425.344V424.77C374.758 424.082 374.578 423.578 374.219 423.258C373.859 422.938 373.359 422.777 372.719 422.777C372.086 422.777 371.465 422.867 370.855 423.047C370.246 423.227 369.637 423.453 369.027 423.727L367.844 421.312C368.539 420.945 369.316 420.656 370.176 420.445C371.043 420.234 371.938 420.129 372.859 420.129ZM374.758 427.43L373.375 427.477C372.219 427.508 371.414 427.715 370.961 428.098C370.516 428.48 370.293 428.984 370.293 429.609C370.293 430.156 370.453 430.547 370.773 430.781C371.094 431.008 371.512 431.121 372.027 431.121C372.793 431.121 373.438 430.895 373.961 430.441C374.492 429.988 374.758 429.344 374.758 428.508V427.43ZM387.52 430.887C387.91 430.887 388.289 430.848 388.656 430.77C389.031 430.691 389.402 430.594 389.77 430.477V433.137C389.387 433.309 388.91 433.449 388.34 433.559C387.777 433.676 387.16 433.734 386.488 433.734C385.707 433.734 385.004 433.609 384.379 433.359C383.762 433.102 383.273 432.66 382.914 432.035C382.562 431.402 382.387 430.523 382.387 429.398V423.082H380.676V421.57L382.645 420.375L383.676 417.609H385.961V420.398H389.629V423.082H385.961V429.398C385.961 429.898 386.102 430.273 386.383 430.523C386.672 430.766 387.051 430.887 387.52 430.887ZM397.832 420.152C399.043 420.152 400.086 420.387 400.961 420.855C401.836 421.316 402.512 421.988 402.988 422.871C403.465 423.754 403.703 424.832 403.703 426.105V427.84H395.254C395.293 428.848 395.594 429.641 396.156 430.219C396.727 430.789 397.516 431.074 398.523 431.074C399.359 431.074 400.125 430.988 400.82 430.816C401.516 430.645 402.23 430.387 402.965 430.043V432.809C402.316 433.129 401.637 433.363 400.926 433.512C400.223 433.66 399.367 433.734 398.359 433.734C397.047 433.734 395.883 433.492 394.867 433.008C393.859 432.523 393.066 431.785 392.488 430.793C391.918 429.801 391.633 428.551 391.633 427.043C391.633 425.512 391.891 424.238 392.406 423.223C392.93 422.199 393.656 421.434 394.586 420.926C395.516 420.41 396.598 420.152 397.832 420.152ZM397.855 422.695C397.16 422.695 396.582 422.918 396.121 423.363C395.668 423.809 395.406 424.508 395.336 425.461H400.352C400.344 424.93 400.246 424.457 400.059 424.043C399.879 423.629 399.605 423.301 399.238 423.059C398.879 422.816 398.418 422.695 397.855 422.695Z" fill="white"/>
</g>
<g filter="url(#filter1_d_3949_45915)">
<rect x="21" y="384" width="216" height="80" rx="5" fill="white" shape-rendering="crispEdges"/>
<rect x="22.5" y="385.5" width="213" height="77" rx="3.5" stroke="#1A1040" stroke-width="3" shape-rendering="crispEdges"/>
<path d="M102.223 416.367H107.555C109.836 416.367 111.562 416.688 112.734 417.328C113.906 417.969 114.492 419.094 114.492 420.703C114.492 421.352 114.387 421.938 114.176 422.461C113.973 422.984 113.676 423.414 113.285 423.75C112.895 424.086 112.418 424.305 111.855 424.406V424.523C112.426 424.641 112.941 424.844 113.402 425.133C113.863 425.414 114.23 425.828 114.504 426.375C114.785 426.914 114.926 427.633 114.926 428.531C114.926 429.57 114.672 430.461 114.164 431.203C113.656 431.945 112.93 432.516 111.984 432.914C111.047 433.305 109.93 433.5 108.633 433.5H102.223V416.367ZM105.855 423.152H107.965C109.02 423.152 109.75 422.988 110.156 422.66C110.562 422.324 110.766 421.832 110.766 421.184C110.766 420.527 110.523 420.059 110.039 419.777C109.562 419.488 108.805 419.344 107.766 419.344H105.855V423.152ZM105.855 426.035V430.5H108.223C109.316 430.5 110.078 430.289 110.508 429.867C110.938 429.445 111.152 428.879 111.152 428.168C111.152 427.746 111.059 427.375 110.871 427.055C110.684 426.734 110.367 426.484 109.922 426.305C109.484 426.125 108.879 426.035 108.105 426.035H105.855ZM123.434 420.129C125.191 420.129 126.539 420.512 127.477 421.277C128.414 422.043 128.883 423.207 128.883 424.77V433.5H126.387L125.695 431.719H125.602C125.227 432.188 124.844 432.57 124.453 432.867C124.062 433.164 123.613 433.383 123.105 433.523C122.598 433.664 121.98 433.734 121.254 433.734C120.48 433.734 119.785 433.586 119.168 433.289C118.559 432.992 118.078 432.539 117.727 431.93C117.375 431.312 117.199 430.531 117.199 429.586C117.199 428.195 117.688 427.172 118.664 426.516C119.641 425.852 121.105 425.484 123.059 425.414L125.332 425.344V424.77C125.332 424.082 125.152 423.578 124.793 423.258C124.434 422.938 123.934 422.777 123.293 422.777C122.66 422.777 122.039 422.867 121.43 423.047C120.82 423.227 120.211 423.453 119.602 423.727L118.418 421.312C119.113 420.945 119.891 420.656 120.75 420.445C121.617 420.234 122.512 420.129 123.434 420.129ZM125.332 427.43L123.949 427.477C122.793 427.508 121.988 427.715 121.535 428.098C121.09 428.48 120.867 428.984 120.867 429.609C120.867 430.156 121.027 430.547 121.348 430.781C121.668 431.008 122.086 431.121 122.602 431.121C123.367 431.121 124.012 430.895 124.535 430.441C125.066 429.988 125.332 429.344 125.332 428.508V427.43ZM137.895 433.734C136.598 433.734 135.492 433.5 134.578 433.031C133.664 432.555 132.969 431.82 132.492 430.828C132.016 429.836 131.777 428.566 131.777 427.02C131.777 425.418 132.047 424.113 132.586 423.105C133.133 422.09 133.887 421.344 134.848 420.867C135.816 420.391 136.938 420.152 138.211 420.152C139.117 420.152 139.898 420.242 140.555 420.422C141.219 420.594 141.797 420.801 142.289 421.043L141.234 423.809C140.672 423.582 140.148 423.398 139.664 423.258C139.18 423.109 138.695 423.035 138.211 423.035C137.586 423.035 137.066 423.184 136.652 423.48C136.238 423.77 135.93 424.207 135.727 424.793C135.523 425.379 135.422 426.113 135.422 426.996C135.422 427.863 135.531 428.582 135.75 429.152C135.969 429.723 136.285 430.148 136.699 430.43C137.113 430.703 137.617 430.84 138.211 430.84C138.953 430.84 139.613 430.742 140.191 430.547C140.77 430.344 141.332 430.062 141.879 429.703V432.762C141.332 433.105 140.758 433.352 140.156 433.5C139.562 433.656 138.809 433.734 137.895 433.734ZM148.5 415.266V423.422C148.5 423.914 148.48 424.406 148.441 424.898C148.402 425.391 148.359 425.883 148.312 426.375H148.359C148.602 426.031 148.848 425.691 149.098 425.355C149.355 425.02 149.629 424.695 149.918 424.383L153.586 420.398H157.617L152.414 426.082L157.934 433.5H153.809L150.035 428.191L148.5 429.422V433.5H144.926V415.266H148.5Z" fill="#1A1040"/>
</g>
<g filter="url(#filter2_d_3949_45915)">
<rect x="16" y="110" width="448" height="249" rx="10" fill="white" shape-rendering="crispEdges"/>
<rect x="16.5" y="110.5" width="447" height="248" rx="9.5" stroke="#D9D9D9" shape-rendering="crispEdges"/>
<path d="M43.2148 259.15L38.7236 272H36.4912L32 259.15H34.1621L36.8691 267.201C36.9512 267.436 37.0391 267.72 37.1328 268.054C37.2324 268.388 37.3232 268.725 37.4053 269.064C37.4932 269.404 37.5605 269.706 37.6074 269.97C37.6543 269.706 37.7188 269.404 37.8008 269.064C37.8887 268.725 37.9795 268.388 38.0732 268.054C38.167 267.72 38.2549 267.433 38.3369 267.192L41.0527 259.15H43.2148ZM53.3047 267.113C53.3047 267.922 53.1992 268.64 52.9883 269.267C52.7773 269.894 52.4697 270.424 52.0654 270.857C51.6611 271.285 51.1748 271.613 50.6064 271.842C50.0381 272.064 49.3965 272.176 48.6816 272.176C48.0137 272.176 47.4014 272.064 46.8447 271.842C46.2881 271.613 45.8047 271.285 45.3945 270.857C44.9902 270.424 44.6768 269.894 44.4541 269.267C44.2314 268.64 44.1201 267.922 44.1201 267.113C44.1201 266.041 44.3047 265.133 44.6738 264.389C45.0488 263.639 45.582 263.067 46.2734 262.675C46.9648 262.282 47.7881 262.086 48.7432 262.086C49.6396 262.086 50.4307 262.282 51.1162 262.675C51.8018 263.067 52.3379 263.639 52.7246 264.389C53.1113 265.139 53.3047 266.047 53.3047 267.113ZM46.2471 267.113C46.2471 267.822 46.332 268.429 46.502 268.933C46.6777 269.437 46.9473 269.823 47.3105 270.093C47.6738 270.356 48.1426 270.488 48.7168 270.488C49.291 270.488 49.7598 270.356 50.123 270.093C50.4863 269.823 50.7529 269.437 50.9229 268.933C51.0928 268.429 51.1777 267.822 51.1777 267.113C51.1777 266.404 51.0928 265.804 50.9229 265.312C50.7529 264.813 50.4863 264.436 50.123 264.178C49.7598 263.914 49.2881 263.782 48.708 263.782C47.8525 263.782 47.2285 264.069 46.8359 264.644C46.4434 265.218 46.2471 266.041 46.2471 267.113ZM57.752 272H55.6777V258.324H57.752V272ZM69.1865 262.271V272H67.5605L67.2793 270.69H67.165C66.96 271.024 66.6992 271.303 66.3828 271.525C66.0664 271.742 65.7148 271.903 65.3281 272.009C64.9414 272.12 64.5342 272.176 64.1064 272.176C63.374 272.176 62.7471 272.053 62.2256 271.807C61.71 271.555 61.3145 271.168 61.0391 270.646C60.7637 270.125 60.626 269.451 60.626 268.625V262.271H62.7002V268.238C62.7002 268.994 62.8525 269.56 63.1572 269.935C63.4678 270.31 63.9482 270.497 64.5986 270.497C65.2256 270.497 65.7236 270.368 66.0928 270.11C66.4619 269.853 66.7227 269.472 66.875 268.968C67.0332 268.464 67.1123 267.846 67.1123 267.113V262.271H69.1865ZM83.1436 262.086C84.2334 262.086 85.0537 262.367 85.6045 262.93C86.1611 263.492 86.4395 264.395 86.4395 265.637V272H84.374V266.006C84.374 265.268 84.2305 264.711 83.9434 264.336C83.6562 263.961 83.2197 263.773 82.6338 263.773C81.8135 263.773 81.2217 264.037 80.8584 264.564C80.501 265.086 80.3223 265.845 80.3223 266.841V272H78.2568V266.006C78.2568 265.514 78.1924 265.104 78.0635 264.775C77.9404 264.441 77.75 264.192 77.4922 264.028C77.2344 263.858 76.9092 263.773 76.5166 263.773C75.9482 263.773 75.4941 263.902 75.1543 264.16C74.8203 264.418 74.5801 264.799 74.4336 265.303C74.2871 265.801 74.2139 266.413 74.2139 267.14V272H72.1484V262.271H73.7568L74.0469 263.58H74.1611C74.3604 263.24 74.6064 262.962 74.8994 262.745C75.1982 262.522 75.5293 262.358 75.8926 262.253C76.2559 262.142 76.6338 262.086 77.0264 262.086C77.7529 262.086 78.3652 262.215 78.8633 262.473C79.3613 262.725 79.7334 263.111 79.9795 263.633H80.1377C80.4424 263.105 80.8672 262.716 81.4121 262.464C81.957 262.212 82.5342 262.086 83.1436 262.086ZM93.1982 262.086C94.0654 262.086 94.8096 262.265 95.4307 262.622C96.0518 262.979 96.5293 263.486 96.8633 264.143C97.1973 264.799 97.3643 265.584 97.3643 266.498V267.605H90.8691C90.8926 268.549 91.1445 269.275 91.625 269.785C92.1113 270.295 92.791 270.55 93.6641 270.55C94.2852 270.55 94.8418 270.491 95.334 270.374C95.832 270.251 96.3447 270.072 96.8721 269.838V271.517C96.3857 271.745 95.8906 271.912 95.3867 272.018C94.8828 272.123 94.2793 272.176 93.5762 272.176C92.6211 272.176 91.7803 271.991 91.0537 271.622C90.333 271.247 89.7676 270.69 89.3574 269.952C88.9531 269.214 88.751 268.297 88.751 267.201C88.751 266.111 88.9355 265.186 89.3047 264.424C89.6738 263.662 90.1924 263.082 90.8604 262.684C91.5283 262.285 92.3076 262.086 93.1982 262.086ZM93.1982 263.642C92.5479 263.642 92.0205 263.853 91.6162 264.274C91.2178 264.696 90.9834 265.314 90.9131 266.129H95.3428C95.3369 265.643 95.2549 265.212 95.0967 264.837C94.9443 264.462 94.71 264.169 94.3936 263.958C94.083 263.747 93.6846 263.642 93.1982 263.642Z" fill="#31344E"/>
<path d="M62 301L418 301" stroke="#F6F6F6" stroke-width="16" stroke-linecap="round"/>
<path d="M64 301H416" stroke="#707070"/>
<g filter="url(#filter3_d_3949_45915)">
<circle cx="48" cy="301" r="16" fill="#F6F6F6" stroke="#1A1040" stroke-width="2"/>
<circle cx="48" cy="301" r="9" fill="#1A1040"/>
</g>
<circle cx="240" cy="301" r="16" fill="#F6F6F6"/>
<circle cx="240" cy="301" r="9" fill="#707070"/>
<circle cx="432" cy="301" r="16" fill="#F6F6F6"/>
<circle cx="432" cy="301" r="9" fill="#707070"/>
<path d="M33.4648 337V326.292H34.71V335.887H39.4634V337H33.4648ZM48.04 332.972C48.04 333.631 47.9546 334.219 47.7837 334.737C47.6128 335.254 47.3662 335.691 47.0439 336.048C46.7217 336.404 46.3311 336.678 45.8721 336.868C45.418 337.054 44.9028 337.146 44.3267 337.146C43.7896 337.146 43.2964 337.054 42.8472 336.868C42.4028 336.678 42.0171 336.404 41.6899 336.048C41.3677 335.691 41.1162 335.254 40.9355 334.737C40.7598 334.219 40.6719 333.631 40.6719 332.972C40.6719 332.093 40.8208 331.346 41.1187 330.73C41.4165 330.11 41.8413 329.639 42.3931 329.317C42.9497 328.99 43.6113 328.826 44.3779 328.826C45.1104 328.826 45.75 328.99 46.2969 329.317C46.8486 329.644 47.2759 330.118 47.5786 330.738C47.8862 331.353 48.04 332.098 48.04 332.972ZM41.9316 332.972C41.9316 333.616 42.0171 334.175 42.188 334.649C42.3589 335.123 42.6226 335.489 42.979 335.748C43.3354 336.006 43.7944 336.136 44.356 336.136C44.9126 336.136 45.3691 336.006 45.7256 335.748C46.0869 335.489 46.353 335.123 46.5239 334.649C46.6948 334.175 46.7803 333.616 46.7803 332.972C46.7803 332.332 46.6948 331.78 46.5239 331.316C46.353 330.848 46.0894 330.486 45.7329 330.232C45.3765 329.979 44.915 329.852 44.3486 329.852C43.5137 329.852 42.9009 330.127 42.5103 330.679C42.1245 331.231 41.9316 331.995 41.9316 332.972ZM56.6753 336.985L55.2471 332.312C55.1836 332.112 55.1226 331.917 55.064 331.727C55.0103 331.531 54.959 331.346 54.9102 331.17C54.8662 330.989 54.8247 330.823 54.7856 330.672C54.7515 330.516 54.7222 330.381 54.6978 330.269H54.6465C54.627 330.381 54.6001 330.516 54.5659 330.672C54.5317 330.823 54.4902 330.989 54.4414 331.17C54.3975 331.351 54.3486 331.541 54.2949 331.741C54.2412 331.937 54.1802 332.134 54.1118 332.334L52.6177 336.985H51.248L49.0361 328.958H50.2959L51.4531 333.389C51.5312 333.682 51.6045 333.973 51.6729 334.261C51.7461 334.544 51.8071 334.812 51.856 335.066C51.9097 335.315 51.9487 335.533 51.9731 335.718H52.0317C52.061 335.596 52.0928 335.45 52.127 335.279C52.166 335.108 52.2075 334.927 52.2515 334.737C52.3003 334.542 52.3516 334.349 52.4053 334.158C52.459 333.963 52.5127 333.78 52.5664 333.609L54.0459 328.958H55.3569L56.7852 333.602C56.8584 333.836 56.9292 334.08 56.9976 334.334C57.0708 334.588 57.1367 334.834 57.1953 335.074C57.2539 335.308 57.2954 335.518 57.3198 335.704H57.3784C57.3979 335.538 57.4346 335.333 57.4883 335.088C57.542 334.844 57.603 334.576 57.6714 334.283C57.7446 333.99 57.8203 333.692 57.8984 333.389L59.0703 328.958H60.3081L58.0889 336.985H56.6753Z" fill="#31344E"/>
<path d="M216.185 337L212.589 327.522H212.53C212.55 327.723 212.567 327.967 212.582 328.255C212.596 328.543 212.608 328.858 212.618 329.2C212.628 329.537 212.633 329.881 212.633 330.232V337H211.476V326.292H213.321L216.712 335.198H216.764L220.206 326.292H222.037V337H220.807V330.145C220.807 329.827 220.812 329.51 220.821 329.192C220.831 328.87 220.843 328.567 220.858 328.284C220.873 327.996 220.887 327.747 220.902 327.537H220.843L217.203 337H216.185ZM227.875 328.826C228.558 328.826 229.144 328.978 229.632 329.28C230.121 329.583 230.494 330.008 230.753 330.555C231.012 331.097 231.141 331.731 231.141 332.459V333.213H225.597C225.611 334.156 225.846 334.874 226.3 335.367C226.754 335.86 227.394 336.106 228.219 336.106C228.727 336.106 229.176 336.06 229.566 335.967C229.957 335.875 230.362 335.738 230.782 335.557V336.626C230.377 336.807 229.974 336.939 229.574 337.022C229.178 337.105 228.709 337.146 228.167 337.146C227.396 337.146 226.722 336.99 226.146 336.678C225.575 336.36 225.13 335.896 224.813 335.286C224.496 334.676 224.337 333.929 224.337 333.045C224.337 332.181 224.481 331.434 224.769 330.804C225.062 330.169 225.472 329.681 226 329.339C226.532 328.997 227.157 328.826 227.875 328.826ZM227.86 329.822C227.21 329.822 226.693 330.035 226.307 330.459C225.921 330.884 225.692 331.478 225.619 332.239H229.867C229.862 331.761 229.786 331.341 229.64 330.979C229.498 330.613 229.281 330.33 228.988 330.13C228.695 329.925 228.319 329.822 227.86 329.822ZM236.063 337.146C235.047 337.146 234.242 336.8 233.646 336.106C233.055 335.413 232.76 334.383 232.76 333.016C232.76 331.634 233.062 330.591 233.668 329.888C234.273 329.18 235.079 328.826 236.085 328.826C236.51 328.826 236.881 328.882 237.198 328.995C237.516 329.107 237.789 329.258 238.019 329.449C238.248 329.634 238.441 329.847 238.597 330.086H238.685C238.666 329.935 238.646 329.727 238.626 329.463C238.607 329.2 238.597 328.985 238.597 328.819V325.604H239.813V337H238.832L238.648 335.857H238.597C238.446 336.097 238.253 336.314 238.019 336.509C237.789 336.705 237.513 336.861 237.191 336.978C236.874 337.09 236.498 337.146 236.063 337.146ZM236.253 336.136C237.113 336.136 237.721 335.892 238.077 335.403C238.434 334.915 238.612 334.19 238.612 333.228V333.008C238.612 331.988 238.441 331.204 238.099 330.657C237.762 330.11 237.147 329.837 236.253 329.837C235.506 329.837 234.947 330.125 234.576 330.701C234.205 331.272 234.02 332.054 234.02 333.045C234.02 334.031 234.203 334.793 234.569 335.33C234.94 335.867 235.501 336.136 236.253 336.136ZM243.607 328.973V337H242.391V328.973H243.607ZM243.014 325.97C243.214 325.97 243.385 326.036 243.526 326.167C243.673 326.294 243.746 326.495 243.746 326.768C243.746 327.037 243.673 327.237 243.526 327.369C243.385 327.5 243.214 327.566 243.014 327.566C242.804 327.566 242.628 327.5 242.486 327.369C242.35 327.237 242.281 327.037 242.281 326.768C242.281 326.495 242.35 326.294 242.486 326.167C242.628 326.036 242.804 325.97 243.014 325.97ZM252.813 328.973V337H251.817L251.642 335.872H251.576C251.41 336.15 251.195 336.385 250.931 336.575C250.667 336.766 250.37 336.907 250.038 337C249.71 337.098 249.361 337.146 248.99 337.146C248.355 337.146 247.823 337.044 247.394 336.839C246.964 336.634 246.639 336.316 246.419 335.887C246.205 335.457 246.097 334.905 246.097 334.231V328.973H247.328V334.144C247.328 334.812 247.479 335.313 247.782 335.645C248.084 335.972 248.546 336.136 249.166 336.136C249.762 336.136 250.235 336.023 250.587 335.799C250.943 335.574 251.2 335.245 251.356 334.81C251.512 334.371 251.59 333.833 251.59 333.199V328.973H252.813ZM264.1 328.826C264.984 328.826 265.65 329.058 266.1 329.522C266.549 329.981 266.773 330.721 266.773 331.741V337H265.572V331.8C265.572 331.15 265.431 330.665 265.147 330.342C264.869 330.015 264.454 329.852 263.902 329.852C263.126 329.852 262.562 330.076 262.21 330.525C261.859 330.975 261.683 331.636 261.683 332.51V337H260.475V331.8C260.475 331.365 260.411 331.004 260.284 330.716C260.162 330.428 259.977 330.213 259.728 330.071C259.483 329.925 259.173 329.852 258.797 329.852C258.265 329.852 257.838 329.961 257.516 330.181C257.193 330.401 256.959 330.728 256.812 331.163C256.671 331.592 256.6 332.122 256.6 332.752V337H255.384V328.973H256.366L256.549 330.108H256.615C256.776 329.83 256.979 329.595 257.223 329.405C257.467 329.214 257.74 329.07 258.043 328.973C258.346 328.875 258.668 328.826 259.01 328.826C259.62 328.826 260.13 328.941 260.541 329.17C260.956 329.395 261.256 329.739 261.441 330.203H261.507C261.771 329.739 262.132 329.395 262.591 329.17C263.05 328.941 263.553 328.826 264.1 328.826Z" fill="#31344E"/>
<path d="M425.383 337H424.138V331.954H418.513V337H417.268V326.292H418.513V330.855H424.138V326.292H425.383V337ZM429.36 328.973V337H428.144V328.973H429.36ZM428.767 325.97C428.967 325.97 429.138 326.036 429.279 326.167C429.426 326.294 429.499 326.495 429.499 326.768C429.499 327.037 429.426 327.237 429.279 327.369C429.138 327.5 428.967 327.566 428.767 327.566C428.557 327.566 428.381 327.5 428.239 327.369C428.103 327.237 428.034 327.037 428.034 326.768C428.034 326.495 428.103 326.294 428.239 326.167C428.381 326.036 428.557 325.97 428.767 325.97ZM434.179 340.604C433.125 340.604 432.312 340.406 431.74 340.01C431.169 339.62 430.883 339.07 430.883 338.362C430.883 337.859 431.042 337.43 431.359 337.073C431.682 336.717 432.126 336.48 432.692 336.363C432.482 336.265 432.302 336.119 432.15 335.923C432.004 335.728 431.931 335.503 431.931 335.25C431.931 334.957 432.011 334.7 432.172 334.48C432.338 334.256 432.59 334.041 432.927 333.836C432.507 333.665 432.165 333.377 431.901 332.972C431.643 332.562 431.513 332.085 431.513 331.543C431.513 330.967 431.633 330.477 431.872 330.071C432.111 329.661 432.458 329.349 432.912 329.134C433.366 328.919 433.916 328.812 434.56 328.812C434.702 328.812 434.843 328.819 434.985 328.833C435.131 328.843 435.271 328.86 435.402 328.885C435.534 328.904 435.649 328.929 435.747 328.958H438.5V329.742L437.021 329.925C437.167 330.115 437.29 330.345 437.387 330.613C437.485 330.882 437.534 331.18 437.534 331.507C437.534 332.308 437.263 332.945 436.721 333.418C436.179 333.887 435.434 334.122 434.487 334.122C434.262 334.122 434.033 334.102 433.798 334.063C433.559 334.195 433.376 334.341 433.249 334.502C433.127 334.664 433.066 334.849 433.066 335.059C433.066 335.215 433.112 335.34 433.205 335.433C433.303 335.525 433.442 335.594 433.623 335.638C433.803 335.677 434.021 335.696 434.274 335.696H435.688C436.562 335.696 437.231 335.879 437.695 336.246C438.164 336.612 438.398 337.146 438.398 337.85C438.398 338.738 438.037 339.419 437.314 339.893C436.591 340.367 435.546 340.604 434.179 340.604ZM434.216 339.651C434.88 339.651 435.429 339.583 435.864 339.446C436.303 339.314 436.63 339.122 436.845 338.868C437.065 338.619 437.175 338.321 437.175 337.974C437.175 337.652 437.102 337.408 436.955 337.242C436.809 337.081 436.594 336.973 436.311 336.919C436.027 336.861 435.681 336.832 435.271 336.832H433.879C433.518 336.832 433.203 336.888 432.934 337C432.666 337.112 432.458 337.278 432.312 337.498C432.17 337.718 432.099 337.991 432.099 338.318C432.099 338.753 432.282 339.083 432.648 339.307C433.015 339.537 433.537 339.651 434.216 339.651ZM434.531 333.235C435.112 333.235 435.549 333.089 435.842 332.796C436.135 332.503 436.281 332.076 436.281 331.514C436.281 330.914 436.132 330.464 435.834 330.167C435.537 329.864 435.097 329.712 434.516 329.712C433.959 329.712 433.53 329.869 433.227 330.181C432.929 330.489 432.78 330.94 432.78 331.536C432.78 332.083 432.932 332.503 433.234 332.796C433.537 333.089 433.969 333.235 434.531 333.235ZM441.298 325.604V329.009C441.298 329.205 441.293 329.402 441.284 329.603C441.274 329.798 441.257 329.979 441.232 330.145H441.313C441.479 329.861 441.689 329.625 441.943 329.434C442.202 329.239 442.495 329.092 442.822 328.995C443.149 328.892 443.496 328.841 443.862 328.841C444.506 328.841 445.043 328.943 445.473 329.148C445.908 329.354 446.232 329.671 446.447 330.101C446.667 330.53 446.777 331.087 446.777 331.771V337H445.576V331.851C445.576 331.182 445.422 330.682 445.114 330.35C444.812 330.018 444.345 329.852 443.715 329.852C443.12 329.852 442.644 329.966 442.287 330.196C441.936 330.42 441.682 330.752 441.525 331.192C441.374 331.631 441.298 332.168 441.298 332.803V337H440.083V325.604H441.298Z" fill="#31344E"/>
<path d="M33.6875 171V158.15H35.7969V169.207H41.2549V171H33.6875ZM47.082 161.086C48.3125 161.086 49.2412 161.358 49.8682 161.903C50.501 162.448 50.8174 163.298 50.8174 164.452V171H49.3496L48.9541 169.62H48.8838C48.6084 169.972 48.3242 170.262 48.0312 170.49C47.7383 170.719 47.3984 170.889 47.0117 171C46.6309 171.117 46.165 171.176 45.6143 171.176C45.0342 171.176 44.5156 171.07 44.0586 170.859C43.6016 170.643 43.2412 170.314 42.9775 169.875C42.7139 169.436 42.582 168.879 42.582 168.205C42.582 167.203 42.9541 166.45 43.6982 165.946C44.4482 165.442 45.5791 165.164 47.0908 165.111L48.7783 165.05V164.54C48.7783 163.866 48.6201 163.386 48.3037 163.099C47.9932 162.812 47.5537 162.668 46.9854 162.668C46.499 162.668 46.0273 162.738 45.5703 162.879C45.1133 163.02 44.668 163.192 44.2344 163.397L43.5664 161.938C44.041 161.687 44.5801 161.481 45.1836 161.323C45.793 161.165 46.4258 161.086 47.082 161.086ZM48.7695 166.351L47.5127 166.395C46.4814 166.43 45.7578 166.605 45.3418 166.922C44.9258 167.238 44.7178 167.672 44.7178 168.223C44.7178 168.703 44.8613 169.055 45.1484 169.277C45.4355 169.494 45.8135 169.603 46.2822 169.603C46.9971 169.603 47.5889 169.4 48.0576 168.996C48.5322 168.586 48.7695 167.985 48.7695 167.194V166.351ZM58.7803 161.086C59.876 161.086 60.7285 161.37 61.3379 161.938C61.9531 162.501 62.2607 163.406 62.2607 164.654V171H60.1953V165.041C60.1953 164.285 60.04 163.72 59.7295 163.345C59.4189 162.964 58.9385 162.773 58.2881 162.773C57.3447 162.773 56.6885 163.063 56.3193 163.644C55.9561 164.224 55.7744 165.064 55.7744 166.166V171H53.709V161.271H55.3174L55.6074 162.589H55.7217C55.9326 162.249 56.1934 161.971 56.5039 161.754C56.8203 161.531 57.1719 161.364 57.5586 161.253C57.9512 161.142 58.3584 161.086 58.7803 161.086ZM67.9297 175.324C66.6113 175.324 65.6006 175.087 64.8975 174.612C64.1943 174.138 63.8428 173.473 63.8428 172.617C63.8428 172.02 64.0303 171.513 64.4053 171.097C64.7803 170.687 65.3164 170.402 66.0137 170.244C65.75 170.127 65.5215 169.945 65.3281 169.699C65.1406 169.447 65.0469 169.169 65.0469 168.864C65.0469 168.501 65.1494 168.19 65.3545 167.933C65.5596 167.675 65.8672 167.426 66.2773 167.186C65.7676 166.969 65.3574 166.617 65.0469 166.131C64.7422 165.639 64.5898 165.062 64.5898 164.399C64.5898 163.696 64.7393 163.099 65.0381 162.606C65.3369 162.108 65.7734 161.73 66.3477 161.473C66.9219 161.209 67.6162 161.077 68.4307 161.077C68.6064 161.077 68.7969 161.089 69.002 161.112C69.2129 161.13 69.4062 161.153 69.582 161.183C69.7637 161.206 69.9014 161.232 69.9951 161.262H73.3613V162.413L71.709 162.721C71.8672 162.943 71.9932 163.198 72.0869 163.485C72.1807 163.767 72.2275 164.074 72.2275 164.408C72.2275 165.416 71.8789 166.21 71.1816 166.79C70.4902 167.364 69.5352 167.651 68.3164 167.651C68.0234 167.64 67.7393 167.616 67.4639 167.581C67.2529 167.71 67.0918 167.854 66.9805 168.012C66.8691 168.164 66.8135 168.337 66.8135 168.53C66.8135 168.688 66.8691 168.817 66.9805 168.917C67.0918 169.011 67.2559 169.081 67.4727 169.128C67.6953 169.175 67.9648 169.198 68.2812 169.198H69.96C71.0264 169.198 71.8408 169.424 72.4033 169.875C72.9658 170.326 73.2471 170.988 73.2471 171.861C73.2471 172.969 72.79 173.821 71.876 174.419C70.9619 175.022 69.6465 175.324 67.9297 175.324ZM68.0088 173.874C68.7295 173.874 69.3359 173.804 69.8281 173.663C70.3203 173.522 70.6924 173.32 70.9443 173.057C71.1963 172.799 71.3223 172.491 71.3223 172.134C71.3223 171.817 71.2432 171.574 71.085 171.404C70.9268 171.234 70.6895 171.117 70.373 171.053C70.0566 170.988 69.6641 170.956 69.1953 170.956H67.666C67.2852 170.956 66.9482 171.015 66.6553 171.132C66.3623 171.255 66.1338 171.431 65.9697 171.659C65.8115 171.888 65.7324 172.163 65.7324 172.485C65.7324 172.931 65.9287 173.273 66.3213 173.514C66.7197 173.754 67.2822 173.874 68.0088 173.874ZM68.4131 166.298C69.0166 166.298 69.4648 166.134 69.7578 165.806C70.0508 165.472 70.1973 165.003 70.1973 164.399C70.1973 163.743 70.0449 163.251 69.7402 162.923C69.4414 162.595 68.9961 162.431 68.4043 162.431C67.8242 162.431 67.3818 162.598 67.0771 162.932C66.7783 163.266 66.6289 163.761 66.6289 164.417C66.6289 165.009 66.7783 165.472 67.0771 165.806C67.3818 166.134 67.8271 166.298 68.4131 166.298ZM83.6182 161.271V171H81.9922L81.7109 169.69H81.5967C81.3916 170.024 81.1309 170.303 80.8145 170.525C80.498 170.742 80.1465 170.903 79.7598 171.009C79.373 171.12 78.9658 171.176 78.5381 171.176C77.8057 171.176 77.1787 171.053 76.6572 170.807C76.1416 170.555 75.7461 170.168 75.4707 169.646C75.1953 169.125 75.0576 168.451 75.0576 167.625V161.271H77.1318V167.238C77.1318 167.994 77.2842 168.56 77.5889 168.935C77.8994 169.31 78.3799 169.497 79.0303 169.497C79.6572 169.497 80.1553 169.368 80.5244 169.11C80.8936 168.853 81.1543 168.472 81.3066 167.968C81.4648 167.464 81.5439 166.846 81.5439 166.113V161.271H83.6182ZM90.3945 161.086C91.625 161.086 92.5537 161.358 93.1807 161.903C93.8135 162.448 94.1299 163.298 94.1299 164.452V171H92.6621L92.2666 169.62H92.1963C91.9209 169.972 91.6367 170.262 91.3438 170.49C91.0508 170.719 90.7109 170.889 90.3242 171C89.9434 171.117 89.4775 171.176 88.9268 171.176C88.3467 171.176 87.8281 171.07 87.3711 170.859C86.9141 170.643 86.5537 170.314 86.29 169.875C86.0264 169.436 85.8945 168.879 85.8945 168.205C85.8945 167.203 86.2666 166.45 87.0107 165.946C87.7607 165.442 88.8916 165.164 90.4033 165.111L92.0908 165.05V164.54C92.0908 163.866 91.9326 163.386 91.6162 163.099C91.3057 162.812 90.8662 162.668 90.2979 162.668C89.8115 162.668 89.3398 162.738 88.8828 162.879C88.4258 163.02 87.9805 163.192 87.5469 163.397L86.8789 161.938C87.3535 161.687 87.8926 161.481 88.4961 161.323C89.1055 161.165 89.7383 161.086 90.3945 161.086ZM92.082 166.351L90.8252 166.395C89.7939 166.43 89.0703 166.605 88.6543 166.922C88.2383 167.238 88.0303 167.672 88.0303 168.223C88.0303 168.703 88.1738 169.055 88.4609 169.277C88.748 169.494 89.126 169.603 89.5947 169.603C90.3096 169.603 90.9014 169.4 91.3701 168.996C91.8447 168.586 92.082 167.985 92.082 167.194V166.351ZM99.7988 175.324C98.4805 175.324 97.4697 175.087 96.7666 174.612C96.0635 174.138 95.7119 173.473 95.7119 172.617C95.7119 172.02 95.8994 171.513 96.2744 171.097C96.6494 170.687 97.1855 170.402 97.8828 170.244C97.6191 170.127 97.3906 169.945 97.1973 169.699C97.0098 169.447 96.916 169.169 96.916 168.864C96.916 168.501 97.0186 168.19 97.2236 167.933C97.4287 167.675 97.7363 167.426 98.1465 167.186C97.6367 166.969 97.2266 166.617 96.916 166.131C96.6113 165.639 96.459 165.062 96.459 164.399C96.459 163.696 96.6084 163.099 96.9072 162.606C97.2061 162.108 97.6426 161.73 98.2168 161.473C98.791 161.209 99.4854 161.077 100.3 161.077C100.476 161.077 100.666 161.089 100.871 161.112C101.082 161.13 101.275 161.153 101.451 161.183C101.633 161.206 101.771 161.232 101.864 161.262H105.23V162.413L103.578 162.721C103.736 162.943 103.862 163.198 103.956 163.485C104.05 163.767 104.097 164.074 104.097 164.408C104.097 165.416 103.748 166.21 103.051 166.79C102.359 167.364 101.404 167.651 100.186 167.651C99.8926 167.64 99.6084 167.616 99.333 167.581C99.1221 167.71 98.9609 167.854 98.8496 168.012C98.7383 168.164 98.6826 168.337 98.6826 168.53C98.6826 168.688 98.7383 168.817 98.8496 168.917C98.9609 169.011 99.125 169.081 99.3418 169.128C99.5645 169.175 99.834 169.198 100.15 169.198H101.829C102.896 169.198 103.71 169.424 104.272 169.875C104.835 170.326 105.116 170.988 105.116 171.861C105.116 172.969 104.659 173.821 103.745 174.419C102.831 175.022 101.516 175.324 99.7988 175.324ZM99.8779 173.874C100.599 173.874 101.205 173.804 101.697 173.663C102.189 173.522 102.562 173.32 102.813 173.057C103.065 172.799 103.191 172.491 103.191 172.134C103.191 171.817 103.112 171.574 102.954 171.404C102.796 171.234 102.559 171.117 102.242 171.053C101.926 170.988 101.533 170.956 101.064 170.956H99.5352C99.1543 170.956 98.8174 171.015 98.5244 171.132C98.2314 171.255 98.0029 171.431 97.8389 171.659C97.6807 171.888 97.6016 172.163 97.6016 172.485C97.6016 172.931 97.7979 173.273 98.1904 173.514C98.5889 173.754 99.1514 173.874 99.8779 173.874ZM100.282 166.298C100.886 166.298 101.334 166.134 101.627 165.806C101.92 165.472 102.066 165.003 102.066 164.399C102.066 163.743 101.914 163.251 101.609 162.923C101.311 162.595 100.865 162.431 100.273 162.431C99.6934 162.431 99.251 162.598 98.9463 162.932C98.6475 163.266 98.498 163.761 98.498 164.417C98.498 165.009 98.6475 165.472 98.9463 165.806C99.251 166.134 99.6963 166.298 100.282 166.298ZM110.882 161.086C111.749 161.086 112.493 161.265 113.114 161.622C113.735 161.979 114.213 162.486 114.547 163.143C114.881 163.799 115.048 164.584 115.048 165.498V166.605H108.553C108.576 167.549 108.828 168.275 109.309 168.785C109.795 169.295 110.475 169.55 111.348 169.55C111.969 169.55 112.525 169.491 113.018 169.374C113.516 169.251 114.028 169.072 114.556 168.838V170.517C114.069 170.745 113.574 170.912 113.07 171.018C112.566 171.123 111.963 171.176 111.26 171.176C110.305 171.176 109.464 170.991 108.737 170.622C108.017 170.247 107.451 169.69 107.041 168.952C106.637 168.214 106.435 167.297 106.435 166.201C106.435 165.111 106.619 164.186 106.988 163.424C107.357 162.662 107.876 162.082 108.544 161.684C109.212 161.285 109.991 161.086 110.882 161.086ZM110.882 162.642C110.231 162.642 109.704 162.853 109.3 163.274C108.901 163.696 108.667 164.314 108.597 165.129H113.026C113.021 164.643 112.938 164.212 112.78 163.837C112.628 163.462 112.394 163.169 112.077 162.958C111.767 162.747 111.368 162.642 110.882 162.642Z" fill="#31344E"/>
<rect x="32.0001" y="184" width="203" height="48" rx="5" fill="#F6F6F6"/>
<path d="M57.922 214H51.5626V202.578H57.922V203.75H52.8907V207.445H57.6329V208.602H52.8907V212.828H57.922V214ZM64.3126 205.281C65.3282 205.281 66.0965 205.531 66.6173 206.031C67.1381 206.526 67.3986 207.323 67.3986 208.422V214H66.1173V208.508C66.1173 207.794 65.9532 207.26 65.6251 206.906C65.3022 206.552 64.8048 206.375 64.1329 206.375C63.185 206.375 62.5184 206.643 62.1329 207.18C61.7475 207.716 61.5548 208.495 61.5548 209.516V214H60.2579V205.438H61.3048L61.5001 206.672H61.5704C61.7527 206.37 61.9845 206.117 62.2657 205.914C62.547 205.706 62.8621 205.549 63.2111 205.445C63.56 205.336 63.9272 205.281 64.3126 205.281ZM72.4611 217.844C71.3361 217.844 70.4689 217.633 69.8595 217.211C69.2501 216.794 68.9454 216.208 68.9454 215.453C68.9454 214.917 69.1147 214.458 69.4532 214.078C69.797 213.698 70.271 213.445 70.8751 213.32C70.6512 213.216 70.4585 213.06 70.297 212.852C70.1407 212.643 70.0626 212.404 70.0626 212.133C70.0626 211.82 70.1486 211.547 70.3204 211.312C70.4975 211.073 70.7657 210.844 71.1251 210.625C70.6772 210.443 70.3126 210.135 70.0314 209.703C69.7553 209.266 69.6173 208.758 69.6173 208.18C69.6173 207.565 69.7449 207.042 70.0001 206.609C70.2553 206.172 70.6251 205.839 71.1095 205.609C71.5939 205.38 72.1798 205.266 72.8673 205.266C73.0184 205.266 73.1694 205.273 73.3204 205.289C73.4767 205.299 73.6251 205.318 73.7657 205.344C73.9064 205.365 74.0288 205.391 74.1329 205.422H77.0704V206.258L75.4923 206.453C75.6486 206.656 75.7788 206.901 75.8829 207.188C75.9871 207.474 76.0392 207.792 76.0392 208.141C76.0392 208.995 75.7501 209.674 75.172 210.18C74.5939 210.68 73.7996 210.93 72.7892 210.93C72.5496 210.93 72.3048 210.909 72.0548 210.867C71.7996 211.008 71.6043 211.164 71.4689 211.336C71.3387 211.508 71.2736 211.706 71.2736 211.93C71.2736 212.096 71.323 212.229 71.422 212.328C71.5262 212.427 71.6746 212.5 71.8673 212.547C72.06 212.589 72.2918 212.609 72.5626 212.609H74.0704C75.0027 212.609 75.7163 212.805 76.2111 213.195C76.7111 213.586 76.9611 214.156 76.9611 214.906C76.9611 215.854 76.5756 216.581 75.8048 217.086C75.034 217.591 73.9194 217.844 72.4611 217.844ZM72.5001 216.828C73.2085 216.828 73.7944 216.755 74.2579 216.609C74.7267 216.469 75.0756 216.263 75.3048 215.992C75.5392 215.727 75.6564 215.409 75.6564 215.039C75.6564 214.695 75.5782 214.435 75.422 214.258C75.2657 214.086 75.0366 213.971 74.7345 213.914C74.4324 213.852 74.0626 213.82 73.6251 213.82H72.1407C71.7553 213.82 71.4194 213.88 71.1329 214C70.8465 214.12 70.6251 214.297 70.4689 214.531C70.3178 214.766 70.2423 215.057 70.2423 215.406C70.2423 215.87 70.4376 216.221 70.8282 216.461C71.2189 216.706 71.7762 216.828 72.5001 216.828ZM72.8361 209.984C73.4559 209.984 73.922 209.828 74.2345 209.516C74.547 209.203 74.7032 208.747 74.7032 208.148C74.7032 207.508 74.5444 207.029 74.2267 206.711C73.909 206.388 73.4402 206.227 72.8204 206.227C72.2267 206.227 71.7684 206.393 71.4454 206.727C71.1277 207.055 70.9689 207.536 70.9689 208.172C70.9689 208.755 71.1303 209.203 71.4532 209.516C71.7762 209.828 72.2371 209.984 72.8361 209.984ZM80.0626 214H78.7579V201.844H80.0626V214ZM84.1017 205.438V214H82.8048V205.438H84.1017ZM83.4689 202.234C83.6824 202.234 83.8647 202.305 84.0157 202.445C84.172 202.581 84.2501 202.794 84.2501 203.086C84.2501 203.372 84.172 203.586 84.0157 203.727C83.8647 203.867 83.6824 203.938 83.4689 203.938C83.2449 203.938 83.0574 203.867 82.9064 203.727C82.7605 203.586 82.6876 203.372 82.6876 203.086C82.6876 202.794 82.7605 202.581 82.9064 202.445C83.0574 202.305 83.2449 202.234 83.4689 202.234ZM92.3907 211.656C92.3907 212.203 92.2527 212.664 91.9767 213.039C91.7059 213.409 91.3152 213.688 90.8048 213.875C90.2996 214.062 89.6954 214.156 88.9923 214.156C88.3934 214.156 87.8751 214.109 87.4376 214.016C87.0001 213.922 86.6173 213.789 86.2892 213.617V212.422C86.6381 212.594 87.0548 212.75 87.5392 212.891C88.0236 213.031 88.5184 213.102 89.0236 213.102C89.7631 213.102 90.2996 212.982 90.6329 212.742C90.9663 212.503 91.1329 212.177 91.1329 211.766C91.1329 211.531 91.0652 211.326 90.9298 211.148C90.7996 210.966 90.5782 210.792 90.2657 210.625C89.9532 210.453 89.521 210.266 88.9689 210.062C88.422 209.854 87.948 209.648 87.547 209.445C87.1512 209.237 86.8439 208.984 86.6251 208.688C86.4116 208.391 86.3048 208.005 86.3048 207.531C86.3048 206.807 86.5965 206.253 87.1798 205.867C87.7684 205.477 88.5392 205.281 89.4923 205.281C90.0079 205.281 90.4897 205.333 90.9376 205.438C91.3907 205.536 91.8126 205.672 92.2032 205.844L91.7657 206.883C91.4116 206.732 91.034 206.604 90.6329 206.5C90.2319 206.396 89.823 206.344 89.4064 206.344C88.8074 206.344 88.3465 206.443 88.0236 206.641C87.7059 206.839 87.547 207.109 87.547 207.453C87.547 207.719 87.6199 207.938 87.7657 208.109C87.9168 208.281 88.1564 208.443 88.4845 208.594C88.8126 208.745 89.2449 208.922 89.7814 209.125C90.3178 209.323 90.7814 209.529 91.172 209.742C91.5626 209.951 91.8621 210.206 92.0704 210.508C92.284 210.805 92.3907 211.188 92.3907 211.656ZM95.7736 201.844V205.477C95.7736 205.685 95.7684 205.896 95.7579 206.109C95.7475 206.318 95.7293 206.51 95.7032 206.688H95.7892C95.9663 206.385 96.1902 206.133 96.4611 205.93C96.7371 205.721 97.0496 205.565 97.3986 205.461C97.7475 205.352 98.1173 205.297 98.5079 205.297C99.1954 205.297 99.7684 205.406 100.227 205.625C100.69 205.844 101.037 206.182 101.266 206.641C101.5 207.099 101.617 207.693 101.617 208.422V214H100.336V208.508C100.336 207.794 100.172 207.26 99.8439 206.906C99.521 206.552 99.0236 206.375 98.3517 206.375C97.7163 206.375 97.2085 206.497 96.8282 206.742C96.4532 206.982 96.1824 207.336 96.0157 207.805C95.8543 208.273 95.7736 208.846 95.7736 209.523V214H94.4767V201.844H95.7736Z" fill="#31344E"/>
<g filter="url(#filter4_d_3949_45915)">
<rect x="245" y="184" width="203" height="48" rx="5" fill="white" shape-rendering="crispEdges"/>
<rect x="246.5" y="185.5" width="200" height="45" rx="3.5" stroke="#1A1040" stroke-width="3" shape-rendering="crispEdges"/>
<path d="M274.526 203.733C274.005 203.733 273.542 203.836 273.138 204.041C272.739 204.24 272.402 204.53 272.127 204.911C271.857 205.292 271.652 205.752 271.512 206.291C271.371 206.83 271.301 207.437 271.301 208.11C271.301 209.019 271.412 209.795 271.635 210.439C271.863 211.078 272.215 211.567 272.689 211.907C273.164 212.241 273.776 212.408 274.526 212.408C275.048 212.408 275.569 212.35 276.091 212.232C276.618 212.115 277.189 211.948 277.805 211.731V214.017C277.236 214.251 276.677 214.418 276.126 214.518C275.575 214.623 274.957 214.676 274.271 214.676C272.947 214.676 271.857 214.403 271.002 213.858C270.152 213.308 269.522 212.54 269.112 211.556C268.702 210.565 268.497 209.411 268.497 208.093C268.497 207.12 268.629 206.229 268.893 205.421C269.156 204.612 269.543 203.912 270.053 203.32C270.562 202.729 271.192 202.271 271.942 201.949C272.692 201.627 273.554 201.466 274.526 201.466C275.165 201.466 275.804 201.548 276.442 201.712C277.087 201.87 277.702 202.09 278.288 202.371L277.409 204.586C276.929 204.357 276.445 204.158 275.959 203.988C275.473 203.818 274.995 203.733 274.526 203.733ZM283.017 200.824V203.61C283.017 204.097 282.999 204.56 282.964 204.999C282.935 205.438 282.911 205.749 282.894 205.931H283.034C283.245 205.591 283.494 205.315 283.781 205.104C284.074 204.894 284.396 204.738 284.748 204.639C285.1 204.539 285.478 204.489 285.882 204.489C286.591 204.489 287.209 204.615 287.736 204.867C288.264 205.113 288.674 205.503 288.967 206.036C289.26 206.563 289.406 207.249 289.406 208.093V214.5H286.726V208.761C286.726 208.058 286.597 207.527 286.339 207.17C286.081 206.812 285.683 206.634 285.144 206.634C284.604 206.634 284.18 206.76 283.869 207.012C283.559 207.258 283.339 207.624 283.21 208.11C283.081 208.591 283.017 209.18 283.017 209.877V214.5H280.336V200.824H283.017ZM296.191 204.472C297.51 204.472 298.521 204.759 299.224 205.333C299.927 205.907 300.278 206.78 300.278 207.952V214.5H298.406L297.888 213.164H297.817C297.536 213.516 297.249 213.803 296.956 214.025C296.663 214.248 296.326 214.412 295.945 214.518C295.564 214.623 295.102 214.676 294.557 214.676C293.977 214.676 293.455 214.564 292.992 214.342C292.535 214.119 292.175 213.779 291.911 213.322C291.647 212.859 291.516 212.273 291.516 211.564C291.516 210.521 291.882 209.754 292.614 209.262C293.347 208.764 294.445 208.488 295.91 208.436L297.615 208.383V207.952C297.615 207.437 297.48 207.059 297.211 206.818C296.941 206.578 296.566 206.458 296.086 206.458C295.611 206.458 295.146 206.525 294.688 206.66C294.231 206.795 293.774 206.965 293.317 207.17L292.43 205.359C292.951 205.084 293.534 204.867 294.179 204.709C294.829 204.551 295.5 204.472 296.191 204.472ZM297.615 209.947L296.578 209.982C295.711 210.006 295.107 210.161 294.768 210.448C294.434 210.735 294.267 211.113 294.267 211.582C294.267 211.992 294.387 212.285 294.627 212.461C294.867 212.631 295.181 212.716 295.567 212.716C296.142 212.716 296.625 212.546 297.018 212.206C297.416 211.866 297.615 211.383 297.615 210.756V209.947ZM308.628 204.489C309.677 204.489 310.521 204.776 311.159 205.351C311.798 205.919 312.117 206.833 312.117 208.093V214.5H309.437V208.761C309.437 208.058 309.308 207.527 309.05 207.17C308.798 206.812 308.399 206.634 307.854 206.634C307.034 206.634 306.475 206.912 306.176 207.469C305.877 208.025 305.728 208.828 305.728 209.877V214.5H303.047V204.674H305.095L305.455 205.931H305.604C305.815 205.591 306.076 205.315 306.387 205.104C306.703 204.894 307.052 204.738 307.433 204.639C307.819 204.539 308.218 204.489 308.628 204.489ZM317.751 218.824C316.38 218.824 315.331 218.584 314.604 218.104C313.884 217.629 313.523 216.961 313.523 216.1C313.523 215.508 313.708 215.013 314.077 214.614C314.446 214.216 314.988 213.932 315.703 213.762C315.428 213.645 315.188 213.454 314.982 213.19C314.777 212.921 314.675 212.637 314.675 212.338C314.675 211.963 314.783 211.652 315 211.406C315.217 211.154 315.53 210.908 315.94 210.668C315.425 210.445 315.015 210.088 314.71 209.596C314.411 209.104 314.262 208.523 314.262 207.855C314.262 207.141 314.417 206.534 314.728 206.036C315.044 205.532 315.501 205.148 316.099 204.885C316.702 204.621 317.435 204.489 318.296 204.489C318.478 204.489 318.688 204.501 318.929 204.524C319.169 204.548 319.389 204.574 319.588 204.604C319.793 204.633 319.931 204.656 320.001 204.674H323.429V206.036L321.891 206.432C322.031 206.648 322.137 206.88 322.207 207.126C322.277 207.372 322.312 207.633 322.312 207.908C322.312 208.963 321.943 209.786 321.205 210.378C320.473 210.964 319.453 211.257 318.146 211.257C317.836 211.239 317.543 211.216 317.268 211.187C317.133 211.292 317.03 211.403 316.96 211.521C316.89 211.638 316.854 211.761 316.854 211.89C316.854 212.019 316.907 212.127 317.013 212.215C317.124 212.297 317.288 212.361 317.505 212.408C317.728 212.449 318.003 212.47 318.331 212.47H320.001C321.079 212.47 321.899 212.701 322.462 213.164C323.03 213.627 323.314 214.307 323.314 215.203C323.314 216.352 322.834 217.242 321.873 217.875C320.918 218.508 319.544 218.824 317.751 218.824ZM317.865 217.075C318.504 217.075 319.052 217.014 319.509 216.891C319.972 216.773 320.326 216.604 320.572 216.381C320.818 216.164 320.941 215.903 320.941 215.599C320.941 215.353 320.868 215.156 320.722 215.01C320.581 214.869 320.364 214.77 320.071 214.711C319.784 214.652 319.415 214.623 318.964 214.623H317.575C317.247 214.623 316.951 214.676 316.688 214.781C316.43 214.887 316.225 215.033 316.072 215.221C315.92 215.414 315.844 215.637 315.844 215.889C315.844 216.258 316.02 216.548 316.371 216.759C316.729 216.97 317.227 217.075 317.865 217.075ZM318.296 209.622C318.8 209.622 319.169 209.467 319.403 209.156C319.638 208.846 319.755 208.424 319.755 207.891C319.755 207.299 319.632 206.856 319.386 206.563C319.146 206.265 318.782 206.115 318.296 206.115C317.804 206.115 317.435 206.265 317.188 206.563C316.942 206.856 316.819 207.299 316.819 207.891C316.819 208.424 316.939 208.846 317.18 209.156C317.426 209.467 317.798 209.622 318.296 209.622ZM329.106 204.489C330.015 204.489 330.797 204.665 331.453 205.017C332.109 205.362 332.616 205.866 332.974 206.528C333.331 207.19 333.51 207.999 333.51 208.954V210.255H327.173C327.202 211.011 327.428 211.605 327.85 212.039C328.277 212.467 328.869 212.681 329.625 212.681C330.252 212.681 330.826 212.616 331.348 212.487C331.869 212.358 332.405 212.165 332.956 211.907V213.981C332.47 214.222 331.96 214.397 331.427 214.509C330.899 214.62 330.258 214.676 329.502 214.676C328.518 214.676 327.645 214.494 326.883 214.131C326.127 213.768 325.532 213.214 325.099 212.47C324.671 211.726 324.457 210.788 324.457 209.657C324.457 208.509 324.65 207.554 325.037 206.792C325.43 206.024 325.975 205.45 326.672 205.069C327.369 204.683 328.181 204.489 329.106 204.489ZM329.124 206.396C328.603 206.396 328.169 206.563 327.823 206.897C327.483 207.231 327.287 207.756 327.234 208.471H330.996C330.99 208.072 330.917 207.718 330.776 207.407C330.642 207.097 330.437 206.851 330.161 206.669C329.892 206.487 329.546 206.396 329.124 206.396ZM340.576 214.5V201.65H343.301V212.25H348.513V214.5H340.576ZM354.568 204.472C355.887 204.472 356.897 204.759 357.601 205.333C358.304 205.907 358.655 206.78 358.655 207.952V214.5H356.783L356.265 213.164H356.194C355.913 213.516 355.626 213.803 355.333 214.025C355.04 214.248 354.703 214.412 354.322 214.518C353.941 214.623 353.479 214.676 352.934 214.676C352.354 214.676 351.832 214.564 351.369 214.342C350.912 214.119 350.552 213.779 350.288 213.322C350.024 212.859 349.893 212.273 349.893 211.564C349.893 210.521 350.259 209.754 350.991 209.262C351.724 208.764 352.822 208.488 354.287 208.436L355.992 208.383V207.952C355.992 207.437 355.857 207.059 355.588 206.818C355.318 206.578 354.943 206.458 354.463 206.458C353.988 206.458 353.522 206.525 353.065 206.66C352.608 206.795 352.151 206.965 351.694 207.17L350.807 205.359C351.328 205.084 351.911 204.867 352.556 204.709C353.206 204.551 353.877 204.472 354.568 204.472ZM355.992 209.947L354.955 209.982C354.088 210.006 353.484 210.161 353.145 210.448C352.811 210.735 352.644 211.113 352.644 211.582C352.644 211.992 352.764 212.285 353.004 212.461C353.244 212.631 353.558 212.716 353.944 212.716C354.519 212.716 355.002 212.546 355.395 212.206C355.793 211.866 355.992 211.383 355.992 210.756V209.947ZM367.005 204.489C368.054 204.489 368.897 204.776 369.536 205.351C370.175 205.919 370.494 206.833 370.494 208.093V214.5H367.813V208.761C367.813 208.058 367.685 207.527 367.427 207.17C367.175 206.812 366.776 206.634 366.231 206.634C365.411 206.634 364.852 206.912 364.553 207.469C364.254 208.025 364.104 208.828 364.104 209.877V214.5H361.424V204.674H363.472L363.832 205.931H363.981C364.192 205.591 364.453 205.315 364.764 205.104C365.08 204.894 365.429 204.738 365.81 204.639C366.196 204.539 366.595 204.489 367.005 204.489ZM376.128 218.824C374.757 218.824 373.708 218.584 372.981 218.104C372.261 217.629 371.9 216.961 371.9 216.1C371.9 215.508 372.085 215.013 372.454 214.614C372.823 214.216 373.365 213.932 374.08 213.762C373.805 213.645 373.564 213.454 373.359 213.19C373.154 212.921 373.052 212.637 373.052 212.338C373.052 211.963 373.16 211.652 373.377 211.406C373.594 211.154 373.907 210.908 374.317 210.668C373.802 210.445 373.392 210.088 373.087 209.596C372.788 209.104 372.639 208.523 372.639 207.855C372.639 207.141 372.794 206.534 373.104 206.036C373.421 205.532 373.878 205.148 374.476 204.885C375.079 204.621 375.812 204.489 376.673 204.489C376.854 204.489 377.065 204.501 377.306 204.524C377.546 204.548 377.766 204.574 377.965 204.604C378.17 204.633 378.308 204.656 378.378 204.674H381.806V206.036L380.268 206.432C380.408 206.648 380.514 206.88 380.584 207.126C380.654 207.372 380.689 207.633 380.689 207.908C380.689 208.963 380.32 209.786 379.582 210.378C378.85 210.964 377.83 211.257 376.523 211.257C376.213 211.239 375.92 211.216 375.645 211.187C375.51 211.292 375.407 211.403 375.337 211.521C375.267 211.638 375.231 211.761 375.231 211.89C375.231 212.019 375.284 212.127 375.39 212.215C375.501 212.297 375.665 212.361 375.882 212.408C376.104 212.449 376.38 212.47 376.708 212.47H378.378C379.456 212.47 380.276 212.701 380.839 213.164C381.407 213.627 381.691 214.307 381.691 215.203C381.691 216.352 381.211 217.242 380.25 217.875C379.295 218.508 377.921 218.824 376.128 218.824ZM376.242 217.075C376.881 217.075 377.429 217.014 377.886 216.891C378.349 216.773 378.703 216.604 378.949 216.381C379.195 216.164 379.318 215.903 379.318 215.599C379.318 215.353 379.245 215.156 379.099 215.01C378.958 214.869 378.741 214.77 378.448 214.711C378.161 214.652 377.792 214.623 377.341 214.623H375.952C375.624 214.623 375.328 214.676 375.064 214.781C374.807 214.887 374.602 215.033 374.449 215.221C374.297 215.414 374.221 215.637 374.221 215.889C374.221 216.258 374.396 216.548 374.748 216.759C375.105 216.97 375.604 217.075 376.242 217.075ZM376.673 209.622C377.177 209.622 377.546 209.467 377.78 209.156C378.015 208.846 378.132 208.424 378.132 207.891C378.132 207.299 378.009 206.856 377.763 206.563C377.522 206.265 377.159 206.115 376.673 206.115C376.181 206.115 375.812 206.265 375.565 206.563C375.319 206.856 375.196 207.299 375.196 207.891C375.196 208.424 375.316 208.846 375.557 209.156C375.803 209.467 376.175 209.622 376.673 209.622ZM392.449 204.674V214.5H390.393L390.032 213.243H389.892C389.681 213.577 389.417 213.85 389.101 214.061C388.784 214.271 388.436 214.427 388.055 214.526C387.674 214.626 387.278 214.676 386.868 214.676C386.165 214.676 385.553 214.553 385.031 214.307C384.51 214.055 384.103 213.665 383.81 213.138C383.522 212.61 383.379 211.925 383.379 211.081V204.674H386.06V210.413C386.06 211.116 386.186 211.646 386.438 212.004C386.689 212.361 387.091 212.54 387.642 212.54C388.187 212.54 388.614 212.417 388.925 212.171C389.235 211.919 389.452 211.553 389.575 211.072C389.704 210.586 389.769 209.994 389.769 209.297V204.674H392.449ZM399.287 204.472C400.605 204.472 401.616 204.759 402.319 205.333C403.022 205.907 403.374 206.78 403.374 207.952V214.5H401.502L400.983 213.164H400.913C400.632 213.516 400.345 213.803 400.052 214.025C399.759 214.248 399.422 214.412 399.041 214.518C398.66 214.623 398.197 214.676 397.652 214.676C397.072 214.676 396.551 214.564 396.088 214.342C395.631 214.119 395.271 213.779 395.007 213.322C394.743 212.859 394.611 212.273 394.611 211.564C394.611 210.521 394.978 209.754 395.71 209.262C396.442 208.764 397.541 208.488 399.006 208.436L400.711 208.383V207.952C400.711 207.437 400.576 207.059 400.307 206.818C400.037 206.578 399.662 206.458 399.182 206.458C398.707 206.458 398.241 206.525 397.784 206.66C397.327 206.795 396.87 206.965 396.413 207.17L395.525 205.359C396.047 205.084 396.63 204.867 397.274 204.709C397.925 204.551 398.596 204.472 399.287 204.472ZM400.711 209.947L399.674 209.982C398.807 210.006 398.203 210.161 397.863 210.448C397.529 210.735 397.362 211.113 397.362 211.582C397.362 211.992 397.482 212.285 397.723 212.461C397.963 212.631 398.276 212.716 398.663 212.716C399.237 212.716 399.721 212.546 400.113 212.206C400.512 211.866 400.711 211.383 400.711 210.756V209.947ZM409.017 218.824C407.646 218.824 406.597 218.584 405.87 218.104C405.149 217.629 404.789 216.961 404.789 216.1C404.789 215.508 404.974 215.013 405.343 214.614C405.712 214.216 406.254 213.932 406.969 213.762C406.693 213.645 406.453 213.454 406.248 213.19C406.043 212.921 405.94 212.637 405.94 212.338C405.94 211.963 406.049 211.652 406.266 211.406C406.482 211.154 406.796 210.908 407.206 210.668C406.69 210.445 406.28 210.088 405.976 209.596C405.677 209.104 405.527 208.523 405.527 207.855C405.527 207.141 405.683 206.534 405.993 206.036C406.31 205.532 406.767 205.148 407.364 204.885C407.968 204.621 408.7 204.489 409.562 204.489C409.743 204.489 409.954 204.501 410.194 204.524C410.435 204.548 410.654 204.574 410.854 204.604C411.059 204.633 411.196 204.656 411.267 204.674H414.694V206.036L413.156 206.432C413.297 206.648 413.402 206.88 413.473 207.126C413.543 207.372 413.578 207.633 413.578 207.908C413.578 208.963 413.209 209.786 412.471 210.378C411.738 210.964 410.719 211.257 409.412 211.257C409.102 211.239 408.809 211.216 408.533 211.187C408.398 211.292 408.296 211.403 408.226 211.521C408.155 211.638 408.12 211.761 408.12 211.89C408.12 212.019 408.173 212.127 408.278 212.215C408.39 212.297 408.554 212.361 408.771 212.408C408.993 212.449 409.269 212.47 409.597 212.47H411.267C412.345 212.47 413.165 212.701 413.728 213.164C414.296 213.627 414.58 214.307 414.58 215.203C414.58 216.352 414.1 217.242 413.139 217.875C412.184 218.508 410.81 218.824 409.017 218.824ZM409.131 217.075C409.77 217.075 410.317 217.014 410.774 216.891C411.237 216.773 411.592 216.604 411.838 216.381C412.084 216.164 412.207 215.903 412.207 215.599C412.207 215.353 412.134 215.156 411.987 215.01C411.847 214.869 411.63 214.77 411.337 214.711C411.05 214.652 410.681 214.623 410.229 214.623H408.841C408.513 214.623 408.217 214.676 407.953 214.781C407.695 214.887 407.49 215.033 407.338 215.221C407.186 215.414 407.109 215.637 407.109 215.889C407.109 216.258 407.285 216.548 407.637 216.759C407.994 216.97 408.492 217.075 409.131 217.075ZM409.562 209.622C410.065 209.622 410.435 209.467 410.669 209.156C410.903 208.846 411.021 208.424 411.021 207.891C411.021 207.299 410.897 206.856 410.651 206.563C410.411 206.265 410.048 206.115 409.562 206.115C409.069 206.115 408.7 206.265 408.454 206.563C408.208 206.856 408.085 207.299 408.085 207.891C408.085 208.424 408.205 208.846 408.445 209.156C408.691 209.467 409.063 209.622 409.562 209.622ZM420.372 204.489C421.28 204.489 422.062 204.665 422.719 205.017C423.375 205.362 423.882 205.866 424.239 206.528C424.597 207.19 424.775 207.999 424.775 208.954V210.255H418.438C418.468 211.011 418.693 211.605 419.115 212.039C419.543 212.467 420.135 212.681 420.891 212.681C421.518 212.681 422.092 212.616 422.613 212.487C423.135 212.358 423.671 212.165 424.222 211.907V213.981C423.735 214.222 423.226 214.397 422.692 214.509C422.165 214.62 421.523 214.676 420.768 214.676C419.783 214.676 418.91 214.494 418.148 214.131C417.393 213.768 416.798 213.214 416.364 212.47C415.937 211.726 415.723 210.788 415.723 209.657C415.723 208.509 415.916 207.554 416.303 206.792C416.695 206.024 417.24 205.45 417.938 205.069C418.635 204.683 419.446 204.489 420.372 204.489ZM420.39 206.396C419.868 206.396 419.435 206.563 419.089 206.897C418.749 207.231 418.553 207.756 418.5 208.471H422.262C422.256 208.072 422.183 207.718 422.042 207.407C421.907 207.097 421.702 206.851 421.427 206.669C421.157 206.487 420.812 206.396 420.39 206.396Z" fill="#31344E"/>
</g>
</g>
<g filter="url(#filter5_d_3949_45915)">
<rect x="16" y="80" width="448" height="57" rx="10" fill="white" shape-rendering="crispEdges"/>
<rect x="16.5" y="80.5" width="447" height="56" rx="9.5" stroke="#D9D9D9" shape-rendering="crispEdges"/>
<path d="M33.6875 115V102.15H35.7969V115H33.6875ZM44.0498 105.086C45.1455 105.086 45.998 105.37 46.6074 105.938C47.2227 106.501 47.5303 107.406 47.5303 108.654V115H45.4648V109.041C45.4648 108.285 45.3096 107.72 44.999 107.345C44.6885 106.964 44.208 106.773 43.5576 106.773C42.6143 106.773 41.958 107.063 41.5889 107.644C41.2256 108.224 41.0439 109.064 41.0439 110.166V115H38.9785V105.271H40.5869L40.877 106.589H40.9912C41.2021 106.249 41.4629 105.971 41.7734 105.754C42.0898 105.531 42.4414 105.364 42.8281 105.253C43.2207 105.142 43.6279 105.086 44.0498 105.086ZM49.5781 111.045V109.296H54.1133V111.045H49.5781ZM60.0459 102.15C61.1533 102.15 62.0674 102.285 62.7881 102.555C63.5146 102.824 64.0537 103.234 64.4053 103.785C64.7627 104.336 64.9414 105.036 64.9414 105.886C64.9414 106.519 64.8242 107.058 64.5898 107.503C64.3555 107.948 64.0479 108.317 63.667 108.61C63.2861 108.903 62.8789 109.138 62.4453 109.313L66.0928 115H63.7109L60.6084 109.85H58.543V115H56.4336V102.15H60.0459ZM59.9053 103.908H58.543V108.109H60.002C60.9805 108.109 61.6895 107.928 62.1289 107.564C62.5742 107.201 62.7969 106.665 62.7969 105.956C62.7969 105.212 62.5596 104.685 62.085 104.374C61.6162 104.063 60.8896 103.908 59.9053 103.908ZM76.332 110.113C76.332 110.922 76.2266 111.64 76.0156 112.267C75.8047 112.894 75.4971 113.424 75.0928 113.857C74.6885 114.285 74.2021 114.613 73.6338 114.842C73.0654 115.064 72.4238 115.176 71.709 115.176C71.041 115.176 70.4287 115.064 69.8721 114.842C69.3154 114.613 68.832 114.285 68.4219 113.857C68.0176 113.424 67.7041 112.894 67.4814 112.267C67.2588 111.64 67.1475 110.922 67.1475 110.113C67.1475 109.041 67.332 108.133 67.7012 107.389C68.0762 106.639 68.6094 106.067 69.3008 105.675C69.9922 105.282 70.8154 105.086 71.7705 105.086C72.667 105.086 73.458 105.282 74.1436 105.675C74.8291 106.067 75.3652 106.639 75.752 107.389C76.1387 108.139 76.332 109.047 76.332 110.113ZM69.2744 110.113C69.2744 110.822 69.3594 111.429 69.5293 111.933C69.7051 112.437 69.9746 112.823 70.3379 113.093C70.7012 113.356 71.1699 113.488 71.7441 113.488C72.3184 113.488 72.7871 113.356 73.1504 113.093C73.5137 112.823 73.7803 112.437 73.9502 111.933C74.1201 111.429 74.2051 110.822 74.2051 110.113C74.2051 109.404 74.1201 108.804 73.9502 108.312C73.7803 107.813 73.5137 107.436 73.1504 107.178C72.7871 106.914 72.3154 106.782 71.7354 106.782C70.8799 106.782 70.2559 107.069 69.8633 107.644C69.4707 108.218 69.2744 109.041 69.2744 110.113ZM87.3184 110.113C87.3184 110.922 87.2129 111.64 87.002 112.267C86.791 112.894 86.4834 113.424 86.0791 113.857C85.6748 114.285 85.1885 114.613 84.6201 114.842C84.0518 115.064 83.4102 115.176 82.6953 115.176C82.0273 115.176 81.415 115.064 80.8584 114.842C80.3018 114.613 79.8184 114.285 79.4082 113.857C79.0039 113.424 78.6904 112.894 78.4678 112.267C78.2451 111.64 78.1338 110.922 78.1338 110.113C78.1338 109.041 78.3184 108.133 78.6875 107.389C79.0625 106.639 79.5957 106.067 80.2871 105.675C80.9785 105.282 81.8018 105.086 82.7568 105.086C83.6533 105.086 84.4443 105.282 85.1299 105.675C85.8154 106.067 86.3516 106.639 86.7383 107.389C87.125 108.139 87.3184 109.047 87.3184 110.113ZM80.2607 110.113C80.2607 110.822 80.3457 111.429 80.5156 111.933C80.6914 112.437 80.9609 112.823 81.3242 113.093C81.6875 113.356 82.1562 113.488 82.7305 113.488C83.3047 113.488 83.7734 113.356 84.1367 113.093C84.5 112.823 84.7666 112.437 84.9365 111.933C85.1064 111.429 85.1914 110.822 85.1914 110.113C85.1914 109.404 85.1064 108.804 84.9365 108.312C84.7666 107.813 84.5 107.436 84.1367 107.178C83.7734 106.914 83.3018 106.782 82.7217 106.782C81.8662 106.782 81.2422 107.069 80.8496 107.644C80.457 108.218 80.2607 109.041 80.2607 110.113ZM100.687 105.086C101.776 105.086 102.597 105.367 103.147 105.93C103.704 106.492 103.982 107.395 103.982 108.637V115H101.917V109.006C101.917 108.268 101.773 107.711 101.486 107.336C101.199 106.961 100.763 106.773 100.177 106.773C99.3564 106.773 98.7646 107.037 98.4014 107.564C98.0439 108.086 97.8652 108.845 97.8652 109.841V115H95.7998V109.006C95.7998 108.514 95.7354 108.104 95.6064 107.775C95.4834 107.441 95.293 107.192 95.0352 107.028C94.7773 106.858 94.4521 106.773 94.0596 106.773C93.4912 106.773 93.0371 106.902 92.6973 107.16C92.3633 107.418 92.123 107.799 91.9766 108.303C91.8301 108.801 91.7568 109.413 91.7568 110.14V115H89.6914V105.271H91.2998L91.5898 106.58H91.7041C91.9033 106.24 92.1494 105.962 92.4424 105.745C92.7412 105.522 93.0723 105.358 93.4355 105.253C93.7988 105.142 94.1768 105.086 94.5693 105.086C95.2959 105.086 95.9082 105.215 96.4062 105.473C96.9043 105.725 97.2764 106.111 97.5225 106.633H97.6807C97.9854 106.105 98.4102 105.716 98.9551 105.464C99.5 105.212 100.077 105.086 100.687 105.086ZM119.715 115L118.458 111.432H113.545L112.288 115H110.064L114.846 102.098H117.184L121.956 115H119.715ZM117.913 109.621L116.691 106.105C116.645 105.953 116.577 105.739 116.489 105.464C116.401 105.183 116.313 104.898 116.226 104.611C116.138 104.318 116.064 104.072 116.006 103.873C115.947 104.113 115.874 104.383 115.786 104.682C115.704 104.975 115.622 105.25 115.54 105.508C115.464 105.766 115.405 105.965 115.364 106.105L114.134 109.621H117.913ZM125.516 115H123.441V101.324H125.516V115ZM132.345 105.086C133.212 105.086 133.956 105.265 134.577 105.622C135.198 105.979 135.676 106.486 136.01 107.143C136.344 107.799 136.511 108.584 136.511 109.498V110.605H130.016C130.039 111.549 130.291 112.275 130.771 112.785C131.258 113.295 131.938 113.55 132.811 113.55C133.432 113.55 133.988 113.491 134.48 113.374C134.979 113.251 135.491 113.072 136.019 112.838V114.517C135.532 114.745 135.037 114.912 134.533 115.018C134.029 115.123 133.426 115.176 132.723 115.176C131.768 115.176 130.927 114.991 130.2 114.622C129.479 114.247 128.914 113.69 128.504 112.952C128.1 112.214 127.897 111.297 127.897 110.201C127.897 109.111 128.082 108.186 128.451 107.424C128.82 106.662 129.339 106.082 130.007 105.684C130.675 105.285 131.454 105.086 132.345 105.086ZM132.345 106.642C131.694 106.642 131.167 106.853 130.763 107.274C130.364 107.696 130.13 108.314 130.06 109.129H134.489C134.483 108.643 134.401 108.212 134.243 107.837C134.091 107.462 133.856 107.169 133.54 106.958C133.229 106.747 132.831 106.642 132.345 106.642ZM143.771 105.086C143.935 105.086 144.113 105.095 144.307 105.112C144.5 105.13 144.667 105.153 144.808 105.183L144.614 107.116C144.491 107.081 144.339 107.055 144.157 107.037C143.981 107.02 143.823 107.011 143.683 107.011C143.313 107.011 142.962 107.072 142.628 107.195C142.294 107.312 141.998 107.494 141.74 107.74C141.482 107.98 141.28 108.282 141.134 108.646C140.987 109.009 140.914 109.431 140.914 109.911V115H138.84V105.271H140.457L140.738 106.984H140.835C141.028 106.639 141.269 106.322 141.556 106.035C141.843 105.748 142.171 105.52 142.54 105.35C142.915 105.174 143.325 105.086 143.771 105.086ZM150.23 113.506C150.5 113.506 150.767 113.482 151.03 113.436C151.294 113.383 151.534 113.321 151.751 113.251V114.815C151.522 114.915 151.227 115 150.863 115.07C150.5 115.141 150.122 115.176 149.729 115.176C149.179 115.176 148.684 115.085 148.244 114.903C147.805 114.716 147.456 114.396 147.198 113.945C146.94 113.494 146.812 112.87 146.812 112.073V106.844H145.484V105.921L146.908 105.191L147.585 103.108H148.886V105.271H151.672V106.844H148.886V112.047C148.886 112.539 149.009 112.905 149.255 113.146C149.501 113.386 149.826 113.506 150.23 113.506ZM166.578 115L165.321 111.432H160.408L159.151 115H156.928L161.709 102.098H164.047L168.819 115H166.578ZM164.776 109.621L163.555 106.105C163.508 105.953 163.44 105.739 163.353 105.464C163.265 105.183 163.177 104.898 163.089 104.611C163.001 104.318 162.928 104.072 162.869 103.873C162.811 104.113 162.737 104.383 162.649 104.682C162.567 104.975 162.485 105.25 162.403 105.508C162.327 105.766 162.269 105.965 162.228 106.105L160.997 109.621H164.776ZM178.786 105.271V115H177.16L176.879 113.69H176.765C176.56 114.024 176.299 114.303 175.982 114.525C175.666 114.742 175.314 114.903 174.928 115.009C174.541 115.12 174.134 115.176 173.706 115.176C172.974 115.176 172.347 115.053 171.825 114.807C171.31 114.555 170.914 114.168 170.639 113.646C170.363 113.125 170.226 112.451 170.226 111.625V105.271H172.3V111.238C172.3 111.994 172.452 112.56 172.757 112.935C173.067 113.31 173.548 113.497 174.198 113.497C174.825 113.497 175.323 113.368 175.692 113.11C176.062 112.853 176.322 112.472 176.475 111.968C176.633 111.464 176.712 110.846 176.712 110.113V105.271H178.786ZM185.018 115.176C183.857 115.176 182.926 114.754 182.223 113.91C181.525 113.061 181.177 111.81 181.177 110.157C181.177 108.487 181.531 107.225 182.24 106.369C182.955 105.514 183.896 105.086 185.062 105.086C185.554 105.086 185.984 105.153 186.354 105.288C186.723 105.417 187.039 105.593 187.303 105.815C187.572 106.038 187.801 106.287 187.988 106.562H188.085C188.056 106.381 188.021 106.12 187.979 105.78C187.944 105.435 187.927 105.115 187.927 104.822V101.324H190.001V115H188.384L188.015 113.673H187.927C187.751 113.954 187.528 114.209 187.259 114.438C186.995 114.66 186.679 114.839 186.31 114.974C185.946 115.108 185.516 115.176 185.018 115.176ZM185.598 113.497C186.482 113.497 187.106 113.242 187.47 112.732C187.833 112.223 188.021 111.458 188.032 110.438V110.166C188.032 109.076 187.856 108.241 187.505 107.661C187.153 107.075 186.512 106.782 185.58 106.782C184.836 106.782 184.268 107.084 183.875 107.688C183.488 108.285 183.295 109.12 183.295 110.192C183.295 111.265 183.488 112.085 183.875 112.653C184.268 113.216 184.842 113.497 185.598 113.497ZM195.028 105.271V115H192.963V105.271H195.028ZM194.009 101.544C194.325 101.544 194.598 101.629 194.826 101.799C195.061 101.969 195.178 102.262 195.178 102.678C195.178 103.088 195.061 103.381 194.826 103.557C194.598 103.727 194.325 103.812 194.009 103.812C193.681 103.812 193.402 103.727 193.174 103.557C192.951 103.381 192.84 103.088 192.84 102.678C192.84 102.262 192.951 101.969 193.174 101.799C193.402 101.629 193.681 101.544 194.009 101.544ZM206.604 110.113C206.604 110.922 206.498 111.64 206.287 112.267C206.076 112.894 205.769 113.424 205.364 113.857C204.96 114.285 204.474 114.613 203.905 114.842C203.337 115.064 202.695 115.176 201.98 115.176C201.312 115.176 200.7 115.064 200.144 114.842C199.587 114.613 199.104 114.285 198.693 113.857C198.289 113.424 197.976 112.894 197.753 112.267C197.53 111.64 197.419 110.922 197.419 110.113C197.419 109.041 197.604 108.133 197.973 107.389C198.348 106.639 198.881 106.067 199.572 105.675C200.264 105.282 201.087 105.086 202.042 105.086C202.938 105.086 203.729 105.282 204.415 105.675C205.101 106.067 205.637 106.639 206.023 107.389C206.41 108.139 206.604 109.047 206.604 110.113ZM199.546 110.113C199.546 110.822 199.631 111.429 199.801 111.933C199.977 112.437 200.246 112.823 200.609 113.093C200.973 113.356 201.441 113.488 202.016 113.488C202.59 113.488 203.059 113.356 203.422 113.093C203.785 112.823 204.052 112.437 204.222 111.933C204.392 111.429 204.477 110.822 204.477 110.113C204.477 109.404 204.392 108.804 204.222 108.312C204.052 107.813 203.785 107.436 203.422 107.178C203.059 106.914 202.587 106.782 202.007 106.782C201.151 106.782 200.527 107.069 200.135 107.644C199.742 108.218 199.546 109.041 199.546 110.113Z" fill="#31344E"/>
<rect x="397" y="95" width="52" height="27" rx="13.5" fill="white" stroke="#D1D1D1" stroke-width="2"/>
<rect x="410.817" y="97.9316" width="24.648" height="21.2484" fill="#BBE4CB"/>
<ellipse cx="435.015" cy="108.5" rx="11.0163" ry="10.7919" fill="#218448"/>
<ellipse cx="410.988" cy="108.5" rx="11.0163" ry="10.7919" fill="#BBE4CB"/>
</g>
<defs>
<filter id="filter0_d_3949_45915" x="243" y="382" width="224" height="88" filterUnits="userSpaceOnUse" color-interpolation-filters="sRGB">
<feFlood flood-opacity="0" result="BackgroundImageFix"/>
<feColorMatrix in="SourceAlpha" type="matrix" values="0 0 0 0 0 0 0 0 0 0 0 0 0 0 0 0 0 0 127 0" result="hardAlpha"/>
<feOffset dy="2"/>
<feGaussianBlur stdDeviation="2"/>
<feComposite in2="hardAlpha" operator="out"/>
<feColorMatrix type="matrix" values="0 0 0 0 0 0 0 0 0 0 0 0 0 0 0 0 0 0 0.25 0"/>
<feBlend mode="normal" in2="BackgroundImageFix" result="effect1_dropShadow_3949_45915"/>
<feBlend mode="normal" in="SourceGraphic" in2="effect1_dropShadow_3949_45915" result="shape"/>
</filter>
<filter id="filter1_d_3949_45915" x="17" y="382" width="224" height="88" filterUnits="userSpaceOnUse" color-interpolation-filters="sRGB">
<feFlood flood-opacity="0" result="BackgroundImageFix"/>
<feColorMatrix in="SourceAlpha" type="matrix" values="0 0 0 0 0 0 0 0 0 0 0 0 0 0 0 0 0 0 127 0" result="hardAlpha"/>
<feOffset dy="2"/>
<feGaussianBlur stdDeviation="2"/>
<feComposite in2="hardAlpha" operator="out"/>
<feColorMatrix type="matrix" values="0 0 0 0 0 0 0 0 0 0 0 0 0 0 0 0 0 0 0.25 0"/>
<feBlend mode="normal" in2="BackgroundImageFix" result="effect1_dropShadow_3949_45915"/>
<feBlend mode="normal" in="SourceGraphic" in2="effect1_dropShadow_3949_45915" result="shape"/>
</filter>
<filter id="filter2_d_3949_45915" x="10" y="107" width="460" height="261" filterUnits="userSpaceOnUse" color-interpolation-filters="sRGB">
<feFlood flood-opacity="0" result="BackgroundImageFix"/>
<feColorMatrix in="SourceAlpha" type="matrix" values="0 0 0 0 0 0 0 0 0 0 0 0 0 0 0 0 0 0 127 0" result="hardAlpha"/>
<feOffset dy="3"/>
<feGaussianBlur stdDeviation="3"/>
<feComposite in2="hardAlpha" operator="out"/>
<feColorMatrix type="matrix" values="0 0 0 0 0 0 0 0 0 0 0 0 0 0 0 0 0 0 0.25 0"/>
<feBlend mode="normal" in2="BackgroundImageFix" result="effect1_dropShadow_3949_45915"/>
<feBlend mode="normal" in="SourceGraphic" in2="effect1_dropShadow_3949_45915" result="shape"/>
</filter>
<filter id="filter3_d_3949_45915" x="27" y="282" width="42" height="42" filterUnits="userSpaceOnUse" color-interpolation-filters="sRGB">
<feFlood flood-opacity="0" result="BackgroundImageFix"/>
<feColorMatrix in="SourceAlpha" type="matrix" values="0 0 0 0 0 0 0 0 0 0 0 0 0 0 0 0 0 0 127 0" result="hardAlpha"/>
<feOffset dy="2"/>
<feGaussianBlur stdDeviation="2"/>
<feComposite in2="hardAlpha" operator="out"/>
<feColorMatrix type="matrix" values="0 0 0 0 0 0 0 0 0 0 0 0 0 0 0 0 0 0 0.25 0"/>
<feBlend mode="normal" in2="BackgroundImageFix" result="effect1_dropShadow_3949_45915"/>
<feBlend mode="normal" in="SourceGraphic" in2="effect1_dropShadow_3949_45915" result="shape"/>
</filter>
<filter id="filter4_d_3949_45915" x="241" y="182" width="211" height="56" filterUnits="userSpaceOnUse" color-interpolation-filters="sRGB">
<feFlood flood-opacity="0" result="BackgroundImageFix"/>
<feColorMatrix in="SourceAlpha" type="matrix" values="0 0 0 0 0 0 0 0 0 0 0 0 0 0 0 0 0 0 127 0" result="hardAlpha"/>
<feOffset dy="2"/>
<feGaussianBlur stdDeviation="2"/>
<feComposite in2="hardAlpha" operator="out"/>
<feColorMatrix type="matrix" values="0 0 0 0 0 0 0 0 0 0 0 0 0 0 0 0 0 0 0.25 0"/>
<feBlend mode="normal" in2="BackgroundImageFix" result="effect1_dropShadow_3949_45915"/>
<feBlend mode="normal" in="SourceGraphic" in2="effect1_dropShadow_3949_45915" result="shape"/>
</filter>
<filter id="filter5_d_3949_45915" x="10" y="77" width="460" height="69" filterUnits="userSpaceOnUse" color-interpolation-filters="sRGB">
<feFlood flood-opacity="0" result="BackgroundImageFix"/>
<feColorMatrix in="SourceAlpha" type="matrix" values="0 0 0 0 0 0 0 0 0 0 0 0 0 0 0 0 0 0 127 0" result="hardAlpha"/>
<feOffset dy="3"/>
<feGaussianBlur stdDeviation="3"/>
<feComposite in2="hardAlpha" operator="out"/>
<feColorMatrix type="matrix" values="0 0 0 0 0 0 0 0 0 0 0 0 0 0 0 0 0 0 0.25 0"/>
<feBlend mode="normal" in2="BackgroundImageFix" result="effect1_dropShadow_3949_45915"/>
<feBlend mode="normal" in="SourceGraphic" in2="effect1_dropShadow_3949_45915" result="shape"/>
</filter>
</defs>
</svg>
