<svg width="480" height="480" viewBox="0 0 480 480" fill="none" xmlns="http://www.w3.org/2000/svg">
<rect width="480" height="480" fill="#F6F6F6"/>
<g filter="url(#filter0_d_6143_17050)">
<rect x="16.5" y="80.5" width="447" height="215" rx="6.5" fill="white" stroke="#D1D1D1"/>
</g>
<path d="M33.6875 108.15H37.5107C39.1689 108.15 40.4199 108.391 41.2637 108.871C42.1074 109.352 42.5293 110.181 42.5293 111.358C42.5293 111.851 42.4414 112.296 42.2656 112.694C42.0957 113.087 41.8467 113.412 41.5186 113.67C41.1904 113.922 40.7861 114.092 40.3057 114.18V114.268C40.8037 114.355 41.2461 114.511 41.6328 114.733C42.0254 114.956 42.333 115.275 42.5557 115.691C42.7842 116.107 42.8984 116.646 42.8984 117.309C42.8984 118.094 42.7109 118.762 42.3359 119.312C41.9668 119.863 41.4365 120.282 40.7451 120.569C40.0596 120.856 39.2451 121 38.3018 121H33.6875V108.15ZM35.7969 113.45H37.8184C38.7734 113.45 39.4355 113.295 39.8047 112.984C40.1738 112.674 40.3584 112.22 40.3584 111.622C40.3584 111.013 40.1387 110.573 39.6992 110.304C39.2656 110.034 38.5742 109.899 37.625 109.899H35.7969V113.45ZM35.7969 115.155V119.233H38.0205C39.0049 119.233 39.6963 119.043 40.0947 118.662C40.4932 118.281 40.6924 117.766 40.6924 117.115C40.6924 116.717 40.6016 116.371 40.4199 116.078C40.2441 115.785 39.9541 115.56 39.5498 115.401C39.1455 115.237 38.6006 115.155 37.915 115.155H35.7969ZM49.2178 111.086C50.085 111.086 50.8291 111.265 51.4502 111.622C52.0713 111.979 52.5488 112.486 52.8828 113.143C53.2168 113.799 53.3838 114.584 53.3838 115.498V116.605H46.8887C46.9121 117.549 47.1641 118.275 47.6445 118.785C48.1309 119.295 48.8105 119.55 49.6836 119.55C50.3047 119.55 50.8613 119.491 51.3535 119.374C51.8516 119.251 52.3643 119.072 52.8916 118.838V120.517C52.4053 120.745 51.9102 120.912 51.4062 121.018C50.9023 121.123 50.2988 121.176 49.5957 121.176C48.6406 121.176 47.7998 120.991 47.0732 120.622C46.3525 120.247 45.7871 119.69 45.377 118.952C44.9727 118.214 44.7705 117.297 44.7705 116.201C44.7705 115.111 44.9551 114.186 45.3242 113.424C45.6934 112.662 46.2119 112.082 46.8799 111.684C47.5479 111.285 48.3271 111.086 49.2178 111.086ZM49.2178 112.642C48.5674 112.642 48.04 112.853 47.6357 113.274C47.2373 113.696 47.0029 114.314 46.9326 115.129H51.3623C51.3564 114.643 51.2744 114.212 51.1162 113.837C50.9639 113.462 50.7295 113.169 50.4131 112.958C50.1025 112.747 49.7041 112.642 49.2178 112.642ZM58.9824 121.176C57.8223 121.176 56.8906 120.754 56.1875 119.91C55.4902 119.061 55.1416 117.81 55.1416 116.157C55.1416 114.487 55.4961 113.225 56.2051 112.369C56.9199 111.514 57.8604 111.086 59.0264 111.086C59.5186 111.086 59.9492 111.153 60.3184 111.288C60.6875 111.417 61.0039 111.593 61.2676 111.815C61.5371 112.038 61.7656 112.287 61.9531 112.562H62.0498C62.0205 112.381 61.9854 112.12 61.9443 111.78C61.9092 111.435 61.8916 111.115 61.8916 110.822V107.324H63.9658V121H62.3486L61.9795 119.673H61.8916C61.7158 119.954 61.4932 120.209 61.2236 120.438C60.96 120.66 60.6436 120.839 60.2744 120.974C59.9111 121.108 59.4805 121.176 58.9824 121.176ZM59.5625 119.497C60.4473 119.497 61.0713 119.242 61.4346 118.732C61.7979 118.223 61.9854 117.458 61.9971 116.438V116.166C61.9971 115.076 61.8213 114.241 61.4697 113.661C61.1182 113.075 60.4766 112.782 59.5449 112.782C58.8008 112.782 58.2324 113.084 57.8398 113.688C57.4531 114.285 57.2598 115.12 57.2598 116.192C57.2598 117.265 57.4531 118.085 57.8398 118.653C58.2324 119.216 58.8066 119.497 59.5625 119.497ZM75.5498 108.15C77.208 108.15 78.418 108.49 79.1797 109.17C79.9414 109.85 80.3223 110.802 80.3223 112.026C80.3223 112.583 80.2344 113.113 80.0586 113.617C79.8887 114.115 79.6074 114.558 79.2148 114.944C78.8223 115.325 78.3037 115.627 77.6592 115.85C77.0205 116.072 76.2324 116.184 75.2949 116.184H73.9238V121H71.8145V108.15H75.5498ZM75.4092 109.899H73.9238V114.426H75.0752C75.7373 114.426 76.2998 114.35 76.7627 114.197C77.2256 114.039 77.5771 113.79 77.8174 113.45C78.0576 113.11 78.1777 112.662 78.1777 112.105C78.1777 111.361 77.9521 110.808 77.501 110.444C77.0557 110.081 76.3584 109.899 75.4092 109.899ZM84.752 121H82.6777V107.324H84.752V121ZM91.5195 111.086C92.75 111.086 93.6787 111.358 94.3057 111.903C94.9385 112.448 95.2549 113.298 95.2549 114.452V121H93.7871L93.3916 119.62H93.3213C93.0459 119.972 92.7617 120.262 92.4688 120.49C92.1758 120.719 91.8359 120.889 91.4492 121C91.0684 121.117 90.6025 121.176 90.0518 121.176C89.4717 121.176 88.9531 121.07 88.4961 120.859C88.0391 120.643 87.6787 120.314 87.415 119.875C87.1514 119.436 87.0195 118.879 87.0195 118.205C87.0195 117.203 87.3916 116.45 88.1357 115.946C88.8857 115.442 90.0166 115.164 91.5283 115.111L93.2158 115.05V114.54C93.2158 113.866 93.0576 113.386 92.7412 113.099C92.4307 112.812 91.9912 112.668 91.4229 112.668C90.9365 112.668 90.4648 112.738 90.0078 112.879C89.5508 113.02 89.1055 113.192 88.6719 113.397L88.0039 111.938C88.4785 111.687 89.0176 111.481 89.6211 111.323C90.2305 111.165 90.8633 111.086 91.5195 111.086ZM93.207 116.351L91.9502 116.395C90.9189 116.43 90.1953 116.605 89.7793 116.922C89.3633 117.238 89.1553 117.672 89.1553 118.223C89.1553 118.703 89.2988 119.055 89.5859 119.277C89.873 119.494 90.251 119.603 90.7197 119.603C91.4346 119.603 92.0264 119.4 92.4951 118.996C92.9697 118.586 93.207 117.985 93.207 117.194V116.351ZM102.066 121.176C101.146 121.176 100.35 120.997 99.6758 120.64C99.002 120.282 98.4834 119.734 98.1201 118.996C97.7568 118.258 97.5752 117.32 97.5752 116.184C97.5752 115 97.7744 114.033 98.1729 113.283C98.5713 112.533 99.1221 111.979 99.8252 111.622C100.534 111.265 101.346 111.086 102.26 111.086C102.84 111.086 103.364 111.145 103.833 111.262C104.308 111.373 104.709 111.511 105.037 111.675L104.422 113.327C104.064 113.181 103.698 113.058 103.323 112.958C102.948 112.858 102.588 112.809 102.242 112.809C101.674 112.809 101.199 112.935 100.818 113.187C100.443 113.438 100.162 113.813 99.9746 114.312C99.793 114.81 99.7021 115.428 99.7021 116.166C99.7021 116.881 99.7959 117.484 99.9834 117.977C100.171 118.463 100.449 118.832 100.818 119.084C101.188 119.33 101.642 119.453 102.181 119.453C102.714 119.453 103.191 119.389 103.613 119.26C104.035 119.131 104.434 118.964 104.809 118.759V120.552C104.439 120.763 104.044 120.918 103.622 121.018C103.2 121.123 102.682 121.176 102.066 121.176ZM110.97 111.086C111.837 111.086 112.581 111.265 113.202 111.622C113.823 111.979 114.301 112.486 114.635 113.143C114.969 113.799 115.136 114.584 115.136 115.498V116.605H108.641C108.664 117.549 108.916 118.275 109.396 118.785C109.883 119.295 110.562 119.55 111.436 119.55C112.057 119.55 112.613 119.491 113.105 119.374C113.604 119.251 114.116 119.072 114.644 118.838V120.517C114.157 120.745 113.662 120.912 113.158 121.018C112.654 121.123 112.051 121.176 111.348 121.176C110.393 121.176 109.552 120.991 108.825 120.622C108.104 120.247 107.539 119.69 107.129 118.952C106.725 118.214 106.522 117.297 106.522 116.201C106.522 115.111 106.707 114.186 107.076 113.424C107.445 112.662 107.964 112.082 108.632 111.684C109.3 111.285 110.079 111.086 110.97 111.086ZM110.97 112.642C110.319 112.642 109.792 112.853 109.388 113.274C108.989 113.696 108.755 114.314 108.685 115.129H113.114C113.108 114.643 113.026 114.212 112.868 113.837C112.716 113.462 112.481 113.169 112.165 112.958C111.854 112.747 111.456 112.642 110.97 112.642ZM128.46 111.086C129.55 111.086 130.37 111.367 130.921 111.93C131.478 112.492 131.756 113.395 131.756 114.637V121H129.69V115.006C129.69 114.268 129.547 113.711 129.26 113.336C128.973 112.961 128.536 112.773 127.95 112.773C127.13 112.773 126.538 113.037 126.175 113.564C125.817 114.086 125.639 114.845 125.639 115.841V121H123.573V115.006C123.573 114.514 123.509 114.104 123.38 113.775C123.257 113.441 123.066 113.192 122.809 113.028C122.551 112.858 122.226 112.773 121.833 112.773C121.265 112.773 120.811 112.902 120.471 113.16C120.137 113.418 119.896 113.799 119.75 114.303C119.604 114.801 119.53 115.413 119.53 116.14V121H117.465V111.271H119.073L119.363 112.58H119.478C119.677 112.24 119.923 111.962 120.216 111.745C120.515 111.522 120.846 111.358 121.209 111.253C121.572 111.142 121.95 111.086 122.343 111.086C123.069 111.086 123.682 111.215 124.18 111.473C124.678 111.725 125.05 112.111 125.296 112.633H125.454C125.759 112.105 126.184 111.716 126.729 111.464C127.273 111.212 127.851 111.086 128.46 111.086ZM138.515 111.086C139.382 111.086 140.126 111.265 140.747 111.622C141.368 111.979 141.846 112.486 142.18 113.143C142.514 113.799 142.681 114.584 142.681 115.498V116.605H136.186C136.209 117.549 136.461 118.275 136.941 118.785C137.428 119.295 138.107 119.55 138.98 119.55C139.602 119.55 140.158 119.491 140.65 119.374C141.148 119.251 141.661 119.072 142.188 118.838V120.517C141.702 120.745 141.207 120.912 140.703 121.018C140.199 121.123 139.596 121.176 138.893 121.176C137.938 121.176 137.097 120.991 136.37 120.622C135.649 120.247 135.084 119.69 134.674 118.952C134.27 118.214 134.067 117.297 134.067 116.201C134.067 115.111 134.252 114.186 134.621 113.424C134.99 112.662 135.509 112.082 136.177 111.684C136.845 111.285 137.624 111.086 138.515 111.086ZM138.515 112.642C137.864 112.642 137.337 112.853 136.933 113.274C136.534 113.696 136.3 114.314 136.229 115.129H140.659C140.653 114.643 140.571 114.212 140.413 113.837C140.261 113.462 140.026 113.169 139.71 112.958C139.399 112.747 139.001 112.642 138.515 112.642ZM150.081 111.086C151.177 111.086 152.029 111.37 152.639 111.938C153.254 112.501 153.562 113.406 153.562 114.654V121H151.496V115.041C151.496 114.285 151.341 113.72 151.03 113.345C150.72 112.964 150.239 112.773 149.589 112.773C148.646 112.773 147.989 113.063 147.62 113.644C147.257 114.224 147.075 115.064 147.075 116.166V121H145.01V111.271H146.618L146.908 112.589H147.022C147.233 112.249 147.494 111.971 147.805 111.754C148.121 111.531 148.473 111.364 148.859 111.253C149.252 111.142 149.659 111.086 150.081 111.086ZM160.074 119.506C160.344 119.506 160.61 119.482 160.874 119.436C161.138 119.383 161.378 119.321 161.595 119.251V120.815C161.366 120.915 161.07 121 160.707 121.07C160.344 121.141 159.966 121.176 159.573 121.176C159.022 121.176 158.527 121.085 158.088 120.903C157.648 120.716 157.3 120.396 157.042 119.945C156.784 119.494 156.655 118.87 156.655 118.073V112.844H155.328V111.921L156.752 111.191L157.429 109.108H158.729V111.271H161.516V112.844H158.729V118.047C158.729 118.539 158.853 118.905 159.099 119.146C159.345 119.386 159.67 119.506 160.074 119.506Z" fill="#31344E"/>
<path d="M62 199L418 199" stroke="#F6F6F6" stroke-width="16" stroke-linecap="round"/>
<path d="M64 199H416" stroke="#707070"/>
<g filter="url(#filter1_d_6143_17050)">
<circle cx="240" cy="199" r="16" fill="#F6F6F6" stroke="#1A1040" stroke-width="2"/>
<circle cx="240" cy="199" r="9" fill="#1A1040"/>
</g>
<circle cx="48" cy="199" r="16" fill="#F6F6F6"/>
<circle cx="48" cy="199" r="9" fill="#707070"/>
<circle cx="432" cy="199" r="16" fill="#F6F6F6"/>
<circle cx="432" cy="199" r="9" fill="#707070"/>
<path d="M33.4648 239V228.292H34.71V237.887H39.4634V239H33.4648ZM44.2095 230.826C44.8931 230.826 45.479 230.978 45.9673 231.28C46.4556 231.583 46.8291 232.008 47.0879 232.555C47.3467 233.097 47.4761 233.731 47.4761 234.459V235.213H41.9316C41.9463 236.156 42.1807 236.874 42.6348 237.367C43.0889 237.86 43.7285 238.106 44.5537 238.106C45.0615 238.106 45.5107 238.06 45.9014 237.967C46.292 237.875 46.6973 237.738 47.1172 237.557V238.626C46.7119 238.807 46.3091 238.939 45.9087 239.022C45.5132 239.105 45.0444 239.146 44.5024 239.146C43.731 239.146 43.0571 238.99 42.481 238.678C41.9097 238.36 41.4653 237.896 41.1479 237.286C40.8306 236.676 40.6719 235.929 40.6719 235.045C40.6719 234.181 40.8159 233.434 41.104 232.804C41.397 232.169 41.8071 231.681 42.3345 231.339C42.8667 230.997 43.4917 230.826 44.2095 230.826ZM44.1948 231.822C43.5454 231.822 43.0278 232.035 42.6421 232.459C42.2563 232.884 42.0269 233.478 41.9536 234.239H46.2017C46.1968 233.761 46.1211 233.341 45.9746 232.979C45.833 232.613 45.6157 232.33 45.3228 232.13C45.0298 231.925 44.6538 231.822 44.1948 231.822ZM53.1157 231.925H51.1162V239H49.9004V231.925H48.4795V231.339L49.9004 230.936V230.401C49.9004 229.728 50.0005 229.181 50.2007 228.761C50.4009 228.336 50.6914 228.023 51.0723 227.823C51.4531 227.623 51.917 227.523 52.4639 227.523C52.7715 227.523 53.0522 227.55 53.3062 227.604C53.5649 227.657 53.792 227.718 53.9873 227.787L53.6724 228.746C53.5063 228.692 53.3184 228.644 53.1084 228.6C52.9033 228.551 52.6934 228.526 52.4785 228.526C52.0146 228.526 51.6704 228.678 51.4458 228.98C51.2261 229.278 51.1162 229.747 51.1162 230.387V230.973H53.1157V231.925ZM57.188 238.15C57.3882 238.15 57.5933 238.133 57.8032 238.099C58.0132 238.065 58.1841 238.023 58.3159 237.975V238.919C58.1743 238.983 57.9766 239.037 57.7227 239.081C57.4736 239.125 57.2295 239.146 56.9902 239.146C56.5654 239.146 56.1797 239.073 55.833 238.927C55.4863 238.775 55.208 238.521 54.998 238.165C54.793 237.809 54.6904 237.315 54.6904 236.686V231.925H53.5479V231.332L54.6978 230.855L55.1812 229.112H55.9136V230.973H58.2646V231.925H55.9136V236.649C55.9136 237.152 56.0283 237.528 56.2578 237.777C56.4922 238.026 56.8022 238.15 57.188 238.15ZM76.187 228.292L73.3232 239H72.0708L69.9468 231.793C69.8833 231.588 69.8223 231.383 69.7637 231.178C69.71 230.968 69.6587 230.77 69.6099 230.584C69.561 230.394 69.5195 230.228 69.4854 230.086C69.4561 229.94 69.4341 229.83 69.4194 229.757C69.4097 229.83 69.3901 229.938 69.3608 230.079C69.3364 230.221 69.3022 230.384 69.2583 230.57C69.2192 230.755 69.1704 230.953 69.1118 231.163C69.0581 231.373 68.9995 231.585 68.936 231.8L66.8706 239H65.6182L62.7764 228.292H64.0728L65.7939 235.008C65.8525 235.233 65.9062 235.455 65.9551 235.675C66.0088 235.89 66.0552 236.1 66.0942 236.305C66.1382 236.51 66.1772 236.71 66.2114 236.905C66.2456 237.101 66.2773 237.291 66.3066 237.477C66.3311 237.286 66.3628 237.088 66.4019 236.883C66.4409 236.673 66.4824 236.461 66.5264 236.246C66.5752 236.031 66.6265 235.814 66.6802 235.594C66.7388 235.375 66.7998 235.155 66.8633 234.935L68.7896 228.292H70.0713L72.0781 234.986C72.1465 235.216 72.21 235.443 72.2686 235.667C72.3271 235.892 72.3784 236.112 72.4224 236.327C72.4712 236.537 72.5127 236.739 72.5469 236.935C72.5859 237.125 72.6201 237.306 72.6494 237.477C72.6836 237.237 72.7251 236.986 72.7739 236.722C72.8228 236.458 72.8789 236.183 72.9424 235.895C73.0107 235.606 73.084 235.309 73.1621 235.001L74.8833 228.292H76.187ZM80.6987 230.841C81.6558 230.841 82.3662 231.056 82.8301 231.485C83.2939 231.915 83.5259 232.601 83.5259 233.543V239H82.6396L82.4053 237.813H82.3467C82.1221 238.106 81.8877 238.353 81.6436 238.553C81.3994 238.749 81.1162 238.897 80.7939 239C80.4766 239.098 80.0859 239.146 79.6221 239.146C79.1338 239.146 78.6992 239.061 78.3184 238.89C77.9424 238.719 77.6445 238.46 77.4248 238.114C77.21 237.767 77.1025 237.328 77.1025 236.795C77.1025 235.995 77.4199 235.379 78.0547 234.95C78.6895 234.52 79.6562 234.286 80.9551 234.247L82.3394 234.188V233.697C82.3394 233.004 82.1904 232.518 81.8926 232.24C81.5947 231.961 81.1748 231.822 80.6328 231.822C80.2129 231.822 79.8125 231.883 79.4316 232.005C79.0508 232.127 78.6895 232.271 78.3477 232.438L77.9741 231.515C78.3354 231.329 78.7505 231.17 79.2192 231.039C79.688 230.907 80.1812 230.841 80.6987 230.841ZM82.3247 235.045L81.1016 235.096C80.1006 235.135 79.395 235.299 78.9849 235.587C78.5747 235.875 78.3696 236.283 78.3696 236.81C78.3696 237.269 78.5088 237.608 78.7871 237.828C79.0654 238.048 79.4341 238.158 79.8931 238.158C80.606 238.158 81.1895 237.96 81.6436 237.564C82.0977 237.169 82.3247 236.576 82.3247 235.785V235.045ZM87.2539 239H86.0308V227.604H87.2539V239ZM91.0479 239H89.8247V227.604H91.0479V239Z" fill="#707070"/>
<path d="M222.054 229.237C221.463 229.237 220.931 229.339 220.457 229.544C219.988 229.745 219.588 230.038 219.256 230.423C218.929 230.804 218.677 231.266 218.501 231.808C218.326 232.35 218.238 232.96 218.238 233.639C218.238 234.537 218.377 235.318 218.655 235.982C218.938 236.642 219.358 237.152 219.915 237.513C220.477 237.875 221.177 238.055 222.017 238.055C222.496 238.055 222.945 238.016 223.365 237.938C223.79 237.855 224.202 237.752 224.603 237.63V238.714C224.212 238.861 223.802 238.968 223.372 239.037C222.942 239.11 222.432 239.146 221.841 239.146C220.752 239.146 219.842 238.922 219.109 238.473C218.382 238.019 217.835 237.379 217.469 236.554C217.107 235.729 216.927 234.754 216.927 233.631C216.927 232.821 217.039 232.081 217.264 231.412C217.493 230.738 217.825 230.157 218.26 229.669C218.699 229.181 219.236 228.805 219.871 228.541C220.511 228.272 221.243 228.138 222.068 228.138C222.61 228.138 223.133 228.192 223.636 228.299C224.139 228.407 224.593 228.561 224.998 228.761L224.5 229.815C224.158 229.659 223.782 229.525 223.372 229.413C222.967 229.295 222.527 229.237 222.054 229.237ZM229.832 230.826C230.516 230.826 231.102 230.978 231.59 231.28C232.078 231.583 232.452 232.008 232.71 232.555C232.969 233.097 233.099 233.731 233.099 234.459V235.213H227.554C227.569 236.156 227.803 236.874 228.257 237.367C228.711 237.86 229.351 238.106 230.176 238.106C230.684 238.106 231.133 238.06 231.524 237.967C231.915 237.875 232.32 237.738 232.74 237.557V238.626C232.334 238.807 231.932 238.939 231.531 239.022C231.136 239.105 230.667 239.146 230.125 239.146C229.354 239.146 228.68 238.99 228.104 238.678C227.532 238.36 227.088 237.896 226.771 237.286C226.453 236.676 226.294 235.929 226.294 235.045C226.294 234.181 226.438 233.434 226.727 232.804C227.02 232.169 227.43 231.681 227.957 231.339C228.489 230.997 229.114 230.826 229.832 230.826ZM229.817 231.822C229.168 231.822 228.65 232.035 228.265 232.459C227.879 232.884 227.649 233.478 227.576 234.239H231.824C231.819 233.761 231.744 233.341 231.597 232.979C231.456 232.613 231.238 232.33 230.945 232.13C230.652 231.925 230.276 231.822 229.817 231.822ZM238.965 230.826C239.917 230.826 240.638 231.061 241.126 231.529C241.614 231.993 241.858 232.74 241.858 233.771V239H240.657V233.851C240.657 233.182 240.503 232.682 240.196 232.35C239.893 232.018 239.427 231.852 238.797 231.852C237.908 231.852 237.283 232.103 236.922 232.606C236.561 233.109 236.38 233.839 236.38 234.796V239H235.164V230.973H236.146L236.329 232.13H236.395C236.565 231.847 236.783 231.61 237.046 231.419C237.31 231.224 237.605 231.078 237.933 230.98C238.26 230.877 238.604 230.826 238.965 230.826ZM246.956 238.15C247.156 238.15 247.361 238.133 247.571 238.099C247.781 238.065 247.952 238.023 248.084 237.975V238.919C247.942 238.983 247.745 239.037 247.491 239.081C247.242 239.125 246.998 239.146 246.758 239.146C246.333 239.146 245.948 239.073 245.601 238.927C245.254 238.775 244.976 238.521 244.766 238.165C244.561 237.809 244.458 237.315 244.458 236.686V231.925H243.316V231.332L244.466 230.855L244.949 229.112H245.682V230.973H248.033V231.925H245.682V236.649C245.682 237.152 245.796 237.528 246.026 237.777C246.26 238.026 246.57 238.15 246.956 238.15ZM252.801 230.826C253.484 230.826 254.07 230.978 254.559 231.28C255.047 231.583 255.42 232.008 255.679 232.555C255.938 233.097 256.067 233.731 256.067 234.459V235.213H250.523C250.538 236.156 250.772 236.874 251.226 237.367C251.68 237.86 252.32 238.106 253.145 238.106C253.653 238.106 254.102 238.06 254.493 237.967C254.883 237.875 255.289 237.738 255.708 237.557V238.626C255.303 238.807 254.9 238.939 254.5 239.022C254.104 239.105 253.636 239.146 253.094 239.146C252.322 239.146 251.648 238.99 251.072 238.678C250.501 238.36 250.057 237.896 249.739 237.286C249.422 236.676 249.263 235.929 249.263 235.045C249.263 234.181 249.407 233.434 249.695 232.804C249.988 232.169 250.398 231.681 250.926 231.339C251.458 230.997 252.083 230.826 252.801 230.826ZM252.786 231.822C252.137 231.822 251.619 232.035 251.233 232.459C250.848 232.884 250.618 233.478 250.545 234.239H254.793C254.788 233.761 254.712 233.341 254.566 232.979C254.424 232.613 254.207 232.33 253.914 232.13C253.621 231.925 253.245 231.822 252.786 231.822ZM261.78 230.826C261.941 230.826 262.11 230.836 262.286 230.855C262.461 230.87 262.618 230.892 262.754 230.921L262.601 232.049C262.469 232.015 262.322 231.988 262.161 231.969C262 231.949 261.849 231.939 261.707 231.939C261.385 231.939 261.08 232.005 260.792 232.137C260.508 232.264 260.259 232.45 260.044 232.694C259.83 232.933 259.661 233.224 259.539 233.565C259.417 233.902 259.356 234.278 259.356 234.693V239H258.133V230.973H259.144L259.275 232.452H259.327C259.493 232.154 259.693 231.883 259.927 231.639C260.162 231.39 260.433 231.192 260.74 231.046C261.053 230.899 261.399 230.826 261.78 230.826Z" fill="#31344E"/>
<path d="M382.939 228.292C383.818 228.292 384.543 228.402 385.114 228.622C385.69 228.836 386.12 229.166 386.403 229.61C386.687 230.055 386.828 230.621 386.828 231.31C386.828 231.876 386.726 232.35 386.521 232.73C386.315 233.106 386.047 233.412 385.715 233.646C385.383 233.88 385.029 234.061 384.653 234.188L387.59 239H386.14L383.518 234.532H381.291V239H380.046V228.292H382.939ZM382.866 229.369H381.291V233.478H382.99C383.864 233.478 384.506 233.299 384.917 232.943C385.332 232.586 385.539 232.062 385.539 231.368C385.539 230.641 385.319 230.125 384.88 229.823C384.445 229.52 383.774 229.369 382.866 229.369ZM390.336 230.973V239H389.121V230.973H390.336ZM389.743 227.97C389.943 227.97 390.114 228.036 390.256 228.167C390.402 228.294 390.476 228.495 390.476 228.768C390.476 229.037 390.402 229.237 390.256 229.369C390.114 229.5 389.943 229.566 389.743 229.566C389.533 229.566 389.357 229.5 389.216 229.369C389.079 229.237 389.011 229.037 389.011 228.768C389.011 228.495 389.079 228.294 389.216 228.167C389.357 228.036 389.533 227.97 389.743 227.97ZM395.156 242.604C394.101 242.604 393.288 242.406 392.717 242.01C392.146 241.62 391.86 241.07 391.86 240.362C391.86 239.859 392.019 239.43 392.336 239.073C392.658 238.717 393.103 238.48 393.669 238.363C393.459 238.265 393.278 238.119 393.127 237.923C392.98 237.728 392.907 237.503 392.907 237.25C392.907 236.957 392.988 236.7 393.149 236.48C393.315 236.256 393.566 236.041 393.903 235.836C393.483 235.665 393.142 235.377 392.878 234.972C392.619 234.562 392.49 234.085 392.49 233.543C392.49 232.967 392.609 232.477 392.849 232.071C393.088 231.661 393.435 231.349 393.889 231.134C394.343 230.919 394.892 230.812 395.537 230.812C395.678 230.812 395.82 230.819 395.961 230.833C396.108 230.843 396.247 230.86 396.379 230.885C396.511 230.904 396.625 230.929 396.723 230.958H399.477V231.742L397.998 231.925C398.144 232.115 398.266 232.345 398.364 232.613C398.461 232.882 398.51 233.18 398.51 233.507C398.51 234.308 398.239 234.945 397.697 235.418C397.155 235.887 396.411 236.122 395.463 236.122C395.239 236.122 395.009 236.102 394.775 236.063C394.536 236.195 394.353 236.341 394.226 236.502C394.104 236.664 394.042 236.849 394.042 237.059C394.042 237.215 394.089 237.34 394.182 237.433C394.279 237.525 394.418 237.594 394.599 237.638C394.78 237.677 394.997 237.696 395.251 237.696H396.665C397.539 237.696 398.208 237.879 398.671 238.246C399.14 238.612 399.375 239.146 399.375 239.85C399.375 240.738 399.013 241.419 398.291 241.893C397.568 242.367 396.523 242.604 395.156 242.604ZM395.192 241.651C395.856 241.651 396.406 241.583 396.84 241.446C397.28 241.314 397.607 241.122 397.822 240.868C398.042 240.619 398.151 240.321 398.151 239.974C398.151 239.652 398.078 239.408 397.932 239.242C397.785 239.081 397.57 238.973 397.287 238.919C397.004 238.861 396.657 238.832 396.247 238.832H394.855C394.494 238.832 394.179 238.888 393.911 239C393.642 239.112 393.435 239.278 393.288 239.498C393.146 239.718 393.076 239.991 393.076 240.318C393.076 240.753 393.259 241.083 393.625 241.307C393.991 241.537 394.514 241.651 395.192 241.651ZM395.507 235.235C396.088 235.235 396.525 235.089 396.818 234.796C397.111 234.503 397.258 234.076 397.258 233.514C397.258 232.914 397.109 232.464 396.811 232.167C396.513 231.864 396.074 231.712 395.493 231.712C394.936 231.712 394.506 231.869 394.204 232.181C393.906 232.489 393.757 232.94 393.757 233.536C393.757 234.083 393.908 234.503 394.211 234.796C394.514 235.089 394.946 235.235 395.507 235.235ZM402.275 227.604V231.009C402.275 231.205 402.27 231.402 402.26 231.603C402.25 231.798 402.233 231.979 402.209 232.145H402.29C402.456 231.861 402.666 231.625 402.919 231.434C403.178 231.239 403.471 231.092 403.798 230.995C404.125 230.892 404.472 230.841 404.838 230.841C405.483 230.841 406.02 230.943 406.45 231.148C406.884 231.354 407.209 231.671 407.424 232.101C407.644 232.53 407.753 233.087 407.753 233.771V239H406.552V233.851C406.552 233.182 406.398 232.682 406.091 232.35C405.788 232.018 405.322 231.852 404.692 231.852C404.096 231.852 403.62 231.966 403.264 232.196C402.912 232.42 402.658 232.752 402.502 233.192C402.351 233.631 402.275 234.168 402.275 234.803V239H401.059V227.604H402.275ZM412.851 238.15C413.051 238.15 413.256 238.133 413.466 238.099C413.676 238.065 413.847 238.023 413.979 237.975V238.919C413.837 238.983 413.64 239.037 413.386 239.081C413.137 239.125 412.893 239.146 412.653 239.146C412.229 239.146 411.843 239.073 411.496 238.927C411.149 238.775 410.871 238.521 410.661 238.165C410.456 237.809 410.354 237.315 410.354 236.686V231.925H409.211V231.332L410.361 230.855L410.844 229.112H411.577V230.973H413.928V231.925H411.577V236.649C411.577 237.152 411.691 237.528 411.921 237.777C412.155 238.026 412.465 238.15 412.851 238.15ZM431.85 228.292L428.986 239H427.734L425.61 231.793C425.546 231.588 425.485 231.383 425.427 231.178C425.373 230.968 425.322 230.77 425.273 230.584C425.224 230.394 425.183 230.228 425.148 230.086C425.119 229.94 425.097 229.83 425.083 229.757C425.073 229.83 425.053 229.938 425.024 230.079C425 230.221 424.965 230.384 424.921 230.57C424.882 230.755 424.833 230.953 424.775 231.163C424.721 231.373 424.663 231.585 424.599 231.8L422.534 239H421.281L418.439 228.292H419.736L421.457 235.008C421.516 235.233 421.569 235.455 421.618 235.675C421.672 235.89 421.718 236.1 421.757 236.305C421.801 236.51 421.84 236.71 421.875 236.905C421.909 237.101 421.94 237.291 421.97 237.477C421.994 237.286 422.026 237.088 422.065 236.883C422.104 236.673 422.146 236.461 422.189 236.246C422.238 236.031 422.29 235.814 422.343 235.594C422.402 235.375 422.463 235.155 422.526 234.935L424.453 228.292H425.734L427.741 234.986C427.81 235.216 427.873 235.443 427.932 235.667C427.99 235.892 428.042 236.112 428.085 236.327C428.134 236.537 428.176 236.739 428.21 236.935C428.249 237.125 428.283 237.306 428.312 237.477C428.347 237.237 428.388 236.986 428.437 236.722C428.486 236.458 428.542 236.183 428.605 235.895C428.674 235.606 428.747 235.309 428.825 235.001L430.546 228.292H431.85ZM436.362 230.841C437.319 230.841 438.029 231.056 438.493 231.485C438.957 231.915 439.189 232.601 439.189 233.543V239H438.303L438.068 237.813H438.01C437.785 238.106 437.551 238.353 437.307 238.553C437.062 238.749 436.779 238.897 436.457 239C436.14 239.098 435.749 239.146 435.285 239.146C434.797 239.146 434.362 239.061 433.981 238.89C433.605 238.719 433.308 238.46 433.088 238.114C432.873 237.767 432.766 237.328 432.766 236.795C432.766 235.995 433.083 235.379 433.718 234.95C434.353 234.52 435.319 234.286 436.618 234.247L438.002 234.188V233.697C438.002 233.004 437.854 232.518 437.556 232.24C437.258 231.961 436.838 231.822 436.296 231.822C435.876 231.822 435.476 231.883 435.095 232.005C434.714 232.127 434.353 232.271 434.011 232.438L433.637 231.515C433.999 231.329 434.414 231.17 434.882 231.039C435.351 230.907 435.844 230.841 436.362 230.841ZM437.988 235.045L436.765 235.096C435.764 235.135 435.058 235.299 434.648 235.587C434.238 235.875 434.033 236.283 434.033 236.81C434.033 237.269 434.172 237.608 434.45 237.828C434.729 238.048 435.097 238.158 435.556 238.158C436.269 238.158 436.853 237.96 437.307 237.564C437.761 237.169 437.988 236.576 437.988 235.785V235.045ZM442.917 239H441.694V227.604H442.917V239ZM446.711 239H445.488V227.604H446.711V239Z" fill="#707070"/>
<path d="M231.26 173.963C231.26 174.536 230.795 175 230.223 175C229.65 175 229.186 174.536 229.186 173.963V171.89H231.26V173.963ZM250.963 173.963C250.963 174.536 250.498 175 249.926 175C249.353 175 248.889 174.536 248.889 173.963V171.89H250.963V173.963ZM253.036 171.009C253.036 171.495 252.641 171.889 252.155 171.889H227.991C227.505 171.888 227.111 171.495 227.111 171.009V169.815H253.036V171.009ZM251.434 158.407C252.891 158.407 254.073 159.59 254.073 161.048V168.777H226.075V161.048C226.075 159.59 227.257 158.407 228.715 158.407H251.434ZM250.083 147C250.569 147 250.963 147.394 250.963 147.88V157.37H246.297V154.257C246.297 153.112 245.368 152.184 244.223 152.184H235.928C234.782 152.184 233.854 153.112 233.854 154.257V157.37H229.187V147.88C229.187 147.394 229.58 147 230.066 147H250.083ZM244.223 153.738C244.509 153.738 244.741 153.971 244.741 154.257V157.37H235.409V154.257C235.409 153.971 235.642 153.738 235.928 153.738H244.223Z" fill="#31344E"/>
<path fill-rule="evenodd" clip-rule="evenodd" d="M221.708 147.2C222.652 147.2 223.417 147.965 223.417 148.908L223.417 149.506C223.417 150.45 222.652 151.214 221.708 151.214C220.765 151.214 220 150.45 220 149.506L220 148.908C220 147.965 220.765 147.2 221.708 147.2ZM221.708 152.581C222.652 152.581 223.417 153.346 223.417 154.289L223.417 155.485C223.417 156.428 222.652 157.193 221.708 157.193C220.765 157.193 220 156.428 220 155.485L220 154.289C220 153.346 220.765 152.581 221.708 152.581ZM221.708 158.56C222.652 158.56 223.417 159.324 223.417 160.268L223.417 161.464C223.417 162.407 222.652 163.172 221.708 163.172C220.765 163.172 220 162.407 220 161.464L220 160.268C220 159.324 220.765 158.56 221.708 158.56ZM221.708 164.538C222.652 164.538 223.417 165.303 223.417 166.247L223.417 167.442C223.417 168.386 222.652 169.151 221.708 169.151C220.765 169.151 220 168.386 220 167.442L220 166.247C220 165.303 220.765 164.538 221.708 164.538ZM221.708 170.517C222.652 170.517 223.417 171.282 223.417 172.225L223.417 172.823C223.417 173.767 222.652 174.531 221.708 174.531C220.765 174.531 220 173.767 220 172.823L220 172.225C220 171.282 220.765 170.517 221.708 170.517Z" fill="#31344E"/>
<path fill-rule="evenodd" clip-rule="evenodd" d="M258.606 147.2C259.55 147.2 260.314 147.965 260.314 148.908L260.314 149.506C260.314 150.45 259.55 151.214 258.606 151.214C257.663 151.214 256.898 150.45 256.898 149.506L256.898 148.908C256.898 147.965 257.663 147.2 258.606 147.2ZM258.606 152.581C259.55 152.581 260.314 153.346 260.314 154.289L260.314 155.485C260.314 156.428 259.55 157.193 258.606 157.193C257.663 157.193 256.898 156.428 256.898 155.485L256.898 154.289C256.898 153.346 257.663 152.581 258.606 152.581ZM258.606 158.56C259.55 158.56 260.314 159.324 260.314 160.268L260.314 161.464C260.314 162.407 259.55 163.172 258.606 163.172C257.663 163.172 256.898 162.407 256.898 161.464L256.898 160.268C256.898 159.324 257.663 158.56 258.606 158.56ZM258.606 164.538C259.55 164.538 260.314 165.303 260.314 166.247L260.314 167.442C260.314 168.386 259.55 169.151 258.606 169.151C257.663 169.151 256.898 168.386 256.898 167.442L256.898 166.247C256.898 165.303 257.663 164.538 258.606 164.538ZM258.606 170.517C259.55 170.517 260.314 171.282 260.314 172.225L260.314 172.823C260.314 173.767 259.55 174.531 258.606 174.531C257.663 174.531 256.898 173.767 256.898 172.823L256.898 172.225C256.898 171.282 257.663 170.517 258.606 170.517Z" fill="#31344E"/>
<path d="M65.7935 167.009C65.7933 167.495 65.3995 167.889 64.9136 167.889H63.7202V169.963C63.7202 170.536 63.2558 171 62.6831 171C62.1105 171 61.646 170.535 61.646 169.963V167.889H44.0161V169.963C44.0161 170.536 43.5517 171 42.979 171C42.4064 171 41.9419 170.536 41.9419 169.963V167.889H40.7495C40.2636 167.889 39.8688 167.495 39.8687 167.009V165.814H65.7935V167.009ZM64.1909 154.407C65.6488 154.407 66.8315 155.59 66.8315 157.048V164.777H38.8325V157.048C38.8325 155.59 40.0143 154.407 41.4722 154.407H64.1909ZM62.8384 143C63.3243 143 63.7182 143.394 63.7183 143.88V153.37H59.0513V150.258C59.051 149.113 58.1223 148.185 56.9771 148.185H48.6812C47.5363 148.185 46.6081 149.113 46.6079 150.258V153.37H41.9419V143.88C41.9419 143.394 42.336 143 42.8218 143H62.8384ZM56.9771 149.739C57.2633 149.739 57.4954 149.972 57.4956 150.258V153.37H48.1636V150.258C48.1638 149.972 48.3953 149.74 48.6812 149.739H56.9771Z" fill="#707070"/>
<rect x="32" y="143" width="4.09979" height="27.3319" rx="1.07373" fill="#707070"/>
<path d="M439.961 171.009C439.961 171.495 439.567 171.889 439.081 171.889H437.888V173.963C437.888 174.536 437.423 175 436.851 175C436.278 175 435.813 174.536 435.813 173.963V171.889H418.184V173.963C418.184 174.536 417.719 175 417.146 175C416.574 175 416.109 174.535 416.109 173.963V171.889H414.917C414.431 171.889 414.036 171.495 414.036 171.009V169.814H439.961V171.009ZM438.358 158.407C439.816 158.407 440.999 159.589 440.999 161.047V168.777H413V161.047C413 159.589 414.182 158.407 415.64 158.407H438.358ZM437.007 147C437.493 147 437.887 147.394 437.887 147.88V157.37H433.22V154.258C433.22 153.113 432.292 152.185 431.146 152.185H422.851C421.705 152.185 420.777 153.113 420.776 154.258V157.37H416.11V147.88C416.11 147.394 416.504 147 416.99 147H437.007ZM431.146 153.739C431.432 153.74 431.665 153.972 431.665 154.258V157.37H422.332V154.258C422.332 153.972 422.564 153.739 422.851 153.739H431.146Z" fill="#707070"/>
<rect x="443.731" y="147" width="4.09978" height="27.3319" rx="1.07373" fill="#707070"/>
<path d="M42.7666 264.534C42.3519 264.534 42.0078 264.409 41.7344 264.158C41.4609 263.903 41.3242 263.491 41.3242 262.921C41.3242 262.529 41.388 262.21 41.5156 261.964C41.6432 261.718 41.8187 261.538 42.042 261.424C42.2653 261.305 42.5182 261.246 42.8008 261.246C43.0742 261.246 43.3203 261.301 43.5391 261.41C43.7578 261.515 43.931 261.686 44.0586 261.923C44.1862 262.16 44.25 262.472 44.25 262.859C44.25 263.242 44.1839 263.559 44.0518 263.81C43.9242 264.056 43.7487 264.238 43.5254 264.356C43.3021 264.475 43.0492 264.534 42.7666 264.534ZM53.5742 268L55.6865 258.006H56.9033L60.0684 266.373H60.1025C60.1344 266.145 60.1755 265.881 60.2256 265.58C60.2757 265.275 60.3327 264.958 60.3965 264.63C60.4603 264.297 60.5241 263.98 60.5879 263.68L61.8047 258.006H62.8984L60.7861 268H59.5693L56.3838 259.612H56.3496C56.3268 259.767 56.2972 259.952 56.2607 260.166C56.2288 260.38 56.1901 260.613 56.1445 260.863C56.1035 261.114 56.0579 261.371 56.0078 261.636C55.9577 261.896 55.9053 262.148 55.8506 262.395L54.668 268H53.5742ZM66.3096 268.109C65.7354 268.109 65.2409 267.993 64.8262 267.761C64.4115 267.524 64.0924 267.191 63.8691 266.763C63.6504 266.33 63.541 265.819 63.541 265.231C63.541 264.757 63.5934 264.29 63.6982 263.83C63.8031 263.365 63.958 262.928 64.1631 262.518C64.3682 262.103 64.6211 261.738 64.9219 261.424C65.2272 261.105 65.5781 260.856 65.9746 260.679C66.3711 260.496 66.8132 260.405 67.3008 260.405C67.8841 260.405 68.3809 260.524 68.791 260.761C69.2057 260.993 69.5225 261.326 69.7412 261.759C69.9645 262.192 70.0762 262.704 70.0762 263.297C70.0762 263.762 70.0238 264.224 69.9189 264.685C69.8187 265.145 69.666 265.582 69.4609 265.997C69.2604 266.407 69.0075 266.772 68.7021 267.091C68.4014 267.405 68.0505 267.654 67.6494 267.836C67.2529 268.018 66.8063 268.109 66.3096 268.109ZM66.3779 267.166C66.6605 267.166 66.9294 267.107 67.1846 266.988C67.4398 266.87 67.6722 266.699 67.8818 266.476C68.0915 266.248 68.2715 265.972 68.4219 265.648C68.5768 265.32 68.6953 264.949 68.7773 264.534C68.8639 264.119 68.9072 263.664 68.9072 263.167C68.9072 262.871 68.8548 262.584 68.75 262.306C68.6452 262.028 68.4766 261.8 68.2441 261.622C68.0117 261.44 67.7018 261.349 67.3145 261.349C66.9954 261.349 66.6992 261.415 66.4258 261.547C66.1569 261.679 65.9154 261.866 65.7012 262.107C65.487 262.349 65.3047 262.634 65.1543 262.962C65.0085 263.29 64.8945 263.65 64.8125 264.042C64.735 264.434 64.6963 264.846 64.6963 265.279C64.6963 265.876 64.8421 266.341 65.1338 266.674C65.4255 267.002 65.8402 267.166 66.3779 267.166ZM75.5039 268L75.1758 260.508H76.29L76.4199 264.644C76.4336 265.14 76.4336 265.587 76.4199 265.983C76.4108 266.38 76.3971 266.71 76.3789 266.975H76.4268C76.4997 266.783 76.5863 266.562 76.6865 266.312C76.7913 266.056 76.8984 265.801 77.0078 265.546C77.1217 265.291 77.2266 265.061 77.3223 264.855L79.3799 260.508H80.5967L80.8701 264.657C80.8792 264.999 80.8883 265.386 80.8975 265.819C80.9066 266.248 80.9066 266.633 80.8975 266.975H80.9453C81.0228 266.747 81.1139 266.494 81.2188 266.216C81.3236 265.933 81.4398 265.635 81.5674 265.32C81.6995 265.006 81.8363 264.685 81.9775 264.356L83.7139 260.508H84.917L81.4375 268H80.084L79.8311 263.789C79.8174 263.552 79.8083 263.322 79.8037 263.099C79.8037 262.875 79.8037 262.645 79.8037 262.408C79.8083 262.171 79.8105 261.914 79.8105 261.636H79.7559C79.6738 261.859 79.5918 262.069 79.5098 262.265C79.4323 262.461 79.3434 262.668 79.2432 262.887C79.1475 263.105 79.029 263.365 78.8877 263.666L76.8369 268H75.5039ZM87.1113 268.137C86.7057 268.137 86.3503 268.039 86.0449 267.843C85.7396 267.647 85.5026 267.357 85.334 266.975C85.1654 266.592 85.0811 266.125 85.0811 265.573C85.0811 265.022 85.138 264.491 85.252 263.98C85.3704 263.47 85.5368 262.996 85.751 262.559C85.9652 262.121 86.2227 261.738 86.5234 261.41C86.8288 261.082 87.1706 260.827 87.5488 260.645C87.9271 260.462 88.335 260.371 88.7725 260.371C89.1097 260.371 89.4014 260.435 89.6475 260.562C89.8981 260.69 90.1055 260.859 90.2695 261.068C90.4382 261.273 90.5703 261.492 90.666 261.725H90.7344L91.1719 260.508H92.04L90.4541 268H89.5449L89.75 266.551H89.6953C89.4902 266.824 89.2555 267.082 88.9912 267.323C88.7269 267.565 88.4375 267.761 88.123 267.911C87.8086 268.062 87.4714 268.137 87.1113 268.137ZM87.4805 267.193C87.8314 267.193 88.1777 267.066 88.5195 266.811C88.8659 266.551 89.1758 266.202 89.4492 265.765C89.7272 265.323 89.9391 264.826 90.085 264.274C90.1579 264.006 90.2057 263.759 90.2285 263.536C90.2559 263.308 90.2695 263.096 90.2695 262.9C90.2695 262.431 90.1442 262.053 89.8936 261.766C89.6475 261.474 89.3102 261.328 88.8818 261.328C88.5765 261.328 88.2894 261.406 88.0205 261.561C87.7516 261.711 87.5078 261.923 87.2891 262.196C87.0749 262.465 86.8903 262.78 86.7354 263.14C86.5804 263.495 86.4596 263.882 86.373 264.302C86.291 264.721 86.25 265.152 86.25 265.594C86.25 266.118 86.3571 266.517 86.5713 266.79C86.7855 267.059 87.0885 267.193 87.4805 267.193ZM92.7031 268L94.9727 257.363H96.1074L93.8447 268H92.7031ZM96.2441 268L98.5137 257.363H99.6484L97.3857 268H96.2441ZM105.753 268.137C105.343 268.137 104.985 268.041 104.68 267.85C104.374 267.658 104.137 267.373 103.969 266.995C103.8 266.612 103.716 266.138 103.716 265.573C103.716 265.035 103.771 264.514 103.88 264.008C103.989 263.497 104.146 263.023 104.352 262.586C104.561 262.148 104.816 261.766 105.117 261.438C105.418 261.105 105.76 260.847 106.143 260.665C106.53 260.478 106.954 260.385 107.414 260.385C107.765 260.385 108.066 260.449 108.316 260.576C108.567 260.704 108.774 260.87 108.938 261.075C109.107 261.276 109.239 261.492 109.335 261.725H109.403C109.431 261.515 109.458 261.312 109.485 261.116C109.513 260.916 109.545 260.713 109.581 260.508C109.622 260.303 109.668 260.091 109.718 259.872L110.244 257.363H111.372L109.116 268H108.18L108.364 266.551H108.316C108.098 266.833 107.858 267.095 107.599 267.337C107.343 267.578 107.063 267.772 106.758 267.918C106.452 268.064 106.118 268.137 105.753 268.137ZM106.136 267.193C106.35 267.193 106.566 267.141 106.785 267.036C107.008 266.931 107.225 266.783 107.435 266.592C107.644 266.396 107.84 266.166 108.022 265.901C108.205 265.637 108.364 265.345 108.501 265.026C108.642 264.707 108.752 264.37 108.829 264.015C108.907 263.659 108.945 263.292 108.945 262.914C108.945 262.431 108.829 262.046 108.597 261.759C108.364 261.472 107.993 261.328 107.482 261.328C107.168 261.328 106.876 261.408 106.607 261.567C106.343 261.727 106.104 261.946 105.89 262.224C105.675 262.502 105.493 262.823 105.343 263.188C105.197 263.548 105.083 263.935 105.001 264.35C104.924 264.76 104.885 265.174 104.885 265.594C104.885 266.118 104.99 266.517 105.199 266.79C105.409 267.059 105.721 267.193 106.136 267.193ZM111.529 268L113.122 260.508H114.264L112.671 268H111.529ZM114.079 259.195C113.897 259.195 113.744 259.143 113.621 259.038C113.503 258.929 113.443 258.776 113.443 258.58C113.443 258.43 113.473 258.288 113.532 258.156C113.596 258.024 113.685 257.919 113.799 257.842C113.917 257.76 114.061 257.719 114.229 257.719C114.43 257.719 114.58 257.771 114.681 257.876C114.781 257.981 114.831 258.127 114.831 258.313C114.831 258.582 114.754 258.797 114.599 258.956C114.444 259.116 114.271 259.195 114.079 259.195ZM115.07 268L116.663 260.508H117.593L117.415 261.957H117.483C117.675 261.697 117.88 261.447 118.099 261.205C118.317 260.959 118.566 260.758 118.844 260.604C119.126 260.449 119.45 260.371 119.814 260.371C119.951 260.371 120.09 260.38 120.231 260.398C120.373 260.412 120.505 260.437 120.628 260.474L120.382 261.492C120.259 261.465 120.138 261.444 120.02 261.431C119.906 261.417 119.787 261.41 119.664 261.41C119.318 261.41 118.996 261.501 118.7 261.684C118.404 261.861 118.137 262.101 117.9 262.401C117.668 262.702 117.47 263.037 117.306 263.406C117.146 263.775 117.025 264.151 116.943 264.534L116.212 268H115.07ZM123.608 268.137C123.048 268.137 122.565 268.025 122.159 267.802C121.754 267.574 121.441 267.25 121.223 266.831C121.008 266.407 120.901 265.901 120.901 265.313C120.901 264.707 120.988 264.113 121.161 263.529C121.339 262.941 121.592 262.41 121.92 261.937C122.248 261.458 122.642 261.077 123.103 260.795C123.567 260.512 124.087 260.371 124.661 260.371C125.349 260.371 125.871 260.526 126.227 260.836C126.582 261.141 126.76 261.563 126.76 262.101C126.76 262.479 126.671 262.827 126.493 263.146C126.32 263.465 126.051 263.743 125.687 263.98C125.326 264.213 124.868 264.395 124.312 264.527C123.761 264.655 123.107 264.719 122.351 264.719H122.091C122.082 264.801 122.073 264.892 122.063 264.992C122.059 265.092 122.057 265.186 122.057 265.272C122.057 265.874 122.202 266.346 122.494 266.688C122.786 267.025 123.223 267.193 123.807 267.193C124.167 267.193 124.506 267.143 124.825 267.043C125.149 266.938 125.486 266.801 125.837 266.633V267.61C125.5 267.765 125.16 267.893 124.818 267.993C124.477 268.089 124.073 268.137 123.608 268.137ZM122.255 263.789H122.419C123.002 263.789 123.538 263.739 124.025 263.639C124.513 263.534 124.905 263.365 125.201 263.133C125.497 262.896 125.646 262.581 125.646 262.189C125.646 261.934 125.559 261.725 125.386 261.561C125.213 261.396 124.948 261.314 124.593 261.314C124.278 261.314 123.968 261.412 123.663 261.608C123.358 261.8 123.08 262.08 122.829 262.449C122.583 262.818 122.392 263.265 122.255 263.789ZM130.643 268.137C130.087 268.137 129.599 268.032 129.18 267.822C128.765 267.608 128.441 267.294 128.209 266.879C127.981 266.464 127.867 265.949 127.867 265.334C127.867 264.801 127.924 264.288 128.038 263.796C128.157 263.304 128.327 262.85 128.551 262.436C128.774 262.021 129.045 261.659 129.364 261.349C129.683 261.039 130.046 260.799 130.451 260.631C130.861 260.458 131.308 260.371 131.791 260.371C132.115 260.371 132.436 260.403 132.755 260.467C133.078 260.526 133.37 260.613 133.63 260.727L133.309 261.684C133.117 261.592 132.892 261.51 132.632 261.438C132.372 261.365 132.094 261.328 131.798 261.328C131.383 261.328 131.005 261.433 130.663 261.643C130.326 261.852 130.034 262.144 129.788 262.518C129.547 262.887 129.36 263.311 129.228 263.789C129.095 264.268 129.029 264.778 129.029 265.32C129.029 265.708 129.098 266.043 129.234 266.325C129.371 266.603 129.567 266.817 129.822 266.968C130.082 267.118 130.392 267.193 130.752 267.193C131.085 267.193 131.397 267.148 131.688 267.057C131.985 266.965 132.274 266.856 132.557 266.729V267.699C132.306 267.827 132.019 267.932 131.695 268.014C131.376 268.096 131.025 268.137 130.643 268.137ZM136.057 268.137C135.56 268.137 135.145 268.018 134.812 267.781C134.484 267.54 134.32 267.127 134.32 266.544C134.32 266.403 134.329 266.25 134.348 266.086C134.366 265.917 134.396 265.744 134.437 265.566L135.318 261.376H134.163L134.272 260.85L135.517 260.371L136.337 258.785H137.014L136.638 260.508H138.565L138.388 261.376H136.467L135.578 265.58C135.546 265.708 135.517 265.844 135.489 265.99C135.466 266.136 135.455 266.275 135.455 266.407C135.455 266.635 135.514 266.826 135.633 266.981C135.751 267.132 135.95 267.207 136.228 267.207C136.401 267.207 136.565 267.191 136.72 267.159C136.879 267.127 137.048 267.082 137.226 267.022V267.897C137.112 267.952 136.938 268.005 136.706 268.055C136.478 268.109 136.262 268.137 136.057 268.137ZM138.531 268L140.801 257.363H141.936L139.673 268H138.531ZM141.293 271.37C141.07 271.37 140.89 271.356 140.753 271.329C140.612 271.302 140.475 271.268 140.343 271.227V270.304C140.466 270.336 140.603 270.363 140.753 270.386C140.903 270.413 141.063 270.427 141.231 270.427C141.605 270.427 141.926 270.308 142.195 270.071C142.464 269.834 142.726 269.486 142.981 269.025L143.508 268.089L142.359 260.508H143.508L144.027 264.356C144.073 264.657 144.109 264.981 144.137 265.327C144.164 265.669 144.185 265.995 144.198 266.305C144.212 266.61 144.219 266.858 144.219 267.05H144.26C144.324 266.899 144.419 266.683 144.547 266.4C144.674 266.113 144.811 265.815 144.957 265.505C145.103 265.195 145.233 264.935 145.347 264.726L147.596 260.508H148.812L144.014 269.299C143.768 269.755 143.515 270.135 143.255 270.44C143 270.75 142.715 270.983 142.4 271.138C142.086 271.293 141.717 271.37 141.293 271.37ZM152.128 268L153.734 260.474H154.739L154.562 261.916H154.575C154.748 261.679 154.956 261.44 155.197 261.198C155.443 260.952 155.728 260.747 156.052 260.583C156.38 260.414 156.751 260.33 157.166 260.33C157.567 260.33 157.911 260.405 158.198 260.556C158.485 260.701 158.706 260.916 158.861 261.198C159.016 261.476 159.094 261.813 159.094 262.21C159.094 262.42 159.078 262.632 159.046 262.846C159.014 263.06 158.98 263.251 158.943 263.42L157.945 268H156.735L157.747 263.27C157.788 263.064 157.82 262.889 157.843 262.743C157.87 262.597 157.884 262.461 157.884 262.333C157.884 262.014 157.797 261.772 157.624 261.608C157.451 261.444 157.196 261.362 156.858 261.362C156.526 261.362 156.175 261.476 155.806 261.704C155.437 261.932 155.095 262.292 154.78 262.784C154.466 263.272 154.222 263.91 154.049 264.698L153.345 268H152.128ZM163.243 268.137C162.683 268.137 162.2 268.025 161.794 267.802C161.388 267.574 161.076 267.25 160.857 266.831C160.643 266.407 160.536 265.901 160.536 265.313C160.536 264.707 160.623 264.113 160.796 263.529C160.974 262.941 161.227 262.41 161.555 261.937C161.883 261.458 162.277 261.077 162.737 260.795C163.202 260.512 163.722 260.371 164.296 260.371C164.984 260.371 165.506 260.526 165.861 260.836C166.217 261.141 166.395 261.563 166.395 262.101C166.395 262.479 166.306 262.827 166.128 263.146C165.955 263.465 165.686 263.743 165.321 263.98C164.961 264.213 164.503 264.395 163.947 264.527C163.396 264.655 162.742 264.719 161.985 264.719H161.726C161.716 264.801 161.707 264.892 161.698 264.992C161.694 265.092 161.691 265.186 161.691 265.272C161.691 265.874 161.837 266.346 162.129 266.688C162.421 267.025 162.858 267.193 163.441 267.193C163.801 267.193 164.141 267.143 164.46 267.043C164.784 266.938 165.121 266.801 165.472 266.633V267.61C165.134 267.765 164.795 267.893 164.453 267.993C164.111 268.089 163.708 268.137 163.243 268.137ZM161.89 263.789H162.054C162.637 263.789 163.173 263.739 163.66 263.639C164.148 263.534 164.54 263.365 164.836 263.133C165.132 262.896 165.28 262.581 165.28 262.189C165.28 261.934 165.194 261.725 165.021 261.561C164.847 261.396 164.583 261.314 164.228 261.314C163.913 261.314 163.603 261.412 163.298 261.608C162.993 261.8 162.715 262.08 162.464 262.449C162.218 262.818 162.026 263.265 161.89 263.789ZM166.306 268L169.566 264.145L167.939 260.508H169.088L170.291 263.338L172.574 260.508H173.894L170.763 264.192L172.499 268H171.337L170.024 265.02L167.625 268H166.306ZM176.074 268.137C175.577 268.137 175.163 268.018 174.83 267.781C174.502 267.54 174.338 267.127 174.338 266.544C174.338 266.403 174.347 266.25 174.365 266.086C174.383 265.917 174.413 265.744 174.454 265.566L175.336 261.376H174.181L174.29 260.85L175.534 260.371L176.354 258.785H177.031L176.655 260.508H178.583L178.405 261.376H176.484L175.596 265.58C175.564 265.708 175.534 265.844 175.507 265.99C175.484 266.136 175.473 266.275 175.473 266.407C175.473 266.635 175.532 266.826 175.65 266.981C175.769 267.132 175.967 267.207 176.245 267.207C176.418 267.207 176.582 267.191 176.737 267.159C176.897 267.127 177.065 267.082 177.243 267.022V267.897C177.129 267.952 176.956 268.005 176.724 268.055C176.496 268.109 176.279 268.137 176.074 268.137ZM184.332 268.137C183.835 268.137 183.421 268.018 183.088 267.781C182.76 267.54 182.596 267.127 182.596 266.544C182.596 266.403 182.605 266.25 182.623 266.086C182.641 265.917 182.671 265.744 182.712 265.566L183.594 261.376H182.438L182.548 260.85L183.792 260.371L184.612 258.785H185.289L184.913 260.508H186.841L186.663 261.376H184.742L183.854 265.58C183.822 265.708 183.792 265.844 183.765 265.99C183.742 266.136 183.73 266.275 183.73 266.407C183.73 266.635 183.79 266.826 183.908 266.981C184.027 267.132 184.225 267.207 184.503 267.207C184.676 267.207 184.84 267.191 184.995 267.159C185.155 267.127 185.323 267.082 185.501 267.022V267.897C185.387 267.952 185.214 268.005 184.981 268.055C184.754 268.109 184.537 268.137 184.332 268.137ZM189.876 268.109C189.302 268.109 188.807 267.993 188.393 267.761C187.978 267.524 187.659 267.191 187.436 266.763C187.217 266.33 187.107 265.819 187.107 265.231C187.107 264.757 187.16 264.29 187.265 263.83C187.369 263.365 187.524 262.928 187.729 262.518C187.935 262.103 188.188 261.738 188.488 261.424C188.794 261.105 189.145 260.856 189.541 260.679C189.938 260.496 190.38 260.405 190.867 260.405C191.451 260.405 191.947 260.524 192.357 260.761C192.772 260.993 193.089 261.326 193.308 261.759C193.531 262.192 193.643 262.704 193.643 263.297C193.643 263.762 193.59 264.224 193.485 264.685C193.385 265.145 193.232 265.582 193.027 265.997C192.827 266.407 192.574 266.772 192.269 267.091C191.968 267.405 191.617 267.654 191.216 267.836C190.819 268.018 190.373 268.109 189.876 268.109ZM189.944 267.166C190.227 267.166 190.496 267.107 190.751 266.988C191.006 266.87 191.239 266.699 191.448 266.476C191.658 266.248 191.838 265.972 191.988 265.648C192.143 265.32 192.262 264.949 192.344 264.534C192.43 264.119 192.474 263.664 192.474 263.167C192.474 262.871 192.421 262.584 192.316 262.306C192.212 262.028 192.043 261.8 191.811 261.622C191.578 261.44 191.268 261.349 190.881 261.349C190.562 261.349 190.266 261.415 189.992 261.547C189.723 261.679 189.482 261.866 189.268 262.107C189.053 262.349 188.871 262.634 188.721 262.962C188.575 263.29 188.461 263.65 188.379 264.042C188.301 264.434 188.263 264.846 188.263 265.279C188.263 265.876 188.409 266.341 188.7 266.674C188.992 267.002 189.407 267.166 189.944 267.166ZM201.347 268.137C200.786 268.137 200.303 268.025 199.897 267.802C199.492 267.574 199.18 267.25 198.961 266.831C198.747 266.407 198.64 265.901 198.64 265.313C198.64 264.707 198.726 264.113 198.899 263.529C199.077 262.941 199.33 262.41 199.658 261.937C199.986 261.458 200.381 261.077 200.841 260.795C201.306 260.512 201.825 260.371 202.399 260.371C203.088 260.371 203.609 260.526 203.965 260.836C204.32 261.141 204.498 261.563 204.498 262.101C204.498 262.479 204.409 262.827 204.231 263.146C204.058 263.465 203.789 263.743 203.425 263.98C203.065 264.213 202.607 264.395 202.051 264.527C201.499 264.655 200.845 264.719 200.089 264.719H199.829C199.82 264.801 199.811 264.892 199.802 264.992C199.797 265.092 199.795 265.186 199.795 265.272C199.795 265.874 199.941 266.346 200.232 266.688C200.524 267.025 200.962 267.193 201.545 267.193C201.905 267.193 202.244 267.143 202.563 267.043C202.887 266.938 203.224 266.801 203.575 266.633V267.61C203.238 267.765 202.898 267.893 202.557 267.993C202.215 268.089 201.812 268.137 201.347 268.137ZM199.993 263.789H200.157C200.741 263.789 201.276 263.739 201.764 263.639C202.251 263.534 202.643 263.365 202.939 263.133C203.236 262.896 203.384 262.581 203.384 262.189C203.384 261.934 203.297 261.725 203.124 261.561C202.951 261.396 202.687 261.314 202.331 261.314C202.017 261.314 201.707 261.412 201.401 261.608C201.096 261.8 200.818 262.08 200.567 262.449C200.321 262.818 200.13 263.265 199.993 263.789ZM205.318 268L206.911 260.508H208.053L206.46 268H205.318ZM207.868 259.195C207.686 259.195 207.533 259.143 207.41 259.038C207.292 258.929 207.232 258.776 207.232 258.58C207.232 258.43 207.262 258.288 207.321 258.156C207.385 258.024 207.474 257.919 207.588 257.842C207.706 257.76 207.85 257.719 208.019 257.719C208.219 257.719 208.369 257.771 208.47 257.876C208.57 257.981 208.62 258.127 208.62 258.313C208.62 258.582 208.543 258.797 208.388 258.956C208.233 259.116 208.06 259.195 207.868 259.195ZM210.992 268.137C210.495 268.137 210.081 268.018 209.748 267.781C209.42 267.54 209.256 267.127 209.256 266.544C209.256 266.403 209.265 266.25 209.283 266.086C209.301 265.917 209.331 265.744 209.372 265.566L210.254 261.376H209.099L209.208 260.85L210.452 260.371L211.272 258.785H211.949L211.573 260.508H213.501L213.323 261.376H211.402L210.514 265.58C210.482 265.708 210.452 265.844 210.425 265.99C210.402 266.136 210.391 266.275 210.391 266.407C210.391 266.635 210.45 266.826 210.568 266.981C210.687 267.132 210.885 267.207 211.163 267.207C211.336 267.207 211.5 267.191 211.655 267.159C211.815 267.127 211.983 267.082 212.161 267.022V267.897C212.047 267.952 211.874 268.005 211.642 268.055C211.414 268.109 211.197 268.137 210.992 268.137ZM213.48 268L215.736 257.363H216.871L216.27 260.125C216.233 260.321 216.188 260.524 216.133 260.733C216.083 260.938 216.03 261.146 215.976 261.355C215.921 261.561 215.866 261.763 215.812 261.964H215.88C216.058 261.722 216.267 261.481 216.509 261.239C216.755 260.998 217.04 260.795 217.363 260.631C217.691 260.467 218.061 260.385 218.471 260.385C218.863 260.385 219.198 260.455 219.476 260.597C219.758 260.738 219.975 260.95 220.125 261.232C220.28 261.51 220.357 261.861 220.357 262.285C220.357 262.463 220.344 262.645 220.316 262.832C220.289 263.014 220.255 263.206 220.214 263.406L219.229 268H218.088L219.086 263.283C219.132 263.078 219.163 262.903 219.182 262.757C219.2 262.611 219.209 262.483 219.209 262.374C219.209 262.041 219.125 261.784 218.956 261.602C218.792 261.419 218.528 261.328 218.163 261.328C217.821 261.328 217.461 261.444 217.083 261.677C216.709 261.905 216.363 262.267 216.044 262.764C215.729 263.256 215.488 263.901 215.319 264.698L214.622 268H213.48ZM224.548 268.137C223.987 268.137 223.504 268.025 223.099 267.802C222.693 267.574 222.381 267.25 222.162 266.831C221.948 266.407 221.841 265.901 221.841 265.313C221.841 264.707 221.927 264.113 222.101 263.529C222.278 262.941 222.531 262.41 222.859 261.937C223.188 261.458 223.582 261.077 224.042 260.795C224.507 260.512 225.026 260.371 225.601 260.371C226.289 260.371 226.811 260.526 227.166 260.836C227.521 261.141 227.699 261.563 227.699 262.101C227.699 262.479 227.61 262.827 227.433 263.146C227.259 263.465 226.991 263.743 226.626 263.98C226.266 264.213 225.808 264.395 225.252 264.527C224.701 264.655 224.047 264.719 223.29 264.719H223.03C223.021 264.801 223.012 264.892 223.003 264.992C222.998 265.092 222.996 265.186 222.996 265.272C222.996 265.874 223.142 266.346 223.434 266.688C223.725 267.025 224.163 267.193 224.746 267.193C225.106 267.193 225.446 267.143 225.765 267.043C226.088 266.938 226.425 266.801 226.776 266.633V267.61C226.439 267.765 226.1 267.893 225.758 267.993C225.416 268.089 225.013 268.137 224.548 268.137ZM223.194 263.789H223.358C223.942 263.789 224.477 263.739 224.965 263.639C225.452 263.534 225.844 263.365 226.141 263.133C226.437 262.896 226.585 262.581 226.585 262.189C226.585 261.934 226.498 261.725 226.325 261.561C226.152 261.396 225.888 261.314 225.532 261.314C225.218 261.314 224.908 261.412 224.603 261.608C224.297 261.8 224.019 262.08 223.769 262.449C223.522 262.818 223.331 263.265 223.194 263.789ZM228.52 268L230.112 260.508H231.042L230.864 261.957H230.933C231.124 261.697 231.329 261.447 231.548 261.205C231.767 260.959 232.015 260.758 232.293 260.604C232.576 260.449 232.899 260.371 233.264 260.371C233.4 260.371 233.539 260.38 233.681 260.398C233.822 260.412 233.954 260.437 234.077 260.474L233.831 261.492C233.708 261.465 233.587 261.444 233.469 261.431C233.355 261.417 233.236 261.41 233.113 261.41C232.767 261.41 232.446 261.501 232.149 261.684C231.853 261.861 231.587 262.101 231.35 262.401C231.117 262.702 230.919 263.037 230.755 263.406C230.595 263.775 230.475 264.151 230.393 264.534L229.661 268H228.52ZM239.478 268.137C239.022 268.137 238.621 268.091 238.274 268C237.933 267.909 237.634 267.795 237.379 267.658V266.605C237.62 266.751 237.926 266.888 238.295 267.016C238.669 267.143 239.051 267.207 239.443 267.207C239.831 267.207 240.152 267.155 240.407 267.05C240.667 266.945 240.861 266.801 240.988 266.619C241.12 266.432 241.187 266.216 241.187 265.97C241.187 265.774 241.143 265.605 241.057 265.464C240.975 265.318 240.838 265.177 240.646 265.04C240.46 264.903 240.209 264.746 239.895 264.568C239.544 264.372 239.247 264.174 239.006 263.974C238.764 263.773 238.58 263.554 238.452 263.317C238.329 263.076 238.268 262.796 238.268 262.477C238.268 262.048 238.372 261.677 238.582 261.362C238.792 261.048 239.086 260.804 239.464 260.631C239.847 260.458 240.293 260.371 240.804 260.371C241.255 260.371 241.672 260.424 242.055 260.528C242.438 260.629 242.768 260.745 243.046 260.877L242.677 261.786C242.44 261.672 242.169 261.567 241.863 261.472C241.558 261.376 241.205 261.328 240.804 261.328C240.375 261.328 240.034 261.426 239.778 261.622C239.528 261.818 239.402 262.082 239.402 262.415C239.402 262.588 239.439 262.743 239.512 262.88C239.589 263.017 239.721 263.153 239.908 263.29C240.095 263.422 240.35 263.577 240.674 263.755C240.988 263.937 241.271 264.124 241.521 264.315C241.777 264.502 241.977 264.719 242.123 264.965C242.273 265.206 242.349 265.505 242.349 265.86C242.349 266.348 242.232 266.763 242 267.104C241.768 267.442 241.435 267.699 241.002 267.877C240.574 268.05 240.065 268.137 239.478 268.137ZM243.736 268L245.329 260.508H246.471L244.878 268H243.736ZM246.286 259.195C246.104 259.195 245.951 259.143 245.828 259.038C245.71 258.929 245.65 258.776 245.65 258.58C245.65 258.43 245.68 258.288 245.739 258.156C245.803 258.024 245.892 257.919 246.006 257.842C246.124 257.76 246.268 257.719 246.437 257.719C246.637 257.719 246.787 257.771 246.888 257.876C246.988 257.981 247.038 258.127 247.038 258.313C247.038 258.582 246.961 258.797 246.806 258.956C246.651 259.116 246.478 259.195 246.286 259.195ZM249.595 268.137C249.185 268.137 248.827 268.041 248.521 267.85C248.216 267.658 247.979 267.373 247.811 266.995C247.642 266.612 247.558 266.138 247.558 265.573C247.558 265.035 247.612 264.514 247.722 264.008C247.831 263.497 247.988 263.023 248.193 262.586C248.403 262.148 248.658 261.766 248.959 261.438C249.26 261.105 249.602 260.847 249.984 260.665C250.372 260.478 250.796 260.385 251.256 260.385C251.607 260.385 251.908 260.449 252.158 260.576C252.409 260.704 252.616 260.87 252.78 261.075C252.949 261.276 253.081 261.492 253.177 261.725H253.245C253.272 261.515 253.3 261.312 253.327 261.116C253.354 260.916 253.386 260.713 253.423 260.508C253.464 260.303 253.509 260.091 253.56 259.872L254.086 257.363H255.214L252.958 268H252.021L252.206 266.551H252.158C251.939 266.833 251.7 267.095 251.44 267.337C251.185 267.578 250.905 267.772 250.6 267.918C250.294 268.064 249.959 268.137 249.595 268.137ZM249.978 267.193C250.192 267.193 250.408 267.141 250.627 267.036C250.85 266.931 251.067 266.783 251.276 266.592C251.486 266.396 251.682 266.166 251.864 265.901C252.047 265.637 252.206 265.345 252.343 265.026C252.484 264.707 252.593 264.37 252.671 264.015C252.748 263.659 252.787 263.292 252.787 262.914C252.787 262.431 252.671 262.046 252.438 261.759C252.206 261.472 251.835 261.328 251.324 261.328C251.01 261.328 250.718 261.408 250.449 261.567C250.185 261.727 249.946 261.946 249.731 262.224C249.517 262.502 249.335 262.823 249.185 263.188C249.039 263.548 248.925 263.935 248.843 264.35C248.765 264.76 248.727 265.174 248.727 265.594C248.727 266.118 248.831 266.517 249.041 266.79C249.251 267.059 249.563 267.193 249.978 267.193ZM258.372 268.137C257.812 268.137 257.328 268.025 256.923 267.802C256.517 267.574 256.205 267.25 255.986 266.831C255.772 266.407 255.665 265.901 255.665 265.313C255.665 264.707 255.752 264.113 255.925 263.529C256.103 262.941 256.355 262.41 256.684 261.937C257.012 261.458 257.406 261.077 257.866 260.795C258.331 260.512 258.851 260.371 259.425 260.371C260.113 260.371 260.635 260.526 260.99 260.836C261.346 261.141 261.523 261.563 261.523 262.101C261.523 262.479 261.435 262.827 261.257 263.146C261.084 263.465 260.815 263.743 260.45 263.98C260.09 264.213 259.632 264.395 259.076 264.527C258.525 264.655 257.871 264.719 257.114 264.719H256.854C256.845 264.801 256.836 264.892 256.827 264.992C256.823 265.092 256.82 265.186 256.82 265.272C256.82 265.874 256.966 266.346 257.258 266.688C257.549 267.025 257.987 267.193 258.57 267.193C258.93 267.193 259.27 267.143 259.589 267.043C259.912 266.938 260.25 266.801 260.601 266.633V267.61C260.263 267.765 259.924 267.893 259.582 267.993C259.24 268.089 258.837 268.137 258.372 268.137ZM257.019 263.789H257.183C257.766 263.789 258.301 263.739 258.789 263.639C259.277 263.534 259.669 263.365 259.965 263.133C260.261 262.896 260.409 262.581 260.409 262.189C260.409 261.934 260.323 261.725 260.149 261.561C259.976 261.396 259.712 261.314 259.356 261.314C259.042 261.314 258.732 261.412 258.427 261.608C258.121 261.8 257.843 262.08 257.593 262.449C257.347 262.818 257.155 263.265 257.019 263.789ZM269.036 268.109C268.462 268.109 267.967 267.993 267.553 267.761C267.138 267.524 266.819 267.191 266.596 266.763C266.377 266.33 266.268 265.819 266.268 265.231C266.268 264.757 266.32 264.29 266.425 263.83C266.53 263.365 266.685 262.928 266.89 262.518C267.095 262.103 267.348 261.738 267.648 261.424C267.954 261.105 268.305 260.856 268.701 260.679C269.098 260.496 269.54 260.405 270.027 260.405C270.611 260.405 271.107 260.524 271.518 260.761C271.932 260.993 272.249 261.326 272.468 261.759C272.691 262.192 272.803 262.704 272.803 263.297C272.803 263.762 272.75 264.224 272.646 264.685C272.545 265.145 272.393 265.582 272.188 265.997C271.987 266.407 271.734 266.772 271.429 267.091C271.128 267.405 270.777 267.654 270.376 267.836C269.979 268.018 269.533 268.109 269.036 268.109ZM269.104 267.166C269.387 267.166 269.656 267.107 269.911 266.988C270.166 266.87 270.399 266.699 270.608 266.476C270.818 266.248 270.998 265.972 271.148 265.648C271.303 265.32 271.422 264.949 271.504 264.534C271.59 264.119 271.634 263.664 271.634 263.167C271.634 262.871 271.581 262.584 271.477 262.306C271.372 262.028 271.203 261.8 270.971 261.622C270.738 261.44 270.428 261.349 270.041 261.349C269.722 261.349 269.426 261.415 269.152 261.547C268.883 261.679 268.642 261.866 268.428 262.107C268.214 262.349 268.031 262.634 267.881 262.962C267.735 263.29 267.621 263.65 267.539 264.042C267.462 264.434 267.423 264.846 267.423 265.279C267.423 265.876 267.569 266.341 267.86 266.674C268.152 267.002 268.567 267.166 269.104 267.166ZM272.769 271.363C272.591 271.363 272.427 271.35 272.276 271.322C272.126 271.295 271.994 271.261 271.88 271.22V270.256C272.003 270.301 272.128 270.338 272.256 270.365C272.383 270.397 272.52 270.413 272.666 270.413C273.003 270.413 273.265 270.279 273.452 270.01C273.639 269.741 273.789 269.351 273.903 268.841L275.476 261.376H274.17L274.266 260.891L275.653 260.474L275.817 259.749C275.922 259.284 276.048 258.895 276.193 258.58C276.344 258.261 276.519 258.008 276.72 257.821C276.92 257.63 277.153 257.493 277.417 257.411C277.686 257.329 277.993 257.288 278.34 257.288C278.568 257.288 278.8 257.315 279.037 257.37C279.279 257.42 279.475 257.479 279.625 257.548L279.331 258.416C279.194 258.366 279.049 258.323 278.894 258.286C278.739 258.245 278.57 258.225 278.388 258.225C278 258.225 277.695 258.334 277.472 258.553C277.253 258.767 277.08 259.168 276.952 259.756L276.781 260.508H278.395L278.23 261.376H276.61L275.011 268.971C274.901 269.472 274.753 269.9 274.566 270.256C274.38 270.616 274.14 270.889 273.849 271.076C273.557 271.268 273.197 271.363 272.769 271.363ZM284.014 268.137C283.517 268.137 283.102 268.018 282.77 267.781C282.441 267.54 282.277 267.127 282.277 266.544C282.277 266.403 282.286 266.25 282.305 266.086C282.323 265.917 282.353 265.744 282.394 265.566L283.275 261.376H282.12L282.229 260.85L283.474 260.371L284.294 258.785H284.971L284.595 260.508H286.522L286.345 261.376H284.424L283.535 265.58C283.503 265.708 283.474 265.844 283.446 265.99C283.424 266.136 283.412 266.275 283.412 266.407C283.412 266.635 283.471 266.826 283.59 266.981C283.708 267.132 283.907 267.207 284.185 267.207C284.358 267.207 284.522 267.191 284.677 267.159C284.836 267.127 285.005 267.082 285.183 267.022V267.897C285.069 267.952 284.896 268.005 284.663 268.055C284.435 268.109 284.219 268.137 284.014 268.137ZM286.502 268L288.758 257.363H289.893L289.291 260.125C289.255 260.321 289.209 260.524 289.154 260.733C289.104 260.938 289.052 261.146 288.997 261.355C288.942 261.561 288.888 261.763 288.833 261.964H288.901C289.079 261.722 289.289 261.481 289.53 261.239C289.776 260.998 290.061 260.795 290.385 260.631C290.713 260.467 291.082 260.385 291.492 260.385C291.884 260.385 292.219 260.455 292.497 260.597C292.78 260.738 292.996 260.95 293.146 261.232C293.301 261.51 293.379 261.861 293.379 262.285C293.379 262.463 293.365 262.645 293.338 262.832C293.311 263.014 293.276 263.206 293.235 263.406L292.251 268H291.109L292.107 263.283C292.153 263.078 292.185 262.903 292.203 262.757C292.221 262.611 292.23 262.483 292.23 262.374C292.23 262.041 292.146 261.784 291.978 261.602C291.813 261.419 291.549 261.328 291.185 261.328C290.843 261.328 290.483 261.444 290.104 261.677C289.731 261.905 289.384 262.267 289.065 262.764C288.751 263.256 288.509 263.901 288.341 264.698L287.644 268H286.502ZM297.569 268.137C297.009 268.137 296.526 268.025 296.12 267.802C295.715 267.574 295.402 267.25 295.184 266.831C294.969 266.407 294.862 265.901 294.862 265.313C294.862 264.707 294.949 264.113 295.122 263.529C295.3 262.941 295.553 262.41 295.881 261.937C296.209 261.458 296.603 261.077 297.063 260.795C297.528 260.512 298.048 260.371 298.622 260.371C299.31 260.371 299.832 260.526 300.188 260.836C300.543 261.141 300.721 261.563 300.721 262.101C300.721 262.479 300.632 262.827 300.454 263.146C300.281 263.465 300.012 263.743 299.647 263.98C299.287 264.213 298.829 264.395 298.273 264.527C297.722 264.655 297.068 264.719 296.312 264.719H296.052C296.043 264.801 296.034 264.892 296.024 264.992C296.02 265.092 296.018 265.186 296.018 265.272C296.018 265.874 296.163 266.346 296.455 266.688C296.747 267.025 297.184 267.193 297.768 267.193C298.128 267.193 298.467 267.143 298.786 267.043C299.11 266.938 299.447 266.801 299.798 266.633V267.61C299.461 267.765 299.121 267.893 298.779 267.993C298.438 268.089 298.034 268.137 297.569 268.137ZM296.216 263.789H296.38C296.963 263.789 297.499 263.739 297.986 263.639C298.474 263.534 298.866 263.365 299.162 263.133C299.458 262.896 299.606 262.581 299.606 262.189C299.606 261.934 299.52 261.725 299.347 261.561C299.174 261.396 298.909 261.314 298.554 261.314C298.239 261.314 297.929 261.412 297.624 261.608C297.319 261.8 297.041 262.08 296.79 262.449C296.544 262.818 296.353 263.265 296.216 263.789ZM308.5 268.137C308.149 268.137 307.844 268.075 307.584 267.952C307.329 267.825 307.117 267.658 306.948 267.453C306.78 267.248 306.647 267.027 306.552 266.79H306.49L306.039 268H305.178L307.434 257.363H308.568L308.021 259.934C307.958 260.239 307.889 260.542 307.816 260.843C307.743 261.139 307.677 261.392 307.618 261.602C307.563 261.807 307.527 261.927 307.509 261.964H307.563C307.782 261.686 308.017 261.428 308.268 261.191C308.523 260.95 308.801 260.756 309.102 260.61C309.407 260.46 309.74 260.385 310.1 260.385C310.519 260.385 310.883 260.483 311.193 260.679C311.503 260.87 311.743 261.155 311.911 261.533C312.084 261.911 312.171 262.381 312.171 262.941C312.171 263.479 312.116 264.003 312.007 264.514C311.902 265.02 311.747 265.491 311.542 265.929C311.337 266.366 311.086 266.751 310.79 267.084C310.494 267.412 310.152 267.67 309.765 267.856C309.382 268.043 308.96 268.137 308.5 268.137ZM308.418 267.193C308.737 267.193 309.029 267.114 309.293 266.954C309.562 266.795 309.801 266.578 310.011 266.305C310.225 266.027 310.405 265.705 310.551 265.341C310.701 264.976 310.815 264.589 310.893 264.179C310.97 263.769 311.009 263.352 311.009 262.928C311.009 262.399 310.902 262 310.688 261.731C310.478 261.463 310.163 261.328 309.744 261.328C309.525 261.328 309.302 261.383 309.074 261.492C308.851 261.597 308.634 261.747 308.425 261.943C308.215 262.139 308.019 262.369 307.837 262.634C307.659 262.898 307.502 263.19 307.365 263.509C307.233 263.828 307.128 264.165 307.051 264.521C306.973 264.876 306.935 265.238 306.935 265.607C306.935 266.086 307.055 266.471 307.297 266.763C307.543 267.05 307.917 267.193 308.418 267.193ZM316.272 268.137C315.712 268.137 315.229 268.025 314.823 267.802C314.418 267.574 314.105 267.25 313.887 266.831C313.673 266.407 313.565 265.901 313.565 265.313C313.565 264.707 313.652 264.113 313.825 263.529C314.003 262.941 314.256 262.41 314.584 261.937C314.912 261.458 315.306 261.077 315.767 260.795C316.231 260.512 316.751 260.371 317.325 260.371C318.013 260.371 318.535 260.526 318.891 260.836C319.246 261.141 319.424 261.563 319.424 262.101C319.424 262.479 319.335 262.827 319.157 263.146C318.984 263.465 318.715 263.743 318.351 263.98C317.991 264.213 317.533 264.395 316.977 264.527C316.425 264.655 315.771 264.719 315.015 264.719H314.755C314.746 264.801 314.737 264.892 314.728 264.992C314.723 265.092 314.721 265.186 314.721 265.272C314.721 265.874 314.867 266.346 315.158 266.688C315.45 267.025 315.887 267.193 316.471 267.193C316.831 267.193 317.17 267.143 317.489 267.043C317.813 266.938 318.15 266.801 318.501 266.633V267.61C318.164 267.765 317.824 267.893 317.482 267.993C317.141 268.089 316.737 268.137 316.272 268.137ZM314.919 263.789H315.083C315.666 263.789 316.202 263.739 316.689 263.639C317.177 263.534 317.569 263.365 317.865 263.133C318.161 262.896 318.31 262.581 318.31 262.189C318.31 261.934 318.223 261.725 318.05 261.561C317.877 261.396 317.612 261.314 317.257 261.314C316.942 261.314 316.632 261.412 316.327 261.608C316.022 261.8 315.744 262.08 315.493 262.449C315.247 262.818 315.056 263.265 314.919 263.789ZM322.562 268.137C322.151 268.137 321.794 268.041 321.488 267.85C321.183 267.658 320.946 267.373 320.777 266.995C320.609 266.612 320.524 266.138 320.524 265.573C320.524 265.035 320.579 264.514 320.688 264.008C320.798 263.497 320.955 263.023 321.16 262.586C321.37 262.148 321.625 261.766 321.926 261.438C322.227 261.105 322.568 260.847 322.951 260.665C323.339 260.478 323.762 260.385 324.223 260.385C324.574 260.385 324.874 260.449 325.125 260.576C325.376 260.704 325.583 260.87 325.747 261.075C325.916 261.276 326.048 261.492 326.144 261.725H326.212C326.239 261.515 326.267 261.312 326.294 261.116C326.321 260.916 326.353 260.713 326.39 260.508C326.431 260.303 326.476 260.091 326.526 259.872L327.053 257.363H328.181L325.925 268H324.988L325.173 266.551H325.125C324.906 266.833 324.667 267.095 324.407 267.337C324.152 267.578 323.872 267.772 323.566 267.918C323.261 268.064 322.926 268.137 322.562 268.137ZM322.944 267.193C323.159 267.193 323.375 267.141 323.594 267.036C323.817 266.931 324.034 266.783 324.243 266.592C324.453 266.396 324.649 266.166 324.831 265.901C325.013 265.637 325.173 265.345 325.31 265.026C325.451 264.707 325.56 264.37 325.638 264.015C325.715 263.659 325.754 263.292 325.754 262.914C325.754 262.431 325.638 262.046 325.405 261.759C325.173 261.472 324.801 261.328 324.291 261.328C323.977 261.328 323.685 261.408 323.416 261.567C323.152 261.727 322.912 261.946 322.698 262.224C322.484 262.502 322.302 262.823 322.151 263.188C322.006 263.548 321.892 263.935 321.81 264.35C321.732 264.76 321.693 265.174 321.693 265.594C321.693 266.118 321.798 266.517 322.008 266.79C322.217 267.059 322.53 267.193 322.944 267.193ZM328.919 268.191C328.705 268.191 328.538 268.13 328.42 268.007C328.301 267.888 328.242 267.72 328.242 267.501C328.242 267.214 328.322 266.961 328.481 266.742C328.646 266.519 328.901 266.407 329.247 266.407C329.438 266.407 329.593 266.466 329.712 266.585C329.83 266.703 329.89 266.877 329.89 267.104C329.89 267.373 329.81 267.622 329.65 267.85C329.491 268.077 329.247 268.191 328.919 268.191Z" fill="#707070"/>
<mask id="path-22-inside-1_6143_17050" fill="white">
<path d="M0 0H480V64H0V0Z"/>
</mask>
<path d="M0 0H480V64H0V0Z" fill="white"/>
<path d="M480 64V63H0V64V65H480V64Z" fill="#D1D1D1" mask="url(#path-22-inside-1_6143_17050)"/>
<path d="M210.363 36.0352C210.363 36.8816 210.158 37.6173 209.748 38.2423C209.338 38.8673 208.739 39.349 207.951 39.6876C207.17 40.0261 206.219 40.1954 205.1 40.1954C204.605 40.1954 204.12 40.1628 203.645 40.0977C203.176 40.0326 202.723 39.9382 202.287 39.8145C201.857 39.6843 201.447 39.5248 201.057 39.336V36.5235C201.734 36.823 202.437 37.0932 203.166 37.3341C203.895 37.5749 204.618 37.6954 205.334 37.6954C205.829 37.6954 206.226 37.6303 206.525 37.5001C206.831 37.3699 207.053 37.1908 207.189 36.963C207.326 36.7351 207.395 36.4747 207.395 36.1817C207.395 35.8236 207.274 35.5177 207.033 35.2637C206.792 35.0098 206.46 34.7722 206.037 34.5509C205.62 34.3295 205.148 34.0919 204.621 33.838C204.289 33.6817 203.928 33.4929 203.537 33.2716C203.146 33.0437 202.775 32.767 202.424 32.4415C202.072 32.116 201.783 31.7221 201.555 31.2598C201.333 30.7911 201.223 30.2312 201.223 29.5802C201.223 28.7273 201.418 27.9981 201.809 27.3927C202.199 26.7872 202.756 26.3249 203.479 26.0059C204.208 25.6804 205.067 25.5177 206.057 25.5177C206.799 25.5177 207.505 25.6055 208.176 25.7813C208.853 25.9506 209.559 26.198 210.295 26.5235L209.318 28.877C208.661 28.6101 208.072 28.405 207.551 28.2618C207.03 28.1121 206.499 28.0372 205.959 28.0372C205.581 28.0372 205.259 28.099 204.992 28.2227C204.725 28.3399 204.523 28.5092 204.387 28.7305C204.25 28.9454 204.182 29.196 204.182 29.4825C204.182 29.821 204.279 30.1075 204.475 30.3419C204.676 30.5697 204.976 30.7911 205.373 31.0059C205.777 31.2208 206.278 31.4714 206.877 31.7579C207.606 32.1029 208.228 32.4643 208.742 32.8419C209.263 33.213 209.663 33.6524 209.943 34.1602C210.223 34.6615 210.363 35.2865 210.363 36.0352ZM217.219 28.877C218.228 28.877 219.097 29.0723 219.826 29.463C220.555 29.8471 221.118 30.407 221.516 31.1427C221.913 31.8783 222.111 32.7768 222.111 33.838V35.2833H215.07C215.103 36.1231 215.354 36.7839 215.822 37.2657C216.298 37.741 216.955 37.9786 217.795 37.9786C218.492 37.9786 219.13 37.907 219.709 37.7637C220.288 37.6205 220.884 37.4057 221.496 37.1192V39.4239C220.956 39.6908 220.389 39.8861 219.797 40.0098C219.211 40.1335 218.498 40.1954 217.658 40.1954C216.564 40.1954 215.594 39.9936 214.748 39.5899C213.908 39.1863 213.247 38.571 212.766 37.7442C212.29 36.9174 212.053 35.8757 212.053 34.6192C212.053 33.3432 212.268 32.282 212.697 31.4356C213.133 30.5828 213.739 29.9447 214.514 29.5216C215.288 29.0919 216.19 28.877 217.219 28.877ZM217.238 30.9962C216.659 30.9962 216.177 31.1817 215.793 31.5528C215.415 31.9239 215.197 32.5066 215.139 33.3009H219.318C219.312 32.8581 219.23 32.4643 219.074 32.1192C218.924 31.7742 218.697 31.5007 218.391 31.2989C218.091 31.0971 217.707 30.9962 217.238 30.9962ZM229.133 37.8223C229.458 37.8223 229.774 37.7898 230.08 37.7247C230.393 37.6596 230.702 37.5782 231.008 37.4805V39.6973C230.689 39.8406 230.292 39.9578 229.816 40.0489C229.348 40.1466 228.833 40.1954 228.273 40.1954C227.622 40.1954 227.036 40.0912 226.516 39.8829C226.001 39.668 225.594 39.3002 225.295 38.7794C225.002 38.252 224.855 37.5196 224.855 36.5821V31.3184H223.43V30.0587L225.07 29.0626L225.93 26.7579H227.834V29.0821H230.891V31.3184H227.834V36.5821C227.834 36.9988 227.951 37.3113 228.186 37.5196C228.426 37.7214 228.742 37.8223 229.133 37.8223ZM237.824 37.8223C238.15 37.8223 238.465 37.7898 238.771 37.7247C239.084 37.6596 239.393 37.5782 239.699 37.4805V39.6973C239.38 39.8406 238.983 39.9578 238.508 40.0489C238.039 40.1466 237.525 40.1954 236.965 40.1954C236.314 40.1954 235.728 40.0912 235.207 39.8829C234.693 39.668 234.286 39.3002 233.986 38.7794C233.693 38.252 233.547 37.5196 233.547 36.5821V31.3184H232.121V30.0587L233.762 29.0626L234.621 26.7579H236.525V29.0821H239.582V31.3184H236.525V36.5821C236.525 36.9988 236.643 37.3113 236.877 37.5196C237.118 37.7214 237.434 37.8223 237.824 37.8223ZM244.895 29.0821V40.0001H241.916V29.0821H244.895ZM243.41 24.8048C243.853 24.8048 244.234 24.9089 244.553 25.1173C244.872 25.3191 245.031 25.6999 245.031 26.2598C245.031 26.8132 244.872 27.1973 244.553 27.4122C244.234 27.6205 243.853 27.7247 243.41 27.7247C242.961 27.7247 242.577 27.6205 242.258 27.4122C241.945 27.1973 241.789 26.8132 241.789 26.2598C241.789 25.6999 241.945 25.3191 242.258 25.1173C242.577 24.9089 242.961 24.8048 243.41 24.8048ZM254.23 28.877C255.396 28.877 256.333 29.196 257.043 29.8341C257.753 30.4656 258.107 31.4812 258.107 32.8809V40.0001H255.129V33.6231C255.129 32.8419 254.986 32.2527 254.699 31.8555C254.419 31.4584 253.977 31.2598 253.371 31.2598C252.46 31.2598 251.838 31.5691 251.506 32.1876C251.174 32.8061 251.008 33.698 251.008 34.8634V40.0001H248.029V29.0821H250.305L250.705 30.4786H250.871C251.105 30.101 251.395 29.795 251.74 29.5606C252.092 29.3262 252.479 29.1537 252.902 29.043C253.332 28.9324 253.775 28.877 254.23 28.877ZM264.367 44.8048C262.844 44.8048 261.678 44.5378 260.871 44.004C260.07 43.4766 259.67 42.7345 259.67 41.7774C259.67 41.1199 259.875 40.5697 260.285 40.127C260.695 39.6843 261.298 39.3686 262.092 39.1798C261.786 39.0496 261.519 38.838 261.291 38.545C261.063 38.2455 260.949 37.9298 260.949 37.5977C260.949 37.1811 261.07 36.836 261.311 36.5626C261.551 36.2826 261.9 36.0092 262.355 35.7423C261.783 35.4949 261.327 35.0977 260.988 34.5509C260.656 34.004 260.49 33.3595 260.49 32.6173C260.49 31.823 260.663 31.1492 261.008 30.5958C261.359 30.0359 261.867 29.6095 262.531 29.3165C263.202 29.0235 264.016 28.877 264.973 28.877C265.174 28.877 265.409 28.8901 265.676 28.9161C265.943 28.9421 266.187 28.9714 266.408 29.004C266.636 29.0365 266.789 29.0626 266.867 29.0821H270.676V30.5958L268.967 31.0352C269.123 31.2761 269.24 31.5333 269.318 31.8067C269.396 32.0802 269.436 32.3699 269.436 32.6759C269.436 33.8477 269.025 34.7624 268.205 35.42C267.391 36.071 266.258 36.3966 264.807 36.3966C264.462 36.377 264.136 36.351 263.83 36.3184C263.68 36.4356 263.566 36.5593 263.488 36.6895C263.41 36.8197 263.371 36.9565 263.371 37.0997C263.371 37.2429 263.43 37.3634 263.547 37.461C263.671 37.5522 263.853 37.6238 264.094 37.6759C264.341 37.7214 264.647 37.7442 265.012 37.7442H266.867C268.065 37.7442 268.977 38.0014 269.602 38.5157C270.233 39.03 270.549 39.7852 270.549 40.7813C270.549 42.0574 270.015 43.047 268.947 43.7501C267.886 44.4532 266.359 44.8048 264.367 44.8048ZM264.494 42.8614C265.204 42.8614 265.812 42.793 266.32 42.6563C266.835 42.5261 267.229 42.3373 267.502 42.0899C267.775 41.849 267.912 41.5593 267.912 41.2208C267.912 40.9473 267.831 40.7292 267.668 40.5665C267.512 40.4102 267.271 40.2996 266.945 40.2345C266.626 40.1693 266.216 40.1368 265.715 40.1368H264.172C263.807 40.1368 263.479 40.1954 263.186 40.3126C262.899 40.4298 262.671 40.5925 262.502 40.8009C262.333 41.0157 262.248 41.2631 262.248 41.543C262.248 41.9532 262.443 42.2755 262.834 42.5098C263.231 42.7442 263.785 42.8614 264.494 42.8614ZM264.973 34.5802C265.533 34.5802 265.943 34.4076 266.203 34.0626C266.464 33.7175 266.594 33.2488 266.594 32.6563C266.594 31.9988 266.457 31.5072 266.184 31.1817C265.917 30.8497 265.513 30.6837 264.973 30.6837C264.426 30.6837 264.016 30.8497 263.742 31.1817C263.469 31.5072 263.332 31.9988 263.332 32.6563C263.332 33.2488 263.465 33.7175 263.732 34.0626C264.006 34.4076 264.419 34.5802 264.973 34.5802ZM280.1 36.7579C280.1 37.5001 279.924 38.1283 279.572 38.6427C279.227 39.1505 278.71 39.5378 278.02 39.8048C277.329 40.0652 276.47 40.1954 275.441 40.1954C274.68 40.1954 274.025 40.1466 273.479 40.0489C272.938 39.9512 272.391 39.7885 271.838 39.5606V37.0997C272.43 37.3666 273.065 37.588 273.742 37.7637C274.426 37.933 275.025 38.0177 275.539 38.0177C276.118 38.0177 276.532 37.933 276.779 37.7637C277.033 37.588 277.16 37.3601 277.16 37.0802C277.16 36.8979 277.108 36.7351 277.004 36.5919C276.906 36.4421 276.691 36.2761 276.359 36.0938C276.027 35.905 275.507 35.6609 274.797 35.3614C274.113 35.0749 273.55 34.7852 273.107 34.4923C272.671 34.1993 272.346 33.8542 272.131 33.4571C271.923 33.0535 271.818 32.5424 271.818 31.9239C271.818 30.9148 272.209 30.1563 272.99 29.6485C273.778 29.1342 274.829 28.877 276.145 28.877C276.822 28.877 277.466 28.9454 278.078 29.0821C278.697 29.2188 279.331 29.4369 279.982 29.7364L279.084 31.8848C278.544 31.6505 278.033 31.4584 277.551 31.3087C277.076 31.1589 276.59 31.0841 276.096 31.0841C275.66 31.0841 275.331 31.1427 275.109 31.2598C274.888 31.377 274.777 31.5561 274.777 31.797C274.777 31.9727 274.833 32.129 274.943 32.2657C275.061 32.4024 275.282 32.5554 275.607 32.7247C275.939 32.8874 276.424 33.099 277.062 33.3595C277.681 33.6134 278.218 33.8803 278.674 34.1602C279.13 34.4337 279.481 34.7755 279.729 35.1856C279.976 35.5893 280.1 36.1134 280.1 36.7579Z" fill="black"/>
<path d="M459.29 24.0987C460.227 23.1616 460.227 21.6399 459.29 20.7028C458.353 19.7657 456.831 19.7657 455.894 20.7028L448 28.6041L440.099 20.7103C439.162 19.7732 437.64 19.7732 436.703 20.7103C435.766 21.6474 435.766 23.1691 436.703 24.1062L444.604 32L436.71 39.9013C435.773 40.8384 435.773 42.3601 436.71 43.2972C437.647 44.2343 439.169 44.2343 440.106 43.2972L448 35.3959L455.901 43.2897C456.838 44.2268 458.36 44.2268 459.297 43.2897C460.234 42.3526 460.234 40.8309 459.297 39.8938L451.396 32L459.29 24.0987Z" fill="#1A1040"/>
<path d="M36 15.8496C44.8828 15.8496 52.1504 23.1172 52.1504 32C52.1504 40.8828 44.8828 48.1504 36 48.1504C27.1172 48.1504 19.8496 40.8828 19.8496 32C19.8496 23.1172 27.1172 15.8496 36 15.8496ZM36 19.1504C28.8828 19.1504 23.1504 24.8828 23.1504 32C23.1504 39.1172 28.8828 44.8496 36 44.8496C43.1172 44.8496 48.8496 39.1172 48.8496 32C48.8496 24.8828 43.1172 19.1504 36 19.1504Z" fill="#1A1040" stroke="#1A1040" stroke-width="0.3"/>
<path d="M36 23.8496C37.1874 23.8496 38.1504 24.8126 38.1504 26C38.1504 27.1874 37.1874 28.1504 36 28.1504C34.8126 28.1504 33.8496 27.1874 33.8496 26C33.8496 24.8126 34.8126 23.8496 36 23.8496Z" fill="#1A1040" stroke="#1A1040" stroke-width="0.3"/>
<path d="M36 29.8496C37.1828 29.8496 38.1504 30.8172 38.1504 32V38C38.1504 39.1828 37.1828 40.1504 36 40.1504C34.8172 40.1504 33.8496 39.1828 33.8496 38V32C33.8496 30.8172 34.8172 29.8496 36 29.8496Z" fill="#1A1040" stroke="#1A1040" stroke-width="0.3"/>
<g filter="url(#filter2_d_6143_17050)">
<rect x="16" y="384" width="216" height="80" rx="5" fill="white" shape-rendering="crispEdges"/>
<rect x="17.5" y="385.5" width="213" height="77" rx="3.5" stroke="#1A1040" stroke-width="3" shape-rendering="crispEdges"/>
<path d="M97.2227 416.367H102.555C104.836 416.367 106.562 416.688 107.734 417.328C108.906 417.969 109.492 419.094 109.492 420.703C109.492 421.352 109.387 421.938 109.176 422.461C108.973 422.984 108.676 423.414 108.285 423.75C107.895 424.086 107.418 424.305 106.855 424.406V424.523C107.426 424.641 107.941 424.844 108.402 425.133C108.863 425.414 109.23 425.828 109.504 426.375C109.785 426.914 109.926 427.633 109.926 428.531C109.926 429.57 109.672 430.461 109.164 431.203C108.656 431.945 107.93 432.516 106.984 432.914C106.047 433.305 104.93 433.5 103.633 433.5H97.2227V416.367ZM100.855 423.152H102.965C104.02 423.152 104.75 422.988 105.156 422.66C105.562 422.324 105.766 421.832 105.766 421.184C105.766 420.527 105.523 420.059 105.039 419.777C104.562 419.488 103.805 419.344 102.766 419.344H100.855V423.152ZM100.855 426.035V430.5H103.223C104.316 430.5 105.078 430.289 105.508 429.867C105.938 429.445 106.152 428.879 106.152 428.168C106.152 427.746 106.059 427.375 105.871 427.055C105.684 426.734 105.367 426.484 104.922 426.305C104.484 426.125 103.879 426.035 103.105 426.035H100.855ZM118.434 420.129C120.191 420.129 121.539 420.512 122.477 421.277C123.414 422.043 123.883 423.207 123.883 424.77V433.5H121.387L120.695 431.719H120.602C120.227 432.188 119.844 432.57 119.453 432.867C119.062 433.164 118.613 433.383 118.105 433.523C117.598 433.664 116.98 433.734 116.254 433.734C115.48 433.734 114.785 433.586 114.168 433.289C113.559 432.992 113.078 432.539 112.727 431.93C112.375 431.312 112.199 430.531 112.199 429.586C112.199 428.195 112.688 427.172 113.664 426.516C114.641 425.852 116.105 425.484 118.059 425.414L120.332 425.344V424.77C120.332 424.082 120.152 423.578 119.793 423.258C119.434 422.938 118.934 422.777 118.293 422.777C117.66 422.777 117.039 422.867 116.43 423.047C115.82 423.227 115.211 423.453 114.602 423.727L113.418 421.312C114.113 420.945 114.891 420.656 115.75 420.445C116.617 420.234 117.512 420.129 118.434 420.129ZM120.332 427.43L118.949 427.477C117.793 427.508 116.988 427.715 116.535 428.098C116.09 428.48 115.867 428.984 115.867 429.609C115.867 430.156 116.027 430.547 116.348 430.781C116.668 431.008 117.086 431.121 117.602 431.121C118.367 431.121 119.012 430.895 119.535 430.441C120.066 429.988 120.332 429.344 120.332 428.508V427.43ZM132.895 433.734C131.598 433.734 130.492 433.5 129.578 433.031C128.664 432.555 127.969 431.82 127.492 430.828C127.016 429.836 126.777 428.566 126.777 427.02C126.777 425.418 127.047 424.113 127.586 423.105C128.133 422.09 128.887 421.344 129.848 420.867C130.816 420.391 131.938 420.152 133.211 420.152C134.117 420.152 134.898 420.242 135.555 420.422C136.219 420.594 136.797 420.801 137.289 421.043L136.234 423.809C135.672 423.582 135.148 423.398 134.664 423.258C134.18 423.109 133.695 423.035 133.211 423.035C132.586 423.035 132.066 423.184 131.652 423.48C131.238 423.77 130.93 424.207 130.727 424.793C130.523 425.379 130.422 426.113 130.422 426.996C130.422 427.863 130.531 428.582 130.75 429.152C130.969 429.723 131.285 430.148 131.699 430.43C132.113 430.703 132.617 430.84 133.211 430.84C133.953 430.84 134.613 430.742 135.191 430.547C135.77 430.344 136.332 430.062 136.879 429.703V432.762C136.332 433.105 135.758 433.352 135.156 433.5C134.562 433.656 133.809 433.734 132.895 433.734ZM143.5 415.266V423.422C143.5 423.914 143.48 424.406 143.441 424.898C143.402 425.391 143.359 425.883 143.312 426.375H143.359C143.602 426.031 143.848 425.691 144.098 425.355C144.355 425.02 144.629 424.695 144.918 424.383L148.586 420.398H152.617L147.414 426.082L152.934 433.5H148.809L145.035 428.191L143.5 429.422V433.5H139.926V415.266H143.5Z" fill="#1A1040"/>
</g>
<g filter="url(#filter3_d_6143_17050)">
<rect x="248" y="384" width="216" height="80" rx="5" fill="#1A1040" shape-rendering="crispEdges"/>
<path d="M344.352 433.5H339.734L332.281 420.539H332.176C332.207 421.078 332.234 421.621 332.258 422.168C332.281 422.715 332.305 423.262 332.328 423.809C332.352 424.348 332.375 424.891 332.398 425.438V433.5H329.152V416.367H333.734L341.176 429.199H341.258C341.242 428.668 341.223 428.141 341.199 427.617C341.176 427.094 341.152 426.57 341.129 426.047C341.113 425.523 341.098 425 341.082 424.477V416.367H344.352V433.5ZM353.797 420.152C355.008 420.152 356.051 420.387 356.926 420.855C357.801 421.316 358.477 421.988 358.953 422.871C359.43 423.754 359.668 424.832 359.668 426.105V427.84H351.219C351.258 428.848 351.559 429.641 352.121 430.219C352.691 430.789 353.48 431.074 354.488 431.074C355.324 431.074 356.09 430.988 356.785 430.816C357.48 430.645 358.195 430.387 358.93 430.043V432.809C358.281 433.129 357.602 433.363 356.891 433.512C356.188 433.66 355.332 433.734 354.324 433.734C353.012 433.734 351.848 433.492 350.832 433.008C349.824 432.523 349.031 431.785 348.453 430.793C347.883 429.801 347.598 428.551 347.598 427.043C347.598 425.512 347.855 424.238 348.371 423.223C348.895 422.199 349.621 421.434 350.551 420.926C351.48 420.41 352.562 420.152 353.797 420.152ZM353.82 422.695C353.125 422.695 352.547 422.918 352.086 423.363C351.633 423.809 351.371 424.508 351.301 425.461H356.316C356.309 424.93 356.211 424.457 356.023 424.043C355.844 423.629 355.57 423.301 355.203 423.059C354.844 422.816 354.383 422.695 353.82 422.695ZM365.258 426.809L361.039 420.398H365.094L367.637 424.57L370.203 420.398H374.258L369.992 426.809L374.457 433.5H370.391L367.637 429.012L364.871 433.5H360.816L365.258 426.809ZM381.969 430.887C382.359 430.887 382.738 430.848 383.105 430.77C383.48 430.691 383.852 430.594 384.219 430.477V433.137C383.836 433.309 383.359 433.449 382.789 433.559C382.227 433.676 381.609 433.734 380.938 433.734C380.156 433.734 379.453 433.609 378.828 433.359C378.211 433.102 377.723 432.66 377.363 432.035C377.012 431.402 376.836 430.523 376.836 429.398V423.082H375.125V421.57L377.094 420.375L378.125 417.609H380.41V420.398H384.078V423.082H380.41V429.398C380.41 429.898 380.551 430.273 380.832 430.523C381.121 430.766 381.5 430.887 381.969 430.887Z" fill="white"/>
</g>
<defs>
<filter id="filter0_d_6143_17050" x="12" y="76" width="460" height="228" filterUnits="userSpaceOnUse" color-interpolation-filters="sRGB">
<feFlood flood-opacity="0" result="BackgroundImageFix"/>
<feColorMatrix in="SourceAlpha" type="matrix" values="0 0 0 0 0 0 0 0 0 0 0 0 0 0 0 0 0 0 127 0" result="hardAlpha"/>
<feOffset dx="2" dy="2"/>
<feGaussianBlur stdDeviation="3"/>
<feComposite in2="hardAlpha" operator="out"/>
<feColorMatrix type="matrix" values="0 0 0 0 0 0 0 0 0 0 0 0 0 0 0 0 0 0 0.25 0"/>
<feBlend mode="normal" in2="BackgroundImageFix" result="effect1_dropShadow_6143_17050"/>
<feBlend mode="normal" in="SourceGraphic" in2="effect1_dropShadow_6143_17050" result="shape"/>
</filter>
<filter id="filter1_d_6143_17050" x="219" y="180" width="42" height="42" filterUnits="userSpaceOnUse" color-interpolation-filters="sRGB">
<feFlood flood-opacity="0" result="BackgroundImageFix"/>
<feColorMatrix in="SourceAlpha" type="matrix" values="0 0 0 0 0 0 0 0 0 0 0 0 0 0 0 0 0 0 127 0" result="hardAlpha"/>
<feOffset dy="2"/>
<feGaussianBlur stdDeviation="2"/>
<feComposite in2="hardAlpha" operator="out"/>
<feColorMatrix type="matrix" values="0 0 0 0 0 0 0 0 0 0 0 0 0 0 0 0 0 0 0.25 0"/>
<feBlend mode="normal" in2="BackgroundImageFix" result="effect1_dropShadow_6143_17050"/>
<feBlend mode="normal" in="SourceGraphic" in2="effect1_dropShadow_6143_17050" result="shape"/>
</filter>
<filter id="filter2_d_6143_17050" x="12" y="382" width="224" height="88" filterUnits="userSpaceOnUse" color-interpolation-filters="sRGB">
<feFlood flood-opacity="0" result="BackgroundImageFix"/>
<feColorMatrix in="SourceAlpha" type="matrix" values="0 0 0 0 0 0 0 0 0 0 0 0 0 0 0 0 0 0 127 0" result="hardAlpha"/>
<feOffset dy="2"/>
<feGaussianBlur stdDeviation="2"/>
<feComposite in2="hardAlpha" operator="out"/>
<feColorMatrix type="matrix" values="0 0 0 0 0 0 0 0 0 0 0 0 0 0 0 0 0 0 0.25 0"/>
<feBlend mode="normal" in2="BackgroundImageFix" result="effect1_dropShadow_6143_17050"/>
<feBlend mode="normal" in="SourceGraphic" in2="effect1_dropShadow_6143_17050" result="shape"/>
</filter>
<filter id="filter3_d_6143_17050" x="244" y="382" width="224" height="88" filterUnits="userSpaceOnUse" color-interpolation-filters="sRGB">
<feFlood flood-opacity="0" result="BackgroundImageFix"/>
<feColorMatrix in="SourceAlpha" type="matrix" values="0 0 0 0 0 0 0 0 0 0 0 0 0 0 0 0 0 0 127 0" result="hardAlpha"/>
<feOffset dy="2"/>
<feGaussianBlur stdDeviation="2"/>
<feComposite in2="hardAlpha" operator="out"/>
<feColorMatrix type="matrix" values="0 0 0 0 0 0 0 0 0 0 0 0 0 0 0 0 0 0 0.25 0"/>
<feBlend mode="normal" in2="BackgroundImageFix" result="effect1_dropShadow_6143_17050"/>
<feBlend mode="normal" in="SourceGraphic" in2="effect1_dropShadow_6143_17050" result="shape"/>
</filter>
</defs>
</svg>
