<svg width="480" height="480" viewBox="0 0 480 480" fill="none" xmlns="http://www.w3.org/2000/svg">
<rect width="480" height="480" fill="#F6F6F6"/>
<g filter="url(#filter0_d_2981_12140)">
<rect x="16" y="384" width="448" height="80" rx="5" fill="#1A1040" shape-rendering="crispEdges"/>
<path d="M224.484 428.742C224.484 430.289 223.926 431.508 222.809 432.398C221.699 433.289 220.152 433.734 218.168 433.734C216.34 433.734 214.723 433.391 213.316 432.703V429.328C214.473 429.844 215.449 430.207 216.246 430.418C217.051 430.629 217.785 430.734 218.449 430.734C219.246 430.734 219.855 430.582 220.277 430.277C220.707 429.973 220.922 429.52 220.922 428.918C220.922 428.582 220.828 428.285 220.641 428.027C220.453 427.762 220.176 427.508 219.809 427.266C219.449 427.023 218.711 426.637 217.594 426.105C216.547 425.613 215.762 425.141 215.238 424.688C214.715 424.234 214.297 423.707 213.984 423.105C213.672 422.504 213.516 421.801 213.516 420.996C213.516 419.48 214.027 418.289 215.051 417.422C216.082 416.555 217.504 416.121 219.316 416.121C220.207 416.121 221.055 416.227 221.859 416.438C222.672 416.648 223.52 416.945 224.402 417.328L223.23 420.152C222.316 419.777 221.559 419.516 220.957 419.367C220.363 419.219 219.777 419.145 219.199 419.145C218.512 419.145 217.984 419.305 217.617 419.625C217.25 419.945 217.066 420.363 217.066 420.879C217.066 421.199 217.141 421.48 217.289 421.723C217.438 421.957 217.672 422.188 217.992 422.414C218.32 422.633 219.09 423.031 220.301 423.609C221.902 424.375 223 425.145 223.594 425.918C224.188 426.684 224.484 427.625 224.484 428.742ZM235.629 433.5L234.938 431.719H234.844C234.242 432.477 233.621 433.004 232.98 433.301C232.348 433.59 231.52 433.734 230.496 433.734C229.238 433.734 228.246 433.375 227.52 432.656C226.801 431.938 226.441 430.914 226.441 429.586C226.441 428.195 226.926 427.172 227.895 426.516C228.871 425.852 230.34 425.484 232.301 425.414L234.574 425.344V424.77C234.574 423.441 233.895 422.777 232.535 422.777C231.488 422.777 230.258 423.094 228.844 423.727L227.66 421.312C229.168 420.523 230.84 420.129 232.676 420.129C234.434 420.129 235.781 420.512 236.719 421.277C237.656 422.043 238.125 423.207 238.125 424.77V433.5H235.629ZM234.574 427.43L233.191 427.477C232.152 427.508 231.379 427.695 230.871 428.039C230.363 428.383 230.109 428.906 230.109 429.609C230.109 430.617 230.688 431.121 231.844 431.121C232.672 431.121 233.332 430.883 233.824 430.406C234.324 429.93 234.574 429.297 234.574 428.508V427.43ZM244.934 433.5L239.941 420.398H243.68L246.211 427.863C246.492 428.809 246.668 429.703 246.738 430.547H246.809C246.848 429.797 247.023 428.902 247.336 427.863L249.855 420.398H253.594L248.602 433.5H244.934ZM260.906 422.695C260.148 422.695 259.555 422.938 259.125 423.422C258.695 423.898 258.449 424.578 258.387 425.461H263.402C263.387 424.578 263.156 423.898 262.711 423.422C262.266 422.938 261.664 422.695 260.906 422.695ZM261.41 433.734C259.301 433.734 257.652 433.152 256.465 431.988C255.277 430.824 254.684 429.176 254.684 427.043C254.684 424.848 255.23 423.152 256.324 421.957C257.426 420.754 258.945 420.152 260.883 420.152C262.734 420.152 264.176 420.68 265.207 421.734C266.238 422.789 266.754 424.246 266.754 426.105V427.84H258.305C258.344 428.855 258.645 429.648 259.207 430.219C259.77 430.789 260.559 431.074 261.574 431.074C262.363 431.074 263.109 430.992 263.812 430.828C264.516 430.664 265.25 430.402 266.016 430.043V432.809C265.391 433.121 264.723 433.352 264.012 433.5C263.301 433.656 262.434 433.734 261.41 433.734Z" fill="white"/>
</g>
<mask id="path-3-inside-1_2981_12140" fill="white">
<path d="M0 0H480V64H0V0Z"/>
</mask>
<path d="M0 0H480V64H0V0Z" fill="white"/>
<path d="M480 64V63H0V64V65H480V64Z" fill="#D1D1D1" mask="url(#path-3-inside-1_2981_12140)"/>
<path d="M209.363 36.0352C209.363 36.8815 209.158 37.6172 208.748 38.2422C208.338 38.8672 207.739 39.349 206.951 39.6875C206.17 40.026 205.219 40.1953 204.1 40.1953C203.605 40.1953 203.12 40.1628 202.645 40.0977C202.176 40.0326 201.723 39.9382 201.287 39.8145C200.857 39.6842 200.447 39.5247 200.057 39.3359V36.5234C200.734 36.8229 201.437 37.0931 202.166 37.334C202.895 37.5749 203.618 37.6953 204.334 37.6953C204.829 37.6953 205.226 37.6302 205.525 37.5C205.831 37.3698 206.053 37.1908 206.189 36.9629C206.326 36.735 206.395 36.4746 206.395 36.1816C206.395 35.8236 206.274 35.5176 206.033 35.2637C205.792 35.0098 205.46 34.7721 205.037 34.5508C204.62 34.3294 204.148 34.0918 203.621 33.8379C203.289 33.6816 202.928 33.4928 202.537 33.2715C202.146 33.0436 201.775 32.7669 201.424 32.4414C201.072 32.1159 200.783 31.722 200.555 31.2598C200.333 30.791 200.223 30.2311 200.223 29.5801C200.223 28.7272 200.418 27.998 200.809 27.3926C201.199 26.7871 201.756 26.3249 202.479 26.0059C203.208 25.6803 204.067 25.5176 205.057 25.5176C205.799 25.5176 206.505 25.6055 207.176 25.7812C207.853 25.9505 208.559 26.1979 209.295 26.5234L208.318 28.877C207.661 28.61 207.072 28.4049 206.551 28.2617C206.03 28.112 205.499 28.0371 204.959 28.0371C204.581 28.0371 204.259 28.099 203.992 28.2227C203.725 28.3398 203.523 28.5091 203.387 28.7305C203.25 28.9453 203.182 29.196 203.182 29.4824C203.182 29.821 203.279 30.1074 203.475 30.3418C203.676 30.5697 203.976 30.791 204.373 31.0059C204.777 31.2207 205.278 31.4714 205.877 31.7578C206.606 32.1029 207.228 32.4642 207.742 32.8418C208.263 33.2129 208.663 33.6523 208.943 34.1602C209.223 34.6615 209.363 35.2865 209.363 36.0352ZM216.219 28.877C217.228 28.877 218.097 29.0723 218.826 29.4629C219.555 29.847 220.118 30.4069 220.516 31.1426C220.913 31.8783 221.111 32.7767 221.111 33.8379V35.2832H214.07C214.103 36.123 214.354 36.7839 214.822 37.2656C215.298 37.7409 215.955 37.9785 216.795 37.9785C217.492 37.9785 218.13 37.9069 218.709 37.7637C219.288 37.6204 219.884 37.4056 220.496 37.1191V39.4238C219.956 39.6908 219.389 39.8861 218.797 40.0098C218.211 40.1335 217.498 40.1953 216.658 40.1953C215.564 40.1953 214.594 39.9935 213.748 39.5898C212.908 39.1862 212.247 38.571 211.766 37.7441C211.29 36.9173 211.053 35.8757 211.053 34.6191C211.053 33.3431 211.268 32.2819 211.697 31.4355C212.133 30.5827 212.739 29.9447 213.514 29.5215C214.288 29.0918 215.19 28.877 216.219 28.877ZM216.238 30.9961C215.659 30.9961 215.177 31.1816 214.793 31.5527C214.415 31.9238 214.197 32.5065 214.139 33.3008H218.318C218.312 32.8581 218.23 32.4642 218.074 32.1191C217.924 31.7741 217.697 31.5007 217.391 31.2988C217.091 31.097 216.707 30.9961 216.238 30.9961ZM228.133 37.8223C228.458 37.8223 228.774 37.7897 229.08 37.7246C229.393 37.6595 229.702 37.5781 230.008 37.4805V39.6973C229.689 39.8405 229.292 39.9577 228.816 40.0488C228.348 40.1465 227.833 40.1953 227.273 40.1953C226.622 40.1953 226.036 40.0911 225.516 39.8828C225.001 39.668 224.594 39.3001 224.295 38.7793C224.002 38.252 223.855 37.5195 223.855 36.582V31.3184H222.43V30.0586L224.07 29.0625L224.93 26.7578H226.834V29.082H229.891V31.3184H226.834V36.582C226.834 36.9987 226.951 37.3112 227.186 37.5195C227.426 37.7214 227.742 37.8223 228.133 37.8223ZM236.824 37.8223C237.15 37.8223 237.465 37.7897 237.771 37.7246C238.084 37.6595 238.393 37.5781 238.699 37.4805V39.6973C238.38 39.8405 237.983 39.9577 237.508 40.0488C237.039 40.1465 236.525 40.1953 235.965 40.1953C235.314 40.1953 234.728 40.0911 234.207 39.8828C233.693 39.668 233.286 39.3001 232.986 38.7793C232.693 38.252 232.547 37.5195 232.547 36.582V31.3184H231.121V30.0586L232.762 29.0625L233.621 26.7578H235.525V29.082H238.582V31.3184H235.525V36.582C235.525 36.9987 235.643 37.3112 235.877 37.5195C236.118 37.7214 236.434 37.8223 236.824 37.8223ZM243.895 29.082V40H240.916V29.082H243.895ZM242.41 24.8047C242.853 24.8047 243.234 24.9089 243.553 25.1172C243.872 25.319 244.031 25.6999 244.031 26.2598C244.031 26.8132 243.872 27.1973 243.553 27.4121C243.234 27.6204 242.853 27.7246 242.41 27.7246C241.961 27.7246 241.577 27.6204 241.258 27.4121C240.945 27.1973 240.789 26.8132 240.789 26.2598C240.789 25.6999 240.945 25.319 241.258 25.1172C241.577 24.9089 241.961 24.8047 242.41 24.8047ZM253.23 28.877C254.396 28.877 255.333 29.196 256.043 29.834C256.753 30.4655 257.107 31.4811 257.107 32.8809V40H254.129V33.623C254.129 32.8418 253.986 32.2526 253.699 31.8555C253.419 31.4583 252.977 31.2598 252.371 31.2598C251.46 31.2598 250.838 31.569 250.506 32.1875C250.174 32.806 250.008 33.6979 250.008 34.8633V40H247.029V29.082H249.305L249.705 30.4785H249.871C250.105 30.1009 250.395 29.7949 250.74 29.5605C251.092 29.3262 251.479 29.1536 251.902 29.043C252.332 28.9323 252.775 28.877 253.23 28.877ZM263.367 44.8047C261.844 44.8047 260.678 44.5378 259.871 44.0039C259.07 43.4766 258.67 42.7344 258.67 41.7773C258.67 41.1198 258.875 40.5697 259.285 40.127C259.695 39.6842 260.298 39.3685 261.092 39.1797C260.786 39.0495 260.519 38.8379 260.291 38.5449C260.063 38.2454 259.949 37.9297 259.949 37.5977C259.949 37.181 260.07 36.8359 260.311 36.5625C260.551 36.2826 260.9 36.0091 261.355 35.7422C260.783 35.4948 260.327 35.0977 259.988 34.5508C259.656 34.0039 259.49 33.3594 259.49 32.6172C259.49 31.8229 259.663 31.1491 260.008 30.5957C260.359 30.0358 260.867 29.6094 261.531 29.3164C262.202 29.0234 263.016 28.877 263.973 28.877C264.174 28.877 264.409 28.89 264.676 28.916C264.943 28.9421 265.187 28.9714 265.408 29.0039C265.636 29.0365 265.789 29.0625 265.867 29.082H269.676V30.5957L267.967 31.0352C268.123 31.276 268.24 31.5332 268.318 31.8066C268.396 32.0801 268.436 32.3698 268.436 32.6758C268.436 33.8477 268.025 34.7624 267.205 35.4199C266.391 36.071 265.258 36.3965 263.807 36.3965C263.462 36.377 263.136 36.3509 262.83 36.3184C262.68 36.4355 262.566 36.5592 262.488 36.6895C262.41 36.8197 262.371 36.9564 262.371 37.0996C262.371 37.2428 262.43 37.3633 262.547 37.4609C262.671 37.5521 262.853 37.6237 263.094 37.6758C263.341 37.7214 263.647 37.7441 264.012 37.7441H265.867C267.065 37.7441 267.977 38.0013 268.602 38.5156C269.233 39.0299 269.549 39.7852 269.549 40.7812C269.549 42.0573 269.015 43.0469 267.947 43.75C266.886 44.4531 265.359 44.8047 263.367 44.8047ZM263.494 42.8613C264.204 42.8613 264.812 42.793 265.32 42.6562C265.835 42.526 266.229 42.3372 266.502 42.0898C266.775 41.849 266.912 41.5592 266.912 41.2207C266.912 40.9473 266.831 40.7292 266.668 40.5664C266.512 40.4102 266.271 40.2995 265.945 40.2344C265.626 40.1693 265.216 40.1367 264.715 40.1367H263.172C262.807 40.1367 262.479 40.1953 262.186 40.3125C261.899 40.4297 261.671 40.5924 261.502 40.8008C261.333 41.0156 261.248 41.263 261.248 41.543C261.248 41.9531 261.443 42.2754 261.834 42.5098C262.231 42.7441 262.785 42.8613 263.494 42.8613ZM263.973 34.5801C264.533 34.5801 264.943 34.4076 265.203 34.0625C265.464 33.7174 265.594 33.2487 265.594 32.6562C265.594 31.9987 265.457 31.5072 265.184 31.1816C264.917 30.8496 264.513 30.6836 263.973 30.6836C263.426 30.6836 263.016 30.8496 262.742 31.1816C262.469 31.5072 262.332 31.9987 262.332 32.6562C262.332 33.2487 262.465 33.7174 262.732 34.0625C263.006 34.4076 263.419 34.5801 263.973 34.5801ZM279.1 36.7578C279.1 37.5 278.924 38.1283 278.572 38.6426C278.227 39.1504 277.71 39.5378 277.02 39.8047C276.329 40.0651 275.47 40.1953 274.441 40.1953C273.68 40.1953 273.025 40.1465 272.479 40.0488C271.938 39.9512 271.391 39.7884 270.838 39.5605V37.0996C271.43 37.3665 272.065 37.5879 272.742 37.7637C273.426 37.9329 274.025 38.0176 274.539 38.0176C275.118 38.0176 275.532 37.9329 275.779 37.7637C276.033 37.5879 276.16 37.36 276.16 37.0801C276.16 36.8978 276.108 36.735 276.004 36.5918C275.906 36.4421 275.691 36.276 275.359 36.0938C275.027 35.9049 274.507 35.6608 273.797 35.3613C273.113 35.0749 272.55 34.7852 272.107 34.4922C271.671 34.1992 271.346 33.8542 271.131 33.457C270.923 33.0534 270.818 32.5423 270.818 31.9238C270.818 30.9147 271.209 30.1562 271.99 29.6484C272.778 29.1341 273.829 28.877 275.145 28.877C275.822 28.877 276.466 28.9453 277.078 29.082C277.697 29.2188 278.331 29.4368 278.982 29.7363L278.084 31.8848C277.544 31.6504 277.033 31.4583 276.551 31.3086C276.076 31.1589 275.59 31.084 275.096 31.084C274.66 31.084 274.331 31.1426 274.109 31.2598C273.888 31.377 273.777 31.556 273.777 31.7969C273.777 31.9727 273.833 32.1289 273.943 32.2656C274.061 32.4023 274.282 32.5553 274.607 32.7246C274.939 32.8874 275.424 33.099 276.062 33.3594C276.681 33.6133 277.218 33.8802 277.674 34.1602C278.13 34.4336 278.481 34.7754 278.729 35.1855C278.976 35.5892 279.1 36.1133 279.1 36.7578Z" fill="#31344E"/>
<path fill-rule="evenodd" clip-rule="evenodd" d="M31.208 43.2971C32.1518 44.2343 33.6819 44.2343 34.6257 43.2971C35.5694 42.3598 35.5694 40.8402 34.6257 39.9029L29.0845 34.4L47.4168 34.4C48.7515 34.4 49.8335 33.3255 49.8335 32C49.8335 30.6745 48.7515 29.6 47.4168 29.6L29.0845 29.6L34.6257 24.0971C35.5694 23.1598 35.5694 21.6402 34.6257 20.7029C33.6819 19.7657 32.1518 19.7657 31.208 20.7029L21.5418 30.3025C21.1042 30.7368 20.8335 31.337 20.8335 32C20.8335 32.6638 21.1048 33.2646 21.5434 33.6991M21.5434 33.6991L31.208 43.2971L21.5434 33.6991Z" fill="#1A1040"/>
<path d="M459.29 24.0987C460.227 23.1616 460.227 21.6399 459.29 20.7028C458.353 19.7657 456.831 19.7657 455.894 20.7028L448 28.6041L440.099 20.7103C439.162 19.7732 437.64 19.7732 436.703 20.7103C435.766 21.6474 435.766 23.1691 436.703 24.1062L444.604 32L436.71 39.9013C435.773 40.8384 435.773 42.3601 436.71 43.2972C437.647 44.2343 439.169 44.2343 440.106 43.2972L448 35.3959L455.901 43.2897C456.838 44.2268 458.36 44.2268 459.297 43.2897C460.234 42.3526 460.234 40.8309 459.297 39.8938L451.396 32L459.29 24.0987Z" fill="#1A1040"/>
<g filter="url(#filter1_d_2981_12140)">
<rect x="16.5" y="80.5" width="447" height="270" rx="6.5" fill="white" stroke="#D1D1D1"/>
<path d="M41.6504 119L40.3936 115.432H35.4805L34.2236 119H32L36.7812 106.098H39.1191L43.8916 119H41.6504ZM39.8486 113.621L38.627 110.105C38.5801 109.953 38.5127 109.739 38.4248 109.464C38.3369 109.183 38.249 108.898 38.1611 108.611C38.0732 108.318 38 108.072 37.9414 107.873C37.8828 108.113 37.8096 108.383 37.7217 108.682C37.6396 108.975 37.5576 109.25 37.4756 109.508C37.3994 109.766 37.3408 109.965 37.2998 110.105L36.0693 113.621H39.8486ZM47.4512 119H45.377V105.324H47.4512V119ZM54.2803 109.086C55.1475 109.086 55.8916 109.265 56.5127 109.622C57.1338 109.979 57.6113 110.486 57.9453 111.143C58.2793 111.799 58.4463 112.584 58.4463 113.498V114.605H51.9512C51.9746 115.549 52.2266 116.275 52.707 116.785C53.1934 117.295 53.873 117.55 54.7461 117.55C55.3672 117.55 55.9238 117.491 56.416 117.374C56.9141 117.251 57.4268 117.072 57.9541 116.838V118.517C57.4678 118.745 56.9727 118.912 56.4688 119.018C55.9648 119.123 55.3613 119.176 54.6582 119.176C53.7031 119.176 52.8623 118.991 52.1357 118.622C51.415 118.247 50.8496 117.69 50.4395 116.952C50.0352 116.214 49.833 115.297 49.833 114.201C49.833 113.111 50.0176 112.186 50.3867 111.424C50.7559 110.662 51.2744 110.082 51.9424 109.684C52.6104 109.285 53.3896 109.086 54.2803 109.086ZM54.2803 110.642C53.6299 110.642 53.1025 110.853 52.6982 111.274C52.2998 111.696 52.0654 112.314 51.9951 113.129H56.4248C56.4189 112.643 56.3369 112.212 56.1787 111.837C56.0264 111.462 55.792 111.169 55.4756 110.958C55.165 110.747 54.7666 110.642 54.2803 110.642ZM65.7061 109.086C65.8701 109.086 66.0488 109.095 66.2422 109.112C66.4355 109.13 66.6025 109.153 66.7432 109.183L66.5498 111.116C66.4268 111.081 66.2744 111.055 66.0928 111.037C65.917 111.02 65.7588 111.011 65.6182 111.011C65.249 111.011 64.8975 111.072 64.5635 111.195C64.2295 111.312 63.9336 111.494 63.6758 111.74C63.418 111.98 63.2158 112.282 63.0693 112.646C62.9229 113.009 62.8496 113.431 62.8496 113.911V119H60.7754V109.271H62.3926L62.6738 110.984H62.7705C62.9639 110.639 63.2041 110.322 63.4912 110.035C63.7783 109.748 64.1064 109.52 64.4756 109.35C64.8506 109.174 65.2607 109.086 65.7061 109.086ZM72.166 117.506C72.4355 117.506 72.7021 117.482 72.9658 117.436C73.2295 117.383 73.4697 117.321 73.6865 117.251V118.815C73.458 118.915 73.1621 119 72.7988 119.07C72.4355 119.141 72.0576 119.176 71.665 119.176C71.1143 119.176 70.6191 119.085 70.1797 118.903C69.7402 118.716 69.3916 118.396 69.1338 117.945C68.876 117.494 68.7471 116.87 68.7471 116.073V110.844H67.4199V109.921L68.8438 109.191L69.5205 107.108H70.8213V109.271H73.6074V110.844H70.8213V116.047C70.8213 116.539 70.9443 116.905 71.1904 117.146C71.4365 117.386 71.7617 117.506 72.166 117.506ZM82.2031 116.223C82.2031 116.861 82.0479 117.4 81.7373 117.84C81.4268 118.279 80.9727 118.613 80.375 118.842C79.7832 119.064 79.0566 119.176 78.1953 119.176C77.5156 119.176 76.9297 119.126 76.4375 119.026C75.9512 118.933 75.4912 118.786 75.0576 118.587V116.803C75.5205 117.02 76.0391 117.207 76.6133 117.365C77.1934 117.523 77.7412 117.603 78.2568 117.603C78.9365 117.603 79.4258 117.497 79.7246 117.286C80.0234 117.069 80.1729 116.782 80.1729 116.425C80.1729 116.214 80.1113 116.026 79.9883 115.862C79.8711 115.692 79.6484 115.52 79.3203 115.344C78.998 115.162 78.5234 114.945 77.8965 114.693C77.2812 114.447 76.7627 114.201 76.3408 113.955C75.9189 113.709 75.5996 113.413 75.3828 113.067C75.166 112.716 75.0576 112.268 75.0576 111.723C75.0576 110.861 75.3975 110.208 76.0771 109.763C76.7627 109.312 77.668 109.086 78.793 109.086C79.3906 109.086 79.9531 109.147 80.4805 109.271C81.0137 109.388 81.5352 109.561 82.0449 109.789L81.3945 111.345C80.9551 111.151 80.5127 110.993 80.0674 110.87C79.6279 110.741 79.1797 110.677 78.7227 110.677C78.1895 110.677 77.7822 110.759 77.501 110.923C77.2256 111.087 77.0879 111.321 77.0879 111.626C77.0879 111.854 77.1553 112.048 77.29 112.206C77.4248 112.364 77.6562 112.522 77.9844 112.681C78.3184 112.839 78.7812 113.035 79.373 113.27C79.9531 113.492 80.4541 113.727 80.876 113.973C81.3037 114.213 81.6318 114.509 81.8604 114.86C82.0889 115.212 82.2031 115.666 82.2031 116.223Z" fill="#31344E"/>
<g filter="url(#filter2_d_2981_12140)">
<rect x="32" y="138" width="416" height="57" rx="10" fill="white" shape-rendering="crispEdges"/>
<rect x="32.5" y="138.5" width="415" height="56" rx="9.5" stroke="#D9D9D9" shape-rendering="crispEdges"/>
<path d="M49.6875 160.15H53.5107C55.1689 160.15 56.4199 160.391 57.2637 160.871C58.1074 161.352 58.5293 162.181 58.5293 163.358C58.5293 163.851 58.4414 164.296 58.2656 164.694C58.0957 165.087 57.8467 165.412 57.5186 165.67C57.1904 165.922 56.7861 166.092 56.3057 166.18V166.268C56.8037 166.355 57.2461 166.511 57.6328 166.733C58.0254 166.956 58.333 167.275 58.5557 167.691C58.7842 168.107 58.8984 168.646 58.8984 169.309C58.8984 170.094 58.7109 170.762 58.3359 171.312C57.9668 171.863 57.4365 172.282 56.7451 172.569C56.0596 172.856 55.2451 173 54.3018 173H49.6875V160.15ZM51.7969 165.45H53.8184C54.7734 165.45 55.4355 165.295 55.8047 164.984C56.1738 164.674 56.3584 164.22 56.3584 163.622C56.3584 163.013 56.1387 162.573 55.6992 162.304C55.2656 162.034 54.5742 161.899 53.625 161.899H51.7969V165.45ZM51.7969 167.155V171.233H54.0205C55.0049 171.233 55.6963 171.043 56.0947 170.662C56.4932 170.281 56.6924 169.766 56.6924 169.115C56.6924 168.717 56.6016 168.371 56.4199 168.078C56.2441 167.785 55.9541 167.56 55.5498 167.401C55.1455 167.237 54.6006 167.155 53.915 167.155H51.7969ZM65.2178 163.086C66.085 163.086 66.8291 163.265 67.4502 163.622C68.0713 163.979 68.5488 164.486 68.8828 165.143C69.2168 165.799 69.3838 166.584 69.3838 167.498V168.605H62.8887C62.9121 169.549 63.1641 170.275 63.6445 170.785C64.1309 171.295 64.8105 171.55 65.6836 171.55C66.3047 171.55 66.8613 171.491 67.3535 171.374C67.8516 171.251 68.3643 171.072 68.8916 170.838V172.517C68.4053 172.745 67.9102 172.912 67.4062 173.018C66.9023 173.123 66.2988 173.176 65.5957 173.176C64.6406 173.176 63.7998 172.991 63.0732 172.622C62.3525 172.247 61.7871 171.69 61.377 170.952C60.9727 170.214 60.7705 169.297 60.7705 168.201C60.7705 167.111 60.9551 166.186 61.3242 165.424C61.6934 164.662 62.2119 164.082 62.8799 163.684C63.5479 163.285 64.3271 163.086 65.2178 163.086ZM65.2178 164.642C64.5674 164.642 64.04 164.853 63.6357 165.274C63.2373 165.696 63.0029 166.314 62.9326 167.129H67.3623C67.3564 166.643 67.2744 166.212 67.1162 165.837C66.9639 165.462 66.7295 165.169 66.4131 164.958C66.1025 164.747 65.7041 164.642 65.2178 164.642ZM74.9824 173.176C73.8223 173.176 72.8906 172.754 72.1875 171.91C71.4902 171.061 71.1416 169.81 71.1416 168.157C71.1416 166.487 71.4961 165.225 72.2051 164.369C72.9199 163.514 73.8604 163.086 75.0264 163.086C75.5186 163.086 75.9492 163.153 76.3184 163.288C76.6875 163.417 77.0039 163.593 77.2676 163.815C77.5371 164.038 77.7656 164.287 77.9531 164.562H78.0498C78.0205 164.381 77.9854 164.12 77.9443 163.78C77.9092 163.435 77.8916 163.115 77.8916 162.822V159.324H79.9658V173H78.3486L77.9795 171.673H77.8916C77.7158 171.954 77.4932 172.209 77.2236 172.438C76.96 172.66 76.6436 172.839 76.2744 172.974C75.9111 173.108 75.4805 173.176 74.9824 173.176ZM75.5625 171.497C76.4473 171.497 77.0713 171.242 77.4346 170.732C77.7979 170.223 77.9854 169.458 77.9971 168.438V168.166C77.9971 167.076 77.8213 166.241 77.4697 165.661C77.1182 165.075 76.4766 164.782 75.5449 164.782C74.8008 164.782 74.2324 165.084 73.8398 165.688C73.4531 166.285 73.2598 167.12 73.2598 168.192C73.2598 169.265 73.4531 170.085 73.8398 170.653C74.2324 171.216 74.8066 171.497 75.5625 171.497ZM88.333 160.15L83.543 173H81.6094L86.3994 160.15H88.333ZM95.6455 161.759C95.0303 161.759 94.4795 161.87 93.9932 162.093C93.5127 162.315 93.1055 162.638 92.7715 163.06C92.4375 163.476 92.1826 163.982 92.0068 164.58C91.8311 165.172 91.7432 165.84 91.7432 166.584C91.7432 167.58 91.8838 168.438 92.165 169.159C92.4463 169.874 92.874 170.425 93.4482 170.812C94.0225 171.192 94.749 171.383 95.6279 171.383C96.1729 171.383 96.7031 171.33 97.2188 171.225C97.7344 171.119 98.2676 170.976 98.8184 170.794V172.587C98.2969 172.792 97.7695 172.941 97.2363 173.035C96.7031 173.129 96.0879 173.176 95.3906 173.176C94.0781 173.176 92.9883 172.903 92.1211 172.358C91.2598 171.813 90.6152 171.046 90.1875 170.056C89.7656 169.065 89.5547 167.905 89.5547 166.575C89.5547 165.603 89.6895 164.712 89.959 163.903C90.2285 163.095 90.6211 162.397 91.1367 161.812C91.6523 161.22 92.2881 160.766 93.0439 160.449C93.8057 160.127 94.6758 159.966 95.6543 159.966C96.2988 159.966 96.9316 160.039 97.5527 160.186C98.1797 160.326 98.7598 160.528 99.293 160.792L98.5547 162.532C98.1094 162.321 97.6436 162.14 97.1572 161.987C96.6709 161.835 96.167 161.759 95.6455 161.759ZM103.433 159.324V162.761C103.433 163.118 103.421 163.467 103.397 163.807C103.38 164.146 103.359 164.41 103.336 164.598H103.45C103.655 164.258 103.907 163.979 104.206 163.763C104.505 163.54 104.839 163.373 105.208 163.262C105.583 163.15 105.981 163.095 106.403 163.095C107.147 163.095 107.78 163.221 108.302 163.473C108.823 163.719 109.222 164.103 109.497 164.624C109.778 165.146 109.919 165.822 109.919 166.654V173H107.854V167.041C107.854 166.285 107.698 165.72 107.388 165.345C107.077 164.964 106.597 164.773 105.946 164.773C105.319 164.773 104.821 164.905 104.452 165.169C104.089 165.427 103.828 165.811 103.67 166.32C103.512 166.824 103.433 167.439 103.433 168.166V173H101.367V159.324H103.433ZM116.625 163.086C117.855 163.086 118.784 163.358 119.411 163.903C120.044 164.448 120.36 165.298 120.36 166.452V173H118.893L118.497 171.62H118.427C118.151 171.972 117.867 172.262 117.574 172.49C117.281 172.719 116.941 172.889 116.555 173C116.174 173.117 115.708 173.176 115.157 173.176C114.577 173.176 114.059 173.07 113.602 172.859C113.145 172.643 112.784 172.314 112.521 171.875C112.257 171.436 112.125 170.879 112.125 170.205C112.125 169.203 112.497 168.45 113.241 167.946C113.991 167.442 115.122 167.164 116.634 167.111L118.321 167.05V166.54C118.321 165.866 118.163 165.386 117.847 165.099C117.536 164.812 117.097 164.668 116.528 164.668C116.042 164.668 115.57 164.738 115.113 164.879C114.656 165.02 114.211 165.192 113.777 165.397L113.109 163.938C113.584 163.687 114.123 163.481 114.727 163.323C115.336 163.165 115.969 163.086 116.625 163.086ZM118.312 168.351L117.056 168.395C116.024 168.43 115.301 168.605 114.885 168.922C114.469 169.238 114.261 169.672 114.261 170.223C114.261 170.703 114.404 171.055 114.691 171.277C114.979 171.494 115.356 171.603 115.825 171.603C116.54 171.603 117.132 171.4 117.601 170.996C118.075 170.586 118.312 169.985 118.312 169.194V168.351ZM125.317 163.271V173H123.252V163.271H125.317ZM124.298 159.544C124.614 159.544 124.887 159.629 125.115 159.799C125.35 159.969 125.467 160.262 125.467 160.678C125.467 161.088 125.35 161.381 125.115 161.557C124.887 161.727 124.614 161.812 124.298 161.812C123.97 161.812 123.691 161.727 123.463 161.557C123.24 161.381 123.129 161.088 123.129 160.678C123.129 160.262 123.24 159.969 123.463 159.799C123.691 159.629 123.97 159.544 124.298 159.544ZM133.21 163.086C133.374 163.086 133.553 163.095 133.746 163.112C133.939 163.13 134.106 163.153 134.247 163.183L134.054 165.116C133.931 165.081 133.778 165.055 133.597 165.037C133.421 165.02 133.263 165.011 133.122 165.011C132.753 165.011 132.401 165.072 132.067 165.195C131.733 165.312 131.438 165.494 131.18 165.74C130.922 165.98 130.72 166.282 130.573 166.646C130.427 167.009 130.354 167.431 130.354 167.911V173H128.279V163.271H129.896L130.178 164.984H130.274C130.468 164.639 130.708 164.322 130.995 164.035C131.282 163.748 131.61 163.52 131.979 163.35C132.354 163.174 132.765 163.086 133.21 163.086ZM148.213 173H140.936V160.15H148.213V161.926H143.045V165.415H147.888V167.182H143.045V171.216H148.213V173ZM152.933 168.025L149.681 163.271H152.036L154.26 166.689L156.492 163.271H158.839L155.569 168.025L159.006 173H156.642L154.26 169.353L151.869 173H149.522L152.933 168.025ZM162.759 163.271V173H160.693V163.271H162.759ZM161.739 159.544C162.056 159.544 162.328 159.629 162.557 159.799C162.791 159.969 162.908 160.262 162.908 160.678C162.908 161.088 162.791 161.381 162.557 161.557C162.328 161.727 162.056 161.812 161.739 161.812C161.411 161.812 161.133 161.727 160.904 161.557C160.682 161.381 160.57 161.088 160.57 160.678C160.57 160.262 160.682 159.969 160.904 159.799C161.133 159.629 161.411 159.544 161.739 159.544ZM169.342 171.506C169.611 171.506 169.878 171.482 170.142 171.436C170.405 171.383 170.646 171.321 170.862 171.251V172.815C170.634 172.915 170.338 173 169.975 173.07C169.611 173.141 169.233 173.176 168.841 173.176C168.29 173.176 167.795 173.085 167.355 172.903C166.916 172.716 166.567 172.396 166.31 171.945C166.052 171.494 165.923 170.87 165.923 170.073V164.844H164.596V163.921L166.02 163.191L166.696 161.108H167.997V163.271H170.783V164.844H167.997V170.047C167.997 170.539 168.12 170.905 168.366 171.146C168.612 171.386 168.938 171.506 169.342 171.506ZM185.689 173L184.433 169.432H179.52L178.263 173H176.039L180.82 160.098H183.158L187.931 173H185.689ZM183.888 167.621L182.666 164.105C182.619 163.953 182.552 163.739 182.464 163.464C182.376 163.183 182.288 162.898 182.2 162.611C182.112 162.318 182.039 162.072 181.98 161.873C181.922 162.113 181.849 162.383 181.761 162.682C181.679 162.975 181.597 163.25 181.515 163.508C181.438 163.766 181.38 163.965 181.339 164.105L180.108 167.621H183.888ZM191.49 173H189.416V159.324H191.49V173ZM198.319 163.086C199.187 163.086 199.931 163.265 200.552 163.622C201.173 163.979 201.65 164.486 201.984 165.143C202.318 165.799 202.485 166.584 202.485 167.498V168.605H195.99C196.014 169.549 196.266 170.275 196.746 170.785C197.232 171.295 197.912 171.55 198.785 171.55C199.406 171.55 199.963 171.491 200.455 171.374C200.953 171.251 201.466 171.072 201.993 170.838V172.517C201.507 172.745 201.012 172.912 200.508 173.018C200.004 173.123 199.4 173.176 198.697 173.176C197.742 173.176 196.901 172.991 196.175 172.622C195.454 172.247 194.889 171.69 194.479 170.952C194.074 170.214 193.872 169.297 193.872 168.201C193.872 167.111 194.057 166.186 194.426 165.424C194.795 164.662 195.313 164.082 195.981 163.684C196.649 163.285 197.429 163.086 198.319 163.086ZM198.319 164.642C197.669 164.642 197.142 164.853 196.737 165.274C196.339 165.696 196.104 166.314 196.034 167.129H200.464C200.458 166.643 200.376 166.212 200.218 165.837C200.065 165.462 199.831 165.169 199.515 164.958C199.204 164.747 198.806 164.642 198.319 164.642ZM209.745 163.086C209.909 163.086 210.088 163.095 210.281 163.112C210.475 163.13 210.642 163.153 210.782 163.183L210.589 165.116C210.466 165.081 210.313 165.055 210.132 165.037C209.956 165.02 209.798 165.011 209.657 165.011C209.288 165.011 208.937 165.072 208.603 165.195C208.269 165.312 207.973 165.494 207.715 165.74C207.457 165.98 207.255 166.282 207.108 166.646C206.962 167.009 206.889 167.431 206.889 167.911V173H204.814V163.271H206.432L206.713 164.984H206.81C207.003 164.639 207.243 164.322 207.53 164.035C207.817 163.748 208.146 163.52 208.515 163.35C208.89 163.174 209.3 163.086 209.745 163.086ZM216.205 171.506C216.475 171.506 216.741 171.482 217.005 171.436C217.269 171.383 217.509 171.321 217.726 171.251V172.815C217.497 172.915 217.201 173 216.838 173.07C216.475 173.141 216.097 173.176 215.704 173.176C215.153 173.176 214.658 173.085 214.219 172.903C213.779 172.716 213.431 172.396 213.173 171.945C212.915 171.494 212.786 170.87 212.786 170.073V164.844H211.459V163.921L212.883 163.191L213.56 161.108H214.86V163.271H217.646V164.844H214.86V170.047C214.86 170.539 214.983 170.905 215.229 171.146C215.476 171.386 215.801 171.506 216.205 171.506ZM226.242 170.223C226.242 170.861 226.087 171.4 225.776 171.84C225.466 172.279 225.012 172.613 224.414 172.842C223.822 173.064 223.096 173.176 222.234 173.176C221.555 173.176 220.969 173.126 220.477 173.026C219.99 172.933 219.53 172.786 219.097 172.587V170.803C219.56 171.02 220.078 171.207 220.652 171.365C221.232 171.523 221.78 171.603 222.296 171.603C222.976 171.603 223.465 171.497 223.764 171.286C224.062 171.069 224.212 170.782 224.212 170.425C224.212 170.214 224.15 170.026 224.027 169.862C223.91 169.692 223.688 169.52 223.359 169.344C223.037 169.162 222.562 168.945 221.936 168.693C221.32 168.447 220.802 168.201 220.38 167.955C219.958 167.709 219.639 167.413 219.422 167.067C219.205 166.716 219.097 166.268 219.097 165.723C219.097 164.861 219.437 164.208 220.116 163.763C220.802 163.312 221.707 163.086 222.832 163.086C223.43 163.086 223.992 163.147 224.52 163.271C225.053 163.388 225.574 163.561 226.084 163.789L225.434 165.345C224.994 165.151 224.552 164.993 224.106 164.87C223.667 164.741 223.219 164.677 222.762 164.677C222.229 164.677 221.821 164.759 221.54 164.923C221.265 165.087 221.127 165.321 221.127 165.626C221.127 165.854 221.194 166.048 221.329 166.206C221.464 166.364 221.695 166.522 222.023 166.681C222.357 166.839 222.82 167.035 223.412 167.27C223.992 167.492 224.493 167.727 224.915 167.973C225.343 168.213 225.671 168.509 225.899 168.86C226.128 169.212 226.242 169.666 226.242 170.223Z" fill="#31344E"/>
<rect x="381" y="153" width="52" height="27" rx="13.5" fill="white" stroke="#D1D1D1" stroke-width="2"/>
<rect x="394.817" y="155.932" width="24.648" height="21.2484" fill="#BBE4CB"/>
<ellipse cx="419.015" cy="166.501" rx="11.0163" ry="10.7919" fill="#218448"/>
<ellipse cx="394.988" cy="166.501" rx="11.0163" ry="10.7919" fill="#BBE4CB"/>
</g>
<g filter="url(#filter3_d_2981_12140)">
<rect x="32" y="205" width="416" height="57" rx="10" fill="white" shape-rendering="crispEdges"/>
<rect x="32.5" y="205.5" width="415" height="56" rx="9.5" stroke="#D9D9D9" shape-rendering="crispEdges"/>
<path d="M51.7793 240H49.6875V227.15H56.9473V228.926H51.7793V232.934H56.6133V234.7H51.7793V240ZM62.8887 230.086C64.1191 230.086 65.0479 230.358 65.6748 230.903C66.3076 231.448 66.624 232.298 66.624 233.452V240H65.1562L64.7607 238.62H64.6904C64.415 238.972 64.1309 239.262 63.8379 239.49C63.5449 239.719 63.2051 239.889 62.8184 240C62.4375 240.117 61.9717 240.176 61.4209 240.176C60.8408 240.176 60.3223 240.07 59.8652 239.859C59.4082 239.643 59.0479 239.314 58.7842 238.875C58.5205 238.436 58.3887 237.879 58.3887 237.205C58.3887 236.203 58.7607 235.45 59.5049 234.946C60.2549 234.442 61.3857 234.164 62.8975 234.111L64.585 234.05V233.54C64.585 232.866 64.4268 232.386 64.1104 232.099C63.7998 231.812 63.3604 231.668 62.792 231.668C62.3057 231.668 61.834 231.738 61.377 231.879C60.9199 232.02 60.4746 232.192 60.041 232.397L59.373 230.938C59.8477 230.687 60.3867 230.481 60.9902 230.323C61.5996 230.165 62.2324 230.086 62.8887 230.086ZM64.5762 235.351L63.3193 235.395C62.2881 235.43 61.5645 235.605 61.1484 235.922C60.7324 236.238 60.5244 236.672 60.5244 237.223C60.5244 237.703 60.668 238.055 60.9551 238.277C61.2422 238.494 61.6201 238.603 62.0889 238.603C62.8037 238.603 63.3955 238.4 63.8643 237.996C64.3389 237.586 64.5762 236.985 64.5762 236.194V235.351ZM71.5898 240H69.5156V226.324H71.5898V240ZM76.6172 240H74.543V226.324H76.6172V240ZM92.4199 240L91.1631 236.432H86.25L84.9932 240H82.7695L87.5508 227.098H89.8887L94.6611 240H92.4199ZM90.6182 234.621L89.3965 231.105C89.3496 230.953 89.2822 230.739 89.1943 230.464C89.1064 230.183 89.0186 229.898 88.9307 229.611C88.8428 229.318 88.7695 229.072 88.7109 228.873C88.6523 229.113 88.5791 229.383 88.4912 229.682C88.4092 229.975 88.3271 230.25 88.2451 230.508C88.1689 230.766 88.1104 230.965 88.0693 231.105L86.8389 234.621H90.6182ZM98.2207 240H96.1465V226.324H98.2207V240ZM105.05 230.086C105.917 230.086 106.661 230.265 107.282 230.622C107.903 230.979 108.381 231.486 108.715 232.143C109.049 232.799 109.216 233.584 109.216 234.498V235.605H102.721C102.744 236.549 102.996 237.275 103.477 237.785C103.963 238.295 104.643 238.55 105.516 238.55C106.137 238.55 106.693 238.491 107.186 238.374C107.684 238.251 108.196 238.072 108.724 237.838V239.517C108.237 239.745 107.742 239.912 107.238 240.018C106.734 240.123 106.131 240.176 105.428 240.176C104.473 240.176 103.632 239.991 102.905 239.622C102.185 239.247 101.619 238.69 101.209 237.952C100.805 237.214 100.603 236.297 100.603 235.201C100.603 234.111 100.787 233.186 101.156 232.424C101.525 231.662 102.044 231.082 102.712 230.684C103.38 230.285 104.159 230.086 105.05 230.086ZM105.05 231.642C104.399 231.642 103.872 231.853 103.468 232.274C103.069 232.696 102.835 233.314 102.765 234.129H107.194C107.188 233.643 107.106 233.212 106.948 232.837C106.796 232.462 106.562 232.169 106.245 231.958C105.935 231.747 105.536 231.642 105.05 231.642ZM116.476 230.086C116.64 230.086 116.818 230.095 117.012 230.112C117.205 230.13 117.372 230.153 117.513 230.183L117.319 232.116C117.196 232.081 117.044 232.055 116.862 232.037C116.687 232.02 116.528 232.011 116.388 232.011C116.019 232.011 115.667 232.072 115.333 232.195C114.999 232.312 114.703 232.494 114.445 232.74C114.188 232.98 113.985 233.282 113.839 233.646C113.692 234.009 113.619 234.431 113.619 234.911V240H111.545V230.271H113.162L113.443 231.984H113.54C113.733 231.639 113.974 231.322 114.261 231.035C114.548 230.748 114.876 230.52 115.245 230.35C115.62 230.174 116.03 230.086 116.476 230.086ZM122.936 238.506C123.205 238.506 123.472 238.482 123.735 238.436C123.999 238.383 124.239 238.321 124.456 238.251V239.815C124.228 239.915 123.932 240 123.568 240.07C123.205 240.141 122.827 240.176 122.435 240.176C121.884 240.176 121.389 240.085 120.949 239.903C120.51 239.716 120.161 239.396 119.903 238.945C119.646 238.494 119.517 237.87 119.517 237.073V231.844H118.189V230.921L119.613 230.191L120.29 228.108H121.591V230.271H124.377V231.844H121.591V237.047C121.591 237.539 121.714 237.905 121.96 238.146C122.206 238.386 122.531 238.506 122.936 238.506ZM132.973 237.223C132.973 237.861 132.817 238.4 132.507 238.84C132.196 239.279 131.742 239.613 131.145 239.842C130.553 240.064 129.826 240.176 128.965 240.176C128.285 240.176 127.699 240.126 127.207 240.026C126.721 239.933 126.261 239.786 125.827 239.587V237.803C126.29 238.02 126.809 238.207 127.383 238.365C127.963 238.523 128.511 238.603 129.026 238.603C129.706 238.603 130.195 238.497 130.494 238.286C130.793 238.069 130.942 237.782 130.942 237.425C130.942 237.214 130.881 237.026 130.758 236.862C130.641 236.692 130.418 236.52 130.09 236.344C129.768 236.162 129.293 235.945 128.666 235.693C128.051 235.447 127.532 235.201 127.11 234.955C126.688 234.709 126.369 234.413 126.152 234.067C125.936 233.716 125.827 233.268 125.827 232.723C125.827 231.861 126.167 231.208 126.847 230.763C127.532 230.312 128.438 230.086 129.562 230.086C130.16 230.086 130.723 230.147 131.25 230.271C131.783 230.388 132.305 230.561 132.814 230.789L132.164 232.345C131.725 232.151 131.282 231.993 130.837 231.87C130.397 231.741 129.949 231.677 129.492 231.677C128.959 231.677 128.552 231.759 128.271 231.923C127.995 232.087 127.857 232.321 127.857 232.626C127.857 232.854 127.925 233.048 128.06 233.206C128.194 233.364 128.426 233.522 128.754 233.681C129.088 233.839 129.551 234.035 130.143 234.27C130.723 234.492 131.224 234.727 131.646 234.973C132.073 235.213 132.401 235.509 132.63 235.86C132.858 236.212 132.973 236.666 132.973 237.223Z" fill="#31344E"/>
<rect x="381" y="220" width="52" height="27" rx="13.5" fill="white" stroke="#D1D1D1" stroke-width="2"/>
<rect x="394.817" y="222.932" width="24.648" height="21.2484" fill="#BBE4CB"/>
<ellipse cx="419.015" cy="233.501" rx="11.0163" ry="10.7919" fill="#218448"/>
<ellipse cx="394.988" cy="233.501" rx="11.0163" ry="10.7919" fill="#BBE4CB"/>
</g>
<g filter="url(#filter4_d_2981_12140)">
<rect x="32" y="272" width="416" height="57" rx="10" fill="white" shape-rendering="crispEdges"/>
<rect x="32.5" y="272.5" width="415" height="56" rx="9.5" stroke="#D9D9D9" shape-rendering="crispEdges"/>
<path d="M53.2998 294.15C54.4072 294.15 55.3213 294.285 56.042 294.555C56.7686 294.824 57.3076 295.234 57.6592 295.785C58.0166 296.336 58.1953 297.036 58.1953 297.886C58.1953 298.519 58.0781 299.058 57.8438 299.503C57.6094 299.948 57.3018 300.317 56.9209 300.61C56.54 300.903 56.1328 301.138 55.6992 301.313L59.3467 307H56.9648L53.8623 301.85H51.7969V307H49.6875V294.15H53.2998ZM53.1592 295.908H51.7969V300.109H53.2559C54.2344 300.109 54.9434 299.928 55.3828 299.564C55.8281 299.201 56.0508 298.665 56.0508 297.956C56.0508 297.212 55.8135 296.685 55.3389 296.374C54.8701 296.063 54.1436 295.908 53.1592 295.908ZM64.8486 297.086C65.7158 297.086 66.46 297.265 67.0811 297.622C67.7021 297.979 68.1797 298.486 68.5137 299.143C68.8477 299.799 69.0146 300.584 69.0146 301.498V302.605H62.5195C62.543 303.549 62.7949 304.275 63.2754 304.785C63.7617 305.295 64.4414 305.55 65.3145 305.55C65.9355 305.55 66.4922 305.491 66.9844 305.374C67.4824 305.251 67.9951 305.072 68.5225 304.838V306.517C68.0361 306.745 67.541 306.912 67.0371 307.018C66.5332 307.123 65.9297 307.176 65.2266 307.176C64.2715 307.176 63.4307 306.991 62.7041 306.622C61.9834 306.247 61.418 305.69 61.0078 304.952C60.6035 304.214 60.4014 303.297 60.4014 302.201C60.4014 301.111 60.5859 300.186 60.9551 299.424C61.3242 298.662 61.8428 298.082 62.5107 297.684C63.1787 297.285 63.958 297.086 64.8486 297.086ZM64.8486 298.642C64.1982 298.642 63.6709 298.853 63.2666 299.274C62.8682 299.696 62.6338 300.314 62.5635 301.129H66.9932C66.9873 300.643 66.9053 300.212 66.7471 299.837C66.5947 299.462 66.3604 299.169 66.0439 298.958C65.7334 298.747 65.335 298.642 64.8486 298.642ZM76.3359 297.086C77.4902 297.086 78.416 297.508 79.1133 298.352C79.8164 299.195 80.168 300.449 80.168 302.113C80.168 303.215 80.0039 304.144 79.6758 304.899C79.3535 305.649 78.8994 306.218 78.3135 306.604C77.7334 306.985 77.0566 307.176 76.2832 307.176C75.791 307.176 75.3633 307.111 75 306.982C74.6367 306.854 74.3262 306.687 74.0684 306.481C73.8105 306.271 73.5938 306.042 73.418 305.796H73.2949C73.3242 306.03 73.3506 306.291 73.374 306.578C73.4033 306.859 73.418 307.117 73.418 307.352V311.315H71.3438V297.271H73.0312L73.3213 298.615H73.418C73.5996 298.34 73.8193 298.085 74.0771 297.851C74.3408 297.616 74.6572 297.432 75.0264 297.297C75.4014 297.156 75.8379 297.086 76.3359 297.086ZM75.7822 298.773C75.2139 298.773 74.7568 298.888 74.4111 299.116C74.0713 299.339 73.8223 299.676 73.6641 300.127C73.5117 300.578 73.4297 301.144 73.418 301.823V302.113C73.418 302.834 73.4912 303.446 73.6377 303.95C73.79 304.448 74.0391 304.829 74.3848 305.093C74.7363 305.351 75.2109 305.479 75.8086 305.479C76.3125 305.479 76.7285 305.342 77.0566 305.066C77.3906 304.791 77.6396 304.398 77.8037 303.889C77.9678 303.379 78.0498 302.778 78.0498 302.087C78.0498 301.038 77.8623 300.224 77.4873 299.644C77.1182 299.063 76.5498 298.773 75.7822 298.773ZM91.1719 302.113C91.1719 302.922 91.0664 303.64 90.8555 304.267C90.6445 304.894 90.3369 305.424 89.9326 305.857C89.5283 306.285 89.042 306.613 88.4736 306.842C87.9053 307.064 87.2637 307.176 86.5488 307.176C85.8809 307.176 85.2686 307.064 84.7119 306.842C84.1553 306.613 83.6719 306.285 83.2617 305.857C82.8574 305.424 82.5439 304.894 82.3213 304.267C82.0986 303.64 81.9873 302.922 81.9873 302.113C81.9873 301.041 82.1719 300.133 82.541 299.389C82.916 298.639 83.4492 298.067 84.1406 297.675C84.832 297.282 85.6553 297.086 86.6104 297.086C87.5068 297.086 88.2979 297.282 88.9834 297.675C89.6689 298.067 90.2051 298.639 90.5918 299.389C90.9785 300.139 91.1719 301.047 91.1719 302.113ZM84.1143 302.113C84.1143 302.822 84.1992 303.429 84.3691 303.933C84.5449 304.437 84.8145 304.823 85.1777 305.093C85.541 305.356 86.0098 305.488 86.584 305.488C87.1582 305.488 87.627 305.356 87.9902 305.093C88.3535 304.823 88.6201 304.437 88.79 303.933C88.96 303.429 89.0449 302.822 89.0449 302.113C89.0449 301.404 88.96 300.804 88.79 300.312C88.6201 299.813 88.3535 299.436 87.9902 299.178C87.627 298.914 87.1553 298.782 86.5752 298.782C85.7197 298.782 85.0957 299.069 84.7031 299.644C84.3105 300.218 84.1143 301.041 84.1143 302.113ZM100.084 304.223C100.084 304.861 99.9287 305.4 99.6182 305.84C99.3076 306.279 98.8535 306.613 98.2559 306.842C97.6641 307.064 96.9375 307.176 96.0762 307.176C95.3965 307.176 94.8105 307.126 94.3184 307.026C93.832 306.933 93.3721 306.786 92.9385 306.587V304.803C93.4014 305.02 93.9199 305.207 94.4941 305.365C95.0742 305.523 95.6221 305.603 96.1377 305.603C96.8174 305.603 97.3066 305.497 97.6055 305.286C97.9043 305.069 98.0537 304.782 98.0537 304.425C98.0537 304.214 97.9922 304.026 97.8691 303.862C97.752 303.692 97.5293 303.52 97.2012 303.344C96.8789 303.162 96.4043 302.945 95.7773 302.693C95.1621 302.447 94.6436 302.201 94.2217 301.955C93.7998 301.709 93.4805 301.413 93.2637 301.067C93.0469 300.716 92.9385 300.268 92.9385 299.723C92.9385 298.861 93.2783 298.208 93.958 297.763C94.6436 297.312 95.5488 297.086 96.6738 297.086C97.2715 297.086 97.834 297.147 98.3613 297.271C98.8945 297.388 99.416 297.561 99.9258 297.789L99.2754 299.345C98.8359 299.151 98.3936 298.993 97.9482 298.87C97.5088 298.741 97.0605 298.677 96.6035 298.677C96.0703 298.677 95.6631 298.759 95.3818 298.923C95.1064 299.087 94.9688 299.321 94.9688 299.626C94.9688 299.854 95.0361 300.048 95.1709 300.206C95.3057 300.364 95.5371 300.522 95.8652 300.681C96.1992 300.839 96.6621 301.035 97.2539 301.27C97.834 301.492 98.335 301.727 98.7568 301.973C99.1846 302.213 99.5127 302.509 99.7412 302.86C99.9697 303.212 100.084 303.666 100.084 304.223ZM104.382 297.271V307H102.316V297.271H104.382ZM103.362 293.544C103.679 293.544 103.951 293.629 104.18 293.799C104.414 293.969 104.531 294.262 104.531 294.678C104.531 295.088 104.414 295.381 104.18 295.557C103.951 295.727 103.679 295.812 103.362 295.812C103.034 295.812 102.756 295.727 102.527 295.557C102.305 295.381 102.193 295.088 102.193 294.678C102.193 294.262 102.305 293.969 102.527 293.799C102.756 293.629 103.034 293.544 103.362 293.544ZM110.965 305.506C111.234 305.506 111.501 305.482 111.765 305.436C112.028 305.383 112.269 305.321 112.485 305.251V306.815C112.257 306.915 111.961 307 111.598 307.07C111.234 307.141 110.856 307.176 110.464 307.176C109.913 307.176 109.418 307.085 108.979 306.903C108.539 306.716 108.19 306.396 107.933 305.945C107.675 305.494 107.546 304.87 107.546 304.073V298.844H106.219V297.921L107.643 297.191L108.319 295.108H109.62V297.271H112.406V298.844H109.62V304.047C109.62 304.539 109.743 304.905 109.989 305.146C110.235 305.386 110.561 305.506 110.965 305.506ZM116.528 297.271V307H114.463V297.271H116.528ZM115.509 293.544C115.825 293.544 116.098 293.629 116.326 293.799C116.561 293.969 116.678 294.262 116.678 294.678C116.678 295.088 116.561 295.381 116.326 295.557C116.098 295.727 115.825 295.812 115.509 295.812C115.181 295.812 114.902 295.727 114.674 295.557C114.451 295.381 114.34 295.088 114.34 294.678C114.34 294.262 114.451 293.969 114.674 293.799C114.902 293.629 115.181 293.544 115.509 293.544ZM128.104 302.113C128.104 302.922 127.998 303.64 127.787 304.267C127.576 304.894 127.269 305.424 126.864 305.857C126.46 306.285 125.974 306.613 125.405 306.842C124.837 307.064 124.195 307.176 123.48 307.176C122.812 307.176 122.2 307.064 121.644 306.842C121.087 306.613 120.604 306.285 120.193 305.857C119.789 305.424 119.476 304.894 119.253 304.267C119.03 303.64 118.919 302.922 118.919 302.113C118.919 301.041 119.104 300.133 119.473 299.389C119.848 298.639 120.381 298.067 121.072 297.675C121.764 297.282 122.587 297.086 123.542 297.086C124.438 297.086 125.229 297.282 125.915 297.675C126.601 298.067 127.137 298.639 127.523 299.389C127.91 300.139 128.104 301.047 128.104 302.113ZM121.046 302.113C121.046 302.822 121.131 303.429 121.301 303.933C121.477 304.437 121.746 304.823 122.109 305.093C122.473 305.356 122.941 305.488 123.516 305.488C124.09 305.488 124.559 305.356 124.922 305.093C125.285 304.823 125.552 304.437 125.722 303.933C125.892 303.429 125.977 302.822 125.977 302.113C125.977 301.404 125.892 300.804 125.722 300.312C125.552 299.813 125.285 299.436 124.922 299.178C124.559 298.914 124.087 298.782 123.507 298.782C122.651 298.782 122.027 299.069 121.635 299.644C121.242 300.218 121.046 301.041 121.046 302.113ZM135.548 297.086C136.644 297.086 137.496 297.37 138.105 297.938C138.721 298.501 139.028 299.406 139.028 300.654V307H136.963V301.041C136.963 300.285 136.808 299.72 136.497 299.345C136.187 298.964 135.706 298.773 135.056 298.773C134.112 298.773 133.456 299.063 133.087 299.644C132.724 300.224 132.542 301.064 132.542 302.166V307H130.477V297.271H132.085L132.375 298.589H132.489C132.7 298.249 132.961 297.971 133.271 297.754C133.588 297.531 133.939 297.364 134.326 297.253C134.719 297.142 135.126 297.086 135.548 297.086ZM154.77 307L153.513 303.432H148.6L147.343 307H145.119L149.9 294.098H152.238L157.011 307H154.77ZM152.968 301.621L151.746 298.105C151.699 297.953 151.632 297.739 151.544 297.464C151.456 297.183 151.368 296.898 151.28 296.611C151.192 296.318 151.119 296.072 151.061 295.873C151.002 296.113 150.929 296.383 150.841 296.682C150.759 296.975 150.677 297.25 150.595 297.508C150.519 297.766 150.46 297.965 150.419 298.105L149.188 301.621H152.968ZM160.57 307H158.496V293.324H160.57V307ZM167.399 297.086C168.267 297.086 169.011 297.265 169.632 297.622C170.253 297.979 170.73 298.486 171.064 299.143C171.398 299.799 171.565 300.584 171.565 301.498V302.605H165.07C165.094 303.549 165.346 304.275 165.826 304.785C166.312 305.295 166.992 305.55 167.865 305.55C168.486 305.55 169.043 305.491 169.535 305.374C170.033 305.251 170.546 305.072 171.073 304.838V306.517C170.587 306.745 170.092 306.912 169.588 307.018C169.084 307.123 168.48 307.176 167.777 307.176C166.822 307.176 165.981 306.991 165.255 306.622C164.534 306.247 163.969 305.69 163.559 304.952C163.154 304.214 162.952 303.297 162.952 302.201C162.952 301.111 163.137 300.186 163.506 299.424C163.875 298.662 164.394 298.082 165.062 297.684C165.729 297.285 166.509 297.086 167.399 297.086ZM167.399 298.642C166.749 298.642 166.222 298.853 165.817 299.274C165.419 299.696 165.185 300.314 165.114 301.129H169.544C169.538 300.643 169.456 300.212 169.298 299.837C169.146 299.462 168.911 299.169 168.595 298.958C168.284 298.747 167.886 298.642 167.399 298.642ZM178.825 297.086C178.989 297.086 179.168 297.095 179.361 297.112C179.555 297.13 179.722 297.153 179.862 297.183L179.669 299.116C179.546 299.081 179.394 299.055 179.212 299.037C179.036 299.02 178.878 299.011 178.737 299.011C178.368 299.011 178.017 299.072 177.683 299.195C177.349 299.312 177.053 299.494 176.795 299.74C176.537 299.98 176.335 300.282 176.188 300.646C176.042 301.009 175.969 301.431 175.969 301.911V307H173.895V297.271H175.512L175.793 298.984H175.89C176.083 298.639 176.323 298.322 176.61 298.035C176.897 297.748 177.226 297.52 177.595 297.35C177.97 297.174 178.38 297.086 178.825 297.086ZM185.285 305.506C185.555 305.506 185.821 305.482 186.085 305.436C186.349 305.383 186.589 305.321 186.806 305.251V306.815C186.577 306.915 186.281 307 185.918 307.07C185.555 307.141 185.177 307.176 184.784 307.176C184.233 307.176 183.738 307.085 183.299 306.903C182.859 306.716 182.511 306.396 182.253 305.945C181.995 305.494 181.866 304.87 181.866 304.073V298.844H180.539V297.921L181.963 297.191L182.64 295.108H183.94V297.271H186.727V298.844H183.94V304.047C183.94 304.539 184.063 304.905 184.31 305.146C184.556 305.386 184.881 305.506 185.285 305.506ZM195.322 304.223C195.322 304.861 195.167 305.4 194.856 305.84C194.546 306.279 194.092 306.613 193.494 306.842C192.902 307.064 192.176 307.176 191.314 307.176C190.635 307.176 190.049 307.126 189.557 307.026C189.07 306.933 188.61 306.786 188.177 306.587V304.803C188.64 305.02 189.158 305.207 189.732 305.365C190.312 305.523 190.86 305.603 191.376 305.603C192.056 305.603 192.545 305.497 192.844 305.286C193.143 305.069 193.292 304.782 193.292 304.425C193.292 304.214 193.23 304.026 193.107 303.862C192.99 303.692 192.768 303.52 192.439 303.344C192.117 303.162 191.643 302.945 191.016 302.693C190.4 302.447 189.882 302.201 189.46 301.955C189.038 301.709 188.719 301.413 188.502 301.067C188.285 300.716 188.177 300.268 188.177 299.723C188.177 298.861 188.517 298.208 189.196 297.763C189.882 297.312 190.787 297.086 191.912 297.086C192.51 297.086 193.072 297.147 193.6 297.271C194.133 297.388 194.654 297.561 195.164 297.789L194.514 299.345C194.074 299.151 193.632 298.993 193.187 298.87C192.747 298.741 192.299 298.677 191.842 298.677C191.309 298.677 190.901 298.759 190.62 298.923C190.345 299.087 190.207 299.321 190.207 299.626C190.207 299.854 190.274 300.048 190.409 300.206C190.544 300.364 190.775 300.522 191.104 300.681C191.438 300.839 191.9 301.035 192.492 301.27C193.072 301.492 193.573 301.727 193.995 301.973C194.423 302.213 194.751 302.509 194.979 302.86C195.208 303.212 195.322 303.666 195.322 304.223Z" fill="#787B91"/>
<rect x="381" y="287" width="52" height="27" rx="13.5" fill="white" stroke="#D1D1D1" stroke-width="2"/>
<ellipse cx="394.988" cy="300.501" rx="11.0163" ry="10.7919" fill="#707070"/>
</g>
</g>
<defs>
<filter id="filter0_d_2981_12140" x="12" y="382" width="456" height="88" filterUnits="userSpaceOnUse" color-interpolation-filters="sRGB">
<feFlood flood-opacity="0" result="BackgroundImageFix"/>
<feColorMatrix in="SourceAlpha" type="matrix" values="0 0 0 0 0 0 0 0 0 0 0 0 0 0 0 0 0 0 127 0" result="hardAlpha"/>
<feOffset dy="2"/>
<feGaussianBlur stdDeviation="2"/>
<feComposite in2="hardAlpha" operator="out"/>
<feColorMatrix type="matrix" values="0 0 0 0 0 0 0 0 0 0 0 0 0 0 0 0 0 0 0.25 0"/>
<feBlend mode="normal" in2="BackgroundImageFix" result="effect1_dropShadow_2981_12140"/>
<feBlend mode="normal" in="SourceGraphic" in2="effect1_dropShadow_2981_12140" result="shape"/>
</filter>
<filter id="filter1_d_2981_12140" x="10" y="77" width="460" height="283" filterUnits="userSpaceOnUse" color-interpolation-filters="sRGB">
<feFlood flood-opacity="0" result="BackgroundImageFix"/>
<feColorMatrix in="SourceAlpha" type="matrix" values="0 0 0 0 0 0 0 0 0 0 0 0 0 0 0 0 0 0 127 0" result="hardAlpha"/>
<feOffset dy="3"/>
<feGaussianBlur stdDeviation="3"/>
<feComposite in2="hardAlpha" operator="out"/>
<feColorMatrix type="matrix" values="0 0 0 0 0 0 0 0 0 0 0 0 0 0 0 0 0 0 0.25 0"/>
<feBlend mode="normal" in2="BackgroundImageFix" result="effect1_dropShadow_2981_12140"/>
<feBlend mode="normal" in="SourceGraphic" in2="effect1_dropShadow_2981_12140" result="shape"/>
</filter>
<filter id="filter2_d_2981_12140" x="28" y="136" width="424" height="65" filterUnits="userSpaceOnUse" color-interpolation-filters="sRGB">
<feFlood flood-opacity="0" result="BackgroundImageFix"/>
<feColorMatrix in="SourceAlpha" type="matrix" values="0 0 0 0 0 0 0 0 0 0 0 0 0 0 0 0 0 0 127 0" result="hardAlpha"/>
<feOffset dy="2"/>
<feGaussianBlur stdDeviation="2"/>
<feComposite in2="hardAlpha" operator="out"/>
<feColorMatrix type="matrix" values="0 0 0 0 0 0 0 0 0 0 0 0 0 0 0 0 0 0 0.25 0"/>
<feBlend mode="normal" in2="BackgroundImageFix" result="effect1_dropShadow_2981_12140"/>
<feBlend mode="normal" in="SourceGraphic" in2="effect1_dropShadow_2981_12140" result="shape"/>
</filter>
<filter id="filter3_d_2981_12140" x="28" y="203" width="424" height="65" filterUnits="userSpaceOnUse" color-interpolation-filters="sRGB">
<feFlood flood-opacity="0" result="BackgroundImageFix"/>
<feColorMatrix in="SourceAlpha" type="matrix" values="0 0 0 0 0 0 0 0 0 0 0 0 0 0 0 0 0 0 127 0" result="hardAlpha"/>
<feOffset dy="2"/>
<feGaussianBlur stdDeviation="2"/>
<feComposite in2="hardAlpha" operator="out"/>
<feColorMatrix type="matrix" values="0 0 0 0 0 0 0 0 0 0 0 0 0 0 0 0 0 0 0.25 0"/>
<feBlend mode="normal" in2="BackgroundImageFix" result="effect1_dropShadow_2981_12140"/>
<feBlend mode="normal" in="SourceGraphic" in2="effect1_dropShadow_2981_12140" result="shape"/>
</filter>
<filter id="filter4_d_2981_12140" x="28" y="270" width="424" height="65" filterUnits="userSpaceOnUse" color-interpolation-filters="sRGB">
<feFlood flood-opacity="0" result="BackgroundImageFix"/>
<feColorMatrix in="SourceAlpha" type="matrix" values="0 0 0 0 0 0 0 0 0 0 0 0 0 0 0 0 0 0 127 0" result="hardAlpha"/>
<feOffset dy="2"/>
<feGaussianBlur stdDeviation="2"/>
<feComposite in2="hardAlpha" operator="out"/>
<feColorMatrix type="matrix" values="0 0 0 0 0 0 0 0 0 0 0 0 0 0 0 0 0 0 0.25 0"/>
<feBlend mode="normal" in2="BackgroundImageFix" result="effect1_dropShadow_2981_12140"/>
<feBlend mode="normal" in="SourceGraphic" in2="effect1_dropShadow_2981_12140" result="shape"/>
</filter>
</defs>
</svg>
