<svg width="480" height="480" viewBox="0 0 480 480" fill="none" xmlns="http://www.w3.org/2000/svg">
<rect width="480" height="480" fill="#F6F6F6"/>
<g filter="url(#filter0_d_6291_43894)">
<rect x="16" y="80" width="448" height="227" rx="10" fill="white" shape-rendering="crispEdges"/>
<rect x="16.5" y="80.5" width="447" height="226" rx="9.5" stroke="#D9D9D9" shape-rendering="crispEdges"/>
<path d="M33.6875 100.15H37.5107C39.1689 100.15 40.4199 100.391 41.2637 100.871C42.1074 101.352 42.5293 102.181 42.5293 103.358C42.5293 103.851 42.4414 104.296 42.2656 104.694C42.0957 105.087 41.8467 105.412 41.5186 105.67C41.1904 105.922 40.7861 106.092 40.3057 106.18V106.268C40.8037 106.355 41.2461 106.511 41.6328 106.733C42.0254 106.956 42.333 107.275 42.5557 107.691C42.7842 108.107 42.8984 108.646 42.8984 109.309C42.8984 110.094 42.7109 110.762 42.3359 111.312C41.9668 111.863 41.4365 112.282 40.7451 112.569C40.0596 112.856 39.2451 113 38.3018 113H33.6875V100.15ZM35.7969 105.45H37.8184C38.7734 105.45 39.4355 105.295 39.8047 104.984C40.1738 104.674 40.3584 104.22 40.3584 103.622C40.3584 103.013 40.1387 102.573 39.6992 102.304C39.2656 102.034 38.5742 101.899 37.625 101.899H35.7969V105.45ZM35.7969 107.155V111.233H38.0205C39.0049 111.233 39.6963 111.043 40.0947 110.662C40.4932 110.281 40.6924 109.766 40.6924 109.115C40.6924 108.717 40.6016 108.371 40.4199 108.078C40.2441 107.785 39.9541 107.56 39.5498 107.401C39.1455 107.237 38.6006 107.155 37.915 107.155H35.7969ZM49.2178 103.086C50.085 103.086 50.8291 103.265 51.4502 103.622C52.0713 103.979 52.5488 104.486 52.8828 105.143C53.2168 105.799 53.3838 106.584 53.3838 107.498V108.605H46.8887C46.9121 109.549 47.1641 110.275 47.6445 110.785C48.1309 111.295 48.8105 111.55 49.6836 111.55C50.3047 111.55 50.8613 111.491 51.3535 111.374C51.8516 111.251 52.3643 111.072 52.8916 110.838V112.517C52.4053 112.745 51.9102 112.912 51.4062 113.018C50.9023 113.123 50.2988 113.176 49.5957 113.176C48.6406 113.176 47.7998 112.991 47.0732 112.622C46.3525 112.247 45.7871 111.69 45.377 110.952C44.9727 110.214 44.7705 109.297 44.7705 108.201C44.7705 107.111 44.9551 106.186 45.3242 105.424C45.6934 104.662 46.2119 104.082 46.8799 103.684C47.5479 103.285 48.3271 103.086 49.2178 103.086ZM49.2178 104.642C48.5674 104.642 48.04 104.853 47.6357 105.274C47.2373 105.696 47.0029 106.314 46.9326 107.129H51.3623C51.3564 106.643 51.2744 106.212 51.1162 105.837C50.9639 105.462 50.7295 105.169 50.4131 104.958C50.1025 104.747 49.7041 104.642 49.2178 104.642ZM58.9824 113.176C57.8223 113.176 56.8906 112.754 56.1875 111.91C55.4902 111.061 55.1416 109.81 55.1416 108.157C55.1416 106.487 55.4961 105.225 56.2051 104.369C56.9199 103.514 57.8604 103.086 59.0264 103.086C59.5186 103.086 59.9492 103.153 60.3184 103.288C60.6875 103.417 61.0039 103.593 61.2676 103.815C61.5371 104.038 61.7656 104.287 61.9531 104.562H62.0498C62.0205 104.381 61.9854 104.12 61.9443 103.78C61.9092 103.435 61.8916 103.115 61.8916 102.822V99.3242H63.9658V113H62.3486L61.9795 111.673H61.8916C61.7158 111.954 61.4932 112.209 61.2236 112.438C60.96 112.66 60.6436 112.839 60.2744 112.974C59.9111 113.108 59.4805 113.176 58.9824 113.176ZM59.5625 111.497C60.4473 111.497 61.0713 111.242 61.4346 110.732C61.7979 110.223 61.9854 109.458 61.9971 108.438V108.166C61.9971 107.076 61.8213 106.241 61.4697 105.661C61.1182 105.075 60.4766 104.782 59.5449 104.782C58.8008 104.782 58.2324 105.084 57.8398 105.688C57.4531 106.285 57.2598 107.12 57.2598 108.192C57.2598 109.265 57.4531 110.085 57.8398 110.653C58.2324 111.216 58.8066 111.497 59.5625 111.497ZM87.0107 100.15L83.6533 113H81.3506L79.2061 105.301C79.1533 105.113 79.0947 104.891 79.0303 104.633C78.9658 104.375 78.9014 104.111 78.8369 103.842C78.7783 103.572 78.7256 103.326 78.6787 103.104C78.6377 102.875 78.6084 102.699 78.5908 102.576C78.5791 102.699 78.5527 102.872 78.5117 103.095C78.4707 103.317 78.4209 103.563 78.3623 103.833C78.3096 104.097 78.251 104.36 78.1865 104.624C78.1221 104.882 78.0635 105.11 78.0107 105.31L75.9014 113H73.6074L70.2588 100.15H72.377L74.2314 107.683C74.29 107.923 74.3486 108.184 74.4072 108.465C74.4717 108.74 74.5303 109.019 74.583 109.3C74.6416 109.581 74.6943 109.856 74.7412 110.126C74.7881 110.39 74.8262 110.63 74.8555 110.847C74.8848 110.624 74.9229 110.378 74.9697 110.108C75.0166 109.833 75.0664 109.555 75.1191 109.273C75.1777 108.986 75.2363 108.711 75.2949 108.447C75.3594 108.184 75.4238 107.946 75.4883 107.735L77.5801 100.15H79.6367L81.7725 107.762C81.8369 107.979 81.8984 108.222 81.957 108.491C82.0215 108.761 82.083 109.036 82.1416 109.317C82.2002 109.599 82.2529 109.871 82.2998 110.135C82.3467 110.398 82.3848 110.636 82.4141 110.847C82.4551 110.56 82.5078 110.231 82.5723 109.862C82.6367 109.493 82.71 109.118 82.792 108.737C82.874 108.356 82.9561 108.005 83.0381 107.683L84.8838 100.15H87.0107ZM90.6846 103.271V113H88.6191V103.271H90.6846ZM89.665 99.5439C89.9814 99.5439 90.2539 99.6289 90.4824 99.7988C90.7168 99.9688 90.834 100.262 90.834 100.678C90.834 101.088 90.7168 101.381 90.4824 101.557C90.2539 101.727 89.9814 101.812 89.665 101.812C89.3369 101.812 89.0586 101.727 88.8301 101.557C88.6074 101.381 88.4961 101.088 88.4961 100.678C88.4961 100.262 88.6074 99.9688 88.8301 99.7988C89.0586 99.6289 89.3369 99.5439 89.665 99.5439ZM96.916 113.176C95.7559 113.176 94.8242 112.754 94.1211 111.91C93.4238 111.061 93.0752 109.81 93.0752 108.157C93.0752 106.487 93.4297 105.225 94.1387 104.369C94.8535 103.514 95.7939 103.086 96.96 103.086C97.4521 103.086 97.8828 103.153 98.252 103.288C98.6211 103.417 98.9375 103.593 99.2012 103.815C99.4707 104.038 99.6992 104.287 99.8867 104.562H99.9834C99.9541 104.381 99.9189 104.12 99.8779 103.78C99.8428 103.435 99.8252 103.115 99.8252 102.822V99.3242H101.899V113H100.282L99.9131 111.673H99.8252C99.6494 111.954 99.4268 112.209 99.1572 112.438C98.8936 112.66 98.5771 112.839 98.208 112.974C97.8447 113.108 97.4141 113.176 96.916 113.176ZM97.4961 111.497C98.3809 111.497 99.0049 111.242 99.3682 110.732C99.7314 110.223 99.9189 109.458 99.9307 108.438V108.166C99.9307 107.076 99.7549 106.241 99.4033 105.661C99.0518 105.075 98.4102 104.782 97.4785 104.782C96.7344 104.782 96.166 105.084 95.7734 105.688C95.3867 106.285 95.1934 107.12 95.1934 108.192C95.1934 109.265 95.3867 110.085 95.7734 110.653C96.166 111.216 96.7402 111.497 97.4961 111.497ZM108.482 111.506C108.752 111.506 109.019 111.482 109.282 111.436C109.546 111.383 109.786 111.321 110.003 111.251V112.815C109.774 112.915 109.479 113 109.115 113.07C108.752 113.141 108.374 113.176 107.981 113.176C107.431 113.176 106.936 113.085 106.496 112.903C106.057 112.716 105.708 112.396 105.45 111.945C105.192 111.494 105.063 110.87 105.063 110.073V104.844H103.736V103.921L105.16 103.191L105.837 101.108H107.138V103.271H109.924V104.844H107.138V110.047C107.138 110.539 107.261 110.905 107.507 111.146C107.753 111.386 108.078 111.506 108.482 111.506ZM114.046 99.3242V102.761C114.046 103.118 114.034 103.467 114.011 103.807C113.993 104.146 113.973 104.41 113.949 104.598H114.063C114.269 104.258 114.521 103.979 114.819 103.763C115.118 103.54 115.452 103.373 115.821 103.262C116.196 103.15 116.595 103.095 117.017 103.095C117.761 103.095 118.394 103.221 118.915 103.473C119.437 103.719 119.835 104.103 120.11 104.624C120.392 105.146 120.532 105.822 120.532 106.654V113H118.467V107.041C118.467 106.285 118.312 105.72 118.001 105.345C117.69 104.964 117.21 104.773 116.56 104.773C115.933 104.773 115.435 104.905 115.065 105.169C114.702 105.427 114.441 105.811 114.283 106.32C114.125 106.824 114.046 107.439 114.046 108.166V113H111.98V99.3242H114.046Z" fill="#31344E"/>
<path d="M62 183L418 183" stroke="#F6F6F6" stroke-width="16" stroke-linecap="round"/>
<path d="M64 183H416" stroke="#707070"/>
<g filter="url(#filter1_d_6291_43894)">
<circle cx="432" cy="183" r="16" fill="#F6F6F6" stroke="#1A1040" stroke-width="2"/>
<circle cx="432" cy="183" r="9" fill="#1A1040"/>
</g>
<circle cx="240" cy="183" r="16" fill="#F6F6F6"/>
<circle cx="240" cy="183" r="9" fill="#707070"/>
<circle cx="48" cy="183" r="16" fill="#F6F6F6"/>
<circle cx="48" cy="183" r="9" fill="#707070"/>
<path d="M39.5073 220.151C39.5073 220.786 39.3486 221.328 39.0312 221.777C38.7188 222.221 38.2793 222.561 37.7129 222.795C37.1465 223.029 36.48 223.146 35.7134 223.146C35.3081 223.146 34.9248 223.127 34.5635 223.088C34.2021 223.049 33.8701 222.993 33.5674 222.919C33.2646 222.846 32.9985 222.756 32.769 222.648V221.455C33.1353 221.606 33.582 221.748 34.1094 221.879C34.6367 222.006 35.1885 222.07 35.7646 222.07C36.3018 222.07 36.7559 221.999 37.127 221.857C37.498 221.711 37.7788 221.503 37.9692 221.235C38.1646 220.961 38.2622 220.634 38.2622 220.253C38.2622 219.887 38.1816 219.582 38.0205 219.338C37.8594 219.089 37.5908 218.864 37.2148 218.664C36.8438 218.459 36.3359 218.242 35.6914 218.012C35.2373 217.851 34.8369 217.675 34.4902 217.485C34.1436 217.29 33.853 217.07 33.6187 216.826C33.3843 216.582 33.2061 216.298 33.084 215.976C32.9668 215.654 32.9082 215.285 32.9082 214.87C32.9082 214.299 33.0522 213.811 33.3403 213.405C33.6333 212.995 34.0361 212.683 34.5488 212.468C35.0664 212.248 35.6597 212.138 36.3286 212.138C36.8999 212.138 37.4272 212.192 37.9106 212.299C38.3989 212.407 38.8457 212.551 39.251 212.731L38.8628 213.801C38.4771 213.64 38.0669 213.505 37.6323 213.398C37.2026 213.291 36.7583 213.237 36.2993 213.237C35.8403 213.237 35.4521 213.305 35.1348 213.442C34.8223 213.574 34.583 213.762 34.417 214.006C34.251 214.25 34.168 214.541 34.168 214.877C34.168 215.253 34.2461 215.566 34.4023 215.815C34.5635 216.064 34.8174 216.286 35.1641 216.481C35.5156 216.672 35.9795 216.872 36.5557 217.082C37.1855 217.312 37.7202 217.556 38.1597 217.814C38.5991 218.068 38.9336 218.381 39.1631 218.752C39.3926 219.118 39.5073 219.584 39.5073 220.151ZM44.1069 222.15C44.3071 222.15 44.5122 222.133 44.7222 222.099C44.9321 222.065 45.103 222.023 45.2349 221.975V222.919C45.0933 222.983 44.8955 223.037 44.6416 223.081C44.3926 223.125 44.1484 223.146 43.9092 223.146C43.4844 223.146 43.0986 223.073 42.752 222.927C42.4053 222.775 42.127 222.521 41.917 222.165C41.7119 221.809 41.6094 221.315 41.6094 220.686V215.925H40.4668V215.332L41.6167 214.855L42.1001 213.112H42.8325V214.973H45.1836V215.925H42.8325V220.649C42.8325 221.152 42.9473 221.528 43.1768 221.777C43.4111 222.026 43.7212 222.15 44.1069 222.15ZM49.8638 214.841C50.8208 214.841 51.5312 215.056 51.9951 215.485C52.459 215.915 52.6909 216.601 52.6909 217.543V223H51.8047L51.5703 221.813H51.5117C51.2871 222.106 51.0527 222.353 50.8086 222.553C50.5645 222.749 50.2812 222.897 49.959 223C49.6416 223.098 49.251 223.146 48.7871 223.146C48.2988 223.146 47.8643 223.061 47.4834 222.89C47.1074 222.719 46.8096 222.46 46.5898 222.114C46.375 221.767 46.2676 221.328 46.2676 220.795C46.2676 219.995 46.585 219.379 47.2197 218.95C47.8545 218.52 48.8213 218.286 50.1201 218.247L51.5044 218.188V217.697C51.5044 217.004 51.3555 216.518 51.0576 216.24C50.7598 215.961 50.3398 215.822 49.7979 215.822C49.3779 215.822 48.9775 215.883 48.5967 216.005C48.2158 216.127 47.8545 216.271 47.5127 216.438L47.1392 215.515C47.5005 215.329 47.9155 215.17 48.3843 215.039C48.853 214.907 49.3462 214.841 49.8638 214.841ZM51.4897 219.045L50.2666 219.096C49.2656 219.135 48.5601 219.299 48.1499 219.587C47.7397 219.875 47.5347 220.283 47.5347 220.81C47.5347 221.269 47.6738 221.608 47.9521 221.828C48.2305 222.048 48.5991 222.158 49.0581 222.158C49.771 222.158 50.3545 221.96 50.8086 221.564C51.2627 221.169 51.4897 220.576 51.4897 219.785V219.045ZM58.9971 214.826C59.9492 214.826 60.6694 215.061 61.1577 215.529C61.646 215.993 61.8901 216.74 61.8901 217.771V223H60.689V217.851C60.689 217.182 60.5352 216.682 60.2275 216.35C59.9248 216.018 59.4585 215.852 58.8286 215.852C57.9399 215.852 57.3149 216.103 56.9536 216.606C56.5923 217.109 56.4116 217.839 56.4116 218.796V223H55.1958V214.973H56.1772L56.3604 216.13H56.4263C56.5972 215.847 56.8145 215.61 57.0781 215.419C57.3418 215.224 57.6372 215.078 57.9644 214.98C58.2915 214.877 58.6357 214.826 58.9971 214.826ZM67.2515 223.146C66.2358 223.146 65.4302 222.8 64.8345 222.106C64.2437 221.413 63.9482 220.383 63.9482 219.016C63.9482 217.634 64.251 216.591 64.8564 215.888C65.4619 215.18 66.2676 214.826 67.2734 214.826C67.6982 214.826 68.0693 214.882 68.3867 214.995C68.7041 215.107 68.9775 215.258 69.207 215.449C69.4365 215.634 69.6294 215.847 69.7856 216.086H69.8735C69.854 215.935 69.8345 215.727 69.8149 215.463C69.7954 215.2 69.7856 214.985 69.7856 214.819V211.604H71.0015V223H70.02L69.8369 221.857H69.7856C69.6343 222.097 69.4414 222.314 69.207 222.509C68.9775 222.705 68.7017 222.861 68.3794 222.978C68.062 223.09 67.686 223.146 67.2515 223.146ZM67.4419 222.136C68.3013 222.136 68.9092 221.892 69.2656 221.403C69.6221 220.915 69.8003 220.19 69.8003 219.228V219.008C69.8003 217.988 69.6294 217.204 69.2876 216.657C68.9507 216.11 68.3354 215.837 67.4419 215.837C66.6948 215.837 66.1357 216.125 65.7646 216.701C65.3936 217.272 65.208 218.054 65.208 219.045C65.208 220.031 65.3911 220.793 65.7573 221.33C66.1284 221.867 66.6899 222.136 67.4419 222.136ZM76.5825 214.841C77.5396 214.841 78.25 215.056 78.7139 215.485C79.1777 215.915 79.4097 216.601 79.4097 217.543V223H78.5234L78.2891 221.813H78.2305C78.0059 222.106 77.7715 222.353 77.5273 222.553C77.2832 222.749 77 222.897 76.6777 223C76.3604 223.098 75.9697 223.146 75.5059 223.146C75.0176 223.146 74.583 223.061 74.2021 222.89C73.8262 222.719 73.5283 222.46 73.3086 222.114C73.0938 221.767 72.9863 221.328 72.9863 220.795C72.9863 219.995 73.3037 219.379 73.9385 218.95C74.5732 218.52 75.54 218.286 76.8389 218.247L78.2231 218.188V217.697C78.2231 217.004 78.0742 216.518 77.7764 216.24C77.4785 215.961 77.0586 215.822 76.5166 215.822C76.0967 215.822 75.6963 215.883 75.3154 216.005C74.9346 216.127 74.5732 216.271 74.2314 216.438L73.8579 215.515C74.2192 215.329 74.6343 215.17 75.103 215.039C75.5718 214.907 76.0649 214.841 76.5825 214.841ZM78.2085 219.045L76.9854 219.096C75.9844 219.135 75.2788 219.299 74.8687 219.587C74.4585 219.875 74.2534 220.283 74.2534 220.81C74.2534 221.269 74.3926 221.608 74.6709 221.828C74.9492 222.048 75.3179 222.158 75.7769 222.158C76.4897 222.158 77.0732 221.96 77.5273 221.564C77.9814 221.169 78.2085 220.576 78.2085 219.785V219.045ZM85.562 214.826C85.7231 214.826 85.8916 214.836 86.0674 214.855C86.2432 214.87 86.3994 214.892 86.5361 214.921L86.3823 216.049C86.2505 216.015 86.104 215.988 85.9429 215.969C85.7817 215.949 85.6304 215.939 85.4888 215.939C85.1665 215.939 84.8613 216.005 84.5732 216.137C84.29 216.264 84.041 216.45 83.8262 216.694C83.6113 216.933 83.4429 217.224 83.3208 217.565C83.1987 217.902 83.1377 218.278 83.1377 218.693V223H81.9146V214.973H82.9253L83.0571 216.452H83.1084C83.2744 216.154 83.4746 215.883 83.709 215.639C83.9434 215.39 84.2144 215.192 84.522 215.046C84.8345 214.899 85.1812 214.826 85.562 214.826ZM90.9087 223.146C89.8931 223.146 89.0874 222.8 88.4917 222.106C87.9009 221.413 87.6055 220.383 87.6055 219.016C87.6055 217.634 87.9082 216.591 88.5137 215.888C89.1191 215.18 89.9248 214.826 90.9307 214.826C91.3555 214.826 91.7266 214.882 92.0439 214.995C92.3613 215.107 92.6348 215.258 92.8643 215.449C93.0938 215.634 93.2866 215.847 93.4429 216.086H93.5308C93.5112 215.935 93.4917 215.727 93.4722 215.463C93.4526 215.2 93.4429 214.985 93.4429 214.819V211.604H94.6587V223H93.6772L93.4941 221.857H93.4429C93.2915 222.097 93.0986 222.314 92.8643 222.509C92.6348 222.705 92.3589 222.861 92.0366 222.978C91.7192 223.09 91.3433 223.146 90.9087 223.146ZM91.0991 222.136C91.9585 222.136 92.5664 221.892 92.9229 221.403C93.2793 220.915 93.4575 220.19 93.4575 219.228V219.008C93.4575 217.988 93.2866 217.204 92.9448 216.657C92.6079 216.11 91.9927 215.837 91.0991 215.837C90.3521 215.837 89.793 216.125 89.4219 216.701C89.0508 217.272 88.8652 218.054 88.8652 219.045C88.8652 220.031 89.0483 220.793 89.4146 221.33C89.7856 221.867 90.3472 222.136 91.0991 222.136Z" fill="#707070"/>
<path d="M235.001 212.292L232.137 223H230.885L228.761 215.793C228.697 215.588 228.636 215.383 228.578 215.178C228.524 214.968 228.473 214.77 228.424 214.584C228.375 214.394 228.333 214.228 228.299 214.086C228.27 213.94 228.248 213.83 228.233 213.757C228.224 213.83 228.204 213.938 228.175 214.079C228.15 214.221 228.116 214.384 228.072 214.57C228.033 214.755 227.984 214.953 227.926 215.163C227.872 215.373 227.813 215.585 227.75 215.8L225.685 223H224.432L221.59 212.292H222.887L224.608 219.008C224.667 219.233 224.72 219.455 224.769 219.675C224.823 219.89 224.869 220.1 224.908 220.305C224.952 220.51 224.991 220.71 225.025 220.905C225.06 221.101 225.091 221.291 225.121 221.477C225.145 221.286 225.177 221.088 225.216 220.883C225.255 220.673 225.296 220.461 225.34 220.246C225.389 220.031 225.44 219.814 225.494 219.594C225.553 219.375 225.614 219.155 225.677 218.935L227.604 212.292H228.885L230.892 218.986C230.96 219.216 231.024 219.443 231.083 219.667C231.141 219.892 231.192 220.112 231.236 220.327C231.285 220.537 231.327 220.739 231.361 220.935C231.4 221.125 231.434 221.306 231.463 221.477C231.498 221.237 231.539 220.986 231.588 220.722C231.637 220.458 231.693 220.183 231.756 219.895C231.825 219.606 231.898 219.309 231.976 219.001L233.697 212.292H235.001ZM237.726 214.973V223H236.51V214.973H237.726ZM237.132 211.97C237.333 211.97 237.503 212.036 237.645 212.167C237.792 212.294 237.865 212.495 237.865 212.768C237.865 213.037 237.792 213.237 237.645 213.369C237.503 213.5 237.333 213.566 237.132 213.566C236.922 213.566 236.747 213.5 236.605 213.369C236.468 213.237 236.4 213.037 236.4 212.768C236.4 212.495 236.468 212.294 236.605 212.167C236.747 212.036 236.922 211.97 237.132 211.97ZM243.16 223.146C242.145 223.146 241.339 222.8 240.743 222.106C240.152 221.413 239.857 220.383 239.857 219.016C239.857 217.634 240.16 216.591 240.765 215.888C241.371 215.18 242.176 214.826 243.182 214.826C243.607 214.826 243.978 214.882 244.295 214.995C244.613 215.107 244.886 215.258 245.116 215.449C245.345 215.634 245.538 215.847 245.694 216.086H245.782C245.763 215.935 245.743 215.727 245.724 215.463C245.704 215.2 245.694 214.985 245.694 214.819V211.604H246.91V223H245.929L245.746 221.857H245.694C245.543 222.097 245.35 222.314 245.116 222.509C244.886 222.705 244.61 222.861 244.288 222.978C243.971 223.09 243.595 223.146 243.16 223.146ZM243.351 222.136C244.21 222.136 244.818 221.892 245.174 221.403C245.531 220.915 245.709 220.19 245.709 219.228V219.008C245.709 217.988 245.538 217.204 245.196 216.657C244.859 216.11 244.244 215.837 243.351 215.837C242.604 215.837 242.044 216.125 241.673 216.701C241.302 217.272 241.117 218.054 241.117 219.045C241.117 220.031 241.3 220.793 241.666 221.33C242.037 221.867 242.599 222.136 243.351 222.136ZM252.579 214.826C253.263 214.826 253.849 214.978 254.337 215.28C254.825 215.583 255.199 216.008 255.458 216.555C255.716 217.097 255.846 217.731 255.846 218.459V219.213H250.301C250.316 220.156 250.55 220.874 251.004 221.367C251.458 221.86 252.098 222.106 252.923 222.106C253.431 222.106 253.88 222.06 254.271 221.967C254.662 221.875 255.067 221.738 255.487 221.557V222.626C255.082 222.807 254.679 222.939 254.278 223.022C253.883 223.105 253.414 223.146 252.872 223.146C252.101 223.146 251.427 222.99 250.851 222.678C250.279 222.36 249.835 221.896 249.518 221.286C249.2 220.676 249.042 219.929 249.042 219.045C249.042 218.181 249.186 217.434 249.474 216.804C249.767 216.169 250.177 215.681 250.704 215.339C251.236 214.997 251.861 214.826 252.579 214.826ZM252.564 215.822C251.915 215.822 251.397 216.035 251.012 216.459C250.626 216.884 250.396 217.478 250.323 218.239H254.571C254.566 217.761 254.491 217.341 254.344 216.979C254.203 216.613 253.985 216.33 253.692 216.13C253.399 215.925 253.023 215.822 252.564 215.822Z" fill="#31344E"/>
<path d="M399.99 213.237C399.399 213.237 398.867 213.339 398.393 213.544C397.924 213.745 397.524 214.038 397.192 214.423C396.865 214.804 396.613 215.266 396.438 215.808C396.262 216.35 396.174 216.96 396.174 217.639C396.174 218.537 396.313 219.318 396.591 219.982C396.875 220.642 397.294 221.152 397.851 221.513C398.413 221.875 399.113 222.055 399.953 222.055C400.432 222.055 400.881 222.016 401.301 221.938C401.726 221.855 402.138 221.752 402.539 221.63V222.714C402.148 222.861 401.738 222.968 401.308 223.037C400.878 223.11 400.368 223.146 399.777 223.146C398.688 223.146 397.778 222.922 397.045 222.473C396.318 222.019 395.771 221.379 395.405 220.554C395.043 219.729 394.863 218.754 394.863 217.631C394.863 216.821 394.975 216.081 395.2 215.412C395.429 214.738 395.761 214.157 396.196 213.669C396.635 213.181 397.172 212.805 397.807 212.541C398.447 212.272 399.179 212.138 400.004 212.138C400.546 212.138 401.069 212.192 401.572 212.299C402.075 212.407 402.529 212.561 402.934 212.761L402.436 213.815C402.094 213.659 401.718 213.525 401.308 213.413C400.903 213.295 400.463 213.237 399.99 213.237ZM411.306 214.973V223H410.31L410.134 221.872H410.068C409.902 222.15 409.687 222.385 409.423 222.575C409.16 222.766 408.862 222.907 408.53 223C408.203 223.098 407.854 223.146 407.482 223.146C406.848 223.146 406.315 223.044 405.886 222.839C405.456 222.634 405.131 222.316 404.912 221.887C404.697 221.457 404.589 220.905 404.589 220.231V214.973H405.82V220.144C405.82 220.812 405.971 221.313 406.274 221.645C406.577 221.972 407.038 222.136 407.658 222.136C408.254 222.136 408.728 222.023 409.079 221.799C409.436 221.574 409.692 221.245 409.848 220.81C410.004 220.371 410.083 219.833 410.083 219.199V214.973H411.306ZM419.069 220.803C419.069 221.315 418.94 221.748 418.681 222.099C418.427 222.446 418.061 222.707 417.583 222.883C417.109 223.059 416.542 223.146 415.883 223.146C415.322 223.146 414.836 223.103 414.426 223.015C414.016 222.927 413.657 222.802 413.349 222.641V221.521C413.676 221.682 414.067 221.828 414.521 221.96C414.975 222.092 415.439 222.158 415.913 222.158C416.606 222.158 417.109 222.045 417.421 221.821C417.734 221.596 417.89 221.291 417.89 220.905C417.89 220.686 417.827 220.493 417.7 220.327C417.578 220.156 417.37 219.992 417.077 219.836C416.784 219.675 416.379 219.499 415.861 219.309C415.349 219.113 414.904 218.92 414.528 218.73C414.157 218.535 413.869 218.298 413.664 218.02C413.464 217.741 413.364 217.38 413.364 216.936C413.364 216.257 413.637 215.737 414.184 215.375C414.736 215.009 415.458 214.826 416.352 214.826C416.835 214.826 417.287 214.875 417.707 214.973C418.132 215.065 418.527 215.192 418.894 215.354L418.483 216.328C418.151 216.186 417.797 216.066 417.421 215.969C417.045 215.871 416.662 215.822 416.271 215.822C415.71 215.822 415.278 215.915 414.975 216.101C414.677 216.286 414.528 216.54 414.528 216.862C414.528 217.111 414.597 217.316 414.733 217.478C414.875 217.639 415.1 217.79 415.407 217.932C415.715 218.073 416.12 218.239 416.623 218.43C417.126 218.615 417.561 218.808 417.927 219.008C418.293 219.204 418.574 219.443 418.769 219.726C418.969 220.004 419.069 220.363 419.069 220.803ZM423.618 222.15C423.818 222.15 424.023 222.133 424.233 222.099C424.443 222.065 424.614 222.023 424.746 221.975V222.919C424.604 222.983 424.406 223.037 424.152 223.081C423.903 223.125 423.659 223.146 423.42 223.146C422.995 223.146 422.609 223.073 422.263 222.927C421.916 222.775 421.638 222.521 421.428 222.165C421.223 221.809 421.12 221.315 421.12 220.686V215.925H419.978V215.332L421.127 214.855L421.611 213.112H422.343V214.973H424.694V215.925H422.343V220.649C422.343 221.152 422.458 221.528 422.688 221.777C422.922 222.026 423.232 222.15 423.618 222.15ZM433.293 218.972C433.293 219.631 433.208 220.219 433.037 220.737C432.866 221.254 432.619 221.691 432.297 222.048C431.975 222.404 431.584 222.678 431.125 222.868C430.671 223.054 430.156 223.146 429.58 223.146C429.042 223.146 428.549 223.054 428.1 222.868C427.656 222.678 427.27 222.404 426.943 222.048C426.621 221.691 426.369 221.254 426.188 220.737C426.013 220.219 425.925 219.631 425.925 218.972C425.925 218.093 426.074 217.346 426.372 216.73C426.669 216.11 427.094 215.639 427.646 215.317C428.203 214.99 428.864 214.826 429.631 214.826C430.363 214.826 431.003 214.99 431.55 215.317C432.102 215.644 432.529 216.118 432.832 216.738C433.139 217.353 433.293 218.098 433.293 218.972ZM427.185 218.972C427.185 219.616 427.27 220.175 427.441 220.649C427.612 221.123 427.875 221.489 428.232 221.748C428.588 222.006 429.047 222.136 429.609 222.136C430.166 222.136 430.622 222.006 430.979 221.748C431.34 221.489 431.606 221.123 431.777 220.649C431.948 220.175 432.033 219.616 432.033 218.972C432.033 218.332 431.948 217.78 431.777 217.316C431.606 216.848 431.342 216.486 430.986 216.232C430.629 215.979 430.168 215.852 429.602 215.852C428.767 215.852 428.154 216.127 427.763 216.679C427.377 217.231 427.185 217.995 427.185 218.972ZM444.111 214.826C444.995 214.826 445.661 215.058 446.11 215.522C446.56 215.981 446.784 216.721 446.784 217.741V223H445.583V217.8C445.583 217.15 445.441 216.665 445.158 216.342C444.88 216.015 444.465 215.852 443.913 215.852C443.137 215.852 442.573 216.076 442.221 216.525C441.87 216.975 441.694 217.636 441.694 218.51V223H440.485V217.8C440.485 217.365 440.422 217.004 440.295 216.716C440.173 216.428 439.987 216.213 439.738 216.071C439.494 215.925 439.184 215.852 438.808 215.852C438.276 215.852 437.849 215.961 437.526 216.181C437.204 216.401 436.97 216.728 436.823 217.163C436.682 217.592 436.611 218.122 436.611 218.752V223H435.395V214.973H436.376L436.56 216.108H436.625C436.787 215.83 436.989 215.595 437.233 215.405C437.478 215.214 437.751 215.07 438.054 214.973C438.356 214.875 438.679 214.826 439.021 214.826C439.631 214.826 440.141 214.941 440.551 215.17C440.966 215.395 441.267 215.739 441.452 216.203H441.518C441.782 215.739 442.143 215.395 442.602 215.17C443.061 214.941 443.564 214.826 444.111 214.826Z" fill="#707070"/>
<path d="M224.079 132.122C224.079 131.502 224.576 131 225.189 131H254.808C255.421 131 255.917 131.502 255.917 132.122V141.37H246.674V138.26C246.674 137.115 245.754 136.186 244.62 136.186H236.403C235.269 136.186 234.349 137.115 234.349 138.26V141.37H224.079V132.122Z" fill="#707070"/>
<path d="M245.133 138.26V141.37H235.89V138.26C235.89 137.974 236.12 137.742 236.403 137.742H244.62C244.903 137.742 245.133 137.974 245.133 138.26Z" fill="#707070"/>
<path d="M221 145.776C221 143.917 222.49 142.409 224.328 142.409H255.672C257.51 142.409 259 143.917 259 145.776V152.779H221V145.776Z" fill="#707070"/>
<path d="M223.053 153.815H256.945V154.767C256.945 155.386 256.448 155.889 255.836 155.889H224.162C223.55 155.889 223.053 155.386 223.053 154.767V153.815Z" fill="#707070"/>
<path d="M227.164 155.889H225.11V157.961C225.11 158.535 225.57 159 226.137 159C226.704 159 227.164 158.535 227.164 157.961V155.889Z" fill="#707070"/>
<path d="M252.84 155.889H254.894V157.961C254.894 158.535 254.434 159 253.867 159C253.299 159 252.84 158.535 252.84 157.961V155.889Z" fill="#707070"/>
<path d="M444.6 157.499L444.6 133.699C444.6 132.764 445.365 131.999 446.3 131.999C447.235 131.999 448 132.764 448 133.699L448 157.499C448 158.434 447.235 159.199 446.3 159.199C445.365 159.199 444.6 158.434 444.6 157.499ZM414 157.499L414 133.699C414 132.764 414.765 131.999 415.7 131.999C416.635 131.999 417.4 132.764 417.4 133.699L417.4 157.499C417.4 158.434 416.635 159.199 415.7 159.199C414.765 159.199 414 158.434 414 157.499ZM425.9 143.899L425.9 140.856C425.9 140.091 424.982 139.717 424.455 140.261L419.712 145.004C419.372 145.344 419.372 145.871 419.712 146.211L424.455 150.954C424.982 151.481 425.9 151.107 425.9 150.342L425.9 147.299L436.1 147.299L436.1 150.342C436.1 151.107 437.018 151.481 437.545 150.937L442.288 146.194C442.628 145.854 442.628 145.327 442.288 144.987L437.545 140.244C437.018 139.717 436.1 140.091 436.1 140.839L436.1 143.899L425.9 143.899Z" fill="#31344E"/>
<path d="M35.1106 129.166C35.1106 128.577 35.6121 128.1 36.2306 128.1H55.7684C56.387 128.1 56.8884 128.577 56.8884 129.166V137.952H52.222V134.996C52.222 133.908 51.2934 133.026 50.1479 133.026H41.8516C40.7061 133.026 39.7775 133.908 39.7775 134.996V137.952H35.1106V129.166Z" fill="#707070"/>
<path d="M50.6664 134.996V137.952H41.3331V134.996C41.3331 134.724 41.5652 134.503 41.8516 134.503H50.1479C50.4343 134.503 50.6664 134.724 50.6664 134.996Z" fill="#707070"/>
<path d="M32 142.136C32 140.37 33.5043 138.938 35.36 138.938H56.64C58.4957 138.938 60 140.37 60 142.136V148.789H32V142.136Z" fill="#707070"/>
<path d="M33.0367 149.774H58.9626V150.678C58.9626 151.267 58.4612 151.745 57.8426 151.745H34.1567C33.5381 151.745 33.0367 151.267 33.0367 150.678V149.774Z" fill="#707070"/>
<path d="M37.1848 151.745H35.1107V153.713C35.1107 154.258 35.575 154.7 36.1477 154.7C36.7205 154.7 37.1848 154.258 37.1848 153.713V151.745Z" fill="#707070"/>
<path d="M54.8152 151.745H56.8893V153.713C56.8893 154.258 56.425 154.7 55.8522 154.7C55.2795 154.7 54.8152 154.258 54.8152 153.713V151.745Z" fill="#707070"/>
<rect x="32" y="243" width="203" height="48" rx="5" fill="#F6F6F6"/>
<path d="M58.8438 270.352H57.1328V273H55.8672V270.352H50.3438V269.258L55.7812 261.516H57.1328V269.18H58.8438V270.352ZM55.8672 269.18V265.445C55.8672 265.159 55.8698 264.901 55.875 264.672C55.8802 264.438 55.888 264.221 55.8984 264.023C55.9089 263.82 55.9167 263.628 55.9219 263.445C55.9323 263.263 55.9401 263.083 55.9453 262.906H55.8828C55.7839 263.115 55.6693 263.336 55.5391 263.57C55.4141 263.799 55.2865 264.005 55.1562 264.188L51.6328 269.18H55.8672ZM60.0625 268.117C60.0625 267.43 60.1094 266.758 60.2031 266.102C60.3021 265.445 60.4661 264.836 60.6953 264.273C60.9245 263.706 61.237 263.208 61.6328 262.781C62.0286 262.354 62.5208 262.021 63.1094 261.781C63.7031 261.536 64.4141 261.414 65.2422 261.414C65.4766 261.414 65.7292 261.427 66 261.453C66.2708 261.474 66.4948 261.51 66.6719 261.562V262.68C66.4792 262.612 66.2578 262.562 66.0078 262.531C65.763 262.5 65.5156 262.484 65.2656 262.484C64.2969 262.484 63.5339 262.695 62.9766 263.117C62.4245 263.539 62.026 264.112 61.7812 264.836C61.5365 265.555 61.3958 266.365 61.3594 267.266H61.4453C61.6068 267.005 61.8125 266.771 62.0625 266.562C62.3125 266.349 62.6146 266.18 62.9688 266.055C63.3281 265.93 63.7448 265.867 64.2188 265.867C64.8854 265.867 65.4661 266.003 65.9609 266.273C66.4609 266.544 66.8464 266.938 67.1172 267.453C67.3932 267.969 67.5312 268.594 67.5312 269.328C67.5312 270.115 67.3854 270.794 67.0938 271.367C66.8021 271.94 66.3854 272.383 65.8438 272.695C65.3073 273.003 64.6667 273.156 63.9219 273.156C63.3646 273.156 62.8516 273.049 62.3828 272.836C61.9141 272.622 61.5052 272.305 61.1562 271.883C60.8125 271.461 60.5443 270.938 60.3516 270.312C60.1589 269.682 60.0625 268.951 60.0625 268.117ZM63.9062 272.062C64.6146 272.062 65.1823 271.836 65.6094 271.383C66.0365 270.93 66.25 270.245 66.25 269.328C66.25 268.578 66.0599 267.984 65.6797 267.547C65.2995 267.109 64.7266 266.891 63.9609 266.891C63.4401 266.891 62.987 267 62.6016 267.219C62.2161 267.432 61.9167 267.703 61.7031 268.031C61.4896 268.359 61.3828 268.693 61.3828 269.031C61.3828 269.375 61.4323 269.724 61.5312 270.078C61.6354 270.432 61.7917 270.76 62 271.062C62.2083 271.365 62.4714 271.607 62.7891 271.789C63.1068 271.971 63.4792 272.062 63.9062 272.062ZM75.1328 264.438V273H73.8359V264.438H75.1328ZM74.5 261.234C74.7135 261.234 74.8958 261.305 75.0469 261.445C75.2031 261.581 75.2812 261.794 75.2812 262.086C75.2812 262.372 75.2031 262.586 75.0469 262.727C74.8958 262.867 74.7135 262.938 74.5 262.938C74.276 262.938 74.0885 262.867 73.9375 262.727C73.7917 262.586 73.7188 262.372 73.7188 262.086C73.7188 261.794 73.7917 261.581 73.9375 261.445C74.0885 261.305 74.276 261.234 74.5 261.234ZM81.9375 264.281C82.9531 264.281 83.7214 264.531 84.2422 265.031C84.763 265.526 85.0234 266.323 85.0234 267.422V273H83.7422V267.508C83.7422 266.794 83.5781 266.26 83.25 265.906C82.9271 265.552 82.4297 265.375 81.7578 265.375C80.8099 265.375 80.1432 265.643 79.7578 266.18C79.3724 266.716 79.1797 267.495 79.1797 268.516V273H77.8828V264.438H78.9297L79.125 265.672H79.1953C79.3776 265.37 79.6094 265.117 79.8906 264.914C80.1719 264.706 80.487 264.549 80.8359 264.445C81.1849 264.336 81.5521 264.281 81.9375 264.281ZM87.5 272.188C87.5 271.823 87.5885 271.565 87.7656 271.414C87.9427 271.258 88.1589 271.18 88.4141 271.18C88.6797 271.18 88.9036 271.258 89.0859 271.414C89.2682 271.565 89.3594 271.823 89.3594 272.188C89.3594 272.547 89.2682 272.81 89.0859 272.977C88.9036 273.138 88.6797 273.219 88.4141 273.219C88.1589 273.219 87.9427 273.138 87.7656 272.977C87.5885 272.81 87.5 272.547 87.5 272.188Z" fill="#31344E"/>
<g filter="url(#filter2_d_6291_43894)">
<rect x="245" y="243" width="203" height="48" rx="5" fill="white" shape-rendering="crispEdges"/>
<rect x="246.5" y="244.5" width="200" height="45" rx="3.5" stroke="#1A1040" stroke-width="3" shape-rendering="crispEdges"/>
<path d="M290.848 262.733C289.822 262.733 289.028 263.12 288.466 263.894C287.903 264.661 287.622 265.733 287.622 267.11C287.622 269.976 288.697 271.408 290.848 271.408C291.75 271.408 292.843 271.183 294.126 270.731V273.017C293.071 273.456 291.894 273.676 290.593 273.676C288.724 273.676 287.294 273.11 286.304 271.979C285.313 270.843 284.818 269.214 284.818 267.093C284.818 265.757 285.062 264.588 285.548 263.586C286.034 262.578 286.731 261.808 287.64 261.274C288.554 260.735 289.623 260.466 290.848 260.466C292.096 260.466 293.35 260.768 294.609 261.371L293.73 263.586C293.25 263.357 292.767 263.158 292.28 262.988C291.794 262.818 291.316 262.733 290.848 262.733ZM305.728 273.5H303.047V267.761C303.047 266.343 302.52 265.634 301.465 265.634C300.715 265.634 300.173 265.889 299.839 266.398C299.505 266.908 299.338 267.734 299.338 268.877V273.5H296.657V259.824H299.338V262.61C299.338 262.827 299.317 263.337 299.276 264.14L299.215 264.931H299.355C299.953 263.97 300.902 263.489 302.203 263.489C303.357 263.489 304.233 263.8 304.831 264.421C305.429 265.042 305.728 265.933 305.728 267.093V273.5ZM314.728 273.5L314.209 272.164H314.139C313.688 272.732 313.222 273.128 312.741 273.351C312.267 273.567 311.646 273.676 310.878 273.676C309.935 273.676 309.19 273.406 308.646 272.867C308.106 272.328 307.837 271.561 307.837 270.564C307.837 269.521 308.2 268.754 308.927 268.262C309.659 267.764 310.761 267.488 312.231 267.436L313.937 267.383V266.952C313.937 265.956 313.427 265.458 312.407 265.458C311.622 265.458 310.699 265.695 309.639 266.17L308.751 264.359C309.882 263.768 311.136 263.472 312.513 263.472C313.831 263.472 314.842 263.759 315.545 264.333C316.248 264.907 316.6 265.78 316.6 266.952V273.5H314.728ZM313.937 268.947L312.899 268.982C312.12 269.006 311.54 269.146 311.159 269.404C310.778 269.662 310.588 270.055 310.588 270.582C310.588 271.338 311.021 271.716 311.889 271.716C312.51 271.716 313.005 271.537 313.374 271.18C313.749 270.822 313.937 270.348 313.937 269.756V268.947ZM328.438 273.5H325.758V267.761C325.758 267.052 325.632 266.521 325.38 266.17C325.128 265.812 324.727 265.634 324.176 265.634C323.426 265.634 322.884 265.886 322.55 266.39C322.216 266.888 322.049 267.717 322.049 268.877V273.5H319.368V263.674H321.416L321.776 264.931H321.926C322.225 264.456 322.635 264.099 323.156 263.858C323.684 263.612 324.281 263.489 324.949 263.489C326.092 263.489 326.959 263.8 327.551 264.421C328.143 265.036 328.438 265.927 328.438 267.093V273.5ZM339.75 263.674V265.036L338.212 265.432C338.493 265.871 338.634 266.363 338.634 266.908C338.634 267.963 338.265 268.786 337.526 269.378C336.794 269.964 335.774 270.257 334.468 270.257L333.984 270.23L333.589 270.187C333.313 270.397 333.176 270.632 333.176 270.89C333.176 271.276 333.668 271.47 334.652 271.47H336.322C337.4 271.47 338.221 271.701 338.783 272.164C339.352 272.627 339.636 273.307 339.636 274.203C339.636 275.352 339.155 276.242 338.194 276.875C337.239 277.508 335.865 277.824 334.072 277.824C332.701 277.824 331.652 277.584 330.926 277.104C330.205 276.629 329.845 275.961 329.845 275.1C329.845 274.508 330.029 274.013 330.398 273.614C330.768 273.216 331.31 272.932 332.024 272.762C331.749 272.645 331.509 272.454 331.304 272.19C331.099 271.921 330.996 271.637 330.996 271.338C330.996 270.963 331.104 270.652 331.321 270.406C331.538 270.154 331.852 269.908 332.262 269.668C331.746 269.445 331.336 269.088 331.031 268.596C330.732 268.104 330.583 267.523 330.583 266.855C330.583 265.783 330.932 264.954 331.629 264.368C332.326 263.782 333.322 263.489 334.617 263.489C334.893 263.489 335.218 263.516 335.593 263.568C335.974 263.615 336.217 263.65 336.322 263.674H339.75ZM332.165 274.889C332.165 275.258 332.341 275.548 332.692 275.759C333.05 275.97 333.548 276.075 334.187 276.075C335.147 276.075 335.9 275.943 336.445 275.68C336.99 275.416 337.263 275.056 337.263 274.599C337.263 274.229 337.102 273.975 336.779 273.834C336.457 273.693 335.959 273.623 335.285 273.623H333.896C333.404 273.623 332.991 273.737 332.657 273.966C332.329 274.2 332.165 274.508 332.165 274.889ZM333.141 266.891C333.141 267.424 333.261 267.846 333.501 268.156C333.747 268.467 334.119 268.622 334.617 268.622C335.121 268.622 335.49 268.467 335.725 268.156C335.959 267.846 336.076 267.424 336.076 266.891C336.076 265.707 335.59 265.115 334.617 265.115C333.633 265.115 333.141 265.707 333.141 266.891ZM345.445 265.396C344.877 265.396 344.432 265.578 344.109 265.941C343.787 266.299 343.603 266.809 343.556 267.471H347.317C347.306 266.809 347.133 266.299 346.799 265.941C346.465 265.578 346.014 265.396 345.445 265.396ZM345.823 273.676C344.241 273.676 343.005 273.239 342.114 272.366C341.224 271.493 340.778 270.257 340.778 268.657C340.778 267.011 341.188 265.739 342.009 264.843C342.835 263.94 343.975 263.489 345.428 263.489C346.816 263.489 347.897 263.885 348.671 264.676C349.444 265.467 349.831 266.56 349.831 267.954V269.255H343.494C343.523 270.017 343.749 270.611 344.171 271.039C344.593 271.467 345.185 271.681 345.946 271.681C346.538 271.681 347.098 271.619 347.625 271.496C348.152 271.373 348.703 271.177 349.277 270.907V272.981C348.809 273.216 348.308 273.389 347.774 273.5C347.241 273.617 346.591 273.676 345.823 273.676ZM369.413 273.5H366.311L364.57 266.75C364.506 266.51 364.395 266.015 364.236 265.265C364.084 264.509 363.996 264.002 363.973 263.744C363.938 264.061 363.85 264.57 363.709 265.273C363.568 265.971 363.46 266.469 363.384 266.768L361.652 273.5H358.559L355.28 260.65H357.961L359.604 267.664C359.892 268.959 360.1 270.081 360.229 271.03C360.264 270.696 360.343 270.181 360.466 269.483C360.595 268.78 360.715 268.235 360.826 267.849L362.698 260.65H365.273L367.146 267.849C367.228 268.171 367.33 268.663 367.453 269.325C367.576 269.987 367.67 270.556 367.734 271.03C367.793 270.573 367.887 270.005 368.016 269.325C368.145 268.64 368.262 268.086 368.367 267.664L370.002 260.65H372.683L369.413 273.5ZM373.975 261.134C373.975 260.261 374.461 259.824 375.434 259.824C376.406 259.824 376.893 260.261 376.893 261.134C376.893 261.55 376.77 261.875 376.523 262.109C376.283 262.338 375.92 262.452 375.434 262.452C374.461 262.452 373.975 262.013 373.975 261.134ZM376.77 273.5H374.089V263.674H376.77V273.5ZM382.702 273.676C381.548 273.676 380.64 273.228 379.978 272.331C379.321 271.435 378.993 270.192 378.993 268.604C378.993 266.993 379.327 265.739 379.995 264.843C380.669 263.94 381.595 263.489 382.772 263.489C384.009 263.489 384.952 263.97 385.603 264.931H385.69C385.556 264.198 385.488 263.545 385.488 262.971V259.824H388.178V273.5H386.121L385.603 272.226H385.488C384.879 273.192 383.95 273.676 382.702 273.676ZM383.643 271.54C384.328 271.54 384.829 271.341 385.146 270.942C385.468 270.544 385.644 269.867 385.673 268.912V268.622C385.673 267.567 385.509 266.812 385.181 266.354C384.858 265.897 384.331 265.669 383.599 265.669C383.001 265.669 382.535 265.924 382.201 266.434C381.873 266.938 381.709 267.673 381.709 268.64C381.709 269.606 381.876 270.333 382.21 270.819C382.544 271.3 383.021 271.54 383.643 271.54ZM395.121 271.54C395.59 271.54 396.152 271.438 396.809 271.232V273.228C396.141 273.526 395.32 273.676 394.348 273.676C393.275 273.676 392.493 273.406 392.001 272.867C391.515 272.322 391.271 271.508 391.271 270.424V265.687H389.988V264.553L391.465 263.656L392.238 261.582H393.952V263.674H396.703V265.687H393.952V270.424C393.952 270.805 394.058 271.086 394.269 271.268C394.485 271.449 394.77 271.54 395.121 271.54ZM407.874 273.5H405.193V267.761C405.193 266.343 404.666 265.634 403.611 265.634C402.861 265.634 402.319 265.889 401.985 266.398C401.651 266.908 401.484 267.734 401.484 268.877V273.5H398.804V259.824H401.484V262.61C401.484 262.827 401.464 263.337 401.423 264.14L401.361 264.931H401.502C402.1 263.97 403.049 263.489 404.35 263.489C405.504 263.489 406.38 263.8 406.978 264.421C407.575 265.042 407.874 265.933 407.874 267.093V273.5Z" fill="#31344E"/>
</g>
</g>
<mask id="path-23-inside-1_6291_43894" fill="white">
<path d="M0 0H480V64H0V0Z"/>
</mask>
<path d="M0 0H480V64H0V0Z" fill="white"/>
<path d="M480 64V63H0V64V65H480V64Z" fill="#D1D1D1" mask="url(#path-23-inside-1_6291_43894)"/>
<path d="M210.363 36.0352C210.363 36.8816 210.158 37.6173 209.748 38.2423C209.338 38.8673 208.739 39.349 207.951 39.6876C207.17 40.0261 206.219 40.1954 205.1 40.1954C204.605 40.1954 204.12 40.1628 203.645 40.0977C203.176 40.0326 202.723 39.9382 202.287 39.8145C201.857 39.6843 201.447 39.5248 201.057 39.336V36.5235C201.734 36.823 202.437 37.0932 203.166 37.3341C203.895 37.5749 204.618 37.6954 205.334 37.6954C205.829 37.6954 206.226 37.6303 206.525 37.5001C206.831 37.3699 207.053 37.1908 207.189 36.963C207.326 36.7351 207.395 36.4747 207.395 36.1817C207.395 35.8236 207.274 35.5177 207.033 35.2637C206.792 35.0098 206.46 34.7722 206.037 34.5509C205.62 34.3295 205.148 34.0919 204.621 33.838C204.289 33.6817 203.928 33.4929 203.537 33.2716C203.146 33.0437 202.775 32.767 202.424 32.4415C202.072 32.116 201.783 31.7221 201.555 31.2598C201.333 30.7911 201.223 30.2312 201.223 29.5802C201.223 28.7273 201.418 27.9981 201.809 27.3927C202.199 26.7872 202.756 26.3249 203.479 26.0059C204.208 25.6804 205.067 25.5177 206.057 25.5177C206.799 25.5177 207.505 25.6055 208.176 25.7813C208.853 25.9506 209.559 26.198 210.295 26.5235L209.318 28.877C208.661 28.6101 208.072 28.405 207.551 28.2618C207.03 28.1121 206.499 28.0372 205.959 28.0372C205.581 28.0372 205.259 28.099 204.992 28.2227C204.725 28.3399 204.523 28.5092 204.387 28.7305C204.25 28.9454 204.182 29.196 204.182 29.4825C204.182 29.821 204.279 30.1075 204.475 30.3419C204.676 30.5697 204.976 30.7911 205.373 31.0059C205.777 31.2208 206.278 31.4714 206.877 31.7579C207.606 32.1029 208.228 32.4643 208.742 32.8419C209.263 33.213 209.663 33.6524 209.943 34.1602C210.223 34.6615 210.363 35.2865 210.363 36.0352ZM217.219 28.877C218.228 28.877 219.097 29.0723 219.826 29.463C220.555 29.8471 221.118 30.407 221.516 31.1427C221.913 31.8783 222.111 32.7768 222.111 33.838V35.2833H215.07C215.103 36.1231 215.354 36.7839 215.822 37.2657C216.298 37.741 216.955 37.9786 217.795 37.9786C218.492 37.9786 219.13 37.907 219.709 37.7637C220.288 37.6205 220.884 37.4057 221.496 37.1192V39.4239C220.956 39.6908 220.389 39.8861 219.797 40.0098C219.211 40.1335 218.498 40.1954 217.658 40.1954C216.564 40.1954 215.594 39.9936 214.748 39.5899C213.908 39.1863 213.247 38.571 212.766 37.7442C212.29 36.9174 212.053 35.8757 212.053 34.6192C212.053 33.3432 212.268 32.282 212.697 31.4356C213.133 30.5828 213.739 29.9447 214.514 29.5216C215.288 29.0919 216.19 28.877 217.219 28.877ZM217.238 30.9962C216.659 30.9962 216.177 31.1817 215.793 31.5528C215.415 31.9239 215.197 32.5066 215.139 33.3009H219.318C219.312 32.8581 219.23 32.4643 219.074 32.1192C218.924 31.7742 218.697 31.5007 218.391 31.2989C218.091 31.0971 217.707 30.9962 217.238 30.9962ZM229.133 37.8223C229.458 37.8223 229.774 37.7898 230.08 37.7247C230.393 37.6596 230.702 37.5782 231.008 37.4805V39.6973C230.689 39.8406 230.292 39.9578 229.816 40.0489C229.348 40.1466 228.833 40.1954 228.273 40.1954C227.622 40.1954 227.036 40.0912 226.516 39.8829C226.001 39.668 225.594 39.3002 225.295 38.7794C225.002 38.252 224.855 37.5196 224.855 36.5821V31.3184H223.43V30.0587L225.07 29.0626L225.93 26.7579H227.834V29.0821H230.891V31.3184H227.834V36.5821C227.834 36.9988 227.951 37.3113 228.186 37.5196C228.426 37.7214 228.742 37.8223 229.133 37.8223ZM237.824 37.8223C238.15 37.8223 238.465 37.7898 238.771 37.7247C239.084 37.6596 239.393 37.5782 239.699 37.4805V39.6973C239.38 39.8406 238.983 39.9578 238.508 40.0489C238.039 40.1466 237.525 40.1954 236.965 40.1954C236.314 40.1954 235.728 40.0912 235.207 39.8829C234.693 39.668 234.286 39.3002 233.986 38.7794C233.693 38.252 233.547 37.5196 233.547 36.5821V31.3184H232.121V30.0587L233.762 29.0626L234.621 26.7579H236.525V29.0821H239.582V31.3184H236.525V36.5821C236.525 36.9988 236.643 37.3113 236.877 37.5196C237.118 37.7214 237.434 37.8223 237.824 37.8223ZM244.895 29.0821V40.0001H241.916V29.0821H244.895ZM243.41 24.8048C243.853 24.8048 244.234 24.9089 244.553 25.1173C244.872 25.3191 245.031 25.6999 245.031 26.2598C245.031 26.8132 244.872 27.1973 244.553 27.4122C244.234 27.6205 243.853 27.7247 243.41 27.7247C242.961 27.7247 242.577 27.6205 242.258 27.4122C241.945 27.1973 241.789 26.8132 241.789 26.2598C241.789 25.6999 241.945 25.3191 242.258 25.1173C242.577 24.9089 242.961 24.8048 243.41 24.8048ZM254.23 28.877C255.396 28.877 256.333 29.196 257.043 29.8341C257.753 30.4656 258.107 31.4812 258.107 32.8809V40.0001H255.129V33.6231C255.129 32.8419 254.986 32.2527 254.699 31.8555C254.419 31.4584 253.977 31.2598 253.371 31.2598C252.46 31.2598 251.838 31.5691 251.506 32.1876C251.174 32.8061 251.008 33.698 251.008 34.8634V40.0001H248.029V29.0821H250.305L250.705 30.4786H250.871C251.105 30.101 251.395 29.795 251.74 29.5606C252.092 29.3262 252.479 29.1537 252.902 29.043C253.332 28.9324 253.775 28.877 254.23 28.877ZM264.367 44.8048C262.844 44.8048 261.678 44.5378 260.871 44.004C260.07 43.4766 259.67 42.7345 259.67 41.7774C259.67 41.1199 259.875 40.5697 260.285 40.127C260.695 39.6843 261.298 39.3686 262.092 39.1798C261.786 39.0496 261.519 38.838 261.291 38.545C261.063 38.2455 260.949 37.9298 260.949 37.5977C260.949 37.1811 261.07 36.836 261.311 36.5626C261.551 36.2826 261.9 36.0092 262.355 35.7423C261.783 35.4949 261.327 35.0977 260.988 34.5509C260.656 34.004 260.49 33.3595 260.49 32.6173C260.49 31.823 260.663 31.1492 261.008 30.5958C261.359 30.0359 261.867 29.6095 262.531 29.3165C263.202 29.0235 264.016 28.877 264.973 28.877C265.174 28.877 265.409 28.8901 265.676 28.9161C265.943 28.9421 266.187 28.9714 266.408 29.004C266.636 29.0365 266.789 29.0626 266.867 29.0821H270.676V30.5958L268.967 31.0352C269.123 31.2761 269.24 31.5333 269.318 31.8067C269.396 32.0802 269.436 32.3699 269.436 32.6759C269.436 33.8477 269.025 34.7624 268.205 35.42C267.391 36.071 266.258 36.3966 264.807 36.3966C264.462 36.377 264.136 36.351 263.83 36.3184C263.68 36.4356 263.566 36.5593 263.488 36.6895C263.41 36.8197 263.371 36.9565 263.371 37.0997C263.371 37.2429 263.43 37.3634 263.547 37.461C263.671 37.5522 263.853 37.6238 264.094 37.6759C264.341 37.7214 264.647 37.7442 265.012 37.7442H266.867C268.065 37.7442 268.977 38.0014 269.602 38.5157C270.233 39.03 270.549 39.7852 270.549 40.7813C270.549 42.0574 270.015 43.047 268.947 43.7501C267.886 44.4532 266.359 44.8048 264.367 44.8048ZM264.494 42.8614C265.204 42.8614 265.812 42.793 266.32 42.6563C266.835 42.5261 267.229 42.3373 267.502 42.0899C267.775 41.849 267.912 41.5593 267.912 41.2208C267.912 40.9473 267.831 40.7292 267.668 40.5665C267.512 40.4102 267.271 40.2996 266.945 40.2345C266.626 40.1693 266.216 40.1368 265.715 40.1368H264.172C263.807 40.1368 263.479 40.1954 263.186 40.3126C262.899 40.4298 262.671 40.5925 262.502 40.8009C262.333 41.0157 262.248 41.2631 262.248 41.543C262.248 41.9532 262.443 42.2755 262.834 42.5098C263.231 42.7442 263.785 42.8614 264.494 42.8614ZM264.973 34.5802C265.533 34.5802 265.943 34.4076 266.203 34.0626C266.464 33.7175 266.594 33.2488 266.594 32.6563C266.594 31.9988 266.457 31.5072 266.184 31.1817C265.917 30.8497 265.513 30.6837 264.973 30.6837C264.426 30.6837 264.016 30.8497 263.742 31.1817C263.469 31.5072 263.332 31.9988 263.332 32.6563C263.332 33.2488 263.465 33.7175 263.732 34.0626C264.006 34.4076 264.419 34.5802 264.973 34.5802ZM280.1 36.7579C280.1 37.5001 279.924 38.1283 279.572 38.6427C279.227 39.1505 278.71 39.5378 278.02 39.8048C277.329 40.0652 276.47 40.1954 275.441 40.1954C274.68 40.1954 274.025 40.1466 273.479 40.0489C272.938 39.9512 272.391 39.7885 271.838 39.5606V37.0997C272.43 37.3666 273.065 37.588 273.742 37.7637C274.426 37.933 275.025 38.0177 275.539 38.0177C276.118 38.0177 276.532 37.933 276.779 37.7637C277.033 37.588 277.16 37.3601 277.16 37.0802C277.16 36.8979 277.108 36.7351 277.004 36.5919C276.906 36.4421 276.691 36.2761 276.359 36.0938C276.027 35.905 275.507 35.6609 274.797 35.3614C274.113 35.0749 273.55 34.7852 273.107 34.4923C272.671 34.1993 272.346 33.8542 272.131 33.4571C271.923 33.0535 271.818 32.5424 271.818 31.9239C271.818 30.9148 272.209 30.1563 272.99 29.6485C273.778 29.1342 274.829 28.877 276.145 28.877C276.822 28.877 277.466 28.9454 278.078 29.0821C278.697 29.2188 279.331 29.4369 279.982 29.7364L279.084 31.8848C278.544 31.6505 278.033 31.4584 277.551 31.3087C277.076 31.1589 276.59 31.0841 276.096 31.0841C275.66 31.0841 275.331 31.1427 275.109 31.2598C274.888 31.377 274.777 31.5561 274.777 31.797C274.777 31.9727 274.833 32.129 274.943 32.2657C275.061 32.4024 275.282 32.5554 275.607 32.7247C275.939 32.8874 276.424 33.099 277.062 33.3595C277.681 33.6134 278.218 33.8803 278.674 34.1602C279.13 34.4337 279.481 34.7755 279.729 35.1856C279.976 35.5893 280.1 36.1134 280.1 36.7579Z" fill="black"/>
<path d="M459.29 24.0987C460.227 23.1616 460.227 21.6399 459.29 20.7028C458.353 19.7657 456.831 19.7657 455.894 20.7028L448 28.6041L440.099 20.7103C439.162 19.7732 437.64 19.7732 436.703 20.7103C435.766 21.6474 435.766 23.1691 436.703 24.1062L444.604 32L436.71 39.9013C435.773 40.8384 435.773 42.3601 436.71 43.2972C437.647 44.2343 439.169 44.2343 440.106 43.2972L448 35.3959L455.901 43.2897C456.838 44.2268 458.36 44.2268 459.297 43.2897C460.234 42.3526 460.234 40.8309 459.297 39.8938L451.396 32L459.29 24.0987Z" fill="#1A1040"/>
<path d="M36 15.8496C44.8828 15.8496 52.1504 23.1172 52.1504 32C52.1504 40.8828 44.8828 48.1504 36 48.1504C27.1172 48.1504 19.8496 40.8828 19.8496 32C19.8496 23.1172 27.1172 15.8496 36 15.8496ZM36 19.1504C28.8828 19.1504 23.1504 24.8828 23.1504 32C23.1504 39.1172 28.8828 44.8496 36 44.8496C43.1172 44.8496 48.8496 39.1172 48.8496 32C48.8496 24.8828 43.1172 19.1504 36 19.1504Z" fill="#1A1040" stroke="#1A1040" stroke-width="0.3"/>
<path d="M36 23.8496C37.1874 23.8496 38.1504 24.8126 38.1504 26C38.1504 27.1874 37.1874 28.1504 36 28.1504C34.8126 28.1504 33.8496 27.1874 33.8496 26C33.8496 24.8126 34.8126 23.8496 36 23.8496Z" fill="#1A1040" stroke="#1A1040" stroke-width="0.3"/>
<path d="M36 29.8496C37.1828 29.8496 38.1504 30.8172 38.1504 32V38C38.1504 39.1828 37.1828 40.1504 36 40.1504C34.8172 40.1504 33.8496 39.1828 33.8496 38V32C33.8496 30.8172 34.8172 29.8496 36 29.8496Z" fill="#1A1040" stroke="#1A1040" stroke-width="0.3"/>
<g filter="url(#filter3_d_6291_43894)">
<rect x="16" y="384" width="216" height="80" rx="5" fill="white" shape-rendering="crispEdges"/>
<rect x="17.5" y="385.5" width="213" height="77" rx="3.5" stroke="#1A1040" stroke-width="3" shape-rendering="crispEdges"/>
<path d="M97.2227 416.367H102.555C104.836 416.367 106.562 416.688 107.734 417.328C108.906 417.969 109.492 419.094 109.492 420.703C109.492 421.352 109.387 421.938 109.176 422.461C108.973 422.984 108.676 423.414 108.285 423.75C107.895 424.086 107.418 424.305 106.855 424.406V424.523C107.426 424.641 107.941 424.844 108.402 425.133C108.863 425.414 109.23 425.828 109.504 426.375C109.785 426.914 109.926 427.633 109.926 428.531C109.926 429.57 109.672 430.461 109.164 431.203C108.656 431.945 107.93 432.516 106.984 432.914C106.047 433.305 104.93 433.5 103.633 433.5H97.2227V416.367ZM100.855 423.152H102.965C104.02 423.152 104.75 422.988 105.156 422.66C105.562 422.324 105.766 421.832 105.766 421.184C105.766 420.527 105.523 420.059 105.039 419.777C104.562 419.488 103.805 419.344 102.766 419.344H100.855V423.152ZM100.855 426.035V430.5H103.223C104.316 430.5 105.078 430.289 105.508 429.867C105.938 429.445 106.152 428.879 106.152 428.168C106.152 427.746 106.059 427.375 105.871 427.055C105.684 426.734 105.367 426.484 104.922 426.305C104.484 426.125 103.879 426.035 103.105 426.035H100.855ZM118.434 420.129C120.191 420.129 121.539 420.512 122.477 421.277C123.414 422.043 123.883 423.207 123.883 424.77V433.5H121.387L120.695 431.719H120.602C120.227 432.188 119.844 432.57 119.453 432.867C119.062 433.164 118.613 433.383 118.105 433.523C117.598 433.664 116.98 433.734 116.254 433.734C115.48 433.734 114.785 433.586 114.168 433.289C113.559 432.992 113.078 432.539 112.727 431.93C112.375 431.312 112.199 430.531 112.199 429.586C112.199 428.195 112.688 427.172 113.664 426.516C114.641 425.852 116.105 425.484 118.059 425.414L120.332 425.344V424.77C120.332 424.082 120.152 423.578 119.793 423.258C119.434 422.938 118.934 422.777 118.293 422.777C117.66 422.777 117.039 422.867 116.43 423.047C115.82 423.227 115.211 423.453 114.602 423.727L113.418 421.312C114.113 420.945 114.891 420.656 115.75 420.445C116.617 420.234 117.512 420.129 118.434 420.129ZM120.332 427.43L118.949 427.477C117.793 427.508 116.988 427.715 116.535 428.098C116.09 428.48 115.867 428.984 115.867 429.609C115.867 430.156 116.027 430.547 116.348 430.781C116.668 431.008 117.086 431.121 117.602 431.121C118.367 431.121 119.012 430.895 119.535 430.441C120.066 429.988 120.332 429.344 120.332 428.508V427.43ZM132.895 433.734C131.598 433.734 130.492 433.5 129.578 433.031C128.664 432.555 127.969 431.82 127.492 430.828C127.016 429.836 126.777 428.566 126.777 427.02C126.777 425.418 127.047 424.113 127.586 423.105C128.133 422.09 128.887 421.344 129.848 420.867C130.816 420.391 131.938 420.152 133.211 420.152C134.117 420.152 134.898 420.242 135.555 420.422C136.219 420.594 136.797 420.801 137.289 421.043L136.234 423.809C135.672 423.582 135.148 423.398 134.664 423.258C134.18 423.109 133.695 423.035 133.211 423.035C132.586 423.035 132.066 423.184 131.652 423.48C131.238 423.77 130.93 424.207 130.727 424.793C130.523 425.379 130.422 426.113 130.422 426.996C130.422 427.863 130.531 428.582 130.75 429.152C130.969 429.723 131.285 430.148 131.699 430.43C132.113 430.703 132.617 430.84 133.211 430.84C133.953 430.84 134.613 430.742 135.191 430.547C135.77 430.344 136.332 430.062 136.879 429.703V432.762C136.332 433.105 135.758 433.352 135.156 433.5C134.562 433.656 133.809 433.734 132.895 433.734ZM143.5 415.266V423.422C143.5 423.914 143.48 424.406 143.441 424.898C143.402 425.391 143.359 425.883 143.312 426.375H143.359C143.602 426.031 143.848 425.691 144.098 425.355C144.355 425.02 144.629 424.695 144.918 424.383L148.586 420.398H152.617L147.414 426.082L152.934 433.5H148.809L145.035 428.191L143.5 429.422V433.5H139.926V415.266H143.5Z" fill="#1A1040"/>
</g>
<g filter="url(#filter4_d_6291_43894)">
<rect x="248" y="384" width="216" height="80" rx="5" fill="#1A1040" shape-rendering="crispEdges"/>
<path d="M344.352 433.5H339.734L332.281 420.539H332.176C332.207 421.078 332.234 421.621 332.258 422.168C332.281 422.715 332.305 423.262 332.328 423.809C332.352 424.348 332.375 424.891 332.398 425.438V433.5H329.152V416.367H333.734L341.176 429.199H341.258C341.242 428.668 341.223 428.141 341.199 427.617C341.176 427.094 341.152 426.57 341.129 426.047C341.113 425.523 341.098 425 341.082 424.477V416.367H344.352V433.5ZM353.797 420.152C355.008 420.152 356.051 420.387 356.926 420.855C357.801 421.316 358.477 421.988 358.953 422.871C359.43 423.754 359.668 424.832 359.668 426.105V427.84H351.219C351.258 428.848 351.559 429.641 352.121 430.219C352.691 430.789 353.48 431.074 354.488 431.074C355.324 431.074 356.09 430.988 356.785 430.816C357.48 430.645 358.195 430.387 358.93 430.043V432.809C358.281 433.129 357.602 433.363 356.891 433.512C356.188 433.66 355.332 433.734 354.324 433.734C353.012 433.734 351.848 433.492 350.832 433.008C349.824 432.523 349.031 431.785 348.453 430.793C347.883 429.801 347.598 428.551 347.598 427.043C347.598 425.512 347.855 424.238 348.371 423.223C348.895 422.199 349.621 421.434 350.551 420.926C351.48 420.41 352.562 420.152 353.797 420.152ZM353.82 422.695C353.125 422.695 352.547 422.918 352.086 423.363C351.633 423.809 351.371 424.508 351.301 425.461H356.316C356.309 424.93 356.211 424.457 356.023 424.043C355.844 423.629 355.57 423.301 355.203 423.059C354.844 422.816 354.383 422.695 353.82 422.695ZM365.258 426.809L361.039 420.398H365.094L367.637 424.57L370.203 420.398H374.258L369.992 426.809L374.457 433.5H370.391L367.637 429.012L364.871 433.5H360.816L365.258 426.809ZM381.969 430.887C382.359 430.887 382.738 430.848 383.105 430.77C383.48 430.691 383.852 430.594 384.219 430.477V433.137C383.836 433.309 383.359 433.449 382.789 433.559C382.227 433.676 381.609 433.734 380.938 433.734C380.156 433.734 379.453 433.609 378.828 433.359C378.211 433.102 377.723 432.66 377.363 432.035C377.012 431.402 376.836 430.523 376.836 429.398V423.082H375.125V421.57L377.094 420.375L378.125 417.609H380.41V420.398H384.078V423.082H380.41V429.398C380.41 429.898 380.551 430.273 380.832 430.523C381.121 430.766 381.5 430.887 381.969 430.887Z" fill="white"/>
</g>
<defs>
<filter id="filter0_d_6291_43894" x="10" y="77" width="460" height="239" filterUnits="userSpaceOnUse" color-interpolation-filters="sRGB">
<feFlood flood-opacity="0" result="BackgroundImageFix"/>
<feColorMatrix in="SourceAlpha" type="matrix" values="0 0 0 0 0 0 0 0 0 0 0 0 0 0 0 0 0 0 127 0" result="hardAlpha"/>
<feOffset dy="3"/>
<feGaussianBlur stdDeviation="3"/>
<feComposite in2="hardAlpha" operator="out"/>
<feColorMatrix type="matrix" values="0 0 0 0 0 0 0 0 0 0 0 0 0 0 0 0 0 0 0.25 0"/>
<feBlend mode="normal" in2="BackgroundImageFix" result="effect1_dropShadow_6291_43894"/>
<feBlend mode="normal" in="SourceGraphic" in2="effect1_dropShadow_6291_43894" result="shape"/>
</filter>
<filter id="filter1_d_6291_43894" x="411" y="164" width="42" height="42" filterUnits="userSpaceOnUse" color-interpolation-filters="sRGB">
<feFlood flood-opacity="0" result="BackgroundImageFix"/>
<feColorMatrix in="SourceAlpha" type="matrix" values="0 0 0 0 0 0 0 0 0 0 0 0 0 0 0 0 0 0 127 0" result="hardAlpha"/>
<feOffset dy="2"/>
<feGaussianBlur stdDeviation="2"/>
<feComposite in2="hardAlpha" operator="out"/>
<feColorMatrix type="matrix" values="0 0 0 0 0 0 0 0 0 0 0 0 0 0 0 0 0 0 0.25 0"/>
<feBlend mode="normal" in2="BackgroundImageFix" result="effect1_dropShadow_6291_43894"/>
<feBlend mode="normal" in="SourceGraphic" in2="effect1_dropShadow_6291_43894" result="shape"/>
</filter>
<filter id="filter2_d_6291_43894" x="241" y="241" width="211" height="56" filterUnits="userSpaceOnUse" color-interpolation-filters="sRGB">
<feFlood flood-opacity="0" result="BackgroundImageFix"/>
<feColorMatrix in="SourceAlpha" type="matrix" values="0 0 0 0 0 0 0 0 0 0 0 0 0 0 0 0 0 0 127 0" result="hardAlpha"/>
<feOffset dy="2"/>
<feGaussianBlur stdDeviation="2"/>
<feComposite in2="hardAlpha" operator="out"/>
<feColorMatrix type="matrix" values="0 0 0 0 0 0 0 0 0 0 0 0 0 0 0 0 0 0 0.25 0"/>
<feBlend mode="normal" in2="BackgroundImageFix" result="effect1_dropShadow_6291_43894"/>
<feBlend mode="normal" in="SourceGraphic" in2="effect1_dropShadow_6291_43894" result="shape"/>
</filter>
<filter id="filter3_d_6291_43894" x="12" y="382" width="224" height="88" filterUnits="userSpaceOnUse" color-interpolation-filters="sRGB">
<feFlood flood-opacity="0" result="BackgroundImageFix"/>
<feColorMatrix in="SourceAlpha" type="matrix" values="0 0 0 0 0 0 0 0 0 0 0 0 0 0 0 0 0 0 127 0" result="hardAlpha"/>
<feOffset dy="2"/>
<feGaussianBlur stdDeviation="2"/>
<feComposite in2="hardAlpha" operator="out"/>
<feColorMatrix type="matrix" values="0 0 0 0 0 0 0 0 0 0 0 0 0 0 0 0 0 0 0.25 0"/>
<feBlend mode="normal" in2="BackgroundImageFix" result="effect1_dropShadow_6291_43894"/>
<feBlend mode="normal" in="SourceGraphic" in2="effect1_dropShadow_6291_43894" result="shape"/>
</filter>
<filter id="filter4_d_6291_43894" x="244" y="382" width="224" height="88" filterUnits="userSpaceOnUse" color-interpolation-filters="sRGB">
<feFlood flood-opacity="0" result="BackgroundImageFix"/>
<feColorMatrix in="SourceAlpha" type="matrix" values="0 0 0 0 0 0 0 0 0 0 0 0 0 0 0 0 0 0 127 0" result="hardAlpha"/>
<feOffset dy="2"/>
<feGaussianBlur stdDeviation="2"/>
<feComposite in2="hardAlpha" operator="out"/>
<feColorMatrix type="matrix" values="0 0 0 0 0 0 0 0 0 0 0 0 0 0 0 0 0 0 0.25 0"/>
<feBlend mode="normal" in2="BackgroundImageFix" result="effect1_dropShadow_6291_43894"/>
<feBlend mode="normal" in="SourceGraphic" in2="effect1_dropShadow_6291_43894" result="shape"/>
</filter>
</defs>
</svg>
