<svg width="480" height="480" viewBox="0 0 480 480" fill="none" xmlns="http://www.w3.org/2000/svg">
<rect width="480" height="480" fill="#F6F6F6"/>
<mask id="path-1-inside-1_6208_38416" fill="white">
<path d="M0 0H480V64H0V0Z"/>
</mask>
<path d="M0 0H480V64H0V0Z" fill="white"/>
<path d="M480 64V63H0V64V65H480V64Z" fill="#D1D1D1" mask="url(#path-1-inside-1_6208_38416)"/>
<path d="M209.363 36.0352C209.363 36.8815 209.158 37.6172 208.748 38.2422C208.338 38.8672 207.739 39.349 206.951 39.6875C206.17 40.026 205.219 40.1953 204.1 40.1953C203.605 40.1953 203.12 40.1628 202.645 40.0977C202.176 40.0326 201.723 39.9382 201.287 39.8145C200.857 39.6842 200.447 39.5247 200.057 39.3359V36.5234C200.734 36.8229 201.437 37.0931 202.166 37.334C202.895 37.5749 203.618 37.6953 204.334 37.6953C204.829 37.6953 205.226 37.6302 205.525 37.5C205.831 37.3698 206.053 37.1908 206.189 36.9629C206.326 36.735 206.395 36.4746 206.395 36.1816C206.395 35.8236 206.274 35.5176 206.033 35.2637C205.792 35.0098 205.46 34.7721 205.037 34.5508C204.62 34.3294 204.148 34.0918 203.621 33.8379C203.289 33.6816 202.928 33.4928 202.537 33.2715C202.146 33.0436 201.775 32.7669 201.424 32.4414C201.072 32.1159 200.783 31.722 200.555 31.2598C200.333 30.791 200.223 30.2311 200.223 29.5801C200.223 28.7272 200.418 27.998 200.809 27.3926C201.199 26.7871 201.756 26.3249 202.479 26.0059C203.208 25.6803 204.067 25.5176 205.057 25.5176C205.799 25.5176 206.505 25.6055 207.176 25.7812C207.853 25.9505 208.559 26.1979 209.295 26.5234L208.318 28.877C207.661 28.61 207.072 28.4049 206.551 28.2617C206.03 28.112 205.499 28.0371 204.959 28.0371C204.581 28.0371 204.259 28.099 203.992 28.2227C203.725 28.3398 203.523 28.5091 203.387 28.7305C203.25 28.9453 203.182 29.196 203.182 29.4824C203.182 29.821 203.279 30.1074 203.475 30.3418C203.676 30.5697 203.976 30.791 204.373 31.0059C204.777 31.2207 205.278 31.4714 205.877 31.7578C206.606 32.1029 207.228 32.4642 207.742 32.8418C208.263 33.2129 208.663 33.6523 208.943 34.1602C209.223 34.6615 209.363 35.2865 209.363 36.0352ZM216.219 28.877C217.228 28.877 218.097 29.0723 218.826 29.4629C219.555 29.847 220.118 30.4069 220.516 31.1426C220.913 31.8783 221.111 32.7767 221.111 33.8379V35.2832H214.07C214.103 36.123 214.354 36.7839 214.822 37.2656C215.298 37.7409 215.955 37.9785 216.795 37.9785C217.492 37.9785 218.13 37.9069 218.709 37.7637C219.288 37.6204 219.884 37.4056 220.496 37.1191V39.4238C219.956 39.6908 219.389 39.8861 218.797 40.0098C218.211 40.1335 217.498 40.1953 216.658 40.1953C215.564 40.1953 214.594 39.9935 213.748 39.5898C212.908 39.1862 212.247 38.571 211.766 37.7441C211.29 36.9173 211.053 35.8757 211.053 34.6191C211.053 33.3431 211.268 32.2819 211.697 31.4355C212.133 30.5827 212.739 29.9447 213.514 29.5215C214.288 29.0918 215.19 28.877 216.219 28.877ZM216.238 30.9961C215.659 30.9961 215.177 31.1816 214.793 31.5527C214.415 31.9238 214.197 32.5065 214.139 33.3008H218.318C218.312 32.8581 218.23 32.4642 218.074 32.1191C217.924 31.7741 217.697 31.5007 217.391 31.2988C217.091 31.097 216.707 30.9961 216.238 30.9961ZM228.133 37.8223C228.458 37.8223 228.774 37.7897 229.08 37.7246C229.393 37.6595 229.702 37.5781 230.008 37.4805V39.6973C229.689 39.8405 229.292 39.9577 228.816 40.0488C228.348 40.1465 227.833 40.1953 227.273 40.1953C226.622 40.1953 226.036 40.0911 225.516 39.8828C225.001 39.668 224.594 39.3001 224.295 38.7793C224.002 38.252 223.855 37.5195 223.855 36.582V31.3184H222.43V30.0586L224.07 29.0625L224.93 26.7578H226.834V29.082H229.891V31.3184H226.834V36.582C226.834 36.9987 226.951 37.3112 227.186 37.5195C227.426 37.7214 227.742 37.8223 228.133 37.8223ZM236.824 37.8223C237.15 37.8223 237.465 37.7897 237.771 37.7246C238.084 37.6595 238.393 37.5781 238.699 37.4805V39.6973C238.38 39.8405 237.983 39.9577 237.508 40.0488C237.039 40.1465 236.525 40.1953 235.965 40.1953C235.314 40.1953 234.728 40.0911 234.207 39.8828C233.693 39.668 233.286 39.3001 232.986 38.7793C232.693 38.252 232.547 37.5195 232.547 36.582V31.3184H231.121V30.0586L232.762 29.0625L233.621 26.7578H235.525V29.082H238.582V31.3184H235.525V36.582C235.525 36.9987 235.643 37.3112 235.877 37.5195C236.118 37.7214 236.434 37.8223 236.824 37.8223ZM243.895 29.082V40H240.916V29.082H243.895ZM242.41 24.8047C242.853 24.8047 243.234 24.9089 243.553 25.1172C243.872 25.319 244.031 25.6999 244.031 26.2598C244.031 26.8132 243.872 27.1973 243.553 27.4121C243.234 27.6204 242.853 27.7246 242.41 27.7246C241.961 27.7246 241.577 27.6204 241.258 27.4121C240.945 27.1973 240.789 26.8132 240.789 26.2598C240.789 25.6999 240.945 25.319 241.258 25.1172C241.577 24.9089 241.961 24.8047 242.41 24.8047ZM253.23 28.877C254.396 28.877 255.333 29.196 256.043 29.834C256.753 30.4655 257.107 31.4811 257.107 32.8809V40H254.129V33.623C254.129 32.8418 253.986 32.2526 253.699 31.8555C253.419 31.4583 252.977 31.2598 252.371 31.2598C251.46 31.2598 250.838 31.569 250.506 32.1875C250.174 32.806 250.008 33.6979 250.008 34.8633V40H247.029V29.082H249.305L249.705 30.4785H249.871C250.105 30.1009 250.395 29.7949 250.74 29.5605C251.092 29.3262 251.479 29.1536 251.902 29.043C252.332 28.9323 252.775 28.877 253.23 28.877ZM263.367 44.8047C261.844 44.8047 260.678 44.5378 259.871 44.0039C259.07 43.4766 258.67 42.7344 258.67 41.7773C258.67 41.1198 258.875 40.5697 259.285 40.127C259.695 39.6842 260.298 39.3685 261.092 39.1797C260.786 39.0495 260.519 38.8379 260.291 38.5449C260.063 38.2454 259.949 37.9297 259.949 37.5977C259.949 37.181 260.07 36.8359 260.311 36.5625C260.551 36.2826 260.9 36.0091 261.355 35.7422C260.783 35.4948 260.327 35.0977 259.988 34.5508C259.656 34.0039 259.49 33.3594 259.49 32.6172C259.49 31.8229 259.663 31.1491 260.008 30.5957C260.359 30.0358 260.867 29.6094 261.531 29.3164C262.202 29.0234 263.016 28.877 263.973 28.877C264.174 28.877 264.409 28.89 264.676 28.916C264.943 28.9421 265.187 28.9714 265.408 29.0039C265.636 29.0365 265.789 29.0625 265.867 29.082H269.676V30.5957L267.967 31.0352C268.123 31.276 268.24 31.5332 268.318 31.8066C268.396 32.0801 268.436 32.3698 268.436 32.6758C268.436 33.8477 268.025 34.7624 267.205 35.4199C266.391 36.071 265.258 36.3965 263.807 36.3965C263.462 36.377 263.136 36.3509 262.83 36.3184C262.68 36.4355 262.566 36.5592 262.488 36.6895C262.41 36.8197 262.371 36.9564 262.371 37.0996C262.371 37.2428 262.43 37.3633 262.547 37.4609C262.671 37.5521 262.853 37.6237 263.094 37.6758C263.341 37.7214 263.647 37.7441 264.012 37.7441H265.867C267.065 37.7441 267.977 38.0013 268.602 38.5156C269.233 39.0299 269.549 39.7852 269.549 40.7812C269.549 42.0573 269.015 43.0469 267.947 43.75C266.886 44.4531 265.359 44.8047 263.367 44.8047ZM263.494 42.8613C264.204 42.8613 264.812 42.793 265.32 42.6562C265.835 42.526 266.229 42.3372 266.502 42.0898C266.775 41.849 266.912 41.5592 266.912 41.2207C266.912 40.9473 266.831 40.7292 266.668 40.5664C266.512 40.4102 266.271 40.2995 265.945 40.2344C265.626 40.1693 265.216 40.1367 264.715 40.1367H263.172C262.807 40.1367 262.479 40.1953 262.186 40.3125C261.899 40.4297 261.671 40.5924 261.502 40.8008C261.333 41.0156 261.248 41.263 261.248 41.543C261.248 41.9531 261.443 42.2754 261.834 42.5098C262.231 42.7441 262.785 42.8613 263.494 42.8613ZM263.973 34.5801C264.533 34.5801 264.943 34.4076 265.203 34.0625C265.464 33.7174 265.594 33.2487 265.594 32.6562C265.594 31.9987 265.457 31.5072 265.184 31.1816C264.917 30.8496 264.513 30.6836 263.973 30.6836C263.426 30.6836 263.016 30.8496 262.742 31.1816C262.469 31.5072 262.332 31.9987 262.332 32.6562C262.332 33.2487 262.465 33.7174 262.732 34.0625C263.006 34.4076 263.419 34.5801 263.973 34.5801ZM279.1 36.7578C279.1 37.5 278.924 38.1283 278.572 38.6426C278.227 39.1504 277.71 39.5378 277.02 39.8047C276.329 40.0651 275.47 40.1953 274.441 40.1953C273.68 40.1953 273.025 40.1465 272.479 40.0488C271.938 39.9512 271.391 39.7884 270.838 39.5605V37.0996C271.43 37.3665 272.065 37.5879 272.742 37.7637C273.426 37.9329 274.025 38.0176 274.539 38.0176C275.118 38.0176 275.532 37.9329 275.779 37.7637C276.033 37.5879 276.16 37.36 276.16 37.0801C276.16 36.8978 276.108 36.735 276.004 36.5918C275.906 36.4421 275.691 36.276 275.359 36.0938C275.027 35.9049 274.507 35.6608 273.797 35.3613C273.113 35.0749 272.55 34.7852 272.107 34.4922C271.671 34.1992 271.346 33.8542 271.131 33.457C270.923 33.0534 270.818 32.5423 270.818 31.9238C270.818 30.9147 271.209 30.1562 271.99 29.6484C272.778 29.1341 273.829 28.877 275.145 28.877C275.822 28.877 276.466 28.9453 277.078 29.082C277.697 29.2188 278.331 29.4368 278.982 29.7363L278.084 31.8848C277.544 31.6504 277.033 31.4583 276.551 31.3086C276.076 31.1589 275.59 31.084 275.096 31.084C274.66 31.084 274.331 31.1426 274.109 31.2598C273.888 31.377 273.777 31.556 273.777 31.7969C273.777 31.9727 273.833 32.1289 273.943 32.2656C274.061 32.4023 274.282 32.5553 274.607 32.7246C274.939 32.8874 275.424 33.099 276.062 33.3594C276.681 33.6133 277.218 33.8802 277.674 34.1602C278.13 34.4336 278.481 34.7754 278.729 35.1855C278.976 35.5892 279.1 36.1133 279.1 36.7578Z" fill="#31344E"/>
<path fill-rule="evenodd" clip-rule="evenodd" d="M31.208 43.2971C32.1518 44.2343 33.6819 44.2343 34.6257 43.2971C35.5694 42.3598 35.5694 40.8402 34.6257 39.9029L29.0845 34.4L47.4168 34.4C48.7515 34.4 49.8335 33.3255 49.8335 32C49.8335 30.6745 48.7515 29.6 47.4168 29.6L29.0845 29.6L34.6257 24.0971C35.5694 23.1598 35.5694 21.6402 34.6257 20.7029C33.6819 19.7657 32.1518 19.7657 31.208 20.7029L21.5418 30.3025C21.1042 30.7368 20.8335 31.337 20.8335 32C20.8335 32.6638 21.1048 33.2646 21.5434 33.6991M21.5434 33.6991L31.208 43.2971L21.5434 33.6991Z" fill="#1A1040"/>
<path d="M459.29 24.0987C460.227 23.1616 460.227 21.6399 459.29 20.7028C458.353 19.7657 456.831 19.7657 455.894 20.7028L448 28.6041L440.099 20.7103C439.162 19.7732 437.64 19.7732 436.703 20.7103C435.766 21.6474 435.766 23.1691 436.703 24.1062L444.604 32L436.71 39.9013C435.773 40.8384 435.773 42.3601 436.71 43.2972C437.647 44.2343 439.169 44.2343 440.106 43.2972L448 35.3959L455.901 43.2897C456.838 44.2268 458.36 44.2268 459.297 43.2897C460.234 42.3526 460.234 40.8309 459.297 39.8938L451.396 32L459.29 24.0987Z" fill="#1A1040"/>
<g filter="url(#filter0_d_6208_38416)">
<rect x="16" y="80" width="448" height="360" rx="10" fill="white" shape-rendering="crispEdges"/>
<rect x="16.5" y="80.5" width="447" height="359" rx="9.5" stroke="#D9D9D9" shape-rendering="crispEdges"/>
<path d="M33.6875 113V100.15H35.7969V111.207H41.2549V113H33.6875ZM47.082 103.086C48.3125 103.086 49.2412 103.358 49.8682 103.903C50.501 104.448 50.8174 105.298 50.8174 106.452V113H49.3496L48.9541 111.62H48.8838C48.6084 111.972 48.3242 112.262 48.0312 112.49C47.7383 112.719 47.3984 112.889 47.0117 113C46.6309 113.117 46.165 113.176 45.6143 113.176C45.0342 113.176 44.5156 113.07 44.0586 112.859C43.6016 112.643 43.2412 112.314 42.9775 111.875C42.7139 111.436 42.582 110.879 42.582 110.205C42.582 109.203 42.9541 108.45 43.6982 107.946C44.4482 107.442 45.5791 107.164 47.0908 107.111L48.7783 107.05V106.54C48.7783 105.866 48.6201 105.386 48.3037 105.099C47.9932 104.812 47.5537 104.668 46.9854 104.668C46.499 104.668 46.0273 104.738 45.5703 104.879C45.1133 105.02 44.668 105.192 44.2344 105.397L43.5664 103.938C44.041 103.687 44.5801 103.481 45.1836 103.323C45.793 103.165 46.4258 103.086 47.082 103.086ZM48.7695 108.351L47.5127 108.395C46.4814 108.43 45.7578 108.605 45.3418 108.922C44.9258 109.238 44.7178 109.672 44.7178 110.223C44.7178 110.703 44.8613 111.055 45.1484 111.277C45.4355 111.494 45.8135 111.603 46.2822 111.603C46.9971 111.603 47.5889 111.4 48.0576 110.996C48.5322 110.586 48.7695 109.985 48.7695 109.194V108.351ZM58.7803 103.086C59.876 103.086 60.7285 103.37 61.3379 103.938C61.9531 104.501 62.2607 105.406 62.2607 106.654V113H60.1953V107.041C60.1953 106.285 60.04 105.72 59.7295 105.345C59.4189 104.964 58.9385 104.773 58.2881 104.773C57.3447 104.773 56.6885 105.063 56.3193 105.644C55.9561 106.224 55.7744 107.064 55.7744 108.166V113H53.709V103.271H55.3174L55.6074 104.589H55.7217C55.9326 104.249 56.1934 103.971 56.5039 103.754C56.8203 103.531 57.1719 103.364 57.5586 103.253C57.9512 103.142 58.3584 103.086 58.7803 103.086ZM67.9297 117.324C66.6113 117.324 65.6006 117.087 64.8975 116.612C64.1943 116.138 63.8428 115.473 63.8428 114.617C63.8428 114.02 64.0303 113.513 64.4053 113.097C64.7803 112.687 65.3164 112.402 66.0137 112.244C65.75 112.127 65.5215 111.945 65.3281 111.699C65.1406 111.447 65.0469 111.169 65.0469 110.864C65.0469 110.501 65.1494 110.19 65.3545 109.933C65.5596 109.675 65.8672 109.426 66.2773 109.186C65.7676 108.969 65.3574 108.617 65.0469 108.131C64.7422 107.639 64.5898 107.062 64.5898 106.399C64.5898 105.696 64.7393 105.099 65.0381 104.606C65.3369 104.108 65.7734 103.73 66.3477 103.473C66.9219 103.209 67.6162 103.077 68.4307 103.077C68.6064 103.077 68.7969 103.089 69.002 103.112C69.2129 103.13 69.4062 103.153 69.582 103.183C69.7637 103.206 69.9014 103.232 69.9951 103.262H73.3613V104.413L71.709 104.721C71.8672 104.943 71.9932 105.198 72.0869 105.485C72.1807 105.767 72.2275 106.074 72.2275 106.408C72.2275 107.416 71.8789 108.21 71.1816 108.79C70.4902 109.364 69.5352 109.651 68.3164 109.651C68.0234 109.64 67.7393 109.616 67.4639 109.581C67.2529 109.71 67.0918 109.854 66.9805 110.012C66.8691 110.164 66.8135 110.337 66.8135 110.53C66.8135 110.688 66.8691 110.817 66.9805 110.917C67.0918 111.011 67.2559 111.081 67.4727 111.128C67.6953 111.175 67.9648 111.198 68.2812 111.198H69.96C71.0264 111.198 71.8408 111.424 72.4033 111.875C72.9658 112.326 73.2471 112.988 73.2471 113.861C73.2471 114.969 72.79 115.821 71.876 116.419C70.9619 117.022 69.6465 117.324 67.9297 117.324ZM68.0088 115.874C68.7295 115.874 69.3359 115.804 69.8281 115.663C70.3203 115.522 70.6924 115.32 70.9443 115.057C71.1963 114.799 71.3223 114.491 71.3223 114.134C71.3223 113.817 71.2432 113.574 71.085 113.404C70.9268 113.234 70.6895 113.117 70.373 113.053C70.0566 112.988 69.6641 112.956 69.1953 112.956H67.666C67.2852 112.956 66.9482 113.015 66.6553 113.132C66.3623 113.255 66.1338 113.431 65.9697 113.659C65.8115 113.888 65.7324 114.163 65.7324 114.485C65.7324 114.931 65.9287 115.273 66.3213 115.514C66.7197 115.754 67.2822 115.874 68.0088 115.874ZM68.4131 108.298C69.0166 108.298 69.4648 108.134 69.7578 107.806C70.0508 107.472 70.1973 107.003 70.1973 106.399C70.1973 105.743 70.0449 105.251 69.7402 104.923C69.4414 104.595 68.9961 104.431 68.4043 104.431C67.8242 104.431 67.3818 104.598 67.0771 104.932C66.7783 105.266 66.6289 105.761 66.6289 106.417C66.6289 107.009 66.7783 107.472 67.0771 107.806C67.3818 108.134 67.8271 108.298 68.4131 108.298ZM83.6182 103.271V113H81.9922L81.7109 111.69H81.5967C81.3916 112.024 81.1309 112.303 80.8145 112.525C80.498 112.742 80.1465 112.903 79.7598 113.009C79.373 113.12 78.9658 113.176 78.5381 113.176C77.8057 113.176 77.1787 113.053 76.6572 112.807C76.1416 112.555 75.7461 112.168 75.4707 111.646C75.1953 111.125 75.0576 110.451 75.0576 109.625V103.271H77.1318V109.238C77.1318 109.994 77.2842 110.56 77.5889 110.935C77.8994 111.31 78.3799 111.497 79.0303 111.497C79.6572 111.497 80.1553 111.368 80.5244 111.11C80.8936 110.853 81.1543 110.472 81.3066 109.968C81.4648 109.464 81.5439 108.846 81.5439 108.113V103.271H83.6182ZM90.3945 103.086C91.625 103.086 92.5537 103.358 93.1807 103.903C93.8135 104.448 94.1299 105.298 94.1299 106.452V113H92.6621L92.2666 111.62H92.1963C91.9209 111.972 91.6367 112.262 91.3438 112.49C91.0508 112.719 90.7109 112.889 90.3242 113C89.9434 113.117 89.4775 113.176 88.9268 113.176C88.3467 113.176 87.8281 113.07 87.3711 112.859C86.9141 112.643 86.5537 112.314 86.29 111.875C86.0264 111.436 85.8945 110.879 85.8945 110.205C85.8945 109.203 86.2666 108.45 87.0107 107.946C87.7607 107.442 88.8916 107.164 90.4033 107.111L92.0908 107.05V106.54C92.0908 105.866 91.9326 105.386 91.6162 105.099C91.3057 104.812 90.8662 104.668 90.2979 104.668C89.8115 104.668 89.3398 104.738 88.8828 104.879C88.4258 105.02 87.9805 105.192 87.5469 105.397L86.8789 103.938C87.3535 103.687 87.8926 103.481 88.4961 103.323C89.1055 103.165 89.7383 103.086 90.3945 103.086ZM92.082 108.351L90.8252 108.395C89.7939 108.43 89.0703 108.605 88.6543 108.922C88.2383 109.238 88.0303 109.672 88.0303 110.223C88.0303 110.703 88.1738 111.055 88.4609 111.277C88.748 111.494 89.126 111.603 89.5947 111.603C90.3096 111.603 90.9014 111.4 91.3701 110.996C91.8447 110.586 92.082 109.985 92.082 109.194V108.351ZM99.7988 117.324C98.4805 117.324 97.4697 117.087 96.7666 116.612C96.0635 116.138 95.7119 115.473 95.7119 114.617C95.7119 114.02 95.8994 113.513 96.2744 113.097C96.6494 112.687 97.1855 112.402 97.8828 112.244C97.6191 112.127 97.3906 111.945 97.1973 111.699C97.0098 111.447 96.916 111.169 96.916 110.864C96.916 110.501 97.0186 110.19 97.2236 109.933C97.4287 109.675 97.7363 109.426 98.1465 109.186C97.6367 108.969 97.2266 108.617 96.916 108.131C96.6113 107.639 96.459 107.062 96.459 106.399C96.459 105.696 96.6084 105.099 96.9072 104.606C97.2061 104.108 97.6426 103.73 98.2168 103.473C98.791 103.209 99.4854 103.077 100.3 103.077C100.476 103.077 100.666 103.089 100.871 103.112C101.082 103.13 101.275 103.153 101.451 103.183C101.633 103.206 101.771 103.232 101.864 103.262H105.23V104.413L103.578 104.721C103.736 104.943 103.862 105.198 103.956 105.485C104.05 105.767 104.097 106.074 104.097 106.408C104.097 107.416 103.748 108.21 103.051 108.79C102.359 109.364 101.404 109.651 100.186 109.651C99.8926 109.64 99.6084 109.616 99.333 109.581C99.1221 109.71 98.9609 109.854 98.8496 110.012C98.7383 110.164 98.6826 110.337 98.6826 110.53C98.6826 110.688 98.7383 110.817 98.8496 110.917C98.9609 111.011 99.125 111.081 99.3418 111.128C99.5645 111.175 99.834 111.198 100.15 111.198H101.829C102.896 111.198 103.71 111.424 104.272 111.875C104.835 112.326 105.116 112.988 105.116 113.861C105.116 114.969 104.659 115.821 103.745 116.419C102.831 117.022 101.516 117.324 99.7988 117.324ZM99.8779 115.874C100.599 115.874 101.205 115.804 101.697 115.663C102.189 115.522 102.562 115.32 102.813 115.057C103.065 114.799 103.191 114.491 103.191 114.134C103.191 113.817 103.112 113.574 102.954 113.404C102.796 113.234 102.559 113.117 102.242 113.053C101.926 112.988 101.533 112.956 101.064 112.956H99.5352C99.1543 112.956 98.8174 113.015 98.5244 113.132C98.2314 113.255 98.0029 113.431 97.8389 113.659C97.6807 113.888 97.6016 114.163 97.6016 114.485C97.6016 114.931 97.7979 115.273 98.1904 115.514C98.5889 115.754 99.1514 115.874 99.8779 115.874ZM100.282 108.298C100.886 108.298 101.334 108.134 101.627 107.806C101.92 107.472 102.066 107.003 102.066 106.399C102.066 105.743 101.914 105.251 101.609 104.923C101.311 104.595 100.865 104.431 100.273 104.431C99.6934 104.431 99.251 104.598 98.9463 104.932C98.6475 105.266 98.498 105.761 98.498 106.417C98.498 107.009 98.6475 107.472 98.9463 107.806C99.251 108.134 99.6963 108.298 100.282 108.298ZM110.882 103.086C111.749 103.086 112.493 103.265 113.114 103.622C113.735 103.979 114.213 104.486 114.547 105.143C114.881 105.799 115.048 106.584 115.048 107.498V108.605H108.553C108.576 109.549 108.828 110.275 109.309 110.785C109.795 111.295 110.475 111.55 111.348 111.55C111.969 111.55 112.525 111.491 113.018 111.374C113.516 111.251 114.028 111.072 114.556 110.838V112.517C114.069 112.745 113.574 112.912 113.07 113.018C112.566 113.123 111.963 113.176 111.26 113.176C110.305 113.176 109.464 112.991 108.737 112.622C108.017 112.247 107.451 111.69 107.041 110.952C106.637 110.214 106.435 109.297 106.435 108.201C106.435 107.111 106.619 106.186 106.988 105.424C107.357 104.662 107.876 104.082 108.544 103.684C109.212 103.285 109.991 103.086 110.882 103.086ZM110.882 104.642C110.231 104.642 109.704 104.853 109.3 105.274C108.901 105.696 108.667 106.314 108.597 107.129H113.026C113.021 106.643 112.938 106.212 112.78 105.837C112.628 105.462 112.394 105.169 112.077 104.958C111.767 104.747 111.368 104.642 110.882 104.642ZM123.916 110.223C123.916 110.861 123.761 111.4 123.45 111.84C123.14 112.279 122.686 112.613 122.088 112.842C121.496 113.064 120.77 113.176 119.908 113.176C119.229 113.176 118.643 113.126 118.15 113.026C117.664 112.933 117.204 112.786 116.771 112.587V110.803C117.233 111.02 117.752 111.207 118.326 111.365C118.906 111.523 119.454 111.603 119.97 111.603C120.649 111.603 121.139 111.497 121.438 111.286C121.736 111.069 121.886 110.782 121.886 110.425C121.886 110.214 121.824 110.026 121.701 109.862C121.584 109.692 121.361 109.52 121.033 109.344C120.711 109.162 120.236 108.945 119.609 108.693C118.994 108.447 118.476 108.201 118.054 107.955C117.632 107.709 117.312 107.413 117.096 107.067C116.879 106.716 116.771 106.268 116.771 105.723C116.771 104.861 117.11 104.208 117.79 103.763C118.476 103.312 119.381 103.086 120.506 103.086C121.104 103.086 121.666 103.147 122.193 103.271C122.727 103.388 123.248 103.561 123.758 103.789L123.107 105.345C122.668 105.151 122.226 104.993 121.78 104.87C121.341 104.741 120.893 104.677 120.436 104.677C119.902 104.677 119.495 104.759 119.214 104.923C118.938 105.087 118.801 105.321 118.801 105.626C118.801 105.854 118.868 106.048 119.003 106.206C119.138 106.364 119.369 106.522 119.697 106.681C120.031 106.839 120.494 107.035 121.086 107.27C121.666 107.492 122.167 107.727 122.589 107.973C123.017 108.213 123.345 108.509 123.573 108.86C123.802 109.212 123.916 109.666 123.916 110.223Z" fill="#31344E"/>
<g filter="url(#filter1_d_6208_38416)">
<rect x="32" y="132" width="203" height="64" rx="5" fill="white" shape-rendering="crispEdges"/>
<rect x="33.5" y="133.5" width="200" height="61" rx="3.5" stroke="#1A1040" stroke-width="3" shape-rendering="crispEdges"/>
<path d="M114.164 170.5L113.232 167.441H108.548L107.616 170.5H104.681L109.216 157.598H112.547L117.1 170.5H114.164ZM112.582 165.156C111.721 162.385 111.234 160.817 111.123 160.454C111.018 160.091 110.941 159.804 110.895 159.593C110.701 160.343 110.147 162.197 109.233 165.156H112.582ZM123.999 160.489C124.362 160.489 124.664 160.516 124.904 160.568L124.702 163.082C124.485 163.023 124.222 162.994 123.911 162.994C123.056 162.994 122.388 163.214 121.907 163.653C121.433 164.093 121.195 164.708 121.195 165.499V170.5H118.515V160.674H120.545L120.94 162.326H121.072C121.377 161.775 121.787 161.333 122.303 160.999C122.824 160.659 123.39 160.489 123.999 160.489ZM132.929 170.5L132.41 169.164H132.34C131.889 169.732 131.423 170.128 130.942 170.351C130.468 170.567 129.847 170.676 129.079 170.676C128.136 170.676 127.392 170.406 126.847 169.867C126.308 169.328 126.038 168.561 126.038 167.564C126.038 166.521 126.401 165.754 127.128 165.262C127.86 164.764 128.962 164.488 130.433 164.436L132.138 164.383V163.952C132.138 162.956 131.628 162.458 130.608 162.458C129.823 162.458 128.9 162.695 127.84 163.17L126.952 161.359C128.083 160.768 129.337 160.472 130.714 160.472C132.032 160.472 133.043 160.759 133.746 161.333C134.449 161.907 134.801 162.78 134.801 163.952V170.5H132.929ZM132.138 165.947L131.101 165.982C130.321 166.006 129.741 166.146 129.36 166.404C128.979 166.662 128.789 167.055 128.789 167.582C128.789 168.338 129.223 168.716 130.09 168.716C130.711 168.716 131.206 168.537 131.575 168.18C131.95 167.822 132.138 167.348 132.138 166.756V165.947ZM143.036 160.489C144.196 160.489 145.104 160.943 145.761 161.852C146.417 162.754 146.745 163.993 146.745 165.569C146.745 167.192 146.405 168.449 145.726 169.34C145.052 170.23 144.132 170.676 142.966 170.676C141.812 170.676 140.906 170.257 140.25 169.419H140.065L139.617 170.5H137.569V156.824H140.25V160.006C140.25 160.41 140.215 161.058 140.145 161.948H140.25C140.877 160.976 141.806 160.489 143.036 160.489ZM142.175 162.634C141.513 162.634 141.029 162.839 140.725 163.249C140.42 163.653 140.262 164.324 140.25 165.262V165.552C140.25 166.606 140.405 167.362 140.716 167.819C141.032 168.276 141.53 168.505 142.21 168.505C142.761 168.505 143.197 168.253 143.52 167.749C143.848 167.239 144.012 166.501 144.012 165.534C144.012 164.567 143.848 163.844 143.52 163.363C143.191 162.877 142.743 162.634 142.175 162.634ZM148.846 158.134C148.846 157.261 149.332 156.824 150.305 156.824C151.277 156.824 151.764 157.261 151.764 158.134C151.764 158.55 151.641 158.875 151.395 159.109C151.154 159.338 150.791 159.452 150.305 159.452C149.332 159.452 148.846 159.013 148.846 158.134ZM151.641 170.5H148.96V160.674H151.641V170.5ZM158.452 170.676C155.394 170.676 153.864 168.997 153.864 165.64C153.864 163.97 154.28 162.695 155.112 161.816C155.944 160.932 157.137 160.489 158.689 160.489C159.826 160.489 160.846 160.712 161.748 161.157L160.957 163.231C160.535 163.062 160.143 162.924 159.779 162.818C159.416 162.707 159.053 162.651 158.689 162.651C157.295 162.651 156.598 163.642 156.598 165.622C156.598 167.544 157.295 168.505 158.689 168.505C159.205 168.505 159.683 168.438 160.122 168.303C160.562 168.162 161.001 167.945 161.44 167.652V169.946C161.007 170.222 160.567 170.412 160.122 170.518C159.683 170.623 159.126 170.676 158.452 170.676Z" fill="#31344E"/>
</g>
<g filter="url(#filter2_d_6208_38416)">
<rect x="245" y="132" width="203" height="64" rx="5" fill="white" shape-rendering="crispEdges"/>
<rect x="246.5" y="133.5" width="200" height="61" rx="3.5" stroke="#1A1040" stroke-width="3" shape-rendering="crispEdges"/>
<path d="M305.974 159.733C304.948 159.733 304.154 160.12 303.592 160.894C303.029 161.661 302.748 162.733 302.748 164.11C302.748 166.976 303.823 168.408 305.974 168.408C306.876 168.408 307.969 168.183 309.252 167.731V170.017C308.197 170.456 307.02 170.676 305.719 170.676C303.85 170.676 302.42 170.11 301.43 168.979C300.439 167.843 299.944 166.214 299.944 164.093C299.944 162.757 300.188 161.588 300.674 160.586C301.16 159.578 301.857 158.808 302.766 158.274C303.68 157.735 304.749 157.466 305.974 157.466C307.222 157.466 308.476 157.768 309.735 158.371L308.856 160.586C308.376 160.357 307.893 160.158 307.406 159.988C306.92 159.818 306.442 159.733 305.974 159.733ZM318.023 170.5L317.505 169.164H317.435C316.983 169.732 316.518 170.128 316.037 170.351C315.562 170.567 314.941 170.676 314.174 170.676C313.23 170.676 312.486 170.406 311.941 169.867C311.402 169.328 311.133 168.561 311.133 167.564C311.133 166.521 311.496 165.754 312.223 165.262C312.955 164.764 314.057 164.488 315.527 164.436L317.232 164.383V163.952C317.232 162.956 316.723 162.458 315.703 162.458C314.918 162.458 313.995 162.695 312.935 163.17L312.047 161.359C313.178 160.768 314.432 160.472 315.809 160.472C317.127 160.472 318.138 160.759 318.841 161.333C319.544 161.907 319.896 162.78 319.896 163.952V170.5H318.023ZM317.232 165.947L316.195 165.982C315.416 166.006 314.836 166.146 314.455 166.404C314.074 166.662 313.884 167.055 313.884 167.582C313.884 168.338 314.317 168.716 315.185 168.716C315.806 168.716 316.301 168.537 316.67 168.18C317.045 167.822 317.232 167.348 317.232 166.756V165.947ZM331.734 170.5H329.054V164.761C329.054 164.052 328.928 163.521 328.676 163.17C328.424 162.812 328.022 162.634 327.472 162.634C326.722 162.634 326.18 162.886 325.846 163.39C325.512 163.888 325.345 164.717 325.345 165.877V170.5H322.664V160.674H324.712L325.072 161.931H325.222C325.521 161.456 325.931 161.099 326.452 160.858C326.979 160.612 327.577 160.489 328.245 160.489C329.388 160.489 330.255 160.8 330.847 161.421C331.438 162.036 331.734 162.927 331.734 164.093V170.5ZM338.634 168.54C339.103 168.54 339.665 168.438 340.321 168.232V170.228C339.653 170.526 338.833 170.676 337.86 170.676C336.788 170.676 336.006 170.406 335.514 169.867C335.027 169.322 334.784 168.508 334.784 167.424V162.687H333.501V161.553L334.978 160.656L335.751 158.582H337.465V160.674H340.216V162.687H337.465V167.424C337.465 167.805 337.57 168.086 337.781 168.268C337.998 168.449 338.282 168.54 338.634 168.54ZM344.452 165.569C344.452 166.542 344.61 167.277 344.927 167.775C345.249 168.273 345.771 168.522 346.491 168.522C347.206 168.522 347.719 168.276 348.029 167.784C348.346 167.286 348.504 166.548 348.504 165.569C348.504 164.597 348.346 163.867 348.029 163.381C347.713 162.895 347.194 162.651 346.474 162.651C345.759 162.651 345.243 162.895 344.927 163.381C344.61 163.861 344.452 164.591 344.452 165.569ZM351.246 165.569C351.246 167.169 350.824 168.42 349.98 169.322C349.137 170.225 347.962 170.676 346.456 170.676C345.513 170.676 344.681 170.471 343.96 170.061C343.239 169.645 342.686 169.05 342.299 168.276C341.912 167.503 341.719 166.601 341.719 165.569C341.719 163.964 342.138 162.716 342.976 161.825C343.813 160.935 344.991 160.489 346.509 160.489C347.452 160.489 348.284 160.694 349.005 161.104C349.726 161.515 350.279 162.104 350.666 162.871C351.053 163.639 351.246 164.538 351.246 165.569ZM362.531 170.5H359.851V164.761C359.851 164.052 359.725 163.521 359.473 163.17C359.221 162.812 358.819 162.634 358.269 162.634C357.519 162.634 356.977 162.886 356.643 163.39C356.309 163.888 356.142 164.717 356.142 165.877V170.5H353.461V160.674H355.509L355.869 161.931H356.019C356.317 161.456 356.728 161.099 357.249 160.858C357.776 160.612 358.374 160.489 359.042 160.489C360.185 160.489 361.052 160.8 361.644 161.421C362.235 162.036 362.531 162.927 362.531 164.093V170.5ZM369.36 162.396C368.792 162.396 368.347 162.578 368.024 162.941C367.702 163.299 367.518 163.809 367.471 164.471H371.232C371.221 163.809 371.048 163.299 370.714 162.941C370.38 162.578 369.929 162.396 369.36 162.396ZM369.738 170.676C368.156 170.676 366.92 170.239 366.029 169.366C365.139 168.493 364.693 167.257 364.693 165.657C364.693 164.011 365.104 162.739 365.924 161.843C366.75 160.94 367.89 160.489 369.343 160.489C370.731 160.489 371.812 160.885 372.586 161.676C373.359 162.467 373.746 163.56 373.746 164.954V166.255H367.409C367.438 167.017 367.664 167.611 368.086 168.039C368.508 168.467 369.1 168.681 369.861 168.681C370.453 168.681 371.013 168.619 371.54 168.496C372.067 168.373 372.618 168.177 373.192 167.907V169.981C372.724 170.216 372.223 170.389 371.689 170.5C371.156 170.617 370.506 170.676 369.738 170.676ZM382.781 167.582C382.781 168.59 382.43 169.357 381.727 169.885C381.029 170.412 379.983 170.676 378.589 170.676C377.874 170.676 377.265 170.626 376.761 170.526C376.257 170.433 375.785 170.292 375.346 170.104V167.89C375.844 168.124 376.403 168.32 377.024 168.479C377.651 168.637 378.202 168.716 378.677 168.716C379.649 168.716 380.136 168.435 380.136 167.872C380.136 167.661 380.071 167.491 379.942 167.362C379.813 167.228 379.591 167.078 379.274 166.914C378.958 166.744 378.536 166.548 378.009 166.325C377.253 166.009 376.696 165.716 376.339 165.446C375.987 165.177 375.729 164.869 375.565 164.523C375.407 164.172 375.328 163.741 375.328 163.231C375.328 162.358 375.665 161.685 376.339 161.21C377.019 160.729 377.979 160.489 379.222 160.489C380.405 160.489 381.557 160.747 382.676 161.263L381.867 163.196C381.375 162.985 380.915 162.812 380.487 162.678C380.06 162.543 379.623 162.476 379.178 162.476C378.387 162.476 377.991 162.689 377.991 163.117C377.991 163.357 378.117 163.565 378.369 163.741C378.627 163.917 379.187 164.178 380.048 164.523C380.815 164.834 381.378 165.124 381.735 165.394C382.093 165.663 382.356 165.974 382.526 166.325C382.696 166.677 382.781 167.096 382.781 167.582ZM388.942 162.396C388.374 162.396 387.929 162.578 387.606 162.941C387.284 163.299 387.1 163.809 387.053 164.471H390.814C390.803 163.809 390.63 163.299 390.296 162.941C389.962 162.578 389.511 162.396 388.942 162.396ZM389.32 170.676C387.738 170.676 386.502 170.239 385.611 169.366C384.721 168.493 384.275 167.257 384.275 165.657C384.275 164.011 384.686 162.739 385.506 161.843C386.332 160.94 387.472 160.489 388.925 160.489C390.313 160.489 391.395 160.885 392.168 161.676C392.941 162.467 393.328 163.56 393.328 164.954V166.255H386.991C387.021 167.017 387.246 167.611 387.668 168.039C388.09 168.467 388.682 168.681 389.443 168.681C390.035 168.681 390.595 168.619 391.122 168.496C391.649 168.373 392.2 168.177 392.774 167.907V169.981C392.306 170.216 391.805 170.389 391.271 170.5C390.738 170.617 390.088 170.676 389.32 170.676Z" fill="#1A1040"/>
</g>
<g filter="url(#filter3_d_6208_38416)">
<rect x="32" y="206" width="203" height="64" rx="5" fill="#0E76BD"/>
<rect x="33.5" y="207.5" width="200" height="61" rx="3.5" stroke="#0E76BD" stroke-width="3"/>
<path d="M110.578 244.5H103.178V231.65H110.578V233.883H105.902V236.704H110.253V238.937H105.902V242.25H110.578V244.5ZM122.127 244.5H119.446V238.761C119.446 238.052 119.32 237.521 119.068 237.17C118.816 236.812 118.415 236.634 117.864 236.634C117.114 236.634 116.572 236.886 116.238 237.39C115.904 237.888 115.737 238.717 115.737 239.877V244.5H113.057V234.674H115.104L115.465 235.931H115.614C115.913 235.456 116.323 235.099 116.845 234.858C117.372 234.612 117.97 234.489 118.638 234.489C119.78 234.489 120.647 234.8 121.239 235.421C121.831 236.036 122.127 236.927 122.127 238.093V244.5ZM133.438 234.674V236.036L131.9 236.432C132.182 236.871 132.322 237.363 132.322 237.908C132.322 238.963 131.953 239.786 131.215 240.378C130.482 240.964 129.463 241.257 128.156 241.257L127.673 241.23L127.277 241.187C127.002 241.397 126.864 241.632 126.864 241.89C126.864 242.276 127.356 242.47 128.341 242.47H130.011C131.089 242.47 131.909 242.701 132.472 243.164C133.04 243.627 133.324 244.307 133.324 245.203C133.324 246.352 132.844 247.242 131.883 247.875C130.928 248.508 129.554 248.824 127.761 248.824C126.39 248.824 125.341 248.584 124.614 248.104C123.894 247.629 123.533 246.961 123.533 246.1C123.533 245.508 123.718 245.013 124.087 244.614C124.456 244.216 124.998 243.932 125.713 243.762C125.438 243.645 125.197 243.454 124.992 243.19C124.787 242.921 124.685 242.637 124.685 242.338C124.685 241.963 124.793 241.652 125.01 241.406C125.227 241.154 125.54 240.908 125.95 240.668C125.435 240.445 125.024 240.088 124.72 239.596C124.421 239.104 124.271 238.523 124.271 237.855C124.271 236.783 124.62 235.954 125.317 235.368C126.015 234.782 127.011 234.489 128.306 234.489C128.581 234.489 128.906 234.516 129.281 234.568C129.662 234.615 129.905 234.65 130.011 234.674H133.438ZM125.854 245.889C125.854 246.258 126.029 246.548 126.381 246.759C126.738 246.97 127.236 247.075 127.875 247.075C128.836 247.075 129.589 246.943 130.134 246.68C130.679 246.416 130.951 246.056 130.951 245.599C130.951 245.229 130.79 244.975 130.468 244.834C130.146 244.693 129.647 244.623 128.974 244.623H127.585C127.093 244.623 126.68 244.737 126.346 244.966C126.018 245.2 125.854 245.508 125.854 245.889ZM126.829 237.891C126.829 238.424 126.949 238.846 127.189 239.156C127.436 239.467 127.808 239.622 128.306 239.622C128.81 239.622 129.179 239.467 129.413 239.156C129.647 238.846 129.765 238.424 129.765 237.891C129.765 236.707 129.278 236.115 128.306 236.115C127.321 236.115 126.829 236.707 126.829 237.891ZM137.745 244.5H135.064V230.824H137.745V244.5ZM140.452 232.134C140.452 231.261 140.938 230.824 141.911 230.824C142.884 230.824 143.37 231.261 143.37 232.134C143.37 232.55 143.247 232.875 143.001 233.109C142.761 233.338 142.397 233.452 141.911 233.452C140.938 233.452 140.452 233.013 140.452 232.134ZM143.247 244.5H140.566V234.674H143.247V244.5ZM152.924 241.582C152.924 242.59 152.572 243.357 151.869 243.885C151.172 244.412 150.126 244.676 148.731 244.676C148.017 244.676 147.407 244.626 146.903 244.526C146.399 244.433 145.928 244.292 145.488 244.104V241.89C145.986 242.124 146.546 242.32 147.167 242.479C147.794 242.637 148.345 242.716 148.819 242.716C149.792 242.716 150.278 242.435 150.278 241.872C150.278 241.661 150.214 241.491 150.085 241.362C149.956 241.228 149.733 241.078 149.417 240.914C149.101 240.744 148.679 240.548 148.151 240.325C147.396 240.009 146.839 239.716 146.481 239.446C146.13 239.177 145.872 238.869 145.708 238.523C145.55 238.172 145.471 237.741 145.471 237.231C145.471 236.358 145.808 235.685 146.481 235.21C147.161 234.729 148.122 234.489 149.364 234.489C150.548 234.489 151.699 234.747 152.818 235.263L152.01 237.196C151.518 236.985 151.058 236.812 150.63 236.678C150.202 236.543 149.766 236.476 149.32 236.476C148.529 236.476 148.134 236.689 148.134 237.117C148.134 237.357 148.26 237.565 148.512 237.741C148.77 237.917 149.329 238.178 150.19 238.523C150.958 238.834 151.521 239.124 151.878 239.394C152.235 239.663 152.499 239.974 152.669 240.325C152.839 240.677 152.924 241.096 152.924 241.582ZM164.086 244.5H161.405V238.761C161.405 237.343 160.878 236.634 159.823 236.634C159.073 236.634 158.531 236.889 158.197 237.398C157.863 237.908 157.696 238.734 157.696 239.877V244.5H155.016V230.824H157.696V233.61C157.696 233.827 157.676 234.337 157.635 235.14L157.573 235.931H157.714C158.312 234.97 159.261 234.489 160.562 234.489C161.716 234.489 162.592 234.8 163.189 235.421C163.787 236.042 164.086 236.933 164.086 238.093V244.5Z" fill="white"/>
</g>
<g filter="url(#filter4_d_6208_38416)">
<rect x="245" y="206" width="203" height="64" rx="5" fill="white" shape-rendering="crispEdges"/>
<rect x="246.5" y="207.5" width="200" height="61" rx="3.5" stroke="#1A1040" stroke-width="3" shape-rendering="crispEdges"/>
<path d="M319.992 244.5H317.312V231.65H324.677V233.883H319.992V237.196H324.352V239.42H319.992V244.5ZM332.464 234.489C332.827 234.489 333.129 234.516 333.369 234.568L333.167 237.082C332.95 237.023 332.687 236.994 332.376 236.994C331.521 236.994 330.853 237.214 330.372 237.653C329.897 238.093 329.66 238.708 329.66 239.499V244.5H326.979V234.674H329.01L329.405 236.326H329.537C329.842 235.775 330.252 235.333 330.768 234.999C331.289 234.659 331.854 234.489 332.464 234.489ZM339.223 236.396C338.654 236.396 338.209 236.578 337.887 236.941C337.564 237.299 337.38 237.809 337.333 238.471H341.095C341.083 237.809 340.91 237.299 340.576 236.941C340.242 236.578 339.791 236.396 339.223 236.396ZM339.601 244.676C338.019 244.676 336.782 244.239 335.892 243.366C335.001 242.493 334.556 241.257 334.556 239.657C334.556 238.011 334.966 236.739 335.786 235.843C336.612 234.94 337.752 234.489 339.205 234.489C340.594 234.489 341.675 234.885 342.448 235.676C343.222 236.467 343.608 237.56 343.608 238.954V240.255H337.271C337.301 241.017 337.526 241.611 337.948 242.039C338.37 242.467 338.962 242.681 339.724 242.681C340.315 242.681 340.875 242.619 341.402 242.496C341.93 242.373 342.48 242.177 343.055 241.907V243.981C342.586 244.216 342.085 244.389 341.552 244.5C341.019 244.617 340.368 244.676 339.601 244.676ZM354.858 244.5H352.178V238.761C352.178 238.052 352.052 237.521 351.8 237.17C351.548 236.812 351.146 236.634 350.596 236.634C349.846 236.634 349.304 236.886 348.97 237.39C348.636 237.888 348.469 238.717 348.469 239.877V244.5H345.788V234.674H347.836L348.196 235.931H348.346C348.645 235.456 349.055 235.099 349.576 234.858C350.104 234.612 350.701 234.489 351.369 234.489C352.512 234.489 353.379 234.8 353.971 235.421C354.562 236.036 354.858 236.927 354.858 238.093V244.5ZM361.608 244.676C358.55 244.676 357.021 242.997 357.021 239.64C357.021 237.97 357.437 236.695 358.269 235.816C359.101 234.932 360.293 234.489 361.846 234.489C362.982 234.489 364.002 234.712 364.904 235.157L364.113 237.231C363.691 237.062 363.299 236.924 362.936 236.818C362.572 236.707 362.209 236.651 361.846 236.651C360.451 236.651 359.754 237.642 359.754 239.622C359.754 241.544 360.451 242.505 361.846 242.505C362.361 242.505 362.839 242.438 363.278 242.303C363.718 242.162 364.157 241.945 364.597 241.652V243.946C364.163 244.222 363.724 244.412 363.278 244.518C362.839 244.623 362.282 244.676 361.608 244.676ZM375.952 244.5H373.271V238.761C373.271 237.343 372.744 236.634 371.689 236.634C370.939 236.634 370.397 236.889 370.063 237.398C369.729 237.908 369.562 238.734 369.562 239.877V244.5H366.882V230.824H369.562V233.61C369.562 233.827 369.542 234.337 369.501 235.14L369.439 235.931H369.58C370.178 234.97 371.127 234.489 372.428 234.489C373.582 234.489 374.458 234.8 375.056 235.421C375.653 236.042 375.952 236.933 375.952 238.093V244.5Z" fill="#1A1040"/>
</g>
<g filter="url(#filter5_d_6208_38416)">
<rect x="32" y="280" width="203" height="64" rx="5" fill="white" shape-rendering="crispEdges"/>
<rect x="33.5" y="281.5" width="200" height="61" rx="3.5" stroke="#1A1040" stroke-width="3" shape-rendering="crispEdges"/>
<path d="M81.4248 319H78.709V313.454H73.6201V319H70.8955V306.15H73.6201V311.187H78.709V306.15H81.4248V319ZM88.4912 308.972C89.8096 308.972 90.8203 309.259 91.5234 309.833C92.2266 310.407 92.5781 311.28 92.5781 312.452V319H90.7061L90.1875 317.664H90.1172C89.8359 318.016 89.5488 318.303 89.2559 318.525C88.9629 318.748 88.626 318.912 88.2451 319.018C87.8643 319.123 87.4014 319.176 86.8564 319.176C86.2764 319.176 85.7549 319.064 85.292 318.842C84.835 318.619 84.4746 318.279 84.2109 317.822C83.9473 317.359 83.8154 316.773 83.8154 316.064C83.8154 315.021 84.1816 314.254 84.9141 313.762C85.6465 313.264 86.7451 312.988 88.21 312.936L89.915 312.883V312.452C89.915 311.937 89.7803 311.559 89.5107 311.318C89.2412 311.078 88.8662 310.958 88.3857 310.958C87.9111 310.958 87.4453 311.025 86.9883 311.16C86.5312 311.295 86.0742 311.465 85.6172 311.67L84.7295 309.859C85.251 309.584 85.834 309.367 86.4785 309.209C87.1289 309.051 87.7998 308.972 88.4912 308.972ZM89.915 314.447L88.8779 314.482C88.0107 314.506 87.4072 314.661 87.0674 314.948C86.7334 315.235 86.5664 315.613 86.5664 316.082C86.5664 316.492 86.6865 316.785 86.9268 316.961C87.167 317.131 87.4805 317.216 87.8672 317.216C88.4414 317.216 88.9248 317.046 89.3174 316.706C89.7158 316.366 89.915 315.883 89.915 315.256V314.447ZM98.0273 309.174V319H95.3467V309.174H98.0273ZM96.6914 305.324C97.0898 305.324 97.4326 305.418 97.7197 305.605C98.0068 305.787 98.1504 306.13 98.1504 306.634C98.1504 307.132 98.0068 307.478 97.7197 307.671C97.4326 307.858 97.0898 307.952 96.6914 307.952C96.2871 307.952 95.9414 307.858 95.6543 307.671C95.373 307.478 95.2324 307.132 95.2324 306.634C95.2324 306.13 95.373 305.787 95.6543 305.605C95.9414 305.418 96.2871 305.324 96.6914 305.324ZM104.988 317.04C105.281 317.04 105.565 317.011 105.841 316.952C106.122 316.894 106.4 316.82 106.676 316.732V318.728C106.389 318.856 106.031 318.962 105.604 319.044C105.182 319.132 104.719 319.176 104.215 319.176C103.629 319.176 103.102 319.082 102.633 318.895C102.17 318.701 101.804 318.37 101.534 317.901C101.271 317.427 101.139 316.768 101.139 315.924V311.187H99.8555V310.053L101.332 309.156L102.105 307.082H103.819V309.174H106.57V311.187H103.819V315.924C103.819 316.299 103.925 316.58 104.136 316.768C104.353 316.949 104.637 317.04 104.988 317.04ZM111.352 309.174V319H108.671V309.174H111.352ZM110.016 305.324C110.414 305.324 110.757 305.418 111.044 305.605C111.331 305.787 111.475 306.13 111.475 306.634C111.475 307.132 111.331 307.478 111.044 307.671C110.757 307.858 110.414 307.952 110.016 307.952C109.611 307.952 109.266 307.858 108.979 307.671C108.697 307.478 108.557 307.132 108.557 306.634C108.557 306.13 108.697 305.787 108.979 305.605C109.266 305.418 109.611 305.324 110.016 305.324ZM118.198 308.972C119.517 308.972 120.527 309.259 121.23 309.833C121.934 310.407 122.285 311.28 122.285 312.452V319H120.413L119.895 317.664H119.824C119.543 318.016 119.256 318.303 118.963 318.525C118.67 318.748 118.333 318.912 117.952 319.018C117.571 319.123 117.108 319.176 116.563 319.176C115.983 319.176 115.462 319.064 114.999 318.842C114.542 318.619 114.182 318.279 113.918 317.822C113.654 317.359 113.522 316.773 113.522 316.064C113.522 315.021 113.889 314.254 114.621 313.762C115.354 313.264 116.452 312.988 117.917 312.936L119.622 312.883V312.452C119.622 311.937 119.487 311.559 119.218 311.318C118.948 311.078 118.573 310.958 118.093 310.958C117.618 310.958 117.152 311.025 116.695 311.16C116.238 311.295 115.781 311.465 115.324 311.67L114.437 309.859C114.958 309.584 115.541 309.367 116.186 309.209C116.836 309.051 117.507 308.972 118.198 308.972ZM119.622 314.447L118.585 314.482C117.718 314.506 117.114 314.661 116.774 314.948C116.44 315.235 116.273 315.613 116.273 316.082C116.273 316.492 116.394 316.785 116.634 316.961C116.874 317.131 117.188 317.216 117.574 317.216C118.148 317.216 118.632 317.046 119.024 316.706C119.423 316.366 119.622 315.883 119.622 315.256V314.447ZM130.635 308.989C131.684 308.989 132.527 309.276 133.166 309.851C133.805 310.419 134.124 311.333 134.124 312.593V319H131.443V313.261C131.443 312.558 131.314 312.027 131.057 311.67C130.805 311.312 130.406 311.134 129.861 311.134C129.041 311.134 128.481 311.412 128.183 311.969C127.884 312.525 127.734 313.328 127.734 314.377V319H125.054V309.174H127.102L127.462 310.431H127.611C127.822 310.091 128.083 309.815 128.394 309.604C128.71 309.394 129.059 309.238 129.439 309.139C129.826 309.039 130.225 308.989 130.635 308.989ZM147.229 308.233C146.707 308.233 146.244 308.336 145.84 308.541C145.441 308.74 145.104 309.03 144.829 309.411C144.56 309.792 144.354 310.252 144.214 310.791C144.073 311.33 144.003 311.937 144.003 312.61C144.003 313.519 144.114 314.295 144.337 314.939C144.565 315.578 144.917 316.067 145.392 316.407C145.866 316.741 146.479 316.908 147.229 316.908C147.75 316.908 148.271 316.85 148.793 316.732C149.32 316.615 149.892 316.448 150.507 316.231V318.517C149.938 318.751 149.379 318.918 148.828 319.018C148.277 319.123 147.659 319.176 146.974 319.176C145.649 319.176 144.56 318.903 143.704 318.358C142.854 317.808 142.225 317.04 141.814 316.056C141.404 315.065 141.199 313.911 141.199 312.593C141.199 311.62 141.331 310.729 141.595 309.921C141.858 309.112 142.245 308.412 142.755 307.82C143.265 307.229 143.895 306.771 144.645 306.449C145.395 306.127 146.256 305.966 147.229 305.966C147.867 305.966 148.506 306.048 149.145 306.212C149.789 306.37 150.404 306.59 150.99 306.871L150.111 309.086C149.631 308.857 149.147 308.658 148.661 308.488C148.175 308.318 147.697 308.233 147.229 308.233ZM158.522 308.989C158.657 308.989 158.812 308.998 158.988 309.016C159.17 309.027 159.316 309.045 159.428 309.068L159.226 311.582C159.138 311.553 159.012 311.532 158.848 311.521C158.689 311.503 158.552 311.494 158.435 311.494C158.089 311.494 157.752 311.538 157.424 311.626C157.102 311.714 156.812 311.857 156.554 312.057C156.296 312.25 156.091 312.508 155.938 312.83C155.792 313.146 155.719 313.536 155.719 313.999V319H153.038V309.174H155.068L155.464 310.826H155.596C155.789 310.492 156.029 310.188 156.316 309.912C156.609 309.631 156.94 309.408 157.31 309.244C157.685 309.074 158.089 308.989 158.522 308.989ZM165.264 308.989C166.172 308.989 166.954 309.165 167.61 309.517C168.267 309.862 168.773 310.366 169.131 311.028C169.488 311.69 169.667 312.499 169.667 313.454V314.755H163.33C163.359 315.511 163.585 316.105 164.007 316.539C164.435 316.967 165.026 317.181 165.782 317.181C166.409 317.181 166.983 317.116 167.505 316.987C168.026 316.858 168.562 316.665 169.113 316.407V318.481C168.627 318.722 168.117 318.897 167.584 319.009C167.057 319.12 166.415 319.176 165.659 319.176C164.675 319.176 163.802 318.994 163.04 318.631C162.284 318.268 161.689 317.714 161.256 316.97C160.828 316.226 160.614 315.288 160.614 314.157C160.614 313.009 160.808 312.054 161.194 311.292C161.587 310.524 162.132 309.95 162.829 309.569C163.526 309.183 164.338 308.989 165.264 308.989ZM165.281 310.896C164.76 310.896 164.326 311.063 163.98 311.397C163.641 311.731 163.444 312.256 163.392 312.971H167.153C167.147 312.572 167.074 312.218 166.934 311.907C166.799 311.597 166.594 311.351 166.318 311.169C166.049 310.987 165.703 310.896 165.281 310.896ZM180.776 314.069C180.776 314.89 180.665 315.616 180.442 316.249C180.226 316.882 179.906 317.418 179.484 317.857C179.068 318.291 178.564 318.619 177.973 318.842C177.387 319.064 176.725 319.176 175.986 319.176C175.295 319.176 174.659 319.064 174.079 318.842C173.505 318.619 173.004 318.291 172.576 317.857C172.154 317.418 171.826 316.882 171.592 316.249C171.363 315.616 171.249 314.89 171.249 314.069C171.249 312.979 171.442 312.057 171.829 311.301C172.216 310.545 172.767 309.971 173.481 309.578C174.196 309.186 175.049 308.989 176.039 308.989C176.959 308.989 177.773 309.186 178.482 309.578C179.197 309.971 179.757 310.545 180.161 311.301C180.571 312.057 180.776 312.979 180.776 314.069ZM173.982 314.069C173.982 314.714 174.053 315.256 174.193 315.695C174.334 316.135 174.554 316.466 174.853 316.688C175.151 316.911 175.541 317.022 176.021 317.022C176.496 317.022 176.88 316.911 177.173 316.688C177.472 316.466 177.688 316.135 177.823 315.695C177.964 315.256 178.034 314.714 178.034 314.069C178.034 313.419 177.964 312.88 177.823 312.452C177.688 312.019 177.472 311.693 177.173 311.477C176.874 311.26 176.484 311.151 176.004 311.151C175.295 311.151 174.779 311.395 174.457 311.881C174.141 312.367 173.982 313.097 173.982 314.069ZM185.672 319H182.991V305.324H185.672V319ZM192.545 308.989C193.453 308.989 194.235 309.165 194.892 309.517C195.548 309.862 196.055 310.366 196.412 311.028C196.77 311.69 196.948 312.499 196.948 313.454V314.755H190.611C190.641 315.511 190.866 316.105 191.288 316.539C191.716 316.967 192.308 317.181 193.063 317.181C193.69 317.181 194.265 317.116 194.786 316.987C195.308 316.858 195.844 316.665 196.395 316.407V318.481C195.908 318.722 195.398 318.897 194.865 319.009C194.338 319.12 193.696 319.176 192.94 319.176C191.956 319.176 191.083 318.994 190.321 318.631C189.565 318.268 188.971 317.714 188.537 316.97C188.109 316.226 187.896 315.288 187.896 314.157C187.896 313.009 188.089 312.054 188.476 311.292C188.868 310.524 189.413 309.95 190.11 309.569C190.808 309.183 191.619 308.989 192.545 308.989ZM192.562 310.896C192.041 310.896 191.607 311.063 191.262 311.397C190.922 311.731 190.726 312.256 190.673 312.971H194.435C194.429 312.572 194.355 312.218 194.215 311.907C194.08 311.597 193.875 311.351 193.6 311.169C193.33 310.987 192.984 310.896 192.562 310.896Z" fill="#31344E"/>
</g>
<g filter="url(#filter6_d_6208_38416)">
<rect x="245" y="280" width="203" height="64" rx="5" fill="white" shape-rendering="crispEdges"/>
<rect x="246.5" y="281.5" width="200" height="61" rx="3.5" stroke="#1A1040" stroke-width="3" shape-rendering="crispEdges"/>
<path d="M316.178 311.284H321.275V317.946C320.602 318.169 319.901 318.348 319.175 318.482C318.448 318.611 317.625 318.676 316.705 318.676C315.428 318.676 314.344 318.424 313.453 317.92C312.562 317.416 311.886 316.672 311.423 315.688C310.96 314.703 310.729 313.493 310.729 312.058C310.729 310.71 310.986 309.544 311.502 308.56C312.023 307.575 312.782 306.813 313.778 306.274C314.78 305.735 316.002 305.466 317.443 305.466C318.123 305.466 318.794 305.539 319.456 305.686C320.118 305.832 320.719 306.022 321.258 306.257L320.353 308.437C319.96 308.237 319.512 308.07 319.008 307.936C318.504 307.801 317.977 307.733 317.426 307.733C316.635 307.733 315.946 307.915 315.36 308.278C314.78 308.642 314.329 309.151 314.007 309.808C313.69 310.458 313.532 311.226 313.532 312.11C313.532 312.948 313.646 313.692 313.875 314.343C314.104 314.987 314.464 315.494 314.956 315.863C315.448 316.227 316.09 316.408 316.881 316.408C317.268 316.408 317.593 316.391 317.856 316.355C318.126 316.314 318.378 316.273 318.612 316.232V313.552H316.178V311.284ZM333.149 308.674V318.5H331.093L330.732 317.243H330.592C330.381 317.577 330.117 317.85 329.801 318.061C329.484 318.271 329.136 318.427 328.755 318.526C328.374 318.626 327.979 318.676 327.568 318.676C326.865 318.676 326.253 318.553 325.731 318.307C325.21 318.055 324.803 317.665 324.51 317.138C324.223 316.61 324.079 315.925 324.079 315.081V308.674H326.76V314.413C326.76 315.116 326.886 315.646 327.138 316.004C327.39 316.361 327.791 316.54 328.342 316.54C328.887 316.54 329.314 316.417 329.625 316.171C329.936 315.919 330.152 315.553 330.275 315.072C330.404 314.586 330.469 313.994 330.469 313.297V308.674H333.149ZM335.171 322.824C334.866 322.824 334.55 322.801 334.222 322.754C333.894 322.713 333.621 322.663 333.404 322.604V320.495C333.621 320.554 333.826 320.595 334.02 320.618C334.207 320.647 334.421 320.662 334.661 320.662C335.024 320.662 335.332 320.56 335.584 320.354C335.836 320.155 335.962 319.76 335.962 319.168V308.674H338.643V319.563C338.643 320.161 338.528 320.706 338.3 321.198C338.071 321.696 337.702 322.092 337.192 322.385C336.683 322.678 336.009 322.824 335.171 322.824ZM335.848 306.134C335.848 305.63 335.988 305.287 336.27 305.105C336.557 304.918 336.902 304.824 337.307 304.824C337.705 304.824 338.048 304.918 338.335 305.105C338.622 305.287 338.766 305.63 338.766 306.134C338.766 306.632 338.622 306.978 338.335 307.171C338.048 307.358 337.705 307.452 337.307 307.452C336.902 307.452 336.557 307.358 336.27 307.171C335.988 306.978 335.848 306.632 335.848 306.134ZM345.489 308.472C346.808 308.472 347.818 308.759 348.521 309.333C349.225 309.907 349.576 310.78 349.576 311.952V318.5H347.704L347.186 317.164H347.115C346.834 317.516 346.547 317.803 346.254 318.025C345.961 318.248 345.624 318.412 345.243 318.518C344.862 318.623 344.399 318.676 343.854 318.676C343.274 318.676 342.753 318.564 342.29 318.342C341.833 318.119 341.473 317.779 341.209 317.322C340.945 316.859 340.813 316.273 340.813 315.564C340.813 314.521 341.18 313.754 341.912 313.262C342.645 312.764 343.743 312.488 345.208 312.436L346.913 312.383V311.952C346.913 311.437 346.778 311.059 346.509 310.818C346.239 310.578 345.864 310.458 345.384 310.458C344.909 310.458 344.443 310.525 343.986 310.66C343.529 310.795 343.072 310.965 342.615 311.17L341.728 309.359C342.249 309.084 342.832 308.867 343.477 308.709C344.127 308.551 344.798 308.472 345.489 308.472ZM346.913 313.947L345.876 313.982C345.009 314.006 344.405 314.161 344.065 314.448C343.731 314.735 343.564 315.113 343.564 315.582C343.564 315.992 343.685 316.285 343.925 316.461C344.165 316.631 344.479 316.716 344.865 316.716C345.439 316.716 345.923 316.546 346.315 316.206C346.714 315.866 346.913 315.383 346.913 314.756V313.947ZM357.829 308.489C357.964 308.489 358.119 308.498 358.295 308.516C358.477 308.527 358.623 308.545 358.734 308.568L358.532 311.082C358.444 311.053 358.318 311.032 358.154 311.021C357.996 311.003 357.858 310.994 357.741 310.994C357.396 310.994 357.059 311.038 356.73 311.126C356.408 311.214 356.118 311.357 355.86 311.557C355.603 311.75 355.397 312.008 355.245 312.33C355.099 312.646 355.025 313.036 355.025 313.499V318.5H352.345V308.674H354.375L354.771 310.326H354.902C355.096 309.992 355.336 309.688 355.623 309.412C355.916 309.131 356.247 308.908 356.616 308.744C356.991 308.574 357.396 308.489 357.829 308.489ZM364.544 308.472C365.862 308.472 366.873 308.759 367.576 309.333C368.279 309.907 368.631 310.78 368.631 311.952V318.5H366.759L366.24 317.164H366.17C365.889 317.516 365.602 317.803 365.309 318.025C365.016 318.248 364.679 318.412 364.298 318.518C363.917 318.623 363.454 318.676 362.909 318.676C362.329 318.676 361.808 318.564 361.345 318.342C360.888 318.119 360.527 317.779 360.264 317.322C360 316.859 359.868 316.273 359.868 315.564C359.868 314.521 360.234 313.754 360.967 313.262C361.699 312.764 362.798 312.488 364.263 312.436L365.968 312.383V311.952C365.968 311.437 365.833 311.059 365.563 310.818C365.294 310.578 364.919 310.458 364.438 310.458C363.964 310.458 363.498 310.525 363.041 310.66C362.584 310.795 362.127 310.965 361.67 311.17L360.782 309.359C361.304 309.084 361.887 308.867 362.531 308.709C363.182 308.551 363.853 308.472 364.544 308.472ZM365.968 313.947L364.931 313.982C364.063 314.006 363.46 314.161 363.12 314.448C362.786 314.735 362.619 315.113 362.619 315.582C362.619 315.992 362.739 316.285 362.979 316.461C363.22 316.631 363.533 316.716 363.92 316.716C364.494 316.716 364.978 316.546 365.37 316.206C365.769 315.866 365.968 315.383 365.968 314.756V313.947ZM375.539 316.54C375.832 316.54 376.116 316.511 376.392 316.452C376.673 316.394 376.951 316.32 377.227 316.232V318.228C376.939 318.356 376.582 318.462 376.154 318.544C375.732 318.632 375.27 318.676 374.766 318.676C374.18 318.676 373.652 318.582 373.184 318.395C372.721 318.201 372.354 317.87 372.085 317.401C371.821 316.927 371.689 316.268 371.689 315.424V310.687H370.406V309.553L371.883 308.656L372.656 306.582H374.37V308.674H377.121V310.687H374.37V315.424C374.37 315.799 374.476 316.08 374.687 316.268C374.903 316.449 375.188 316.54 375.539 316.54ZM381.902 308.674V318.5H379.222V308.674H381.902ZM380.566 304.824C380.965 304.824 381.308 304.918 381.595 305.105C381.882 305.287 382.025 305.63 382.025 306.134C382.025 306.632 381.882 306.978 381.595 307.171C381.308 307.358 380.965 307.452 380.566 307.452C380.162 307.452 379.816 307.358 379.529 307.171C379.248 306.978 379.107 306.632 379.107 306.134C379.107 305.63 379.248 305.287 379.529 305.105C379.816 304.918 380.162 304.824 380.566 304.824Z" fill="#1A1040"/>
</g>
<path d="M215.695 401H213.797V388.859C213.797 388.398 213.797 388.004 213.797 387.676C213.805 387.34 213.812 387.035 213.82 386.762C213.836 386.48 213.855 386.195 213.879 385.906C213.637 386.156 213.41 386.371 213.199 386.551C212.988 386.723 212.727 386.938 212.414 387.195L210.457 388.766L209.438 387.441L214.078 383.867H215.695V401ZM240.363 394.555C240.363 395.609 240.227 396.551 239.953 397.379C239.68 398.207 239.285 398.906 238.77 399.477C238.254 400.047 237.629 400.484 236.895 400.789C236.168 401.086 235.344 401.234 234.422 401.234C233.562 401.234 232.773 401.086 232.055 400.789C231.344 400.484 230.727 400.047 230.203 399.477C229.688 398.906 229.285 398.207 228.996 397.379C228.715 396.551 228.574 395.609 228.574 394.555C228.574 393.148 228.812 391.953 229.289 390.969C229.766 389.977 230.445 389.223 231.328 388.707C232.219 388.184 233.277 387.922 234.504 387.922C235.676 387.922 236.699 388.184 237.574 388.707C238.457 389.23 239.141 389.988 239.625 390.98C240.117 391.965 240.363 393.156 240.363 394.555ZM230.59 394.555C230.59 395.586 230.727 396.48 231 397.238C231.273 397.996 231.695 398.582 232.266 398.996C232.836 399.41 233.57 399.617 234.469 399.617C235.359 399.617 236.09 399.41 236.66 398.996C237.238 398.582 237.664 397.996 237.938 397.238C238.211 396.48 238.348 395.586 238.348 394.555C238.348 393.531 238.211 392.648 237.938 391.906C237.664 391.156 237.242 390.578 236.672 390.172C236.102 389.766 235.363 389.562 234.457 389.562C233.121 389.562 232.141 390.004 231.516 390.887C230.898 391.77 230.59 392.992 230.59 394.555ZM249.445 389.68H246.246V401H244.301V389.68H242.027V388.742L244.301 388.098V387.242C244.301 386.164 244.461 385.289 244.781 384.617C245.102 383.938 245.566 383.438 246.176 383.117C246.785 382.797 247.527 382.637 248.402 382.637C248.895 382.637 249.344 382.68 249.75 382.766C250.164 382.852 250.527 382.949 250.84 383.059L250.336 384.594C250.07 384.508 249.77 384.43 249.434 384.359C249.105 384.281 248.77 384.242 248.426 384.242C247.684 384.242 247.133 384.484 246.773 384.969C246.422 385.445 246.246 386.195 246.246 387.219V388.156H249.445V389.68ZM267.773 387.863C267.773 388.629 267.625 389.293 267.328 389.855C267.031 390.418 266.617 390.879 266.086 391.238C265.555 391.59 264.93 391.836 264.211 391.977V392.07C265.57 392.242 266.59 392.68 267.27 393.383C267.957 394.086 268.301 395.008 268.301 396.148C268.301 397.141 268.066 398.02 267.598 398.785C267.137 399.551 266.426 400.152 265.465 400.59C264.512 401.02 263.289 401.234 261.797 401.234C260.891 401.234 260.051 401.16 259.277 401.012C258.512 400.871 257.777 400.633 257.074 400.297V398.469C257.785 398.82 258.559 399.098 259.395 399.301C260.23 399.496 261.039 399.594 261.82 399.594C263.383 399.594 264.512 399.285 265.207 398.668C265.902 398.043 266.25 397.191 266.25 396.113C266.25 395.371 266.055 394.773 265.664 394.32C265.281 393.859 264.727 393.523 264 393.312C263.281 393.094 262.414 392.984 261.398 392.984H259.688V391.32H261.41C262.34 391.32 263.129 391.184 263.777 390.91C264.426 390.637 264.918 390.254 265.254 389.762C265.598 389.262 265.77 388.672 265.77 387.992C265.77 387.125 265.48 386.457 264.902 385.988C264.324 385.512 263.539 385.273 262.547 385.273C261.938 385.273 261.383 385.336 260.883 385.461C260.383 385.586 259.914 385.758 259.477 385.977C259.039 386.195 258.602 386.449 258.164 386.738L257.18 385.402C257.805 384.918 258.566 384.5 259.465 384.148C260.363 383.797 261.383 383.621 262.523 383.621C264.273 383.621 265.586 384.02 266.461 384.816C267.336 385.613 267.773 386.629 267.773 387.863Z" fill="#787B91"/>
<g opacity="0.6">
<path d="M32 365C32 362.239 34.2386 360 37 360H165C167.761 360 170 362.239 170 365V419C170 421.761 167.761 424 165 424H37C34.2386 424 32 421.761 32 419V365Z" fill="#1A1040"/>
<path d="M94.5858 393.191C93.8047 392.394 93.8047 391.099 94.5858 390.302L104.584 380.098C105.365 379.301 106.633 379.301 107.414 380.098C108.195 380.895 108.195 382.19 107.414 382.987L98.8286 391.75L107.408 400.513C108.189 401.31 108.189 402.605 107.408 403.402C106.627 404.199 105.358 404.199 104.577 403.402L94.5796 393.198L94.5858 393.191Z" fill="white"/>
</g>
<path d="M445 365C445 362.239 442.761 360 440 360H312C309.239 360 307 362.239 307 365V419C307 421.761 309.239 424 312 424H440C442.761 424 445 421.761 445 419V365Z" fill="#1A1040"/>
<path d="M382.414 393.191C383.195 392.394 383.195 391.099 382.414 390.302L372.416 380.098C371.635 379.301 370.367 379.301 369.586 380.098C368.805 380.895 368.805 382.19 369.586 382.987L378.171 391.75L369.592 400.513C368.811 401.31 368.811 402.605 369.592 403.402C370.373 404.199 371.642 404.199 372.423 403.402L382.42 393.198L382.414 393.191Z" fill="white"/>
</g>
<defs>
<filter id="filter0_d_6208_38416" x="10" y="77" width="460" height="372" filterUnits="userSpaceOnUse" color-interpolation-filters="sRGB">
<feFlood flood-opacity="0" result="BackgroundImageFix"/>
<feColorMatrix in="SourceAlpha" type="matrix" values="0 0 0 0 0 0 0 0 0 0 0 0 0 0 0 0 0 0 127 0" result="hardAlpha"/>
<feOffset dy="3"/>
<feGaussianBlur stdDeviation="3"/>
<feComposite in2="hardAlpha" operator="out"/>
<feColorMatrix type="matrix" values="0 0 0 0 0 0 0 0 0 0 0 0 0 0 0 0 0 0 0.25 0"/>
<feBlend mode="normal" in2="BackgroundImageFix" result="effect1_dropShadow_6208_38416"/>
<feBlend mode="normal" in="SourceGraphic" in2="effect1_dropShadow_6208_38416" result="shape"/>
</filter>
<filter id="filter1_d_6208_38416" x="28" y="130" width="211" height="72" filterUnits="userSpaceOnUse" color-interpolation-filters="sRGB">
<feFlood flood-opacity="0" result="BackgroundImageFix"/>
<feColorMatrix in="SourceAlpha" type="matrix" values="0 0 0 0 0 0 0 0 0 0 0 0 0 0 0 0 0 0 127 0" result="hardAlpha"/>
<feOffset dy="2"/>
<feGaussianBlur stdDeviation="2"/>
<feComposite in2="hardAlpha" operator="out"/>
<feColorMatrix type="matrix" values="0 0 0 0 0 0 0 0 0 0 0 0 0 0 0 0 0 0 0.25 0"/>
<feBlend mode="normal" in2="BackgroundImageFix" result="effect1_dropShadow_6208_38416"/>
<feBlend mode="normal" in="SourceGraphic" in2="effect1_dropShadow_6208_38416" result="shape"/>
</filter>
<filter id="filter2_d_6208_38416" x="241" y="130" width="211" height="72" filterUnits="userSpaceOnUse" color-interpolation-filters="sRGB">
<feFlood flood-opacity="0" result="BackgroundImageFix"/>
<feColorMatrix in="SourceAlpha" type="matrix" values="0 0 0 0 0 0 0 0 0 0 0 0 0 0 0 0 0 0 127 0" result="hardAlpha"/>
<feOffset dy="2"/>
<feGaussianBlur stdDeviation="2"/>
<feComposite in2="hardAlpha" operator="out"/>
<feColorMatrix type="matrix" values="0 0 0 0 0 0 0 0 0 0 0 0 0 0 0 0 0 0 0.25 0"/>
<feBlend mode="normal" in2="BackgroundImageFix" result="effect1_dropShadow_6208_38416"/>
<feBlend mode="normal" in="SourceGraphic" in2="effect1_dropShadow_6208_38416" result="shape"/>
</filter>
<filter id="filter3_d_6208_38416" x="27" y="201" width="213" height="74" filterUnits="userSpaceOnUse" color-interpolation-filters="sRGB">
<feFlood flood-opacity="0" result="BackgroundImageFix"/>
<feColorMatrix in="SourceAlpha" type="matrix" values="0 0 0 0 0 0 0 0 0 0 0 0 0 0 0 0 0 0 127 0" result="hardAlpha"/>
<feMorphology radius="3" operator="dilate" in="SourceAlpha" result="effect1_dropShadow_6208_38416"/>
<feOffset/>
<feGaussianBlur stdDeviation="1"/>
<feColorMatrix type="matrix" values="0 0 0 0 0.454167 0 0 0 0 0.706867 0 0 0 0 1 0 0 0 0.5 0"/>
<feBlend mode="normal" in2="BackgroundImageFix" result="effect1_dropShadow_6208_38416"/>
<feBlend mode="normal" in="SourceGraphic" in2="effect1_dropShadow_6208_38416" result="shape"/>
</filter>
<filter id="filter4_d_6208_38416" x="241" y="204" width="211" height="72" filterUnits="userSpaceOnUse" color-interpolation-filters="sRGB">
<feFlood flood-opacity="0" result="BackgroundImageFix"/>
<feColorMatrix in="SourceAlpha" type="matrix" values="0 0 0 0 0 0 0 0 0 0 0 0 0 0 0 0 0 0 127 0" result="hardAlpha"/>
<feOffset dy="2"/>
<feGaussianBlur stdDeviation="2"/>
<feComposite in2="hardAlpha" operator="out"/>
<feColorMatrix type="matrix" values="0 0 0 0 0 0 0 0 0 0 0 0 0 0 0 0 0 0 0.25 0"/>
<feBlend mode="normal" in2="BackgroundImageFix" result="effect1_dropShadow_6208_38416"/>
<feBlend mode="normal" in="SourceGraphic" in2="effect1_dropShadow_6208_38416" result="shape"/>
</filter>
<filter id="filter5_d_6208_38416" x="28" y="278" width="211" height="72" filterUnits="userSpaceOnUse" color-interpolation-filters="sRGB">
<feFlood flood-opacity="0" result="BackgroundImageFix"/>
<feColorMatrix in="SourceAlpha" type="matrix" values="0 0 0 0 0 0 0 0 0 0 0 0 0 0 0 0 0 0 127 0" result="hardAlpha"/>
<feOffset dy="2"/>
<feGaussianBlur stdDeviation="2"/>
<feComposite in2="hardAlpha" operator="out"/>
<feColorMatrix type="matrix" values="0 0 0 0 0 0 0 0 0 0 0 0 0 0 0 0 0 0 0.25 0"/>
<feBlend mode="normal" in2="BackgroundImageFix" result="effect1_dropShadow_6208_38416"/>
<feBlend mode="normal" in="SourceGraphic" in2="effect1_dropShadow_6208_38416" result="shape"/>
</filter>
<filter id="filter6_d_6208_38416" x="241" y="278" width="211" height="72" filterUnits="userSpaceOnUse" color-interpolation-filters="sRGB">
<feFlood flood-opacity="0" result="BackgroundImageFix"/>
<feColorMatrix in="SourceAlpha" type="matrix" values="0 0 0 0 0 0 0 0 0 0 0 0 0 0 0 0 0 0 127 0" result="hardAlpha"/>
<feOffset dy="2"/>
<feGaussianBlur stdDeviation="2"/>
<feComposite in2="hardAlpha" operator="out"/>
<feColorMatrix type="matrix" values="0 0 0 0 0 0 0 0 0 0 0 0 0 0 0 0 0 0 0.25 0"/>
<feBlend mode="normal" in2="BackgroundImageFix" result="effect1_dropShadow_6208_38416"/>
<feBlend mode="normal" in="SourceGraphic" in2="effect1_dropShadow_6208_38416" result="shape"/>
</filter>
</defs>
</svg>
