<svg width="480" height="480" viewBox="0 0 480 480" fill="none" xmlns="http://www.w3.org/2000/svg">
<rect width="480" height="480" fill="white"/>
<rect x="17.5" y="17.5" width="445" height="445" rx="4.5" fill="white" stroke="#218448" stroke-width="3"/>
<path d="M94.1094 48.8594C93.1823 48.8594 92.3594 49.0417 91.6406 49.4062C90.9323 49.7604 90.3333 50.276 89.8438 50.9531C89.3646 51.6302 89 52.4479 88.75 53.4062C88.5 54.3646 88.375 55.4427 88.375 56.6406C88.375 58.2552 88.5729 59.6354 88.9688 60.7812C89.375 61.9167 90 62.7865 90.8438 63.3906C91.6875 63.9844 92.776 64.2812 94.1094 64.2812C95.0365 64.2812 95.9635 64.1771 96.8906 63.9688C97.8281 63.7604 98.8438 63.4635 99.9375 63.0781V67.1406C98.9271 67.5573 97.9323 67.8542 96.9531 68.0312C95.974 68.2188 94.875 68.3125 93.6562 68.3125C91.3021 68.3125 89.3646 67.8281 87.8438 66.8594C86.3333 65.8802 85.2135 64.5156 84.4844 62.7656C83.7552 61.0052 83.3906 58.9531 83.3906 56.6094C83.3906 54.8802 83.625 53.2969 84.0938 51.8594C84.5625 50.4219 85.25 49.1771 86.1562 48.125C87.0625 47.0729 88.1823 46.2604 89.5156 45.6875C90.849 45.1146 92.3802 44.8281 94.1094 44.8281C95.2448 44.8281 96.3802 44.974 97.5156 45.2656C98.6615 45.5469 99.7552 45.9375 100.797 46.4375L99.2344 50.375C98.3802 49.9688 97.5208 49.6146 96.6562 49.3125C95.7917 49.0104 94.9427 48.8594 94.1094 48.8594ZM123.531 68H118.703V58.1406H109.656V68H104.812V45.1562H109.656V54.1094H118.703V45.1562H123.531V68ZM143.297 68L141.641 62.5625H133.312L131.656 68H126.438L134.5 45.0625H140.422L148.516 68H143.297ZM140.484 58.5L138.828 53.1875C138.724 52.8333 138.583 52.3802 138.406 51.8281C138.24 51.2656 138.068 50.6979 137.891 50.125C137.724 49.5417 137.589 49.0365 137.484 48.6094C137.38 49.0365 137.234 49.5677 137.047 50.2031C136.87 50.8281 136.698 51.4219 136.531 51.9844C136.365 52.5469 136.245 52.9479 136.172 53.1875L134.531 58.5H140.484ZM151.406 68V45.1562H156.25V68H151.406ZM168.656 45.1562C170.729 45.1562 172.438 45.4062 173.781 45.9062C175.135 46.4062 176.141 47.1615 176.797 48.1719C177.453 49.1823 177.781 50.4583 177.781 52C177.781 53.0417 177.583 53.9531 177.188 54.7344C176.792 55.5156 176.271 56.1771 175.625 56.7188C174.979 57.2604 174.281 57.7031 173.531 58.0469L180.25 68H174.875L169.422 59.2344H166.844V68H162V45.1562H168.656ZM168.312 49.125H166.844V55.2969H168.406C170.01 55.2969 171.156 55.0312 171.844 54.5C172.542 53.9583 172.891 53.1667 172.891 52.125C172.891 51.0417 172.516 50.2708 171.766 49.8125C171.026 49.3542 169.875 49.125 168.312 49.125ZM201.109 68L195.609 50.0781H195.469C195.49 50.5052 195.521 51.151 195.562 52.0156C195.615 52.8698 195.661 53.7812 195.703 54.75C195.745 55.7188 195.766 56.5938 195.766 57.375V68H191.438V45.1562H198.031L203.438 62.625H203.531L209.266 45.1562H215.859V68H211.344V57.1875C211.344 56.4688 211.354 55.6406 211.375 54.7031C211.406 53.7656 211.443 52.875 211.484 52.0312C211.526 51.1771 211.557 50.5365 211.578 50.1094H211.438L205.547 68H201.109ZM242.359 56.5469C242.359 58.3073 242.141 59.9115 241.703 61.3594C241.266 62.7969 240.599 64.0365 239.703 65.0781C238.818 66.1198 237.693 66.9219 236.328 67.4844C234.964 68.0365 233.349 68.3125 231.484 68.3125C229.62 68.3125 228.005 68.0365 226.641 67.4844C225.276 66.9219 224.146 66.1198 223.25 65.0781C222.365 64.0365 221.703 62.7917 221.266 61.3438C220.828 59.8958 220.609 58.2865 220.609 56.5156C220.609 54.151 220.995 52.0938 221.766 50.3438C222.547 48.5833 223.745 47.2188 225.359 46.25C226.974 45.2812 229.026 44.7969 231.516 44.7969C233.995 44.7969 236.031 45.2812 237.625 46.25C239.229 47.2188 240.417 48.5833 241.188 50.3438C241.969 52.1042 242.359 54.1719 242.359 56.5469ZM225.688 56.5469C225.688 58.1406 225.885 59.5156 226.281 60.6719C226.688 61.8177 227.318 62.7031 228.172 63.3281C229.026 63.9427 230.13 64.25 231.484 64.25C232.859 64.25 233.974 63.9427 234.828 63.3281C235.682 62.7031 236.302 61.8177 236.688 60.6719C237.083 59.5156 237.281 58.1406 237.281 56.5469C237.281 54.151 236.833 52.2656 235.938 50.8906C235.042 49.5156 233.568 48.8281 231.516 48.8281C230.151 48.8281 229.036 49.1406 228.172 49.7656C227.318 50.3802 226.688 51.2656 226.281 52.4219C225.885 53.5677 225.688 54.9427 225.688 56.5469ZM267.359 68H261.203L251.266 50.7188H251.125C251.167 51.4375 251.203 52.1615 251.234 52.8906C251.266 53.6198 251.297 54.349 251.328 55.0781C251.359 55.7969 251.391 56.5208 251.422 57.25V68H247.094V45.1562H253.203L263.125 62.2656H263.234C263.214 61.5573 263.188 60.8542 263.156 60.1562C263.125 59.4583 263.094 58.7604 263.062 58.0625C263.042 57.3646 263.021 56.6667 263 55.9688V45.1562H267.359V68ZM273.125 68V45.1562H277.969V68H273.125ZM292.531 68H287.688V49.1875H281.484V45.1562H298.734V49.1875H292.531V68ZM322.984 56.5469C322.984 58.3073 322.766 59.9115 322.328 61.3594C321.891 62.7969 321.224 64.0365 320.328 65.0781C319.443 66.1198 318.318 66.9219 316.953 67.4844C315.589 68.0365 313.974 68.3125 312.109 68.3125C310.245 68.3125 308.63 68.0365 307.266 67.4844C305.901 66.9219 304.771 66.1198 303.875 65.0781C302.99 64.0365 302.328 62.7917 301.891 61.3438C301.453 59.8958 301.234 58.2865 301.234 56.5156C301.234 54.151 301.62 52.0938 302.391 50.3438C303.172 48.5833 304.37 47.2188 305.984 46.25C307.599 45.2812 309.651 44.7969 312.141 44.7969C314.62 44.7969 316.656 45.2812 318.25 46.25C319.854 47.2188 321.042 48.5833 321.812 50.3438C322.594 52.1042 322.984 54.1719 322.984 56.5469ZM306.312 56.5469C306.312 58.1406 306.51 59.5156 306.906 60.6719C307.312 61.8177 307.943 62.7031 308.797 63.3281C309.651 63.9427 310.755 64.25 312.109 64.25C313.484 64.25 314.599 63.9427 315.453 63.3281C316.307 62.7031 316.927 61.8177 317.312 60.6719C317.708 59.5156 317.906 58.1406 317.906 56.5469C317.906 54.151 317.458 52.2656 316.562 50.8906C315.667 49.5156 314.193 48.8281 312.141 48.8281C310.776 48.8281 309.661 49.1406 308.797 49.7656C307.943 50.3802 307.312 51.2656 306.906 52.4219C306.51 53.5677 306.312 54.9427 306.312 56.5469ZM334.375 45.1562C336.448 45.1562 338.156 45.4062 339.5 45.9062C340.854 46.4062 341.859 47.1615 342.516 48.1719C343.172 49.1823 343.5 50.4583 343.5 52C343.5 53.0417 343.302 53.9531 342.906 54.7344C342.51 55.5156 341.99 56.1771 341.344 56.7188C340.698 57.2604 340 57.7031 339.25 58.0469L345.969 68H340.594L335.141 59.2344H332.562V68H327.719V45.1562H334.375ZM334.031 49.125H332.562V55.2969H334.125C335.729 55.2969 336.875 55.0312 337.562 54.5C338.26 53.9583 338.609 53.1667 338.609 52.125C338.609 51.0417 338.234 50.2708 337.484 49.8125C336.745 49.3542 335.594 49.125 334.031 49.125ZM348.844 68V45.1562H353.688V68H348.844ZM379.703 68H373.547L363.609 50.7188H363.469C363.51 51.4375 363.547 52.1615 363.578 52.8906C363.609 53.6198 363.641 54.349 363.672 55.0781C363.703 55.7969 363.734 56.5208 363.766 57.25V68H359.438V45.1562H365.547L375.469 62.2656H375.578C375.557 61.5573 375.531 60.8542 375.5 60.1562C375.469 59.4583 375.438 58.7604 375.406 58.0625C375.385 57.3646 375.365 56.6667 375.344 55.9688V45.1562H379.703V68ZM394.141 55.1719H403.203V67.0156C402.005 67.4115 400.76 67.7292 399.469 67.9688C398.177 68.1979 396.714 68.3125 395.078 68.3125C392.807 68.3125 390.88 67.8646 389.297 66.9688C387.714 66.0729 386.51 64.75 385.688 63C384.865 61.25 384.453 59.099 384.453 56.5469C384.453 54.151 384.911 52.0781 385.828 50.3281C386.755 48.5781 388.104 47.224 389.875 46.2656C391.656 45.3073 393.828 44.8281 396.391 44.8281C397.599 44.8281 398.792 44.9583 399.969 45.2188C401.146 45.4792 402.214 45.8177 403.172 46.2344L401.562 50.1094C400.865 49.7552 400.068 49.4583 399.172 49.2188C398.276 48.9792 397.339 48.8594 396.359 48.8594C394.953 48.8594 393.729 49.1823 392.688 49.8281C391.656 50.474 390.854 51.3802 390.281 52.5469C389.719 53.7031 389.438 55.0677 389.438 56.6406C389.438 58.1302 389.641 59.4531 390.047 60.6094C390.453 61.7552 391.094 62.6562 391.969 63.3125C392.844 63.9583 393.984 64.2812 395.391 64.2812C396.078 64.2812 396.656 64.25 397.125 64.1875C397.604 64.1146 398.052 64.0417 398.469 63.9688V59.2031H394.141V55.1719Z" fill="#31344E"/>
<path d="M16 94H464V458C464 461.314 461.314 464 458 464H22C18.6863 464 16 461.314 16 458V94Z" fill="#218448"/>
<path d="M214.075 275.835L208 233.091L215.522 232.071C219.675 231.508 223.51 234.34 224.087 238.398L229.368 275.559H264.192C267.866 275.559 270.93 278.107 271.634 281.493H271.786V326C268.308 326 265.368 323.485 264.908 320.118L260.851 290.394H225.01L220.953 320.118C220.493 323.485 217.553 326 214.075 326V275.835Z" fill="white"/>
</svg>
