<svg width="480" height="480" viewBox="0 0 480 480" fill="none" xmlns="http://www.w3.org/2000/svg">
<rect width="480" height="480" fill="white"/>
<rect x="17.5" y="17.5" width="349" height="77" rx="3.5" fill="white"/>
<rect x="17.5" y="17.5" width="349" height="77" rx="3.5" stroke="#31344E" stroke-width="3"/>
<path d="M23 25C23 23.8954 23.8954 23 25 23H188C189.105 23 190 23.8954 190 25V87C190 88.1046 189.105 89 188 89H25C23.8954 89 23 88.1046 23 87V25Z" fill="#1A1040"/>
<path d="M49.3594 48.3672H54.6914C56.9727 48.3672 58.6992 48.6875 59.8711 49.3281C61.043 49.9688 61.6289 51.0938 61.6289 52.7031C61.6289 53.3516 61.5234 53.9375 61.3125 54.4609C61.1094 54.9844 60.8125 55.4141 60.4219 55.75C60.0312 56.0859 59.5547 56.3047 58.9922 56.4062V56.5234C59.5625 56.6406 60.0781 56.8438 60.5391 57.1328C61 57.4141 61.3672 57.8281 61.6406 58.375C61.9219 58.9141 62.0625 59.6328 62.0625 60.5312C62.0625 61.5703 61.8086 62.4609 61.3008 63.2031C60.793 63.9453 60.0664 64.5156 59.1211 64.9141C58.1836 65.3047 57.0664 65.5 55.7695 65.5H49.3594V48.3672ZM52.9922 55.1523H55.1016C56.1562 55.1523 56.8867 54.9883 57.293 54.6602C57.6992 54.3242 57.9023 53.832 57.9023 53.1836C57.9023 52.5273 57.6602 52.0586 57.1758 51.7773C56.6992 51.4883 55.9414 51.3438 54.9023 51.3438H52.9922V55.1523ZM52.9922 58.0352V62.5H55.3594C56.4531 62.5 57.2148 62.2891 57.6445 61.8672C58.0742 61.4453 58.2891 60.8789 58.2891 60.168C58.2891 59.7461 58.1953 59.375 58.0078 59.0547C57.8203 58.7344 57.5039 58.4844 57.0586 58.3047C56.6211 58.125 56.0156 58.0352 55.2422 58.0352H52.9922ZM70.6055 52.1523C71.8164 52.1523 72.8594 52.3867 73.7344 52.8555C74.6094 53.3164 75.2852 53.9883 75.7617 54.8711C76.2383 55.7539 76.4766 56.832 76.4766 58.1055V59.8398H68.0273C68.0664 60.8477 68.3672 61.6406 68.9297 62.2188C69.5 62.7891 70.2891 63.0742 71.2969 63.0742C72.1328 63.0742 72.8984 62.9883 73.5938 62.8164C74.2891 62.6445 75.0039 62.3867 75.7383 62.043V64.8086C75.0898 65.1289 74.4102 65.3633 73.6992 65.5117C72.9961 65.6602 72.1406 65.7344 71.1328 65.7344C69.8203 65.7344 68.6562 65.4922 67.6406 65.0078C66.6328 64.5234 65.8398 63.7852 65.2617 62.793C64.6914 61.8008 64.4062 60.5508 64.4062 59.043C64.4062 57.5117 64.6641 56.2383 65.1797 55.2227C65.7031 54.1992 66.4297 53.4336 67.3594 52.9258C68.2891 52.4102 69.3711 52.1523 70.6055 52.1523ZM70.6289 54.6953C69.9336 54.6953 69.3555 54.918 68.8945 55.3633C68.4414 55.8086 68.1797 56.5078 68.1094 57.4609H73.125C73.1172 56.9297 73.0195 56.457 72.832 56.043C72.6523 55.6289 72.3789 55.3008 72.0117 55.0586C71.6523 54.8164 71.1914 54.6953 70.6289 54.6953ZM83.5312 65.7344C82.0703 65.7344 80.8789 65.1641 79.957 64.0234C79.043 62.875 78.5859 61.1914 78.5859 58.9727C78.5859 56.7305 79.0508 55.0352 79.9805 53.8867C80.9102 52.7305 82.125 52.1523 83.625 52.1523C84.25 52.1523 84.8008 52.2383 85.2773 52.4102C85.7539 52.582 86.1641 52.8125 86.5078 53.1016C86.8594 53.3906 87.1562 53.7148 87.3984 54.0742H87.5156C87.4688 53.8242 87.4102 53.457 87.3398 52.9727C87.2773 52.4805 87.2461 51.9766 87.2461 51.4609V47.2656H90.832V65.5H88.0898L87.3984 63.8008H87.2461C87.0195 64.1602 86.7344 64.4883 86.3906 64.7852C86.0547 65.0742 85.6523 65.3047 85.1836 65.4766C84.7148 65.6484 84.1641 65.7344 83.5312 65.7344ZM84.7852 62.8867C85.7617 62.8867 86.4492 62.5977 86.8477 62.0195C87.2539 61.4336 87.4688 60.5547 87.4922 59.3828V58.9961C87.4922 57.7227 87.2969 56.75 86.9062 56.0781C86.5156 55.3984 85.7891 55.0586 84.7266 55.0586C83.9375 55.0586 83.3203 55.3984 82.875 56.0781C82.4297 56.7578 82.207 57.7383 82.207 59.0195C82.207 60.3008 82.4297 61.2656 82.875 61.9141C83.3281 62.5625 83.9648 62.8867 84.7852 62.8867ZM108.34 65.5L104.215 52.0586H104.109C104.125 52.3789 104.148 52.8633 104.18 53.5117C104.219 54.1523 104.254 54.8359 104.285 55.5625C104.316 56.2891 104.332 56.9453 104.332 57.5312V65.5H101.086V48.3672H106.031L110.086 61.4688H110.156L114.457 48.3672H119.402V65.5H116.016V57.3906C116.016 56.8516 116.023 56.2305 116.039 55.5273C116.062 54.8242 116.09 54.1562 116.121 53.5234C116.152 52.8828 116.176 52.4023 116.191 52.082H116.086L111.668 65.5H108.34ZM135.352 58.9258C135.352 60.0195 135.203 60.9883 134.906 61.832C134.617 62.6758 134.191 63.3906 133.629 63.9766C133.074 64.5547 132.402 64.9922 131.613 65.2891C130.832 65.5859 129.949 65.7344 128.965 65.7344C128.043 65.7344 127.195 65.5859 126.422 65.2891C125.656 64.9922 124.988 64.5547 124.418 63.9766C123.855 63.3906 123.418 62.6758 123.105 61.832C122.801 60.9883 122.648 60.0195 122.648 58.9258C122.648 57.4727 122.906 56.2422 123.422 55.2344C123.938 54.2266 124.672 53.4609 125.625 52.9375C126.578 52.4141 127.715 52.1523 129.035 52.1523C130.262 52.1523 131.348 52.4141 132.293 52.9375C133.246 53.4609 133.992 54.2266 134.531 55.2344C135.078 56.2422 135.352 57.4727 135.352 58.9258ZM126.293 58.9258C126.293 59.7852 126.387 60.5078 126.574 61.0938C126.762 61.6797 127.055 62.1211 127.453 62.418C127.852 62.7148 128.371 62.8633 129.012 62.8633C129.645 62.8633 130.156 62.7148 130.547 62.418C130.945 62.1211 131.234 61.6797 131.414 61.0938C131.602 60.5078 131.695 59.7852 131.695 58.9258C131.695 58.0586 131.602 57.3398 131.414 56.7695C131.234 56.1914 130.945 55.7578 130.547 55.4688C130.148 55.1797 129.629 55.0352 128.988 55.0352C128.043 55.0352 127.355 55.3594 126.926 56.0078C126.504 56.6562 126.293 57.6289 126.293 58.9258ZM142.453 65.7344C140.992 65.7344 139.801 65.1641 138.879 64.0234C137.965 62.875 137.508 61.1914 137.508 58.9727C137.508 56.7305 137.973 55.0352 138.902 53.8867C139.832 52.7305 141.047 52.1523 142.547 52.1523C143.172 52.1523 143.723 52.2383 144.199 52.4102C144.676 52.582 145.086 52.8125 145.43 53.1016C145.781 53.3906 146.078 53.7148 146.32 54.0742H146.438C146.391 53.8242 146.332 53.457 146.262 52.9727C146.199 52.4805 146.168 51.9766 146.168 51.4609V47.2656H149.754V65.5H147.012L146.32 63.8008H146.168C145.941 64.1602 145.656 64.4883 145.312 64.7852C144.977 65.0742 144.574 65.3047 144.105 65.4766C143.637 65.6484 143.086 65.7344 142.453 65.7344ZM143.707 62.8867C144.684 62.8867 145.371 62.5977 145.77 62.0195C146.176 61.4336 146.391 60.5547 146.414 59.3828V58.9961C146.414 57.7227 146.219 56.75 145.828 56.0781C145.438 55.3984 144.711 55.0586 143.648 55.0586C142.859 55.0586 142.242 55.3984 141.797 56.0781C141.352 56.7578 141.129 57.7383 141.129 59.0195C141.129 60.3008 141.352 61.2656 141.797 61.9141C142.25 62.5625 142.887 62.8867 143.707 62.8867ZM158.895 52.1523C160.105 52.1523 161.148 52.3867 162.023 52.8555C162.898 53.3164 163.574 53.9883 164.051 54.8711C164.527 55.7539 164.766 56.832 164.766 58.1055V59.8398H156.316C156.355 60.8477 156.656 61.6406 157.219 62.2188C157.789 62.7891 158.578 63.0742 159.586 63.0742C160.422 63.0742 161.188 62.9883 161.883 62.8164C162.578 62.6445 163.293 62.3867 164.027 62.043V64.8086C163.379 65.1289 162.699 65.3633 161.988 65.5117C161.285 65.6602 160.43 65.7344 159.422 65.7344C158.109 65.7344 156.945 65.4922 155.93 65.0078C154.922 64.5234 154.129 63.7852 153.551 62.793C152.98 61.8008 152.695 60.5508 152.695 59.043C152.695 57.5117 152.953 56.2383 153.469 55.2227C153.992 54.1992 154.719 53.4336 155.648 52.9258C156.578 52.4102 157.66 52.1523 158.895 52.1523ZM158.918 54.6953C158.223 54.6953 157.645 54.918 157.184 55.3633C156.73 55.8086 156.469 56.5078 156.398 57.4609H161.414C161.406 56.9297 161.309 56.457 161.121 56.043C160.941 55.6289 160.668 55.3008 160.301 55.0586C159.941 54.8164 159.48 54.6953 158.918 54.6953Z" fill="white"/>
<path d="M220.43 50.5117C219.609 50.5117 218.875 50.6602 218.227 50.957C217.586 51.2539 217.043 51.6836 216.598 52.2461C216.152 52.8008 215.812 53.4766 215.578 54.2734C215.344 55.0625 215.227 55.9531 215.227 56.9453C215.227 58.2734 215.414 59.418 215.789 60.3789C216.164 61.332 216.734 62.0664 217.5 62.582C218.266 63.0898 219.234 63.3438 220.406 63.3438C221.133 63.3438 221.84 63.2734 222.527 63.1328C223.215 62.9922 223.926 62.8008 224.66 62.5586V64.9492C223.965 65.2227 223.262 65.4219 222.551 65.5469C221.84 65.6719 221.02 65.7344 220.09 65.7344C218.34 65.7344 216.887 65.3711 215.73 64.6445C214.582 63.918 213.723 62.8945 213.152 61.5742C212.59 60.2539 212.309 58.707 212.309 56.9336C212.309 55.6367 212.488 54.4492 212.848 53.3711C213.207 52.293 213.73 51.3633 214.418 50.582C215.105 49.793 215.953 49.1875 216.961 48.7656C217.977 48.3359 219.137 48.1211 220.441 48.1211C221.301 48.1211 222.145 48.2188 222.973 48.4141C223.809 48.6016 224.582 48.8711 225.293 49.2227L224.309 51.543C223.715 51.2617 223.094 51.0195 222.445 50.8164C221.797 50.6133 221.125 50.5117 220.43 50.5117ZM230.812 47.2656V51.8477C230.812 52.3242 230.797 52.7891 230.766 53.2422C230.742 53.6953 230.715 54.0469 230.684 54.2969H230.836C231.109 53.8438 231.445 53.4727 231.844 53.1836C232.242 52.8867 232.688 52.6641 233.18 52.5156C233.68 52.3672 234.211 52.293 234.773 52.293C235.766 52.293 236.609 52.4609 237.305 52.7969C238 53.125 238.531 53.6367 238.898 54.332C239.273 55.0273 239.461 55.9297 239.461 57.0391V65.5H236.707V57.5547C236.707 56.5469 236.5 55.793 236.086 55.293C235.672 54.7852 235.031 54.5312 234.164 54.5312C233.328 54.5312 232.664 54.707 232.172 55.0586C231.688 55.4023 231.34 55.9141 231.129 56.5938C230.918 57.2656 230.812 58.0859 230.812 59.0547V65.5H228.059V47.2656H230.812ZM248.402 52.2812C250.043 52.2812 251.281 52.6445 252.117 53.3711C252.961 54.0977 253.383 55.2305 253.383 56.7695V65.5H251.426L250.898 63.6602H250.805C250.438 64.1289 250.059 64.5156 249.668 64.8203C249.277 65.125 248.824 65.3516 248.309 65.5C247.801 65.6562 247.18 65.7344 246.445 65.7344C245.672 65.7344 244.98 65.5938 244.371 65.3125C243.762 65.0234 243.281 64.5859 242.93 64C242.578 63.4141 242.402 62.6719 242.402 61.7734C242.402 60.4375 242.898 59.4336 243.891 58.7617C244.891 58.0898 246.398 57.7188 248.414 57.6484L250.664 57.5664V56.8867C250.664 55.9883 250.453 55.3477 250.031 54.9648C249.617 54.582 249.031 54.3906 248.273 54.3906C247.625 54.3906 246.996 54.4844 246.387 54.6719C245.777 54.8594 245.184 55.0898 244.605 55.3633L243.715 53.418C244.348 53.082 245.066 52.8086 245.871 52.5977C246.684 52.3867 247.527 52.2812 248.402 52.2812ZM250.652 59.3008L248.977 59.3594C247.602 59.4062 246.637 59.6406 246.082 60.0625C245.527 60.4844 245.25 61.0625 245.25 61.7969C245.25 62.4375 245.441 62.9062 245.824 63.2031C246.207 63.4922 246.711 63.6367 247.336 63.6367C248.289 63.6367 249.078 63.3672 249.703 62.8281C250.336 62.2812 250.652 61.4805 250.652 60.4258V59.3008ZM259.992 52.5273V65.5H257.238V52.5273H259.992ZM258.633 47.5586C259.055 47.5586 259.418 47.6719 259.723 47.8984C260.035 48.125 260.191 48.5156 260.191 49.0703C260.191 49.6172 260.035 50.0078 259.723 50.2422C259.418 50.4688 259.055 50.582 258.633 50.582C258.195 50.582 257.824 50.4688 257.52 50.2422C257.223 50.0078 257.074 49.6172 257.074 49.0703C257.074 48.5156 257.223 48.125 257.52 47.8984C257.824 47.6719 258.195 47.5586 258.633 47.5586ZM270.516 52.2812C270.734 52.2812 270.973 52.293 271.23 52.3164C271.488 52.3398 271.711 52.3711 271.898 52.4102L271.641 54.9883C271.477 54.9414 271.273 54.9062 271.031 54.8828C270.797 54.8594 270.586 54.8477 270.398 54.8477C269.906 54.8477 269.438 54.9297 268.992 55.0938C268.547 55.25 268.152 55.4922 267.809 55.8203C267.465 56.1406 267.195 56.543 267 57.0273C266.805 57.5117 266.707 58.0742 266.707 58.7148V65.5H263.941V52.5273H266.098L266.473 54.8125H266.602C266.859 54.3516 267.18 53.9297 267.562 53.5469C267.945 53.1641 268.383 52.8594 268.875 52.6328C269.375 52.3984 269.922 52.2812 270.516 52.2812ZM288.211 65.5L283.277 51.1914H283.172C283.195 51.5117 283.223 51.9492 283.254 52.5039C283.285 53.0586 283.312 53.6523 283.336 54.2852C283.359 54.918 283.371 55.5234 283.371 56.1016V65.5H280.816V48.3672H284.766L289.512 62.043H289.582L294.492 48.3672H298.43V65.5H295.746V55.9609C295.746 55.4375 295.754 54.8711 295.77 54.2617C295.793 53.6523 295.816 53.0742 295.84 52.5273C295.871 51.9805 295.895 51.543 295.91 51.2148H295.816L290.695 65.5H288.211ZM314.145 58.9844C314.145 60.0625 314.004 61.0195 313.723 61.8555C313.441 62.6914 313.031 63.3984 312.492 63.9766C311.953 64.5469 311.305 64.9844 310.547 65.2891C309.789 65.5859 308.934 65.7344 307.98 65.7344C307.09 65.7344 306.273 65.5859 305.531 65.2891C304.789 64.9844 304.145 64.5469 303.598 63.9766C303.059 63.3984 302.641 62.6914 302.344 61.8555C302.047 61.0195 301.898 60.0625 301.898 58.9844C301.898 57.5547 302.145 56.3438 302.637 55.3516C303.137 54.3516 303.848 53.5898 304.77 53.0664C305.691 52.543 306.789 52.2812 308.062 52.2812C309.258 52.2812 310.312 52.543 311.227 53.0664C312.141 53.5898 312.855 54.3516 313.371 55.3516C313.887 56.3516 314.145 57.5625 314.145 58.9844ZM304.734 58.9844C304.734 59.9297 304.848 60.7383 305.074 61.4102C305.309 62.082 305.668 62.5977 306.152 62.957C306.637 63.3086 307.262 63.4844 308.027 63.4844C308.793 63.4844 309.418 63.3086 309.902 62.957C310.387 62.5977 310.742 62.082 310.969 61.4102C311.195 60.7383 311.309 59.9297 311.309 58.9844C311.309 58.0391 311.195 57.2383 310.969 56.582C310.742 55.918 310.387 55.4141 309.902 55.0703C309.418 54.7188 308.789 54.543 308.016 54.543C306.875 54.543 306.043 54.9258 305.52 55.6914C304.996 56.457 304.734 57.5547 304.734 58.9844ZM321.668 65.7344C320.121 65.7344 318.879 65.1719 317.941 64.0469C317.012 62.9141 316.547 61.2461 316.547 59.043C316.547 56.8164 317.02 55.1328 317.965 53.9922C318.918 52.8516 320.172 52.2812 321.727 52.2812C322.383 52.2812 322.957 52.3711 323.449 52.5508C323.941 52.7227 324.363 52.957 324.715 53.2539C325.074 53.5508 325.379 53.8828 325.629 54.25H325.758C325.719 54.0078 325.672 53.6602 325.617 53.207C325.57 52.7461 325.547 52.3203 325.547 51.9297V47.2656H328.312V65.5H326.156L325.664 63.7305H325.547C325.312 64.1055 325.016 64.4453 324.656 64.75C324.305 65.0469 323.883 65.2852 323.391 65.4648C322.906 65.6445 322.332 65.7344 321.668 65.7344ZM322.441 63.4961C323.621 63.4961 324.453 63.1562 324.938 62.4766C325.422 61.7969 325.672 60.7773 325.688 59.418V59.0547C325.688 57.6016 325.453 56.4883 324.984 55.7148C324.516 54.9336 323.66 54.543 322.418 54.543C321.426 54.543 320.668 54.9453 320.145 55.75C319.629 56.5469 319.371 57.6602 319.371 59.0898C319.371 60.5195 319.629 61.6133 320.145 62.3711C320.668 63.1211 321.434 63.4961 322.441 63.4961ZM337.43 52.2812C338.586 52.2812 339.578 52.5195 340.406 52.9961C341.234 53.4727 341.871 54.1484 342.316 55.0234C342.762 55.8984 342.984 56.9453 342.984 58.1641V59.6406H334.324C334.355 60.8984 334.691 61.8672 335.332 62.5469C335.98 63.2266 336.887 63.5664 338.051 63.5664C338.879 63.5664 339.621 63.4883 340.277 63.332C340.941 63.168 341.625 62.9297 342.328 62.6172V64.8555C341.68 65.1602 341.02 65.3828 340.348 65.5234C339.676 65.6641 338.871 65.7344 337.934 65.7344C336.66 65.7344 335.539 65.4883 334.57 64.9961C333.609 64.4961 332.855 63.7539 332.309 62.7695C331.77 61.7852 331.5 60.5625 331.5 59.1016C331.5 57.6484 331.746 56.4141 332.238 55.3984C332.73 54.3828 333.422 53.6094 334.312 53.0781C335.203 52.5469 336.242 52.2812 337.43 52.2812ZM337.43 54.3555C336.562 54.3555 335.859 54.6367 335.32 55.1992C334.789 55.7617 334.477 56.5859 334.383 57.6719H340.289C340.281 57.0234 340.172 56.4492 339.961 55.9492C339.758 55.4492 339.445 55.0586 339.023 54.7773C338.609 54.4961 338.078 54.3555 337.43 54.3555Z" fill="#1A1040"/>
<rect x="385.5" y="17.5" width="77" height="77" rx="3.5" fill="white" stroke="#1A1040" stroke-width="3"/>
<path d="M415.351 31.4431C416.866 30.5262 418.739 30.541 420.241 31.4812L423.58 33.5711C423.853 33.7417 424.165 33.8318 424.482 33.8318H424.771C425.088 33.8318 425.399 33.7419 425.671 33.5721L428.995 31.4969C430.492 30.5626 432.356 30.5467 433.867 31.4549L439.855 35.0525C441.37 35.963 442.292 37.6589 442.263 39.4822L442.197 43.5398C442.192 43.8711 442.273 44.1982 442.432 44.4851L442.576 44.7449C442.735 45.0311 442.964 45.2678 443.241 45.4285L446.635 47.3973C448.157 48.2802 449.102 49.9521 449.106 51.7683L449.122 58.9588C449.126 60.7863 448.177 62.4714 446.644 63.3572L443.242 65.323C442.964 65.4837 442.733 65.7206 442.574 66.0076L442.432 66.2644C442.273 66.5514 442.192 66.8784 442.197 67.2098L442.263 71.2723C442.292 73.09 441.375 74.7816 439.867 75.6941L433.899 79.3064C432.384 80.2234 430.511 80.2086 429.009 79.2683L425.67 77.1785C425.397 77.008 425.085 76.9178 424.768 76.9178H424.48C424.162 76.9178 423.851 77.0077 423.579 77.1775L420.256 79.2527C418.759 80.1872 416.894 80.2029 415.383 79.2947L409.396 75.698C407.88 74.7875 406.959 73.0907 406.988 71.2674L407.054 67.2224C407.059 66.8934 406.979 66.5686 406.822 66.283L406.67 66.0056C406.511 65.7167 406.28 65.4781 406.001 65.3162L402.615 63.3523C401.093 62.4693 400.148 60.7975 400.144 58.9812L400.128 51.7908C400.124 49.9634 401.074 48.2782 402.606 47.3924L406.008 45.4265C406.286 45.2658 406.518 45.0291 406.677 44.742L406.818 44.4851C406.977 44.1981 407.059 43.8712 407.054 43.5398L406.988 39.4773C406.959 37.6597 407.875 35.968 409.383 35.0555L415.351 31.4431ZM424.625 46.2488C419.792 46.2488 415.874 50.3351 415.874 55.3748C415.874 60.4143 419.792 64.4998 424.625 64.4998C429.458 64.4998 433.376 60.4143 433.376 55.3748C433.376 50.3351 429.458 46.2488 424.625 46.2488Z" fill="#1A1040"/>
<path d="M415.351 31.4431L414.833 30.5876L414.833 30.5877L415.351 31.4431ZM420.241 31.4812L419.711 32.3288L419.711 32.3289L420.241 31.4812ZM423.58 33.5711L424.111 32.7234L424.111 32.7234L423.58 33.5711ZM424.482 33.8318L424.482 34.8318H424.482V33.8318ZM425.671 33.5721L426.2 34.4204L426.2 34.4203L425.671 33.5721ZM428.995 31.4969L429.525 32.3451L429.525 32.3451L428.995 31.4969ZM433.867 31.4549L433.352 32.312V32.312L433.867 31.4549ZM439.855 35.0525L440.37 34.1954L440.37 34.1954L439.855 35.0525ZM442.263 39.4822L441.263 39.4661V39.4661L442.263 39.4822ZM442.197 43.5398L443.197 43.556V43.556L442.197 43.5398ZM442.432 44.4851L441.557 44.9695L441.558 44.9713L442.432 44.4851ZM442.576 44.7449L443.451 44.2603L443.45 44.2587L442.576 44.7449ZM443.241 45.4285L442.739 46.2934L442.739 46.2935L443.241 45.4285ZM446.635 47.3973L446.133 48.2622L446.133 48.2622L446.635 47.3973ZM449.106 51.7683L450.106 51.7662V51.7661L449.106 51.7683ZM449.122 58.9588L448.122 58.9609V58.961L449.122 58.9588ZM446.644 63.3572L446.143 62.4914L446.143 62.4914L446.644 63.3572ZM443.242 65.323L443.743 66.1889L443.743 66.1888L443.242 65.323ZM442.574 66.0076L443.449 66.493L443.449 66.4924L442.574 66.0076ZM442.432 66.2644L441.557 65.7791L441.557 65.7801L442.432 66.2644ZM442.197 67.2098L443.197 67.1936V67.1936L442.197 67.2098ZM442.263 71.2723L441.263 71.2884V71.2884L442.263 71.2723ZM439.867 75.6941L439.349 74.8386L439.349 74.8386L439.867 75.6941ZM433.899 79.3064L434.417 80.162L434.417 80.1619L433.899 79.3064ZM429.009 79.2683L429.539 78.4207L429.539 78.4207L429.009 79.2683ZM425.67 77.1785L426.2 76.3308L426.2 76.3307L425.67 77.1785ZM424.48 76.9178V75.9178H424.479L424.48 76.9178ZM423.579 77.1775L423.05 76.3293L423.049 76.3293L423.579 77.1775ZM420.256 79.2527L420.785 80.101L420.786 80.1009L420.256 79.2527ZM415.383 79.2947L415.898 78.4376L415.898 78.4375L415.383 79.2947ZM409.396 75.698L408.88 76.5552L408.881 76.5553L409.396 75.698ZM406.988 71.2674L405.988 71.2512L405.988 71.2512L406.988 71.2674ZM407.054 67.2224L406.054 67.2063L406.054 67.2063L407.054 67.2224ZM406.822 66.283L407.699 65.8018L407.699 65.8015L406.822 66.283ZM406.67 66.0056L405.793 66.487L405.793 66.4871L406.67 66.0056ZM406.001 65.3162L406.503 64.4512L406.503 64.4512L406.001 65.3162ZM402.615 63.3523L402.113 64.2173L402.114 64.2173L402.615 63.3523ZM400.144 58.9812L399.144 58.9834L399.144 58.9835L400.144 58.9812ZM400.128 51.7908L401.128 51.7886V51.7886L400.128 51.7908ZM402.606 47.3924L403.107 48.2582L403.107 48.2582L402.606 47.3924ZM406.008 45.4265L405.507 44.5607L405.507 44.5607L406.008 45.4265ZM406.677 44.742L407.551 45.2266L407.552 45.2248L406.677 44.742ZM406.818 44.4851L405.944 44.0007L405.943 44.0023L406.818 44.4851ZM407.054 43.5398L406.054 43.5559L406.054 43.556L407.054 43.5398ZM406.988 39.4773L407.988 39.4612V39.4612L406.988 39.4773ZM409.383 35.0555L409.901 35.911L409.901 35.9109L409.383 35.0555ZM424.625 46.2488L424.625 45.2488H424.625V46.2488ZM415.874 55.3748H414.874V55.3748L415.874 55.3748ZM424.625 64.4998V65.4998H424.625L424.625 64.4998ZM433.376 55.3748L434.376 55.3748V55.3748H433.376ZM415.351 31.4431L415.868 32.2987C417.06 31.5774 418.528 31.5887 419.711 32.3288L420.241 31.4812L420.772 30.6336C418.95 29.4933 416.671 29.475 414.833 30.5876L415.351 31.4431ZM420.241 31.4812L419.711 32.3289L423.05 34.4187L423.58 33.5711L424.111 32.7234L420.772 30.6336L420.241 31.4812ZM423.58 33.5711L423.05 34.4187C423.479 34.6877 423.975 34.8318 424.482 34.8318L424.482 33.8318L424.482 32.8318C424.355 32.8318 424.226 32.7957 424.111 32.7234L423.58 33.5711ZM424.482 33.8318V34.8318H424.771V33.8318V32.8318H424.482V33.8318ZM424.771 33.8318V34.8318C425.278 34.8318 425.772 34.6878 426.2 34.4204L425.671 33.5721L425.141 32.7237C425.026 32.7959 424.898 32.8318 424.771 32.8318V33.8318ZM425.671 33.5721L426.2 34.4203L429.525 32.3451L428.995 31.4969L428.466 30.6486L425.141 32.7238L425.671 33.5721ZM428.995 31.4969L429.525 32.3451C430.703 31.6098 432.163 31.5976 433.352 32.312L433.867 31.4549L434.382 30.5977C432.549 29.4959 430.281 29.5153 428.466 30.6486L428.995 31.4969ZM433.867 31.4549L433.352 32.312L439.339 35.9097L439.855 35.0525L440.37 34.1954L434.382 30.5977L433.867 31.4549ZM439.855 35.0525L439.339 35.9097C440.537 36.6295 441.287 37.9859 441.263 39.4661L442.263 39.4822L443.263 39.4983C443.298 37.3319 442.202 35.2965 440.37 34.1954L439.855 35.0525ZM442.263 39.4822L441.263 39.4661L441.197 43.5237L442.197 43.5398L443.197 43.556L443.263 39.4983L442.263 39.4822ZM442.197 43.5398L441.197 43.5237C441.189 44.0273 441.312 44.5272 441.557 44.9695L442.432 44.4851L443.307 44.0008C443.234 43.8691 443.195 43.715 443.197 43.556L442.197 43.5398ZM442.432 44.4851L441.558 44.9713L441.702 45.2311L442.576 44.7449L443.45 44.2587L443.306 43.9989L442.432 44.4851ZM442.576 44.7449L441.701 45.2295C441.945 45.6688 442.301 46.039 442.739 46.2934L443.241 45.4285L443.743 44.5636C443.627 44.4965 443.525 44.3935 443.451 44.2603L442.576 44.7449ZM443.241 45.4285L442.739 46.2935L446.133 48.2622L446.635 47.3973L447.137 46.5323L443.743 44.5635L443.241 45.4285ZM446.635 47.3973L446.133 48.2622C447.336 48.9598 448.103 50.296 448.106 51.7706L449.106 51.7683L450.106 51.7661C450.102 49.6081 448.978 47.6007 447.137 46.5323L446.635 47.3973ZM449.106 51.7683L448.106 51.7705L448.122 58.9609L449.122 58.9588L450.122 58.9566L450.106 51.7662L449.106 51.7683ZM449.122 58.9588L448.122 58.961C448.125 60.4448 447.354 61.7916 446.143 62.4914L446.644 63.3572L447.144 64.223C448.999 63.1511 450.127 61.1278 450.122 58.9566L449.122 58.9588ZM446.644 63.3572L446.143 62.4914L442.742 64.4572L443.242 65.323L443.743 66.1888L447.144 64.223L446.644 63.3572ZM443.242 65.323L442.742 64.4572C442.303 64.711 441.944 65.0814 441.7 65.5228L442.574 66.0076L443.449 66.4924C443.522 66.3597 443.626 66.2564 443.743 66.1889L443.242 65.323ZM442.574 66.0076L441.7 65.5222L441.557 65.7791L442.432 66.2644L443.306 66.7498L443.449 66.493L442.574 66.0076ZM442.432 66.2644L441.557 65.7801C441.312 66.2223 441.189 66.7223 441.197 67.2259L442.197 67.2098L443.197 67.1936C443.195 67.0346 443.234 66.8804 443.307 66.7488L442.432 66.2644ZM442.197 67.2098L441.197 67.2259L441.263 71.2884L442.263 71.2723L443.263 71.2561L443.197 67.1936L442.197 67.2098ZM442.263 71.2723L441.263 71.2884C441.287 72.7639 440.542 74.117 439.349 74.8386L439.867 75.6941L440.385 76.5497C442.208 75.4461 443.297 73.416 443.263 71.2561L442.263 71.2723ZM439.867 75.6941L439.349 74.8386L433.382 78.4509L433.899 79.3064L434.417 80.1619L440.385 76.5496L439.867 75.6941ZM433.899 79.3064L433.382 78.4509C432.19 79.1722 430.722 79.1609 429.539 78.4207L429.009 79.2683L428.478 80.116C430.3 81.2562 432.579 81.2746 434.417 80.162L433.899 79.3064ZM429.009 79.2683L429.539 78.4207L426.2 76.3308L425.67 77.1785L425.139 78.0261L428.478 80.116L429.009 79.2683ZM425.67 77.1785L426.2 76.3307C425.771 76.0621 425.275 75.9178 424.768 75.9178V76.9178V77.9178C424.895 77.9178 425.024 77.9539 425.14 78.0263L425.67 77.1785ZM424.768 76.9178V75.9178H424.48V76.9178V77.9178H424.768V76.9178ZM424.48 76.9178L424.479 75.9178C423.973 75.9178 423.478 76.0616 423.05 76.3293L423.579 77.1775L424.109 78.0258C424.224 77.9537 424.352 77.9178 424.48 77.9178L424.48 76.9178ZM423.579 77.1775L423.049 76.3293L419.726 78.4045L420.256 79.2527L420.786 80.1009L424.109 78.0257L423.579 77.1775ZM420.256 79.2527L419.726 78.4045C418.548 79.1399 417.087 79.1521 415.898 78.4376L415.383 79.2947L414.868 80.1519C416.701 81.2537 418.97 81.2345 420.785 80.101L420.256 79.2527ZM415.383 79.2947L415.898 78.4375L409.91 74.8408L409.396 75.698L408.881 76.5553L414.868 80.1519L415.383 79.2947ZM409.396 75.698L409.911 74.8409C408.713 74.1213 407.964 72.7643 407.988 71.2835L406.988 71.2674L405.988 71.2512C405.953 73.4171 407.047 75.4537 408.88 76.5552L409.396 75.698ZM406.988 71.2674L407.988 71.2835L408.054 67.2386L407.054 67.2224L406.054 67.2063L405.988 71.2512L406.988 71.2674ZM407.054 67.2224L408.054 67.2386C408.062 66.7378 407.94 66.2413 407.699 65.8018L406.822 66.283L405.946 66.7642C406.018 66.8958 406.056 67.0491 406.054 67.2063L407.054 67.2224ZM406.822 66.283L407.699 65.8015L407.546 65.5242L406.67 66.0056L405.793 66.4871L405.946 66.7644L406.822 66.283ZM406.67 66.0056L407.546 65.5243C407.302 65.08 406.944 64.7069 406.503 64.4512L406.001 65.3162L405.499 66.1812C405.617 66.2493 405.72 66.3534 405.793 66.487L406.67 66.0056ZM406.001 65.3162L406.503 64.4512L403.117 62.4873L402.615 63.3523L402.114 64.2173L405.499 66.1812L406.001 65.3162ZM402.615 63.3523L403.117 62.4873C401.915 61.7897 401.147 60.4535 401.144 58.979L400.144 58.9812L399.144 58.9835C399.148 61.1414 400.272 63.1489 402.113 64.2173L402.615 63.3523ZM400.144 58.9812L401.144 58.9791L401.128 51.7886L400.128 51.7908L399.128 51.793L399.144 58.9834L400.144 58.9812ZM400.128 51.7908L401.128 51.7886C401.125 50.3049 401.896 48.958 403.107 48.2582L402.606 47.3924L402.106 46.5265C400.251 47.5985 399.123 49.6218 399.128 51.793L400.128 51.7908ZM402.606 47.3924L403.107 48.2582L406.508 46.2923L406.008 45.4265L405.507 44.5607L402.106 46.5266L402.606 47.3924ZM406.008 45.4265L406.508 46.2924C406.946 46.0393 407.306 45.6696 407.551 45.2266L406.677 44.742L405.802 44.2573C405.729 44.3886 405.626 44.4923 405.507 44.5607L406.008 45.4265ZM406.677 44.742L407.552 45.2248L407.694 44.968L406.818 44.4851L405.943 44.0023L405.801 44.2592L406.677 44.742ZM406.818 44.4851L407.693 44.9696C407.937 44.5289 408.062 44.0293 408.054 43.5237L407.054 43.5398L406.054 43.556C406.056 43.7132 406.017 43.8674 405.944 44.0007L406.818 44.4851ZM407.054 43.5398L408.054 43.5237L407.988 39.4612L406.988 39.4773L405.988 39.4934L406.054 43.5559L407.054 43.5398ZM406.988 39.4773L407.988 39.4612C407.964 37.9853 408.709 36.6324 409.901 35.911L409.383 35.0555L408.865 34.1999C407.041 35.3037 405.954 37.334 405.988 39.4934L406.988 39.4773ZM409.383 35.0555L409.901 35.9109L415.868 32.2986L415.351 31.4431L414.833 30.5877L408.865 34.2L409.383 35.0555ZM424.625 46.2488V45.2488C419.2 45.2488 414.874 49.8228 414.874 55.3748H415.874H416.874C416.874 50.8473 420.383 47.2488 424.625 47.2488V46.2488ZM415.874 55.3748L414.874 55.3748C414.874 60.9267 419.201 65.4998 424.625 65.4998V64.4998V63.4998C420.383 63.4998 416.874 59.9019 416.874 55.3747L415.874 55.3748ZM424.625 64.4998L424.625 65.4998C430.049 65.4998 434.376 60.9267 434.376 55.3748L433.376 55.3748L432.376 55.3747C432.376 59.9019 428.867 63.4998 424.625 63.4998L424.625 64.4998ZM433.376 55.3748H434.376C434.376 49.8228 430.05 45.2488 424.625 45.2488L424.625 46.2488L424.625 47.2488C428.867 47.2488 432.376 50.8474 432.376 55.3748H433.376Z" fill="#1A1040"/>
<g filter="url(#filter0_d_3980_48055)">
<rect x="16" y="384" width="216" height="80" rx="5" fill="#1A1040" shape-rendering="crispEdges"/>
<path d="M64.832 428.742C64.832 429.758 64.5859 430.641 64.0938 431.391C63.6016 432.141 62.8828 432.719 61.9375 433.125C61 433.531 59.8594 433.734 58.5156 433.734C57.9219 433.734 57.3398 433.695 56.7695 433.617C56.207 433.539 55.6641 433.426 55.1406 433.277C54.625 433.121 54.1328 432.93 53.6641 432.703V429.328C54.4766 429.688 55.3203 430.012 56.1953 430.301C57.0703 430.59 57.9375 430.734 58.7969 430.734C59.3906 430.734 59.8672 430.656 60.2266 430.5C60.5938 430.344 60.8594 430.129 61.0234 429.855C61.1875 429.582 61.2695 429.27 61.2695 428.918C61.2695 428.488 61.125 428.121 60.8359 427.816C60.5469 427.512 60.1484 427.227 59.6406 426.961C59.1406 426.695 58.5742 426.41 57.9414 426.105C57.543 425.918 57.1094 425.691 56.6406 425.426C56.1719 425.152 55.7266 424.82 55.3047 424.43C54.8828 424.039 54.5352 423.566 54.2617 423.012C53.9961 422.449 53.8633 421.777 53.8633 420.996C53.8633 419.973 54.0977 419.098 54.5664 418.371C55.0352 417.645 55.7031 417.09 56.5703 416.707C57.4453 416.316 58.4766 416.121 59.6641 416.121C60.5547 416.121 61.4023 416.227 62.207 416.438C63.0195 416.641 63.8672 416.938 64.75 417.328L63.5781 420.152C62.7891 419.832 62.082 419.586 61.457 419.414C60.832 419.234 60.1953 419.145 59.5469 419.145C59.0938 419.145 58.707 419.219 58.3867 419.367C58.0664 419.508 57.8242 419.711 57.6602 419.977C57.4961 420.234 57.4141 420.535 57.4141 420.879C57.4141 421.285 57.5312 421.629 57.7656 421.91C58.0078 422.184 58.3672 422.449 58.8438 422.707C59.3281 422.965 59.9297 423.266 60.6484 423.609C61.5234 424.023 62.2695 424.457 62.8867 424.91C63.5117 425.355 63.9922 425.883 64.3281 426.492C64.6641 427.094 64.832 427.844 64.832 428.742ZM71.2305 415.266V418.98C71.2305 419.629 71.207 420.246 71.1602 420.832C71.1211 421.418 71.0898 421.832 71.0664 422.074H71.2539C71.5352 421.621 71.8672 421.254 72.25 420.973C72.6406 420.691 73.0703 420.484 73.5391 420.352C74.0078 420.219 74.5117 420.152 75.0508 420.152C75.9961 420.152 76.8203 420.32 77.5234 420.656C78.2266 420.984 78.7734 421.504 79.1641 422.215C79.5547 422.918 79.75 423.832 79.75 424.957V433.5H76.1758V425.848C76.1758 424.91 76.0039 424.203 75.6602 423.727C75.3164 423.25 74.7852 423.012 74.0664 423.012C73.3477 423.012 72.7812 423.18 72.3672 423.516C71.9531 423.844 71.6602 424.332 71.4883 424.98C71.3164 425.621 71.2305 426.406 71.2305 427.336V433.5H67.6562V415.266H71.2305ZM95.3359 426.926C95.3359 428.02 95.1875 428.988 94.8906 429.832C94.6016 430.676 94.1758 431.391 93.6133 431.977C93.0586 432.555 92.3867 432.992 91.5977 433.289C90.8164 433.586 89.9336 433.734 88.9492 433.734C88.0273 433.734 87.1797 433.586 86.4062 433.289C85.6406 432.992 84.9727 432.555 84.4023 431.977C83.8398 431.391 83.4023 430.676 83.0898 429.832C82.7852 428.988 82.6328 428.02 82.6328 426.926C82.6328 425.473 82.8906 424.242 83.4062 423.234C83.9219 422.227 84.6562 421.461 85.6094 420.938C86.5625 420.414 87.6992 420.152 89.0195 420.152C90.2461 420.152 91.332 420.414 92.2773 420.938C93.2305 421.461 93.9766 422.227 94.5156 423.234C95.0625 424.242 95.3359 425.473 95.3359 426.926ZM86.2773 426.926C86.2773 427.785 86.3711 428.508 86.5586 429.094C86.7461 429.68 87.0391 430.121 87.4375 430.418C87.8359 430.715 88.3555 430.863 88.9961 430.863C89.6289 430.863 90.1406 430.715 90.5312 430.418C90.9297 430.121 91.2188 429.68 91.3984 429.094C91.5859 428.508 91.6797 427.785 91.6797 426.926C91.6797 426.059 91.5859 425.34 91.3984 424.77C91.2188 424.191 90.9297 423.758 90.5312 423.469C90.1328 423.18 89.6133 423.035 88.9727 423.035C88.0273 423.035 87.3398 423.359 86.9102 424.008C86.4883 424.656 86.2773 425.629 86.2773 426.926ZM105.602 420.152C105.781 420.152 105.988 420.164 106.223 420.188C106.465 420.203 106.66 420.227 106.809 420.258L106.539 423.609C106.422 423.57 106.254 423.543 106.035 423.527C105.824 423.504 105.641 423.492 105.484 423.492C105.023 423.492 104.574 423.551 104.137 423.668C103.707 423.785 103.32 423.977 102.977 424.242C102.633 424.5 102.359 424.844 102.156 425.273C101.961 425.695 101.863 426.215 101.863 426.832V433.5H98.2891V420.398H100.996L101.523 422.602H101.699C101.957 422.156 102.277 421.75 102.66 421.383C103.051 421.008 103.492 420.711 103.984 420.492C104.484 420.266 105.023 420.152 105.602 420.152ZM114.707 430.887C115.098 430.887 115.477 430.848 115.844 430.77C116.219 430.691 116.59 430.594 116.957 430.477V433.137C116.574 433.309 116.098 433.449 115.527 433.559C114.965 433.676 114.348 433.734 113.676 433.734C112.895 433.734 112.191 433.609 111.566 433.359C110.949 433.102 110.461 432.66 110.102 432.035C109.75 431.402 109.574 430.523 109.574 429.398V423.082H107.863V421.57L109.832 420.375L110.863 417.609H113.148V420.398H116.816V423.082H113.148V429.398C113.148 429.898 113.289 430.273 113.57 430.523C113.859 430.766 114.238 430.887 114.707 430.887ZM131.605 416.367C133.816 416.367 135.43 416.844 136.445 417.797C137.461 418.742 137.969 420.047 137.969 421.711C137.969 422.461 137.855 423.18 137.629 423.867C137.402 424.547 137.031 425.152 136.516 425.684C136.008 426.215 135.328 426.637 134.477 426.949C133.625 427.254 132.574 427.406 131.324 427.406H129.766V433.5H126.133V416.367H131.605ZM131.418 419.344H129.766V424.43H130.961C131.641 424.43 132.23 424.34 132.73 424.16C133.23 423.98 133.617 423.699 133.891 423.316C134.164 422.934 134.301 422.441 134.301 421.84C134.301 420.996 134.066 420.371 133.598 419.965C133.129 419.551 132.402 419.344 131.418 419.344ZM146.289 420.129C148.047 420.129 149.395 420.512 150.332 421.277C151.27 422.043 151.738 423.207 151.738 424.77V433.5H149.242L148.551 431.719H148.457C148.082 432.188 147.699 432.57 147.309 432.867C146.918 433.164 146.469 433.383 145.961 433.523C145.453 433.664 144.836 433.734 144.109 433.734C143.336 433.734 142.641 433.586 142.023 433.289C141.414 432.992 140.934 432.539 140.582 431.93C140.23 431.312 140.055 430.531 140.055 429.586C140.055 428.195 140.543 427.172 141.52 426.516C142.496 425.852 143.961 425.484 145.914 425.414L148.188 425.344V424.77C148.188 424.082 148.008 423.578 147.648 423.258C147.289 422.938 146.789 422.777 146.148 422.777C145.516 422.777 144.895 422.867 144.285 423.047C143.676 423.227 143.066 423.453 142.457 423.727L141.273 421.312C141.969 420.945 142.746 420.656 143.605 420.445C144.473 420.234 145.367 420.129 146.289 420.129ZM148.188 427.43L146.805 427.477C145.648 427.508 144.844 427.715 144.391 428.098C143.945 428.48 143.723 428.984 143.723 429.609C143.723 430.156 143.883 430.547 144.203 430.781C144.523 431.008 144.941 431.121 145.457 431.121C146.223 431.121 146.867 430.895 147.391 430.441C147.922 429.988 148.188 429.344 148.188 428.508V427.43ZM167.453 420.398V433.5H164.711L164.23 431.824H164.043C163.762 432.27 163.41 432.633 162.988 432.914C162.566 433.195 162.102 433.402 161.594 433.535C161.086 433.668 160.559 433.734 160.012 433.734C159.074 433.734 158.258 433.57 157.562 433.242C156.867 432.906 156.324 432.387 155.934 431.684C155.551 430.98 155.359 430.066 155.359 428.941V420.398H158.934V428.051C158.934 428.988 159.102 429.695 159.438 430.172C159.773 430.648 160.309 430.887 161.043 430.887C161.77 430.887 162.34 430.723 162.754 430.395C163.168 430.059 163.457 429.57 163.621 428.93C163.793 428.281 163.879 427.492 163.879 426.562V420.398H167.453ZM180.344 429.609C180.344 430.5 180.133 431.254 179.711 431.871C179.297 432.48 178.676 432.945 177.848 433.266C177.02 433.578 175.988 433.734 174.754 433.734C173.84 433.734 173.055 433.676 172.398 433.559C171.75 433.441 171.094 433.246 170.43 432.973V430.02C171.141 430.34 171.902 430.605 172.715 430.816C173.535 431.02 174.254 431.121 174.871 431.121C175.566 431.121 176.062 431.02 176.359 430.816C176.664 430.605 176.816 430.332 176.816 429.996C176.816 429.777 176.754 429.582 176.629 429.41C176.512 429.23 176.254 429.031 175.855 428.812C175.457 428.586 174.832 428.293 173.98 427.934C173.16 427.59 172.484 427.242 171.953 426.891C171.43 426.539 171.039 426.125 170.781 425.648C170.531 425.164 170.406 424.551 170.406 423.809C170.406 422.598 170.875 421.688 171.812 421.078C172.758 420.461 174.02 420.152 175.598 420.152C176.41 420.152 177.184 420.234 177.918 420.398C178.66 420.562 179.422 420.824 180.203 421.184L179.125 423.762C178.477 423.48 177.863 423.25 177.285 423.07C176.715 422.891 176.133 422.801 175.539 422.801C175.016 422.801 174.621 422.871 174.355 423.012C174.09 423.152 173.957 423.367 173.957 423.656C173.957 423.867 174.023 424.055 174.156 424.219C174.297 424.383 174.562 424.566 174.953 424.77C175.352 424.965 175.934 425.219 176.699 425.531C177.441 425.836 178.086 426.156 178.633 426.492C179.18 426.82 179.602 427.23 179.898 427.723C180.195 428.207 180.344 428.836 180.344 429.609ZM188.535 420.152C189.746 420.152 190.789 420.387 191.664 420.855C192.539 421.316 193.215 421.988 193.691 422.871C194.168 423.754 194.406 424.832 194.406 426.105V427.84H185.957C185.996 428.848 186.297 429.641 186.859 430.219C187.43 430.789 188.219 431.074 189.227 431.074C190.062 431.074 190.828 430.988 191.523 430.816C192.219 430.645 192.934 430.387 193.668 430.043V432.809C193.02 433.129 192.34 433.363 191.629 433.512C190.926 433.66 190.07 433.734 189.062 433.734C187.75 433.734 186.586 433.492 185.57 433.008C184.562 432.523 183.77 431.785 183.191 430.793C182.621 429.801 182.336 428.551 182.336 427.043C182.336 425.512 182.594 424.238 183.109 423.223C183.633 422.199 184.359 421.434 185.289 420.926C186.219 420.41 187.301 420.152 188.535 420.152ZM188.559 422.695C187.863 422.695 187.285 422.918 186.824 423.363C186.371 423.809 186.109 424.508 186.039 425.461H191.055C191.047 424.93 190.949 424.457 190.762 424.043C190.582 423.629 190.309 423.301 189.941 423.059C189.582 422.816 189.121 422.695 188.559 422.695Z" fill="white"/>
</g>
<g filter="url(#filter1_d_3980_48055)">
<rect x="248" y="384" width="216" height="80" rx="5" fill="#1A1040" shape-rendering="crispEdges"/>
<path d="M290.422 433.5V416.367H294.055V430.5H301.004V433.5H290.422ZM315.617 426.926C315.617 428.02 315.469 428.988 315.172 429.832C314.883 430.676 314.457 431.391 313.895 431.977C313.34 432.555 312.668 432.992 311.879 433.289C311.098 433.586 310.215 433.734 309.23 433.734C308.309 433.734 307.461 433.586 306.688 433.289C305.922 432.992 305.254 432.555 304.684 431.977C304.121 431.391 303.684 430.676 303.371 429.832C303.066 428.988 302.914 428.02 302.914 426.926C302.914 425.473 303.172 424.242 303.688 423.234C304.203 422.227 304.938 421.461 305.891 420.938C306.844 420.414 307.98 420.152 309.301 420.152C310.527 420.152 311.613 420.414 312.559 420.938C313.512 421.461 314.258 422.227 314.797 423.234C315.344 424.242 315.617 425.473 315.617 426.926ZM306.559 426.926C306.559 427.785 306.652 428.508 306.84 429.094C307.027 429.68 307.32 430.121 307.719 430.418C308.117 430.715 308.637 430.863 309.277 430.863C309.91 430.863 310.422 430.715 310.812 430.418C311.211 430.121 311.5 429.68 311.68 429.094C311.867 428.508 311.961 427.785 311.961 426.926C311.961 426.059 311.867 425.34 311.68 424.77C311.5 424.191 311.211 423.758 310.812 423.469C310.414 423.18 309.895 423.035 309.254 423.035C308.309 423.035 307.621 423.359 307.191 424.008C306.77 424.656 306.559 425.629 306.559 426.926ZM326.012 420.152C327.41 420.152 328.535 420.535 329.387 421.301C330.238 422.059 330.664 423.277 330.664 424.957V433.5H327.09V425.848C327.09 424.91 326.918 424.203 326.574 423.727C326.238 423.25 325.707 423.012 324.98 423.012C323.887 423.012 323.141 423.383 322.742 424.125C322.344 424.867 322.145 425.938 322.145 427.336V433.5H318.57V420.398H321.301L321.781 422.074H321.98C322.262 421.621 322.609 421.254 323.023 420.973C323.445 420.691 323.91 420.484 324.418 420.352C324.934 420.219 325.465 420.152 326.012 420.152ZM338.176 439.266C336.348 439.266 334.949 438.945 333.98 438.305C333.02 437.672 332.539 436.781 332.539 435.633C332.539 434.844 332.785 434.184 333.277 433.652C333.77 433.121 334.492 432.742 335.445 432.516C335.078 432.359 334.758 432.105 334.484 431.754C334.211 431.395 334.074 431.016 334.074 430.617C334.074 430.117 334.219 429.703 334.508 429.375C334.797 429.039 335.215 428.711 335.762 428.391C335.074 428.094 334.527 427.617 334.121 426.961C333.723 426.305 333.523 425.531 333.523 424.641C333.523 423.688 333.73 422.879 334.145 422.215C334.566 421.543 335.176 421.031 335.973 420.68C336.777 420.328 337.754 420.152 338.902 420.152C339.145 420.152 339.426 420.168 339.746 420.199C340.066 420.23 340.359 420.266 340.625 420.305C340.898 420.344 341.082 420.375 341.176 420.398H345.746V422.215L343.695 422.742C343.883 423.031 344.023 423.34 344.117 423.668C344.211 423.996 344.258 424.344 344.258 424.711C344.258 426.117 343.766 427.215 342.781 428.004C341.805 428.785 340.445 429.176 338.703 429.176C338.289 429.152 337.898 429.121 337.531 429.082C337.352 429.223 337.215 429.371 337.121 429.527C337.027 429.684 336.98 429.848 336.98 430.02C336.98 430.191 337.051 430.336 337.191 430.453C337.34 430.562 337.559 430.648 337.848 430.711C338.145 430.766 338.512 430.793 338.949 430.793H341.176C342.613 430.793 343.707 431.102 344.457 431.719C345.215 432.336 345.594 433.242 345.594 434.438C345.594 435.969 344.953 437.156 343.672 438C342.398 438.844 340.566 439.266 338.176 439.266ZM338.328 436.934C339.18 436.934 339.91 436.852 340.52 436.688C341.137 436.531 341.609 436.305 341.938 436.008C342.266 435.719 342.43 435.371 342.43 434.965C342.43 434.637 342.332 434.375 342.137 434.18C341.949 433.992 341.66 433.859 341.27 433.781C340.887 433.703 340.395 433.664 339.793 433.664H337.941C337.504 433.664 337.109 433.734 336.758 433.875C336.414 434.016 336.141 434.211 335.938 434.461C335.734 434.719 335.633 435.016 335.633 435.352C335.633 435.844 335.867 436.23 336.336 436.512C336.812 436.793 337.477 436.934 338.328 436.934ZM338.902 426.996C339.574 426.996 340.066 426.789 340.379 426.375C340.691 425.961 340.848 425.398 340.848 424.688C340.848 423.898 340.684 423.309 340.355 422.918C340.035 422.52 339.551 422.32 338.902 422.32C338.246 422.32 337.754 422.52 337.426 422.918C337.098 423.309 336.934 423.898 336.934 424.688C336.934 425.398 337.094 425.961 337.414 426.375C337.742 426.789 338.238 426.996 338.902 426.996ZM359.902 416.367C362.113 416.367 363.727 416.844 364.742 417.797C365.758 418.742 366.266 420.047 366.266 421.711C366.266 422.461 366.152 423.18 365.926 423.867C365.699 424.547 365.328 425.152 364.812 425.684C364.305 426.215 363.625 426.637 362.773 426.949C361.922 427.254 360.871 427.406 359.621 427.406H358.062V433.5H354.43V416.367H359.902ZM359.715 419.344H358.062V424.43H359.258C359.938 424.43 360.527 424.34 361.027 424.16C361.527 423.98 361.914 423.699 362.188 423.316C362.461 422.934 362.598 422.441 362.598 421.84C362.598 420.996 362.363 420.371 361.895 419.965C361.426 419.551 360.699 419.344 359.715 419.344ZM374.586 420.129C376.344 420.129 377.691 420.512 378.629 421.277C379.566 422.043 380.035 423.207 380.035 424.77V433.5H377.539L376.848 431.719H376.754C376.379 432.188 375.996 432.57 375.605 432.867C375.215 433.164 374.766 433.383 374.258 433.523C373.75 433.664 373.133 433.734 372.406 433.734C371.633 433.734 370.938 433.586 370.32 433.289C369.711 432.992 369.23 432.539 368.879 431.93C368.527 431.312 368.352 430.531 368.352 429.586C368.352 428.195 368.84 427.172 369.816 426.516C370.793 425.852 372.258 425.484 374.211 425.414L376.484 425.344V424.77C376.484 424.082 376.305 423.578 375.945 423.258C375.586 422.938 375.086 422.777 374.445 422.777C373.812 422.777 373.191 422.867 372.582 423.047C371.973 423.227 371.363 423.453 370.754 423.727L369.57 421.312C370.266 420.945 371.043 420.656 371.902 420.445C372.77 420.234 373.664 420.129 374.586 420.129ZM376.484 427.43L375.102 427.477C373.945 427.508 373.141 427.715 372.688 428.098C372.242 428.48 372.02 428.984 372.02 429.609C372.02 430.156 372.18 430.547 372.5 430.781C372.82 431.008 373.238 431.121 373.754 431.121C374.52 431.121 375.164 430.895 375.688 430.441C376.219 429.988 376.484 429.344 376.484 428.508V427.43ZM395.75 420.398V433.5H393.008L392.527 431.824H392.34C392.059 432.27 391.707 432.633 391.285 432.914C390.863 433.195 390.398 433.402 389.891 433.535C389.383 433.668 388.855 433.734 388.309 433.734C387.371 433.734 386.555 433.57 385.859 433.242C385.164 432.906 384.621 432.387 384.23 431.684C383.848 430.98 383.656 430.066 383.656 428.941V420.398H387.23V428.051C387.23 428.988 387.398 429.695 387.734 430.172C388.07 430.648 388.605 430.887 389.34 430.887C390.066 430.887 390.637 430.723 391.051 430.395C391.465 430.059 391.754 429.57 391.918 428.93C392.09 428.281 392.176 427.492 392.176 426.562V420.398H395.75ZM408.641 429.609C408.641 430.5 408.43 431.254 408.008 431.871C407.594 432.48 406.973 432.945 406.145 433.266C405.316 433.578 404.285 433.734 403.051 433.734C402.137 433.734 401.352 433.676 400.695 433.559C400.047 433.441 399.391 433.246 398.727 432.973V430.02C399.438 430.34 400.199 430.605 401.012 430.816C401.832 431.02 402.551 431.121 403.168 431.121C403.863 431.121 404.359 431.02 404.656 430.816C404.961 430.605 405.113 430.332 405.113 429.996C405.113 429.777 405.051 429.582 404.926 429.41C404.809 429.23 404.551 429.031 404.152 428.812C403.754 428.586 403.129 428.293 402.277 427.934C401.457 427.59 400.781 427.242 400.25 426.891C399.727 426.539 399.336 426.125 399.078 425.648C398.828 425.164 398.703 424.551 398.703 423.809C398.703 422.598 399.172 421.688 400.109 421.078C401.055 420.461 402.316 420.152 403.895 420.152C404.707 420.152 405.48 420.234 406.215 420.398C406.957 420.562 407.719 420.824 408.5 421.184L407.422 423.762C406.773 423.48 406.16 423.25 405.582 423.07C405.012 422.891 404.43 422.801 403.836 422.801C403.312 422.801 402.918 422.871 402.652 423.012C402.387 423.152 402.254 423.367 402.254 423.656C402.254 423.867 402.32 424.055 402.453 424.219C402.594 424.383 402.859 424.566 403.25 424.77C403.648 424.965 404.23 425.219 404.996 425.531C405.738 425.836 406.383 426.156 406.93 426.492C407.477 426.82 407.898 427.23 408.195 427.723C408.492 428.207 408.641 428.836 408.641 429.609ZM416.832 420.152C418.043 420.152 419.086 420.387 419.961 420.855C420.836 421.316 421.512 421.988 421.988 422.871C422.465 423.754 422.703 424.832 422.703 426.105V427.84H414.254C414.293 428.848 414.594 429.641 415.156 430.219C415.727 430.789 416.516 431.074 417.523 431.074C418.359 431.074 419.125 430.988 419.82 430.816C420.516 430.645 421.23 430.387 421.965 430.043V432.809C421.316 433.129 420.637 433.363 419.926 433.512C419.223 433.66 418.367 433.734 417.359 433.734C416.047 433.734 414.883 433.492 413.867 433.008C412.859 432.523 412.066 431.785 411.488 430.793C410.918 429.801 410.633 428.551 410.633 427.043C410.633 425.512 410.891 424.238 411.406 423.223C411.93 422.199 412.656 421.434 413.586 420.926C414.516 420.41 415.598 420.152 416.832 420.152ZM416.855 422.695C416.16 422.695 415.582 422.918 415.121 423.363C414.668 423.809 414.406 424.508 414.336 425.461H419.352C419.344 424.93 419.246 424.457 419.059 424.043C418.879 423.629 418.605 423.301 418.238 423.059C417.879 422.816 417.418 422.695 416.855 422.695Z" fill="white"/>
</g>
<rect x="17.5" y="113.5" width="445" height="253" rx="4.5" fill="white" stroke="#FFEE58" stroke-width="3"/>
<path d="M157.824 135.645C157.129 135.645 156.512 135.781 155.973 136.055C155.441 136.32 154.992 136.707 154.625 137.215C154.266 137.723 153.992 138.336 153.805 139.055C153.617 139.773 153.523 140.582 153.523 141.48C153.523 142.691 153.672 143.727 153.969 144.586C154.273 145.438 154.742 146.09 155.375 146.543C156.008 146.988 156.824 147.211 157.824 147.211C158.52 147.211 159.215 147.133 159.91 146.977C160.613 146.82 161.375 146.598 162.195 146.309V149.355C161.438 149.668 160.691 149.891 159.957 150.023C159.223 150.164 158.398 150.234 157.484 150.234C155.719 150.234 154.266 149.871 153.125 149.145C151.992 148.41 151.152 147.387 150.605 146.074C150.059 144.754 149.785 143.215 149.785 141.457C149.785 140.16 149.961 138.973 150.312 137.895C150.664 136.816 151.18 135.883 151.859 135.094C152.539 134.305 153.379 133.695 154.379 133.266C155.379 132.836 156.527 132.621 157.824 132.621C158.676 132.621 159.527 132.73 160.379 132.949C161.238 133.16 162.059 133.453 162.84 133.828L161.668 136.781C161.027 136.477 160.383 136.211 159.734 135.984C159.086 135.758 158.449 135.645 157.824 135.645ZM176.34 150L175.098 145.922H168.852L167.609 150H163.695L169.742 132.797H174.184L180.254 150H176.34ZM174.23 142.875L172.988 138.891C172.91 138.625 172.805 138.285 172.672 137.871C172.547 137.449 172.418 137.023 172.285 136.594C172.16 136.156 172.059 135.777 171.98 135.457C171.902 135.777 171.793 136.176 171.652 136.652C171.52 137.121 171.391 137.566 171.266 137.988C171.141 138.41 171.051 138.711 170.996 138.891L169.766 142.875H174.23ZM182.422 150V132.867H186.055V147H193.004V150H182.422ZM195.992 150V132.867H199.625V150H195.992ZM203.938 132.867H209.27C211.551 132.867 213.277 133.188 214.449 133.828C215.621 134.469 216.207 135.594 216.207 137.203C216.207 137.852 216.102 138.438 215.891 138.961C215.688 139.484 215.391 139.914 215 140.25C214.609 140.586 214.133 140.805 213.57 140.906V141.023C214.141 141.141 214.656 141.344 215.117 141.633C215.578 141.914 215.945 142.328 216.219 142.875C216.5 143.414 216.641 144.133 216.641 145.031C216.641 146.07 216.387 146.961 215.879 147.703C215.371 148.445 214.645 149.016 213.699 149.414C212.762 149.805 211.645 150 210.348 150H203.938V132.867ZM207.57 139.652H209.68C210.734 139.652 211.465 139.488 211.871 139.16C212.277 138.824 212.48 138.332 212.48 137.684C212.48 137.027 212.238 136.559 211.754 136.277C211.277 135.988 210.52 135.844 209.48 135.844H207.57V139.652ZM207.57 142.535V147H209.938C211.031 147 211.793 146.789 212.223 146.367C212.652 145.945 212.867 145.379 212.867 144.668C212.867 144.246 212.773 143.875 212.586 143.555C212.398 143.234 212.082 142.984 211.637 142.805C211.199 142.625 210.594 142.535 209.82 142.535H207.57ZM225.055 132.867C226.609 132.867 227.891 133.055 228.898 133.43C229.914 133.805 230.668 134.371 231.16 135.129C231.652 135.887 231.898 136.844 231.898 138C231.898 138.781 231.75 139.465 231.453 140.051C231.156 140.637 230.766 141.133 230.281 141.539C229.797 141.945 229.273 142.277 228.711 142.535L233.75 150H229.719L225.629 143.426H223.695V150H220.062V132.867H225.055ZM224.797 135.844H223.695V140.473H224.867C226.07 140.473 226.93 140.273 227.445 139.875C227.969 139.469 228.23 138.875 228.23 138.094C228.23 137.281 227.949 136.703 227.387 136.359C226.832 136.016 225.969 135.844 224.797 135.844ZM246.395 150L245.152 145.922H238.906L237.664 150H233.75L239.797 132.797H244.238L250.309 150H246.395ZM244.285 142.875L243.043 138.891C242.965 138.625 242.859 138.285 242.727 137.871C242.602 137.449 242.473 137.023 242.34 136.594C242.215 136.156 242.113 135.777 242.035 135.457C241.957 135.777 241.848 136.176 241.707 136.652C241.574 137.121 241.445 137.566 241.32 137.988C241.195 138.41 241.105 138.711 241.051 138.891L239.82 142.875H244.285ZM259.086 150H255.453V135.891H250.801V132.867H263.738V135.891H259.086V150ZM266.375 150V132.867H270.008V150H266.375ZM289.52 150H284.902L277.449 137.039H277.344C277.375 137.578 277.402 138.121 277.426 138.668C277.449 139.215 277.473 139.762 277.496 140.309C277.52 140.848 277.543 141.391 277.566 141.938V150H274.32V132.867H278.902L286.344 145.699H286.426C286.41 145.168 286.391 144.641 286.367 144.117C286.344 143.594 286.32 143.07 286.297 142.547C286.281 142.023 286.266 141.5 286.25 140.977V132.867H289.52V150ZM300.348 140.379H307.145V149.262C306.246 149.559 305.312 149.797 304.344 149.977C303.375 150.148 302.277 150.234 301.051 150.234C299.348 150.234 297.902 149.898 296.715 149.227C295.527 148.555 294.625 147.562 294.008 146.25C293.391 144.938 293.082 143.324 293.082 141.41C293.082 139.613 293.426 138.059 294.113 136.746C294.809 135.434 295.82 134.418 297.148 133.699C298.484 132.98 300.113 132.621 302.035 132.621C302.941 132.621 303.836 132.719 304.719 132.914C305.602 133.109 306.402 133.363 307.121 133.676L305.914 136.582C305.391 136.316 304.793 136.094 304.121 135.914C303.449 135.734 302.746 135.645 302.012 135.645C300.957 135.645 300.039 135.887 299.258 136.371C298.484 136.855 297.883 137.535 297.453 138.41C297.031 139.277 296.82 140.301 296.82 141.48C296.82 142.598 296.973 143.59 297.277 144.457C297.582 145.316 298.062 145.992 298.719 146.484C299.375 146.969 300.23 147.211 301.285 147.211C301.801 147.211 302.234 147.188 302.586 147.141C302.945 147.086 303.281 147.031 303.594 146.977V143.402H300.348V140.379ZM310.449 148.324C310.449 147.59 310.648 147.074 311.047 146.777C311.453 146.48 311.941 146.332 312.512 146.332C313.066 146.332 313.543 146.48 313.941 146.777C314.348 147.074 314.551 147.59 314.551 148.324C314.551 149.027 314.348 149.535 313.941 149.848C313.543 150.16 313.066 150.316 312.512 150.316C311.941 150.316 311.453 150.16 311.047 149.848C310.648 149.535 310.449 149.027 310.449 148.324ZM317.293 148.324C317.293 147.59 317.492 147.074 317.891 146.777C318.297 146.48 318.785 146.332 319.355 146.332C319.91 146.332 320.387 146.48 320.785 146.777C321.191 147.074 321.395 147.59 321.395 148.324C321.395 149.027 321.191 149.535 320.785 149.848C320.387 150.16 319.91 150.316 319.355 150.316C318.785 150.316 318.297 150.16 317.891 149.848C317.492 149.535 317.293 149.027 317.293 148.324ZM324.137 148.324C324.137 147.59 324.336 147.074 324.734 146.777C325.141 146.48 325.629 146.332 326.199 146.332C326.754 146.332 327.23 146.48 327.629 146.777C328.035 147.074 328.238 147.59 328.238 148.324C328.238 149.027 328.035 149.535 327.629 149.848C327.23 150.16 326.754 150.316 326.199 150.316C325.629 150.316 325.141 150.16 324.734 149.848C324.336 149.535 324.137 149.027 324.137 148.324Z" fill="#31344E"/>
<path d="M16 168H464V362C464 365.314 461.314 368 458 368H22C18.6863 368 16 365.314 16 362V168Z" fill="#FFEE58"/>
<circle cx="201.217" cy="267.217" r="9.00513" fill="#31344E" stroke="#31344E" stroke-width="0.423242"/>
<circle cx="239.5" cy="267.217" r="9.00513" fill="#31344E" stroke="#31344E" stroke-width="0.423242"/>
<circle cx="277.783" cy="267.217" r="9.00513" fill="#31344E" stroke="#31344E" stroke-width="0.423242"/>
<defs>
<filter id="filter0_d_3980_48055" x="12" y="382" width="224" height="88" filterUnits="userSpaceOnUse" color-interpolation-filters="sRGB">
<feFlood flood-opacity="0" result="BackgroundImageFix"/>
<feColorMatrix in="SourceAlpha" type="matrix" values="0 0 0 0 0 0 0 0 0 0 0 0 0 0 0 0 0 0 127 0" result="hardAlpha"/>
<feOffset dy="2"/>
<feGaussianBlur stdDeviation="2"/>
<feComposite in2="hardAlpha" operator="out"/>
<feColorMatrix type="matrix" values="0 0 0 0 0 0 0 0 0 0 0 0 0 0 0 0 0 0 0.25 0"/>
<feBlend mode="normal" in2="BackgroundImageFix" result="effect1_dropShadow_3980_48055"/>
<feBlend mode="normal" in="SourceGraphic" in2="effect1_dropShadow_3980_48055" result="shape"/>
</filter>
<filter id="filter1_d_3980_48055" x="244" y="382" width="224" height="88" filterUnits="userSpaceOnUse" color-interpolation-filters="sRGB">
<feFlood flood-opacity="0" result="BackgroundImageFix"/>
<feColorMatrix in="SourceAlpha" type="matrix" values="0 0 0 0 0 0 0 0 0 0 0 0 0 0 0 0 0 0 127 0" result="hardAlpha"/>
<feOffset dy="2"/>
<feGaussianBlur stdDeviation="2"/>
<feComposite in2="hardAlpha" operator="out"/>
<feColorMatrix type="matrix" values="0 0 0 0 0 0 0 0 0 0 0 0 0 0 0 0 0 0 0.25 0"/>
<feBlend mode="normal" in2="BackgroundImageFix" result="effect1_dropShadow_3980_48055"/>
<feBlend mode="normal" in="SourceGraphic" in2="effect1_dropShadow_3980_48055" result="shape"/>
</filter>
</defs>
</svg>
