<svg width="480" height="480" viewBox="0 0 480 480" fill="none" xmlns="http://www.w3.org/2000/svg">
<rect width="480" height="480" fill="#F6F6F6"/>
<mask id="path-1-inside-1_6193_30423" fill="white">
<path d="M0 0H480V64H0V0Z"/>
</mask>
<path d="M0 0H480V64H0V0Z" fill="white"/>
<path d="M480 64V63H0V64V65H480V64Z" fill="#D1D1D1" mask="url(#path-1-inside-1_6193_30423)"/>
<path d="M210.363 36.0352C210.363 36.8815 210.158 37.6172 209.748 38.2422C209.338 38.8672 208.739 39.349 207.951 39.6875C207.17 40.026 206.219 40.1953 205.1 40.1953C204.605 40.1953 204.12 40.1628 203.645 40.0977C203.176 40.0326 202.723 39.9382 202.287 39.8145C201.857 39.6842 201.447 39.5247 201.057 39.3359V36.5234C201.734 36.8229 202.437 37.0931 203.166 37.334C203.895 37.5749 204.618 37.6953 205.334 37.6953C205.829 37.6953 206.226 37.6302 206.525 37.5C206.831 37.3698 207.053 37.1908 207.189 36.9629C207.326 36.735 207.395 36.4746 207.395 36.1816C207.395 35.8236 207.274 35.5176 207.033 35.2637C206.792 35.0098 206.46 34.7721 206.037 34.5508C205.62 34.3294 205.148 34.0918 204.621 33.8379C204.289 33.6816 203.928 33.4928 203.537 33.2715C203.146 33.0436 202.775 32.7669 202.424 32.4414C202.072 32.1159 201.783 31.722 201.555 31.2598C201.333 30.791 201.223 30.2311 201.223 29.5801C201.223 28.7272 201.418 27.998 201.809 27.3926C202.199 26.7871 202.756 26.3249 203.479 26.0059C204.208 25.6803 205.067 25.5176 206.057 25.5176C206.799 25.5176 207.505 25.6055 208.176 25.7812C208.853 25.9505 209.559 26.1979 210.295 26.5234L209.318 28.877C208.661 28.61 208.072 28.4049 207.551 28.2617C207.03 28.112 206.499 28.0371 205.959 28.0371C205.581 28.0371 205.259 28.099 204.992 28.2227C204.725 28.3398 204.523 28.5091 204.387 28.7305C204.25 28.9453 204.182 29.196 204.182 29.4824C204.182 29.821 204.279 30.1074 204.475 30.3418C204.676 30.5697 204.976 30.791 205.373 31.0059C205.777 31.2207 206.278 31.4714 206.877 31.7578C207.606 32.1029 208.228 32.4642 208.742 32.8418C209.263 33.2129 209.663 33.6523 209.943 34.1602C210.223 34.6615 210.363 35.2865 210.363 36.0352ZM217.219 28.877C218.228 28.877 219.097 29.0723 219.826 29.4629C220.555 29.847 221.118 30.4069 221.516 31.1426C221.913 31.8783 222.111 32.7767 222.111 33.8379V35.2832H215.07C215.103 36.123 215.354 36.7839 215.822 37.2656C216.298 37.7409 216.955 37.9785 217.795 37.9785C218.492 37.9785 219.13 37.9069 219.709 37.7637C220.288 37.6204 220.884 37.4056 221.496 37.1191V39.4238C220.956 39.6908 220.389 39.8861 219.797 40.0098C219.211 40.1335 218.498 40.1953 217.658 40.1953C216.564 40.1953 215.594 39.9935 214.748 39.5898C213.908 39.1862 213.247 38.571 212.766 37.7441C212.29 36.9173 212.053 35.8757 212.053 34.6191C212.053 33.3431 212.268 32.2819 212.697 31.4355C213.133 30.5827 213.739 29.9447 214.514 29.5215C215.288 29.0918 216.19 28.877 217.219 28.877ZM217.238 30.9961C216.659 30.9961 216.177 31.1816 215.793 31.5527C215.415 31.9238 215.197 32.5065 215.139 33.3008H219.318C219.312 32.8581 219.23 32.4642 219.074 32.1191C218.924 31.7741 218.697 31.5007 218.391 31.2988C218.091 31.097 217.707 30.9961 217.238 30.9961ZM229.133 37.8223C229.458 37.8223 229.774 37.7897 230.08 37.7246C230.393 37.6595 230.702 37.5781 231.008 37.4805V39.6973C230.689 39.8405 230.292 39.9577 229.816 40.0488C229.348 40.1465 228.833 40.1953 228.273 40.1953C227.622 40.1953 227.036 40.0911 226.516 39.8828C226.001 39.668 225.594 39.3001 225.295 38.7793C225.002 38.252 224.855 37.5195 224.855 36.582V31.3184H223.43V30.0586L225.07 29.0625L225.93 26.7578H227.834V29.082H230.891V31.3184H227.834V36.582C227.834 36.9987 227.951 37.3112 228.186 37.5195C228.426 37.7214 228.742 37.8223 229.133 37.8223ZM237.824 37.8223C238.15 37.8223 238.465 37.7897 238.771 37.7246C239.084 37.6595 239.393 37.5781 239.699 37.4805V39.6973C239.38 39.8405 238.983 39.9577 238.508 40.0488C238.039 40.1465 237.525 40.1953 236.965 40.1953C236.314 40.1953 235.728 40.0911 235.207 39.8828C234.693 39.668 234.286 39.3001 233.986 38.7793C233.693 38.252 233.547 37.5195 233.547 36.582V31.3184H232.121V30.0586L233.762 29.0625L234.621 26.7578H236.525V29.082H239.582V31.3184H236.525V36.582C236.525 36.9987 236.643 37.3112 236.877 37.5195C237.118 37.7214 237.434 37.8223 237.824 37.8223ZM244.895 29.082V40H241.916V29.082H244.895ZM243.41 24.8047C243.853 24.8047 244.234 24.9089 244.553 25.1172C244.872 25.319 245.031 25.6999 245.031 26.2598C245.031 26.8132 244.872 27.1973 244.553 27.4121C244.234 27.6204 243.853 27.7246 243.41 27.7246C242.961 27.7246 242.577 27.6204 242.258 27.4121C241.945 27.1973 241.789 26.8132 241.789 26.2598C241.789 25.6999 241.945 25.319 242.258 25.1172C242.577 24.9089 242.961 24.8047 243.41 24.8047ZM254.23 28.877C255.396 28.877 256.333 29.196 257.043 29.834C257.753 30.4655 258.107 31.4811 258.107 32.8809V40H255.129V33.623C255.129 32.8418 254.986 32.2526 254.699 31.8555C254.419 31.4583 253.977 31.2598 253.371 31.2598C252.46 31.2598 251.838 31.569 251.506 32.1875C251.174 32.806 251.008 33.6979 251.008 34.8633V40H248.029V29.082H250.305L250.705 30.4785H250.871C251.105 30.1009 251.395 29.7949 251.74 29.5605C252.092 29.3262 252.479 29.1536 252.902 29.043C253.332 28.9323 253.775 28.877 254.23 28.877ZM264.367 44.8047C262.844 44.8047 261.678 44.5378 260.871 44.0039C260.07 43.4766 259.67 42.7344 259.67 41.7773C259.67 41.1198 259.875 40.5697 260.285 40.127C260.695 39.6842 261.298 39.3685 262.092 39.1797C261.786 39.0495 261.519 38.8379 261.291 38.5449C261.063 38.2454 260.949 37.9297 260.949 37.5977C260.949 37.181 261.07 36.8359 261.311 36.5625C261.551 36.2826 261.9 36.0091 262.355 35.7422C261.783 35.4948 261.327 35.0977 260.988 34.5508C260.656 34.0039 260.49 33.3594 260.49 32.6172C260.49 31.8229 260.663 31.1491 261.008 30.5957C261.359 30.0358 261.867 29.6094 262.531 29.3164C263.202 29.0234 264.016 28.877 264.973 28.877C265.174 28.877 265.409 28.89 265.676 28.916C265.943 28.9421 266.187 28.9714 266.408 29.0039C266.636 29.0365 266.789 29.0625 266.867 29.082H270.676V30.5957L268.967 31.0352C269.123 31.276 269.24 31.5332 269.318 31.8066C269.396 32.0801 269.436 32.3698 269.436 32.6758C269.436 33.8477 269.025 34.7624 268.205 35.4199C267.391 36.071 266.258 36.3965 264.807 36.3965C264.462 36.377 264.136 36.3509 263.83 36.3184C263.68 36.4355 263.566 36.5592 263.488 36.6895C263.41 36.8197 263.371 36.9564 263.371 37.0996C263.371 37.2428 263.43 37.3633 263.547 37.4609C263.671 37.5521 263.853 37.6237 264.094 37.6758C264.341 37.7214 264.647 37.7441 265.012 37.7441H266.867C268.065 37.7441 268.977 38.0013 269.602 38.5156C270.233 39.0299 270.549 39.7852 270.549 40.7812C270.549 42.0573 270.015 43.0469 268.947 43.75C267.886 44.4531 266.359 44.8047 264.367 44.8047ZM264.494 42.8613C265.204 42.8613 265.812 42.793 266.32 42.6562C266.835 42.526 267.229 42.3372 267.502 42.0898C267.775 41.849 267.912 41.5592 267.912 41.2207C267.912 40.9473 267.831 40.7292 267.668 40.5664C267.512 40.4102 267.271 40.2995 266.945 40.2344C266.626 40.1693 266.216 40.1367 265.715 40.1367H264.172C263.807 40.1367 263.479 40.1953 263.186 40.3125C262.899 40.4297 262.671 40.5924 262.502 40.8008C262.333 41.0156 262.248 41.263 262.248 41.543C262.248 41.9531 262.443 42.2754 262.834 42.5098C263.231 42.7441 263.785 42.8613 264.494 42.8613ZM264.973 34.5801C265.533 34.5801 265.943 34.4076 266.203 34.0625C266.464 33.7174 266.594 33.2487 266.594 32.6562C266.594 31.9987 266.457 31.5072 266.184 31.1816C265.917 30.8496 265.513 30.6836 264.973 30.6836C264.426 30.6836 264.016 30.8496 263.742 31.1816C263.469 31.5072 263.332 31.9987 263.332 32.6562C263.332 33.2487 263.465 33.7174 263.732 34.0625C264.006 34.4076 264.419 34.5801 264.973 34.5801ZM280.1 36.7578C280.1 37.5 279.924 38.1283 279.572 38.6426C279.227 39.1504 278.71 39.5378 278.02 39.8047C277.329 40.0651 276.47 40.1953 275.441 40.1953C274.68 40.1953 274.025 40.1465 273.479 40.0488C272.938 39.9512 272.391 39.7884 271.838 39.5605V37.0996C272.43 37.3665 273.065 37.5879 273.742 37.7637C274.426 37.9329 275.025 38.0176 275.539 38.0176C276.118 38.0176 276.532 37.9329 276.779 37.7637C277.033 37.5879 277.16 37.36 277.16 37.0801C277.16 36.8978 277.108 36.735 277.004 36.5918C276.906 36.4421 276.691 36.276 276.359 36.0938C276.027 35.9049 275.507 35.6608 274.797 35.3613C274.113 35.0749 273.55 34.7852 273.107 34.4922C272.671 34.1992 272.346 33.8542 272.131 33.457C271.923 33.0534 271.818 32.5423 271.818 31.9238C271.818 30.9147 272.209 30.1562 272.99 29.6484C273.778 29.1341 274.829 28.877 276.145 28.877C276.822 28.877 277.466 28.9453 278.078 29.082C278.697 29.2188 279.331 29.4368 279.982 29.7363L279.084 31.8848C278.544 31.6504 278.033 31.4583 277.551 31.3086C277.076 31.1589 276.59 31.084 276.096 31.084C275.66 31.084 275.331 31.1426 275.109 31.2598C274.888 31.377 274.777 31.556 274.777 31.7969C274.777 31.9727 274.833 32.1289 274.943 32.2656C275.061 32.4023 275.282 32.5553 275.607 32.7246C275.939 32.8874 276.424 33.099 277.062 33.3594C277.681 33.6133 278.218 33.8802 278.674 34.1602C279.13 34.4336 279.481 34.7754 279.729 35.1855C279.976 35.5892 280.1 36.1133 280.1 36.7578Z" fill="#31344E"/>
<path d="M459.29 24.0987C460.227 23.1616 460.227 21.6399 459.29 20.7028C458.353 19.7657 456.831 19.7657 455.894 20.7028L448 28.6041L440.099 20.7103C439.162 19.7732 437.64 19.7732 436.703 20.7103C435.766 21.6474 435.766 23.1691 436.703 24.1062L444.604 32L436.71 39.9013C435.773 40.8384 435.773 42.3601 436.71 43.2972C437.647 44.2343 439.169 44.2343 440.106 43.2972L448 35.3959L455.901 43.2897C456.838 44.2268 458.36 44.2268 459.297 43.2897C460.234 42.3526 460.234 40.8309 459.297 39.8938L451.396 32L459.29 24.0987Z" fill="#1A1040"/>
<path d="M36 15.8496C44.8828 15.8496 52.1504 23.1172 52.1504 32C52.1504 40.8828 44.8828 48.1504 36 48.1504C27.1172 48.1504 19.8496 40.8828 19.8496 32C19.8496 23.1172 27.1172 15.8496 36 15.8496ZM36 19.1504C28.8828 19.1504 23.1504 24.8828 23.1504 32C23.1504 39.1172 28.8828 44.8496 36 44.8496C43.1172 44.8496 48.8496 39.1172 48.8496 32C48.8496 24.8828 43.1172 19.1504 36 19.1504Z" fill="#1A1040" stroke="#1A1040" stroke-width="0.3"/>
<path d="M36 23.8496C37.1874 23.8496 38.1504 24.8126 38.1504 26C38.1504 27.1874 37.1874 28.1504 36 28.1504C34.8126 28.1504 33.8496 27.1874 33.8496 26C33.8496 24.8126 34.8126 23.8496 36 23.8496Z" fill="#1A1040" stroke="#1A1040" stroke-width="0.3"/>
<path d="M36 29.8496C37.1828 29.8496 38.1504 30.8172 38.1504 32V38C38.1504 39.1828 37.1828 40.1504 36 40.1504C34.8172 40.1504 33.8496 39.1828 33.8496 38V32C33.8496 30.8172 34.8172 29.8496 36 29.8496Z" fill="#1A1040" stroke="#1A1040" stroke-width="0.3"/>
<g filter="url(#filter0_d_6193_30423)">
<path d="M14 90C14 84.4772 18.4772 80 24 80H225C230.523 80 235 84.4772 235 90V134C235 139.523 230.523 144 225 144H24C18.4772 144 14 139.523 14 134V90Z" fill="white"/>
<path d="M24 80.5H225C230.247 80.5 234.5 84.7533 234.5 90V134C234.5 139.247 230.247 143.5 225 143.5H24C18.7533 143.5 14.5 139.247 14.5 134V90C14.5 84.7533 18.7533 80.5 24 80.5Z" stroke="#D1D1D1"/>
</g>
<path d="M41.7935 113.088C41.7935 114.616 41.509 115.893 40.9399 116.92C40.3709 117.94 39.5452 118.71 38.4629 119.23C37.3805 119.743 36.0755 120 34.5479 120H30.7812V106.437H34.9561C36.36 106.437 37.5723 106.69 38.5928 107.197C39.6133 107.698 40.4019 108.444 40.9585 109.433C41.5151 110.417 41.7935 111.635 41.7935 113.088ZM39.4741 113.153C39.4741 112.04 39.2979 111.125 38.9453 110.407C38.599 109.69 38.0856 109.158 37.4053 108.812C36.7311 108.459 35.8993 108.283 34.9097 108.283H33.0078V118.135H34.585C36.224 118.135 37.4486 117.718 38.2588 116.883C39.069 116.048 39.4741 114.805 39.4741 113.153ZM46.6733 109.73V120H44.4932V109.73H46.6733ZM45.5972 105.796C45.9312 105.796 46.2188 105.886 46.46 106.065C46.7074 106.245 46.8311 106.554 46.8311 106.993C46.8311 107.426 46.7074 107.735 46.46 107.921C46.2188 108.1 45.9312 108.19 45.5972 108.19C45.2508 108.19 44.957 108.1 44.7158 107.921C44.4808 107.735 44.3633 107.426 44.3633 106.993C44.3633 106.554 44.4808 106.245 44.7158 106.065C44.957 105.886 45.2508 105.796 45.5972 105.796ZM56.7021 117.068C56.7021 117.743 56.5382 118.312 56.2104 118.775C55.8826 119.239 55.4033 119.592 54.7725 119.833C54.1478 120.068 53.3809 120.186 52.4717 120.186C51.7542 120.186 51.1357 120.133 50.6162 120.028C50.1029 119.929 49.6174 119.774 49.1597 119.564V117.681C49.6483 117.91 50.1956 118.107 50.8018 118.274C51.4141 118.441 51.9924 118.525 52.5366 118.525C53.2541 118.525 53.7705 118.414 54.0859 118.191C54.4014 117.962 54.5591 117.659 54.5591 117.282C54.5591 117.059 54.4941 116.861 54.3643 116.688C54.2406 116.509 54.0055 116.326 53.6592 116.141C53.319 115.949 52.818 115.72 52.1562 115.454C51.5068 115.194 50.9595 114.935 50.5142 114.675C50.0688 114.415 49.7318 114.103 49.5029 113.738C49.2741 113.367 49.1597 112.894 49.1597 112.318C49.1597 111.409 49.5184 110.72 50.2358 110.25C50.9595 109.773 51.915 109.535 53.1025 109.535C53.7334 109.535 54.3271 109.6 54.8838 109.73C55.4466 109.854 55.9971 110.036 56.5352 110.277L55.8486 111.919C55.3848 111.715 54.9178 111.548 54.4478 111.418C53.9839 111.282 53.5107 111.214 53.0283 111.214C52.4655 111.214 52.0356 111.301 51.7388 111.474C51.4481 111.647 51.3027 111.895 51.3027 112.216C51.3027 112.458 51.3739 112.662 51.5161 112.829C51.6584 112.996 51.9027 113.163 52.249 113.33C52.6016 113.497 53.0902 113.704 53.7148 113.951C54.3271 114.186 54.856 114.434 55.3013 114.693C55.7528 114.947 56.0991 115.259 56.3403 115.63C56.5815 116.001 56.7021 116.481 56.7021 117.068ZM64.3281 109.535C65.5465 109.535 66.5238 109.98 67.2598 110.871C68.002 111.762 68.373 113.085 68.373 114.842C68.373 116.005 68.1999 116.985 67.8535 117.783C67.5133 118.574 67.034 119.174 66.4155 119.583C65.8032 119.985 65.0889 120.186 64.2725 120.186C63.7529 120.186 63.3014 120.118 62.918 119.981C62.5345 119.845 62.2067 119.669 61.9346 119.453C61.6624 119.23 61.4336 118.989 61.248 118.729H61.1182C61.1491 118.976 61.1769 119.252 61.2017 119.555C61.2326 119.852 61.248 120.124 61.248 120.371V124.555H59.0586V109.73H60.8398L61.146 111.149H61.248C61.4398 110.859 61.6717 110.59 61.9438 110.342C62.2222 110.095 62.5562 109.9 62.9458 109.758C63.3416 109.609 63.8024 109.535 64.3281 109.535ZM63.7437 111.316C63.1437 111.316 62.6613 111.437 62.2964 111.678C61.9377 111.913 61.6748 112.269 61.5078 112.745C61.347 113.221 61.2604 113.818 61.248 114.536V114.842C61.248 115.603 61.3254 116.249 61.48 116.781C61.6408 117.306 61.9036 117.708 62.2686 117.987C62.6396 118.259 63.1406 118.395 63.7715 118.395C64.3034 118.395 64.7425 118.25 65.0889 117.959C65.4414 117.668 65.7043 117.254 65.8774 116.716C66.0506 116.178 66.1372 115.544 66.1372 114.814C66.1372 113.707 65.9393 112.847 65.5435 112.235C65.1538 111.623 64.5539 111.316 63.7437 111.316ZM73.0859 120H70.8965V105.564H73.0859V120ZM80.2295 109.535C81.5283 109.535 82.5086 109.823 83.1704 110.398C83.8384 110.973 84.1724 111.87 84.1724 113.088V120H82.623L82.2056 118.543H82.1313C81.8407 118.915 81.5407 119.221 81.2314 119.462C80.9222 119.703 80.5635 119.882 80.1553 120C79.7533 120.124 79.2616 120.186 78.6802 120.186C78.0679 120.186 77.5205 120.074 77.0381 119.852C76.5557 119.623 76.1753 119.276 75.897 118.812C75.6187 118.349 75.4795 117.761 75.4795 117.05C75.4795 115.992 75.8722 115.197 76.6577 114.666C77.4494 114.134 78.6431 113.84 80.2388 113.784L82.02 113.719V113.181C82.02 112.47 81.853 111.963 81.519 111.66C81.1912 111.357 80.7274 111.205 80.1274 111.205C79.6141 111.205 79.1162 111.279 78.6338 111.428C78.1514 111.576 77.6813 111.759 77.2236 111.975L76.5186 110.435C77.0195 110.169 77.5885 109.953 78.2256 109.786C78.8688 109.619 79.5368 109.535 80.2295 109.535ZM82.0107 115.092L80.6841 115.139C79.5955 115.176 78.8317 115.361 78.3926 115.695C77.9535 116.029 77.7339 116.487 77.7339 117.068C77.7339 117.576 77.8854 117.947 78.1885 118.182C78.4915 118.41 78.8905 118.525 79.3853 118.525C80.1398 118.525 80.7645 118.312 81.2593 117.885C81.7603 117.452 82.0107 116.818 82.0107 115.983V115.092ZM85.6753 109.73H88.0503L90.1562 115.593C90.249 115.859 90.3325 116.122 90.4067 116.382C90.4871 116.635 90.5552 116.886 90.6108 117.133C90.6727 117.381 90.7222 117.628 90.7593 117.875H90.8149C90.8768 117.554 90.9634 117.195 91.0747 116.799C91.1922 116.397 91.3221 115.995 91.4644 115.593L93.4868 109.73H95.834L91.4272 121.41C91.1737 122.078 90.8613 122.647 90.4902 123.117C90.1253 123.593 89.6924 123.952 89.1914 124.193C88.6904 124.441 88.1183 124.564 87.4751 124.564C87.1659 124.564 86.8968 124.546 86.668 124.509C86.4391 124.478 86.2443 124.444 86.0835 124.407V122.663C86.2134 122.694 86.3773 122.721 86.5752 122.746C86.7731 122.771 86.9772 122.783 87.1875 122.783C87.5771 122.783 87.9142 122.706 88.1987 122.551C88.4832 122.397 88.7244 122.177 88.9224 121.893C89.1203 121.614 89.2842 121.296 89.4141 120.937L89.7759 119.972L85.6753 109.73Z" fill="black"/>
<g filter="url(#filter1_d_6193_30423)">
<path d="M245 90C245 84.4772 249.477 80 255 80H456C461.523 80 466 84.4772 466 90V134C466 139.523 461.523 144 456 144H255C249.477 144 245 139.523 245 134V90Z" fill="white"/>
<path d="M255 80.5H456C461.247 80.5 465.5 84.7533 465.5 90V134C465.5 139.247 461.247 143.5 456 143.5H255C249.753 143.5 245.5 139.247 245.5 134V90C245.5 84.7533 249.753 80.5 255 80.5Z" stroke="#D1D1D1"/>
</g>
<path d="M261.781 120V106.437H264.008V120H261.781ZM272.719 109.535C273.876 109.535 274.776 109.835 275.419 110.435C276.068 111.029 276.393 111.984 276.393 113.302V120H274.213V113.71C274.213 112.912 274.049 112.315 273.721 111.919C273.393 111.517 272.886 111.316 272.2 111.316C271.204 111.316 270.511 111.623 270.122 112.235C269.738 112.847 269.546 113.735 269.546 114.897V120H267.366V109.73H269.064L269.37 111.122H269.491C269.713 110.763 269.989 110.469 270.316 110.24C270.65 110.005 271.021 109.829 271.43 109.711C271.844 109.594 272.274 109.535 272.719 109.535ZM278.555 115.825V113.979H283.342V115.825H278.555ZM289.604 106.437C290.773 106.437 291.738 106.579 292.499 106.863C293.265 107.148 293.834 107.581 294.206 108.162C294.583 108.743 294.771 109.483 294.771 110.379C294.771 111.047 294.648 111.616 294.4 112.086C294.153 112.556 293.828 112.946 293.426 113.255C293.024 113.565 292.594 113.812 292.137 113.998L295.987 120H293.473L290.198 114.563H288.018V120H285.791V106.437H289.604ZM289.456 108.292H288.018V112.727H289.558C290.59 112.727 291.339 112.535 291.803 112.151C292.273 111.768 292.508 111.202 292.508 110.454C292.508 109.668 292.257 109.111 291.756 108.784C291.262 108.456 290.495 108.292 289.456 108.292ZM306.795 114.842C306.795 115.695 306.684 116.453 306.461 117.115C306.238 117.777 305.914 118.336 305.487 118.794C305.06 119.245 304.547 119.592 303.947 119.833C303.347 120.068 302.67 120.186 301.915 120.186C301.21 120.186 300.564 120.068 299.976 119.833C299.389 119.592 298.878 119.245 298.445 118.794C298.019 118.336 297.688 117.777 297.453 117.115C297.218 116.453 297.1 115.695 297.1 114.842C297.1 113.71 297.295 112.751 297.685 111.966C298.08 111.174 298.643 110.571 299.373 110.157C300.103 109.742 300.972 109.535 301.98 109.535C302.926 109.535 303.761 109.742 304.485 110.157C305.208 110.571 305.774 111.174 306.183 111.966C306.591 112.757 306.795 113.716 306.795 114.842ZM299.345 114.842C299.345 115.59 299.435 116.23 299.614 116.762C299.8 117.294 300.084 117.702 300.468 117.987C300.851 118.265 301.346 118.404 301.952 118.404C302.558 118.404 303.053 118.265 303.437 117.987C303.82 117.702 304.101 117.294 304.281 116.762C304.46 116.23 304.55 115.59 304.55 114.842C304.55 114.093 304.46 113.459 304.281 112.94C304.101 112.414 303.82 112.015 303.437 111.743C303.053 111.465 302.555 111.326 301.943 111.326C301.04 111.326 300.381 111.629 299.967 112.235C299.552 112.841 299.345 113.71 299.345 114.842ZM318.392 114.842C318.392 115.695 318.28 116.453 318.058 117.115C317.835 117.777 317.51 118.336 317.083 118.794C316.657 119.245 316.143 119.592 315.543 119.833C314.944 120.068 314.266 120.186 313.512 120.186C312.807 120.186 312.16 120.068 311.573 119.833C310.985 119.592 310.475 119.245 310.042 118.794C309.615 118.336 309.284 117.777 309.049 117.115C308.814 116.453 308.697 115.695 308.697 114.842C308.697 113.71 308.892 112.751 309.281 111.966C309.677 111.174 310.24 110.571 310.97 110.157C311.7 109.742 312.569 109.535 313.577 109.535C314.523 109.535 315.358 109.742 316.082 110.157C316.805 110.571 317.371 111.174 317.779 111.966C318.188 112.757 318.392 113.716 318.392 114.842ZM310.942 114.842C310.942 115.59 311.032 116.23 311.211 116.762C311.396 117.294 311.681 117.702 312.064 117.987C312.448 118.265 312.943 118.404 313.549 118.404C314.155 118.404 314.65 118.265 315.033 117.987C315.417 117.702 315.698 117.294 315.877 116.762C316.057 116.23 316.146 115.59 316.146 114.842C316.146 114.093 316.057 113.459 315.877 112.94C315.698 112.414 315.417 112.015 315.033 111.743C314.65 111.465 314.152 111.326 313.54 111.326C312.637 111.326 311.978 111.629 311.563 112.235C311.149 112.841 310.942 113.71 310.942 114.842ZM332.502 109.535C333.653 109.535 334.519 109.832 335.1 110.426C335.688 111.02 335.981 111.972 335.981 113.283V120H333.801V113.673C333.801 112.894 333.65 112.306 333.347 111.91C333.044 111.514 332.583 111.316 331.964 111.316C331.098 111.316 330.474 111.595 330.09 112.151C329.713 112.702 329.524 113.503 329.524 114.554V120H327.344V113.673C327.344 113.153 327.276 112.72 327.14 112.374C327.01 112.021 326.809 111.759 326.537 111.585C326.265 111.406 325.922 111.316 325.507 111.316C324.907 111.316 324.428 111.452 324.069 111.725C323.717 111.997 323.463 112.399 323.309 112.931C323.154 113.456 323.077 114.103 323.077 114.87V120H320.896V109.73H322.594L322.9 111.112H323.021C323.231 110.754 323.491 110.46 323.8 110.231C324.116 109.996 324.465 109.823 324.849 109.711C325.232 109.594 325.631 109.535 326.045 109.535C326.812 109.535 327.459 109.671 327.984 109.943C328.51 110.209 328.903 110.618 329.163 111.168H329.33C329.651 110.611 330.1 110.2 330.675 109.934C331.25 109.668 331.859 109.535 332.502 109.535ZM352.588 120L351.261 116.233H346.075L344.749 120H342.401L347.448 106.381H349.916L354.954 120H352.588ZM350.686 114.322L349.396 110.611C349.347 110.451 349.276 110.225 349.183 109.934C349.09 109.637 348.998 109.337 348.905 109.034C348.812 108.725 348.735 108.465 348.673 108.255C348.611 108.508 348.534 108.793 348.441 109.108C348.354 109.418 348.268 109.708 348.181 109.98C348.101 110.253 348.039 110.463 347.996 110.611L346.697 114.322H350.686ZM358.711 120H356.521V105.564H358.711V120ZM365.919 109.535C366.835 109.535 367.62 109.724 368.276 110.101C368.931 110.478 369.436 111.013 369.788 111.706C370.141 112.399 370.317 113.228 370.317 114.192V115.361H363.461C363.486 116.357 363.752 117.124 364.259 117.662C364.772 118.2 365.49 118.469 366.411 118.469C367.067 118.469 367.654 118.407 368.174 118.284C368.7 118.154 369.241 117.965 369.797 117.718V119.49C369.284 119.731 368.761 119.907 368.229 120.019C367.698 120.13 367.061 120.186 366.318 120.186C365.31 120.186 364.423 119.991 363.656 119.601C362.895 119.205 362.298 118.618 361.865 117.838C361.438 117.059 361.225 116.091 361.225 114.935C361.225 113.784 361.42 112.807 361.81 112.003C362.199 111.199 362.747 110.587 363.452 110.166C364.157 109.745 364.979 109.535 365.919 109.535ZM365.919 111.177C365.233 111.177 364.676 111.4 364.25 111.845C363.829 112.291 363.582 112.943 363.507 113.803H368.183C368.177 113.289 368.09 112.835 367.923 112.439C367.763 112.043 367.515 111.734 367.181 111.511C366.853 111.289 366.433 111.177 365.919 111.177ZM377.98 109.535C378.153 109.535 378.342 109.544 378.546 109.563C378.75 109.582 378.926 109.606 379.075 109.637L378.871 111.678C378.741 111.641 378.58 111.613 378.388 111.595C378.203 111.576 378.036 111.567 377.887 111.567C377.498 111.567 377.126 111.632 376.774 111.762C376.421 111.885 376.109 112.077 375.837 112.337C375.565 112.59 375.351 112.909 375.197 113.292C375.042 113.676 374.965 114.121 374.965 114.628V120H372.775V109.73H374.482L374.779 111.539H374.881C375.085 111.174 375.339 110.84 375.642 110.537C375.945 110.234 376.292 109.993 376.681 109.813C377.077 109.628 377.51 109.535 377.98 109.535ZM384.799 118.423C385.083 118.423 385.365 118.398 385.643 118.349C385.921 118.293 386.175 118.228 386.404 118.154V119.805C386.163 119.91 385.85 120 385.467 120.074C385.083 120.148 384.684 120.186 384.27 120.186C383.689 120.186 383.166 120.09 382.702 119.898C382.238 119.7 381.87 119.363 381.598 118.887C381.326 118.41 381.19 117.752 381.19 116.911V111.391H379.789V110.417L381.292 109.646L382.006 107.448H383.379V109.73H386.32V111.391H383.379V116.883C383.379 117.402 383.509 117.789 383.769 118.042C384.029 118.296 384.372 118.423 384.799 118.423ZM402.055 120L400.728 116.233H395.542L394.215 120H391.868L396.915 106.381H399.383L404.42 120H402.055ZM400.153 114.322L398.863 110.611C398.814 110.451 398.743 110.225 398.65 109.934C398.557 109.637 398.464 109.337 398.372 109.034C398.279 108.725 398.201 108.465 398.14 108.255C398.078 108.508 398 108.793 397.908 109.108C397.821 109.418 397.735 109.708 397.648 109.98C397.568 110.253 397.506 110.463 397.462 110.611L396.164 114.322H400.153ZM414.941 109.73V120H413.225L412.928 118.618H412.807C412.591 118.97 412.315 119.264 411.981 119.499C411.647 119.728 411.276 119.898 410.868 120.009C410.46 120.127 410.03 120.186 409.579 120.186C408.806 120.186 408.144 120.056 407.593 119.796C407.049 119.53 406.632 119.122 406.341 118.571C406.05 118.021 405.905 117.31 405.905 116.438V109.73H408.094V116.029C408.094 116.827 408.255 117.424 408.577 117.82C408.904 118.216 409.412 118.414 410.098 118.414C410.76 118.414 411.286 118.278 411.675 118.005C412.065 117.733 412.34 117.331 412.501 116.799C412.668 116.267 412.751 115.615 412.751 114.842V109.73H414.941ZM421.519 120.186C420.294 120.186 419.311 119.74 418.568 118.85C417.832 117.953 417.464 116.632 417.464 114.888C417.464 113.125 417.839 111.793 418.587 110.89C419.341 109.987 420.334 109.535 421.565 109.535C422.084 109.535 422.539 109.606 422.929 109.749C423.318 109.885 423.652 110.07 423.931 110.305C424.215 110.54 424.456 110.803 424.654 111.094H424.756C424.725 110.902 424.688 110.627 424.645 110.268C424.608 109.903 424.589 109.566 424.589 109.257V105.564H426.779V120H425.072L424.682 118.599H424.589C424.404 118.896 424.169 119.165 423.884 119.406C423.606 119.641 423.272 119.83 422.882 119.972C422.499 120.114 422.044 120.186 421.519 120.186ZM422.131 118.414C423.065 118.414 423.723 118.145 424.107 117.606C424.49 117.068 424.688 116.261 424.701 115.185V114.897C424.701 113.747 424.515 112.866 424.144 112.253C423.773 111.635 423.096 111.326 422.112 111.326C421.327 111.326 420.727 111.644 420.312 112.281C419.904 112.912 419.7 113.793 419.7 114.925C419.7 116.057 419.904 116.923 420.312 117.523C420.727 118.117 421.333 118.414 422.131 118.414ZM432.085 109.73V120H429.905V109.73H432.085ZM431.009 105.796C431.343 105.796 431.631 105.886 431.872 106.065C432.119 106.245 432.243 106.554 432.243 106.993C432.243 107.426 432.119 107.735 431.872 107.921C431.631 108.1 431.343 108.19 431.009 108.19C430.663 108.19 430.369 108.1 430.128 107.921C429.893 107.735 429.775 107.426 429.775 106.993C429.775 106.554 429.893 106.245 430.128 106.065C430.369 105.886 430.663 105.796 431.009 105.796ZM444.304 114.842C444.304 115.695 444.192 116.453 443.97 117.115C443.747 117.777 443.422 118.336 442.996 118.794C442.569 119.245 442.056 119.592 441.456 119.833C440.856 120.068 440.178 120.186 439.424 120.186C438.719 120.186 438.072 120.068 437.485 119.833C436.897 119.592 436.387 119.245 435.954 118.794C435.527 118.336 435.196 117.777 434.961 117.115C434.726 116.453 434.609 115.695 434.609 114.842C434.609 113.71 434.804 112.751 435.193 111.966C435.589 111.174 436.152 110.571 436.882 110.157C437.612 109.742 438.481 109.535 439.489 109.535C440.435 109.535 441.27 109.742 441.994 110.157C442.717 110.571 443.283 111.174 443.691 111.966C444.1 112.757 444.304 113.716 444.304 114.842ZM436.854 114.842C436.854 115.59 436.944 116.23 437.123 116.762C437.309 117.294 437.593 117.702 437.977 117.987C438.36 118.265 438.855 118.404 439.461 118.404C440.067 118.404 440.562 118.265 440.945 117.987C441.329 117.702 441.61 117.294 441.79 116.762C441.969 116.23 442.059 115.59 442.059 114.842C442.059 114.093 441.969 113.459 441.79 112.94C441.61 112.414 441.329 112.015 440.945 111.743C440.562 111.465 440.064 111.326 439.452 111.326C438.549 111.326 437.89 111.629 437.476 112.235C437.061 112.841 436.854 113.71 436.854 114.842Z" fill="black"/>
<g filter="url(#filter2_d_6193_30423)">
<path d="M14 164C14 158.477 18.4772 154 24 154H225C230.523 154 235 158.477 235 164V208C235 213.523 230.523 218 225 218H24C18.4772 218 14 213.523 14 208V164Z" fill="white"/>
<path d="M24 154.5H225C230.247 154.5 234.5 158.753 234.5 164V208C234.5 213.247 230.247 217.5 225 217.5H24C18.7533 217.5 14.5 213.247 14.5 208V164C14.5 158.753 18.7533 154.5 24 154.5Z" stroke="#D1D1D1"/>
</g>
<path d="M39.1865 194L37.8599 190.233H32.6738L31.3472 194H29L34.0469 180.381H36.5146L41.5522 194H39.1865ZM37.2847 188.322L35.9951 184.611C35.9456 184.451 35.8745 184.225 35.7817 183.934C35.689 183.637 35.5962 183.337 35.5034 183.034C35.4106 182.725 35.3333 182.465 35.2715 182.255C35.2096 182.508 35.1323 182.793 35.0396 183.108C34.953 183.418 34.8664 183.708 34.7798 183.98C34.6994 184.253 34.6375 184.463 34.5942 184.611L33.2954 188.322H37.2847ZM45.3096 194H43.1201V179.564H45.3096V194ZM52.5181 183.535C53.4334 183.535 54.2189 183.724 54.8745 184.101C55.5301 184.478 56.0342 185.013 56.3867 185.706C56.7393 186.399 56.9155 187.228 56.9155 188.192V189.361H50.0596C50.0843 190.357 50.3503 191.124 50.8574 191.662C51.3708 192.2 52.0882 192.469 53.0098 192.469C53.6654 192.469 54.2529 192.407 54.7725 192.284C55.2982 192.154 55.8394 191.965 56.396 191.718V193.49C55.8826 193.731 55.36 193.907 54.8281 194.019C54.2962 194.13 53.6592 194.186 52.917 194.186C51.9089 194.186 51.0213 193.991 50.2544 193.601C49.4937 193.205 48.8968 192.618 48.4639 191.838C48.0371 191.059 47.8237 190.091 47.8237 188.935C47.8237 187.784 48.0186 186.807 48.4082 186.003C48.7979 185.199 49.3452 184.587 50.0503 184.166C50.7554 183.745 51.578 183.535 52.5181 183.535ZM52.5181 185.177C51.8315 185.177 51.2749 185.4 50.8481 185.845C50.4276 186.291 50.1802 186.943 50.106 187.803H54.7817C54.7756 187.289 54.689 186.835 54.522 186.439C54.3612 186.043 54.1138 185.734 53.7798 185.511C53.452 185.289 53.0314 185.177 52.5181 185.177ZM64.5786 183.535C64.7518 183.535 64.9404 183.544 65.1445 183.563C65.3486 183.582 65.5249 183.606 65.6733 183.637L65.4692 185.678C65.3394 185.641 65.1785 185.613 64.9868 185.595C64.8013 185.576 64.6343 185.567 64.4858 185.567C64.0962 185.567 63.7251 185.632 63.3726 185.762C63.02 185.885 62.7077 186.077 62.4355 186.337C62.1634 186.59 61.95 186.909 61.7954 187.292C61.6408 187.676 61.5635 188.121 61.5635 188.628V194H59.374V183.73H61.0811L61.3779 185.539H61.48C61.6841 185.174 61.9377 184.84 62.2407 184.537C62.5438 184.234 62.8901 183.993 63.2798 183.813C63.6756 183.628 64.1086 183.535 64.5786 183.535ZM71.3975 192.423C71.682 192.423 71.9634 192.398 72.2417 192.349C72.52 192.293 72.7736 192.228 73.0024 192.154V193.805C72.7612 193.91 72.4489 194 72.0654 194.074C71.682 194.148 71.283 194.186 70.8687 194.186C70.2873 194.186 69.7646 194.09 69.3008 193.898C68.8369 193.7 68.4689 193.363 68.1968 192.887C67.9246 192.41 67.7886 191.752 67.7886 190.911V185.391H66.3877V184.417L67.8906 183.646L68.605 181.448H69.978V183.73H72.9189V185.391H69.978V190.883C69.978 191.402 70.1079 191.789 70.3677 192.042C70.6274 192.296 70.9707 192.423 71.3975 192.423ZM81.9922 191.068C81.9922 191.743 81.8283 192.312 81.5005 192.775C81.1727 193.239 80.6934 193.592 80.0625 193.833C79.4378 194.068 78.6709 194.186 77.7617 194.186C77.0443 194.186 76.4258 194.133 75.9062 194.028C75.3929 193.929 74.9074 193.774 74.4497 193.564V191.681C74.9383 191.91 75.4857 192.107 76.0918 192.274C76.7041 192.441 77.2824 192.525 77.8267 192.525C78.5441 192.525 79.0605 192.414 79.376 192.191C79.6914 191.962 79.8491 191.659 79.8491 191.282C79.8491 191.059 79.7842 190.861 79.6543 190.688C79.5306 190.509 79.2956 190.326 78.9492 190.141C78.609 189.949 78.1081 189.72 77.4463 189.454C76.7969 189.194 76.2495 188.935 75.8042 188.675C75.3589 188.415 75.0218 188.103 74.793 187.738C74.5641 187.367 74.4497 186.894 74.4497 186.318C74.4497 185.409 74.8084 184.72 75.5259 184.25C76.2495 183.773 77.2051 183.535 78.3926 183.535C79.0234 183.535 79.6172 183.6 80.1738 183.73C80.7367 183.854 81.2871 184.036 81.8252 184.277L81.1387 185.919C80.6748 185.715 80.2078 185.548 79.7378 185.418C79.2739 185.282 78.8008 185.214 78.3184 185.214C77.7555 185.214 77.3257 185.301 77.0288 185.474C76.7381 185.647 76.5928 185.895 76.5928 186.216C76.5928 186.458 76.6639 186.662 76.8062 186.829C76.9484 186.996 77.1927 187.163 77.5391 187.33C77.8916 187.497 78.3802 187.704 79.0049 187.951C79.6172 188.186 80.146 188.434 80.5913 188.693C81.0428 188.947 81.3892 189.259 81.6304 189.63C81.8716 190.001 81.9922 190.481 81.9922 191.068Z" fill="black"/>
<g filter="url(#filter3_d_6193_30423)">
<path d="M245 164C245 158.477 249.477 154 255 154H456C461.523 154 466 158.477 466 164V208C466 213.523 461.523 218 456 218H255C249.477 218 245 213.523 245 208V164Z" fill="white"/>
<path d="M255 154.5H456C461.247 154.5 465.5 158.753 465.5 164V208C465.5 213.247 461.247 217.5 456 217.5H255C249.753 217.5 245.5 213.247 245.5 208V164C245.5 158.753 249.753 154.5 255 154.5Z" stroke="#D1D1D1"/>
</g>
<path d="M269.463 194H261.781V180.437H269.463V182.311H264.008V185.994H269.12V187.858H264.008V192.117H269.463V194ZM274.445 188.749L271.012 183.73H273.499L275.846 187.339L278.202 183.73H280.679L277.228 188.749L280.855 194H278.36L275.846 190.15L273.322 194H270.845L274.445 188.749ZM284.817 183.73V194H282.637V183.73H284.817ZM283.741 179.796C284.075 179.796 284.362 179.886 284.604 180.065C284.851 180.245 284.975 180.554 284.975 180.993C284.975 181.426 284.851 181.735 284.604 181.921C284.362 182.1 284.075 182.19 283.741 182.19C283.394 182.19 283.101 182.1 282.859 181.921C282.624 181.735 282.507 181.426 282.507 180.993C282.507 180.554 282.624 180.245 282.859 180.065C283.101 179.886 283.394 179.796 283.741 179.796ZM291.766 192.423C292.05 192.423 292.332 192.398 292.61 192.349C292.888 192.293 293.142 192.228 293.371 192.154V193.805C293.129 193.91 292.817 194 292.434 194.074C292.05 194.148 291.651 194.186 291.237 194.186C290.655 194.186 290.133 194.09 289.669 193.898C289.205 193.7 288.837 193.363 288.565 192.887C288.293 192.41 288.157 191.752 288.157 190.911V185.391H286.756V184.417L288.259 183.646L288.973 181.448H290.346V183.73H293.287V185.391H290.346V190.883C290.346 191.402 290.476 191.789 290.736 192.042C290.996 192.296 291.339 192.423 291.766 192.423ZM309.021 194L307.695 190.233H302.509L301.182 194H298.835L303.882 180.381H306.35L311.387 194H309.021ZM307.12 188.322L305.83 184.611C305.781 184.451 305.709 184.225 305.617 183.934C305.524 183.637 305.431 183.337 305.338 183.034C305.246 182.725 305.168 182.465 305.106 182.255C305.045 182.508 304.967 182.793 304.875 183.108C304.788 183.418 304.701 183.708 304.615 183.98C304.534 184.253 304.472 184.463 304.429 184.611L303.13 188.322H307.12ZM315.145 194H312.955V179.564H315.145V194ZM322.353 183.535C323.268 183.535 324.054 183.724 324.709 184.101C325.365 184.478 325.869 185.013 326.222 185.706C326.574 186.399 326.75 187.228 326.75 188.192V189.361H319.895C319.919 190.357 320.185 191.124 320.692 191.662C321.206 192.2 321.923 192.469 322.845 192.469C323.5 192.469 324.088 192.407 324.607 192.284C325.133 192.154 325.674 191.965 326.231 191.718V193.49C325.718 193.731 325.195 193.907 324.663 194.019C324.131 194.13 323.494 194.186 322.752 194.186C321.744 194.186 320.856 193.991 320.089 193.601C319.329 193.205 318.732 192.618 318.299 191.838C317.872 191.059 317.659 190.091 317.659 188.935C317.659 187.784 317.854 186.807 318.243 186.003C318.633 185.199 319.18 184.587 319.885 184.166C320.59 183.745 321.413 183.535 322.353 183.535ZM322.353 185.177C321.667 185.177 321.11 185.4 320.683 185.845C320.263 186.291 320.015 186.943 319.941 187.803H324.617C324.611 187.289 324.524 186.835 324.357 186.439C324.196 186.043 323.949 185.734 323.615 185.511C323.287 185.289 322.866 185.177 322.353 185.177ZM334.414 183.535C334.587 183.535 334.775 183.544 334.979 183.563C335.184 183.582 335.36 183.606 335.508 183.637L335.304 185.678C335.174 185.641 335.014 185.613 334.822 185.595C334.636 185.576 334.469 185.567 334.321 185.567C333.931 185.567 333.56 185.632 333.208 185.762C332.855 185.885 332.543 186.077 332.271 186.337C331.998 186.59 331.785 186.909 331.63 187.292C331.476 187.676 331.398 188.121 331.398 188.628V194H329.209V183.73H330.916L331.213 185.539H331.315C331.519 185.174 331.773 184.84 332.076 184.537C332.379 184.234 332.725 183.993 333.115 183.813C333.511 183.628 333.944 183.535 334.414 183.535ZM341.232 192.423C341.517 192.423 341.798 192.398 342.077 192.349C342.355 192.293 342.609 192.228 342.837 192.154V193.805C342.596 193.91 342.284 194 341.9 194.074C341.517 194.148 341.118 194.186 340.704 194.186C340.122 194.186 339.6 194.09 339.136 193.898C338.672 193.7 338.304 193.363 338.032 192.887C337.76 192.41 337.624 191.752 337.624 190.911V185.391H336.223V184.417L337.726 183.646L338.44 181.448H339.813V183.73H342.754V185.391H339.813V190.883C339.813 191.402 339.943 191.789 340.203 192.042C340.462 192.296 340.806 192.423 341.232 192.423ZM357.913 190.308C357.913 191.112 357.715 191.804 357.319 192.386C356.93 192.967 356.367 193.412 355.631 193.722C354.901 194.031 354.029 194.186 353.015 194.186C352.52 194.186 352.047 194.158 351.595 194.102C351.144 194.046 350.717 193.966 350.315 193.861C349.919 193.75 349.557 193.617 349.229 193.462V191.365C349.78 191.606 350.395 191.826 351.076 192.024C351.756 192.216 352.449 192.312 353.154 192.312C353.729 192.312 354.205 192.237 354.583 192.089C354.966 191.934 355.25 191.718 355.436 191.439C355.622 191.155 355.714 190.824 355.714 190.447C355.714 190.045 355.606 189.705 355.39 189.426C355.173 189.148 354.845 188.894 354.406 188.666C353.973 188.431 353.429 188.18 352.773 187.914C352.328 187.735 351.901 187.531 351.493 187.302C351.091 187.073 350.732 186.804 350.417 186.495C350.102 186.185 349.851 185.82 349.666 185.4C349.486 184.973 349.396 184.472 349.396 183.897C349.396 183.13 349.579 182.474 349.944 181.93C350.315 181.386 350.834 180.968 351.502 180.678C352.177 180.387 352.962 180.242 353.859 180.242C354.57 180.242 355.238 180.316 355.863 180.464C356.494 180.613 357.112 180.823 357.718 181.095L357.013 182.886C356.457 182.657 355.915 182.474 355.39 182.338C354.87 182.202 354.338 182.134 353.794 182.134C353.324 182.134 352.925 182.205 352.597 182.348C352.269 182.49 352.019 182.691 351.846 182.951C351.679 183.204 351.595 183.507 351.595 183.86C351.595 184.256 351.691 184.59 351.883 184.862C352.081 185.128 352.384 185.372 352.792 185.595C353.206 185.817 353.738 186.065 354.388 186.337C355.136 186.646 355.77 186.971 356.29 187.311C356.815 187.651 357.217 188.059 357.496 188.536C357.774 189.006 357.913 189.596 357.913 190.308ZM364.444 194.186C363.473 194.186 362.632 193.997 361.921 193.62C361.21 193.242 360.662 192.664 360.279 191.885C359.895 191.105 359.704 190.116 359.704 188.916C359.704 187.667 359.914 186.646 360.334 185.854C360.755 185.063 361.336 184.478 362.079 184.101C362.827 183.724 363.684 183.535 364.648 183.535C365.261 183.535 365.814 183.597 366.309 183.721C366.81 183.838 367.234 183.984 367.58 184.157L366.931 185.901C366.553 185.746 366.167 185.616 365.771 185.511C365.375 185.406 364.995 185.354 364.63 185.354C364.03 185.354 363.529 185.486 363.127 185.752C362.731 186.018 362.434 186.414 362.236 186.94C362.045 187.466 361.949 188.118 361.949 188.897C361.949 189.652 362.048 190.289 362.246 190.809C362.444 191.322 362.737 191.712 363.127 191.978C363.517 192.237 363.996 192.367 364.565 192.367C365.128 192.367 365.632 192.299 366.077 192.163C366.522 192.027 366.943 191.851 367.339 191.634V193.527C366.949 193.75 366.532 193.913 366.086 194.019C365.641 194.13 365.094 194.186 364.444 194.186ZM371.931 179.564V183.192C371.931 183.569 371.919 183.937 371.894 184.296C371.875 184.655 371.854 184.933 371.829 185.131H371.95C372.166 184.772 372.432 184.478 372.748 184.25C373.063 184.014 373.416 183.838 373.805 183.721C374.201 183.603 374.622 183.544 375.067 183.544C375.852 183.544 376.52 183.677 377.071 183.943C377.621 184.203 378.042 184.608 378.333 185.159C378.629 185.709 378.778 186.424 378.778 187.302V194H376.598V187.71C376.598 186.912 376.434 186.315 376.106 185.919C375.778 185.517 375.271 185.316 374.584 185.316C373.923 185.316 373.397 185.456 373.007 185.734C372.624 186.006 372.349 186.411 372.182 186.949C372.015 187.481 371.931 188.131 371.931 188.897V194H369.751V179.564H371.931ZM385.921 183.535C386.837 183.535 387.622 183.724 388.278 184.101C388.933 184.478 389.438 185.013 389.79 185.706C390.143 186.399 390.319 187.228 390.319 188.192V189.361H383.463C383.488 190.357 383.754 191.124 384.261 191.662C384.774 192.2 385.492 192.469 386.413 192.469C387.069 192.469 387.656 192.407 388.176 192.284C388.701 192.154 389.243 191.965 389.799 191.718V193.49C389.286 193.731 388.763 193.907 388.231 194.019C387.7 194.13 387.062 194.186 386.32 194.186C385.312 194.186 384.425 193.991 383.658 193.601C382.897 193.205 382.3 192.618 381.867 191.838C381.44 191.059 381.227 190.091 381.227 188.935C381.227 187.784 381.422 186.807 381.812 186.003C382.201 185.199 382.749 184.587 383.454 184.166C384.159 183.745 384.981 183.535 385.921 183.535ZM385.921 185.177C385.235 185.177 384.678 185.4 384.251 185.845C383.831 186.291 383.583 186.943 383.509 187.803H388.185C388.179 187.289 388.092 186.835 387.925 186.439C387.764 186.043 387.517 185.734 387.183 185.511C386.855 185.289 386.435 185.177 385.921 185.177ZM396.229 194.186C395.004 194.186 394.021 193.74 393.278 192.85C392.542 191.953 392.174 190.632 392.174 188.888C392.174 187.125 392.549 185.793 393.297 184.89C394.051 183.987 395.044 183.535 396.275 183.535C396.794 183.535 397.249 183.606 397.639 183.749C398.028 183.885 398.362 184.07 398.641 184.305C398.925 184.54 399.166 184.803 399.364 185.094H399.466C399.435 184.902 399.398 184.627 399.355 184.268C399.318 183.903 399.299 183.566 399.299 183.257V179.564H401.489V194H399.782L399.392 192.599H399.299C399.114 192.896 398.879 193.165 398.594 193.406C398.316 193.641 397.982 193.83 397.592 193.972C397.209 194.114 396.754 194.186 396.229 194.186ZM396.841 192.414C397.775 192.414 398.433 192.145 398.817 191.606C399.2 191.068 399.398 190.261 399.411 189.185V188.897C399.411 187.747 399.225 186.866 398.854 186.253C398.483 185.635 397.806 185.326 396.822 185.326C396.037 185.326 395.437 185.644 395.022 186.281C394.614 186.912 394.41 187.793 394.41 188.925C394.41 190.057 394.614 190.923 395.022 191.523C395.437 192.117 396.043 192.414 396.841 192.414ZM413.568 183.73V194H411.852L411.555 192.618H411.434C411.218 192.97 410.942 193.264 410.608 193.499C410.274 193.728 409.903 193.898 409.495 194.009C409.087 194.127 408.657 194.186 408.206 194.186C407.432 194.186 406.771 194.056 406.22 193.796C405.676 193.53 405.258 193.122 404.968 192.571C404.677 192.021 404.532 191.31 404.532 190.438V183.73H406.721V190.029C406.721 190.827 406.882 191.424 407.204 191.82C407.531 192.216 408.039 192.414 408.725 192.414C409.387 192.414 409.913 192.278 410.302 192.005C410.692 191.733 410.967 191.331 411.128 190.799C411.295 190.267 411.378 189.615 411.378 188.842V183.73H413.568ZM418.884 194H416.694V179.564H418.884V194ZM426.092 183.535C427.008 183.535 427.793 183.724 428.449 184.101C429.104 184.478 429.608 185.013 429.961 185.706C430.313 186.399 430.49 187.228 430.49 188.192V189.361H423.634C423.659 190.357 423.924 191.124 424.432 191.662C424.945 192.2 425.662 192.469 426.584 192.469C427.24 192.469 427.827 192.407 428.347 192.284C428.872 192.154 429.414 191.965 429.97 191.718V193.49C429.457 193.731 428.934 193.907 428.402 194.019C427.87 194.13 427.233 194.186 426.491 194.186C425.483 194.186 424.596 193.991 423.829 193.601C423.068 193.205 422.471 192.618 422.038 191.838C421.611 191.059 421.398 190.091 421.398 188.935C421.398 187.784 421.593 186.807 421.982 186.003C422.372 185.199 422.919 184.587 423.625 184.166C424.33 183.745 425.152 183.535 426.092 183.535ZM426.092 185.177C425.406 185.177 424.849 185.4 424.422 185.845C424.002 186.291 423.754 186.943 423.68 187.803H428.356C428.35 187.289 428.263 186.835 428.096 186.439C427.935 186.043 427.688 185.734 427.354 185.511C427.026 185.289 426.606 185.177 426.092 185.177Z" fill="black"/>
<g filter="url(#filter4_d_6193_30423)">
<path d="M14 238C14 232.477 18.4772 228 24 228H225C230.523 228 235 232.477 235 238V282C235 287.523 230.523 292 225 292H24C18.4772 292 14 287.523 14 282V238Z" fill="white"/>
<path d="M24 228.5H225C230.247 228.5 234.5 232.753 234.5 238V282C234.5 287.247 230.247 291.5 225 291.5H24C18.7533 291.5 14.5 287.247 14.5 282V238C14.5 232.753 18.7533 228.5 24 228.5Z" stroke="#D1D1D1"/>
</g>
<path d="M30.7812 254.437H34.8169C36.5672 254.437 37.8877 254.69 38.7783 255.197C39.6689 255.704 40.1143 256.58 40.1143 257.823C40.1143 258.342 40.0215 258.812 39.8359 259.233C39.6566 259.647 39.3937 259.991 39.0474 260.263C38.701 260.529 38.2743 260.708 37.7671 260.801V260.894C38.2928 260.986 38.7598 261.15 39.168 261.385C39.5824 261.62 39.9071 261.957 40.1421 262.396C40.3833 262.836 40.5039 263.405 40.5039 264.104C40.5039 264.932 40.306 265.637 39.9102 266.219C39.5205 266.8 38.9608 267.242 38.231 267.545C37.5073 267.848 36.6476 268 35.6519 268H30.7812V254.437ZM33.0078 260.031H35.1416C36.1497 260.031 36.8486 259.867 37.2383 259.539C37.6279 259.211 37.8228 258.732 37.8228 258.101C37.8228 257.458 37.5908 256.994 37.127 256.709C36.6693 256.425 35.9395 256.283 34.9375 256.283H33.0078V260.031ZM33.0078 261.831V266.135H35.355C36.394 266.135 37.1239 265.934 37.5444 265.532C37.965 265.13 38.1753 264.586 38.1753 263.899C38.1753 263.479 38.0794 263.114 37.8877 262.805C37.7021 262.495 37.396 262.257 36.9692 262.09C36.5425 261.917 35.9673 261.831 35.2437 261.831H33.0078ZM47.1743 257.535C48.0897 257.535 48.8752 257.724 49.5308 258.101C50.1864 258.478 50.6904 259.013 51.043 259.706C51.3955 260.399 51.5718 261.228 51.5718 262.192V263.361H44.7158C44.7406 264.357 45.0065 265.124 45.5137 265.662C46.027 266.2 46.7445 266.469 47.666 266.469C48.3216 266.469 48.9092 266.407 49.4287 266.284C49.9544 266.154 50.4956 265.965 51.0522 265.718V267.49C50.5389 267.731 50.0163 267.907 49.4844 268.019C48.9525 268.13 48.3154 268.186 47.5732 268.186C46.5651 268.186 45.6776 267.991 44.9106 267.601C44.1499 267.205 43.5531 266.618 43.1201 265.838C42.6934 265.059 42.48 264.091 42.48 262.935C42.48 261.784 42.6748 260.807 43.0645 260.003C43.4541 259.199 44.0015 258.587 44.7065 258.166C45.4116 257.745 46.2342 257.535 47.1743 257.535ZM47.1743 259.177C46.4878 259.177 45.9312 259.4 45.5044 259.845C45.0838 260.291 44.8364 260.943 44.7622 261.803H49.438C49.4318 261.289 49.3452 260.835 49.1782 260.439C49.0174 260.043 48.77 259.734 48.436 259.511C48.1082 259.289 47.6877 259.177 47.1743 259.177ZM57.4814 268.186C56.2568 268.186 55.2734 267.74 54.5312 266.85C53.7952 265.953 53.4272 264.632 53.4272 262.888C53.4272 261.125 53.8014 259.793 54.5498 258.89C55.3044 257.987 56.297 257.535 57.5278 257.535C58.0474 257.535 58.502 257.606 58.8916 257.749C59.2812 257.885 59.6152 258.07 59.8936 258.305C60.1781 258.54 60.4193 258.803 60.6172 259.094H60.7192C60.6883 258.902 60.6512 258.627 60.6079 258.268C60.5708 257.903 60.5522 257.566 60.5522 257.257V253.564H62.7417V268H61.0347L60.645 266.599H60.5522C60.3667 266.896 60.1317 267.165 59.8472 267.406C59.5688 267.641 59.2349 267.83 58.8452 267.972C58.4618 268.114 58.0072 268.186 57.4814 268.186ZM58.0938 266.414C59.0277 266.414 59.6864 266.145 60.0698 265.606C60.4533 265.068 60.6512 264.261 60.6636 263.185V262.897C60.6636 261.747 60.478 260.866 60.1069 260.253C59.7358 259.635 59.0586 259.326 58.0752 259.326C57.2897 259.326 56.6898 259.644 56.2754 260.281C55.8672 260.912 55.6631 261.793 55.6631 262.925C55.6631 264.057 55.8672 264.923 56.2754 265.523C56.6898 266.117 57.2959 266.414 58.0938 266.414ZM78.8564 264.308C78.8564 265.112 78.6585 265.804 78.2627 266.386C77.873 266.967 77.3102 267.412 76.5742 267.722C75.8444 268.031 74.9723 268.186 73.958 268.186C73.4632 268.186 72.9901 268.158 72.5386 268.102C72.0871 268.046 71.6603 267.966 71.2583 267.861C70.8625 267.75 70.5007 267.617 70.1729 267.462V265.365C70.7233 265.606 71.3387 265.826 72.019 266.024C72.6994 266.216 73.3921 266.312 74.0972 266.312C74.6724 266.312 75.1486 266.237 75.5259 266.089C75.9093 265.934 76.1938 265.718 76.3794 265.439C76.5649 265.155 76.6577 264.824 76.6577 264.447C76.6577 264.045 76.5495 263.705 76.333 263.426C76.1165 263.148 75.7887 262.894 75.3496 262.666C74.9167 262.431 74.3724 262.18 73.7168 261.914C73.2715 261.735 72.8447 261.531 72.4365 261.302C72.0345 261.073 71.6758 260.804 71.3604 260.495C71.0449 260.185 70.7944 259.82 70.6089 259.4C70.4295 258.973 70.3398 258.472 70.3398 257.897C70.3398 257.13 70.5223 256.474 70.8872 255.93C71.2583 255.386 71.7778 254.968 72.4458 254.678C73.12 254.387 73.9054 254.242 74.8022 254.242C75.5135 254.242 76.1815 254.316 76.8062 254.464C77.437 254.613 78.0555 254.823 78.6616 255.095L77.9565 256.886C77.3999 256.657 76.8587 256.474 76.333 256.338C75.8135 256.202 75.2816 256.134 74.7373 256.134C74.2673 256.134 73.8683 256.205 73.5405 256.348C73.2127 256.49 72.9622 256.691 72.7891 256.951C72.6221 257.204 72.5386 257.507 72.5386 257.86C72.5386 258.256 72.6344 258.59 72.8262 258.862C73.0241 259.128 73.3271 259.372 73.7354 259.595C74.1497 259.817 74.6816 260.065 75.3311 260.337C76.0794 260.646 76.7134 260.971 77.2329 261.311C77.7586 261.651 78.1606 262.059 78.439 262.536C78.7173 263.006 78.8564 263.596 78.8564 264.308ZM85.3413 257.535C86.2567 257.535 87.0422 257.724 87.6978 258.101C88.3534 258.478 88.8574 259.013 89.21 259.706C89.5625 260.399 89.7388 261.228 89.7388 262.192V263.361H82.8828C82.9076 264.357 83.1735 265.124 83.6807 265.662C84.194 266.2 84.9115 266.469 85.833 266.469C86.4886 266.469 87.0762 266.407 87.5957 266.284C88.1214 266.154 88.6626 265.965 89.2192 265.718V267.49C88.7059 267.731 88.1833 267.907 87.6514 268.019C87.1195 268.13 86.4824 268.186 85.7402 268.186C84.7321 268.186 83.8446 267.991 83.0776 267.601C82.3169 267.205 81.7201 266.618 81.2871 265.838C80.8604 265.059 80.647 264.091 80.647 262.935C80.647 261.784 80.8418 260.807 81.2314 260.003C81.6211 259.199 82.1685 258.587 82.8735 258.166C83.5786 257.745 84.4012 257.535 85.3413 257.535ZM85.3413 259.177C84.6548 259.177 84.0981 259.4 83.6714 259.845C83.2508 260.291 83.0034 260.943 82.9292 261.803H87.605C87.5988 261.289 87.5122 260.835 87.3452 260.439C87.1844 260.043 86.937 259.734 86.603 259.511C86.2752 259.289 85.8547 259.177 85.3413 259.177ZM97.5503 257.535C98.7069 257.535 99.6068 257.835 100.25 258.435C100.899 259.029 101.224 259.984 101.224 261.302V268H99.0439V261.71C99.0439 260.912 98.88 260.315 98.5522 259.919C98.2244 259.517 97.7173 259.316 97.0308 259.316C96.035 259.316 95.3423 259.623 94.9526 260.235C94.5692 260.847 94.3774 261.735 94.3774 262.897V268H92.1973V257.73H93.895L94.2012 259.122H94.3218C94.5444 258.763 94.8197 258.469 95.1475 258.24C95.4814 258.005 95.8525 257.829 96.2607 257.711C96.6751 257.594 97.105 257.535 97.5503 257.535ZM111.179 265.068C111.179 265.743 111.015 266.312 110.687 266.775C110.359 267.239 109.88 267.592 109.249 267.833C108.624 268.068 107.857 268.186 106.948 268.186C106.231 268.186 105.612 268.133 105.093 268.028C104.579 267.929 104.094 267.774 103.636 267.564V265.681C104.125 265.91 104.672 266.107 105.278 266.274C105.891 266.441 106.469 266.525 107.013 266.525C107.731 266.525 108.247 266.414 108.562 266.191C108.878 265.962 109.036 265.659 109.036 265.282C109.036 265.059 108.971 264.861 108.841 264.688C108.717 264.509 108.482 264.326 108.136 264.141C107.796 263.949 107.295 263.72 106.633 263.454C105.983 263.194 105.436 262.935 104.991 262.675C104.545 262.415 104.208 262.103 103.979 261.738C103.751 261.367 103.636 260.894 103.636 260.318C103.636 259.409 103.995 258.72 104.712 258.25C105.436 257.773 106.392 257.535 107.579 257.535C108.21 257.535 108.804 257.6 109.36 257.73C109.923 257.854 110.474 258.036 111.012 258.277L110.325 259.919C109.861 259.715 109.394 259.548 108.924 259.418C108.46 259.282 107.987 259.214 107.505 259.214C106.942 259.214 106.512 259.301 106.215 259.474C105.925 259.647 105.779 259.895 105.779 260.216C105.779 260.458 105.85 260.662 105.993 260.829C106.135 260.996 106.379 261.163 106.726 261.33C107.078 261.497 107.567 261.704 108.191 261.951C108.804 262.186 109.333 262.434 109.778 262.693C110.229 262.947 110.576 263.259 110.817 263.63C111.058 264.001 111.179 264.481 111.179 265.068ZM115.715 257.73V268H113.535V257.73H115.715ZM114.639 253.796C114.973 253.796 115.261 253.886 115.502 254.065C115.749 254.245 115.873 254.554 115.873 254.993C115.873 255.426 115.749 255.735 115.502 255.921C115.261 256.1 114.973 256.19 114.639 256.19C114.293 256.19 113.999 256.1 113.758 255.921C113.523 255.735 113.405 255.426 113.405 254.993C113.405 254.554 113.523 254.245 113.758 254.065C113.999 253.886 114.293 253.796 114.639 253.796ZM122.664 266.423C122.949 266.423 123.23 266.398 123.508 266.349C123.787 266.293 124.04 266.228 124.269 266.154V267.805C124.028 267.91 123.715 268 123.332 268.074C122.949 268.148 122.55 268.186 122.135 268.186C121.554 268.186 121.031 268.09 120.567 267.898C120.104 267.7 119.736 267.363 119.463 266.887C119.191 266.41 119.055 265.752 119.055 264.911V259.391H117.654V258.417L119.157 257.646L119.872 255.448H121.245V257.73H124.186V259.391H121.245V264.883C121.245 265.402 121.375 265.789 121.634 266.042C121.894 266.296 122.237 266.423 122.664 266.423ZM128.537 257.73V268H126.356V257.73H128.537ZM127.46 253.796C127.794 253.796 128.082 253.886 128.323 254.065C128.571 254.245 128.694 254.554 128.694 254.993C128.694 255.426 128.571 255.735 128.323 255.921C128.082 256.1 127.794 256.19 127.46 256.19C127.114 256.19 126.82 256.1 126.579 255.921C126.344 255.735 126.227 255.426 126.227 254.993C126.227 254.554 126.344 254.245 126.579 254.065C126.82 253.886 127.114 253.796 127.46 253.796ZM134.01 268L130.104 257.73H132.415L134.53 263.76C134.666 264.144 134.79 264.558 134.901 265.003C135.012 265.449 135.09 265.823 135.133 266.126H135.207C135.25 265.811 135.334 265.433 135.458 264.994C135.581 264.549 135.708 264.138 135.838 263.76L137.953 257.73H140.254L136.348 268H134.01ZM143.993 257.73V268H141.812V257.73H143.993ZM142.917 253.796C143.25 253.796 143.538 253.886 143.779 254.065C144.027 254.245 144.15 254.554 144.15 254.993C144.15 255.426 144.027 255.735 143.779 255.921C143.538 256.1 143.25 256.19 142.917 256.19C142.57 256.19 142.276 256.1 142.035 255.921C141.8 255.735 141.683 255.426 141.683 254.993C141.683 254.554 141.8 254.245 142.035 254.065C142.276 253.886 142.57 253.796 142.917 253.796ZM150.941 266.423C151.226 266.423 151.507 266.398 151.786 266.349C152.064 266.293 152.318 266.228 152.546 266.154V267.805C152.305 267.91 151.993 268 151.609 268.074C151.226 268.148 150.827 268.186 150.413 268.186C149.831 268.186 149.309 268.09 148.845 267.898C148.381 267.7 148.013 267.363 147.741 266.887C147.469 266.41 147.333 265.752 147.333 264.911V259.391H145.932V258.417L147.435 257.646L148.149 255.448H149.522V257.73H152.463V259.391H149.522V264.883C149.522 265.402 149.652 265.789 149.912 266.042C150.171 266.296 150.515 266.423 150.941 266.423ZM153.084 257.73H155.459L157.565 263.593C157.658 263.859 157.742 264.122 157.816 264.382C157.896 264.635 157.964 264.886 158.02 265.133C158.082 265.381 158.131 265.628 158.168 265.875H158.224C158.286 265.554 158.373 265.195 158.484 264.799C158.601 264.397 158.731 263.995 158.874 263.593L160.896 257.73H163.243L158.836 269.41C158.583 270.078 158.271 270.647 157.899 271.117C157.535 271.593 157.102 271.952 156.601 272.193C156.1 272.441 155.528 272.564 154.884 272.564C154.575 272.564 154.306 272.546 154.077 272.509C153.848 272.478 153.653 272.444 153.493 272.407V270.663C153.623 270.694 153.786 270.721 153.984 270.746C154.182 270.771 154.386 270.783 154.597 270.783C154.986 270.783 155.323 270.706 155.608 270.551C155.892 270.397 156.134 270.177 156.332 269.893C156.529 269.614 156.693 269.296 156.823 268.937L157.185 267.972L153.084 257.73Z" fill="black"/>
<g filter="url(#filter5_d_6193_30423)">
<path d="M245 238C245 232.477 249.477 228 255 228H456C461.523 228 466 232.477 466 238V282C466 287.523 461.523 292 456 292H255C249.477 292 245 287.523 245 282V238Z" fill="white"/>
<path d="M255 228.5H456C461.247 228.5 465.5 232.753 465.5 238V282C465.5 287.247 461.247 291.5 456 291.5H255C249.753 291.5 245.5 287.247 245.5 282V238C245.5 232.753 249.753 228.5 255 228.5Z" stroke="#D1D1D1"/>
</g>
<path d="M261.781 254.437H265.817C267.567 254.437 268.888 254.69 269.778 255.197C270.669 255.704 271.114 256.58 271.114 257.823C271.114 258.342 271.021 258.812 270.836 259.233C270.657 259.647 270.394 259.991 270.047 260.263C269.701 260.529 269.274 260.708 268.767 260.801V260.894C269.293 260.986 269.76 261.15 270.168 261.385C270.582 261.62 270.907 261.957 271.142 262.396C271.383 262.836 271.504 263.405 271.504 264.104C271.504 264.932 271.306 265.637 270.91 266.219C270.521 266.8 269.961 267.242 269.231 267.545C268.507 267.848 267.648 268 266.652 268H261.781V254.437ZM264.008 260.031H266.142C267.15 260.031 267.849 259.867 268.238 259.539C268.628 259.211 268.823 258.732 268.823 258.101C268.823 257.458 268.591 256.994 268.127 256.709C267.669 256.425 266.939 256.283 265.938 256.283H264.008V260.031ZM264.008 261.831V266.135H266.355C267.394 266.135 268.124 265.934 268.544 265.532C268.965 265.13 269.175 264.586 269.175 263.899C269.175 263.479 269.079 263.114 268.888 262.805C268.702 262.495 268.396 262.257 267.969 262.09C267.542 261.917 266.967 261.831 266.244 261.831H264.008ZM278.174 257.535C279.09 257.535 279.875 257.724 280.531 258.101C281.186 258.478 281.69 259.013 282.043 259.706C282.396 260.399 282.572 261.228 282.572 262.192V263.361H275.716C275.741 264.357 276.007 265.124 276.514 265.662C277.027 266.2 277.744 266.469 278.666 266.469C279.322 266.469 279.909 266.407 280.429 266.284C280.954 266.154 281.496 265.965 282.052 265.718V267.49C281.539 267.731 281.016 267.907 280.484 268.019C279.952 268.13 279.315 268.186 278.573 268.186C277.565 268.186 276.678 267.991 275.911 267.601C275.15 267.205 274.553 266.618 274.12 265.838C273.693 265.059 273.48 264.091 273.48 262.935C273.48 261.784 273.675 260.807 274.064 260.003C274.454 259.199 275.001 258.587 275.707 258.166C276.412 257.745 277.234 257.535 278.174 257.535ZM278.174 259.177C277.488 259.177 276.931 259.4 276.504 259.845C276.084 260.291 275.836 260.943 275.762 261.803H280.438C280.432 261.289 280.345 260.835 280.178 260.439C280.017 260.043 279.77 259.734 279.436 259.511C279.108 259.289 278.688 259.177 278.174 259.177ZM288.481 268.186C287.257 268.186 286.273 267.74 285.531 266.85C284.795 265.953 284.427 264.632 284.427 262.888C284.427 261.125 284.801 259.793 285.55 258.89C286.304 257.987 287.297 257.535 288.528 257.535C289.047 257.535 289.502 257.606 289.892 257.749C290.281 257.885 290.615 258.07 290.894 258.305C291.178 258.54 291.419 258.803 291.617 259.094H291.719C291.688 258.902 291.651 258.627 291.608 258.268C291.571 257.903 291.552 257.566 291.552 257.257V253.564H293.742V268H292.035L291.645 266.599H291.552C291.367 266.896 291.132 267.165 290.847 267.406C290.569 267.641 290.235 267.83 289.845 267.972C289.462 268.114 289.007 268.186 288.481 268.186ZM289.094 266.414C290.028 266.414 290.686 266.145 291.07 265.606C291.453 265.068 291.651 264.261 291.664 263.185V262.897C291.664 261.747 291.478 260.866 291.107 260.253C290.736 259.635 290.059 259.326 289.075 259.326C288.29 259.326 287.69 259.644 287.275 260.281C286.867 260.912 286.663 261.793 286.663 262.925C286.663 264.057 286.867 264.923 287.275 265.523C287.69 266.117 288.296 266.414 289.094 266.414ZM318.067 254.437L314.523 268H312.092L309.829 259.873C309.773 259.675 309.711 259.44 309.643 259.168C309.575 258.896 309.507 258.618 309.439 258.333C309.377 258.049 309.321 257.789 309.272 257.554C309.229 257.312 309.198 257.127 309.179 256.997C309.167 257.127 309.139 257.309 309.096 257.544C309.052 257.779 309 258.039 308.938 258.324C308.882 258.602 308.82 258.88 308.752 259.159C308.684 259.431 308.623 259.672 308.567 259.882L306.34 268H303.919L300.384 254.437H302.62L304.578 262.387C304.639 262.641 304.701 262.916 304.763 263.213C304.831 263.504 304.893 263.797 304.949 264.094C305.011 264.391 305.066 264.682 305.116 264.966C305.165 265.245 305.205 265.498 305.236 265.727C305.267 265.492 305.307 265.232 305.357 264.948C305.406 264.657 305.459 264.363 305.515 264.066C305.576 263.763 305.638 263.473 305.7 263.194C305.768 262.916 305.836 262.666 305.904 262.443L308.112 254.437H310.283L312.538 262.471C312.606 262.7 312.671 262.956 312.732 263.241C312.8 263.525 312.865 263.816 312.927 264.113C312.989 264.41 313.045 264.697 313.094 264.976C313.144 265.254 313.184 265.504 313.215 265.727C313.258 265.424 313.314 265.078 313.382 264.688C313.45 264.298 313.527 263.903 313.614 263.5C313.7 263.098 313.787 262.727 313.874 262.387L315.822 254.437H318.067ZM321.945 257.73V268H319.765V257.73H321.945ZM320.869 253.796C321.203 253.796 321.49 253.886 321.731 254.065C321.979 254.245 322.103 254.554 322.103 254.993C322.103 255.426 321.979 255.735 321.731 255.921C321.49 256.1 321.203 256.19 320.869 256.19C320.522 256.19 320.229 256.1 319.987 255.921C319.752 255.735 319.635 255.426 319.635 254.993C319.635 254.554 319.752 254.245 319.987 254.065C320.229 253.886 320.522 253.796 320.869 253.796ZM328.522 268.186C327.298 268.186 326.314 267.74 325.572 266.85C324.836 265.953 324.468 264.632 324.468 262.888C324.468 261.125 324.842 259.793 325.591 258.89C326.345 257.987 327.338 257.535 328.569 257.535C329.088 257.535 329.543 257.606 329.933 257.749C330.322 257.885 330.656 258.07 330.935 258.305C331.219 258.54 331.46 258.803 331.658 259.094H331.76C331.729 258.902 331.692 258.627 331.649 258.268C331.612 257.903 331.593 257.566 331.593 257.257V253.564H333.783V268H332.076L331.686 266.599H331.593C331.408 266.896 331.173 267.165 330.888 267.406C330.61 267.641 330.276 267.83 329.886 267.972C329.503 268.114 329.048 268.186 328.522 268.186ZM329.135 266.414C330.069 266.414 330.727 266.145 331.111 265.606C331.494 265.068 331.692 264.261 331.705 263.185V262.897C331.705 261.747 331.519 260.866 331.148 260.253C330.777 259.635 330.1 259.326 329.116 259.326C328.331 259.326 327.731 259.644 327.316 260.281C326.908 260.912 326.704 261.793 326.704 262.925C326.704 264.057 326.908 264.923 327.316 265.523C327.731 266.117 328.337 266.414 329.135 266.414ZM340.731 266.423C341.016 266.423 341.297 266.398 341.576 266.349C341.854 266.293 342.108 266.228 342.336 266.154V267.805C342.095 267.91 341.783 268 341.399 268.074C341.016 268.148 340.617 268.186 340.203 268.186C339.621 268.186 339.099 268.09 338.635 267.898C338.171 267.7 337.803 267.363 337.531 266.887C337.259 266.41 337.123 265.752 337.123 264.911V259.391H335.722V258.417L337.225 257.646L337.939 255.448H339.312V257.73H342.253V259.391H339.312V264.883C339.312 265.402 339.442 265.789 339.702 266.042C339.961 266.296 340.305 266.423 340.731 266.423ZM346.604 253.564V257.192C346.604 257.569 346.592 257.937 346.567 258.296C346.548 258.655 346.527 258.933 346.502 259.131H346.623C346.839 258.772 347.105 258.478 347.42 258.25C347.736 258.014 348.088 257.838 348.478 257.721C348.874 257.603 349.294 257.544 349.74 257.544C350.525 257.544 351.193 257.677 351.744 257.943C352.294 258.203 352.715 258.608 353.005 259.159C353.302 259.709 353.451 260.424 353.451 261.302V268H351.271V261.71C351.271 260.912 351.107 260.315 350.779 259.919C350.451 259.517 349.944 259.316 349.257 259.316C348.596 259.316 348.07 259.456 347.68 259.734C347.297 260.006 347.021 260.411 346.854 260.949C346.688 261.481 346.604 262.131 346.604 262.897V268H344.424V253.564H346.604Z" fill="black"/>
<g filter="url(#filter6_d_6193_30423)">
<path d="M14 312C14 306.477 18.4772 302 24 302H225C230.523 302 235 306.477 235 312V356C235 361.523 230.523 366 225 366H24C18.4772 366 14 361.523 14 356V312Z" fill="white"/>
<path d="M24 302.5H225C230.247 302.5 234.5 306.753 234.5 312V356C234.5 361.247 230.247 365.5 225 365.5H24C18.7533 365.5 14.5 361.247 14.5 356V312C14.5 306.753 18.7533 302.5 24 302.5Z" stroke="#D1D1D1"/>
</g>
<path d="M30.7812 328.437H34.8169C36.5672 328.437 37.8877 328.69 38.7783 329.197C39.6689 329.704 40.1143 330.58 40.1143 331.823C40.1143 332.342 40.0215 332.812 39.8359 333.233C39.6566 333.647 39.3937 333.991 39.0474 334.263C38.701 334.529 38.2743 334.708 37.7671 334.801V334.894C38.2928 334.986 38.7598 335.15 39.168 335.385C39.5824 335.62 39.9071 335.957 40.1421 336.396C40.3833 336.836 40.5039 337.405 40.5039 338.104C40.5039 338.932 40.306 339.637 39.9102 340.219C39.5205 340.8 38.9608 341.242 38.231 341.545C37.5073 341.848 36.6476 342 35.6519 342H30.7812V328.437ZM33.0078 334.031H35.1416C36.1497 334.031 36.8486 333.867 37.2383 333.539C37.6279 333.211 37.8228 332.732 37.8228 332.101C37.8228 331.458 37.5908 330.994 37.127 330.709C36.6693 330.425 35.9395 330.283 34.9375 330.283H33.0078V334.031ZM33.0078 335.831V340.135H35.355C36.394 340.135 37.1239 339.934 37.5444 339.532C37.965 339.13 38.1753 338.586 38.1753 337.899C38.1753 337.479 38.0794 337.114 37.8877 336.805C37.7021 336.495 37.396 336.257 36.9692 336.09C36.5425 335.917 35.9673 335.831 35.2437 335.831H33.0078ZM47.1743 331.535C48.0897 331.535 48.8752 331.724 49.5308 332.101C50.1864 332.478 50.6904 333.013 51.043 333.706C51.3955 334.399 51.5718 335.228 51.5718 336.192V337.361H44.7158C44.7406 338.357 45.0065 339.124 45.5137 339.662C46.027 340.2 46.7445 340.469 47.666 340.469C48.3216 340.469 48.9092 340.407 49.4287 340.284C49.9544 340.154 50.4956 339.965 51.0522 339.718V341.49C50.5389 341.731 50.0163 341.907 49.4844 342.019C48.9525 342.13 48.3154 342.186 47.5732 342.186C46.5651 342.186 45.6776 341.991 44.9106 341.601C44.1499 341.205 43.5531 340.618 43.1201 339.838C42.6934 339.059 42.48 338.091 42.48 336.935C42.48 335.784 42.6748 334.807 43.0645 334.003C43.4541 333.199 44.0015 332.587 44.7065 332.166C45.4116 331.745 46.2342 331.535 47.1743 331.535ZM47.1743 333.177C46.4878 333.177 45.9312 333.4 45.5044 333.845C45.0838 334.291 44.8364 334.943 44.7622 335.803H49.438C49.4318 335.289 49.3452 334.835 49.1782 334.439C49.0174 334.043 48.77 333.734 48.436 333.511C48.1082 333.289 47.6877 333.177 47.1743 333.177ZM57.4814 342.186C56.2568 342.186 55.2734 341.74 54.5312 340.85C53.7952 339.953 53.4272 338.632 53.4272 336.888C53.4272 335.125 53.8014 333.793 54.5498 332.89C55.3044 331.987 56.297 331.535 57.5278 331.535C58.0474 331.535 58.502 331.606 58.8916 331.749C59.2812 331.885 59.6152 332.07 59.8936 332.305C60.1781 332.54 60.4193 332.803 60.6172 333.094H60.7192C60.6883 332.902 60.6512 332.627 60.6079 332.268C60.5708 331.903 60.5522 331.566 60.5522 331.257V327.564H62.7417V342H61.0347L60.645 340.599H60.5522C60.3667 340.896 60.1317 341.165 59.8472 341.406C59.5688 341.641 59.2349 341.83 58.8452 341.972C58.4618 342.114 58.0072 342.186 57.4814 342.186ZM58.0938 340.414C59.0277 340.414 59.6864 340.145 60.0698 339.606C60.4533 339.068 60.6512 338.261 60.6636 337.185V336.897C60.6636 335.747 60.478 334.866 60.1069 334.253C59.7358 333.635 59.0586 333.326 58.0752 333.326C57.2897 333.326 56.6898 333.644 56.2754 334.281C55.8672 334.912 55.6631 335.793 55.6631 336.925C55.6631 338.057 55.8672 338.923 56.2754 339.523C56.6898 340.117 57.2959 340.414 58.0938 340.414ZM74.9692 328.437C76.7196 328.437 77.9967 328.795 78.8008 329.513C79.6048 330.23 80.0068 331.235 80.0068 332.528C80.0068 333.115 79.9141 333.675 79.7285 334.207C79.5492 334.733 79.2523 335.2 78.8379 335.608C78.4235 336.01 77.8761 336.328 77.1958 336.563C76.5216 336.799 75.6898 336.916 74.7002 336.916H73.2529V342H71.0264V328.437H74.9692ZM74.8208 330.283H73.2529V335.061H74.4683C75.1672 335.061 75.7609 334.98 76.2495 334.819C76.7381 334.652 77.1092 334.389 77.3628 334.031C77.6164 333.672 77.7432 333.199 77.7432 332.611C77.7432 331.826 77.505 331.241 77.0288 330.858C76.5588 330.474 75.8228 330.283 74.8208 330.283ZM84.6826 342H82.4932V327.564H84.6826V342ZM91.8262 331.535C93.125 331.535 94.1053 331.823 94.7671 332.398C95.4351 332.973 95.769 333.87 95.769 335.088V342H94.2197L93.8022 340.543H93.728C93.4373 340.915 93.1374 341.221 92.8281 341.462C92.5189 341.703 92.1602 341.882 91.752 342C91.3499 342.124 90.8582 342.186 90.2769 342.186C89.6646 342.186 89.1172 342.074 88.6348 341.852C88.1523 341.623 87.772 341.276 87.4937 340.812C87.2153 340.349 87.0762 339.761 87.0762 339.05C87.0762 337.992 87.4689 337.197 88.2544 336.666C89.0461 336.134 90.2397 335.84 91.8354 335.784L93.6167 335.719V335.181C93.6167 334.47 93.4497 333.963 93.1157 333.66C92.7879 333.357 92.3241 333.205 91.7241 333.205C91.2108 333.205 90.7129 333.279 90.2305 333.428C89.748 333.576 89.278 333.759 88.8203 333.975L88.1152 332.435C88.6162 332.169 89.1852 331.953 89.8223 331.786C90.4655 331.619 91.1335 331.535 91.8262 331.535ZM93.6074 337.092L92.2808 337.139C91.1922 337.176 90.4284 337.361 89.9893 337.695C89.5501 338.029 89.3306 338.487 89.3306 339.068C89.3306 339.576 89.4821 339.947 89.7852 340.182C90.0882 340.41 90.4871 340.525 90.9819 340.525C91.7365 340.525 92.3612 340.312 92.856 339.885C93.3569 339.452 93.6074 338.818 93.6074 337.983V337.092ZM102.959 342.186C101.988 342.186 101.147 341.997 100.436 341.62C99.7243 341.242 99.1769 340.664 98.7935 339.885C98.41 339.105 98.2183 338.116 98.2183 336.916C98.2183 335.667 98.4285 334.646 98.8491 333.854C99.2697 333.063 99.8511 332.478 100.593 332.101C101.342 331.724 102.198 331.535 103.163 331.535C103.775 331.535 104.329 331.597 104.824 331.721C105.325 331.838 105.748 331.984 106.095 332.157L105.445 333.901C105.068 333.746 104.681 333.616 104.286 333.511C103.89 333.406 103.509 333.354 103.145 333.354C102.545 333.354 102.044 333.486 101.642 333.752C101.246 334.018 100.949 334.414 100.751 334.94C100.559 335.466 100.463 336.118 100.463 336.897C100.463 337.652 100.562 338.289 100.76 338.809C100.958 339.322 101.252 339.712 101.642 339.978C102.031 340.237 102.511 340.367 103.08 340.367C103.642 340.367 104.146 340.299 104.592 340.163C105.037 340.027 105.458 339.851 105.854 339.634V341.527C105.464 341.75 105.046 341.913 104.601 342.019C104.156 342.13 103.608 342.186 102.959 342.186ZM112.357 331.535C113.272 331.535 114.058 331.724 114.713 332.101C115.369 332.478 115.873 333.013 116.226 333.706C116.578 334.399 116.754 335.228 116.754 336.192V337.361H109.898C109.923 338.357 110.189 339.124 110.696 339.662C111.21 340.2 111.927 340.469 112.849 340.469C113.504 340.469 114.092 340.407 114.611 340.284C115.137 340.154 115.678 339.965 116.235 339.718V341.49C115.722 341.731 115.199 341.907 114.667 342.019C114.135 342.13 113.498 342.186 112.756 342.186C111.748 342.186 110.86 341.991 110.093 341.601C109.333 341.205 108.736 340.618 108.303 339.838C107.876 339.059 107.663 338.091 107.663 336.935C107.663 335.784 107.857 334.807 108.247 334.003C108.637 333.199 109.184 332.587 109.889 332.166C110.594 331.745 111.417 331.535 112.357 331.535ZM112.357 333.177C111.67 333.177 111.114 333.4 110.687 333.845C110.266 334.291 110.019 334.943 109.945 335.803H114.621C114.614 335.289 114.528 334.835 114.361 334.439C114.2 334.043 113.953 333.734 113.619 333.511C113.291 333.289 112.87 333.177 112.357 333.177ZM130.819 331.535C131.969 331.535 132.835 331.832 133.417 332.426C134.004 333.02 134.298 333.972 134.298 335.283V342H132.118V335.673C132.118 334.894 131.966 334.306 131.663 333.91C131.36 333.514 130.899 333.316 130.281 333.316C129.415 333.316 128.79 333.595 128.407 334.151C128.029 334.702 127.841 335.503 127.841 336.554V342H125.661V335.673C125.661 335.153 125.593 334.72 125.457 334.374C125.327 334.021 125.126 333.759 124.854 333.585C124.581 333.406 124.238 333.316 123.824 333.316C123.224 333.316 122.744 333.452 122.386 333.725C122.033 333.997 121.78 334.399 121.625 334.931C121.47 335.456 121.393 336.103 121.393 336.87V342H119.213V331.73H120.911L121.217 333.112H121.337C121.548 332.754 121.807 332.46 122.117 332.231C122.432 331.996 122.782 331.823 123.165 331.711C123.549 331.594 123.947 331.535 124.362 331.535C125.129 331.535 125.775 331.671 126.301 331.943C126.826 332.209 127.219 332.618 127.479 333.168H127.646C127.968 332.611 128.416 332.2 128.991 331.934C129.566 331.668 130.176 331.535 130.819 331.535ZM141.432 331.535C142.347 331.535 143.133 331.724 143.789 332.101C144.444 332.478 144.948 333.013 145.301 333.706C145.653 334.399 145.83 335.228 145.83 336.192V337.361H138.974C138.998 338.357 139.264 339.124 139.771 339.662C140.285 340.2 141.002 340.469 141.924 340.469C142.579 340.469 143.167 340.407 143.687 340.284C144.212 340.154 144.753 339.965 145.31 339.718V341.49C144.797 341.731 144.274 341.907 143.742 342.019C143.21 342.13 142.573 342.186 141.831 342.186C140.823 342.186 139.935 341.991 139.168 341.601C138.408 341.205 137.811 340.618 137.378 339.838C136.951 339.059 136.738 338.091 136.738 336.935C136.738 335.784 136.933 334.807 137.322 334.003C137.712 333.199 138.259 332.587 138.964 332.166C139.669 331.745 140.492 331.535 141.432 331.535ZM141.432 333.177C140.746 333.177 140.189 333.4 139.762 333.845C139.342 334.291 139.094 334.943 139.02 335.803H143.696C143.69 335.289 143.603 334.835 143.436 334.439C143.275 334.043 143.028 333.734 142.694 333.511C142.366 333.289 141.945 333.177 141.432 333.177ZM153.641 331.535C154.798 331.535 155.698 331.835 156.341 332.435C156.99 333.029 157.315 333.984 157.315 335.302V342H155.135V335.71C155.135 334.912 154.971 334.315 154.643 333.919C154.315 333.517 153.808 333.316 153.122 333.316C152.126 333.316 151.433 333.623 151.043 334.235C150.66 334.847 150.468 335.735 150.468 336.897V342H148.288V331.73H149.986L150.292 333.122H150.413C150.635 332.763 150.91 332.469 151.238 332.24C151.572 332.005 151.943 331.829 152.352 331.711C152.766 331.594 153.196 331.535 153.641 331.535ZM164.189 340.423C164.474 340.423 164.755 340.398 165.034 340.349C165.312 340.293 165.566 340.228 165.794 340.154V341.805C165.553 341.91 165.241 342 164.857 342.074C164.474 342.148 164.075 342.186 163.661 342.186C163.079 342.186 162.557 342.09 162.093 341.898C161.629 341.7 161.261 341.363 160.989 340.887C160.717 340.41 160.581 339.752 160.581 338.911V333.391H159.18V332.417L160.683 331.646L161.397 329.448H162.77V331.73H165.711V333.391H162.77V338.883C162.77 339.402 162.9 339.789 163.16 340.042C163.419 340.296 163.763 340.423 164.189 340.423Z" fill="black"/>
<g filter="url(#filter7_d_6193_30423)">
<path d="M245 312C245 306.477 249.477 302 255 302H456C461.523 302 466 306.477 466 312V356C466 361.523 461.523 366 456 366H255C249.477 366 245 361.523 245 356V312Z" fill="white"/>
<path d="M255 302.5H456C461.247 302.5 465.5 306.753 465.5 312V356C465.5 361.247 461.247 365.5 456 365.5H255C249.753 365.5 245.5 361.247 245.5 356V312C245.5 306.753 249.753 302.5 255 302.5Z" stroke="#D1D1D1"/>
</g>
<path d="M273.823 335.2C273.823 336.245 273.69 337.197 273.424 338.057C273.165 338.911 272.772 339.647 272.246 340.265C271.72 340.877 271.062 341.351 270.27 341.685C269.478 342.019 268.551 342.186 267.487 342.186C266.404 342.186 265.464 342.019 264.667 341.685C263.875 341.351 263.216 340.874 262.69 340.256C262.171 339.637 261.781 338.898 261.521 338.039C261.262 337.179 261.132 336.226 261.132 335.181C261.132 333.783 261.361 332.565 261.818 331.526C262.282 330.481 262.984 329.67 263.924 329.095C264.871 328.514 266.064 328.223 267.505 328.223C268.916 328.223 270.088 328.511 271.021 329.086C271.955 329.661 272.654 330.471 273.118 331.517C273.588 332.556 273.823 333.783 273.823 335.2ZM263.47 335.2C263.47 336.245 263.612 337.151 263.896 337.918C264.181 338.679 264.617 339.266 265.205 339.681C265.798 340.089 266.559 340.293 267.487 340.293C268.421 340.293 269.181 340.089 269.769 339.681C270.357 339.266 270.79 338.679 271.068 337.918C271.346 337.151 271.485 336.245 271.485 335.2C271.485 333.61 271.167 332.367 270.53 331.47C269.899 330.567 268.891 330.116 267.505 330.116C266.578 330.116 265.814 330.32 265.214 330.728C264.62 331.136 264.181 331.721 263.896 332.481C263.612 333.236 263.47 334.142 263.47 335.2ZM280.651 342.186C279.68 342.186 278.839 341.997 278.128 341.62C277.417 341.242 276.869 340.664 276.486 339.885C276.102 339.105 275.911 338.116 275.911 336.916C275.911 335.667 276.121 334.646 276.542 333.854C276.962 333.063 277.543 332.478 278.286 332.101C279.034 331.724 279.891 331.535 280.855 331.535C281.468 331.535 282.021 331.597 282.516 331.721C283.017 331.838 283.441 331.984 283.787 332.157L283.138 333.901C282.76 333.746 282.374 333.616 281.978 333.511C281.582 333.406 281.202 333.354 280.837 333.354C280.237 333.354 279.736 333.486 279.334 333.752C278.938 334.018 278.641 334.414 278.443 334.94C278.252 335.466 278.156 336.118 278.156 336.897C278.156 337.652 278.255 338.289 278.453 338.809C278.651 339.322 278.944 339.712 279.334 339.978C279.724 340.237 280.203 340.367 280.772 340.367C281.335 340.367 281.839 340.299 282.284 340.163C282.729 340.027 283.15 339.851 283.546 339.634V341.527C283.156 341.75 282.739 341.913 282.293 342.019C281.848 342.13 281.301 342.186 280.651 342.186ZM290.096 342.186C289.125 342.186 288.284 341.997 287.572 341.62C286.861 341.242 286.314 340.664 285.93 339.885C285.547 339.105 285.355 338.116 285.355 336.916C285.355 335.667 285.565 334.646 285.986 333.854C286.406 333.063 286.988 332.478 287.73 332.101C288.478 331.724 289.335 331.535 290.3 331.535C290.912 331.535 291.466 331.597 291.96 331.721C292.461 331.838 292.885 331.984 293.231 332.157L292.582 333.901C292.205 333.746 291.818 333.616 291.422 333.511C291.027 333.406 290.646 333.354 290.281 333.354C289.681 333.354 289.18 333.486 288.778 333.752C288.382 334.018 288.086 334.414 287.888 334.94C287.696 335.466 287.6 336.118 287.6 336.897C287.6 337.652 287.699 338.289 287.897 338.809C288.095 339.322 288.389 339.712 288.778 339.978C289.168 340.237 289.647 340.367 290.216 340.367C290.779 340.367 291.283 340.299 291.729 340.163C292.174 340.027 292.594 339.851 292.99 339.634V341.527C292.601 341.75 292.183 341.913 291.738 342.019C291.292 342.13 290.745 342.186 290.096 342.186ZM304.355 331.73V342H302.639L302.342 340.618H302.221C302.005 340.97 301.729 341.264 301.396 341.499C301.062 341.728 300.69 341.898 300.282 342.009C299.874 342.127 299.444 342.186 298.993 342.186C298.22 342.186 297.558 342.056 297.007 341.796C296.463 341.53 296.046 341.122 295.755 340.571C295.464 340.021 295.319 339.31 295.319 338.438V331.73H297.508V338.029C297.508 338.827 297.669 339.424 297.991 339.82C298.319 340.216 298.826 340.414 299.512 340.414C300.174 340.414 300.7 340.278 301.089 340.005C301.479 339.733 301.754 339.331 301.915 338.799C302.082 338.267 302.166 337.615 302.166 336.842V331.73H304.355ZM312.751 331.535C313.969 331.535 314.947 331.98 315.683 332.871C316.425 333.762 316.796 335.085 316.796 336.842C316.796 338.005 316.623 338.985 316.276 339.783C315.936 340.574 315.457 341.174 314.838 341.583C314.226 341.985 313.512 342.186 312.695 342.186C312.176 342.186 311.724 342.118 311.341 341.981C310.957 341.845 310.63 341.669 310.357 341.453C310.085 341.23 309.856 340.989 309.671 340.729H309.541C309.572 340.976 309.6 341.252 309.625 341.555C309.655 341.852 309.671 342.124 309.671 342.371V346.555H307.481V331.73H309.263L309.569 333.149H309.671C309.863 332.859 310.095 332.59 310.367 332.342C310.645 332.095 310.979 331.9 311.369 331.758C311.764 331.609 312.225 331.535 312.751 331.535ZM312.167 333.316C311.567 333.316 311.084 333.437 310.719 333.678C310.361 333.913 310.098 334.269 309.931 334.745C309.77 335.221 309.683 335.818 309.671 336.536V336.842C309.671 337.603 309.748 338.249 309.903 338.781C310.064 339.306 310.326 339.708 310.691 339.987C311.062 340.259 311.563 340.395 312.194 340.395C312.726 340.395 313.165 340.25 313.512 339.959C313.864 339.668 314.127 339.254 314.3 338.716C314.473 338.178 314.56 337.544 314.56 336.814C314.56 335.707 314.362 334.847 313.966 334.235C313.577 333.623 312.977 333.316 312.167 333.316ZM323.346 331.535C324.645 331.535 325.625 331.823 326.287 332.398C326.955 332.973 327.289 333.87 327.289 335.088V342H325.739L325.322 340.543H325.248C324.957 340.915 324.657 341.221 324.348 341.462C324.038 341.703 323.68 341.882 323.271 342C322.869 342.124 322.378 342.186 321.796 342.186C321.184 342.186 320.637 342.074 320.154 341.852C319.672 341.623 319.292 341.276 319.013 340.812C318.735 340.349 318.596 339.761 318.596 339.05C318.596 337.992 318.988 337.197 319.774 336.666C320.566 336.134 321.759 335.84 323.355 335.784L325.136 335.719V335.181C325.136 334.47 324.969 333.963 324.635 333.66C324.307 333.357 323.844 333.205 323.244 333.205C322.73 333.205 322.232 333.279 321.75 333.428C321.268 333.576 320.798 333.759 320.34 333.975L319.635 332.435C320.136 332.169 320.705 331.953 321.342 331.786C321.985 331.619 322.653 331.535 323.346 331.535ZM325.127 337.092L323.8 337.139C322.712 337.176 321.948 337.361 321.509 337.695C321.07 338.029 320.85 338.487 320.85 339.068C320.85 339.576 321.002 339.947 321.305 340.182C321.608 340.41 322.007 340.525 322.501 340.525C323.256 340.525 323.881 340.312 324.375 339.885C324.876 339.452 325.127 338.818 325.127 337.983V337.092ZM335.694 331.535C336.85 331.535 337.75 331.835 338.394 332.435C339.043 333.029 339.368 333.984 339.368 335.302V342H337.188V335.71C337.188 334.912 337.024 334.315 336.696 333.919C336.368 333.517 335.861 333.316 335.174 333.316C334.179 333.316 333.486 333.623 333.096 334.235C332.713 334.847 332.521 335.735 332.521 336.897V342H330.341V331.73H332.039L332.345 333.122H332.465C332.688 332.763 332.963 332.469 333.291 332.24C333.625 332.005 333.996 331.829 334.404 331.711C334.819 331.594 335.249 331.535 335.694 331.535ZM346.242 340.423C346.527 340.423 346.808 340.398 347.086 340.349C347.365 340.293 347.618 340.228 347.847 340.154V341.805C347.606 341.91 347.294 342 346.91 342.074C346.527 342.148 346.128 342.186 345.713 342.186C345.132 342.186 344.609 342.09 344.146 341.898C343.682 341.7 343.314 341.363 343.042 340.887C342.769 340.41 342.633 339.752 342.633 338.911V333.391H341.232V332.417L342.735 331.646L343.45 329.448H344.823V331.73H347.764V333.391H344.823V338.883C344.823 339.402 344.953 339.789 345.212 340.042C345.472 340.296 345.815 340.423 346.242 340.423ZM362.923 338.308C362.923 339.112 362.725 339.804 362.329 340.386C361.939 340.967 361.377 341.412 360.641 341.722C359.911 342.031 359.039 342.186 358.024 342.186C357.53 342.186 357.056 342.158 356.605 342.102C356.153 342.046 355.727 341.966 355.325 341.861C354.929 341.75 354.567 341.617 354.239 341.462V339.365C354.79 339.606 355.405 339.826 356.085 340.024C356.766 340.216 357.458 340.312 358.164 340.312C358.739 340.312 359.215 340.237 359.592 340.089C359.976 339.934 360.26 339.718 360.446 339.439C360.631 339.155 360.724 338.824 360.724 338.447C360.724 338.045 360.616 337.705 360.399 337.426C360.183 337.148 359.855 336.894 359.416 336.666C358.983 336.431 358.439 336.18 357.783 335.914C357.338 335.735 356.911 335.531 356.503 335.302C356.101 335.073 355.742 334.804 355.427 334.495C355.111 334.185 354.861 333.82 354.675 333.4C354.496 332.973 354.406 332.472 354.406 331.897C354.406 331.13 354.589 330.474 354.954 329.93C355.325 329.386 355.844 328.968 356.512 328.678C357.186 328.387 357.972 328.242 358.869 328.242C359.58 328.242 360.248 328.316 360.873 328.464C361.503 328.613 362.122 328.823 362.728 329.095L362.023 330.886C361.466 330.657 360.925 330.474 360.399 330.338C359.88 330.202 359.348 330.134 358.804 330.134C358.334 330.134 357.935 330.205 357.607 330.348C357.279 330.49 357.029 330.691 356.855 330.951C356.688 331.204 356.605 331.507 356.605 331.86C356.605 332.256 356.701 332.59 356.893 332.862C357.09 333.128 357.394 333.372 357.802 333.595C358.216 333.817 358.748 334.065 359.397 334.337C360.146 334.646 360.78 334.971 361.299 335.311C361.825 335.651 362.227 336.059 362.505 336.536C362.784 337.006 362.923 337.596 362.923 338.308ZM367.497 331.73V342H365.316V331.73H367.497ZM366.42 327.796C366.754 327.796 367.042 327.886 367.283 328.065C367.531 328.245 367.654 328.554 367.654 328.993C367.654 329.426 367.531 329.735 367.283 329.921C367.042 330.1 366.754 330.19 366.42 330.19C366.074 330.19 365.78 330.1 365.539 329.921C365.304 329.735 365.187 329.426 365.187 328.993C365.187 328.554 365.304 328.245 365.539 328.065C365.78 327.886 366.074 327.796 366.42 327.796ZM377.498 342H369.695V340.655L374.881 333.409H370.011V331.73H377.349V333.214L372.265 340.321H377.498V342ZM383.806 331.535C384.722 331.535 385.507 331.724 386.163 332.101C386.818 332.478 387.322 333.013 387.675 333.706C388.027 334.399 388.204 335.228 388.204 336.192V337.361H381.348C381.372 338.357 381.638 339.124 382.146 339.662C382.659 340.2 383.376 340.469 384.298 340.469C384.953 340.469 385.541 340.407 386.061 340.284C386.586 340.154 387.127 339.965 387.684 339.718V341.49C387.171 341.731 386.648 341.907 386.116 342.019C385.584 342.13 384.947 342.186 384.205 342.186C383.197 342.186 382.309 341.991 381.542 341.601C380.782 341.205 380.185 340.618 379.752 339.838C379.325 339.059 379.112 338.091 379.112 336.935C379.112 335.784 379.307 334.807 379.696 334.003C380.086 333.199 380.633 332.587 381.338 332.166C382.043 331.745 382.866 331.535 383.806 331.535ZM383.806 333.177C383.12 333.177 382.563 333.4 382.136 333.845C381.716 334.291 381.468 334.943 381.394 335.803H386.07C386.064 335.289 385.977 334.835 385.81 334.439C385.649 334.043 385.402 333.734 385.068 333.511C384.74 333.289 384.319 333.177 383.806 333.177Z" fill="black"/>
<g filter="url(#filter8_d_6193_30423)">
<rect x="16" y="384" width="448" height="80" rx="5" fill="#AC211C" shape-rendering="crispEdges"/>
<path d="M191.695 424.77C191.695 426.699 191.324 428.312 190.582 429.609C189.848 430.898 188.781 431.871 187.383 432.527C185.984 433.176 184.301 433.5 182.332 433.5H177.48V416.367H182.859C184.656 416.367 186.215 416.688 187.535 417.328C188.855 417.961 189.879 418.902 190.605 420.152C191.332 421.395 191.695 422.934 191.695 424.77ZM187.922 424.863C187.922 423.598 187.734 422.559 187.359 421.746C186.992 420.926 186.445 420.32 185.719 419.93C185 419.539 184.109 419.344 183.047 419.344H181.113V430.5H182.672C184.445 430.5 185.762 430.027 186.621 429.082C187.488 428.137 187.922 426.73 187.922 424.863ZM200.367 420.152C201.578 420.152 202.621 420.387 203.496 420.855C204.371 421.316 205.047 421.988 205.523 422.871C206 423.754 206.238 424.832 206.238 426.105V427.84H197.789C197.828 428.848 198.129 429.641 198.691 430.219C199.262 430.789 200.051 431.074 201.059 431.074C201.895 431.074 202.66 430.988 203.355 430.816C204.051 430.645 204.766 430.387 205.5 430.043V432.809C204.852 433.129 204.172 433.363 203.461 433.512C202.758 433.66 201.902 433.734 200.895 433.734C199.582 433.734 198.418 433.492 197.402 433.008C196.395 432.523 195.602 431.785 195.023 430.793C194.453 429.801 194.168 428.551 194.168 427.043C194.168 425.512 194.426 424.238 194.941 423.223C195.465 422.199 196.191 421.434 197.121 420.926C198.051 420.41 199.133 420.152 200.367 420.152ZM200.391 422.695C199.695 422.695 199.117 422.918 198.656 423.363C198.203 423.809 197.941 424.508 197.871 425.461H202.887C202.879 424.93 202.781 424.457 202.594 424.043C202.414 423.629 202.141 423.301 201.773 423.059C201.414 422.816 200.953 422.695 200.391 422.695ZM214.512 420.129C216.27 420.129 217.617 420.512 218.555 421.277C219.492 422.043 219.961 423.207 219.961 424.77V433.5H217.465L216.773 431.719H216.68C216.305 432.188 215.922 432.57 215.531 432.867C215.141 433.164 214.691 433.383 214.184 433.523C213.676 433.664 213.059 433.734 212.332 433.734C211.559 433.734 210.863 433.586 210.246 433.289C209.637 432.992 209.156 432.539 208.805 431.93C208.453 431.312 208.277 430.531 208.277 429.586C208.277 428.195 208.766 427.172 209.742 426.516C210.719 425.852 212.184 425.484 214.137 425.414L216.41 425.344V424.77C216.41 424.082 216.23 423.578 215.871 423.258C215.512 422.938 215.012 422.777 214.371 422.777C213.738 422.777 213.117 422.867 212.508 423.047C211.898 423.227 211.289 423.453 210.68 423.727L209.496 421.312C210.191 420.945 210.969 420.656 211.828 420.445C212.695 420.234 213.59 420.129 214.512 420.129ZM216.41 427.43L215.027 427.477C213.871 427.508 213.066 427.715 212.613 428.098C212.168 428.48 211.945 428.984 211.945 429.609C211.945 430.156 212.105 430.547 212.426 430.781C212.746 431.008 213.164 431.121 213.68 431.121C214.445 431.121 215.09 430.895 215.613 430.441C216.145 429.988 216.41 429.344 216.41 428.508V427.43ZM228.973 433.734C227.676 433.734 226.57 433.5 225.656 433.031C224.742 432.555 224.047 431.82 223.57 430.828C223.094 429.836 222.855 428.566 222.855 427.02C222.855 425.418 223.125 424.113 223.664 423.105C224.211 422.09 224.965 421.344 225.926 420.867C226.895 420.391 228.016 420.152 229.289 420.152C230.195 420.152 230.977 420.242 231.633 420.422C232.297 420.594 232.875 420.801 233.367 421.043L232.312 423.809C231.75 423.582 231.227 423.398 230.742 423.258C230.258 423.109 229.773 423.035 229.289 423.035C228.664 423.035 228.145 423.184 227.73 423.48C227.316 423.77 227.008 424.207 226.805 424.793C226.602 425.379 226.5 426.113 226.5 426.996C226.5 427.863 226.609 428.582 226.828 429.152C227.047 429.723 227.363 430.148 227.777 430.43C228.191 430.703 228.695 430.84 229.289 430.84C230.031 430.84 230.691 430.742 231.27 430.547C231.848 430.344 232.41 430.062 232.957 429.703V432.762C232.41 433.105 231.836 433.352 231.234 433.5C230.641 433.656 229.887 433.734 228.973 433.734ZM241.523 430.887C241.914 430.887 242.293 430.848 242.66 430.77C243.035 430.691 243.406 430.594 243.773 430.477V433.137C243.391 433.309 242.914 433.449 242.344 433.559C241.781 433.676 241.164 433.734 240.492 433.734C239.711 433.734 239.008 433.609 238.383 433.359C237.766 433.102 237.277 432.66 236.918 432.035C236.566 431.402 236.391 430.523 236.391 429.398V423.082H234.68V421.57L236.648 420.375L237.68 417.609H239.965V420.398H243.633V423.082H239.965V429.398C239.965 429.898 240.105 430.273 240.387 430.523C240.676 430.766 241.055 430.887 241.523 430.887ZM250.008 420.398V433.5H246.434V420.398H250.008ZM248.227 415.266C248.758 415.266 249.215 415.391 249.598 415.641C249.98 415.883 250.172 416.34 250.172 417.012C250.172 417.676 249.98 418.137 249.598 418.395C249.215 418.645 248.758 418.77 248.227 418.77C247.688 418.77 247.227 418.645 246.844 418.395C246.469 418.137 246.281 417.676 246.281 417.012C246.281 416.34 246.469 415.883 246.844 415.641C247.227 415.391 247.688 415.266 248.227 415.266ZM256.887 433.5L251.895 420.398H255.633L258.164 427.863C258.305 428.301 258.414 428.762 258.492 429.246C258.578 429.73 258.637 430.164 258.668 430.547H258.762C258.785 430.133 258.84 429.691 258.926 429.223C259.02 428.754 259.141 428.301 259.289 427.863L261.809 420.398H265.547L260.555 433.5H256.887ZM272.801 420.129C274.559 420.129 275.906 420.512 276.844 421.277C277.781 422.043 278.25 423.207 278.25 424.77V433.5H275.754L275.062 431.719H274.969C274.594 432.188 274.211 432.57 273.82 432.867C273.43 433.164 272.98 433.383 272.473 433.523C271.965 433.664 271.348 433.734 270.621 433.734C269.848 433.734 269.152 433.586 268.535 433.289C267.926 432.992 267.445 432.539 267.094 431.93C266.742 431.312 266.566 430.531 266.566 429.586C266.566 428.195 267.055 427.172 268.031 426.516C269.008 425.852 270.473 425.484 272.426 425.414L274.699 425.344V424.77C274.699 424.082 274.52 423.578 274.16 423.258C273.801 422.938 273.301 422.777 272.66 422.777C272.027 422.777 271.406 422.867 270.797 423.047C270.188 423.227 269.578 423.453 268.969 423.727L267.785 421.312C268.48 420.945 269.258 420.656 270.117 420.445C270.984 420.234 271.879 420.129 272.801 420.129ZM274.699 427.43L273.316 427.477C272.16 427.508 271.355 427.715 270.902 428.098C270.457 428.48 270.234 428.984 270.234 429.609C270.234 430.156 270.395 430.547 270.715 430.781C271.035 431.008 271.453 431.121 271.969 431.121C272.734 431.121 273.379 430.895 273.902 430.441C274.434 429.988 274.699 429.344 274.699 428.508V427.43ZM287.461 430.887C287.852 430.887 288.23 430.848 288.598 430.77C288.973 430.691 289.344 430.594 289.711 430.477V433.137C289.328 433.309 288.852 433.449 288.281 433.559C287.719 433.676 287.102 433.734 286.43 433.734C285.648 433.734 284.945 433.609 284.32 433.359C283.703 433.102 283.215 432.66 282.855 432.035C282.504 431.402 282.328 430.523 282.328 429.398V423.082H280.617V421.57L282.586 420.375L283.617 417.609H285.902V420.398H289.57V423.082H285.902V429.398C285.902 429.898 286.043 430.273 286.324 430.523C286.613 430.766 286.992 430.887 287.461 430.887ZM297.773 420.152C298.984 420.152 300.027 420.387 300.902 420.855C301.777 421.316 302.453 421.988 302.93 422.871C303.406 423.754 303.645 424.832 303.645 426.105V427.84H295.195C295.234 428.848 295.535 429.641 296.098 430.219C296.668 430.789 297.457 431.074 298.465 431.074C299.301 431.074 300.066 430.988 300.762 430.816C301.457 430.645 302.172 430.387 302.906 430.043V432.809C302.258 433.129 301.578 433.363 300.867 433.512C300.164 433.66 299.309 433.734 298.301 433.734C296.988 433.734 295.824 433.492 294.809 433.008C293.801 432.523 293.008 431.785 292.43 430.793C291.859 429.801 291.574 428.551 291.574 427.043C291.574 425.512 291.832 424.238 292.348 423.223C292.871 422.199 293.598 421.434 294.527 420.926C295.457 420.41 296.539 420.152 297.773 420.152ZM297.797 422.695C297.102 422.695 296.523 422.918 296.062 423.363C295.609 423.809 295.348 424.508 295.277 425.461H300.293C300.285 424.93 300.188 424.457 300 424.043C299.82 423.629 299.547 423.301 299.18 423.059C298.82 422.816 298.359 422.695 297.797 422.695Z" fill="white"/>
</g>
<defs>
<filter id="filter0_d_6193_30423" x="10" y="78" width="229" height="72" filterUnits="userSpaceOnUse" color-interpolation-filters="sRGB">
<feFlood flood-opacity="0" result="BackgroundImageFix"/>
<feColorMatrix in="SourceAlpha" type="matrix" values="0 0 0 0 0 0 0 0 0 0 0 0 0 0 0 0 0 0 127 0" result="hardAlpha"/>
<feOffset dy="2"/>
<feGaussianBlur stdDeviation="2"/>
<feComposite in2="hardAlpha" operator="out"/>
<feColorMatrix type="matrix" values="0 0 0 0 0 0 0 0 0 0 0 0 0 0 0 0 0 0 0.25 0"/>
<feBlend mode="normal" in2="BackgroundImageFix" result="effect1_dropShadow_6193_30423"/>
<feBlend mode="normal" in="SourceGraphic" in2="effect1_dropShadow_6193_30423" result="shape"/>
</filter>
<filter id="filter1_d_6193_30423" x="241" y="78" width="229" height="72" filterUnits="userSpaceOnUse" color-interpolation-filters="sRGB">
<feFlood flood-opacity="0" result="BackgroundImageFix"/>
<feColorMatrix in="SourceAlpha" type="matrix" values="0 0 0 0 0 0 0 0 0 0 0 0 0 0 0 0 0 0 127 0" result="hardAlpha"/>
<feOffset dy="2"/>
<feGaussianBlur stdDeviation="2"/>
<feComposite in2="hardAlpha" operator="out"/>
<feColorMatrix type="matrix" values="0 0 0 0 0 0 0 0 0 0 0 0 0 0 0 0 0 0 0.25 0"/>
<feBlend mode="normal" in2="BackgroundImageFix" result="effect1_dropShadow_6193_30423"/>
<feBlend mode="normal" in="SourceGraphic" in2="effect1_dropShadow_6193_30423" result="shape"/>
</filter>
<filter id="filter2_d_6193_30423" x="10" y="152" width="229" height="72" filterUnits="userSpaceOnUse" color-interpolation-filters="sRGB">
<feFlood flood-opacity="0" result="BackgroundImageFix"/>
<feColorMatrix in="SourceAlpha" type="matrix" values="0 0 0 0 0 0 0 0 0 0 0 0 0 0 0 0 0 0 127 0" result="hardAlpha"/>
<feOffset dy="2"/>
<feGaussianBlur stdDeviation="2"/>
<feComposite in2="hardAlpha" operator="out"/>
<feColorMatrix type="matrix" values="0 0 0 0 0 0 0 0 0 0 0 0 0 0 0 0 0 0 0.25 0"/>
<feBlend mode="normal" in2="BackgroundImageFix" result="effect1_dropShadow_6193_30423"/>
<feBlend mode="normal" in="SourceGraphic" in2="effect1_dropShadow_6193_30423" result="shape"/>
</filter>
<filter id="filter3_d_6193_30423" x="241" y="152" width="229" height="72" filterUnits="userSpaceOnUse" color-interpolation-filters="sRGB">
<feFlood flood-opacity="0" result="BackgroundImageFix"/>
<feColorMatrix in="SourceAlpha" type="matrix" values="0 0 0 0 0 0 0 0 0 0 0 0 0 0 0 0 0 0 127 0" result="hardAlpha"/>
<feOffset dy="2"/>
<feGaussianBlur stdDeviation="2"/>
<feComposite in2="hardAlpha" operator="out"/>
<feColorMatrix type="matrix" values="0 0 0 0 0 0 0 0 0 0 0 0 0 0 0 0 0 0 0.25 0"/>
<feBlend mode="normal" in2="BackgroundImageFix" result="effect1_dropShadow_6193_30423"/>
<feBlend mode="normal" in="SourceGraphic" in2="effect1_dropShadow_6193_30423" result="shape"/>
</filter>
<filter id="filter4_d_6193_30423" x="10" y="226" width="229" height="72" filterUnits="userSpaceOnUse" color-interpolation-filters="sRGB">
<feFlood flood-opacity="0" result="BackgroundImageFix"/>
<feColorMatrix in="SourceAlpha" type="matrix" values="0 0 0 0 0 0 0 0 0 0 0 0 0 0 0 0 0 0 127 0" result="hardAlpha"/>
<feOffset dy="2"/>
<feGaussianBlur stdDeviation="2"/>
<feComposite in2="hardAlpha" operator="out"/>
<feColorMatrix type="matrix" values="0 0 0 0 0 0 0 0 0 0 0 0 0 0 0 0 0 0 0.25 0"/>
<feBlend mode="normal" in2="BackgroundImageFix" result="effect1_dropShadow_6193_30423"/>
<feBlend mode="normal" in="SourceGraphic" in2="effect1_dropShadow_6193_30423" result="shape"/>
</filter>
<filter id="filter5_d_6193_30423" x="241" y="226" width="229" height="72" filterUnits="userSpaceOnUse" color-interpolation-filters="sRGB">
<feFlood flood-opacity="0" result="BackgroundImageFix"/>
<feColorMatrix in="SourceAlpha" type="matrix" values="0 0 0 0 0 0 0 0 0 0 0 0 0 0 0 0 0 0 127 0" result="hardAlpha"/>
<feOffset dy="2"/>
<feGaussianBlur stdDeviation="2"/>
<feComposite in2="hardAlpha" operator="out"/>
<feColorMatrix type="matrix" values="0 0 0 0 0 0 0 0 0 0 0 0 0 0 0 0 0 0 0.25 0"/>
<feBlend mode="normal" in2="BackgroundImageFix" result="effect1_dropShadow_6193_30423"/>
<feBlend mode="normal" in="SourceGraphic" in2="effect1_dropShadow_6193_30423" result="shape"/>
</filter>
<filter id="filter6_d_6193_30423" x="10" y="300" width="229" height="72" filterUnits="userSpaceOnUse" color-interpolation-filters="sRGB">
<feFlood flood-opacity="0" result="BackgroundImageFix"/>
<feColorMatrix in="SourceAlpha" type="matrix" values="0 0 0 0 0 0 0 0 0 0 0 0 0 0 0 0 0 0 127 0" result="hardAlpha"/>
<feOffset dy="2"/>
<feGaussianBlur stdDeviation="2"/>
<feComposite in2="hardAlpha" operator="out"/>
<feColorMatrix type="matrix" values="0 0 0 0 0 0 0 0 0 0 0 0 0 0 0 0 0 0 0.25 0"/>
<feBlend mode="normal" in2="BackgroundImageFix" result="effect1_dropShadow_6193_30423"/>
<feBlend mode="normal" in="SourceGraphic" in2="effect1_dropShadow_6193_30423" result="shape"/>
</filter>
<filter id="filter7_d_6193_30423" x="241" y="300" width="229" height="72" filterUnits="userSpaceOnUse" color-interpolation-filters="sRGB">
<feFlood flood-opacity="0" result="BackgroundImageFix"/>
<feColorMatrix in="SourceAlpha" type="matrix" values="0 0 0 0 0 0 0 0 0 0 0 0 0 0 0 0 0 0 127 0" result="hardAlpha"/>
<feOffset dy="2"/>
<feGaussianBlur stdDeviation="2"/>
<feComposite in2="hardAlpha" operator="out"/>
<feColorMatrix type="matrix" values="0 0 0 0 0 0 0 0 0 0 0 0 0 0 0 0 0 0 0.25 0"/>
<feBlend mode="normal" in2="BackgroundImageFix" result="effect1_dropShadow_6193_30423"/>
<feBlend mode="normal" in="SourceGraphic" in2="effect1_dropShadow_6193_30423" result="shape"/>
</filter>
<filter id="filter8_d_6193_30423" x="12" y="382" width="456" height="88" filterUnits="userSpaceOnUse" color-interpolation-filters="sRGB">
<feFlood flood-opacity="0" result="BackgroundImageFix"/>
<feColorMatrix in="SourceAlpha" type="matrix" values="0 0 0 0 0 0 0 0 0 0 0 0 0 0 0 0 0 0 127 0" result="hardAlpha"/>
<feOffset dy="2"/>
<feGaussianBlur stdDeviation="2"/>
<feComposite in2="hardAlpha" operator="out"/>
<feColorMatrix type="matrix" values="0 0 0 0 0 0 0 0 0 0 0 0 0 0 0 0 0 0 0.25 0"/>
<feBlend mode="normal" in2="BackgroundImageFix" result="effect1_dropShadow_6193_30423"/>
<feBlend mode="normal" in="SourceGraphic" in2="effect1_dropShadow_6193_30423" result="shape"/>
</filter>
</defs>
</svg>
