<svg width="480" height="480" viewBox="0 0 480 480" fill="none" xmlns="http://www.w3.org/2000/svg">
<rect width="480" height="480" fill="#F6F6F6"/>
<mask id="path-1-inside-1_3980_47693" fill="white">
<path d="M0 0H480V64H0V0Z"/>
</mask>
<path d="M0 0H480V64H0V0Z" fill="white"/>
<path d="M480 64V63H0V64V65H480V64Z" fill="#D1D1D1" mask="url(#path-1-inside-1_3980_47693)"/>
<path d="M210.363 36.0352C210.363 36.8815 210.158 37.6172 209.748 38.2422C209.338 38.8672 208.739 39.349 207.951 39.6875C207.17 40.026 206.219 40.1953 205.1 40.1953C204.605 40.1953 204.12 40.1628 203.645 40.0977C203.176 40.0326 202.723 39.9382 202.287 39.8145C201.857 39.6842 201.447 39.5247 201.057 39.3359V36.5234C201.734 36.8229 202.437 37.0931 203.166 37.334C203.895 37.5749 204.618 37.6953 205.334 37.6953C205.829 37.6953 206.226 37.6302 206.525 37.5C206.831 37.3698 207.053 37.1908 207.189 36.9629C207.326 36.735 207.395 36.4746 207.395 36.1816C207.395 35.8236 207.274 35.5176 207.033 35.2637C206.792 35.0098 206.46 34.7721 206.037 34.5508C205.62 34.3294 205.148 34.0918 204.621 33.8379C204.289 33.6816 203.928 33.4928 203.537 33.2715C203.146 33.0436 202.775 32.7669 202.424 32.4414C202.072 32.1159 201.783 31.722 201.555 31.2598C201.333 30.791 201.223 30.2311 201.223 29.5801C201.223 28.7272 201.418 27.998 201.809 27.3926C202.199 26.7871 202.756 26.3249 203.479 26.0059C204.208 25.6803 205.067 25.5176 206.057 25.5176C206.799 25.5176 207.505 25.6055 208.176 25.7812C208.853 25.9505 209.559 26.1979 210.295 26.5234L209.318 28.877C208.661 28.61 208.072 28.4049 207.551 28.2617C207.03 28.112 206.499 28.0371 205.959 28.0371C205.581 28.0371 205.259 28.099 204.992 28.2227C204.725 28.3398 204.523 28.5091 204.387 28.7305C204.25 28.9453 204.182 29.196 204.182 29.4824C204.182 29.821 204.279 30.1074 204.475 30.3418C204.676 30.5697 204.976 30.791 205.373 31.0059C205.777 31.2207 206.278 31.4714 206.877 31.7578C207.606 32.1029 208.228 32.4642 208.742 32.8418C209.263 33.2129 209.663 33.6523 209.943 34.1602C210.223 34.6615 210.363 35.2865 210.363 36.0352ZM217.219 28.877C218.228 28.877 219.097 29.0723 219.826 29.4629C220.555 29.847 221.118 30.4069 221.516 31.1426C221.913 31.8783 222.111 32.7767 222.111 33.8379V35.2832H215.07C215.103 36.123 215.354 36.7839 215.822 37.2656C216.298 37.7409 216.955 37.9785 217.795 37.9785C218.492 37.9785 219.13 37.9069 219.709 37.7637C220.288 37.6204 220.884 37.4056 221.496 37.1191V39.4238C220.956 39.6908 220.389 39.8861 219.797 40.0098C219.211 40.1335 218.498 40.1953 217.658 40.1953C216.564 40.1953 215.594 39.9935 214.748 39.5898C213.908 39.1862 213.247 38.571 212.766 37.7441C212.29 36.9173 212.053 35.8757 212.053 34.6191C212.053 33.3431 212.268 32.2819 212.697 31.4355C213.133 30.5827 213.739 29.9447 214.514 29.5215C215.288 29.0918 216.19 28.877 217.219 28.877ZM217.238 30.9961C216.659 30.9961 216.177 31.1816 215.793 31.5527C215.415 31.9238 215.197 32.5065 215.139 33.3008H219.318C219.312 32.8581 219.23 32.4642 219.074 32.1191C218.924 31.7741 218.697 31.5007 218.391 31.2988C218.091 31.097 217.707 30.9961 217.238 30.9961ZM229.133 37.8223C229.458 37.8223 229.774 37.7897 230.08 37.7246C230.393 37.6595 230.702 37.5781 231.008 37.4805V39.6973C230.689 39.8405 230.292 39.9577 229.816 40.0488C229.348 40.1465 228.833 40.1953 228.273 40.1953C227.622 40.1953 227.036 40.0911 226.516 39.8828C226.001 39.668 225.594 39.3001 225.295 38.7793C225.002 38.252 224.855 37.5195 224.855 36.582V31.3184H223.43V30.0586L225.07 29.0625L225.93 26.7578H227.834V29.082H230.891V31.3184H227.834V36.582C227.834 36.9987 227.951 37.3112 228.186 37.5195C228.426 37.7214 228.742 37.8223 229.133 37.8223ZM237.824 37.8223C238.15 37.8223 238.465 37.7897 238.771 37.7246C239.084 37.6595 239.393 37.5781 239.699 37.4805V39.6973C239.38 39.8405 238.983 39.9577 238.508 40.0488C238.039 40.1465 237.525 40.1953 236.965 40.1953C236.314 40.1953 235.728 40.0911 235.207 39.8828C234.693 39.668 234.286 39.3001 233.986 38.7793C233.693 38.252 233.547 37.5195 233.547 36.582V31.3184H232.121V30.0586L233.762 29.0625L234.621 26.7578H236.525V29.082H239.582V31.3184H236.525V36.582C236.525 36.9987 236.643 37.3112 236.877 37.5195C237.118 37.7214 237.434 37.8223 237.824 37.8223ZM244.895 29.082V40H241.916V29.082H244.895ZM243.41 24.8047C243.853 24.8047 244.234 24.9089 244.553 25.1172C244.872 25.319 245.031 25.6999 245.031 26.2598C245.031 26.8132 244.872 27.1973 244.553 27.4121C244.234 27.6204 243.853 27.7246 243.41 27.7246C242.961 27.7246 242.577 27.6204 242.258 27.4121C241.945 27.1973 241.789 26.8132 241.789 26.2598C241.789 25.6999 241.945 25.319 242.258 25.1172C242.577 24.9089 242.961 24.8047 243.41 24.8047ZM254.23 28.877C255.396 28.877 256.333 29.196 257.043 29.834C257.753 30.4655 258.107 31.4811 258.107 32.8809V40H255.129V33.623C255.129 32.8418 254.986 32.2526 254.699 31.8555C254.419 31.4583 253.977 31.2598 253.371 31.2598C252.46 31.2598 251.838 31.569 251.506 32.1875C251.174 32.806 251.008 33.6979 251.008 34.8633V40H248.029V29.082H250.305L250.705 30.4785H250.871C251.105 30.1009 251.395 29.7949 251.74 29.5605C252.092 29.3262 252.479 29.1536 252.902 29.043C253.332 28.9323 253.775 28.877 254.23 28.877ZM264.367 44.8047C262.844 44.8047 261.678 44.5378 260.871 44.0039C260.07 43.4766 259.67 42.7344 259.67 41.7773C259.67 41.1198 259.875 40.5697 260.285 40.127C260.695 39.6842 261.298 39.3685 262.092 39.1797C261.786 39.0495 261.519 38.8379 261.291 38.5449C261.063 38.2454 260.949 37.9297 260.949 37.5977C260.949 37.181 261.07 36.8359 261.311 36.5625C261.551 36.2826 261.9 36.0091 262.355 35.7422C261.783 35.4948 261.327 35.0977 260.988 34.5508C260.656 34.0039 260.49 33.3594 260.49 32.6172C260.49 31.8229 260.663 31.1491 261.008 30.5957C261.359 30.0358 261.867 29.6094 262.531 29.3164C263.202 29.0234 264.016 28.877 264.973 28.877C265.174 28.877 265.409 28.89 265.676 28.916C265.943 28.9421 266.187 28.9714 266.408 29.0039C266.636 29.0365 266.789 29.0625 266.867 29.082H270.676V30.5957L268.967 31.0352C269.123 31.276 269.24 31.5332 269.318 31.8066C269.396 32.0801 269.436 32.3698 269.436 32.6758C269.436 33.8477 269.025 34.7624 268.205 35.4199C267.391 36.071 266.258 36.3965 264.807 36.3965C264.462 36.377 264.136 36.3509 263.83 36.3184C263.68 36.4355 263.566 36.5592 263.488 36.6895C263.41 36.8197 263.371 36.9564 263.371 37.0996C263.371 37.2428 263.43 37.3633 263.547 37.4609C263.671 37.5521 263.853 37.6237 264.094 37.6758C264.341 37.7214 264.647 37.7441 265.012 37.7441H266.867C268.065 37.7441 268.977 38.0013 269.602 38.5156C270.233 39.0299 270.549 39.7852 270.549 40.7812C270.549 42.0573 270.015 43.0469 268.947 43.75C267.886 44.4531 266.359 44.8047 264.367 44.8047ZM264.494 42.8613C265.204 42.8613 265.812 42.793 266.32 42.6562C266.835 42.526 267.229 42.3372 267.502 42.0898C267.775 41.849 267.912 41.5592 267.912 41.2207C267.912 40.9473 267.831 40.7292 267.668 40.5664C267.512 40.4102 267.271 40.2995 266.945 40.2344C266.626 40.1693 266.216 40.1367 265.715 40.1367H264.172C263.807 40.1367 263.479 40.1953 263.186 40.3125C262.899 40.4297 262.671 40.5924 262.502 40.8008C262.333 41.0156 262.248 41.263 262.248 41.543C262.248 41.9531 262.443 42.2754 262.834 42.5098C263.231 42.7441 263.785 42.8613 264.494 42.8613ZM264.973 34.5801C265.533 34.5801 265.943 34.4076 266.203 34.0625C266.464 33.7174 266.594 33.2487 266.594 32.6562C266.594 31.9987 266.457 31.5072 266.184 31.1816C265.917 30.8496 265.513 30.6836 264.973 30.6836C264.426 30.6836 264.016 30.8496 263.742 31.1816C263.469 31.5072 263.332 31.9987 263.332 32.6562C263.332 33.2487 263.465 33.7174 263.732 34.0625C264.006 34.4076 264.419 34.5801 264.973 34.5801ZM280.1 36.7578C280.1 37.5 279.924 38.1283 279.572 38.6426C279.227 39.1504 278.71 39.5378 278.02 39.8047C277.329 40.0651 276.47 40.1953 275.441 40.1953C274.68 40.1953 274.025 40.1465 273.479 40.0488C272.938 39.9512 272.391 39.7884 271.838 39.5605V37.0996C272.43 37.3665 273.065 37.5879 273.742 37.7637C274.426 37.9329 275.025 38.0176 275.539 38.0176C276.118 38.0176 276.532 37.9329 276.779 37.7637C277.033 37.5879 277.16 37.36 277.16 37.0801C277.16 36.8978 277.108 36.735 277.004 36.5918C276.906 36.4421 276.691 36.276 276.359 36.0938C276.027 35.9049 275.507 35.6608 274.797 35.3613C274.113 35.0749 273.55 34.7852 273.107 34.4922C272.671 34.1992 272.346 33.8542 272.131 33.457C271.923 33.0534 271.818 32.5423 271.818 31.9238C271.818 30.9147 272.209 30.1562 272.99 29.6484C273.778 29.1341 274.829 28.877 276.145 28.877C276.822 28.877 277.466 28.9453 278.078 29.082C278.697 29.2188 279.331 29.4368 279.982 29.7363L279.084 31.8848C278.544 31.6504 278.033 31.4583 277.551 31.3086C277.076 31.1589 276.59 31.084 276.096 31.084C275.66 31.084 275.331 31.1426 275.109 31.2598C274.888 31.377 274.777 31.556 274.777 31.7969C274.777 31.9727 274.833 32.1289 274.943 32.2656C275.061 32.4023 275.282 32.5553 275.607 32.7246C275.939 32.8874 276.424 33.099 277.062 33.3594C277.681 33.6133 278.218 33.8802 278.674 34.1602C279.13 34.4336 279.481 34.7754 279.729 35.1855C279.976 35.5892 280.1 36.1133 280.1 36.7578Z" fill="#31344E"/>
<path d="M459.29 24.0987C460.227 23.1616 460.227 21.6399 459.29 20.7028C458.353 19.7657 456.831 19.7657 455.894 20.7028L448 28.6041L440.099 20.7103C439.162 19.7732 437.64 19.7732 436.703 20.7103C435.766 21.6474 435.766 23.1691 436.703 24.1062L444.604 32L436.71 39.9013C435.773 40.8384 435.773 42.3601 436.71 43.2972C437.647 44.2343 439.169 44.2343 440.106 43.2972L448 35.3959L455.901 43.2897C456.838 44.2268 458.36 44.2268 459.297 43.2897C460.234 42.3526 460.234 40.8309 459.297 39.8938L451.396 32L459.29 24.0987Z" fill="#1A1040"/>
<path d="M36 15.8496C44.8828 15.8496 52.1504 23.1172 52.1504 32C52.1504 40.8828 44.8828 48.1504 36 48.1504C27.1172 48.1504 19.8496 40.8828 19.8496 32C19.8496 23.1172 27.1172 15.8496 36 15.8496ZM36 19.1504C28.8828 19.1504 23.1504 24.8828 23.1504 32C23.1504 39.1172 28.8828 44.8496 36 44.8496C43.1172 44.8496 48.8496 39.1172 48.8496 32C48.8496 24.8828 43.1172 19.1504 36 19.1504Z" fill="#1A1040" stroke="#1A1040" stroke-width="0.3"/>
<path d="M36 23.8496C37.1874 23.8496 38.1504 24.8126 38.1504 26C38.1504 27.1874 37.1874 28.1504 36 28.1504C34.8126 28.1504 33.8496 27.1874 33.8496 26C33.8496 24.8126 34.8126 23.8496 36 23.8496Z" fill="#1A1040" stroke="#1A1040" stroke-width="0.3"/>
<path d="M36 29.8496C37.1828 29.8496 38.1504 30.8172 38.1504 32V38C38.1504 39.1828 37.1828 40.1504 36 40.1504C34.8172 40.1504 33.8496 39.1828 33.8496 38V32C33.8496 30.8172 34.8172 29.8496 36 29.8496Z" fill="#1A1040" stroke="#1A1040" stroke-width="0.3"/>
<g filter="url(#filter0_d_3980_47693)">
<rect x="14" y="80" width="448" height="64" rx="10" fill="white" shape-rendering="crispEdges"/>
<rect x="14.5" y="80.5" width="447" height="63" rx="9.5" stroke="#D9D9D9" shape-rendering="crispEdges"/>
<path d="M31.875 105.723H36.123C37.9655 105.723 39.3555 105.99 40.293 106.523C41.2305 107.057 41.6992 107.979 41.6992 109.287C41.6992 109.834 41.6016 110.329 41.4062 110.771C41.2174 111.208 40.9408 111.569 40.5762 111.855C40.2116 112.135 39.7624 112.324 39.2285 112.422V112.52C39.7819 112.617 40.2734 112.79 40.7031 113.037C41.1393 113.285 41.4811 113.639 41.7285 114.102C41.9824 114.564 42.1094 115.163 42.1094 115.898C42.1094 116.771 41.901 117.513 41.4844 118.125C41.0742 118.737 40.485 119.202 39.7168 119.521C38.9551 119.84 38.0501 120 37.002 120H31.875V105.723ZM34.2188 111.611H36.4648C37.526 111.611 38.2617 111.439 38.6719 111.094C39.082 110.749 39.2871 110.244 39.2871 109.58C39.2871 108.903 39.043 108.415 38.5547 108.115C38.0729 107.816 37.3047 107.666 36.25 107.666H34.2188V111.611ZM34.2188 113.506V118.037H36.6895C37.7832 118.037 38.5514 117.826 38.9941 117.402C39.4368 116.979 39.6582 116.406 39.6582 115.684C39.6582 115.241 39.5573 114.857 39.3555 114.531C39.1602 114.206 38.8379 113.955 38.3887 113.779C37.9395 113.597 37.334 113.506 36.5723 113.506H34.2188ZM49.1309 108.984C50.0944 108.984 50.9212 109.183 51.6113 109.58C52.3014 109.977 52.832 110.54 53.2031 111.27C53.5742 111.999 53.7598 112.871 53.7598 113.887V115.117H46.543C46.569 116.165 46.849 116.973 47.3828 117.539C47.9232 118.105 48.6784 118.389 49.6484 118.389C50.3385 118.389 50.957 118.324 51.5039 118.193C52.0573 118.057 52.627 117.858 53.2129 117.598V119.463C52.6725 119.717 52.1224 119.902 51.5625 120.02C51.0026 120.137 50.332 120.195 49.5508 120.195C48.4896 120.195 47.5553 119.99 46.748 119.58C45.9473 119.163 45.319 118.545 44.8633 117.725C44.4141 116.904 44.1895 115.885 44.1895 114.668C44.1895 113.457 44.3945 112.428 44.8047 111.582C45.2148 110.736 45.791 110.091 46.5332 109.648C47.2754 109.206 48.1413 108.984 49.1309 108.984ZM49.1309 110.713C48.4082 110.713 47.8223 110.947 47.373 111.416C46.9303 111.885 46.6699 112.572 46.5918 113.477H51.5137C51.5072 112.936 51.416 112.458 51.2402 112.041C51.071 111.624 50.8105 111.299 50.459 111.064C50.1139 110.83 49.6712 110.713 49.1309 110.713ZM59.9805 120.195C58.6914 120.195 57.6562 119.727 56.875 118.789C56.1003 117.845 55.7129 116.455 55.7129 114.619C55.7129 112.764 56.1068 111.361 56.8945 110.41C57.6888 109.46 58.7337 108.984 60.0293 108.984C60.5762 108.984 61.0547 109.059 61.4648 109.209C61.875 109.352 62.2266 109.548 62.5195 109.795C62.819 110.042 63.0729 110.319 63.2812 110.625H63.3887C63.3561 110.423 63.3171 110.133 63.2715 109.756C63.2324 109.372 63.2129 109.017 63.2129 108.691V104.805H65.5176V120H63.7207L63.3105 118.525H63.2129C63.0176 118.838 62.7702 119.121 62.4707 119.375C62.1777 119.622 61.8262 119.821 61.416 119.971C61.0124 120.12 60.5339 120.195 59.9805 120.195ZM60.625 118.33C61.6081 118.33 62.3014 118.047 62.7051 117.48C63.1087 116.914 63.3171 116.064 63.3301 114.932V114.629C63.3301 113.418 63.1348 112.49 62.7441 111.846C62.3535 111.195 61.6406 110.869 60.6055 110.869C59.7786 110.869 59.1471 111.204 58.7109 111.875C58.2812 112.539 58.0664 113.467 58.0664 114.658C58.0664 115.85 58.2812 116.761 58.7109 117.393C59.1471 118.018 59.7852 118.33 60.625 118.33ZM80.4004 120L76.2891 108.076H76.2012C76.2207 108.343 76.2435 108.708 76.2695 109.17C76.2956 109.632 76.3184 110.127 76.3379 110.654C76.3574 111.182 76.3672 111.686 76.3672 112.168V120H74.2383V105.723H77.5293L81.4844 117.119H81.543L85.6348 105.723H88.916V120H86.6797V112.051C86.6797 111.615 86.6862 111.143 86.6992 110.635C86.7188 110.127 86.7383 109.645 86.7578 109.189C86.7839 108.734 86.8034 108.369 86.8164 108.096H86.7383L82.4707 120H80.4004ZM102.012 114.57C102.012 115.469 101.895 116.266 101.66 116.963C101.426 117.66 101.084 118.249 100.635 118.73C100.186 119.206 99.6452 119.57 99.0137 119.824C98.3822 120.072 97.6693 120.195 96.875 120.195C96.1328 120.195 95.4525 120.072 94.834 119.824C94.2155 119.57 93.6784 119.206 93.2227 118.73C92.7734 118.249 92.4251 117.66 92.1777 116.963C91.9303 116.266 91.8066 115.469 91.8066 114.57C91.8066 113.379 92.0117 112.37 92.4219 111.543C92.8385 110.71 93.431 110.075 94.1992 109.639C94.9674 109.202 95.8822 108.984 96.9434 108.984C97.9395 108.984 98.8184 109.202 99.5801 109.639C100.342 110.075 100.938 110.71 101.367 111.543C101.797 112.376 102.012 113.385 102.012 114.57ZM94.1699 114.57C94.1699 115.358 94.2643 116.032 94.4531 116.592C94.6484 117.152 94.9479 117.581 95.3516 117.881C95.7552 118.174 96.276 118.32 96.9141 118.32C97.5521 118.32 98.0729 118.174 98.4766 117.881C98.8802 117.581 99.1764 117.152 99.3652 116.592C99.554 116.032 99.6484 115.358 99.6484 114.57C99.6484 113.783 99.554 113.115 99.3652 112.568C99.1764 112.015 98.8802 111.595 98.4766 111.309C98.0729 111.016 97.5488 110.869 96.9043 110.869C95.9538 110.869 95.2604 111.188 94.8242 111.826C94.388 112.464 94.1699 113.379 94.1699 114.57ZM108.281 120.195C106.992 120.195 105.957 119.727 105.176 118.789C104.401 117.845 104.014 116.455 104.014 114.619C104.014 112.764 104.408 111.361 105.195 110.41C105.99 109.46 107.035 108.984 108.33 108.984C108.877 108.984 109.355 109.059 109.766 109.209C110.176 109.352 110.527 109.548 110.82 109.795C111.12 110.042 111.374 110.319 111.582 110.625H111.689C111.657 110.423 111.618 110.133 111.572 109.756C111.533 109.372 111.514 109.017 111.514 108.691V104.805H113.818V120H112.021L111.611 118.525H111.514C111.318 118.838 111.071 119.121 110.771 119.375C110.479 119.622 110.127 119.821 109.717 119.971C109.313 120.12 108.835 120.195 108.281 120.195ZM108.926 118.33C109.909 118.33 110.602 118.047 111.006 117.48C111.41 116.914 111.618 116.064 111.631 114.932V114.629C111.631 113.418 111.436 112.49 111.045 111.846C110.654 111.195 109.941 110.869 108.906 110.869C108.079 110.869 107.448 111.204 107.012 111.875C106.582 112.539 106.367 113.467 106.367 114.658C106.367 115.85 106.582 116.761 107.012 117.393C107.448 118.018 108.086 118.33 108.926 118.33ZM121.416 108.984C122.38 108.984 123.206 109.183 123.896 109.58C124.587 109.977 125.117 110.54 125.488 111.27C125.859 111.999 126.045 112.871 126.045 113.887V115.117H118.828C118.854 116.165 119.134 116.973 119.668 117.539C120.208 118.105 120.964 118.389 121.934 118.389C122.624 118.389 123.242 118.324 123.789 118.193C124.342 118.057 124.912 117.858 125.498 117.598V119.463C124.958 119.717 124.408 119.902 123.848 120.02C123.288 120.137 122.617 120.195 121.836 120.195C120.775 120.195 119.84 119.99 119.033 119.58C118.232 119.163 117.604 118.545 117.148 117.725C116.699 116.904 116.475 115.885 116.475 114.668C116.475 113.457 116.68 112.428 117.09 111.582C117.5 110.736 118.076 110.091 118.818 109.648C119.561 109.206 120.426 108.984 121.416 108.984ZM121.416 110.713C120.693 110.713 120.107 110.947 119.658 111.416C119.215 111.885 118.955 112.572 118.877 113.477H123.799C123.792 112.936 123.701 112.458 123.525 112.041C123.356 111.624 123.096 111.299 122.744 111.064C122.399 110.83 121.956 110.713 121.416 110.713ZM142.305 116.113C142.305 116.96 142.096 117.689 141.68 118.301C141.27 118.913 140.677 119.382 139.902 119.707C139.134 120.033 138.216 120.195 137.148 120.195C136.628 120.195 136.13 120.166 135.654 120.107C135.179 120.049 134.73 119.964 134.307 119.854C133.89 119.736 133.509 119.596 133.164 119.434V117.227C133.743 117.48 134.391 117.712 135.107 117.92C135.824 118.122 136.553 118.223 137.295 118.223C137.9 118.223 138.402 118.145 138.799 117.988C139.202 117.826 139.502 117.598 139.697 117.305C139.893 117.005 139.99 116.657 139.99 116.26C139.99 115.837 139.876 115.479 139.648 115.186C139.421 114.893 139.076 114.626 138.613 114.385C138.158 114.137 137.585 113.874 136.895 113.594C136.426 113.405 135.977 113.19 135.547 112.949C135.124 112.708 134.746 112.425 134.414 112.1C134.082 111.774 133.818 111.39 133.623 110.947C133.434 110.498 133.34 109.971 133.34 109.365C133.34 108.558 133.532 107.868 133.916 107.295C134.307 106.722 134.854 106.283 135.557 105.977C136.266 105.671 137.093 105.518 138.037 105.518C138.786 105.518 139.489 105.596 140.146 105.752C140.811 105.908 141.462 106.13 142.1 106.416L141.357 108.301C140.771 108.06 140.202 107.868 139.648 107.725C139.102 107.581 138.542 107.51 137.969 107.51C137.474 107.51 137.054 107.585 136.709 107.734C136.364 107.884 136.1 108.096 135.918 108.369C135.742 108.636 135.654 108.955 135.654 109.326C135.654 109.743 135.755 110.094 135.957 110.381C136.165 110.661 136.484 110.918 136.914 111.152C137.35 111.387 137.91 111.647 138.594 111.934C139.382 112.259 140.049 112.601 140.596 112.959C141.149 113.317 141.572 113.747 141.865 114.248C142.158 114.743 142.305 115.365 142.305 116.113ZM149.131 108.984C150.094 108.984 150.921 109.183 151.611 109.58C152.301 109.977 152.832 110.54 153.203 111.27C153.574 111.999 153.76 112.871 153.76 113.887V115.117H146.543C146.569 116.165 146.849 116.973 147.383 117.539C147.923 118.105 148.678 118.389 149.648 118.389C150.339 118.389 150.957 118.324 151.504 118.193C152.057 118.057 152.627 117.858 153.213 117.598V119.463C152.673 119.717 152.122 119.902 151.562 120.02C151.003 120.137 150.332 120.195 149.551 120.195C148.49 120.195 147.555 119.99 146.748 119.58C145.947 119.163 145.319 118.545 144.863 117.725C144.414 116.904 144.189 115.885 144.189 114.668C144.189 113.457 144.395 112.428 144.805 111.582C145.215 110.736 145.791 110.091 146.533 109.648C147.275 109.206 148.141 108.984 149.131 108.984ZM149.131 110.713C148.408 110.713 147.822 110.947 147.373 111.416C146.93 111.885 146.67 112.572 146.592 113.477H151.514C151.507 112.936 151.416 112.458 151.24 112.041C151.071 111.624 150.811 111.299 150.459 111.064C150.114 110.83 149.671 110.713 149.131 110.713ZM161.982 108.984C163.2 108.984 164.147 109.3 164.824 109.932C165.508 110.557 165.85 111.562 165.85 112.949V120H163.555V113.379C163.555 112.539 163.382 111.911 163.037 111.494C162.692 111.071 162.158 110.859 161.436 110.859C160.387 110.859 159.658 111.182 159.248 111.826C158.844 112.471 158.643 113.405 158.643 114.629V120H156.348V109.189H158.135L158.457 110.654H158.584C158.818 110.277 159.108 109.967 159.453 109.727C159.805 109.479 160.195 109.294 160.625 109.17C161.061 109.046 161.514 108.984 161.982 108.984ZM176.328 116.914C176.328 117.624 176.156 118.223 175.811 118.711C175.465 119.199 174.961 119.57 174.297 119.824C173.639 120.072 172.832 120.195 171.875 120.195C171.12 120.195 170.469 120.14 169.922 120.029C169.382 119.925 168.87 119.762 168.389 119.541V117.559C168.903 117.799 169.479 118.008 170.117 118.184C170.762 118.359 171.37 118.447 171.943 118.447C172.699 118.447 173.242 118.33 173.574 118.096C173.906 117.855 174.072 117.536 174.072 117.139C174.072 116.904 174.004 116.696 173.867 116.514C173.737 116.325 173.49 116.133 173.125 115.938C172.767 115.736 172.24 115.495 171.543 115.215C170.859 114.941 170.283 114.668 169.814 114.395C169.346 114.121 168.991 113.792 168.75 113.408C168.509 113.018 168.389 112.52 168.389 111.914C168.389 110.957 168.766 110.231 169.521 109.736C170.283 109.235 171.289 108.984 172.539 108.984C173.203 108.984 173.828 109.053 174.414 109.189C175.007 109.32 175.586 109.512 176.152 109.766L175.43 111.494C174.941 111.279 174.45 111.104 173.955 110.967C173.467 110.824 172.969 110.752 172.461 110.752C171.868 110.752 171.416 110.843 171.104 111.025C170.798 111.208 170.645 111.468 170.645 111.807C170.645 112.061 170.719 112.275 170.869 112.451C171.019 112.627 171.276 112.803 171.641 112.979C172.012 113.154 172.526 113.372 173.184 113.633C173.828 113.88 174.385 114.141 174.854 114.414C175.329 114.681 175.693 115.01 175.947 115.4C176.201 115.791 176.328 116.296 176.328 116.914ZM181.104 109.189V120H178.809V109.189H181.104ZM179.971 105.049C180.322 105.049 180.625 105.143 180.879 105.332C181.139 105.521 181.27 105.846 181.27 106.309C181.27 106.764 181.139 107.09 180.879 107.285C180.625 107.474 180.322 107.568 179.971 107.568C179.606 107.568 179.297 107.474 179.043 107.285C178.796 107.09 178.672 106.764 178.672 106.309C178.672 105.846 178.796 105.521 179.043 105.332C179.297 105.143 179.606 105.049 179.971 105.049ZM188.418 118.34C188.717 118.34 189.014 118.314 189.307 118.262C189.6 118.203 189.867 118.135 190.107 118.057V119.795C189.854 119.906 189.525 120 189.121 120.078C188.717 120.156 188.298 120.195 187.861 120.195C187.249 120.195 186.699 120.094 186.211 119.893C185.723 119.684 185.335 119.329 185.049 118.828C184.762 118.327 184.619 117.633 184.619 116.748V110.938H183.145V109.912L184.727 109.102L185.479 106.787H186.924V109.189H190.02V110.938H186.924V116.719C186.924 117.266 187.061 117.673 187.334 117.939C187.607 118.206 187.969 118.34 188.418 118.34ZM194.6 109.189V120H192.305V109.189H194.6ZM193.467 105.049C193.818 105.049 194.121 105.143 194.375 105.332C194.635 105.521 194.766 105.846 194.766 106.309C194.766 106.764 194.635 107.09 194.375 107.285C194.121 107.474 193.818 107.568 193.467 107.568C193.102 107.568 192.793 107.474 192.539 107.285C192.292 107.09 192.168 106.764 192.168 106.309C192.168 105.846 192.292 105.521 192.539 105.332C192.793 105.143 193.102 105.049 193.467 105.049ZM200.361 120L196.25 109.189H198.682L200.908 115.537C201.051 115.941 201.182 116.377 201.299 116.846C201.416 117.314 201.497 117.708 201.543 118.027H201.621C201.667 117.695 201.755 117.298 201.885 116.836C202.015 116.367 202.148 115.934 202.285 115.537L204.512 109.189H206.934L202.822 120H200.361ZM210.869 109.189V120H208.574V109.189H210.869ZM209.736 105.049C210.088 105.049 210.391 105.143 210.645 105.332C210.905 105.521 211.035 105.846 211.035 106.309C211.035 106.764 210.905 107.09 210.645 107.285C210.391 107.474 210.088 107.568 209.736 107.568C209.372 107.568 209.062 107.474 208.809 107.285C208.561 107.09 208.438 106.764 208.438 106.309C208.438 105.846 208.561 105.521 208.809 105.332C209.062 105.143 209.372 105.049 209.736 105.049ZM218.184 118.34C218.483 118.34 218.779 118.314 219.072 118.262C219.365 118.203 219.632 118.135 219.873 118.057V119.795C219.619 119.906 219.29 120 218.887 120.078C218.483 120.156 218.063 120.195 217.627 120.195C217.015 120.195 216.465 120.094 215.977 119.893C215.488 119.684 215.101 119.329 214.814 118.828C214.528 118.327 214.385 117.633 214.385 116.748V110.938H212.91V109.912L214.492 109.102L215.244 106.787H216.689V109.189H219.785V110.938H216.689V116.719C216.689 117.266 216.826 117.673 217.1 117.939C217.373 118.206 217.734 118.34 218.184 118.34ZM220.439 109.189H222.939L225.156 115.361C225.254 115.641 225.342 115.918 225.42 116.191C225.505 116.458 225.576 116.722 225.635 116.982C225.7 117.243 225.752 117.503 225.791 117.764H225.85C225.915 117.425 226.006 117.048 226.123 116.631C226.247 116.208 226.383 115.785 226.533 115.361L228.662 109.189H231.133L226.494 121.484C226.227 122.188 225.898 122.786 225.508 123.281C225.124 123.783 224.668 124.16 224.141 124.414C223.613 124.674 223.011 124.805 222.334 124.805C222.008 124.805 221.725 124.785 221.484 124.746C221.243 124.714 221.038 124.678 220.869 124.639V122.803C221.006 122.835 221.178 122.865 221.387 122.891C221.595 122.917 221.81 122.93 222.031 122.93C222.441 122.93 222.796 122.848 223.096 122.686C223.395 122.523 223.649 122.292 223.857 121.992C224.066 121.699 224.238 121.364 224.375 120.986L224.756 119.971L220.439 109.189Z" fill="#31344E"/>
<path d="M445.617 111.059C446.128 111.579 446.128 112.425 445.617 112.945L439.088 119.61C438.578 120.13 437.75 120.13 437.24 119.61C436.73 119.089 436.73 118.243 437.24 117.723L442.847 112L437.244 106.277C436.734 105.757 436.734 104.911 437.244 104.39C437.754 103.87 438.582 103.87 439.092 104.39L445.622 111.055L445.617 111.059Z" fill="#31344E"/>
</g>
<g filter="url(#filter1_d_3980_47693)">
<rect x="14" y="154" width="448" height="64" rx="10" fill="white" shape-rendering="crispEdges"/>
<rect x="14.5" y="154.5" width="447" height="63" rx="9.5" stroke="#D9D9D9" shape-rendering="crispEdges"/>
<path d="M31.875 194V179.723H34.2188V194H31.875ZM43.3887 182.984C44.6061 182.984 45.5534 183.3 46.2305 183.932C46.9141 184.557 47.2559 185.562 47.2559 186.949V194H44.9609V187.379C44.9609 186.539 44.7884 185.911 44.4434 185.494C44.0983 185.071 43.5645 184.859 42.8418 184.859C41.7936 184.859 41.0645 185.182 40.6543 185.826C40.2507 186.471 40.0488 187.405 40.0488 188.629V194H37.7539V183.189H39.541L39.8633 184.654H39.9902C40.2246 184.277 40.5143 183.967 40.8594 183.727C41.2109 183.479 41.6016 183.294 42.0312 183.17C42.4674 183.046 42.9199 182.984 43.3887 182.984ZM49.5312 189.605V187.662H54.5703V189.605H49.5312ZM61.1621 179.723C62.3926 179.723 63.4082 179.872 64.209 180.172C65.0163 180.471 65.6152 180.927 66.0059 181.539C66.403 182.151 66.6016 182.929 66.6016 183.873C66.6016 184.576 66.4714 185.175 66.2109 185.67C65.9505 186.165 65.6087 186.575 65.1855 186.9C64.7624 187.226 64.3099 187.486 63.8281 187.682L67.8809 194H65.2344L61.7871 188.277H59.4922V194H57.1484V179.723H61.1621ZM61.0059 181.676H59.4922V186.344H61.1133C62.2005 186.344 62.9883 186.142 63.4766 185.738C63.9714 185.335 64.2188 184.739 64.2188 183.951C64.2188 183.124 63.9551 182.538 63.4277 182.193C62.9069 181.848 62.0996 181.676 61.0059 181.676ZM79.2578 188.57C79.2578 189.469 79.1406 190.266 78.9062 190.963C78.6719 191.66 78.3301 192.249 77.8809 192.73C77.4316 193.206 76.8913 193.57 76.2598 193.824C75.6283 194.072 74.9154 194.195 74.1211 194.195C73.3789 194.195 72.6986 194.072 72.0801 193.824C71.4616 193.57 70.9245 193.206 70.4688 192.73C70.0195 192.249 69.6712 191.66 69.4238 190.963C69.1764 190.266 69.0527 189.469 69.0527 188.57C69.0527 187.379 69.2578 186.37 69.668 185.543C70.0846 184.71 70.6771 184.075 71.4453 183.639C72.2135 183.202 73.1283 182.984 74.1895 182.984C75.1855 182.984 76.0645 183.202 76.8262 183.639C77.5879 184.075 78.1836 184.71 78.6133 185.543C79.043 186.376 79.2578 187.385 79.2578 188.57ZM71.416 188.57C71.416 189.358 71.5104 190.032 71.6992 190.592C71.8945 191.152 72.194 191.581 72.5977 191.881C73.0013 192.174 73.5221 192.32 74.1602 192.32C74.7982 192.32 75.319 192.174 75.7227 191.881C76.1263 191.581 76.4225 191.152 76.6113 190.592C76.8001 190.032 76.8945 189.358 76.8945 188.57C76.8945 187.783 76.8001 187.115 76.6113 186.568C76.4225 186.015 76.1263 185.595 75.7227 185.309C75.319 185.016 74.7949 184.869 74.1504 184.869C73.1999 184.869 72.5065 185.188 72.0703 185.826C71.6341 186.464 71.416 187.379 71.416 188.57ZM91.4648 188.57C91.4648 189.469 91.3477 190.266 91.1133 190.963C90.8789 191.66 90.5371 192.249 90.0879 192.73C89.6387 193.206 89.0983 193.57 88.4668 193.824C87.8353 194.072 87.1224 194.195 86.3281 194.195C85.5859 194.195 84.9056 194.072 84.2871 193.824C83.6686 193.57 83.1315 193.206 82.6758 192.73C82.2266 192.249 81.8783 191.66 81.6309 190.963C81.3835 190.266 81.2598 189.469 81.2598 188.57C81.2598 187.379 81.4648 186.37 81.875 185.543C82.2917 184.71 82.8841 184.075 83.6523 183.639C84.4206 183.202 85.3353 182.984 86.3965 182.984C87.3926 182.984 88.2715 183.202 89.0332 183.639C89.7949 184.075 90.3906 184.71 90.8203 185.543C91.25 186.376 91.4648 187.385 91.4648 188.57ZM83.623 188.57C83.623 189.358 83.7174 190.032 83.9062 190.592C84.1016 191.152 84.401 191.581 84.8047 191.881C85.2083 192.174 85.7292 192.32 86.3672 192.32C87.0052 192.32 87.526 192.174 87.9297 191.881C88.3333 191.581 88.6296 191.152 88.8184 190.592C89.0072 190.032 89.1016 189.358 89.1016 188.57C89.1016 187.783 89.0072 187.115 88.8184 186.568C88.6296 186.015 88.3333 185.595 87.9297 185.309C87.526 185.016 87.002 184.869 86.3574 184.869C85.4069 184.869 84.7135 185.188 84.2773 185.826C83.8411 186.464 83.623 187.379 83.623 188.57ZM106.318 182.984C107.529 182.984 108.441 183.297 109.053 183.922C109.671 184.547 109.98 185.549 109.98 186.93V194H107.686V187.34C107.686 186.52 107.526 185.901 107.207 185.484C106.888 185.068 106.403 184.859 105.752 184.859C104.84 184.859 104.183 185.152 103.779 185.738C103.382 186.318 103.184 187.161 103.184 188.268V194H100.889V187.34C100.889 186.793 100.817 186.337 100.674 185.973C100.537 185.602 100.326 185.325 100.039 185.143C99.7526 184.954 99.3913 184.859 98.9551 184.859C98.3236 184.859 97.819 185.003 97.4414 185.289C97.0703 185.576 96.8034 185.999 96.6406 186.559C96.4779 187.112 96.3965 187.792 96.3965 188.6V194H94.1016V183.189H95.8887L96.2109 184.645H96.3379C96.5592 184.267 96.8327 183.958 97.1582 183.717C97.4902 183.469 97.8581 183.287 98.2617 183.17C98.6654 183.046 99.0853 182.984 99.5215 182.984C100.329 182.984 101.009 183.128 101.562 183.414C102.116 183.694 102.529 184.124 102.803 184.703H102.979C103.317 184.117 103.789 183.684 104.395 183.404C105 183.124 105.641 182.984 106.318 182.984ZM127.461 194L126.064 190.035H120.605L119.209 194H116.738L122.051 179.664H124.648L129.951 194H127.461ZM125.459 188.023L124.102 184.117C124.049 183.948 123.975 183.71 123.877 183.404C123.779 183.092 123.682 182.776 123.584 182.457C123.486 182.132 123.405 181.858 123.34 181.637C123.275 181.904 123.193 182.203 123.096 182.535C123.005 182.861 122.913 183.167 122.822 183.453C122.738 183.74 122.673 183.961 122.627 184.117L121.26 188.023H125.459ZM133.906 194H131.602V178.805H133.906V194ZM141.494 182.984C142.458 182.984 143.285 183.183 143.975 183.58C144.665 183.977 145.195 184.54 145.566 185.27C145.938 185.999 146.123 186.871 146.123 187.887V189.117H138.906C138.932 190.165 139.212 190.973 139.746 191.539C140.286 192.105 141.042 192.389 142.012 192.389C142.702 192.389 143.32 192.324 143.867 192.193C144.421 192.057 144.99 191.858 145.576 191.598V193.463C145.036 193.717 144.486 193.902 143.926 194.02C143.366 194.137 142.695 194.195 141.914 194.195C140.853 194.195 139.919 193.99 139.111 193.58C138.311 193.163 137.682 192.545 137.227 191.725C136.777 190.904 136.553 189.885 136.553 188.668C136.553 187.457 136.758 186.428 137.168 185.582C137.578 184.736 138.154 184.091 138.896 183.648C139.639 183.206 140.505 182.984 141.494 182.984ZM141.494 184.713C140.771 184.713 140.186 184.947 139.736 185.416C139.294 185.885 139.033 186.572 138.955 187.477H143.877C143.87 186.936 143.779 186.458 143.604 186.041C143.434 185.624 143.174 185.299 142.822 185.064C142.477 184.83 142.035 184.713 141.494 184.713ZM154.189 182.984C154.372 182.984 154.57 182.994 154.785 183.014C155 183.033 155.186 183.059 155.342 183.092L155.127 185.24C154.99 185.201 154.821 185.172 154.619 185.152C154.424 185.133 154.248 185.123 154.092 185.123C153.682 185.123 153.291 185.191 152.92 185.328C152.549 185.458 152.22 185.66 151.934 185.934C151.647 186.201 151.423 186.536 151.26 186.939C151.097 187.343 151.016 187.812 151.016 188.346V194H148.711V183.189H150.508L150.82 185.094H150.928C151.143 184.71 151.41 184.358 151.729 184.039C152.048 183.72 152.412 183.466 152.822 183.277C153.239 183.082 153.695 182.984 154.189 182.984ZM161.367 192.34C161.667 192.34 161.963 192.314 162.256 192.262C162.549 192.203 162.816 192.135 163.057 192.057V193.795C162.803 193.906 162.474 194 162.07 194.078C161.667 194.156 161.247 194.195 160.811 194.195C160.199 194.195 159.648 194.094 159.16 193.893C158.672 193.684 158.285 193.329 157.998 192.828C157.712 192.327 157.568 191.633 157.568 190.748V184.938H156.094V183.912L157.676 183.102L158.428 180.787H159.873V183.189H162.969V184.938H159.873V190.719C159.873 191.266 160.01 191.673 160.283 191.939C160.557 192.206 160.918 192.34 161.367 192.34ZM179.531 194L178.135 190.035H172.676L171.279 194H168.809L174.121 179.664H176.719L182.021 194H179.531ZM177.529 188.023L176.172 184.117C176.12 183.948 176.045 183.71 175.947 183.404C175.85 183.092 175.752 182.776 175.654 182.457C175.557 182.132 175.475 181.858 175.41 181.637C175.345 181.904 175.264 182.203 175.166 182.535C175.075 182.861 174.984 183.167 174.893 183.453C174.808 183.74 174.743 183.961 174.697 184.117L173.33 188.023H177.529ZM193.096 183.189V194H191.289L190.977 192.545H190.85C190.622 192.916 190.332 193.225 189.98 193.473C189.629 193.714 189.238 193.893 188.809 194.01C188.379 194.133 187.926 194.195 187.451 194.195C186.637 194.195 185.941 194.059 185.361 193.785C184.788 193.505 184.349 193.076 184.043 192.496C183.737 191.917 183.584 191.168 183.584 190.25V183.189H185.889V189.82C185.889 190.66 186.058 191.288 186.396 191.705C186.742 192.122 187.275 192.33 187.998 192.33C188.695 192.33 189.248 192.187 189.658 191.9C190.068 191.614 190.358 191.191 190.527 190.631C190.703 190.071 190.791 189.384 190.791 188.57V183.189H193.096ZM200.02 194.195C198.73 194.195 197.695 193.727 196.914 192.789C196.139 191.845 195.752 190.455 195.752 188.619C195.752 186.764 196.146 185.361 196.934 184.41C197.728 183.46 198.773 182.984 200.068 182.984C200.615 182.984 201.094 183.059 201.504 183.209C201.914 183.352 202.266 183.548 202.559 183.795C202.858 184.042 203.112 184.319 203.32 184.625H203.428C203.395 184.423 203.356 184.133 203.311 183.756C203.271 183.372 203.252 183.017 203.252 182.691V178.805H205.557V194H203.76L203.35 192.525H203.252C203.057 192.838 202.809 193.121 202.51 193.375C202.217 193.622 201.865 193.821 201.455 193.971C201.051 194.12 200.573 194.195 200.02 194.195ZM200.664 192.33C201.647 192.33 202.34 192.047 202.744 191.48C203.148 190.914 203.356 190.064 203.369 188.932V188.629C203.369 187.418 203.174 186.49 202.783 185.846C202.393 185.195 201.68 184.869 200.645 184.869C199.818 184.869 199.186 185.204 198.75 185.875C198.32 186.539 198.105 187.467 198.105 188.658C198.105 189.85 198.32 190.761 198.75 191.393C199.186 192.018 199.824 192.33 200.664 192.33ZM211.143 183.189V194H208.848V183.189H211.143ZM210.01 179.049C210.361 179.049 210.664 179.143 210.918 179.332C211.178 179.521 211.309 179.846 211.309 180.309C211.309 180.764 211.178 181.09 210.918 181.285C210.664 181.474 210.361 181.568 210.01 181.568C209.645 181.568 209.336 181.474 209.082 181.285C208.835 181.09 208.711 180.764 208.711 180.309C208.711 179.846 208.835 179.521 209.082 179.332C209.336 179.143 209.645 179.049 210.01 179.049ZM224.004 188.57C224.004 189.469 223.887 190.266 223.652 190.963C223.418 191.66 223.076 192.249 222.627 192.73C222.178 193.206 221.637 193.57 221.006 193.824C220.374 194.072 219.661 194.195 218.867 194.195C218.125 194.195 217.445 194.072 216.826 193.824C216.208 193.57 215.671 193.206 215.215 192.73C214.766 192.249 214.417 191.66 214.17 190.963C213.923 190.266 213.799 189.469 213.799 188.57C213.799 187.379 214.004 186.37 214.414 185.543C214.831 184.71 215.423 184.075 216.191 183.639C216.96 183.202 217.874 182.984 218.936 182.984C219.932 182.984 220.811 183.202 221.572 183.639C222.334 184.075 222.93 184.71 223.359 185.543C223.789 186.376 224.004 187.385 224.004 188.57ZM216.162 188.57C216.162 189.358 216.257 190.032 216.445 190.592C216.641 191.152 216.94 191.581 217.344 191.881C217.747 192.174 218.268 192.32 218.906 192.32C219.544 192.32 220.065 192.174 220.469 191.881C220.872 191.581 221.169 191.152 221.357 190.592C221.546 190.032 221.641 189.358 221.641 188.57C221.641 187.783 221.546 187.115 221.357 186.568C221.169 186.015 220.872 185.595 220.469 185.309C220.065 185.016 219.541 184.869 218.896 184.869C217.946 184.869 217.253 185.188 216.816 185.826C216.38 186.464 216.162 187.379 216.162 188.57Z" fill="#31344E"/>
<path d="M445.617 185.059C446.128 185.579 446.128 186.425 445.617 186.945L439.088 193.61C438.578 194.13 437.75 194.13 437.24 193.61C436.73 193.089 436.73 192.243 437.24 191.723L442.847 186L437.244 180.277C436.734 179.757 436.734 178.911 437.244 178.39C437.754 177.87 438.582 177.87 439.092 178.39L445.622 185.055L445.617 185.059Z" fill="#31344E"/>
</g>
<g filter="url(#filter2_d_3980_47693)">
<rect x="14" y="228" width="448" height="64" rx="10" fill="white" shape-rendering="crispEdges"/>
<rect x="14.5" y="228.5" width="447" height="63" rx="9.5" stroke="#D9D9D9" shape-rendering="crispEdges"/>
<path d="M43.4668 260.725C43.4668 262.333 43.1673 263.677 42.5684 264.758C41.9694 265.832 41.1003 266.643 39.9609 267.189C38.8216 267.73 37.4479 268 35.8398 268H31.875V253.723H36.2695C37.7474 253.723 39.0234 253.99 40.0977 254.523C41.1719 255.051 42.002 255.835 42.5879 256.877C43.1738 257.912 43.4668 259.195 43.4668 260.725ZM41.0254 260.793C41.0254 259.621 40.8398 258.658 40.4688 257.902C40.1042 257.147 39.5638 256.587 38.8477 256.223C38.138 255.852 37.2624 255.666 36.2207 255.666H34.2188V266.037H35.8789C37.6042 266.037 38.8932 265.598 39.7461 264.719C40.599 263.84 41.0254 262.531 41.0254 260.793ZM48.6035 257.189V268H46.3086V257.189H48.6035ZM47.4707 253.049C47.8223 253.049 48.125 253.143 48.3789 253.332C48.6393 253.521 48.7695 253.846 48.7695 254.309C48.7695 254.764 48.6393 255.09 48.3789 255.285C48.125 255.474 47.8223 255.568 47.4707 255.568C47.1061 255.568 46.7969 255.474 46.543 255.285C46.2956 255.09 46.1719 254.764 46.1719 254.309C46.1719 253.846 46.2956 253.521 46.543 253.332C46.7969 253.143 47.1061 253.049 47.4707 253.049ZM59.1602 264.914C59.1602 265.624 58.9876 266.223 58.6426 266.711C58.2975 267.199 57.793 267.57 57.1289 267.824C56.4714 268.072 55.6641 268.195 54.707 268.195C53.9518 268.195 53.3008 268.14 52.7539 268.029C52.2135 267.925 51.7025 267.762 51.2207 267.541V265.559C51.735 265.799 52.3112 266.008 52.9492 266.184C53.5938 266.359 54.2025 266.447 54.7754 266.447C55.5306 266.447 56.0742 266.33 56.4062 266.096C56.7383 265.855 56.9043 265.536 56.9043 265.139C56.9043 264.904 56.8359 264.696 56.6992 264.514C56.569 264.325 56.3216 264.133 55.957 263.938C55.599 263.736 55.0716 263.495 54.375 263.215C53.6914 262.941 53.1152 262.668 52.6465 262.395C52.1777 262.121 51.8229 261.792 51.582 261.408C51.3411 261.018 51.2207 260.52 51.2207 259.914C51.2207 258.957 51.5983 258.231 52.3535 257.736C53.1152 257.235 54.1211 256.984 55.3711 256.984C56.0352 256.984 56.6602 257.053 57.2461 257.189C57.8385 257.32 58.418 257.512 58.9844 257.766L58.2617 259.494C57.7734 259.279 57.2819 259.104 56.7871 258.967C56.2988 258.824 55.8008 258.752 55.293 258.752C54.7005 258.752 54.248 258.843 53.9355 259.025C53.6296 259.208 53.4766 259.468 53.4766 259.807C53.4766 260.061 53.5514 260.275 53.7012 260.451C53.8509 260.627 54.1081 260.803 54.4727 260.979C54.8438 261.154 55.3581 261.372 56.0156 261.633C56.6602 261.88 57.2168 262.141 57.6855 262.414C58.1608 262.681 58.5254 263.01 58.7793 263.4C59.0332 263.791 59.1602 264.296 59.1602 264.914ZM67.1875 256.984C68.4701 256.984 69.4987 257.453 70.2734 258.391C71.0547 259.328 71.4453 260.721 71.4453 262.57C71.4453 263.794 71.263 264.826 70.8984 265.666C70.5404 266.499 70.0358 267.131 69.3848 267.561C68.7402 267.984 67.9883 268.195 67.1289 268.195C66.582 268.195 66.1068 268.124 65.7031 267.98C65.2995 267.837 64.9544 267.652 64.668 267.424C64.3815 267.189 64.1406 266.936 63.9453 266.662H63.8086C63.8411 266.923 63.8704 267.212 63.8965 267.531C63.929 267.844 63.9453 268.13 63.9453 268.391V272.795H61.6406V257.189H63.5156L63.8379 258.684H63.9453C64.1471 258.378 64.3913 258.094 64.6777 257.834C64.9707 257.574 65.3223 257.368 65.7324 257.219C66.1491 257.062 66.6341 256.984 67.1875 256.984ZM66.5723 258.859C65.9408 258.859 65.4329 258.986 65.0488 259.24C64.6712 259.488 64.3945 259.862 64.2188 260.363C64.0495 260.865 63.9583 261.493 63.9453 262.248V262.57C63.9453 263.371 64.0267 264.051 64.1895 264.611C64.3587 265.165 64.6354 265.588 65.0195 265.881C65.4102 266.167 65.9375 266.311 66.6016 266.311C67.1615 266.311 67.6237 266.158 67.9883 265.852C68.3594 265.546 68.6361 265.109 68.8184 264.543C69.0007 263.977 69.0918 263.309 69.0918 262.541C69.0918 261.376 68.8835 260.471 68.4668 259.826C68.0566 259.182 67.4251 258.859 66.5723 258.859ZM76.4062 268H74.1016V252.805H76.4062V268ZM83.9258 256.984C85.293 256.984 86.3249 257.287 87.0215 257.893C87.7246 258.498 88.0762 259.442 88.0762 260.725V268H86.4453L86.0059 266.467H85.9277C85.6217 266.857 85.306 267.18 84.9805 267.434C84.6549 267.688 84.2773 267.876 83.8477 268C83.4245 268.13 82.9069 268.195 82.2949 268.195C81.6504 268.195 81.0742 268.078 80.5664 267.844C80.0586 267.603 79.6582 267.238 79.3652 266.75C79.0723 266.262 78.9258 265.643 78.9258 264.895C78.9258 263.781 79.3392 262.945 80.166 262.385C80.9993 261.825 82.2559 261.516 83.9355 261.457L85.8105 261.389V260.822C85.8105 260.074 85.6348 259.54 85.2832 259.221C84.9382 258.902 84.4499 258.742 83.8184 258.742C83.278 258.742 82.7539 258.82 82.2461 258.977C81.7383 259.133 81.2435 259.325 80.7617 259.553L80.0195 257.932C80.5469 257.652 81.1458 257.424 81.8164 257.248C82.4935 257.072 83.1966 256.984 83.9258 256.984ZM85.8008 262.834L84.4043 262.883C83.2585 262.922 82.4544 263.117 81.9922 263.469C81.5299 263.82 81.2988 264.302 81.2988 264.914C81.2988 265.448 81.4583 265.839 81.7773 266.086C82.0964 266.327 82.5163 266.447 83.0371 266.447C83.8314 266.447 84.4889 266.223 85.0098 265.773C85.5371 265.318 85.8008 264.65 85.8008 263.771V262.834ZM89.6582 257.189H92.1582L94.375 263.361C94.4727 263.641 94.5605 263.918 94.6387 264.191C94.7233 264.458 94.7949 264.722 94.8535 264.982C94.9186 265.243 94.9707 265.503 95.0098 265.764H95.0684C95.1335 265.425 95.2246 265.048 95.3418 264.631C95.4655 264.208 95.6022 263.785 95.752 263.361L97.8809 257.189H100.352L95.7129 269.484C95.446 270.188 95.1172 270.786 94.7266 271.281C94.3424 271.783 93.8867 272.16 93.3594 272.414C92.832 272.674 92.2298 272.805 91.5527 272.805C91.2272 272.805 90.944 272.785 90.7031 272.746C90.4622 272.714 90.2572 272.678 90.0879 272.639V270.803C90.2246 270.835 90.3971 270.865 90.6055 270.891C90.8138 270.917 91.0286 270.93 91.25 270.93C91.6602 270.93 92.015 270.848 92.3145 270.686C92.6139 270.523 92.8678 270.292 93.0762 269.992C93.2845 269.699 93.457 269.364 93.5938 268.986L93.9746 267.971L89.6582 257.189Z" fill="#31344E"/>
<path d="M445.617 259.059C446.128 259.579 446.128 260.425 445.617 260.945L439.088 267.61C438.578 268.13 437.75 268.13 437.24 267.61C436.73 267.089 436.73 266.243 437.24 265.723L442.847 260L437.244 254.277C436.734 253.757 436.734 252.911 437.244 252.39C437.754 251.87 438.582 251.87 439.092 252.39L445.622 259.055L445.617 259.059Z" fill="#31344E"/>
</g>
<g filter="url(#filter3_d_3980_47693)">
<rect x="16" y="384" width="216" height="80" rx="5" fill="white" shape-rendering="crispEdges"/>
<rect x="17.5" y="385.5" width="213" height="77" rx="3.5" stroke="#AC211C" stroke-width="3" shape-rendering="crispEdges"/>
<path d="M71.0781 428.742C71.0781 429.758 70.832 430.641 70.3398 431.391C69.8477 432.141 69.1289 432.719 68.1836 433.125C67.2461 433.531 66.1055 433.734 64.7617 433.734C64.168 433.734 63.5859 433.695 63.0156 433.617C62.4531 433.539 61.9102 433.426 61.3867 433.277C60.8711 433.121 60.3789 432.93 59.9102 432.703V429.328C60.7227 429.688 61.5664 430.012 62.4414 430.301C63.3164 430.59 64.1836 430.734 65.043 430.734C65.6367 430.734 66.1133 430.656 66.4727 430.5C66.8398 430.344 67.1055 430.129 67.2695 429.855C67.4336 429.582 67.5156 429.27 67.5156 428.918C67.5156 428.488 67.3711 428.121 67.082 427.816C66.793 427.512 66.3945 427.227 65.8867 426.961C65.3867 426.695 64.8203 426.41 64.1875 426.105C63.7891 425.918 63.3555 425.691 62.8867 425.426C62.418 425.152 61.9727 424.82 61.5508 424.43C61.1289 424.039 60.7812 423.566 60.5078 423.012C60.2422 422.449 60.1094 421.777 60.1094 420.996C60.1094 419.973 60.3438 419.098 60.8125 418.371C61.2812 417.645 61.9492 417.09 62.8164 416.707C63.6914 416.316 64.7227 416.121 65.9102 416.121C66.8008 416.121 67.6484 416.227 68.4531 416.438C69.2656 416.641 70.1133 416.938 70.9961 417.328L69.8242 420.152C69.0352 419.832 68.3281 419.586 67.7031 419.414C67.0781 419.234 66.4414 419.145 65.793 419.145C65.3398 419.145 64.9531 419.219 64.6328 419.367C64.3125 419.508 64.0703 419.711 63.9062 419.977C63.7422 420.234 63.6602 420.535 63.6602 420.879C63.6602 421.285 63.7773 421.629 64.0117 421.91C64.2539 422.184 64.6133 422.449 65.0898 422.707C65.5742 422.965 66.1758 423.266 66.8945 423.609C67.7695 424.023 68.5156 424.457 69.1328 424.91C69.7578 425.355 70.2383 425.883 70.5742 426.492C70.9102 427.094 71.0781 427.844 71.0781 428.742ZM77.4766 415.266V418.98C77.4766 419.629 77.4531 420.246 77.4062 420.832C77.3672 421.418 77.3359 421.832 77.3125 422.074H77.5C77.7812 421.621 78.1133 421.254 78.4961 420.973C78.8867 420.691 79.3164 420.484 79.7852 420.352C80.2539 420.219 80.7578 420.152 81.2969 420.152C82.2422 420.152 83.0664 420.32 83.7695 420.656C84.4727 420.984 85.0195 421.504 85.4102 422.215C85.8008 422.918 85.9961 423.832 85.9961 424.957V433.5H82.4219V425.848C82.4219 424.91 82.25 424.203 81.9062 423.727C81.5625 423.25 81.0312 423.012 80.3125 423.012C79.5938 423.012 79.0273 423.18 78.6133 423.516C78.1992 423.844 77.9062 424.332 77.7344 424.98C77.5625 425.621 77.4766 426.406 77.4766 427.336V433.5H73.9023V415.266H77.4766ZM101.699 420.398V433.5H98.957L98.4766 431.824H98.2891C98.0078 432.27 97.6562 432.633 97.2344 432.914C96.8125 433.195 96.3477 433.402 95.8398 433.535C95.332 433.668 94.8047 433.734 94.2578 433.734C93.3203 433.734 92.5039 433.57 91.8086 433.242C91.1133 432.906 90.5703 432.387 90.1797 431.684C89.7969 430.98 89.6055 430.066 89.6055 428.941V420.398H93.1797V428.051C93.1797 428.988 93.3477 429.695 93.6836 430.172C94.0195 430.648 94.5547 430.887 95.2891 430.887C96.0156 430.887 96.5859 430.723 97 430.395C97.4141 430.059 97.7031 429.57 97.8672 428.93C98.0391 428.281 98.125 427.492 98.125 426.562V420.398H101.699ZM110.969 430.887C111.359 430.887 111.738 430.848 112.105 430.77C112.48 430.691 112.852 430.594 113.219 430.477V433.137C112.836 433.309 112.359 433.449 111.789 433.559C111.227 433.676 110.609 433.734 109.938 433.734C109.156 433.734 108.453 433.609 107.828 433.359C107.211 433.102 106.723 432.66 106.363 432.035C106.012 431.402 105.836 430.523 105.836 429.398V423.082H104.125V421.57L106.094 420.375L107.125 417.609H109.41V420.398H113.078V423.082H109.41V429.398C109.41 429.898 109.551 430.273 109.832 430.523C110.121 430.766 110.5 430.887 110.969 430.887ZM136.609 424.77C136.609 426.699 136.238 428.312 135.496 429.609C134.762 430.898 133.695 431.871 132.297 432.527C130.898 433.176 129.215 433.5 127.246 433.5H122.395V416.367H127.773C129.57 416.367 131.129 416.688 132.449 417.328C133.77 417.961 134.793 418.902 135.52 420.152C136.246 421.395 136.609 422.934 136.609 424.77ZM132.836 424.863C132.836 423.598 132.648 422.559 132.273 421.746C131.906 420.926 131.359 420.32 130.633 419.93C129.914 419.539 129.023 419.344 127.961 419.344H126.027V430.5H127.586C129.359 430.5 130.676 430.027 131.535 429.082C132.402 428.137 132.836 426.73 132.836 424.863ZM151.785 426.926C151.785 428.02 151.637 428.988 151.34 429.832C151.051 430.676 150.625 431.391 150.062 431.977C149.508 432.555 148.836 432.992 148.047 433.289C147.266 433.586 146.383 433.734 145.398 433.734C144.477 433.734 143.629 433.586 142.855 433.289C142.09 432.992 141.422 432.555 140.852 431.977C140.289 431.391 139.852 430.676 139.539 429.832C139.234 428.988 139.082 428.02 139.082 426.926C139.082 425.473 139.34 424.242 139.855 423.234C140.371 422.227 141.105 421.461 142.059 420.938C143.012 420.414 144.148 420.152 145.469 420.152C146.695 420.152 147.781 420.414 148.727 420.938C149.68 421.461 150.426 422.227 150.965 423.234C151.512 424.242 151.785 425.473 151.785 426.926ZM142.727 426.926C142.727 427.785 142.82 428.508 143.008 429.094C143.195 429.68 143.488 430.121 143.887 430.418C144.285 430.715 144.805 430.863 145.445 430.863C146.078 430.863 146.59 430.715 146.98 430.418C147.379 430.121 147.668 429.68 147.848 429.094C148.035 428.508 148.129 427.785 148.129 426.926C148.129 426.059 148.035 425.34 147.848 424.77C147.668 424.191 147.379 423.758 146.98 423.469C146.582 423.18 146.062 423.035 145.422 423.035C144.477 423.035 143.789 423.359 143.359 424.008C142.938 424.656 142.727 425.629 142.727 426.926ZM165.508 433.5L164.5 428.918C164.445 428.645 164.355 428.242 164.23 427.711C164.105 427.172 163.969 426.598 163.82 425.988C163.68 425.371 163.547 424.801 163.422 424.277C163.305 423.754 163.219 423.371 163.164 423.129H163.059C163.004 423.371 162.918 423.754 162.801 424.277C162.684 424.801 162.551 425.371 162.402 425.988C162.262 426.605 162.129 427.188 162.004 427.734C161.879 428.273 161.785 428.684 161.723 428.965L160.668 433.5H156.824L153.098 420.398H156.66L158.172 426.199C158.273 426.605 158.371 427.09 158.465 427.652C158.559 428.207 158.641 428.746 158.711 429.27C158.789 429.785 158.848 430.195 158.887 430.5H158.98C158.996 430.273 159.027 429.973 159.074 429.598C159.129 429.223 159.188 428.836 159.25 428.438C159.32 428.031 159.383 427.668 159.438 427.348C159.5 427.02 159.547 426.797 159.578 426.68L161.195 420.398H165.133L166.668 426.68C166.723 426.906 166.793 427.266 166.879 427.758C166.973 428.25 167.055 428.758 167.125 429.281C167.195 429.797 167.234 430.203 167.242 430.5H167.336C167.367 430.234 167.422 429.84 167.5 429.316C167.578 428.793 167.668 428.246 167.77 427.676C167.879 427.098 167.988 426.605 168.098 426.199L169.668 420.398H173.172L169.398 433.5H165.508ZM182.734 420.152C184.133 420.152 185.258 420.535 186.109 421.301C186.961 422.059 187.387 423.277 187.387 424.957V433.5H183.812V425.848C183.812 424.91 183.641 424.203 183.297 423.727C182.961 423.25 182.43 423.012 181.703 423.012C180.609 423.012 179.863 423.383 179.465 424.125C179.066 424.867 178.867 425.938 178.867 427.336V433.5H175.293V420.398H178.023L178.504 422.074H178.703C178.984 421.621 179.332 421.254 179.746 420.973C180.168 420.691 180.633 420.484 181.141 420.352C181.656 420.219 182.188 420.152 182.734 420.152Z" fill="#AC211C"/>
</g>
<g filter="url(#filter4_d_3980_47693)">
<rect x="248" y="384" width="216" height="80" rx="5" fill="#AC211C" shape-rendering="crispEdges"/>
<path d="M307.695 424.77C307.695 426.699 307.324 428.312 306.582 429.609C305.848 430.898 304.781 431.871 303.383 432.527C301.984 433.176 300.301 433.5 298.332 433.5H293.48V416.367H298.859C300.656 416.367 302.215 416.688 303.535 417.328C304.855 417.961 305.879 418.902 306.605 420.152C307.332 421.395 307.695 422.934 307.695 424.77ZM303.922 424.863C303.922 423.598 303.734 422.559 303.359 421.746C302.992 420.926 302.445 420.32 301.719 419.93C301 419.539 300.109 419.344 299.047 419.344H297.113V430.5H298.672C300.445 430.5 301.762 430.027 302.621 429.082C303.488 428.137 303.922 426.73 303.922 424.863ZM316.367 420.152C317.578 420.152 318.621 420.387 319.496 420.855C320.371 421.316 321.047 421.988 321.523 422.871C322 423.754 322.238 424.832 322.238 426.105V427.84H313.789C313.828 428.848 314.129 429.641 314.691 430.219C315.262 430.789 316.051 431.074 317.059 431.074C317.895 431.074 318.66 430.988 319.355 430.816C320.051 430.645 320.766 430.387 321.5 430.043V432.809C320.852 433.129 320.172 433.363 319.461 433.512C318.758 433.66 317.902 433.734 316.895 433.734C315.582 433.734 314.418 433.492 313.402 433.008C312.395 432.523 311.602 431.785 311.023 430.793C310.453 429.801 310.168 428.551 310.168 427.043C310.168 425.512 310.426 424.238 310.941 423.223C311.465 422.199 312.191 421.434 313.121 420.926C314.051 420.41 315.133 420.152 316.367 420.152ZM316.391 422.695C315.695 422.695 315.117 422.918 314.656 423.363C314.203 423.809 313.941 424.508 313.871 425.461H318.887C318.879 424.93 318.781 424.457 318.594 424.043C318.414 423.629 318.141 423.301 317.773 423.059C317.414 422.816 316.953 422.695 316.391 422.695ZM330.512 420.129C332.27 420.129 333.617 420.512 334.555 421.277C335.492 422.043 335.961 423.207 335.961 424.77V433.5H333.465L332.773 431.719H332.68C332.305 432.188 331.922 432.57 331.531 432.867C331.141 433.164 330.691 433.383 330.184 433.523C329.676 433.664 329.059 433.734 328.332 433.734C327.559 433.734 326.863 433.586 326.246 433.289C325.637 432.992 325.156 432.539 324.805 431.93C324.453 431.312 324.277 430.531 324.277 429.586C324.277 428.195 324.766 427.172 325.742 426.516C326.719 425.852 328.184 425.484 330.137 425.414L332.41 425.344V424.77C332.41 424.082 332.23 423.578 331.871 423.258C331.512 422.938 331.012 422.777 330.371 422.777C329.738 422.777 329.117 422.867 328.508 423.047C327.898 423.227 327.289 423.453 326.68 423.727L325.496 421.312C326.191 420.945 326.969 420.656 327.828 420.445C328.695 420.234 329.59 420.129 330.512 420.129ZM332.41 427.43L331.027 427.477C329.871 427.508 329.066 427.715 328.613 428.098C328.168 428.48 327.945 428.984 327.945 429.609C327.945 430.156 328.105 430.547 328.426 430.781C328.746 431.008 329.164 431.121 329.68 431.121C330.445 431.121 331.09 430.895 331.613 430.441C332.145 429.988 332.41 429.344 332.41 428.508V427.43ZM344.973 433.734C343.676 433.734 342.57 433.5 341.656 433.031C340.742 432.555 340.047 431.82 339.57 430.828C339.094 429.836 338.855 428.566 338.855 427.02C338.855 425.418 339.125 424.113 339.664 423.105C340.211 422.09 340.965 421.344 341.926 420.867C342.895 420.391 344.016 420.152 345.289 420.152C346.195 420.152 346.977 420.242 347.633 420.422C348.297 420.594 348.875 420.801 349.367 421.043L348.312 423.809C347.75 423.582 347.227 423.398 346.742 423.258C346.258 423.109 345.773 423.035 345.289 423.035C344.664 423.035 344.145 423.184 343.73 423.48C343.316 423.77 343.008 424.207 342.805 424.793C342.602 425.379 342.5 426.113 342.5 426.996C342.5 427.863 342.609 428.582 342.828 429.152C343.047 429.723 343.363 430.148 343.777 430.43C344.191 430.703 344.695 430.84 345.289 430.84C346.031 430.84 346.691 430.742 347.27 430.547C347.848 430.344 348.41 430.062 348.957 429.703V432.762C348.41 433.105 347.836 433.352 347.234 433.5C346.641 433.656 345.887 433.734 344.973 433.734ZM357.523 430.887C357.914 430.887 358.293 430.848 358.66 430.77C359.035 430.691 359.406 430.594 359.773 430.477V433.137C359.391 433.309 358.914 433.449 358.344 433.559C357.781 433.676 357.164 433.734 356.492 433.734C355.711 433.734 355.008 433.609 354.383 433.359C353.766 433.102 353.277 432.66 352.918 432.035C352.566 431.402 352.391 430.523 352.391 429.398V423.082H350.68V421.57L352.648 420.375L353.68 417.609H355.965V420.398H359.633V423.082H355.965V429.398C355.965 429.898 356.105 430.273 356.387 430.523C356.676 430.766 357.055 430.887 357.523 430.887ZM366.008 420.398V433.5H362.434V420.398H366.008ZM364.227 415.266C364.758 415.266 365.215 415.391 365.598 415.641C365.98 415.883 366.172 416.34 366.172 417.012C366.172 417.676 365.98 418.137 365.598 418.395C365.215 418.645 364.758 418.77 364.227 418.77C363.688 418.77 363.227 418.645 362.844 418.395C362.469 418.137 362.281 417.676 362.281 417.012C362.281 416.34 362.469 415.883 362.844 415.641C363.227 415.391 363.688 415.266 364.227 415.266ZM372.887 433.5L367.895 420.398H371.633L374.164 427.863C374.305 428.301 374.414 428.762 374.492 429.246C374.578 429.73 374.637 430.164 374.668 430.547H374.762C374.785 430.133 374.84 429.691 374.926 429.223C375.02 428.754 375.141 428.301 375.289 427.863L377.809 420.398H381.547L376.555 433.5H372.887ZM388.801 420.129C390.559 420.129 391.906 420.512 392.844 421.277C393.781 422.043 394.25 423.207 394.25 424.77V433.5H391.754L391.062 431.719H390.969C390.594 432.188 390.211 432.57 389.82 432.867C389.43 433.164 388.98 433.383 388.473 433.523C387.965 433.664 387.348 433.734 386.621 433.734C385.848 433.734 385.152 433.586 384.535 433.289C383.926 432.992 383.445 432.539 383.094 431.93C382.742 431.312 382.566 430.531 382.566 429.586C382.566 428.195 383.055 427.172 384.031 426.516C385.008 425.852 386.473 425.484 388.426 425.414L390.699 425.344V424.77C390.699 424.082 390.52 423.578 390.16 423.258C389.801 422.938 389.301 422.777 388.66 422.777C388.027 422.777 387.406 422.867 386.797 423.047C386.188 423.227 385.578 423.453 384.969 423.727L383.785 421.312C384.48 420.945 385.258 420.656 386.117 420.445C386.984 420.234 387.879 420.129 388.801 420.129ZM390.699 427.43L389.316 427.477C388.16 427.508 387.355 427.715 386.902 428.098C386.457 428.48 386.234 428.984 386.234 429.609C386.234 430.156 386.395 430.547 386.715 430.781C387.035 431.008 387.453 431.121 387.969 431.121C388.734 431.121 389.379 430.895 389.902 430.441C390.434 429.988 390.699 429.344 390.699 428.508V427.43ZM403.461 430.887C403.852 430.887 404.23 430.848 404.598 430.77C404.973 430.691 405.344 430.594 405.711 430.477V433.137C405.328 433.309 404.852 433.449 404.281 433.559C403.719 433.676 403.102 433.734 402.43 433.734C401.648 433.734 400.945 433.609 400.32 433.359C399.703 433.102 399.215 432.66 398.855 432.035C398.504 431.402 398.328 430.523 398.328 429.398V423.082H396.617V421.57L398.586 420.375L399.617 417.609H401.902V420.398H405.57V423.082H401.902V429.398C401.902 429.898 402.043 430.273 402.324 430.523C402.613 430.766 402.992 430.887 403.461 430.887ZM413.773 420.152C414.984 420.152 416.027 420.387 416.902 420.855C417.777 421.316 418.453 421.988 418.93 422.871C419.406 423.754 419.645 424.832 419.645 426.105V427.84H411.195C411.234 428.848 411.535 429.641 412.098 430.219C412.668 430.789 413.457 431.074 414.465 431.074C415.301 431.074 416.066 430.988 416.762 430.816C417.457 430.645 418.172 430.387 418.906 430.043V432.809C418.258 433.129 417.578 433.363 416.867 433.512C416.164 433.66 415.309 433.734 414.301 433.734C412.988 433.734 411.824 433.492 410.809 433.008C409.801 432.523 409.008 431.785 408.43 430.793C407.859 429.801 407.574 428.551 407.574 427.043C407.574 425.512 407.832 424.238 408.348 423.223C408.871 422.199 409.598 421.434 410.527 420.926C411.457 420.41 412.539 420.152 413.773 420.152ZM413.797 422.695C413.102 422.695 412.523 422.918 412.062 423.363C411.609 423.809 411.348 424.508 411.277 425.461H416.293C416.285 424.93 416.188 424.457 416 424.043C415.82 423.629 415.547 423.301 415.18 423.059C414.82 422.816 414.359 422.695 413.797 422.695Z" fill="white"/>
</g>
<defs>
<filter id="filter0_d_3980_47693" x="10" y="78" width="456" height="72" filterUnits="userSpaceOnUse" color-interpolation-filters="sRGB">
<feFlood flood-opacity="0" result="BackgroundImageFix"/>
<feColorMatrix in="SourceAlpha" type="matrix" values="0 0 0 0 0 0 0 0 0 0 0 0 0 0 0 0 0 0 127 0" result="hardAlpha"/>
<feOffset dy="2"/>
<feGaussianBlur stdDeviation="2"/>
<feComposite in2="hardAlpha" operator="out"/>
<feColorMatrix type="matrix" values="0 0 0 0 0 0 0 0 0 0 0 0 0 0 0 0 0 0 0.25 0"/>
<feBlend mode="normal" in2="BackgroundImageFix" result="effect1_dropShadow_3980_47693"/>
<feBlend mode="normal" in="SourceGraphic" in2="effect1_dropShadow_3980_47693" result="shape"/>
</filter>
<filter id="filter1_d_3980_47693" x="10" y="152" width="456" height="72" filterUnits="userSpaceOnUse" color-interpolation-filters="sRGB">
<feFlood flood-opacity="0" result="BackgroundImageFix"/>
<feColorMatrix in="SourceAlpha" type="matrix" values="0 0 0 0 0 0 0 0 0 0 0 0 0 0 0 0 0 0 127 0" result="hardAlpha"/>
<feOffset dy="2"/>
<feGaussianBlur stdDeviation="2"/>
<feComposite in2="hardAlpha" operator="out"/>
<feColorMatrix type="matrix" values="0 0 0 0 0 0 0 0 0 0 0 0 0 0 0 0 0 0 0.25 0"/>
<feBlend mode="normal" in2="BackgroundImageFix" result="effect1_dropShadow_3980_47693"/>
<feBlend mode="normal" in="SourceGraphic" in2="effect1_dropShadow_3980_47693" result="shape"/>
</filter>
<filter id="filter2_d_3980_47693" x="10" y="226" width="456" height="72" filterUnits="userSpaceOnUse" color-interpolation-filters="sRGB">
<feFlood flood-opacity="0" result="BackgroundImageFix"/>
<feColorMatrix in="SourceAlpha" type="matrix" values="0 0 0 0 0 0 0 0 0 0 0 0 0 0 0 0 0 0 127 0" result="hardAlpha"/>
<feOffset dy="2"/>
<feGaussianBlur stdDeviation="2"/>
<feComposite in2="hardAlpha" operator="out"/>
<feColorMatrix type="matrix" values="0 0 0 0 0 0 0 0 0 0 0 0 0 0 0 0 0 0 0.25 0"/>
<feBlend mode="normal" in2="BackgroundImageFix" result="effect1_dropShadow_3980_47693"/>
<feBlend mode="normal" in="SourceGraphic" in2="effect1_dropShadow_3980_47693" result="shape"/>
</filter>
<filter id="filter3_d_3980_47693" x="12" y="382" width="224" height="88" filterUnits="userSpaceOnUse" color-interpolation-filters="sRGB">
<feFlood flood-opacity="0" result="BackgroundImageFix"/>
<feColorMatrix in="SourceAlpha" type="matrix" values="0 0 0 0 0 0 0 0 0 0 0 0 0 0 0 0 0 0 127 0" result="hardAlpha"/>
<feOffset dy="2"/>
<feGaussianBlur stdDeviation="2"/>
<feComposite in2="hardAlpha" operator="out"/>
<feColorMatrix type="matrix" values="0 0 0 0 0 0 0 0 0 0 0 0 0 0 0 0 0 0 0.25 0"/>
<feBlend mode="normal" in2="BackgroundImageFix" result="effect1_dropShadow_3980_47693"/>
<feBlend mode="normal" in="SourceGraphic" in2="effect1_dropShadow_3980_47693" result="shape"/>
</filter>
<filter id="filter4_d_3980_47693" x="244" y="382" width="224" height="88" filterUnits="userSpaceOnUse" color-interpolation-filters="sRGB">
<feFlood flood-opacity="0" result="BackgroundImageFix"/>
<feColorMatrix in="SourceAlpha" type="matrix" values="0 0 0 0 0 0 0 0 0 0 0 0 0 0 0 0 0 0 127 0" result="hardAlpha"/>
<feOffset dy="2"/>
<feGaussianBlur stdDeviation="2"/>
<feComposite in2="hardAlpha" operator="out"/>
<feColorMatrix type="matrix" values="0 0 0 0 0 0 0 0 0 0 0 0 0 0 0 0 0 0 0.25 0"/>
<feBlend mode="normal" in2="BackgroundImageFix" result="effect1_dropShadow_3980_47693"/>
<feBlend mode="normal" in="SourceGraphic" in2="effect1_dropShadow_3980_47693" result="shape"/>
</filter>
</defs>
</svg>
