<svg width="480" height="480" viewBox="0 0 480 480" fill="none" xmlns="http://www.w3.org/2000/svg">
<rect width="480" height="480" fill="white"/>
<rect x="17.5" y="17.5" width="445" height="445" rx="4.5" fill="white" stroke="#AC211C" stroke-width="3"/>
<path d="M163.859 48.8594C162.932 48.8594 162.109 49.0417 161.391 49.4062C160.682 49.7604 160.083 50.276 159.594 50.9531C159.115 51.6302 158.75 52.4479 158.5 53.4062C158.25 54.3646 158.125 55.4427 158.125 56.6406C158.125 58.2552 158.323 59.6354 158.719 60.7812C159.125 61.9167 159.75 62.7865 160.594 63.3906C161.438 63.9844 162.526 64.2812 163.859 64.2812C164.786 64.2812 165.714 64.1771 166.641 63.9688C167.578 63.7604 168.594 63.4635 169.688 63.0781V67.1406C168.677 67.5573 167.682 67.8542 166.703 68.0312C165.724 68.2188 164.625 68.3125 163.406 68.3125C161.052 68.3125 159.115 67.8281 157.594 66.8594C156.083 65.8802 154.964 64.5156 154.234 62.7656C153.505 61.0052 153.141 58.9531 153.141 56.6094C153.141 54.8802 153.375 53.2969 153.844 51.8594C154.312 50.4219 155 49.1771 155.906 48.125C156.812 47.0729 157.932 46.2604 159.266 45.6875C160.599 45.1146 162.13 44.8281 163.859 44.8281C164.995 44.8281 166.13 44.974 167.266 45.2656C168.411 45.5469 169.505 45.9375 170.547 46.4375L168.984 50.375C168.13 49.9688 167.271 49.6146 166.406 49.3125C165.542 49.0104 164.693 48.8594 163.859 48.8594ZM193.281 68H188.453V58.1406H179.406V68H174.562V45.1562H179.406V54.1094H188.453V45.1562H193.281V68ZM213.047 68L211.391 62.5625H203.062L201.406 68H196.188L204.25 45.0625H210.172L218.266 68H213.047ZM210.234 58.5L208.578 53.1875C208.474 52.8333 208.333 52.3802 208.156 51.8281C207.99 51.2656 207.818 50.6979 207.641 50.125C207.474 49.5417 207.339 49.0365 207.234 48.6094C207.13 49.0365 206.984 49.5677 206.797 50.2031C206.62 50.8281 206.448 51.4219 206.281 51.9844C206.115 52.5469 205.995 52.9479 205.922 53.1875L204.281 58.5H210.234ZM221.156 68V45.1562H226V68H221.156ZM238.406 45.1562C240.479 45.1562 242.188 45.4062 243.531 45.9062C244.885 46.4062 245.891 47.1615 246.547 48.1719C247.203 49.1823 247.531 50.4583 247.531 52C247.531 53.0417 247.333 53.9531 246.938 54.7344C246.542 55.5156 246.021 56.1771 245.375 56.7188C244.729 57.2604 244.031 57.7031 243.281 58.0469L250 68H244.625L239.172 59.2344H236.594V68H231.75V45.1562H238.406ZM238.062 49.125H236.594V55.2969H238.156C239.76 55.2969 240.906 55.0312 241.594 54.5C242.292 53.9583 242.641 53.1667 242.641 52.125C242.641 51.0417 242.266 50.2708 241.516 49.8125C240.776 49.3542 239.625 49.125 238.062 49.125ZM274.344 68H261.188V45.1562H274.344V49.125H266.031V54.1406H273.766V58.1094H266.031V64H274.344V68ZM297.594 68H292.062L286.75 59.3594L281.438 68H276.25L283.828 56.2188L276.734 45.1562H282.078L287 53.375L291.828 45.1562H297.047L289.875 56.4844L297.594 68ZM300.469 68V45.1562H305.312V68H300.469ZM319.875 68H315.031V49.1875H308.828V45.1562H326.078V49.1875H319.875V68Z" fill="#31344E"/>
<path d="M16 94H464V458C464 461.314 461.314 464 458 464H22C18.6863 464 16 461.314 16 458V94Z" fill="#AC211C"/>
<path d="M214.075 275.835L208 233.091L215.522 232.071C219.675 231.508 223.51 234.34 224.087 238.398L229.368 275.559H264.192C267.866 275.559 270.93 278.107 271.634 281.493H271.786V326C268.308 326 265.368 323.485 264.908 320.118L260.851 290.394H225.01L220.953 320.118C220.493 323.485 217.553 326 214.075 326V275.835Z" fill="white"/>
</svg>
