<svg width="480" height="480" viewBox="0 0 480 480" fill="none" xmlns="http://www.w3.org/2000/svg">
<g clip-path="url(#clip0_3926_12744)">
<rect width="480" height="480" fill="#F6F6F6"/>
<mask id="path-1-inside-1_3926_12744" fill="white">
<path d="M0 0H480V64H0V0Z"/>
</mask>
<path d="M0 0H480V64H0V0Z" fill="white"/>
<path d="M480 64V63H0V64V65H480V64Z" fill="#D1D1D1" mask="url(#path-1-inside-1_3926_12744)"/>
<path d="M179.303 36.0352C179.303 37.3242 178.837 38.3398 177.906 39.082C176.982 39.8242 175.693 40.1953 174.039 40.1953C172.516 40.1953 171.168 39.9089 169.996 39.3359V36.5234C170.96 36.9531 171.773 37.2559 172.438 37.4316C173.108 37.6074 173.72 37.6953 174.273 37.6953C174.938 37.6953 175.445 37.5684 175.797 37.3145C176.155 37.0605 176.334 36.6829 176.334 36.1816C176.334 35.9017 176.256 35.6543 176.1 35.4395C175.943 35.2181 175.712 35.0065 175.406 34.8047C175.107 34.6029 174.492 34.2806 173.561 33.8379C172.688 33.4277 172.034 33.0339 171.598 32.6562C171.161 32.2786 170.813 31.8392 170.553 31.3379C170.292 30.8366 170.162 30.2507 170.162 29.5801C170.162 28.3171 170.589 27.3242 171.441 26.6016C172.301 25.8789 173.486 25.5176 174.996 25.5176C175.738 25.5176 176.445 25.6055 177.115 25.7812C177.792 25.957 178.499 26.2044 179.234 26.5234L178.258 28.877C177.496 28.5645 176.865 28.3464 176.363 28.2227C175.868 28.099 175.38 28.0371 174.898 28.0371C174.326 28.0371 173.886 28.1706 173.58 28.4375C173.274 28.7044 173.121 29.0527 173.121 29.4824C173.121 29.7493 173.183 29.9837 173.307 30.1855C173.43 30.3809 173.626 30.5729 173.893 30.7617C174.166 30.944 174.807 31.276 175.816 31.7578C177.151 32.3958 178.066 33.0371 178.561 33.6816C179.055 34.3197 179.303 35.1042 179.303 36.0352ZM186.178 30.9961C185.546 30.9961 185.051 31.1979 184.693 31.6016C184.335 31.9987 184.13 32.5651 184.078 33.3008H188.258C188.245 32.5651 188.053 31.9987 187.682 31.6016C187.311 31.1979 186.809 30.9961 186.178 30.9961ZM186.598 40.1953C184.84 40.1953 183.466 39.7103 182.477 38.7402C181.487 37.7702 180.992 36.3965 180.992 34.6191C180.992 32.7897 181.448 31.377 182.359 30.3809C183.277 29.3783 184.544 28.877 186.158 28.877C187.701 28.877 188.902 29.3164 189.762 30.1953C190.621 31.0742 191.051 32.2884 191.051 33.8379V35.2832H184.01C184.042 36.1296 184.293 36.7904 184.762 37.2656C185.23 37.7409 185.888 37.9785 186.734 37.9785C187.392 37.9785 188.014 37.9102 188.6 37.7734C189.186 37.6367 189.798 37.4186 190.436 37.1191V39.4238C189.915 39.6842 189.358 39.8763 188.766 40C188.173 40.1302 187.451 40.1953 186.598 40.1953ZM196.451 40H193.473V24.8047H196.451V40ZM204.107 30.9961C203.476 30.9961 202.981 31.1979 202.623 31.6016C202.265 31.9987 202.06 32.5651 202.008 33.3008H206.188C206.174 32.5651 205.982 31.9987 205.611 31.6016C205.24 31.1979 204.739 30.9961 204.107 30.9961ZM204.527 40.1953C202.77 40.1953 201.396 39.7103 200.406 38.7402C199.417 37.7702 198.922 36.3965 198.922 34.6191C198.922 32.7897 199.378 31.377 200.289 30.3809C201.207 29.3783 202.473 28.877 204.088 28.877C205.631 28.877 206.832 29.3164 207.691 30.1953C208.551 31.0742 208.98 32.2884 208.98 33.8379V35.2832H201.939C201.972 36.1296 202.223 36.7904 202.691 37.2656C203.16 37.7409 203.818 37.9785 204.664 37.9785C205.322 37.9785 205.943 37.9102 206.529 37.7734C207.115 37.6367 207.727 37.4186 208.365 37.1191V39.4238C207.844 39.6842 207.288 39.8763 206.695 40C206.103 40.1302 205.38 40.1953 204.527 40.1953ZM215.836 40.1953C212.438 40.1953 210.738 38.3301 210.738 34.5996C210.738 32.7441 211.201 31.3281 212.125 30.3516C213.049 29.3685 214.374 28.877 216.1 28.877C217.363 28.877 218.495 29.1243 219.498 29.6191L218.619 31.9238C218.15 31.735 217.714 31.582 217.311 31.4648C216.907 31.3411 216.503 31.2793 216.1 31.2793C214.55 31.2793 213.775 32.3796 213.775 34.5801C213.775 36.7155 214.55 37.7832 216.1 37.7832C216.673 37.7832 217.203 37.7083 217.691 37.5586C218.18 37.4023 218.668 37.1615 219.156 36.8359V39.3848C218.674 39.6908 218.186 39.9023 217.691 40.0195C217.203 40.1367 216.585 40.1953 215.836 40.1953ZM226.295 37.8223C226.816 37.8223 227.441 37.7083 228.17 37.4805V39.6973C227.428 40.0293 226.516 40.1953 225.436 40.1953C224.244 40.1953 223.375 39.8958 222.828 39.2969C222.288 38.6914 222.018 37.7865 222.018 36.582V31.3184H220.592V30.0586L222.232 29.0625L223.092 26.7578H224.996V29.082H228.053V31.3184H224.996V36.582C224.996 37.0052 225.113 37.3177 225.348 37.5195C225.589 37.7214 225.904 37.8223 226.295 37.8223ZM242.516 40L241.939 38.5156H241.861C241.36 39.1471 240.842 39.5866 240.309 39.834C239.781 40.0749 239.091 40.1953 238.238 40.1953C237.19 40.1953 236.363 39.8958 235.758 39.2969C235.159 38.6979 234.859 37.8451 234.859 36.7383C234.859 35.5794 235.263 34.7266 236.07 34.1797C236.884 33.6263 238.108 33.3203 239.742 33.2617L241.637 33.2031V32.7246C241.637 31.6178 241.07 31.0645 239.938 31.0645C239.065 31.0645 238.04 31.3281 236.861 31.8555L235.875 29.8438C237.132 29.1862 238.525 28.8574 240.055 28.8574C241.52 28.8574 242.643 29.1764 243.424 29.8145C244.205 30.4525 244.596 31.4225 244.596 32.7246V40H242.516ZM241.637 34.9414L240.484 34.9805C239.618 35.0065 238.974 35.1628 238.551 35.4492C238.128 35.7357 237.916 36.1719 237.916 36.7578C237.916 37.5977 238.398 38.0176 239.361 38.0176C240.051 38.0176 240.602 37.819 241.012 37.4219C241.428 37.0247 241.637 36.4974 241.637 35.8398V34.9414ZM256.129 32.0605H257.105C258.062 32.0605 258.769 31.901 259.225 31.582C259.68 31.263 259.908 30.7617 259.908 30.0781C259.908 29.401 259.674 28.9193 259.205 28.6328C258.743 28.3464 258.023 28.2031 257.047 28.2031H256.129V32.0605ZM256.129 34.5215V40H253.102V25.7227H257.262C259.202 25.7227 260.637 26.0775 261.568 26.7871C262.499 27.4902 262.965 28.5612 262.965 30C262.965 30.8398 262.734 31.5885 262.271 32.2461C261.809 32.8971 261.155 33.4082 260.309 33.7793C262.457 36.9889 263.857 39.0625 264.508 40H261.148L257.74 34.5215H256.129ZM268.443 34.5215C268.443 35.6022 268.619 36.4193 268.971 36.9727C269.329 37.526 269.908 37.8027 270.709 37.8027C271.503 37.8027 272.073 37.5293 272.418 36.9824C272.77 36.429 272.945 35.6087 272.945 34.5215C272.945 33.4408 272.77 32.6302 272.418 32.0898C272.066 31.5495 271.49 31.2793 270.689 31.2793C269.895 31.2793 269.322 31.5495 268.971 32.0898C268.619 32.6237 268.443 33.4342 268.443 34.5215ZM275.992 34.5215C275.992 36.2988 275.523 37.6888 274.586 38.6914C273.648 39.694 272.343 40.1953 270.67 40.1953C269.622 40.1953 268.697 39.9674 267.896 39.5117C267.096 39.0495 266.48 38.3887 266.051 37.5293C265.621 36.6699 265.406 35.6673 265.406 34.5215C265.406 32.7376 265.872 31.3509 266.803 30.3613C267.734 29.3717 269.042 28.877 270.729 28.877C271.777 28.877 272.701 29.1048 273.502 29.5605C274.303 30.0163 274.918 30.6706 275.348 31.5234C275.777 32.3763 275.992 33.3757 275.992 34.5215ZM280.826 34.5215C280.826 35.6022 281.002 36.4193 281.354 36.9727C281.712 37.526 282.291 37.8027 283.092 37.8027C283.886 37.8027 284.456 37.5293 284.801 36.9824C285.152 36.429 285.328 35.6087 285.328 34.5215C285.328 33.4408 285.152 32.6302 284.801 32.0898C284.449 31.5495 283.873 31.2793 283.072 31.2793C282.278 31.2793 281.705 31.5495 281.354 32.0898C281.002 32.6237 280.826 33.4342 280.826 34.5215ZM288.375 34.5215C288.375 36.2988 287.906 37.6888 286.969 38.6914C286.031 39.694 284.726 40.1953 283.053 40.1953C282.005 40.1953 281.08 39.9674 280.279 39.5117C279.479 39.0495 278.863 38.3887 278.434 37.5293C278.004 36.6699 277.789 35.6673 277.789 34.5215C277.789 32.7376 278.255 31.3509 279.186 30.3613C280.117 29.3717 281.425 28.877 283.111 28.877C284.16 28.877 285.084 29.1048 285.885 29.5605C286.686 30.0163 287.301 30.6706 287.73 31.5234C288.16 32.3763 288.375 33.3757 288.375 34.5215ZM300.611 40H297.633V33.623C297.633 32.8353 297.499 32.2461 297.232 31.8555C296.972 31.4583 296.559 31.2598 295.992 31.2598C295.23 31.2598 294.677 31.5397 294.332 32.0996C293.987 32.6595 293.814 33.5807 293.814 34.8633V40H290.836V29.082H293.111L293.512 30.4785H293.678C293.971 29.9772 294.394 29.5866 294.947 29.3066C295.501 29.0202 296.135 28.877 296.852 28.877C298.486 28.877 299.592 29.4108 300.172 30.4785H300.436C300.729 29.9707 301.158 29.5768 301.725 29.2969C302.298 29.0169 302.942 28.877 303.658 28.877C304.895 28.877 305.829 29.196 306.461 29.834C307.099 30.4655 307.418 31.4811 307.418 32.8809V40H304.43V33.623C304.43 32.8353 304.296 32.2461 304.029 31.8555C303.769 31.4583 303.355 31.2598 302.789 31.2598C302.06 31.2598 301.513 31.5202 301.148 32.041C300.79 32.5618 300.611 33.3887 300.611 34.5215V40Z" fill="#31344E"/>
<path d="M459.29 24.0987C460.227 23.1616 460.227 21.6399 459.29 20.7028C458.353 19.7657 456.831 19.7657 455.894 20.7028L448 28.6041L440.099 20.7103C439.162 19.7732 437.64 19.7732 436.703 20.7103C435.766 21.6474 435.766 23.1691 436.703 24.1062L444.604 32L436.71 39.9013C435.773 40.8384 435.773 42.3601 436.71 43.2972C437.647 44.2343 439.169 44.2343 440.106 43.2972L448 35.3959L455.901 43.2897C456.838 44.2268 458.36 44.2268 459.297 43.2897C460.234 42.3526 460.234 40.8309 459.297 39.8938L451.396 32L459.29 24.0987Z" fill="#1A1040"/>
<g filter="url(#filter0_d_3926_12744)">
<rect x="16" y="154" width="219" height="64" rx="5" fill="white" shape-rendering="crispEdges"/>
<rect x="17.5" y="155.5" width="216" height="61" rx="3.5" stroke="#1A1040" stroke-width="3" shape-rendering="crispEdges"/>
<path d="M120.068 189.837H118.521V192.5H115.867V189.837H110.383V187.947L116.017 179.65H118.521V187.728H120.068V189.837ZM115.867 187.728V185.548C115.867 185.185 115.882 184.657 115.911 183.966C115.94 183.274 115.964 182.873 115.981 182.762H115.911C115.694 183.242 115.434 183.711 115.129 184.168L112.773 187.728H115.867ZM125.755 184.291C126.997 184.291 127.984 184.64 128.717 185.337C129.455 186.034 129.824 186.989 129.824 188.202C129.824 189.638 129.382 190.742 128.497 191.516C127.612 192.289 126.347 192.676 124.7 192.676C123.271 192.676 122.116 192.444 121.237 191.981V189.635C121.7 189.881 122.239 190.083 122.854 190.241C123.47 190.394 124.053 190.47 124.604 190.47C126.262 190.47 127.091 189.79 127.091 188.431C127.091 187.136 126.232 186.488 124.516 186.488C124.205 186.488 123.862 186.521 123.487 186.585C123.112 186.644 122.808 186.708 122.573 186.778L121.492 186.198L121.976 179.65H128.945V181.953H124.357L124.12 184.476L124.428 184.414C124.785 184.332 125.228 184.291 125.755 184.291ZM131.274 187.042C131.274 184.499 131.811 182.606 132.883 181.364C133.961 180.122 135.572 179.501 137.717 179.501C138.449 179.501 139.023 179.545 139.439 179.633V181.804C138.918 181.687 138.402 181.628 137.893 181.628C136.961 181.628 136.199 181.769 135.607 182.05C135.021 182.331 134.582 182.747 134.289 183.298C133.996 183.849 133.823 184.631 133.771 185.645H133.885C134.465 184.648 135.394 184.15 136.671 184.15C137.819 184.15 138.719 184.511 139.369 185.231C140.02 185.952 140.345 186.948 140.345 188.22C140.345 189.591 139.958 190.678 139.185 191.48C138.411 192.277 137.339 192.676 135.968 192.676C135.019 192.676 134.189 192.456 133.48 192.017C132.777 191.577 132.232 190.936 131.846 190.092C131.465 189.248 131.274 188.231 131.274 187.042ZM135.915 190.505C136.495 190.505 136.94 190.312 137.251 189.925C137.562 189.532 137.717 188.976 137.717 188.255C137.717 187.628 137.57 187.136 137.277 186.778C136.99 186.415 136.554 186.233 135.968 186.233C135.417 186.233 134.945 186.412 134.553 186.77C134.166 187.127 133.973 187.543 133.973 188.018C133.973 188.715 134.154 189.304 134.518 189.784C134.887 190.265 135.353 190.505 135.915 190.505Z" fill="#31344E"/>
</g>
<path d="M200.008 346.271H197.949V333.102C197.949 332.602 197.949 332.174 197.949 331.818C197.958 331.453 197.966 331.123 197.975 330.826C197.992 330.521 198.013 330.212 198.038 329.898C197.775 330.169 197.53 330.402 197.301 330.597C197.072 330.784 196.788 331.017 196.449 331.296L194.326 333L193.22 331.563L198.254 327.686H200.008V346.271ZM219.33 336.953C219.33 338.462 219.216 339.809 218.987 340.996C218.758 342.182 218.398 343.186 217.907 344.008C217.415 344.83 216.78 345.457 216 345.89C215.22 346.313 214.284 346.525 213.191 346.525C211.809 346.525 210.665 346.148 209.758 345.394C208.86 344.64 208.186 343.551 207.737 342.127C207.297 340.695 207.076 338.97 207.076 336.953C207.076 334.97 207.275 333.267 207.674 331.843C208.08 330.411 208.733 329.313 209.631 328.551C210.53 327.779 211.716 327.394 213.191 327.394C214.589 327.394 215.742 327.775 216.648 328.538C217.555 329.292 218.229 330.385 218.669 331.818C219.11 333.241 219.33 334.953 219.33 336.953ZM209.199 336.953C209.199 338.682 209.33 340.123 209.593 341.275C209.856 342.428 210.28 343.292 210.864 343.868C211.458 344.436 212.233 344.72 213.191 344.72C214.148 344.72 214.919 344.436 215.504 343.868C216.097 343.301 216.525 342.44 216.788 341.288C217.059 340.135 217.195 338.69 217.195 336.953C217.195 335.25 217.064 333.826 216.801 332.682C216.538 331.529 216.114 330.665 215.53 330.089C214.945 329.504 214.165 329.212 213.191 329.212C212.216 329.212 211.436 329.504 210.852 330.089C210.267 330.665 209.843 331.529 209.58 332.682C209.326 333.826 209.199 335.25 209.199 336.953ZM241.665 339.279C241.665 340.424 241.517 341.445 241.22 342.343C240.924 343.241 240.496 344 239.936 344.618C239.377 345.237 238.699 345.712 237.903 346.042C237.114 346.364 236.22 346.525 235.22 346.525C234.288 346.525 233.432 346.364 232.653 346.042C231.881 345.712 231.212 345.237 230.644 344.618C230.085 344 229.648 343.241 229.335 342.343C229.03 341.445 228.877 340.424 228.877 339.279C228.877 337.754 229.136 336.457 229.653 335.39C230.169 334.313 230.907 333.496 231.864 332.936C232.83 332.368 233.979 332.085 235.309 332.085C236.58 332.085 237.691 332.368 238.64 332.936C239.597 333.504 240.339 334.326 240.864 335.402C241.398 336.47 241.665 337.763 241.665 339.279ZM231.064 339.279C231.064 340.398 231.212 341.368 231.508 342.19C231.805 343.013 232.263 343.648 232.881 344.097C233.5 344.546 234.297 344.771 235.271 344.771C236.237 344.771 237.03 344.546 237.648 344.097C238.275 343.648 238.737 343.013 239.034 342.19C239.33 341.368 239.479 340.398 239.479 339.279C239.479 338.169 239.33 337.212 239.034 336.407C238.737 335.593 238.28 334.966 237.661 334.525C237.042 334.085 236.242 333.864 235.258 333.864C233.809 333.864 232.746 334.343 232.068 335.301C231.398 336.258 231.064 337.585 231.064 339.279ZM251.517 333.991H248.047V346.271H245.936V333.991H243.47V332.974L245.936 332.275V331.347C245.936 330.178 246.11 329.229 246.458 328.5C246.805 327.763 247.309 327.22 247.97 326.873C248.631 326.525 249.436 326.352 250.386 326.352C250.919 326.352 251.407 326.398 251.847 326.491C252.297 326.585 252.691 326.69 253.03 326.809L252.483 328.474C252.195 328.381 251.869 328.296 251.504 328.22C251.148 328.135 250.784 328.093 250.411 328.093C249.606 328.093 249.008 328.356 248.619 328.881C248.237 329.398 248.047 330.212 248.047 331.322V332.339H251.517V333.991ZM267.763 346.271H265.703V333.102C265.703 332.602 265.703 332.174 265.703 331.818C265.712 331.453 265.72 331.123 265.729 330.826C265.746 330.521 265.767 330.212 265.792 329.898C265.53 330.169 265.284 330.402 265.055 330.597C264.826 330.784 264.542 331.017 264.203 331.296L262.08 333L260.975 331.563L266.008 327.686H267.763V346.271ZM287.085 336.953C287.085 338.462 286.97 339.809 286.742 340.996C286.513 342.182 286.153 343.186 285.661 344.008C285.169 344.83 284.534 345.457 283.754 345.89C282.975 346.313 282.038 346.525 280.945 346.525C279.564 346.525 278.419 346.148 277.513 345.394C276.614 344.64 275.941 343.551 275.492 342.127C275.051 340.695 274.83 338.97 274.83 336.953C274.83 334.97 275.03 333.267 275.428 331.843C275.835 330.411 276.487 329.313 277.386 328.551C278.284 327.779 279.47 327.394 280.945 327.394C282.343 327.394 283.496 327.775 284.403 328.538C285.309 329.292 285.983 330.385 286.424 331.818C286.864 333.241 287.085 334.953 287.085 336.953ZM276.953 336.953C276.953 338.682 277.085 340.123 277.347 341.275C277.61 342.428 278.034 343.292 278.619 343.868C279.212 344.436 279.987 344.72 280.945 344.72C281.903 344.72 282.674 344.436 283.258 343.868C283.852 343.301 284.28 342.44 284.542 341.288C284.814 340.135 284.949 338.69 284.949 336.953C284.949 335.25 284.818 333.826 284.555 332.682C284.292 331.529 283.869 330.665 283.284 330.089C282.699 329.504 281.919 329.212 280.945 329.212C279.97 329.212 279.191 329.504 278.606 330.089C278.021 330.665 277.597 331.529 277.335 332.682C277.08 333.826 276.953 335.25 276.953 336.953Z" fill="#787B91"/>
<path d="M94.1016 307.424C94.1016 304.428 96.5298 302 99.5253 302H160.271C163.267 302 165.695 304.428 165.695 307.424V366C165.695 368.995 163.267 371.424 160.271 371.424H99.5253C96.5298 371.424 94.1016 368.995 94.1016 366V307.424Z" fill="#1A1040"/>
<path d="M122.94 338.004C122.093 337.14 122.093 335.735 122.94 334.87L133.785 323.801C134.633 322.937 136.008 322.937 136.856 323.801C137.703 324.666 137.703 326.07 136.856 326.935L127.543 336.441L136.849 345.946C137.696 346.811 137.696 348.216 136.849 349.08C136.002 349.945 134.626 349.945 133.778 349.08L122.933 338.011L122.94 338.004Z" fill="white"/>
<g opacity="0.6">
<path d="M385.898 307.424C385.898 304.428 383.47 302 380.475 302H319.729C316.733 302 314.305 304.428 314.305 307.424V366C314.305 368.995 316.733 371.424 319.729 371.424H380.475C383.47 371.424 385.898 368.995 385.898 366V307.424Z" fill="#1A1040"/>
<path d="M357.06 338.004C357.907 337.14 357.907 335.735 357.06 334.87L346.215 323.801C345.367 322.937 343.992 322.937 343.144 323.801C342.297 324.666 342.297 326.07 343.144 326.935L352.457 336.441L343.151 345.946C342.304 346.811 342.304 348.216 343.151 349.08C343.998 349.945 345.374 349.945 346.222 349.08L357.067 338.011L357.06 338.004Z" fill="white"/>
</g>
<path d="M16 307.424C16 304.428 18.4283 302 21.4237 302H82.1695C85.1649 302 87.5932 304.428 87.5932 307.424V366C87.5932 368.995 85.1649 371.424 82.1695 371.424H21.4237C18.4283 371.424 16 368.995 16 366V307.424Z" fill="#1A1040"/>
<path d="M37.2457 335.18C36.3986 336.028 36.3986 337.403 37.2457 338.25L48.0889 349.094C48.936 349.941 50.3118 349.941 51.1589 349.094C52.006 348.247 52.006 346.871 51.1589 346.024L41.8473 336.712L51.1521 327.4C51.9993 326.553 51.9993 325.178 51.1521 324.33C50.305 323.483 48.9293 323.483 48.0821 324.33L37.2389 335.174L37.2457 335.18ZM63.2694 324.337L52.4262 335.18C51.5791 336.028 51.5791 337.403 52.4262 338.25L63.2694 349.094C64.1166 349.941 65.4923 349.941 66.3394 349.094C67.1865 348.247 67.1865 346.871 66.3394 346.024L57.0278 336.712L66.3326 327.4C67.1798 326.553 67.1798 325.178 66.3326 324.33C65.4855 323.483 64.1098 323.483 63.2626 324.33L63.2694 324.337Z" fill="white"/>
<g opacity="0.6">
<path d="M464 366C464 368.996 461.572 371.424 458.576 371.424L397.83 371.424C394.835 371.424 392.407 368.996 392.407 366L392.407 307.424C392.407 304.428 394.835 302 397.831 302L458.576 302C461.572 302 464 304.428 464 307.424L464 366Z" fill="#1A1040"/>
<path d="M442.754 338.243C443.601 337.396 443.601 336.021 442.754 335.173L431.911 324.33C431.064 323.483 429.688 323.483 428.841 324.33C427.994 325.177 427.994 326.553 428.841 327.4L438.153 336.712L428.848 346.023C428.001 346.871 428.001 348.246 428.848 349.093C429.695 349.941 431.071 349.941 431.918 349.093L442.761 338.25L442.754 338.243ZM416.731 349.087L427.574 338.243C428.421 337.396 428.421 336.021 427.574 335.173L416.731 324.33C415.883 323.483 414.508 323.483 413.661 324.33C412.813 325.177 412.813 326.553 413.661 327.4L422.972 336.712L413.667 346.023C412.82 346.871 412.82 348.246 413.667 349.093C414.514 349.941 415.89 349.941 416.737 349.093L416.731 349.087Z" fill="white"/>
</g>
<g filter="url(#filter1_d_3926_12744)">
<rect x="16" y="80" width="219" height="64" rx="5" fill="white" shape-rendering="crispEdges"/>
<rect x="17.5" y="81.5" width="216" height="61" rx="3.5" stroke="#1A1040" stroke-width="3" shape-rendering="crispEdges"/>
<path d="M120.068 115.837H118.521V118.5H115.867V115.837H110.383V113.947L116.017 105.65H118.521V113.728H120.068V115.837ZM115.867 113.728V111.548C115.867 111.185 115.882 110.657 115.911 109.966C115.94 109.274 115.964 108.873 115.981 108.762H115.911C115.694 109.242 115.434 109.711 115.129 110.168L112.773 113.728H115.867ZM125.755 110.291C126.997 110.291 127.984 110.64 128.717 111.337C129.455 112.034 129.824 112.989 129.824 114.202C129.824 115.638 129.382 116.742 128.497 117.516C127.612 118.289 126.347 118.676 124.7 118.676C123.271 118.676 122.116 118.444 121.237 117.981V115.635C121.7 115.881 122.239 116.083 122.854 116.241C123.47 116.394 124.053 116.47 124.604 116.47C126.262 116.47 127.091 115.79 127.091 114.431C127.091 113.136 126.232 112.488 124.516 112.488C124.205 112.488 123.862 112.521 123.487 112.585C123.112 112.644 122.808 112.708 122.573 112.778L121.492 112.198L121.976 105.65H128.945V107.953H124.357L124.12 110.476L124.428 110.414C124.785 110.332 125.228 110.291 125.755 110.291ZM140.635 115.837H139.088V118.5H136.434V115.837H130.949V113.947L136.583 105.65H139.088V113.728H140.635V115.837ZM136.434 113.728V111.548C136.434 111.185 136.448 110.657 136.478 109.966C136.507 109.274 136.53 108.873 136.548 108.762H136.478C136.261 109.242 136 109.711 135.695 110.168L133.34 113.728H136.434Z" fill="#31344E"/>
</g>
<g filter="url(#filter2_d_3926_12744)">
<rect x="245" y="80" width="219" height="64" rx="5" fill="#0E76BD"/>
<rect x="246.5" y="81.5" width="216" height="61" rx="3.5" stroke="#0E76BD" stroke-width="3"/>
<path d="M349.068 115.837H347.521V118.5H344.867V115.837H339.383V113.947L345.017 105.65H347.521V113.728H349.068V115.837ZM344.867 113.728V111.548C344.867 111.185 344.882 110.657 344.911 109.966C344.94 109.274 344.964 108.873 344.981 108.762H344.911C344.694 109.242 344.434 109.711 344.129 110.168L341.773 113.728H344.867ZM354.755 110.291C355.997 110.291 356.984 110.64 357.717 111.337C358.455 112.034 358.824 112.989 358.824 114.202C358.824 115.638 358.382 116.742 357.497 117.516C356.612 118.289 355.347 118.676 353.7 118.676C352.271 118.676 351.116 118.444 350.237 117.981V115.635C350.7 115.881 351.239 116.083 351.854 116.241C352.47 116.394 353.053 116.47 353.604 116.47C355.262 116.47 356.091 115.79 356.091 114.431C356.091 113.136 355.232 112.488 353.516 112.488C353.205 112.488 352.862 112.521 352.487 112.585C352.112 112.644 351.808 112.708 351.573 112.778L350.492 112.198L350.976 105.65H357.945V107.953H353.357L353.12 110.476L353.428 110.414C353.785 110.332 354.228 110.291 354.755 110.291ZM365.038 110.291C366.28 110.291 367.268 110.64 368 111.337C368.738 112.034 369.107 112.989 369.107 114.202C369.107 115.638 368.665 116.742 367.78 117.516C366.896 118.289 365.63 118.676 363.983 118.676C362.554 118.676 361.399 118.444 360.521 117.981V115.635C360.983 115.881 361.522 116.083 362.138 116.241C362.753 116.394 363.336 116.47 363.887 116.47C365.545 116.47 366.374 115.79 366.374 114.431C366.374 113.136 365.516 112.488 363.799 112.488C363.488 112.488 363.146 112.521 362.771 112.585C362.396 112.644 362.091 112.708 361.856 112.778L360.775 112.198L361.259 105.65H368.229V107.953H363.641L363.403 110.476L363.711 110.414C364.068 110.332 364.511 110.291 365.038 110.291Z" fill="white"/>
</g>
<g filter="url(#filter3_d_3926_12744)">
<rect x="16" y="384" width="216" height="80" rx="5" fill="white" shape-rendering="crispEdges"/>
<rect x="17.5" y="385.5" width="213" height="77" rx="3.5" stroke="#1A1040" stroke-width="3" shape-rendering="crispEdges"/>
<path d="M97.2227 416.367H102.555C104.836 416.367 106.562 416.688 107.734 417.328C108.906 417.969 109.492 419.094 109.492 420.703C109.492 421.352 109.387 421.938 109.176 422.461C108.973 422.984 108.676 423.414 108.285 423.75C107.895 424.086 107.418 424.305 106.855 424.406V424.523C107.426 424.641 107.941 424.844 108.402 425.133C108.863 425.414 109.23 425.828 109.504 426.375C109.785 426.914 109.926 427.633 109.926 428.531C109.926 429.57 109.672 430.461 109.164 431.203C108.656 431.945 107.93 432.516 106.984 432.914C106.047 433.305 104.93 433.5 103.633 433.5H97.2227V416.367ZM100.855 423.152H102.965C104.02 423.152 104.75 422.988 105.156 422.66C105.562 422.324 105.766 421.832 105.766 421.184C105.766 420.527 105.523 420.059 105.039 419.777C104.562 419.488 103.805 419.344 102.766 419.344H100.855V423.152ZM100.855 426.035V430.5H103.223C104.316 430.5 105.078 430.289 105.508 429.867C105.938 429.445 106.152 428.879 106.152 428.168C106.152 427.746 106.059 427.375 105.871 427.055C105.684 426.734 105.367 426.484 104.922 426.305C104.484 426.125 103.879 426.035 103.105 426.035H100.855ZM118.434 420.129C120.191 420.129 121.539 420.512 122.477 421.277C123.414 422.043 123.883 423.207 123.883 424.77V433.5H121.387L120.695 431.719H120.602C120.227 432.188 119.844 432.57 119.453 432.867C119.062 433.164 118.613 433.383 118.105 433.523C117.598 433.664 116.98 433.734 116.254 433.734C115.48 433.734 114.785 433.586 114.168 433.289C113.559 432.992 113.078 432.539 112.727 431.93C112.375 431.312 112.199 430.531 112.199 429.586C112.199 428.195 112.688 427.172 113.664 426.516C114.641 425.852 116.105 425.484 118.059 425.414L120.332 425.344V424.77C120.332 424.082 120.152 423.578 119.793 423.258C119.434 422.938 118.934 422.777 118.293 422.777C117.66 422.777 117.039 422.867 116.43 423.047C115.82 423.227 115.211 423.453 114.602 423.727L113.418 421.312C114.113 420.945 114.891 420.656 115.75 420.445C116.617 420.234 117.512 420.129 118.434 420.129ZM120.332 427.43L118.949 427.477C117.793 427.508 116.988 427.715 116.535 428.098C116.09 428.48 115.867 428.984 115.867 429.609C115.867 430.156 116.027 430.547 116.348 430.781C116.668 431.008 117.086 431.121 117.602 431.121C118.367 431.121 119.012 430.895 119.535 430.441C120.066 429.988 120.332 429.344 120.332 428.508V427.43ZM132.895 433.734C131.598 433.734 130.492 433.5 129.578 433.031C128.664 432.555 127.969 431.82 127.492 430.828C127.016 429.836 126.777 428.566 126.777 427.02C126.777 425.418 127.047 424.113 127.586 423.105C128.133 422.09 128.887 421.344 129.848 420.867C130.816 420.391 131.938 420.152 133.211 420.152C134.117 420.152 134.898 420.242 135.555 420.422C136.219 420.594 136.797 420.801 137.289 421.043L136.234 423.809C135.672 423.582 135.148 423.398 134.664 423.258C134.18 423.109 133.695 423.035 133.211 423.035C132.586 423.035 132.066 423.184 131.652 423.48C131.238 423.77 130.93 424.207 130.727 424.793C130.523 425.379 130.422 426.113 130.422 426.996C130.422 427.863 130.531 428.582 130.75 429.152C130.969 429.723 131.285 430.148 131.699 430.43C132.113 430.703 132.617 430.84 133.211 430.84C133.953 430.84 134.613 430.742 135.191 430.547C135.77 430.344 136.332 430.062 136.879 429.703V432.762C136.332 433.105 135.758 433.352 135.156 433.5C134.562 433.656 133.809 433.734 132.895 433.734ZM143.5 415.266V423.422C143.5 423.914 143.48 424.406 143.441 424.898C143.402 425.391 143.359 425.883 143.312 426.375H143.359C143.602 426.031 143.848 425.691 144.098 425.355C144.355 425.02 144.629 424.695 144.918 424.383L148.586 420.398H152.617L147.414 426.082L152.934 433.5H148.809L145.035 428.191L143.5 429.422V433.5H139.926V415.266H143.5Z" fill="#1A1040"/>
</g>
<g filter="url(#filter4_d_3926_12744)">
<rect x="248" y="384" width="216" height="80" rx="5" fill="#1A1040" shape-rendering="crispEdges"/>
<path d="M344.352 433.5H339.734L332.281 420.539H332.176C332.207 421.078 332.234 421.621 332.258 422.168C332.281 422.715 332.305 423.262 332.328 423.809C332.352 424.348 332.375 424.891 332.398 425.438V433.5H329.152V416.367H333.734L341.176 429.199H341.258C341.242 428.668 341.223 428.141 341.199 427.617C341.176 427.094 341.152 426.57 341.129 426.047C341.113 425.523 341.098 425 341.082 424.477V416.367H344.352V433.5ZM353.797 420.152C355.008 420.152 356.051 420.387 356.926 420.855C357.801 421.316 358.477 421.988 358.953 422.871C359.43 423.754 359.668 424.832 359.668 426.105V427.84H351.219C351.258 428.848 351.559 429.641 352.121 430.219C352.691 430.789 353.48 431.074 354.488 431.074C355.324 431.074 356.09 430.988 356.785 430.816C357.48 430.645 358.195 430.387 358.93 430.043V432.809C358.281 433.129 357.602 433.363 356.891 433.512C356.188 433.66 355.332 433.734 354.324 433.734C353.012 433.734 351.848 433.492 350.832 433.008C349.824 432.523 349.031 431.785 348.453 430.793C347.883 429.801 347.598 428.551 347.598 427.043C347.598 425.512 347.855 424.238 348.371 423.223C348.895 422.199 349.621 421.434 350.551 420.926C351.48 420.41 352.562 420.152 353.797 420.152ZM353.82 422.695C353.125 422.695 352.547 422.918 352.086 423.363C351.633 423.809 351.371 424.508 351.301 425.461H356.316C356.309 424.93 356.211 424.457 356.023 424.043C355.844 423.629 355.57 423.301 355.203 423.059C354.844 422.816 354.383 422.695 353.82 422.695ZM365.258 426.809L361.039 420.398H365.094L367.637 424.57L370.203 420.398H374.258L369.992 426.809L374.457 433.5H370.391L367.637 429.012L364.871 433.5H360.816L365.258 426.809ZM381.969 430.887C382.359 430.887 382.738 430.848 383.105 430.77C383.48 430.691 383.852 430.594 384.219 430.477V433.137C383.836 433.309 383.359 433.449 382.789 433.559C382.227 433.676 381.609 433.734 380.938 433.734C380.156 433.734 379.453 433.609 378.828 433.359C378.211 433.102 377.723 432.66 377.363 432.035C377.012 431.402 376.836 430.523 376.836 429.398V423.082H375.125V421.57L377.094 420.375L378.125 417.609H380.41V420.398H384.078V423.082H380.41V429.398C380.41 429.898 380.551 430.273 380.832 430.523C381.121 430.766 381.5 430.887 381.969 430.887Z" fill="white"/>
</g>
<rect opacity="0.6" width="480" height="480" fill="black" fill-opacity="0.5"/>
<g filter="url(#filter5_d_3926_12744)">
<rect x="32" y="74" width="416" height="333" rx="12" fill="white"/>
<rect x="32.5" y="74.5" width="415" height="332" rx="11.5" stroke="#D1D1D1"/>
<rect width="64" height="43" transform="translate(208 106)" fill="white"/>
<path d="M211.475 131.023L208 109.229L211.747 108.776C213.816 108.526 215.727 109.784 216.014 111.586L217.568 121.331H220.554V121.081C220.554 119.262 222.247 117.788 224.337 117.788H230.389C232.478 117.788 234.172 119.262 234.172 121.081V121.331H267.861V121.411H268.217C270.306 121.411 272 122.885 272 124.705V146.443C270.24 146.443 268.726 145.362 268.38 143.86L267.181 138.637H216.295L215.095 143.86C214.75 145.362 213.235 146.443 211.475 146.443V131.023Z" fill="#D1D1D1"/>
<path d="M108.736 211L106.781 205.449H99.1387L97.1836 211H93.7246L101.162 190.93H104.799L112.223 211H108.736ZM105.934 202.633L104.033 197.164C103.96 196.927 103.855 196.594 103.719 196.166C103.582 195.729 103.445 195.286 103.309 194.84C103.172 194.384 103.058 194.001 102.967 193.691C102.876 194.065 102.762 194.484 102.625 194.949C102.497 195.405 102.37 195.833 102.242 196.234C102.124 196.635 102.033 196.945 101.969 197.164L100.055 202.633H105.934ZM124.705 206.68C124.705 207.673 124.464 208.512 123.98 209.195C123.497 209.879 122.791 210.398 121.861 210.754C120.941 211.1 119.811 211.273 118.471 211.273C117.413 211.273 116.502 211.196 115.736 211.041C114.98 210.895 114.264 210.667 113.59 210.357V207.582C114.31 207.919 115.117 208.211 116.01 208.457C116.912 208.703 117.764 208.826 118.566 208.826C119.624 208.826 120.385 208.662 120.85 208.334C121.314 207.997 121.547 207.55 121.547 206.994C121.547 206.666 121.451 206.374 121.26 206.119C121.077 205.855 120.731 205.586 120.221 205.312C119.719 205.03 118.981 204.693 118.006 204.301C117.049 203.918 116.242 203.535 115.586 203.152C114.93 202.77 114.433 202.309 114.096 201.771C113.758 201.225 113.59 200.527 113.59 199.68C113.59 198.34 114.118 197.324 115.176 196.631C116.242 195.929 117.65 195.578 119.4 195.578C120.33 195.578 121.205 195.674 122.025 195.865C122.855 196.048 123.666 196.316 124.459 196.672L123.447 199.092C122.764 198.791 122.076 198.545 121.383 198.354C120.699 198.153 120.002 198.053 119.291 198.053C118.462 198.053 117.828 198.18 117.391 198.436C116.962 198.691 116.748 199.055 116.748 199.529C116.748 199.885 116.853 200.186 117.062 200.432C117.272 200.678 117.632 200.924 118.143 201.17C118.662 201.416 119.382 201.721 120.303 202.086C121.205 202.432 121.984 202.797 122.641 203.18C123.306 203.553 123.816 204.014 124.172 204.561C124.527 205.107 124.705 205.814 124.705 206.68ZM138.35 206.68C138.35 207.673 138.108 208.512 137.625 209.195C137.142 209.879 136.436 210.398 135.506 210.754C134.585 211.1 133.455 211.273 132.115 211.273C131.058 211.273 130.146 211.196 129.381 211.041C128.624 210.895 127.909 210.667 127.234 210.357V207.582C127.954 207.919 128.761 208.211 129.654 208.457C130.557 208.703 131.409 208.826 132.211 208.826C133.268 208.826 134.029 208.662 134.494 208.334C134.959 207.997 135.191 207.55 135.191 206.994C135.191 206.666 135.096 206.374 134.904 206.119C134.722 205.855 134.376 205.586 133.865 205.312C133.364 205.03 132.626 204.693 131.65 204.301C130.693 203.918 129.887 203.535 129.23 203.152C128.574 202.77 128.077 202.309 127.74 201.771C127.403 201.225 127.234 200.527 127.234 199.68C127.234 198.34 127.763 197.324 128.82 196.631C129.887 195.929 131.295 195.578 133.045 195.578C133.975 195.578 134.85 195.674 135.67 195.865C136.499 196.048 137.311 196.316 138.104 196.672L137.092 199.092C136.408 198.791 135.72 198.545 135.027 198.354C134.344 198.153 133.646 198.053 132.936 198.053C132.106 198.053 131.473 198.18 131.035 198.436C130.607 198.691 130.393 199.055 130.393 199.529C130.393 199.885 130.497 200.186 130.707 200.432C130.917 200.678 131.277 200.924 131.787 201.17C132.307 201.416 133.027 201.721 133.947 202.086C134.85 202.432 135.629 202.797 136.285 203.18C136.951 203.553 137.461 204.014 137.816 204.561C138.172 205.107 138.35 205.814 138.35 206.68ZM145.035 195.865V211H141.822V195.865H145.035ZM143.449 190.068C143.941 190.068 144.365 190.201 144.721 190.465C145.085 190.729 145.268 191.185 145.268 191.832C145.268 192.47 145.085 192.926 144.721 193.199C144.365 193.464 143.941 193.596 143.449 193.596C142.939 193.596 142.506 193.464 142.15 193.199C141.804 192.926 141.631 192.47 141.631 191.832C141.631 191.185 141.804 190.729 142.15 190.465C142.506 190.201 142.939 190.068 143.449 190.068ZM153.963 217.727C151.912 217.727 150.34 217.357 149.246 216.619C148.152 215.881 147.605 214.846 147.605 213.516C147.605 212.586 147.897 211.798 148.48 211.15C149.064 210.512 149.898 210.07 150.982 209.824C150.572 209.642 150.217 209.359 149.916 208.977C149.624 208.585 149.479 208.152 149.479 207.678C149.479 207.113 149.638 206.63 149.957 206.229C150.276 205.827 150.755 205.44 151.393 205.066C150.6 204.729 149.962 204.182 149.479 203.426C149.005 202.66 148.768 201.762 148.768 200.732C148.768 199.639 149 198.709 149.465 197.943C149.93 197.169 150.609 196.581 151.502 196.18C152.395 195.77 153.475 195.564 154.742 195.564C155.016 195.564 155.312 195.583 155.631 195.619C155.959 195.646 156.26 195.683 156.533 195.729C156.816 195.765 157.03 195.806 157.176 195.852H162.412V197.643L159.842 198.121C160.088 198.467 160.284 198.864 160.43 199.311C160.576 199.748 160.648 200.227 160.648 200.746C160.648 202.314 160.106 203.549 159.021 204.451C157.946 205.344 156.46 205.791 154.564 205.791C154.109 205.773 153.667 205.736 153.238 205.682C152.91 205.882 152.66 206.105 152.486 206.352C152.313 206.589 152.227 206.857 152.227 207.158C152.227 207.404 152.313 207.605 152.486 207.76C152.66 207.906 152.915 208.015 153.252 208.088C153.598 208.161 154.018 208.197 154.51 208.197H157.121C158.78 208.197 160.047 208.548 160.922 209.25C161.797 209.952 162.234 210.982 162.234 212.34C162.234 214.062 161.523 215.389 160.102 216.318C158.68 217.257 156.633 217.727 153.963 217.727ZM154.086 215.471C155.207 215.471 156.15 215.361 156.916 215.143C157.682 214.924 158.26 214.609 158.652 214.199C159.044 213.798 159.24 213.32 159.24 212.764C159.24 212.271 159.117 211.893 158.871 211.629C158.625 211.365 158.256 211.182 157.764 211.082C157.271 210.982 156.661 210.932 155.932 210.932H153.553C152.96 210.932 152.436 211.023 151.98 211.205C151.525 211.396 151.169 211.67 150.914 212.025C150.668 212.381 150.545 212.809 150.545 213.311C150.545 214.003 150.85 214.536 151.461 214.91C152.081 215.284 152.956 215.471 154.086 215.471ZM154.715 203.686C155.654 203.686 156.351 203.43 156.807 202.92C157.262 202.4 157.49 201.671 157.49 200.732C157.49 199.712 157.253 198.946 156.779 198.436C156.314 197.925 155.622 197.67 154.701 197.67C153.799 197.67 153.111 197.93 152.637 198.449C152.172 198.969 151.939 199.739 151.939 200.76C151.939 201.68 152.172 202.4 152.637 202.92C153.111 203.43 153.803 203.686 154.715 203.686ZM173.062 195.578C174.767 195.578 176.093 196.02 177.041 196.904C177.998 197.779 178.477 199.188 178.477 201.129V211H175.264V201.73C175.264 200.555 175.022 199.675 174.539 199.092C174.056 198.499 173.309 198.203 172.297 198.203C170.829 198.203 169.809 198.654 169.234 199.557C168.669 200.459 168.387 201.767 168.387 203.48V211H165.174V195.865H167.676L168.127 197.916H168.305C168.633 197.387 169.038 196.954 169.521 196.617C170.014 196.271 170.561 196.011 171.162 195.838C171.773 195.665 172.406 195.578 173.062 195.578ZM186.188 195.865V211H182.975V195.865H186.188ZM184.602 190.068C185.094 190.068 185.518 190.201 185.873 190.465C186.238 190.729 186.42 191.185 186.42 191.832C186.42 192.47 186.238 192.926 185.873 193.199C185.518 193.464 185.094 193.596 184.602 193.596C184.091 193.596 183.658 193.464 183.303 193.199C182.956 192.926 182.783 192.47 182.783 191.832C182.783 191.185 182.956 190.729 183.303 190.465C183.658 190.201 184.091 190.068 184.602 190.068ZM198.684 195.578C200.388 195.578 201.714 196.02 202.662 196.904C203.619 197.779 204.098 199.188 204.098 201.129V211H200.885V201.73C200.885 200.555 200.643 199.675 200.16 199.092C199.677 198.499 198.93 198.203 197.918 198.203C196.451 198.203 195.43 198.654 194.855 199.557C194.29 200.459 194.008 201.767 194.008 203.48V211H190.795V195.865H193.297L193.748 197.916H193.926C194.254 197.387 194.66 196.954 195.143 196.617C195.635 196.271 196.182 196.011 196.783 195.838C197.394 195.665 198.027 195.578 198.684 195.578ZM212.916 217.727C210.865 217.727 209.293 217.357 208.199 216.619C207.105 215.881 206.559 214.846 206.559 213.516C206.559 212.586 206.85 211.798 207.434 211.15C208.017 210.512 208.851 210.07 209.936 209.824C209.525 209.642 209.17 209.359 208.869 208.977C208.577 208.585 208.432 208.152 208.432 207.678C208.432 207.113 208.591 206.63 208.91 206.229C209.229 205.827 209.708 205.44 210.346 205.066C209.553 204.729 208.915 204.182 208.432 203.426C207.958 202.66 207.721 201.762 207.721 200.732C207.721 199.639 207.953 198.709 208.418 197.943C208.883 197.169 209.562 196.581 210.455 196.18C211.348 195.77 212.428 195.564 213.695 195.564C213.969 195.564 214.265 195.583 214.584 195.619C214.912 195.646 215.213 195.683 215.486 195.729C215.769 195.765 215.983 195.806 216.129 195.852H221.365V197.643L218.795 198.121C219.041 198.467 219.237 198.864 219.383 199.311C219.529 199.748 219.602 200.227 219.602 200.746C219.602 202.314 219.059 203.549 217.975 204.451C216.899 205.344 215.413 205.791 213.518 205.791C213.062 205.773 212.62 205.736 212.191 205.682C211.863 205.882 211.613 206.105 211.439 206.352C211.266 206.589 211.18 206.857 211.18 207.158C211.18 207.404 211.266 207.605 211.439 207.76C211.613 207.906 211.868 208.015 212.205 208.088C212.551 208.161 212.971 208.197 213.463 208.197H216.074C217.733 208.197 219 208.548 219.875 209.25C220.75 209.952 221.188 210.982 221.188 212.34C221.188 214.062 220.477 215.389 219.055 216.318C217.633 217.257 215.587 217.727 212.916 217.727ZM213.039 215.471C214.16 215.471 215.104 215.361 215.869 215.143C216.635 214.924 217.214 214.609 217.605 214.199C217.997 213.798 218.193 213.32 218.193 212.764C218.193 212.271 218.07 211.893 217.824 211.629C217.578 211.365 217.209 211.182 216.717 211.082C216.225 210.982 215.614 210.932 214.885 210.932H212.506C211.913 210.932 211.389 211.023 210.934 211.205C210.478 211.396 210.122 211.67 209.867 212.025C209.621 212.381 209.498 212.809 209.498 213.311C209.498 214.003 209.803 214.536 210.414 214.91C211.034 215.284 211.909 215.471 213.039 215.471ZM213.668 203.686C214.607 203.686 215.304 203.43 215.76 202.92C216.215 202.4 216.443 201.671 216.443 200.732C216.443 199.712 216.206 198.946 215.732 198.436C215.268 197.925 214.575 197.67 213.654 197.67C212.752 197.67 212.064 197.93 211.59 198.449C211.125 198.969 210.893 199.739 210.893 200.76C210.893 201.68 211.125 202.4 211.59 202.92C212.064 203.43 212.757 203.686 213.668 203.686ZM237.348 191.012C239.07 191.012 240.492 191.221 241.613 191.641C242.743 192.06 243.582 192.698 244.129 193.555C244.685 194.411 244.963 195.501 244.963 196.822C244.963 197.807 244.781 198.645 244.416 199.338C244.051 200.031 243.573 200.605 242.98 201.061C242.388 201.516 241.755 201.881 241.08 202.154L246.754 211H243.049L238.223 202.988H235.01V211H231.729V191.012H237.348ZM237.129 193.746H235.01V200.281H237.279C238.801 200.281 239.904 199.999 240.588 199.434C241.281 198.868 241.627 198.035 241.627 196.932C241.627 195.774 241.258 194.954 240.52 194.471C239.79 193.988 238.66 193.746 237.129 193.746ZM262.682 203.398C262.682 204.656 262.518 205.773 262.189 206.748C261.861 207.723 261.383 208.548 260.754 209.223C260.125 209.888 259.368 210.398 258.484 210.754C257.6 211.1 256.602 211.273 255.49 211.273C254.451 211.273 253.499 211.1 252.633 210.754C251.767 210.398 251.015 209.888 250.377 209.223C249.748 208.548 249.26 207.723 248.914 206.748C248.568 205.773 248.395 204.656 248.395 203.398C248.395 201.73 248.682 200.318 249.256 199.16C249.839 197.993 250.669 197.105 251.744 196.494C252.82 195.883 254.1 195.578 255.586 195.578C256.98 195.578 258.211 195.883 259.277 196.494C260.344 197.105 261.178 197.993 261.779 199.16C262.381 200.327 262.682 201.74 262.682 203.398ZM251.703 203.398C251.703 204.501 251.835 205.445 252.1 206.229C252.373 207.012 252.792 207.614 253.357 208.033C253.923 208.443 254.652 208.648 255.545 208.648C256.438 208.648 257.167 208.443 257.732 208.033C258.298 207.614 258.712 207.012 258.977 206.229C259.241 205.445 259.373 204.501 259.373 203.398C259.373 202.296 259.241 201.361 258.977 200.596C258.712 199.821 258.298 199.233 257.732 198.832C257.167 198.422 256.434 198.217 255.531 198.217C254.201 198.217 253.23 198.663 252.619 199.557C252.008 200.45 251.703 201.73 251.703 203.398ZM279.771 203.398C279.771 204.656 279.607 205.773 279.279 206.748C278.951 207.723 278.473 208.548 277.844 209.223C277.215 209.888 276.458 210.398 275.574 210.754C274.69 211.1 273.692 211.273 272.58 211.273C271.541 211.273 270.589 211.1 269.723 210.754C268.857 210.398 268.105 209.888 267.467 209.223C266.838 208.548 266.35 207.723 266.004 206.748C265.658 205.773 265.484 204.656 265.484 203.398C265.484 201.73 265.771 200.318 266.346 199.16C266.929 197.993 267.758 197.105 268.834 196.494C269.91 195.883 271.19 195.578 272.676 195.578C274.07 195.578 275.301 195.883 276.367 196.494C277.434 197.105 278.268 197.993 278.869 199.16C279.471 200.327 279.771 201.74 279.771 203.398ZM268.793 203.398C268.793 204.501 268.925 205.445 269.189 206.229C269.463 207.012 269.882 207.614 270.447 208.033C271.012 208.443 271.742 208.648 272.635 208.648C273.528 208.648 274.257 208.443 274.822 208.033C275.387 207.614 275.802 207.012 276.066 206.229C276.331 205.445 276.463 204.501 276.463 203.398C276.463 202.296 276.331 201.361 276.066 200.596C275.802 199.821 275.387 199.233 274.822 198.832C274.257 198.422 273.523 198.217 272.621 198.217C271.29 198.217 270.32 198.663 269.709 199.557C269.098 200.45 268.793 201.73 268.793 203.398ZM300.566 195.578C302.262 195.578 303.538 196.016 304.395 196.891C305.26 197.766 305.693 199.169 305.693 201.102V211H302.48V201.676C302.48 200.527 302.257 199.661 301.811 199.078C301.364 198.495 300.685 198.203 299.773 198.203C298.497 198.203 297.577 198.613 297.012 199.434C296.456 200.245 296.178 201.425 296.178 202.975V211H292.965V201.676C292.965 200.91 292.865 200.272 292.664 199.762C292.473 199.242 292.176 198.855 291.775 198.6C291.374 198.335 290.868 198.203 290.258 198.203C289.374 198.203 288.667 198.404 288.139 198.805C287.619 199.206 287.245 199.798 287.018 200.582C286.79 201.357 286.676 202.309 286.676 203.439V211H283.463V195.865H285.965L286.416 197.902H286.594C286.904 197.374 287.286 196.941 287.742 196.604C288.207 196.257 288.722 196.002 289.287 195.838C289.852 195.665 290.44 195.578 291.051 195.578C292.181 195.578 293.133 195.779 293.908 196.18C294.683 196.572 295.262 197.173 295.645 197.984H295.891C296.365 197.164 297.025 196.558 297.873 196.166C298.721 195.774 299.618 195.578 300.566 195.578ZM330.672 206.611H327.965V211H324.793V206.611H315.701V204.178L324.834 190.957H327.965V203.945H330.672V206.611ZM324.793 203.945V198.982C324.793 198.572 324.798 198.158 324.807 197.738C324.825 197.31 324.843 196.9 324.861 196.508C324.88 196.116 324.898 195.756 324.916 195.428C324.934 195.09 324.948 194.812 324.957 194.594H324.848C324.674 194.958 324.483 195.332 324.273 195.715C324.064 196.089 323.84 196.453 323.604 196.809L318.682 203.945H324.793ZM339.23 198.504C340.516 198.504 341.646 198.736 342.621 199.201C343.605 199.657 344.371 200.331 344.918 201.225C345.465 202.109 345.738 203.193 345.738 204.479C345.738 205.882 345.442 207.094 344.85 208.115C344.257 209.127 343.387 209.906 342.238 210.453C341.09 211 339.691 211.273 338.041 211.273C336.993 211.273 336.013 211.182 335.102 211C334.199 210.818 333.42 210.544 332.764 210.18V207.281C333.447 207.664 334.268 207.979 335.225 208.225C336.182 208.462 337.098 208.58 337.973 208.58C338.902 208.58 339.7 208.443 340.365 208.17C341.031 207.896 341.541 207.477 341.896 206.912C342.261 206.347 342.443 205.632 342.443 204.766C342.443 203.617 342.074 202.733 341.336 202.113C340.607 201.484 339.463 201.17 337.904 201.17C337.357 201.17 336.774 201.22 336.154 201.32C335.544 201.411 335.033 201.512 334.623 201.621L333.215 200.787L333.967 191.012H344.357V193.842H336.797L336.359 198.818C336.688 198.745 337.079 198.677 337.535 198.613C337.991 198.54 338.556 198.504 339.23 198.504ZM355.254 198.504C356.539 198.504 357.669 198.736 358.645 199.201C359.629 199.657 360.395 200.331 360.941 201.225C361.488 202.109 361.762 203.193 361.762 204.479C361.762 205.882 361.465 207.094 360.873 208.115C360.281 209.127 359.41 209.906 358.262 210.453C357.113 211 355.714 211.273 354.064 211.273C353.016 211.273 352.036 211.182 351.125 211C350.223 210.818 349.443 210.544 348.787 210.18V207.281C349.471 207.664 350.291 207.979 351.248 208.225C352.205 208.462 353.121 208.58 353.996 208.58C354.926 208.58 355.723 208.443 356.389 208.17C357.054 207.896 357.564 207.477 357.92 206.912C358.285 206.347 358.467 205.632 358.467 204.766C358.467 203.617 358.098 202.733 357.359 202.113C356.63 201.484 355.486 201.17 353.928 201.17C353.381 201.17 352.798 201.22 352.178 201.32C351.567 201.411 351.057 201.512 350.646 201.621L349.238 200.787L349.99 191.012H360.381V193.842H352.82L352.383 198.818C352.711 198.745 353.103 198.677 353.559 198.613C354.014 198.54 354.579 198.504 355.254 198.504ZM365.057 209.305C365.057 208.557 365.248 208.033 365.631 207.732C366.023 207.423 366.497 207.268 367.053 207.268C367.609 207.268 368.083 207.423 368.475 207.732C368.876 208.033 369.076 208.557 369.076 209.305C369.076 210.034 368.876 210.562 368.475 210.891C368.083 211.21 367.609 211.369 367.053 211.369C366.497 211.369 366.023 211.21 365.631 210.891C365.248 210.562 365.057 210.034 365.057 209.305ZM372.74 209.305C372.74 208.557 372.932 208.033 373.314 207.732C373.706 207.423 374.18 207.268 374.736 207.268C375.292 207.268 375.766 207.423 376.158 207.732C376.559 208.033 376.76 208.557 376.76 209.305C376.76 210.034 376.559 210.562 376.158 210.891C375.766 211.21 375.292 211.369 374.736 211.369C374.18 211.369 373.706 211.21 373.314 210.891C372.932 210.562 372.74 210.034 372.74 209.305ZM380.424 209.305C380.424 208.557 380.615 208.033 380.998 207.732C381.39 207.423 381.864 207.268 382.42 207.268C382.976 207.268 383.45 207.423 383.842 207.732C384.243 208.033 384.443 208.557 384.443 209.305C384.443 210.034 384.243 210.562 383.842 210.891C383.45 211.21 382.976 211.369 382.42 211.369C381.864 211.369 381.39 211.21 380.998 210.891C380.615 210.562 380.424 210.034 380.424 209.305Z" fill="#31344E"/>
<path d="M124.914 252L123.508 248.375H118.93L117.531 252H116.188L120.656 240.531H121.852L126.289 252H124.914ZM123.109 247.195L121.773 243.594C121.742 243.5 121.69 243.346 121.617 243.133C121.549 242.919 121.479 242.698 121.406 242.469C121.333 242.24 121.273 242.055 121.227 241.914C121.174 242.128 121.117 242.341 121.055 242.555C120.997 242.763 120.94 242.958 120.883 243.141C120.826 243.318 120.776 243.469 120.734 243.594L119.375 247.195H123.109ZM133.219 249.656C133.219 250.203 133.081 250.664 132.805 251.039C132.534 251.409 132.143 251.688 131.633 251.875C131.128 252.062 130.523 252.156 129.82 252.156C129.221 252.156 128.703 252.109 128.266 252.016C127.828 251.922 127.445 251.789 127.117 251.617V250.422C127.466 250.594 127.883 250.75 128.367 250.891C128.852 251.031 129.346 251.102 129.852 251.102C130.591 251.102 131.128 250.982 131.461 250.742C131.794 250.503 131.961 250.177 131.961 249.766C131.961 249.531 131.893 249.326 131.758 249.148C131.628 248.966 131.406 248.792 131.094 248.625C130.781 248.453 130.349 248.266 129.797 248.062C129.25 247.854 128.776 247.648 128.375 247.445C127.979 247.237 127.672 246.984 127.453 246.688C127.24 246.391 127.133 246.005 127.133 245.531C127.133 244.807 127.424 244.253 128.008 243.867C128.596 243.477 129.367 243.281 130.32 243.281C130.836 243.281 131.318 243.333 131.766 243.438C132.219 243.536 132.641 243.672 133.031 243.844L132.594 244.883C132.24 244.732 131.862 244.604 131.461 244.5C131.06 244.396 130.651 244.344 130.234 244.344C129.635 244.344 129.174 244.443 128.852 244.641C128.534 244.839 128.375 245.109 128.375 245.453C128.375 245.719 128.448 245.938 128.594 246.109C128.745 246.281 128.984 246.443 129.312 246.594C129.641 246.745 130.073 246.922 130.609 247.125C131.146 247.323 131.609 247.529 132 247.742C132.391 247.951 132.69 248.206 132.898 248.508C133.112 248.805 133.219 249.188 133.219 249.656ZM140.844 249.656C140.844 250.203 140.706 250.664 140.43 251.039C140.159 251.409 139.768 251.688 139.258 251.875C138.753 252.062 138.148 252.156 137.445 252.156C136.846 252.156 136.328 252.109 135.891 252.016C135.453 251.922 135.07 251.789 134.742 251.617V250.422C135.091 250.594 135.508 250.75 135.992 250.891C136.477 251.031 136.971 251.102 137.477 251.102C138.216 251.102 138.753 250.982 139.086 250.742C139.419 250.503 139.586 250.177 139.586 249.766C139.586 249.531 139.518 249.326 139.383 249.148C139.253 248.966 139.031 248.792 138.719 248.625C138.406 248.453 137.974 248.266 137.422 248.062C136.875 247.854 136.401 247.648 136 247.445C135.604 247.237 135.297 246.984 135.078 246.688C134.865 246.391 134.758 246.005 134.758 245.531C134.758 244.807 135.049 244.253 135.633 243.867C136.221 243.477 136.992 243.281 137.945 243.281C138.461 243.281 138.943 243.333 139.391 243.438C139.844 243.536 140.266 243.672 140.656 243.844L140.219 244.883C139.865 244.732 139.487 244.604 139.086 244.5C138.685 244.396 138.276 244.344 137.859 244.344C137.26 244.344 136.799 244.443 136.477 244.641C136.159 244.839 136 245.109 136 245.453C136 245.719 136.073 245.938 136.219 246.109C136.37 246.281 136.609 246.443 136.938 246.594C137.266 246.745 137.698 246.922 138.234 247.125C138.771 247.323 139.234 247.529 139.625 247.742C140.016 247.951 140.315 248.206 140.523 248.508C140.737 248.805 140.844 249.188 140.844 249.656ZM144.227 243.438V252H142.93V243.438H144.227ZM143.594 240.234C143.807 240.234 143.99 240.305 144.141 240.445C144.297 240.581 144.375 240.794 144.375 241.086C144.375 241.372 144.297 241.586 144.141 241.727C143.99 241.867 143.807 241.938 143.594 241.938C143.37 241.938 143.182 241.867 143.031 241.727C142.885 241.586 142.812 241.372 142.812 241.086C142.812 240.794 142.885 240.581 143.031 240.445C143.182 240.305 143.37 240.234 143.594 240.234ZM149.367 255.844C148.242 255.844 147.375 255.633 146.766 255.211C146.156 254.794 145.852 254.208 145.852 253.453C145.852 252.917 146.021 252.458 146.359 252.078C146.703 251.698 147.177 251.445 147.781 251.32C147.557 251.216 147.365 251.06 147.203 250.852C147.047 250.643 146.969 250.404 146.969 250.133C146.969 249.82 147.055 249.547 147.227 249.312C147.404 249.073 147.672 248.844 148.031 248.625C147.583 248.443 147.219 248.135 146.938 247.703C146.661 247.266 146.523 246.758 146.523 246.18C146.523 245.565 146.651 245.042 146.906 244.609C147.161 244.172 147.531 243.839 148.016 243.609C148.5 243.38 149.086 243.266 149.773 243.266C149.924 243.266 150.076 243.273 150.227 243.289C150.383 243.299 150.531 243.318 150.672 243.344C150.812 243.365 150.935 243.391 151.039 243.422H153.977V244.258L152.398 244.453C152.555 244.656 152.685 244.901 152.789 245.188C152.893 245.474 152.945 245.792 152.945 246.141C152.945 246.995 152.656 247.674 152.078 248.18C151.5 248.68 150.706 248.93 149.695 248.93C149.456 248.93 149.211 248.909 148.961 248.867C148.706 249.008 148.51 249.164 148.375 249.336C148.245 249.508 148.18 249.706 148.18 249.93C148.18 250.096 148.229 250.229 148.328 250.328C148.432 250.427 148.581 250.5 148.773 250.547C148.966 250.589 149.198 250.609 149.469 250.609H150.977C151.909 250.609 152.622 250.805 153.117 251.195C153.617 251.586 153.867 252.156 153.867 252.906C153.867 253.854 153.482 254.581 152.711 255.086C151.94 255.591 150.826 255.844 149.367 255.844ZM149.406 254.828C150.115 254.828 150.701 254.755 151.164 254.609C151.633 254.469 151.982 254.263 152.211 253.992C152.445 253.727 152.562 253.409 152.562 253.039C152.562 252.695 152.484 252.435 152.328 252.258C152.172 252.086 151.943 251.971 151.641 251.914C151.339 251.852 150.969 251.82 150.531 251.82H149.047C148.661 251.82 148.326 251.88 148.039 252C147.753 252.12 147.531 252.297 147.375 252.531C147.224 252.766 147.148 253.057 147.148 253.406C147.148 253.87 147.344 254.221 147.734 254.461C148.125 254.706 148.682 254.828 149.406 254.828ZM149.742 247.984C150.362 247.984 150.828 247.828 151.141 247.516C151.453 247.203 151.609 246.747 151.609 246.148C151.609 245.508 151.451 245.029 151.133 244.711C150.815 244.388 150.346 244.227 149.727 244.227C149.133 244.227 148.674 244.393 148.352 244.727C148.034 245.055 147.875 245.536 147.875 246.172C147.875 246.755 148.036 247.203 148.359 247.516C148.682 247.828 149.143 247.984 149.742 247.984ZM159.719 243.281C160.734 243.281 161.503 243.531 162.023 244.031C162.544 244.526 162.805 245.323 162.805 246.422V252H161.523V246.508C161.523 245.794 161.359 245.26 161.031 244.906C160.708 244.552 160.211 244.375 159.539 244.375C158.591 244.375 157.924 244.643 157.539 245.18C157.154 245.716 156.961 246.495 156.961 247.516V252H155.664V243.438H156.711L156.906 244.672H156.977C157.159 244.37 157.391 244.117 157.672 243.914C157.953 243.706 158.268 243.549 158.617 243.445C158.966 243.336 159.333 243.281 159.719 243.281ZM166.773 243.438V252H165.477V243.438H166.773ZM166.141 240.234C166.354 240.234 166.536 240.305 166.688 240.445C166.844 240.581 166.922 240.794 166.922 241.086C166.922 241.372 166.844 241.586 166.688 241.727C166.536 241.867 166.354 241.938 166.141 241.938C165.917 241.938 165.729 241.867 165.578 241.727C165.432 241.586 165.359 241.372 165.359 241.086C165.359 240.794 165.432 240.581 165.578 240.445C165.729 240.305 165.917 240.234 166.141 240.234ZM173.578 243.281C174.594 243.281 175.362 243.531 175.883 244.031C176.404 244.526 176.664 245.323 176.664 246.422V252H175.383V246.508C175.383 245.794 175.219 245.26 174.891 244.906C174.568 244.552 174.07 244.375 173.398 244.375C172.451 244.375 171.784 244.643 171.398 245.18C171.013 245.716 170.82 246.495 170.82 247.516V252H169.523V243.438H170.57L170.766 244.672H170.836C171.018 244.37 171.25 244.117 171.531 243.914C171.812 243.706 172.128 243.549 172.477 243.445C172.826 243.336 173.193 243.281 173.578 243.281ZM181.727 255.844C180.602 255.844 179.734 255.633 179.125 255.211C178.516 254.794 178.211 254.208 178.211 253.453C178.211 252.917 178.38 252.458 178.719 252.078C179.062 251.698 179.536 251.445 180.141 251.32C179.917 251.216 179.724 251.06 179.562 250.852C179.406 250.643 179.328 250.404 179.328 250.133C179.328 249.82 179.414 249.547 179.586 249.312C179.763 249.073 180.031 248.844 180.391 248.625C179.943 248.443 179.578 248.135 179.297 247.703C179.021 247.266 178.883 246.758 178.883 246.18C178.883 245.565 179.01 245.042 179.266 244.609C179.521 244.172 179.891 243.839 180.375 243.609C180.859 243.38 181.445 243.266 182.133 243.266C182.284 243.266 182.435 243.273 182.586 243.289C182.742 243.299 182.891 243.318 183.031 243.344C183.172 243.365 183.294 243.391 183.398 243.422H186.336V244.258L184.758 244.453C184.914 244.656 185.044 244.901 185.148 245.188C185.253 245.474 185.305 245.792 185.305 246.141C185.305 246.995 185.016 247.674 184.438 248.18C183.859 248.68 183.065 248.93 182.055 248.93C181.815 248.93 181.57 248.909 181.32 248.867C181.065 249.008 180.87 249.164 180.734 249.336C180.604 249.508 180.539 249.706 180.539 249.93C180.539 250.096 180.589 250.229 180.688 250.328C180.792 250.427 180.94 250.5 181.133 250.547C181.326 250.589 181.557 250.609 181.828 250.609H183.336C184.268 250.609 184.982 250.805 185.477 251.195C185.977 251.586 186.227 252.156 186.227 252.906C186.227 253.854 185.841 254.581 185.07 255.086C184.299 255.591 183.185 255.844 181.727 255.844ZM181.766 254.828C182.474 254.828 183.06 254.755 183.523 254.609C183.992 254.469 184.341 254.263 184.57 253.992C184.805 253.727 184.922 253.409 184.922 253.039C184.922 252.695 184.844 252.435 184.688 252.258C184.531 252.086 184.302 251.971 184 251.914C183.698 251.852 183.328 251.82 182.891 251.82H181.406C181.021 251.82 180.685 251.88 180.398 252C180.112 252.12 179.891 252.297 179.734 252.531C179.583 252.766 179.508 253.057 179.508 253.406C179.508 253.87 179.703 254.221 180.094 254.461C180.484 254.706 181.042 254.828 181.766 254.828ZM182.102 247.984C182.721 247.984 183.188 247.828 183.5 247.516C183.812 247.203 183.969 246.747 183.969 246.148C183.969 245.508 183.81 245.029 183.492 244.711C183.174 244.388 182.706 244.227 182.086 244.227C181.492 244.227 181.034 244.393 180.711 244.727C180.393 245.055 180.234 245.536 180.234 246.172C180.234 246.755 180.396 247.203 180.719 247.516C181.042 247.828 181.503 247.984 182.102 247.984ZM196.07 243.281C196.242 243.281 196.422 243.292 196.609 243.312C196.797 243.328 196.964 243.352 197.109 243.383L196.945 244.586C196.805 244.549 196.648 244.521 196.477 244.5C196.305 244.479 196.143 244.469 195.992 244.469C195.648 244.469 195.323 244.539 195.016 244.68C194.714 244.815 194.448 245.013 194.219 245.273C193.99 245.529 193.81 245.839 193.68 246.203C193.549 246.562 193.484 246.964 193.484 247.406V252H192.18V243.438H193.258L193.398 245.016H193.453C193.63 244.698 193.844 244.409 194.094 244.148C194.344 243.883 194.633 243.672 194.961 243.516C195.294 243.359 195.664 243.281 196.07 243.281ZM206.109 247.703C206.109 248.406 206.018 249.034 205.836 249.586C205.654 250.138 205.391 250.604 205.047 250.984C204.703 251.365 204.286 251.656 203.797 251.859C203.312 252.057 202.763 252.156 202.148 252.156C201.576 252.156 201.049 252.057 200.57 251.859C200.096 251.656 199.685 251.365 199.336 250.984C198.992 250.604 198.724 250.138 198.531 249.586C198.344 249.034 198.25 248.406 198.25 247.703C198.25 246.766 198.409 245.969 198.727 245.312C199.044 244.651 199.497 244.148 200.086 243.805C200.68 243.456 201.385 243.281 202.203 243.281C202.984 243.281 203.667 243.456 204.25 243.805C204.839 244.154 205.294 244.659 205.617 245.32C205.945 245.977 206.109 246.771 206.109 247.703ZM199.594 247.703C199.594 248.391 199.685 248.987 199.867 249.492C200.049 249.997 200.331 250.388 200.711 250.664C201.091 250.94 201.581 251.078 202.18 251.078C202.773 251.078 203.26 250.94 203.641 250.664C204.026 250.388 204.31 249.997 204.492 249.492C204.674 248.987 204.766 248.391 204.766 247.703C204.766 247.021 204.674 246.432 204.492 245.938C204.31 245.438 204.029 245.052 203.648 244.781C203.268 244.51 202.776 244.375 202.172 244.375C201.281 244.375 200.628 244.669 200.211 245.258C199.799 245.846 199.594 246.661 199.594 247.703ZM215.734 247.703C215.734 248.406 215.643 249.034 215.461 249.586C215.279 250.138 215.016 250.604 214.672 250.984C214.328 251.365 213.911 251.656 213.422 251.859C212.938 252.057 212.388 252.156 211.773 252.156C211.201 252.156 210.674 252.057 210.195 251.859C209.721 251.656 209.31 251.365 208.961 250.984C208.617 250.604 208.349 250.138 208.156 249.586C207.969 249.034 207.875 248.406 207.875 247.703C207.875 246.766 208.034 245.969 208.352 245.312C208.669 244.651 209.122 244.148 209.711 243.805C210.305 243.456 211.01 243.281 211.828 243.281C212.609 243.281 213.292 243.456 213.875 243.805C214.464 244.154 214.919 244.659 215.242 245.32C215.57 245.977 215.734 246.771 215.734 247.703ZM209.219 247.703C209.219 248.391 209.31 248.987 209.492 249.492C209.674 249.997 209.956 250.388 210.336 250.664C210.716 250.94 211.206 251.078 211.805 251.078C212.398 251.078 212.885 250.94 213.266 250.664C213.651 250.388 213.935 249.997 214.117 249.492C214.299 248.987 214.391 248.391 214.391 247.703C214.391 247.021 214.299 246.432 214.117 245.938C213.935 245.438 213.654 245.052 213.273 244.781C212.893 244.51 212.401 244.375 211.797 244.375C210.906 244.375 210.253 244.669 209.836 245.258C209.424 245.846 209.219 246.661 209.219 247.703ZM227.273 243.281C228.216 243.281 228.927 243.529 229.406 244.023C229.885 244.513 230.125 245.302 230.125 246.391V252H228.844V246.453C228.844 245.76 228.693 245.242 228.391 244.898C228.094 244.549 227.651 244.375 227.062 244.375C226.234 244.375 225.633 244.615 225.258 245.094C224.883 245.573 224.695 246.279 224.695 247.211V252H223.406V246.453C223.406 245.99 223.339 245.604 223.203 245.297C223.073 244.99 222.875 244.76 222.609 244.609C222.349 244.453 222.018 244.375 221.617 244.375C221.049 244.375 220.594 244.492 220.25 244.727C219.906 244.961 219.656 245.31 219.5 245.773C219.349 246.232 219.273 246.797 219.273 247.469V252H217.977V243.438H219.023L219.219 244.648H219.289C219.461 244.352 219.677 244.102 219.938 243.898C220.198 243.695 220.49 243.542 220.812 243.438C221.135 243.333 221.479 243.281 221.844 243.281C222.495 243.281 223.039 243.404 223.477 243.648C223.919 243.888 224.24 244.255 224.438 244.75H224.508C224.789 244.255 225.174 243.888 225.664 243.648C226.154 243.404 226.69 243.281 227.273 243.281ZM240.375 252.156C239.604 252.156 238.924 251.997 238.336 251.68C237.747 251.362 237.289 250.878 236.961 250.227C236.633 249.576 236.469 248.755 236.469 247.766C236.469 246.729 236.641 245.883 236.984 245.227C237.333 244.565 237.812 244.076 238.422 243.758C239.031 243.44 239.724 243.281 240.5 243.281C240.927 243.281 241.339 243.326 241.734 243.414C242.135 243.497 242.464 243.604 242.719 243.734L242.328 244.82C242.068 244.716 241.766 244.622 241.422 244.539C241.083 244.456 240.766 244.414 240.469 244.414C239.875 244.414 239.38 244.542 238.984 244.797C238.594 245.052 238.299 245.427 238.102 245.922C237.909 246.417 237.812 247.026 237.812 247.75C237.812 248.443 237.906 249.034 238.094 249.523C238.286 250.013 238.57 250.388 238.945 250.648C239.326 250.904 239.799 251.031 240.367 251.031C240.82 251.031 241.229 250.984 241.594 250.891C241.958 250.792 242.289 250.677 242.586 250.547V251.703C242.299 251.849 241.979 251.961 241.625 252.039C241.276 252.117 240.859 252.156 240.375 252.156ZM247.82 243.297C248.841 243.297 249.599 243.526 250.094 243.984C250.589 244.443 250.836 245.174 250.836 246.18V252H249.891L249.641 250.734H249.578C249.339 251.047 249.089 251.31 248.828 251.523C248.568 251.732 248.266 251.891 247.922 252C247.583 252.104 247.167 252.156 246.672 252.156C246.151 252.156 245.688 252.065 245.281 251.883C244.88 251.701 244.562 251.424 244.328 251.055C244.099 250.685 243.984 250.216 243.984 249.648C243.984 248.794 244.323 248.138 245 247.68C245.677 247.221 246.708 246.971 248.094 246.93L249.57 246.867V246.344C249.57 245.604 249.411 245.086 249.094 244.789C248.776 244.492 248.328 244.344 247.75 244.344C247.302 244.344 246.875 244.409 246.469 244.539C246.062 244.669 245.677 244.823 245.312 245L244.914 244.016C245.299 243.818 245.742 243.648 246.242 243.508C246.742 243.367 247.268 243.297 247.82 243.297ZM249.555 247.781L248.25 247.836C247.182 247.878 246.43 248.052 245.992 248.359C245.555 248.667 245.336 249.102 245.336 249.664C245.336 250.154 245.484 250.516 245.781 250.75C246.078 250.984 246.471 251.102 246.961 251.102C247.721 251.102 248.344 250.891 248.828 250.469C249.312 250.047 249.555 249.414 249.555 248.57V247.781ZM257.562 243.281C258.578 243.281 259.346 243.531 259.867 244.031C260.388 244.526 260.648 245.323 260.648 246.422V252H259.367V246.508C259.367 245.794 259.203 245.26 258.875 244.906C258.552 244.552 258.055 244.375 257.383 244.375C256.435 244.375 255.768 244.643 255.383 245.18C254.997 245.716 254.805 246.495 254.805 247.516V252H253.508V243.438H254.555L254.75 244.672H254.82C255.003 244.37 255.234 244.117 255.516 243.914C255.797 243.706 256.112 243.549 256.461 243.445C256.81 243.336 257.177 243.281 257.562 243.281ZM270.242 251.094C270.456 251.094 270.674 251.076 270.898 251.039C271.122 251.003 271.305 250.958 271.445 250.906V251.914C271.294 251.982 271.083 252.039 270.812 252.086C270.547 252.133 270.286 252.156 270.031 252.156C269.578 252.156 269.167 252.078 268.797 251.922C268.427 251.76 268.13 251.49 267.906 251.109C267.688 250.729 267.578 250.203 267.578 249.531V244.453H266.359V243.82L267.586 243.312L268.102 241.453H268.883V243.438H271.391V244.453H268.883V249.492C268.883 250.029 269.005 250.43 269.25 250.695C269.5 250.961 269.831 251.094 270.242 251.094ZM276.383 243.297C277.404 243.297 278.161 243.526 278.656 243.984C279.151 244.443 279.398 245.174 279.398 246.18V252H278.453L278.203 250.734H278.141C277.901 251.047 277.651 251.31 277.391 251.523C277.13 251.732 276.828 251.891 276.484 252C276.146 252.104 275.729 252.156 275.234 252.156C274.714 252.156 274.25 252.065 273.844 251.883C273.443 251.701 273.125 251.424 272.891 251.055C272.661 250.685 272.547 250.216 272.547 249.648C272.547 248.794 272.885 248.138 273.562 247.68C274.24 247.221 275.271 246.971 276.656 246.93L278.133 246.867V246.344C278.133 245.604 277.974 245.086 277.656 244.789C277.339 244.492 276.891 244.344 276.312 244.344C275.865 244.344 275.438 244.409 275.031 244.539C274.625 244.669 274.24 244.823 273.875 245L273.477 244.016C273.862 243.818 274.305 243.648 274.805 243.508C275.305 243.367 275.831 243.297 276.383 243.297ZM278.117 247.781L276.812 247.836C275.745 247.878 274.992 248.052 274.555 248.359C274.117 248.667 273.898 249.102 273.898 249.664C273.898 250.154 274.047 250.516 274.344 250.75C274.641 250.984 275.034 251.102 275.523 251.102C276.284 251.102 276.906 250.891 277.391 250.469C277.875 250.047 278.117 249.414 278.117 248.57V247.781ZM283.359 239.844V246.156C283.359 246.365 283.352 246.62 283.336 246.922C283.32 247.219 283.307 247.482 283.297 247.711H283.352C283.461 247.576 283.62 247.375 283.828 247.109C284.042 246.844 284.221 246.63 284.367 246.469L287.211 243.438H288.734L285.289 247.094L288.984 252H287.422L284.398 247.945L283.359 248.898V252H282.07V239.844H283.359ZM293.773 243.281C294.503 243.281 295.128 243.443 295.648 243.766C296.169 244.089 296.568 244.542 296.844 245.125C297.12 245.703 297.258 246.38 297.258 247.156V247.961H291.344C291.359 248.966 291.609 249.732 292.094 250.258C292.578 250.784 293.26 251.047 294.141 251.047C294.682 251.047 295.161 250.997 295.578 250.898C295.995 250.799 296.427 250.654 296.875 250.461V251.602C296.443 251.794 296.013 251.935 295.586 252.023C295.164 252.112 294.664 252.156 294.086 252.156C293.263 252.156 292.544 251.99 291.93 251.656C291.32 251.318 290.846 250.823 290.508 250.172C290.169 249.521 290 248.724 290 247.781C290 246.859 290.154 246.062 290.461 245.391C290.773 244.714 291.211 244.193 291.773 243.828C292.341 243.464 293.008 243.281 293.773 243.281ZM293.758 244.344C293.065 244.344 292.513 244.57 292.102 245.023C291.69 245.477 291.445 246.109 291.367 246.922H295.898C295.893 246.411 295.812 245.964 295.656 245.578C295.505 245.188 295.273 244.885 294.961 244.672C294.648 244.453 294.247 244.344 293.758 244.344ZM310.688 243.438V252H309.625L309.438 250.797H309.367C309.19 251.094 308.961 251.344 308.68 251.547C308.398 251.75 308.081 251.901 307.727 252C307.378 252.104 307.005 252.156 306.609 252.156C305.932 252.156 305.365 252.047 304.906 251.828C304.448 251.609 304.102 251.271 303.867 250.812C303.638 250.354 303.523 249.766 303.523 249.047V243.438H304.836V248.953C304.836 249.667 304.997 250.201 305.32 250.555C305.643 250.904 306.135 251.078 306.797 251.078C307.432 251.078 307.938 250.958 308.312 250.719C308.693 250.479 308.966 250.128 309.133 249.664C309.299 249.195 309.383 248.622 309.383 247.945V243.438H310.688ZM317.453 243.281C318.521 243.281 319.372 243.648 320.008 244.383C320.643 245.117 320.961 246.221 320.961 247.695C320.961 248.669 320.815 249.487 320.523 250.148C320.232 250.81 319.82 251.31 319.289 251.648C318.763 251.987 318.141 252.156 317.422 252.156C316.969 252.156 316.57 252.096 316.227 251.977C315.883 251.857 315.589 251.695 315.344 251.492C315.099 251.289 314.896 251.068 314.734 250.828H314.641C314.656 251.031 314.674 251.276 314.695 251.562C314.721 251.849 314.734 252.099 314.734 252.312V255.828H313.43V243.438H314.5L314.672 244.703H314.734C314.901 244.443 315.104 244.206 315.344 243.992C315.583 243.773 315.875 243.602 316.219 243.477C316.568 243.346 316.979 243.281 317.453 243.281ZM317.227 244.375C316.633 244.375 316.154 244.49 315.789 244.719C315.43 244.948 315.167 245.292 315 245.75C314.833 246.203 314.745 246.773 314.734 247.461V247.711C314.734 248.435 314.812 249.047 314.969 249.547C315.13 250.047 315.393 250.427 315.758 250.688C316.128 250.948 316.622 251.078 317.242 251.078C317.773 251.078 318.216 250.935 318.57 250.648C318.924 250.362 319.188 249.964 319.359 249.453C319.536 248.938 319.625 248.346 319.625 247.68C319.625 246.669 319.427 245.867 319.031 245.273C318.641 244.674 318.039 244.375 317.227 244.375ZM330.148 251.094C330.362 251.094 330.581 251.076 330.805 251.039C331.029 251.003 331.211 250.958 331.352 250.906V251.914C331.201 251.982 330.99 252.039 330.719 252.086C330.453 252.133 330.193 252.156 329.938 252.156C329.484 252.156 329.073 252.078 328.703 251.922C328.333 251.76 328.036 251.49 327.812 251.109C327.594 250.729 327.484 250.203 327.484 249.531V244.453H326.266V243.82L327.492 243.312L328.008 241.453H328.789V243.438H331.297V244.453H328.789V249.492C328.789 250.029 328.911 250.43 329.156 250.695C329.406 250.961 329.737 251.094 330.148 251.094ZM340.469 247.703C340.469 248.406 340.378 249.034 340.195 249.586C340.013 250.138 339.75 250.604 339.406 250.984C339.062 251.365 338.646 251.656 338.156 251.859C337.672 252.057 337.122 252.156 336.508 252.156C335.935 252.156 335.409 252.057 334.93 251.859C334.456 251.656 334.044 251.365 333.695 250.984C333.352 250.604 333.083 250.138 332.891 249.586C332.703 249.034 332.609 248.406 332.609 247.703C332.609 246.766 332.768 245.969 333.086 245.312C333.404 244.651 333.857 244.148 334.445 243.805C335.039 243.456 335.745 243.281 336.562 243.281C337.344 243.281 338.026 243.456 338.609 243.805C339.198 244.154 339.654 244.659 339.977 245.32C340.305 245.977 340.469 246.771 340.469 247.703ZM333.953 247.703C333.953 248.391 334.044 248.987 334.227 249.492C334.409 249.997 334.69 250.388 335.07 250.664C335.451 250.94 335.94 251.078 336.539 251.078C337.133 251.078 337.62 250.94 338 250.664C338.385 250.388 338.669 249.997 338.852 249.492C339.034 248.987 339.125 248.391 339.125 247.703C339.125 247.021 339.034 246.432 338.852 245.938C338.669 245.438 338.388 245.052 338.008 244.781C337.628 244.51 337.135 244.375 336.531 244.375C335.641 244.375 334.987 244.669 334.57 245.258C334.159 245.846 333.953 246.661 333.953 247.703ZM354.344 249.352H352.633V252H351.367V249.352H345.844V248.258L351.281 240.516H352.633V248.18H354.344V249.352ZM351.367 248.18V244.445C351.367 244.159 351.37 243.901 351.375 243.672C351.38 243.438 351.388 243.221 351.398 243.023C351.409 242.82 351.417 242.628 351.422 242.445C351.432 242.263 351.44 242.083 351.445 241.906H351.383C351.284 242.115 351.169 242.336 351.039 242.57C350.914 242.799 350.786 243.005 350.656 243.188L347.133 248.18H351.367ZM359.055 245.016C359.831 245.016 360.505 245.148 361.078 245.414C361.651 245.674 362.094 246.055 362.406 246.555C362.724 247.055 362.883 247.661 362.883 248.375C362.883 249.156 362.714 249.831 362.375 250.398C362.036 250.961 361.549 251.396 360.914 251.703C360.279 252.005 359.518 252.156 358.633 252.156C358.039 252.156 357.487 252.104 356.977 252C356.466 251.896 356.036 251.74 355.688 251.531V250.297C356.068 250.526 356.529 250.708 357.07 250.844C357.612 250.979 358.138 251.047 358.648 251.047C359.227 251.047 359.732 250.956 360.164 250.773C360.602 250.586 360.94 250.305 361.18 249.93C361.424 249.549 361.547 249.073 361.547 248.5C361.547 247.74 361.312 247.154 360.844 246.742C360.38 246.326 359.646 246.117 358.641 246.117C358.318 246.117 357.964 246.143 357.578 246.195C357.193 246.247 356.875 246.305 356.625 246.367L355.969 245.938L356.406 240.578H362.086V241.766H357.516L357.227 245.211C357.424 245.169 357.68 245.128 357.992 245.086C358.305 245.039 358.659 245.016 359.055 245.016ZM214.234 271.656C214.234 272.203 214.096 272.664 213.82 273.039C213.549 273.409 213.159 273.688 212.648 273.875C212.143 274.062 211.539 274.156 210.836 274.156C210.237 274.156 209.719 274.109 209.281 274.016C208.844 273.922 208.461 273.789 208.133 273.617V272.422C208.482 272.594 208.898 272.75 209.383 272.891C209.867 273.031 210.362 273.102 210.867 273.102C211.607 273.102 212.143 272.982 212.477 272.742C212.81 272.503 212.977 272.177 212.977 271.766C212.977 271.531 212.909 271.326 212.773 271.148C212.643 270.966 212.422 270.792 212.109 270.625C211.797 270.453 211.365 270.266 210.812 270.062C210.266 269.854 209.792 269.648 209.391 269.445C208.995 269.237 208.688 268.984 208.469 268.688C208.255 268.391 208.148 268.005 208.148 267.531C208.148 266.807 208.44 266.253 209.023 265.867C209.612 265.477 210.383 265.281 211.336 265.281C211.852 265.281 212.333 265.333 212.781 265.438C213.234 265.536 213.656 265.672 214.047 265.844L213.609 266.883C213.255 266.732 212.878 266.604 212.477 266.5C212.076 266.396 211.667 266.344 211.25 266.344C210.651 266.344 210.19 266.443 209.867 266.641C209.549 266.839 209.391 267.109 209.391 267.453C209.391 267.719 209.464 267.938 209.609 268.109C209.76 268.281 210 268.443 210.328 268.594C210.656 268.745 211.089 268.922 211.625 269.125C212.161 269.323 212.625 269.529 213.016 269.742C213.406 269.951 213.706 270.206 213.914 270.508C214.128 270.805 214.234 271.188 214.234 271.656ZM219.617 265.281C220.346 265.281 220.971 265.443 221.492 265.766C222.013 266.089 222.411 266.542 222.688 267.125C222.964 267.703 223.102 268.38 223.102 269.156V269.961H217.188C217.203 270.966 217.453 271.732 217.938 272.258C218.422 272.784 219.104 273.047 219.984 273.047C220.526 273.047 221.005 272.997 221.422 272.898C221.839 272.799 222.271 272.654 222.719 272.461V273.602C222.286 273.794 221.857 273.935 221.43 274.023C221.008 274.112 220.508 274.156 219.93 274.156C219.107 274.156 218.388 273.99 217.773 273.656C217.164 273.318 216.69 272.823 216.352 272.172C216.013 271.521 215.844 270.724 215.844 269.781C215.844 268.859 215.997 268.062 216.305 267.391C216.617 266.714 217.055 266.193 217.617 265.828C218.185 265.464 218.852 265.281 219.617 265.281ZM219.602 266.344C218.909 266.344 218.357 266.57 217.945 267.023C217.534 267.477 217.289 268.109 217.211 268.922H221.742C221.737 268.411 221.656 267.964 221.5 267.578C221.349 267.188 221.117 266.885 220.805 266.672C220.492 266.453 220.091 266.344 219.602 266.344ZM228.734 274.156C227.964 274.156 227.284 273.997 226.695 273.68C226.107 273.362 225.648 272.878 225.32 272.227C224.992 271.576 224.828 270.755 224.828 269.766C224.828 268.729 225 267.883 225.344 267.227C225.693 266.565 226.172 266.076 226.781 265.758C227.391 265.44 228.083 265.281 228.859 265.281C229.286 265.281 229.698 265.326 230.094 265.414C230.495 265.497 230.823 265.604 231.078 265.734L230.688 266.82C230.427 266.716 230.125 266.622 229.781 266.539C229.443 266.456 229.125 266.414 228.828 266.414C228.234 266.414 227.74 266.542 227.344 266.797C226.953 267.052 226.659 267.427 226.461 267.922C226.268 268.417 226.172 269.026 226.172 269.75C226.172 270.443 226.266 271.034 226.453 271.523C226.646 272.013 226.93 272.388 227.305 272.648C227.685 272.904 228.159 273.031 228.727 273.031C229.18 273.031 229.589 272.984 229.953 272.891C230.318 272.792 230.648 272.677 230.945 272.547V273.703C230.659 273.849 230.339 273.961 229.984 274.039C229.635 274.117 229.219 274.156 228.734 274.156ZM240.359 269.703C240.359 270.406 240.268 271.034 240.086 271.586C239.904 272.138 239.641 272.604 239.297 272.984C238.953 273.365 238.536 273.656 238.047 273.859C237.562 274.057 237.013 274.156 236.398 274.156C235.826 274.156 235.299 274.057 234.82 273.859C234.346 273.656 233.935 273.365 233.586 272.984C233.242 272.604 232.974 272.138 232.781 271.586C232.594 271.034 232.5 270.406 232.5 269.703C232.5 268.766 232.659 267.969 232.977 267.312C233.294 266.651 233.747 266.148 234.336 265.805C234.93 265.456 235.635 265.281 236.453 265.281C237.234 265.281 237.917 265.456 238.5 265.805C239.089 266.154 239.544 266.659 239.867 267.32C240.195 267.977 240.359 268.771 240.359 269.703ZM233.844 269.703C233.844 270.391 233.935 270.987 234.117 271.492C234.299 271.997 234.581 272.388 234.961 272.664C235.341 272.94 235.831 273.078 236.43 273.078C237.023 273.078 237.51 272.94 237.891 272.664C238.276 272.388 238.56 271.997 238.742 271.492C238.924 270.987 239.016 270.391 239.016 269.703C239.016 269.021 238.924 268.432 238.742 267.938C238.56 267.438 238.279 267.052 237.898 266.781C237.518 266.51 237.026 266.375 236.422 266.375C235.531 266.375 234.878 266.669 234.461 267.258C234.049 267.846 233.844 268.661 233.844 269.703ZM246.656 265.281C247.672 265.281 248.44 265.531 248.961 266.031C249.482 266.526 249.742 267.323 249.742 268.422V274H248.461V268.508C248.461 267.794 248.297 267.26 247.969 266.906C247.646 266.552 247.148 266.375 246.477 266.375C245.529 266.375 244.862 266.643 244.477 267.18C244.091 267.716 243.898 268.495 243.898 269.516V274H242.602V265.438H243.648L243.844 266.672H243.914C244.096 266.37 244.328 266.117 244.609 265.914C244.891 265.706 245.206 265.549 245.555 265.445C245.904 265.336 246.271 265.281 246.656 265.281ZM255.461 274.156C254.378 274.156 253.518 273.786 252.883 273.047C252.253 272.307 251.938 271.208 251.938 269.75C251.938 268.276 252.26 267.164 252.906 266.414C253.552 265.659 254.411 265.281 255.484 265.281C255.938 265.281 256.333 265.341 256.672 265.461C257.01 265.581 257.302 265.742 257.547 265.945C257.792 266.143 257.997 266.37 258.164 266.625H258.258C258.237 266.464 258.216 266.242 258.195 265.961C258.174 265.68 258.164 265.451 258.164 265.273V261.844H259.461V274H258.414L258.219 272.781H258.164C258.003 273.036 257.797 273.268 257.547 273.477C257.302 273.685 257.008 273.852 256.664 273.977C256.326 274.096 255.924 274.156 255.461 274.156ZM255.664 273.078C256.581 273.078 257.229 272.818 257.609 272.297C257.99 271.776 258.18 271.003 258.18 269.977V269.742C258.18 268.654 257.997 267.818 257.633 267.234C257.273 266.651 256.617 266.359 255.664 266.359C254.867 266.359 254.271 266.667 253.875 267.281C253.479 267.891 253.281 268.724 253.281 269.781C253.281 270.833 253.477 271.646 253.867 272.219C254.263 272.792 254.862 273.078 255.664 273.078ZM267.75 271.656C267.75 272.203 267.612 272.664 267.336 273.039C267.065 273.409 266.674 273.688 266.164 273.875C265.659 274.062 265.055 274.156 264.352 274.156C263.753 274.156 263.234 274.109 262.797 274.016C262.359 273.922 261.977 273.789 261.648 273.617V272.422C261.997 272.594 262.414 272.75 262.898 272.891C263.383 273.031 263.878 273.102 264.383 273.102C265.122 273.102 265.659 272.982 265.992 272.742C266.326 272.503 266.492 272.177 266.492 271.766C266.492 271.531 266.424 271.326 266.289 271.148C266.159 270.966 265.938 270.792 265.625 270.625C265.312 270.453 264.88 270.266 264.328 270.062C263.781 269.854 263.307 269.648 262.906 269.445C262.51 269.237 262.203 268.984 261.984 268.688C261.771 268.391 261.664 268.005 261.664 267.531C261.664 266.807 261.956 266.253 262.539 265.867C263.128 265.477 263.898 265.281 264.852 265.281C265.367 265.281 265.849 265.333 266.297 265.438C266.75 265.536 267.172 265.672 267.562 265.844L267.125 266.883C266.771 266.732 266.393 266.604 265.992 266.5C265.591 266.396 265.182 266.344 264.766 266.344C264.167 266.344 263.706 266.443 263.383 266.641C263.065 266.839 262.906 267.109 262.906 267.453C262.906 267.719 262.979 267.938 263.125 268.109C263.276 268.281 263.516 268.443 263.844 268.594C264.172 268.745 264.604 268.922 265.141 269.125C265.677 269.323 266.141 269.529 266.531 269.742C266.922 269.951 267.221 270.206 267.43 270.508C267.643 270.805 267.75 271.188 267.75 271.656ZM269.641 273.188C269.641 272.823 269.729 272.565 269.906 272.414C270.083 272.258 270.299 272.18 270.555 272.18C270.82 272.18 271.044 272.258 271.227 272.414C271.409 272.565 271.5 272.823 271.5 273.188C271.5 273.547 271.409 273.81 271.227 273.977C271.044 274.138 270.82 274.219 270.555 274.219C270.299 274.219 270.083 274.138 269.906 273.977C269.729 273.81 269.641 273.547 269.641 273.188Z" fill="#31344E"/>
<g filter="url(#filter6_d_3926_12744)">
<rect x="64" y="311" width="352" height="64" rx="5" fill="#1A1040" shape-rendering="crispEdges"/>
<path d="M209.707 338.145C209.012 338.145 208.395 338.281 207.855 338.555C207.324 338.82 206.875 339.207 206.508 339.715C206.148 340.223 205.875 340.836 205.688 341.555C205.5 342.273 205.406 343.082 205.406 343.98C205.406 345.191 205.555 346.227 205.852 347.086C206.156 347.938 206.625 348.59 207.258 349.043C207.891 349.488 208.707 349.711 209.707 349.711C210.402 349.711 211.098 349.633 211.793 349.477C212.496 349.32 213.258 349.098 214.078 348.809V351.855C213.32 352.168 212.574 352.391 211.84 352.523C211.105 352.664 210.281 352.734 209.367 352.734C207.602 352.734 206.148 352.371 205.008 351.645C203.875 350.91 203.035 349.887 202.488 348.574C201.941 347.254 201.668 345.715 201.668 343.957C201.668 342.66 201.844 341.473 202.195 340.395C202.547 339.316 203.062 338.383 203.742 337.594C204.422 336.805 205.262 336.195 206.262 335.766C207.262 335.336 208.41 335.121 209.707 335.121C210.559 335.121 211.41 335.23 212.262 335.449C213.121 335.66 213.941 335.953 214.723 336.328L213.551 339.281C212.91 338.977 212.266 338.711 211.617 338.484C210.969 338.258 210.332 338.145 209.707 338.145ZM222.82 339.129C224.578 339.129 225.926 339.512 226.863 340.277C227.801 341.043 228.27 342.207 228.27 343.77V352.5H225.773L225.082 350.719H224.988C224.613 351.188 224.23 351.57 223.84 351.867C223.449 352.164 223 352.383 222.492 352.523C221.984 352.664 221.367 352.734 220.641 352.734C219.867 352.734 219.172 352.586 218.555 352.289C217.945 351.992 217.465 351.539 217.113 350.93C216.762 350.312 216.586 349.531 216.586 348.586C216.586 347.195 217.074 346.172 218.051 345.516C219.027 344.852 220.492 344.484 222.445 344.414L224.719 344.344V343.77C224.719 343.082 224.539 342.578 224.18 342.258C223.82 341.938 223.32 341.777 222.68 341.777C222.047 341.777 221.426 341.867 220.816 342.047C220.207 342.227 219.598 342.453 218.988 342.727L217.805 340.312C218.5 339.945 219.277 339.656 220.137 339.445C221.004 339.234 221.898 339.129 222.82 339.129ZM224.719 346.43L223.336 346.477C222.18 346.508 221.375 346.715 220.922 347.098C220.477 347.48 220.254 347.984 220.254 348.609C220.254 349.156 220.414 349.547 220.734 349.781C221.055 350.008 221.473 350.121 221.988 350.121C222.754 350.121 223.398 349.895 223.922 349.441C224.453 348.988 224.719 348.344 224.719 347.508V346.43ZM239.402 339.152C240.801 339.152 241.926 339.535 242.777 340.301C243.629 341.059 244.055 342.277 244.055 343.957V352.5H240.48V344.848C240.48 343.91 240.309 343.203 239.965 342.727C239.629 342.25 239.098 342.012 238.371 342.012C237.277 342.012 236.531 342.383 236.133 343.125C235.734 343.867 235.535 344.938 235.535 346.336V352.5H231.961V339.398H234.691L235.172 341.074H235.371C235.652 340.621 236 340.254 236.414 339.973C236.836 339.691 237.301 339.484 237.809 339.352C238.324 339.219 238.855 339.152 239.402 339.152ZM253.055 352.734C251.758 352.734 250.652 352.5 249.738 352.031C248.824 351.555 248.129 350.82 247.652 349.828C247.176 348.836 246.938 347.566 246.938 346.02C246.938 344.418 247.207 343.113 247.746 342.105C248.293 341.09 249.047 340.344 250.008 339.867C250.977 339.391 252.098 339.152 253.371 339.152C254.277 339.152 255.059 339.242 255.715 339.422C256.379 339.594 256.957 339.801 257.449 340.043L256.395 342.809C255.832 342.582 255.309 342.398 254.824 342.258C254.34 342.109 253.855 342.035 253.371 342.035C252.746 342.035 252.227 342.184 251.812 342.48C251.398 342.77 251.09 343.207 250.887 343.793C250.684 344.379 250.582 345.113 250.582 345.996C250.582 346.863 250.691 347.582 250.91 348.152C251.129 348.723 251.445 349.148 251.859 349.43C252.273 349.703 252.777 349.84 253.371 349.84C254.113 349.84 254.773 349.742 255.352 349.547C255.93 349.344 256.492 349.062 257.039 348.703V351.762C256.492 352.105 255.918 352.352 255.316 352.5C254.723 352.656 253.969 352.734 253.055 352.734ZM265.488 339.152C266.699 339.152 267.742 339.387 268.617 339.855C269.492 340.316 270.168 340.988 270.645 341.871C271.121 342.754 271.359 343.832 271.359 345.105V346.84H262.91C262.949 347.848 263.25 348.641 263.812 349.219C264.383 349.789 265.172 350.074 266.18 350.074C267.016 350.074 267.781 349.988 268.477 349.816C269.172 349.645 269.887 349.387 270.621 349.043V351.809C269.973 352.129 269.293 352.363 268.582 352.512C267.879 352.66 267.023 352.734 266.016 352.734C264.703 352.734 263.539 352.492 262.523 352.008C261.516 351.523 260.723 350.785 260.145 349.793C259.574 348.801 259.289 347.551 259.289 346.043C259.289 344.512 259.547 343.238 260.062 342.223C260.586 341.199 261.312 340.434 262.242 339.926C263.172 339.41 264.254 339.152 265.488 339.152ZM265.512 341.695C264.816 341.695 264.238 341.918 263.777 342.363C263.324 342.809 263.062 343.508 262.992 344.461H268.008C268 343.93 267.902 343.457 267.715 343.043C267.535 342.629 267.262 342.301 266.895 342.059C266.535 341.816 266.074 341.695 265.512 341.695ZM277.84 352.5H274.266V334.266H277.84V352.5Z" fill="white"/>
</g>
</g>
</g>
<defs>
<filter id="filter0_d_3926_12744" x="12" y="152" width="227" height="72" filterUnits="userSpaceOnUse" color-interpolation-filters="sRGB">
<feFlood flood-opacity="0" result="BackgroundImageFix"/>
<feColorMatrix in="SourceAlpha" type="matrix" values="0 0 0 0 0 0 0 0 0 0 0 0 0 0 0 0 0 0 127 0" result="hardAlpha"/>
<feOffset dy="2"/>
<feGaussianBlur stdDeviation="2"/>
<feComposite in2="hardAlpha" operator="out"/>
<feColorMatrix type="matrix" values="0 0 0 0 0 0 0 0 0 0 0 0 0 0 0 0 0 0 0.25 0"/>
<feBlend mode="normal" in2="BackgroundImageFix" result="effect1_dropShadow_3926_12744"/>
<feBlend mode="normal" in="SourceGraphic" in2="effect1_dropShadow_3926_12744" result="shape"/>
</filter>
<filter id="filter1_d_3926_12744" x="12" y="78" width="227" height="72" filterUnits="userSpaceOnUse" color-interpolation-filters="sRGB">
<feFlood flood-opacity="0" result="BackgroundImageFix"/>
<feColorMatrix in="SourceAlpha" type="matrix" values="0 0 0 0 0 0 0 0 0 0 0 0 0 0 0 0 0 0 127 0" result="hardAlpha"/>
<feOffset dy="2"/>
<feGaussianBlur stdDeviation="2"/>
<feComposite in2="hardAlpha" operator="out"/>
<feColorMatrix type="matrix" values="0 0 0 0 0 0 0 0 0 0 0 0 0 0 0 0 0 0 0.25 0"/>
<feBlend mode="normal" in2="BackgroundImageFix" result="effect1_dropShadow_3926_12744"/>
<feBlend mode="normal" in="SourceGraphic" in2="effect1_dropShadow_3926_12744" result="shape"/>
</filter>
<filter id="filter2_d_3926_12744" x="240" y="75" width="229" height="74" filterUnits="userSpaceOnUse" color-interpolation-filters="sRGB">
<feFlood flood-opacity="0" result="BackgroundImageFix"/>
<feColorMatrix in="SourceAlpha" type="matrix" values="0 0 0 0 0 0 0 0 0 0 0 0 0 0 0 0 0 0 127 0" result="hardAlpha"/>
<feMorphology radius="3" operator="dilate" in="SourceAlpha" result="effect1_dropShadow_3926_12744"/>
<feOffset/>
<feGaussianBlur stdDeviation="1"/>
<feColorMatrix type="matrix" values="0 0 0 0 0.454167 0 0 0 0 0.706867 0 0 0 0 1 0 0 0 0.5 0"/>
<feBlend mode="normal" in2="BackgroundImageFix" result="effect1_dropShadow_3926_12744"/>
<feBlend mode="normal" in="SourceGraphic" in2="effect1_dropShadow_3926_12744" result="shape"/>
</filter>
<filter id="filter3_d_3926_12744" x="12" y="382" width="224" height="88" filterUnits="userSpaceOnUse" color-interpolation-filters="sRGB">
<feFlood flood-opacity="0" result="BackgroundImageFix"/>
<feColorMatrix in="SourceAlpha" type="matrix" values="0 0 0 0 0 0 0 0 0 0 0 0 0 0 0 0 0 0 127 0" result="hardAlpha"/>
<feOffset dy="2"/>
<feGaussianBlur stdDeviation="2"/>
<feComposite in2="hardAlpha" operator="out"/>
<feColorMatrix type="matrix" values="0 0 0 0 0 0 0 0 0 0 0 0 0 0 0 0 0 0 0.25 0"/>
<feBlend mode="normal" in2="BackgroundImageFix" result="effect1_dropShadow_3926_12744"/>
<feBlend mode="normal" in="SourceGraphic" in2="effect1_dropShadow_3926_12744" result="shape"/>
</filter>
<filter id="filter4_d_3926_12744" x="244" y="382" width="224" height="88" filterUnits="userSpaceOnUse" color-interpolation-filters="sRGB">
<feFlood flood-opacity="0" result="BackgroundImageFix"/>
<feColorMatrix in="SourceAlpha" type="matrix" values="0 0 0 0 0 0 0 0 0 0 0 0 0 0 0 0 0 0 127 0" result="hardAlpha"/>
<feOffset dy="2"/>
<feGaussianBlur stdDeviation="2"/>
<feComposite in2="hardAlpha" operator="out"/>
<feColorMatrix type="matrix" values="0 0 0 0 0 0 0 0 0 0 0 0 0 0 0 0 0 0 0.25 0"/>
<feBlend mode="normal" in2="BackgroundImageFix" result="effect1_dropShadow_3926_12744"/>
<feBlend mode="normal" in="SourceGraphic" in2="effect1_dropShadow_3926_12744" result="shape"/>
</filter>
<filter id="filter5_d_3926_12744" x="30" y="74" width="424" height="341" filterUnits="userSpaceOnUse" color-interpolation-filters="sRGB">
<feFlood flood-opacity="0" result="BackgroundImageFix"/>
<feColorMatrix in="SourceAlpha" type="matrix" values="0 0 0 0 0 0 0 0 0 0 0 0 0 0 0 0 0 0 127 0" result="hardAlpha"/>
<feOffset dx="2" dy="4"/>
<feGaussianBlur stdDeviation="2"/>
<feComposite in2="hardAlpha" operator="out"/>
<feColorMatrix type="matrix" values="0 0 0 0 0 0 0 0 0 0 0 0 0 0 0 0 0 0 0.25 0"/>
<feBlend mode="normal" in2="BackgroundImageFix" result="effect1_dropShadow_3926_12744"/>
<feBlend mode="normal" in="SourceGraphic" in2="effect1_dropShadow_3926_12744" result="shape"/>
</filter>
<filter id="filter6_d_3926_12744" x="60" y="309" width="360" height="72" filterUnits="userSpaceOnUse" color-interpolation-filters="sRGB">
<feFlood flood-opacity="0" result="BackgroundImageFix"/>
<feColorMatrix in="SourceAlpha" type="matrix" values="0 0 0 0 0 0 0 0 0 0 0 0 0 0 0 0 0 0 127 0" result="hardAlpha"/>
<feOffset dy="2"/>
<feGaussianBlur stdDeviation="2"/>
<feComposite in2="hardAlpha" operator="out"/>
<feColorMatrix type="matrix" values="0 0 0 0 0 0 0 0 0 0 0 0 0 0 0 0 0 0 0.25 0"/>
<feBlend mode="normal" in2="BackgroundImageFix" result="effect1_dropShadow_3926_12744"/>
<feBlend mode="normal" in="SourceGraphic" in2="effect1_dropShadow_3926_12744" result="shape"/>
</filter>
<clipPath id="clip0_3926_12744">
<rect width="480" height="480" fill="white"/>
</clipPath>
</defs>
</svg>
