<svg width="480" height="480" viewBox="0 0 480 480" fill="none" xmlns="http://www.w3.org/2000/svg">
<rect width="480" height="480" fill="white"/>
<rect x="17.5" y="17.5" width="445" height="445" rx="4.5" fill="white" stroke="#7700C6" stroke-width="3"/>
<path d="M151.797 45.1562C153.87 45.1562 155.578 45.4062 156.922 45.9062C158.276 46.4062 159.281 47.1615 159.938 48.1719C160.594 49.1823 160.922 50.4583 160.922 52C160.922 53.0417 160.724 53.9531 160.328 54.7344C159.932 55.5156 159.411 56.1771 158.766 56.7188C158.12 57.2604 157.422 57.7031 156.672 58.0469L163.391 68H158.016L152.562 59.2344H149.984V68H145.141V45.1562H151.797ZM151.453 49.125H149.984V55.2969H151.547C153.151 55.2969 154.297 55.0312 154.984 54.5C155.682 53.9583 156.031 53.1667 156.031 52.125C156.031 51.0417 155.656 50.2708 154.906 49.8125C154.167 49.3542 153.016 49.125 151.453 49.125ZM179.422 68H166.266V45.1562H179.422V49.125H171.109V54.1406H178.844V58.1094H171.109V64H179.422V68ZM191.5 45.1562C194.448 45.1562 196.599 45.7917 197.953 47.0625C199.307 48.3229 199.984 50.0625 199.984 52.2812C199.984 53.2812 199.833 54.2396 199.531 55.1562C199.229 56.0625 198.734 56.8698 198.047 57.5781C197.37 58.2865 196.464 58.849 195.328 59.2656C194.193 59.6719 192.792 59.875 191.125 59.875H189.047V68H184.203V45.1562H191.5ZM191.25 49.125H189.047V55.9062H190.641C191.547 55.9062 192.333 55.7865 193 55.5469C193.667 55.3073 194.182 54.9323 194.547 54.4219C194.911 53.9115 195.094 53.2552 195.094 52.4531C195.094 51.3281 194.781 50.4948 194.156 49.9531C193.531 49.401 192.562 49.125 191.25 49.125ZM225.031 56.5469C225.031 58.3073 224.812 59.9115 224.375 61.3594C223.938 62.7969 223.271 64.0365 222.375 65.0781C221.49 66.1198 220.365 66.9219 219 67.4844C217.635 68.0365 216.021 68.3125 214.156 68.3125C212.292 68.3125 210.677 68.0365 209.312 67.4844C207.948 66.9219 206.818 66.1198 205.922 65.0781C205.036 64.0365 204.375 62.7917 203.938 61.3438C203.5 59.8958 203.281 58.2865 203.281 56.5156C203.281 54.151 203.667 52.0938 204.438 50.3438C205.219 48.5833 206.417 47.2188 208.031 46.25C209.646 45.2812 211.698 44.7969 214.188 44.7969C216.667 44.7969 218.703 45.2812 220.297 46.25C221.901 47.2188 223.089 48.5833 223.859 50.3438C224.641 52.1042 225.031 54.1719 225.031 56.5469ZM208.359 56.5469C208.359 58.1406 208.557 59.5156 208.953 60.6719C209.359 61.8177 209.99 62.7031 210.844 63.3281C211.698 63.9427 212.802 64.25 214.156 64.25C215.531 64.25 216.646 63.9427 217.5 63.3281C218.354 62.7031 218.974 61.8177 219.359 60.6719C219.755 59.5156 219.953 58.1406 219.953 56.5469C219.953 54.151 219.505 52.2656 218.609 50.8906C217.714 49.5156 216.24 48.8281 214.188 48.8281C212.823 48.8281 211.708 49.1406 210.844 49.7656C209.99 50.3802 209.359 51.2656 208.953 52.4219C208.557 53.5677 208.359 54.9427 208.359 56.5469ZM243.25 61.6562C243.25 63.0104 242.922 64.1875 242.266 65.1875C241.609 66.1875 240.651 66.9583 239.391 67.5C238.141 68.0417 236.62 68.3125 234.828 68.3125C234.036 68.3125 233.26 68.2604 232.5 68.1562C231.75 68.0521 231.026 67.901 230.328 67.7031C229.641 67.4948 228.984 67.2396 228.359 66.9375V62.4375C229.443 62.9167 230.568 63.349 231.734 63.7344C232.901 64.1198 234.057 64.3125 235.203 64.3125C235.995 64.3125 236.63 64.2083 237.109 64C237.599 63.7917 237.953 63.5052 238.172 63.1406C238.391 62.776 238.5 62.3594 238.5 61.8906C238.5 61.3177 238.307 60.8281 237.922 60.4219C237.536 60.0156 237.005 59.6354 236.328 59.2812C235.661 58.9271 234.906 58.5469 234.062 58.1406C233.531 57.8906 232.953 57.5885 232.328 57.2344C231.703 56.8698 231.109 56.4271 230.547 55.9062C229.984 55.3854 229.521 54.7552 229.156 54.0156C228.802 53.2656 228.625 52.3698 228.625 51.3281C228.625 49.9635 228.938 48.7969 229.562 47.8281C230.188 46.8594 231.078 46.1198 232.234 45.6094C233.401 45.0885 234.776 44.8281 236.359 44.8281C237.547 44.8281 238.677 44.9688 239.75 45.25C240.833 45.5208 241.964 45.9167 243.141 46.4375L241.578 50.2031C240.526 49.776 239.583 49.4479 238.75 49.2188C237.917 48.9792 237.068 48.8594 236.203 48.8594C235.599 48.8594 235.083 48.9583 234.656 49.1562C234.229 49.3438 233.906 49.6146 233.688 49.9688C233.469 50.3125 233.359 50.7135 233.359 51.1719C233.359 51.7135 233.516 52.1719 233.828 52.5469C234.151 52.9115 234.63 53.2656 235.266 53.6094C235.911 53.9531 236.714 54.3542 237.672 54.8125C238.839 55.3646 239.833 55.9427 240.656 56.5469C241.49 57.1406 242.13 57.8438 242.578 58.6562C243.026 59.4583 243.25 60.4583 243.25 61.6562ZM247.391 68V45.1562H252.234V68H247.391ZM266.797 68H261.953V49.1875H255.75V45.1562H273V49.1875H266.797V68ZM276.516 68V45.1562H281.359V68H276.516ZM307.844 56.5469C307.844 58.3073 307.625 59.9115 307.188 61.3594C306.75 62.7969 306.083 64.0365 305.188 65.0781C304.302 66.1198 303.177 66.9219 301.812 67.4844C300.448 68.0365 298.833 68.3125 296.969 68.3125C295.104 68.3125 293.49 68.0365 292.125 67.4844C290.76 66.9219 289.63 66.1198 288.734 65.0781C287.849 64.0365 287.188 62.7917 286.75 61.3438C286.312 59.8958 286.094 58.2865 286.094 56.5156C286.094 54.151 286.479 52.0938 287.25 50.3438C288.031 48.5833 289.229 47.2188 290.844 46.25C292.458 45.2812 294.51 44.7969 297 44.7969C299.479 44.7969 301.516 45.2812 303.109 46.25C304.714 47.2188 305.901 48.5833 306.672 50.3438C307.453 52.1042 307.844 54.1719 307.844 56.5469ZM291.172 56.5469C291.172 58.1406 291.37 59.5156 291.766 60.6719C292.172 61.8177 292.802 62.7031 293.656 63.3281C294.51 63.9427 295.615 64.25 296.969 64.25C298.344 64.25 299.458 63.9427 300.312 63.3281C301.167 62.7031 301.786 61.8177 302.172 60.6719C302.568 59.5156 302.766 58.1406 302.766 56.5469C302.766 54.151 302.318 52.2656 301.422 50.8906C300.526 49.5156 299.052 48.8281 297 48.8281C295.635 48.8281 294.521 49.1406 293.656 49.7656C292.802 50.3802 292.172 51.2656 291.766 52.4219C291.37 53.5677 291.172 54.9427 291.172 56.5469ZM332.844 68H326.688L316.75 50.7188H316.609C316.651 51.4375 316.688 52.1615 316.719 52.8906C316.75 53.6198 316.781 54.349 316.812 55.0781C316.844 55.7969 316.875 56.5208 316.906 57.25V68H312.578V45.1562H318.688L328.609 62.2656H328.719C328.698 61.5573 328.672 60.8542 328.641 60.1562C328.609 59.4583 328.578 58.7604 328.547 58.0625C328.526 57.3646 328.505 56.6667 328.484 55.9688V45.1562H332.844V68Z" fill="#31344E"/>
<path d="M16 94H464V458C464 461.314 461.314 464 458 464H22C18.6863 464 16 461.314 16 458V94Z" fill="#7700C6"/>
<path d="M281.77 232C283.766 232 285.385 233.619 285.385 235.615V257.308C285.385 259.304 283.766 260.923 281.77 260.923H260.077C258.08 260.923 256.462 259.304 256.462 257.308C256.462 255.311 258.08 253.692 260.077 253.692H275.437C275.246 253.549 275.067 253.385 274.902 253.199C267.343 244.663 256.094 239.23 243.498 239.23C220.59 239.231 202.23 257.151 202.23 279C202.23 300.849 220.59 318.769 243.498 318.77C260.857 318.77 272.373 309.05 278.412 293.929C279.153 292.074 281.256 291.172 283.11 291.912C284.964 292.653 285.867 294.756 285.127 296.61C278.192 313.975 264.323 326 243.498 326C216.83 326 195 305.072 195 279C195 252.928 216.83 232 243.498 232C257.057 232 269.341 237.397 278.153 246.119V235.615C278.153 233.619 279.773 232 281.77 232ZM244.444 266.489C247.998 266.489 251.289 268.356 253.124 271.404L259.272 281.635C260.232 283.227 259.716 285.305 258.123 286.265C256.53 287.224 254.453 286.708 253.493 285.115L250.466 280.095V303.625C250.466 305.492 248.958 307 247.091 307C245.224 307 243.716 305.492 243.716 303.625V290.125H242.028V303.625C242.028 305.492 240.52 307 238.653 307C236.787 307 235.278 305.492 235.278 303.625V280.095L232.263 285.115C231.303 286.708 229.224 287.224 227.632 286.265C226.04 285.305 225.523 283.227 226.482 281.635L232.632 271.404C234.467 268.356 237.757 266.489 241.312 266.489H244.444ZM242.872 253C244.215 253 245.503 253.533 246.452 254.482C247.402 255.432 247.935 256.72 247.935 258.062C247.935 259.405 247.402 260.693 246.452 261.643C245.503 262.592 244.215 263.125 242.872 263.125C241.53 263.125 240.242 262.592 239.293 261.643C238.344 260.693 237.81 259.405 237.81 258.062C237.81 256.72 238.344 255.432 239.293 254.482C240.242 253.533 241.53 253 242.872 253Z" fill="white"/>
</svg>
