<svg width="480" height="480" viewBox="0 0 480 480" fill="none" xmlns="http://www.w3.org/2000/svg">
<rect width="480" height="480" fill="white"/>
<g opacity="0.6">
<rect x="17.5" y="17.5" width="349" height="77" rx="3.5" fill="white" stroke="#1A1040" stroke-width="3"/>
<path d="M43.1602 48.3672H48.4922C50.7734 48.3672 52.5 48.6875 53.6719 49.3281C54.8438 49.9688 55.4297 51.0938 55.4297 52.7031C55.4297 53.3516 55.3242 53.9375 55.1133 54.4609C54.9102 54.9844 54.6133 55.4141 54.2227 55.75C53.832 56.0859 53.3555 56.3047 52.793 56.4062V56.5234C53.3633 56.6406 53.8789 56.8438 54.3398 57.1328C54.8008 57.4141 55.168 57.8281 55.4414 58.375C55.7227 58.9141 55.8633 59.6328 55.8633 60.5312C55.8633 61.5703 55.6094 62.4609 55.1016 63.2031C54.5938 63.9453 53.8672 64.5156 52.9219 64.9141C51.9844 65.3047 50.8672 65.5 49.5703 65.5H43.1602V48.3672ZM46.793 55.1523H48.9023C49.957 55.1523 50.6875 54.9883 51.0938 54.6602C51.5 54.3242 51.7031 53.832 51.7031 53.1836C51.7031 52.5273 51.4609 52.0586 50.9766 51.7773C50.5 51.4883 49.7422 51.3438 48.7031 51.3438H46.793V55.1523ZM46.793 58.0352V62.5H49.1602C50.2539 62.5 51.0156 62.2891 51.4453 61.8672C51.875 61.4453 52.0898 60.8789 52.0898 60.168C52.0898 59.7461 51.9961 59.375 51.8086 59.0547C51.6211 58.7344 51.3047 58.4844 50.8594 58.3047C50.4219 58.125 49.8164 58.0352 49.043 58.0352H46.793ZM64.4062 52.1523C65.6172 52.1523 66.6602 52.3867 67.5352 52.8555C68.4102 53.3164 69.0859 53.9883 69.5625 54.8711C70.0391 55.7539 70.2773 56.832 70.2773 58.1055V59.8398H61.8281C61.8672 60.8477 62.168 61.6406 62.7305 62.2188C63.3008 62.7891 64.0898 63.0742 65.0977 63.0742C65.9336 63.0742 66.6992 62.9883 67.3945 62.8164C68.0898 62.6445 68.8047 62.3867 69.5391 62.043V64.8086C68.8906 65.1289 68.2109 65.3633 67.5 65.5117C66.7969 65.6602 65.9414 65.7344 64.9336 65.7344C63.6211 65.7344 62.457 65.4922 61.4414 65.0078C60.4336 64.5234 59.6406 63.7852 59.0625 62.793C58.4922 61.8008 58.207 60.5508 58.207 59.043C58.207 57.5117 58.4648 56.2383 58.9805 55.2227C59.5039 54.1992 60.2305 53.4336 61.1602 52.9258C62.0898 52.4102 63.1719 52.1523 64.4062 52.1523ZM64.4297 54.6953C63.7344 54.6953 63.1562 54.918 62.6953 55.3633C62.2422 55.8086 61.9805 56.5078 61.9102 57.4609H66.9258C66.918 56.9297 66.8203 56.457 66.6328 56.043C66.4531 55.6289 66.1797 55.3008 65.8125 55.0586C65.4531 54.8164 64.9922 54.6953 64.4297 54.6953ZM77.332 65.7344C75.8711 65.7344 74.6797 65.1641 73.7578 64.0234C72.8438 62.875 72.3867 61.1914 72.3867 58.9727C72.3867 56.7305 72.8516 55.0352 73.7812 53.8867C74.7109 52.7305 75.9258 52.1523 77.4258 52.1523C78.0508 52.1523 78.6016 52.2383 79.0781 52.4102C79.5547 52.582 79.9648 52.8125 80.3086 53.1016C80.6602 53.3906 80.957 53.7148 81.1992 54.0742H81.3164C81.2695 53.8242 81.2109 53.457 81.1406 52.9727C81.0781 52.4805 81.0469 51.9766 81.0469 51.4609V47.2656H84.6328V65.5H81.8906L81.1992 63.8008H81.0469C80.8203 64.1602 80.5352 64.4883 80.1914 64.7852C79.8555 65.0742 79.4531 65.3047 78.9844 65.4766C78.5156 65.6484 77.9648 65.7344 77.332 65.7344ZM78.5859 62.8867C79.5625 62.8867 80.25 62.5977 80.6484 62.0195C81.0547 61.4336 81.2695 60.5547 81.293 59.3828V58.9961C81.293 57.7227 81.0977 56.75 80.707 56.0781C80.3164 55.3984 79.5898 55.0586 78.5273 55.0586C77.7383 55.0586 77.1211 55.3984 76.6758 56.0781C76.2305 56.7578 76.0078 57.7383 76.0078 59.0195C76.0078 60.3008 76.2305 61.2656 76.6758 61.9141C77.1289 62.5625 77.7656 62.8867 78.5859 62.8867ZM96.293 48.3672L89.9062 65.5H86.6602L93.0469 48.3672H96.293ZM105.844 51.1445C105.148 51.1445 104.531 51.2812 103.992 51.5547C103.461 51.8203 103.012 52.207 102.645 52.7148C102.285 53.2227 102.012 53.8359 101.824 54.5547C101.637 55.2734 101.543 56.082 101.543 56.9805C101.543 58.1914 101.691 59.2266 101.988 60.0859C102.293 60.9375 102.762 61.5898 103.395 62.043C104.027 62.4883 104.844 62.7109 105.844 62.7109C106.539 62.7109 107.234 62.6328 107.93 62.4766C108.633 62.3203 109.395 62.0977 110.215 61.8086V64.8555C109.457 65.168 108.711 65.3906 107.977 65.5234C107.242 65.6641 106.418 65.7344 105.504 65.7344C103.738 65.7344 102.285 65.3711 101.145 64.6445C100.012 63.9102 99.1719 62.8867 98.625 61.5742C98.0781 60.2539 97.8047 58.7148 97.8047 56.957C97.8047 55.6602 97.9805 54.4727 98.332 53.3945C98.6836 52.3164 99.1992 51.3828 99.8789 50.5938C100.559 49.8047 101.398 49.1953 102.398 48.7656C103.398 48.3359 104.547 48.1211 105.844 48.1211C106.695 48.1211 107.547 48.2305 108.398 48.4492C109.258 48.6602 110.078 48.9531 110.859 49.3281L109.688 52.2812C109.047 51.9766 108.402 51.7109 107.754 51.4844C107.105 51.2578 106.469 51.1445 105.844 51.1445ZM117.164 47.2656V50.9805C117.164 51.6289 117.141 52.2461 117.094 52.832C117.055 53.418 117.023 53.832 117 54.0742H117.188C117.469 53.6211 117.801 53.2539 118.184 52.9727C118.574 52.6914 119.004 52.4844 119.473 52.3516C119.941 52.2188 120.445 52.1523 120.984 52.1523C121.93 52.1523 122.754 52.3203 123.457 52.6562C124.16 52.9844 124.707 53.5039 125.098 54.2148C125.488 54.918 125.684 55.832 125.684 56.957V65.5H122.109V57.8477C122.109 56.9102 121.938 56.2031 121.594 55.7266C121.25 55.25 120.719 55.0117 120 55.0117C119.281 55.0117 118.715 55.1797 118.301 55.5156C117.887 55.8438 117.594 56.332 117.422 56.9805C117.25 57.6211 117.164 58.4062 117.164 59.3359V65.5H113.59V47.2656H117.164ZM134.73 52.1289C136.488 52.1289 137.836 52.5117 138.773 53.2773C139.711 54.043 140.18 55.207 140.18 56.7695V65.5H137.684L136.992 63.7188H136.898C136.523 64.1875 136.141 64.5703 135.75 64.8672C135.359 65.1641 134.91 65.3828 134.402 65.5234C133.895 65.6641 133.277 65.7344 132.551 65.7344C131.777 65.7344 131.082 65.5859 130.465 65.2891C129.855 64.9922 129.375 64.5391 129.023 63.9297C128.672 63.3125 128.496 62.5312 128.496 61.5859C128.496 60.1953 128.984 59.1719 129.961 58.5156C130.938 57.8516 132.402 57.4844 134.355 57.4141L136.629 57.3438V56.7695C136.629 56.082 136.449 55.5781 136.09 55.2578C135.73 54.9375 135.23 54.7773 134.59 54.7773C133.957 54.7773 133.336 54.8672 132.727 55.0469C132.117 55.2266 131.508 55.4531 130.898 55.7266L129.715 53.3125C130.41 52.9453 131.188 52.6562 132.047 52.4453C132.914 52.2344 133.809 52.1289 134.73 52.1289ZM136.629 59.4297L135.246 59.4766C134.09 59.5078 133.285 59.7148 132.832 60.0977C132.387 60.4805 132.164 60.9844 132.164 61.6094C132.164 62.1562 132.324 62.5469 132.645 62.7812C132.965 63.0078 133.383 63.1211 133.898 63.1211C134.664 63.1211 135.309 62.8945 135.832 62.4414C136.363 61.9883 136.629 61.3438 136.629 60.5078V59.4297ZM147.445 52.3984V65.5H143.871V52.3984H147.445ZM145.664 47.2656C146.195 47.2656 146.652 47.3906 147.035 47.6406C147.418 47.8828 147.609 48.3398 147.609 49.0117C147.609 49.6758 147.418 50.1367 147.035 50.3945C146.652 50.6445 146.195 50.7695 145.664 50.7695C145.125 50.7695 144.664 50.6445 144.281 50.3945C143.906 50.1367 143.719 49.6758 143.719 49.0117C143.719 48.3398 143.906 47.8828 144.281 47.6406C144.664 47.3906 145.125 47.2656 145.664 47.2656ZM158.52 52.1523C158.699 52.1523 158.906 52.1641 159.141 52.1875C159.383 52.2031 159.578 52.2266 159.727 52.2578L159.457 55.6094C159.34 55.5703 159.172 55.543 158.953 55.5273C158.742 55.5039 158.559 55.4922 158.402 55.4922C157.941 55.4922 157.492 55.5508 157.055 55.668C156.625 55.7852 156.238 55.9766 155.895 56.2422C155.551 56.5 155.277 56.8438 155.074 57.2734C154.879 57.6953 154.781 58.2148 154.781 58.832V65.5H151.207V52.3984H153.914L154.441 54.6016H154.617C154.875 54.1562 155.195 53.75 155.578 53.3828C155.969 53.0078 156.41 52.7109 156.902 52.4922C157.402 52.2656 157.941 52.1523 158.52 52.1523ZM175.875 65.5L171.75 52.0586H171.645C171.66 52.3789 171.684 52.8633 171.715 53.5117C171.754 54.1523 171.789 54.8359 171.82 55.5625C171.852 56.2891 171.867 56.9453 171.867 57.5312V65.5H168.621V48.3672H173.566L177.621 61.4688H177.691L181.992 48.3672H186.938V65.5H183.551V57.3906C183.551 56.8516 183.559 56.2305 183.574 55.5273C183.598 54.8242 183.625 54.1562 183.656 53.5234C183.688 52.8828 183.711 52.4023 183.727 52.082H183.621L179.203 65.5H175.875ZM202.887 58.9258C202.887 60.0195 202.738 60.9883 202.441 61.832C202.152 62.6758 201.727 63.3906 201.164 63.9766C200.609 64.5547 199.938 64.9922 199.148 65.2891C198.367 65.5859 197.484 65.7344 196.5 65.7344C195.578 65.7344 194.73 65.5859 193.957 65.2891C193.191 64.9922 192.523 64.5547 191.953 63.9766C191.391 63.3906 190.953 62.6758 190.641 61.832C190.336 60.9883 190.184 60.0195 190.184 58.9258C190.184 57.4727 190.441 56.2422 190.957 55.2344C191.473 54.2266 192.207 53.4609 193.16 52.9375C194.113 52.4141 195.25 52.1523 196.57 52.1523C197.797 52.1523 198.883 52.4141 199.828 52.9375C200.781 53.4609 201.527 54.2266 202.066 55.2344C202.613 56.2422 202.887 57.4727 202.887 58.9258ZM193.828 58.9258C193.828 59.7852 193.922 60.5078 194.109 61.0938C194.297 61.6797 194.59 62.1211 194.988 62.418C195.387 62.7148 195.906 62.8633 196.547 62.8633C197.18 62.8633 197.691 62.7148 198.082 62.418C198.48 62.1211 198.77 61.6797 198.949 61.0938C199.137 60.5078 199.23 59.7852 199.23 58.9258C199.23 58.0586 199.137 57.3398 198.949 56.7695C198.77 56.1914 198.48 55.7578 198.082 55.4688C197.684 55.1797 197.164 55.0352 196.523 55.0352C195.578 55.0352 194.891 55.3594 194.461 56.0078C194.039 56.6562 193.828 57.6289 193.828 58.9258ZM209.988 65.7344C208.527 65.7344 207.336 65.1641 206.414 64.0234C205.5 62.875 205.043 61.1914 205.043 58.9727C205.043 56.7305 205.508 55.0352 206.438 53.8867C207.367 52.7305 208.582 52.1523 210.082 52.1523C210.707 52.1523 211.258 52.2383 211.734 52.4102C212.211 52.582 212.621 52.8125 212.965 53.1016C213.316 53.3906 213.613 53.7148 213.855 54.0742H213.973C213.926 53.8242 213.867 53.457 213.797 52.9727C213.734 52.4805 213.703 51.9766 213.703 51.4609V47.2656H217.289V65.5H214.547L213.855 63.8008H213.703C213.477 64.1602 213.191 64.4883 212.848 64.7852C212.512 65.0742 212.109 65.3047 211.641 65.4766C211.172 65.6484 210.621 65.7344 209.988 65.7344ZM211.242 62.8867C212.219 62.8867 212.906 62.5977 213.305 62.0195C213.711 61.4336 213.926 60.5547 213.949 59.3828V58.9961C213.949 57.7227 213.754 56.75 213.363 56.0781C212.973 55.3984 212.246 55.0586 211.184 55.0586C210.395 55.0586 209.777 55.3984 209.332 56.0781C208.887 56.7578 208.664 57.7383 208.664 59.0195C208.664 60.3008 208.887 61.2656 209.332 61.9141C209.785 62.5625 210.422 62.8867 211.242 62.8867ZM226.43 52.1523C227.641 52.1523 228.684 52.3867 229.559 52.8555C230.434 53.3164 231.109 53.9883 231.586 54.8711C232.062 55.7539 232.301 56.832 232.301 58.1055V59.8398H223.852C223.891 60.8477 224.191 61.6406 224.754 62.2188C225.324 62.7891 226.113 63.0742 227.121 63.0742C227.957 63.0742 228.723 62.9883 229.418 62.8164C230.113 62.6445 230.828 62.3867 231.562 62.043V64.8086C230.914 65.1289 230.234 65.3633 229.523 65.5117C228.82 65.6602 227.965 65.7344 226.957 65.7344C225.645 65.7344 224.48 65.4922 223.465 65.0078C222.457 64.5234 221.664 63.7852 221.086 62.793C220.516 61.8008 220.23 60.5508 220.23 59.043C220.23 57.5117 220.488 56.2383 221.004 55.2227C221.527 54.1992 222.254 53.4336 223.184 52.9258C224.113 52.4102 225.195 52.1523 226.43 52.1523ZM226.453 54.6953C225.758 54.6953 225.18 54.918 224.719 55.3633C224.266 55.8086 224.004 56.5078 223.934 57.4609H228.949C228.941 56.9297 228.844 56.457 228.656 56.043C228.477 55.6289 228.203 55.3008 227.836 55.0586C227.477 54.8164 227.016 54.6953 226.453 54.6953ZM255.938 56.7695C255.938 58.6992 255.566 60.3125 254.824 61.6094C254.09 62.8984 253.023 63.8711 251.625 64.5273C250.227 65.1758 248.543 65.5 246.574 65.5H241.723V48.3672H247.102C248.898 48.3672 250.457 48.6875 251.777 49.3281C253.098 49.9609 254.121 50.9023 254.848 52.1523C255.574 53.3945 255.938 54.9336 255.938 56.7695ZM252.164 56.8633C252.164 55.5977 251.977 54.5586 251.602 53.7461C251.234 52.9258 250.688 52.3203 249.961 51.9297C249.242 51.5391 248.352 51.3438 247.289 51.3438H245.355V62.5H246.914C248.688 62.5 250.004 62.0273 250.863 61.082C251.73 60.1367 252.164 58.7305 252.164 56.8633ZM262.781 52.3984V65.5H259.207V52.3984H262.781ZM261 47.2656C261.531 47.2656 261.988 47.3906 262.371 47.6406C262.754 47.8828 262.945 48.3398 262.945 49.0117C262.945 49.6758 262.754 50.1367 262.371 50.3945C261.988 50.6445 261.531 50.7695 261 50.7695C260.461 50.7695 260 50.6445 259.617 50.3945C259.242 50.1367 259.055 49.6758 259.055 49.0117C259.055 48.3398 259.242 47.8828 259.617 47.6406C260 47.3906 260.461 47.2656 261 47.2656ZM275.684 61.6094C275.684 62.5 275.473 63.2539 275.051 63.8711C274.637 64.4805 274.016 64.9453 273.188 65.2656C272.359 65.5781 271.328 65.7344 270.094 65.7344C269.18 65.7344 268.395 65.6758 267.738 65.5586C267.09 65.4414 266.434 65.2461 265.77 64.9727V62.0195C266.48 62.3398 267.242 62.6055 268.055 62.8164C268.875 63.0195 269.594 63.1211 270.211 63.1211C270.906 63.1211 271.402 63.0195 271.699 62.8164C272.004 62.6055 272.156 62.332 272.156 61.9961C272.156 61.7773 272.094 61.582 271.969 61.4102C271.852 61.2305 271.594 61.0312 271.195 60.8125C270.797 60.5859 270.172 60.293 269.32 59.9336C268.5 59.5898 267.824 59.2422 267.293 58.8906C266.77 58.5391 266.379 58.125 266.121 57.6484C265.871 57.1641 265.746 56.5508 265.746 55.8086C265.746 54.5977 266.215 53.6875 267.152 53.0781C268.098 52.4609 269.359 52.1523 270.938 52.1523C271.75 52.1523 272.523 52.2344 273.258 52.3984C274 52.5625 274.762 52.8242 275.543 53.1836L274.465 55.7617C273.816 55.4805 273.203 55.25 272.625 55.0703C272.055 54.8906 271.473 54.8008 270.879 54.8008C270.355 54.8008 269.961 54.8711 269.695 55.0117C269.43 55.1523 269.297 55.3672 269.297 55.6562C269.297 55.8672 269.363 56.0547 269.496 56.2188C269.637 56.3828 269.902 56.5664 270.293 56.7695C270.691 56.9648 271.273 57.2188 272.039 57.5312C272.781 57.8359 273.426 58.1562 273.973 58.4922C274.52 58.8203 274.941 59.2305 275.238 59.7227C275.535 60.207 275.684 60.8359 275.684 61.6094ZM283.84 52.1289C285.598 52.1289 286.945 52.5117 287.883 53.2773C288.82 54.043 289.289 55.207 289.289 56.7695V65.5H286.793L286.102 63.7188H286.008C285.633 64.1875 285.25 64.5703 284.859 64.8672C284.469 65.1641 284.02 65.3828 283.512 65.5234C283.004 65.6641 282.387 65.7344 281.66 65.7344C280.887 65.7344 280.191 65.5859 279.574 65.2891C278.965 64.9922 278.484 64.5391 278.133 63.9297C277.781 63.3125 277.605 62.5312 277.605 61.5859C277.605 60.1953 278.094 59.1719 279.07 58.5156C280.047 57.8516 281.512 57.4844 283.465 57.4141L285.738 57.3438V56.7695C285.738 56.082 285.559 55.5781 285.199 55.2578C284.84 54.9375 284.34 54.7773 283.699 54.7773C283.066 54.7773 282.445 54.8672 281.836 55.0469C281.227 55.2266 280.617 55.4531 280.008 55.7266L278.824 53.3125C279.52 52.9453 280.297 52.6562 281.156 52.4453C282.023 52.2344 282.918 52.1289 283.84 52.1289ZM285.738 59.4297L284.355 59.4766C283.199 59.5078 282.395 59.7148 281.941 60.0977C281.496 60.4805 281.273 60.9844 281.273 61.6094C281.273 62.1562 281.434 62.5469 281.754 62.7812C282.074 63.0078 282.492 63.1211 283.008 63.1211C283.773 63.1211 284.418 62.8945 284.941 62.4414C285.473 61.9883 285.738 61.3438 285.738 60.5078V59.4297ZM296.555 47.2656V51.5078C296.555 52 296.539 52.4883 296.508 52.9727C296.484 53.457 296.453 53.832 296.414 54.0977H296.555C296.898 53.5586 297.367 53.1016 297.961 52.7266C298.555 52.3438 299.324 52.1523 300.27 52.1523C301.738 52.1523 302.93 52.7266 303.844 53.875C304.758 55.0234 305.215 56.707 305.215 58.9258C305.215 60.418 305.004 61.6719 304.582 62.6875C304.16 63.6953 303.57 64.457 302.812 64.9727C302.055 65.4805 301.176 65.7344 300.176 65.7344C299.215 65.7344 298.457 65.5625 297.902 65.2188C297.348 64.875 296.898 64.4883 296.555 64.0586H296.309L295.711 65.5H292.98V47.2656H296.555ZM299.121 55.0117C298.496 55.0117 298 55.1406 297.633 55.3984C297.266 55.6562 296.996 56.043 296.824 56.5586C296.66 57.0742 296.57 57.7266 296.555 58.5156V58.9023C296.555 60.1758 296.742 61.1523 297.117 61.832C297.492 62.5039 298.176 62.8398 299.168 62.8398C299.902 62.8398 300.484 62.5 300.914 61.8203C301.352 61.1406 301.57 60.1602 301.57 58.8789C301.57 57.5977 301.352 56.6328 300.914 55.9844C300.477 55.3359 299.879 55.0117 299.121 55.0117ZM311.742 65.5H308.168V47.2656H311.742V65.5ZM320.906 52.1523C322.117 52.1523 323.16 52.3867 324.035 52.8555C324.91 53.3164 325.586 53.9883 326.062 54.8711C326.539 55.7539 326.777 56.832 326.777 58.1055V59.8398H318.328C318.367 60.8477 318.668 61.6406 319.23 62.2188C319.801 62.7891 320.59 63.0742 321.598 63.0742C322.434 63.0742 323.199 62.9883 323.895 62.8164C324.59 62.6445 325.305 62.3867 326.039 62.043V64.8086C325.391 65.1289 324.711 65.3633 324 65.5117C323.297 65.6602 322.441 65.7344 321.434 65.7344C320.121 65.7344 318.957 65.4922 317.941 65.0078C316.934 64.5234 316.141 63.7852 315.562 62.793C314.992 61.8008 314.707 60.5508 314.707 59.043C314.707 57.5117 314.965 56.2383 315.48 55.2227C316.004 54.1992 316.73 53.4336 317.66 52.9258C318.59 52.4102 319.672 52.1523 320.906 52.1523ZM320.93 54.6953C320.234 54.6953 319.656 54.918 319.195 55.3633C318.742 55.8086 318.48 56.5078 318.41 57.4609H323.426C323.418 56.9297 323.32 56.457 323.133 56.043C322.953 55.6289 322.68 55.3008 322.312 55.0586C321.953 54.8164 321.492 54.6953 320.93 54.6953ZM333.832 65.7344C332.371 65.7344 331.18 65.1641 330.258 64.0234C329.344 62.875 328.887 61.1914 328.887 58.9727C328.887 56.7305 329.352 55.0352 330.281 53.8867C331.211 52.7305 332.426 52.1523 333.926 52.1523C334.551 52.1523 335.102 52.2383 335.578 52.4102C336.055 52.582 336.465 52.8125 336.809 53.1016C337.16 53.3906 337.457 53.7148 337.699 54.0742H337.816C337.77 53.8242 337.711 53.457 337.641 52.9727C337.578 52.4805 337.547 51.9766 337.547 51.4609V47.2656H341.133V65.5H338.391L337.699 63.8008H337.547C337.32 64.1602 337.035 64.4883 336.691 64.7852C336.355 65.0742 335.953 65.3047 335.484 65.4766C335.016 65.6484 334.465 65.7344 333.832 65.7344ZM335.086 62.8867C336.062 62.8867 336.75 62.5977 337.148 62.0195C337.555 61.4336 337.77 60.5547 337.793 59.3828V58.9961C337.793 57.7227 337.598 56.75 337.207 56.0781C336.816 55.3984 336.09 55.0586 335.027 55.0586C334.238 55.0586 333.621 55.3984 333.176 56.0781C332.73 56.7578 332.508 57.7383 332.508 59.0195C332.508 60.3008 332.73 61.2656 333.176 61.9141C333.629 62.5625 334.266 62.8867 335.086 62.8867Z" fill="#1A1040"/>
</g>
<rect x="385.5" y="17.5" width="77" height="77" rx="3.5" fill="white" stroke="#1A1040" stroke-width="3"/>
<path d="M415.351 31.4431C416.866 30.5262 418.739 30.541 420.241 31.4812L423.58 33.5711C423.853 33.7417 424.165 33.8318 424.482 33.8318H424.771C425.088 33.8318 425.399 33.7419 425.671 33.5721L428.995 31.4969C430.492 30.5626 432.356 30.5467 433.867 31.4549L439.855 35.0525C441.37 35.963 442.292 37.6589 442.263 39.4822L442.197 43.5398C442.192 43.8711 442.273 44.1982 442.432 44.4851L442.576 44.7449C442.735 45.0311 442.964 45.2678 443.241 45.4285L446.635 47.3973C448.157 48.2802 449.102 49.9521 449.106 51.7683L449.122 58.9588C449.126 60.7863 448.177 62.4714 446.644 63.3572L443.242 65.323C442.964 65.4837 442.733 65.7206 442.574 66.0076L442.432 66.2644C442.273 66.5514 442.192 66.8784 442.197 67.2098L442.263 71.2723C442.292 73.09 441.375 74.7816 439.867 75.6941L433.899 79.3064C432.384 80.2234 430.511 80.2086 429.009 79.2683L425.67 77.1785C425.397 77.008 425.085 76.9178 424.768 76.9178H424.48C424.162 76.9178 423.851 77.0077 423.579 77.1775L420.256 79.2527C418.759 80.1872 416.894 80.2029 415.383 79.2947L409.396 75.698C407.88 74.7875 406.959 73.0907 406.988 71.2674L407.054 67.2224C407.059 66.8934 406.979 66.5686 406.822 66.283L406.67 66.0056C406.511 65.7167 406.28 65.4781 406.001 65.3162L402.615 63.3523C401.093 62.4693 400.148 60.7975 400.144 58.9812L400.128 51.7908C400.124 49.9634 401.074 48.2782 402.606 47.3924L406.008 45.4265C406.286 45.2658 406.518 45.0291 406.677 44.742L406.818 44.4851C406.977 44.1981 407.059 43.8712 407.054 43.5398L406.988 39.4773C406.959 37.6597 407.875 35.968 409.383 35.0555L415.351 31.4431ZM424.625 46.2488C419.792 46.2488 415.874 50.3351 415.874 55.3748C415.874 60.4143 419.792 64.4998 424.625 64.4998C429.458 64.4998 433.376 60.4143 433.376 55.3748C433.376 50.3351 429.458 46.2488 424.625 46.2488Z" fill="#1A1040"/>
<path d="M415.351 31.4431L414.833 30.5876L414.833 30.5877L415.351 31.4431ZM420.241 31.4812L419.711 32.3288L419.711 32.3289L420.241 31.4812ZM423.58 33.5711L424.111 32.7234L424.111 32.7234L423.58 33.5711ZM424.482 33.8318L424.482 34.8318H424.482V33.8318ZM425.671 33.5721L426.2 34.4204L426.2 34.4203L425.671 33.5721ZM428.995 31.4969L429.525 32.3451L429.525 32.3451L428.995 31.4969ZM433.867 31.4549L433.352 32.312V32.312L433.867 31.4549ZM439.855 35.0525L440.37 34.1954L440.37 34.1954L439.855 35.0525ZM442.263 39.4822L441.263 39.4661V39.4661L442.263 39.4822ZM442.197 43.5398L443.197 43.556V43.556L442.197 43.5398ZM442.432 44.4851L441.557 44.9695L441.558 44.9713L442.432 44.4851ZM442.576 44.7449L443.451 44.2603L443.45 44.2587L442.576 44.7449ZM443.241 45.4285L442.739 46.2934L442.739 46.2935L443.241 45.4285ZM446.635 47.3973L446.133 48.2622L446.133 48.2622L446.635 47.3973ZM449.106 51.7683L450.106 51.7662V51.7661L449.106 51.7683ZM449.122 58.9588L448.122 58.9609V58.961L449.122 58.9588ZM446.644 63.3572L446.143 62.4914L446.143 62.4914L446.644 63.3572ZM443.242 65.323L443.743 66.1889L443.743 66.1888L443.242 65.323ZM442.574 66.0076L443.449 66.493L443.449 66.4924L442.574 66.0076ZM442.432 66.2644L441.557 65.7791L441.557 65.7801L442.432 66.2644ZM442.197 67.2098L443.197 67.1936V67.1936L442.197 67.2098ZM442.263 71.2723L441.263 71.2884V71.2884L442.263 71.2723ZM439.867 75.6941L439.349 74.8386L439.349 74.8386L439.867 75.6941ZM433.899 79.3064L434.417 80.162L434.417 80.1619L433.899 79.3064ZM429.009 79.2683L429.539 78.4207L429.539 78.4207L429.009 79.2683ZM425.67 77.1785L426.2 76.3308L426.2 76.3307L425.67 77.1785ZM424.48 76.9178V75.9178H424.479L424.48 76.9178ZM423.579 77.1775L423.05 76.3293L423.049 76.3293L423.579 77.1775ZM420.256 79.2527L420.785 80.101L420.786 80.1009L420.256 79.2527ZM415.383 79.2947L415.898 78.4376L415.898 78.4375L415.383 79.2947ZM409.396 75.698L408.88 76.5552L408.881 76.5553L409.396 75.698ZM406.988 71.2674L405.988 71.2512L405.988 71.2512L406.988 71.2674ZM407.054 67.2224L406.054 67.2063L406.054 67.2063L407.054 67.2224ZM406.822 66.283L407.699 65.8018L407.699 65.8015L406.822 66.283ZM406.67 66.0056L405.793 66.487L405.793 66.4871L406.67 66.0056ZM406.001 65.3162L406.503 64.4512L406.503 64.4512L406.001 65.3162ZM402.615 63.3523L402.113 64.2173L402.114 64.2173L402.615 63.3523ZM400.144 58.9812L399.144 58.9834L399.144 58.9835L400.144 58.9812ZM400.128 51.7908L401.128 51.7886V51.7886L400.128 51.7908ZM402.606 47.3924L403.107 48.2582L403.107 48.2582L402.606 47.3924ZM406.008 45.4265L405.507 44.5607L405.507 44.5607L406.008 45.4265ZM406.677 44.742L407.551 45.2266L407.552 45.2248L406.677 44.742ZM406.818 44.4851L405.944 44.0007L405.943 44.0023L406.818 44.4851ZM407.054 43.5398L406.054 43.5559L406.054 43.556L407.054 43.5398ZM406.988 39.4773L407.988 39.4612V39.4612L406.988 39.4773ZM409.383 35.0555L409.901 35.911L409.901 35.9109L409.383 35.0555ZM424.625 46.2488L424.625 45.2488H424.625V46.2488ZM415.874 55.3748H414.874V55.3748L415.874 55.3748ZM424.625 64.4998V65.4998H424.625L424.625 64.4998ZM433.376 55.3748L434.376 55.3748V55.3748H433.376ZM415.351 31.4431L415.868 32.2987C417.06 31.5774 418.528 31.5887 419.711 32.3288L420.241 31.4812L420.772 30.6336C418.95 29.4933 416.671 29.475 414.833 30.5876L415.351 31.4431ZM420.241 31.4812L419.711 32.3289L423.05 34.4187L423.58 33.5711L424.111 32.7234L420.772 30.6336L420.241 31.4812ZM423.58 33.5711L423.05 34.4187C423.479 34.6877 423.975 34.8318 424.482 34.8318L424.482 33.8318L424.482 32.8318C424.355 32.8318 424.226 32.7957 424.111 32.7234L423.58 33.5711ZM424.482 33.8318V34.8318H424.771V33.8318V32.8318H424.482V33.8318ZM424.771 33.8318V34.8318C425.278 34.8318 425.772 34.6878 426.2 34.4204L425.671 33.5721L425.141 32.7237C425.026 32.7959 424.898 32.8318 424.771 32.8318V33.8318ZM425.671 33.5721L426.2 34.4203L429.525 32.3451L428.995 31.4969L428.466 30.6486L425.141 32.7238L425.671 33.5721ZM428.995 31.4969L429.525 32.3451C430.703 31.6098 432.163 31.5976 433.352 32.312L433.867 31.4549L434.382 30.5977C432.549 29.4959 430.281 29.5153 428.466 30.6486L428.995 31.4969ZM433.867 31.4549L433.352 32.312L439.339 35.9097L439.855 35.0525L440.37 34.1954L434.382 30.5977L433.867 31.4549ZM439.855 35.0525L439.339 35.9097C440.537 36.6295 441.287 37.9859 441.263 39.4661L442.263 39.4822L443.263 39.4983C443.298 37.3319 442.202 35.2965 440.37 34.1954L439.855 35.0525ZM442.263 39.4822L441.263 39.4661L441.197 43.5237L442.197 43.5398L443.197 43.556L443.263 39.4983L442.263 39.4822ZM442.197 43.5398L441.197 43.5237C441.189 44.0273 441.312 44.5272 441.557 44.9695L442.432 44.4851L443.307 44.0008C443.234 43.8691 443.195 43.715 443.197 43.556L442.197 43.5398ZM442.432 44.4851L441.558 44.9713L441.702 45.2311L442.576 44.7449L443.45 44.2587L443.306 43.9989L442.432 44.4851ZM442.576 44.7449L441.701 45.2295C441.945 45.6688 442.301 46.039 442.739 46.2934L443.241 45.4285L443.743 44.5636C443.627 44.4965 443.525 44.3935 443.451 44.2603L442.576 44.7449ZM443.241 45.4285L442.739 46.2935L446.133 48.2622L446.635 47.3973L447.137 46.5323L443.743 44.5635L443.241 45.4285ZM446.635 47.3973L446.133 48.2622C447.336 48.9598 448.103 50.296 448.106 51.7706L449.106 51.7683L450.106 51.7661C450.102 49.6081 448.978 47.6007 447.137 46.5323L446.635 47.3973ZM449.106 51.7683L448.106 51.7705L448.122 58.9609L449.122 58.9588L450.122 58.9566L450.106 51.7662L449.106 51.7683ZM449.122 58.9588L448.122 58.961C448.125 60.4448 447.354 61.7916 446.143 62.4914L446.644 63.3572L447.144 64.223C448.999 63.1511 450.127 61.1278 450.122 58.9566L449.122 58.9588ZM446.644 63.3572L446.143 62.4914L442.742 64.4572L443.242 65.323L443.743 66.1888L447.144 64.223L446.644 63.3572ZM443.242 65.323L442.742 64.4572C442.303 64.711 441.944 65.0814 441.7 65.5228L442.574 66.0076L443.449 66.4924C443.522 66.3597 443.626 66.2564 443.743 66.1889L443.242 65.323ZM442.574 66.0076L441.7 65.5222L441.557 65.7791L442.432 66.2644L443.306 66.7498L443.449 66.493L442.574 66.0076ZM442.432 66.2644L441.557 65.7801C441.312 66.2223 441.189 66.7223 441.197 67.2259L442.197 67.2098L443.197 67.1936C443.195 67.0346 443.234 66.8804 443.307 66.7488L442.432 66.2644ZM442.197 67.2098L441.197 67.2259L441.263 71.2884L442.263 71.2723L443.263 71.2561L443.197 67.1936L442.197 67.2098ZM442.263 71.2723L441.263 71.2884C441.287 72.7639 440.542 74.117 439.349 74.8386L439.867 75.6941L440.385 76.5497C442.208 75.4461 443.297 73.416 443.263 71.2561L442.263 71.2723ZM439.867 75.6941L439.349 74.8386L433.382 78.4509L433.899 79.3064L434.417 80.1619L440.385 76.5496L439.867 75.6941ZM433.899 79.3064L433.382 78.4509C432.19 79.1722 430.722 79.1609 429.539 78.4207L429.009 79.2683L428.478 80.116C430.3 81.2562 432.579 81.2746 434.417 80.162L433.899 79.3064ZM429.009 79.2683L429.539 78.4207L426.2 76.3308L425.67 77.1785L425.139 78.0261L428.478 80.116L429.009 79.2683ZM425.67 77.1785L426.2 76.3307C425.771 76.0621 425.275 75.9178 424.768 75.9178V76.9178V77.9178C424.895 77.9178 425.024 77.9539 425.14 78.0263L425.67 77.1785ZM424.768 76.9178V75.9178H424.48V76.9178V77.9178H424.768V76.9178ZM424.48 76.9178L424.479 75.9178C423.973 75.9178 423.478 76.0616 423.05 76.3293L423.579 77.1775L424.109 78.0258C424.224 77.9537 424.352 77.9178 424.48 77.9178L424.48 76.9178ZM423.579 77.1775L423.049 76.3293L419.726 78.4045L420.256 79.2527L420.786 80.1009L424.109 78.0257L423.579 77.1775ZM420.256 79.2527L419.726 78.4045C418.548 79.1399 417.087 79.1521 415.898 78.4376L415.383 79.2947L414.868 80.1519C416.701 81.2537 418.97 81.2345 420.785 80.101L420.256 79.2527ZM415.383 79.2947L415.898 78.4375L409.91 74.8408L409.396 75.698L408.881 76.5553L414.868 80.1519L415.383 79.2947ZM409.396 75.698L409.911 74.8409C408.713 74.1213 407.964 72.7643 407.988 71.2835L406.988 71.2674L405.988 71.2512C405.953 73.4171 407.047 75.4537 408.88 76.5552L409.396 75.698ZM406.988 71.2674L407.988 71.2835L408.054 67.2386L407.054 67.2224L406.054 67.2063L405.988 71.2512L406.988 71.2674ZM407.054 67.2224L408.054 67.2386C408.062 66.7378 407.94 66.2413 407.699 65.8018L406.822 66.283L405.946 66.7642C406.018 66.8958 406.056 67.0491 406.054 67.2063L407.054 67.2224ZM406.822 66.283L407.699 65.8015L407.546 65.5242L406.67 66.0056L405.793 66.4871L405.946 66.7644L406.822 66.283ZM406.67 66.0056L407.546 65.5243C407.302 65.08 406.944 64.7069 406.503 64.4512L406.001 65.3162L405.499 66.1812C405.617 66.2493 405.72 66.3534 405.793 66.487L406.67 66.0056ZM406.001 65.3162L406.503 64.4512L403.117 62.4873L402.615 63.3523L402.114 64.2173L405.499 66.1812L406.001 65.3162ZM402.615 63.3523L403.117 62.4873C401.915 61.7897 401.147 60.4535 401.144 58.979L400.144 58.9812L399.144 58.9835C399.148 61.1414 400.272 63.1489 402.113 64.2173L402.615 63.3523ZM400.144 58.9812L401.144 58.9791L401.128 51.7886L400.128 51.7908L399.128 51.793L399.144 58.9834L400.144 58.9812ZM400.128 51.7908L401.128 51.7886C401.125 50.3049 401.896 48.958 403.107 48.2582L402.606 47.3924L402.106 46.5265C400.251 47.5985 399.123 49.6218 399.128 51.793L400.128 51.7908ZM402.606 47.3924L403.107 48.2582L406.508 46.2923L406.008 45.4265L405.507 44.5607L402.106 46.5266L402.606 47.3924ZM406.008 45.4265L406.508 46.2924C406.946 46.0393 407.306 45.6696 407.551 45.2266L406.677 44.742L405.802 44.2573C405.729 44.3886 405.626 44.4923 405.507 44.5607L406.008 45.4265ZM406.677 44.742L407.552 45.2248L407.694 44.968L406.818 44.4851L405.943 44.0023L405.801 44.2592L406.677 44.742ZM406.818 44.4851L407.693 44.9696C407.937 44.5289 408.062 44.0293 408.054 43.5237L407.054 43.5398L406.054 43.556C406.056 43.7132 406.017 43.8674 405.944 44.0007L406.818 44.4851ZM407.054 43.5398L408.054 43.5237L407.988 39.4612L406.988 39.4773L405.988 39.4934L406.054 43.5559L407.054 43.5398ZM406.988 39.4773L407.988 39.4612C407.964 37.9853 408.709 36.6324 409.901 35.911L409.383 35.0555L408.865 34.1999C407.041 35.3037 405.954 37.334 405.988 39.4934L406.988 39.4773ZM409.383 35.0555L409.901 35.9109L415.868 32.2986L415.351 31.4431L414.833 30.5877L408.865 34.2L409.383 35.0555ZM424.625 46.2488V45.2488C419.2 45.2488 414.874 49.8228 414.874 55.3748H415.874H416.874C416.874 50.8473 420.383 47.2488 424.625 47.2488V46.2488ZM415.874 55.3748L414.874 55.3748C414.874 60.9267 419.201 65.4998 424.625 65.4998V64.4998V63.4998C420.383 63.4998 416.874 59.9019 416.874 55.3747L415.874 55.3748ZM424.625 64.4998L424.625 65.4998C430.049 65.4998 434.376 60.9267 434.376 55.3748L433.376 55.3748L432.376 55.3747C432.376 59.9019 428.867 63.4998 424.625 63.4998L424.625 64.4998ZM433.376 55.3748H434.376C434.376 49.8228 430.05 45.2488 424.625 45.2488L424.625 46.2488L424.625 47.2488C428.867 47.2488 432.376 50.8474 432.376 55.3748H433.376Z" fill="#1A1040"/>
<g filter="url(#filter0_d_3980_48039)">
<rect x="16" y="384" width="448" height="80" rx="5" fill="#1A1040" shape-rendering="crispEdges"/>
<path d="M185.496 419.145C184.801 419.145 184.184 419.281 183.645 419.555C183.113 419.82 182.664 420.207 182.297 420.715C181.938 421.223 181.664 421.836 181.477 422.555C181.289 423.273 181.195 424.082 181.195 424.98C181.195 426.191 181.344 427.227 181.641 428.086C181.945 428.938 182.414 429.59 183.047 430.043C183.68 430.488 184.496 430.711 185.496 430.711C186.191 430.711 186.887 430.633 187.582 430.477C188.285 430.32 189.047 430.098 189.867 429.809V432.855C189.109 433.168 188.363 433.391 187.629 433.523C186.895 433.664 186.07 433.734 185.156 433.734C183.391 433.734 181.938 433.371 180.797 432.645C179.664 431.91 178.824 430.887 178.277 429.574C177.73 428.254 177.457 426.715 177.457 424.957C177.457 423.66 177.633 422.473 177.984 421.395C178.336 420.316 178.852 419.383 179.531 418.594C180.211 417.805 181.051 417.195 182.051 416.766C183.051 416.336 184.199 416.121 185.496 416.121C186.348 416.121 187.199 416.23 188.051 416.449C188.91 416.66 189.73 416.953 190.512 417.328L189.34 420.281C188.699 419.977 188.055 419.711 187.406 419.484C186.758 419.258 186.121 419.145 185.496 419.145ZM196.816 433.5H193.242V415.266H196.816V433.5ZM205.98 420.152C207.191 420.152 208.234 420.387 209.109 420.855C209.984 421.316 210.66 421.988 211.137 422.871C211.613 423.754 211.852 424.832 211.852 426.105V427.84H203.402C203.441 428.848 203.742 429.641 204.305 430.219C204.875 430.789 205.664 431.074 206.672 431.074C207.508 431.074 208.273 430.988 208.969 430.816C209.664 430.645 210.379 430.387 211.113 430.043V432.809C210.465 433.129 209.785 433.363 209.074 433.512C208.371 433.66 207.516 433.734 206.508 433.734C205.195 433.734 204.031 433.492 203.016 433.008C202.008 432.523 201.215 431.785 200.637 430.793C200.066 429.801 199.781 428.551 199.781 427.043C199.781 425.512 200.039 424.238 200.555 423.223C201.078 422.199 201.805 421.434 202.734 420.926C203.664 420.41 204.746 420.152 205.98 420.152ZM206.004 422.695C205.309 422.695 204.73 422.918 204.27 423.363C203.816 423.809 203.555 424.508 203.484 425.461H208.5C208.492 424.93 208.395 424.457 208.207 424.043C208.027 423.629 207.754 423.301 207.387 423.059C207.027 422.816 206.566 422.695 206.004 422.695ZM220.125 420.129C221.883 420.129 223.23 420.512 224.168 421.277C225.105 422.043 225.574 423.207 225.574 424.77V433.5H223.078L222.387 431.719H222.293C221.918 432.188 221.535 432.57 221.145 432.867C220.754 433.164 220.305 433.383 219.797 433.523C219.289 433.664 218.672 433.734 217.945 433.734C217.172 433.734 216.477 433.586 215.859 433.289C215.25 432.992 214.77 432.539 214.418 431.93C214.066 431.312 213.891 430.531 213.891 429.586C213.891 428.195 214.379 427.172 215.355 426.516C216.332 425.852 217.797 425.484 219.75 425.414L222.023 425.344V424.77C222.023 424.082 221.844 423.578 221.484 423.258C221.125 422.938 220.625 422.777 219.984 422.777C219.352 422.777 218.73 422.867 218.121 423.047C217.512 423.227 216.902 423.453 216.293 423.727L215.109 421.312C215.805 420.945 216.582 420.656 217.441 420.445C218.309 420.234 219.203 420.129 220.125 420.129ZM222.023 427.43L220.641 427.477C219.484 427.508 218.68 427.715 218.227 428.098C217.781 428.48 217.559 428.984 217.559 429.609C217.559 430.156 217.719 430.547 218.039 430.781C218.359 431.008 218.777 431.121 219.293 431.121C220.059 431.121 220.703 430.895 221.227 430.441C221.758 429.988 222.023 429.344 222.023 428.508V427.43ZM236.578 420.152C236.758 420.152 236.965 420.164 237.199 420.188C237.441 420.203 237.637 420.227 237.785 420.258L237.516 423.609C237.398 423.57 237.23 423.543 237.012 423.527C236.801 423.504 236.617 423.492 236.461 423.492C236 423.492 235.551 423.551 235.113 423.668C234.684 423.785 234.297 423.977 233.953 424.242C233.609 424.5 233.336 424.844 233.133 425.273C232.938 425.695 232.84 426.215 232.84 426.832V433.5H229.266V420.398H231.973L232.5 422.602H232.676C232.934 422.156 233.254 421.75 233.637 421.383C234.027 421.008 234.469 420.711 234.961 420.492C235.461 420.266 236 420.152 236.578 420.152ZM257.168 433.5L255.926 429.422H249.68L248.438 433.5H244.523L250.57 416.297H255.012L261.082 433.5H257.168ZM255.059 426.375L253.816 422.391C253.738 422.125 253.633 421.785 253.5 421.371C253.375 420.949 253.246 420.523 253.113 420.094C252.988 419.656 252.887 419.277 252.809 418.957C252.73 419.277 252.621 419.676 252.48 420.152C252.348 420.621 252.219 421.066 252.094 421.488C251.969 421.91 251.879 422.211 251.824 422.391L250.594 426.375H255.059ZM266.543 433.5H262.969V415.266H266.543V433.5ZM275.707 420.152C276.918 420.152 277.961 420.387 278.836 420.855C279.711 421.316 280.387 421.988 280.863 422.871C281.34 423.754 281.578 424.832 281.578 426.105V427.84H273.129C273.168 428.848 273.469 429.641 274.031 430.219C274.602 430.789 275.391 431.074 276.398 431.074C277.234 431.074 278 430.988 278.695 430.816C279.391 430.645 280.105 430.387 280.84 430.043V432.809C280.191 433.129 279.512 433.363 278.801 433.512C278.098 433.66 277.242 433.734 276.234 433.734C274.922 433.734 273.758 433.492 272.742 433.008C271.734 432.523 270.941 431.785 270.363 430.793C269.793 429.801 269.508 428.551 269.508 427.043C269.508 425.512 269.766 424.238 270.281 423.223C270.805 422.199 271.531 421.434 272.461 420.926C273.391 420.41 274.473 420.152 275.707 420.152ZM275.73 422.695C275.035 422.695 274.457 422.918 273.996 423.363C273.543 423.809 273.281 424.508 273.211 425.461H278.227C278.219 424.93 278.121 424.457 277.934 424.043C277.754 423.629 277.48 423.301 277.113 423.059C276.754 422.816 276.293 422.695 275.73 422.695ZM291.797 420.152C291.977 420.152 292.184 420.164 292.418 420.188C292.66 420.203 292.855 420.227 293.004 420.258L292.734 423.609C292.617 423.57 292.449 423.543 292.23 423.527C292.02 423.504 291.836 423.492 291.68 423.492C291.219 423.492 290.77 423.551 290.332 423.668C289.902 423.785 289.516 423.977 289.172 424.242C288.828 424.5 288.555 424.844 288.352 425.273C288.156 425.695 288.059 426.215 288.059 426.832V433.5H284.484V420.398H287.191L287.719 422.602H287.895C288.152 422.156 288.473 421.75 288.855 421.383C289.246 421.008 289.688 420.711 290.18 420.492C290.68 420.266 291.219 420.152 291.797 420.152ZM300.902 430.887C301.293 430.887 301.672 430.848 302.039 430.77C302.414 430.691 302.785 430.594 303.152 430.477V433.137C302.77 433.309 302.293 433.449 301.723 433.559C301.16 433.676 300.543 433.734 299.871 433.734C299.09 433.734 298.387 433.609 297.762 433.359C297.145 433.102 296.656 432.66 296.297 432.035C295.945 431.402 295.77 430.523 295.77 429.398V423.082H294.059V421.57L296.027 420.375L297.059 417.609H299.344V420.398H303.012V423.082H299.344V429.398C299.344 429.898 299.484 430.273 299.766 430.523C300.055 430.766 300.434 430.887 300.902 430.887Z" fill="white"/>
</g>
<rect x="17.5" y="113.5" width="445" height="253" rx="4.5" fill="white" stroke="#7700C6" stroke-width="3"/>
<path d="M173.598 132.867C175.152 132.867 176.434 133.055 177.441 133.43C178.457 133.805 179.211 134.371 179.703 135.129C180.195 135.887 180.441 136.844 180.441 138C180.441 138.781 180.293 139.465 179.996 140.051C179.699 140.637 179.309 141.133 178.824 141.539C178.34 141.945 177.816 142.277 177.254 142.535L182.293 150H178.262L174.172 143.426H172.238V150H168.605V132.867H173.598ZM173.34 135.844H172.238V140.473H173.41C174.613 140.473 175.473 140.273 175.988 139.875C176.512 139.469 176.773 138.875 176.773 138.094C176.773 137.281 176.492 136.703 175.93 136.359C175.375 136.016 174.512 135.844 173.34 135.844ZM194.316 150H184.449V132.867H194.316V135.844H188.082V139.605H193.883V142.582H188.082V147H194.316V150ZM203.375 132.867C205.586 132.867 207.199 133.344 208.215 134.297C209.23 135.242 209.738 136.547 209.738 138.211C209.738 138.961 209.625 139.68 209.398 140.367C209.172 141.047 208.801 141.652 208.285 142.184C207.777 142.715 207.098 143.137 206.246 143.449C205.395 143.754 204.344 143.906 203.094 143.906H201.535V150H197.902V132.867H203.375ZM203.188 135.844H201.535V140.93H202.73C203.41 140.93 204 140.84 204.5 140.66C205 140.48 205.387 140.199 205.66 139.816C205.934 139.434 206.07 138.941 206.07 138.34C206.07 137.496 205.836 136.871 205.367 136.465C204.898 136.051 204.172 135.844 203.188 135.844ZM228.523 141.41C228.523 142.73 228.359 143.934 228.031 145.02C227.703 146.098 227.203 147.027 226.531 147.809C225.867 148.59 225.023 149.191 224 149.613C222.977 150.027 221.766 150.234 220.367 150.234C218.969 150.234 217.758 150.027 216.734 149.613C215.711 149.191 214.863 148.59 214.191 147.809C213.527 147.027 213.031 146.094 212.703 145.008C212.375 143.922 212.211 142.715 212.211 141.387C212.211 139.613 212.5 138.07 213.078 136.758C213.664 135.438 214.562 134.414 215.773 133.688C216.984 132.961 218.523 132.598 220.391 132.598C222.25 132.598 223.777 132.961 224.973 133.688C226.176 134.414 227.066 135.438 227.645 136.758C228.23 138.078 228.523 139.629 228.523 141.41ZM216.02 141.41C216.02 142.605 216.168 143.637 216.465 144.504C216.77 145.363 217.242 146.027 217.883 146.496C218.523 146.957 219.352 147.188 220.367 147.188C221.398 147.188 222.234 146.957 222.875 146.496C223.516 146.027 223.98 145.363 224.27 144.504C224.566 143.637 224.715 142.605 224.715 141.41C224.715 139.613 224.379 138.199 223.707 137.168C223.035 136.137 221.93 135.621 220.391 135.621C219.367 135.621 218.531 135.855 217.883 136.324C217.242 136.785 216.77 137.449 216.465 138.316C216.168 139.176 216.02 140.207 216.02 141.41ZM242.188 145.242C242.188 146.258 241.941 147.141 241.449 147.891C240.957 148.641 240.238 149.219 239.293 149.625C238.355 150.031 237.215 150.234 235.871 150.234C235.277 150.234 234.695 150.195 234.125 150.117C233.562 150.039 233.02 149.926 232.496 149.777C231.98 149.621 231.488 149.43 231.02 149.203V145.828C231.832 146.188 232.676 146.512 233.551 146.801C234.426 147.09 235.293 147.234 236.152 147.234C236.746 147.234 237.223 147.156 237.582 147C237.949 146.844 238.215 146.629 238.379 146.355C238.543 146.082 238.625 145.77 238.625 145.418C238.625 144.988 238.48 144.621 238.191 144.316C237.902 144.012 237.504 143.727 236.996 143.461C236.496 143.195 235.93 142.91 235.297 142.605C234.898 142.418 234.465 142.191 233.996 141.926C233.527 141.652 233.082 141.32 232.66 140.93C232.238 140.539 231.891 140.066 231.617 139.512C231.352 138.949 231.219 138.277 231.219 137.496C231.219 136.473 231.453 135.598 231.922 134.871C232.391 134.145 233.059 133.59 233.926 133.207C234.801 132.816 235.832 132.621 237.02 132.621C237.91 132.621 238.758 132.727 239.562 132.938C240.375 133.141 241.223 133.438 242.105 133.828L240.934 136.652C240.145 136.332 239.438 136.086 238.812 135.914C238.188 135.734 237.551 135.645 236.902 135.645C236.449 135.645 236.062 135.719 235.742 135.867C235.422 136.008 235.18 136.211 235.016 136.477C234.852 136.734 234.77 137.035 234.77 137.379C234.77 137.785 234.887 138.129 235.121 138.41C235.363 138.684 235.723 138.949 236.199 139.207C236.684 139.465 237.285 139.766 238.004 140.109C238.879 140.523 239.625 140.957 240.242 141.41C240.867 141.855 241.348 142.383 241.684 142.992C242.02 143.594 242.188 144.344 242.188 145.242ZM245.293 150V132.867H248.926V150H245.293ZM259.848 150H256.215V135.891H251.562V132.867H264.5V135.891H259.848V150ZM267.137 150V132.867H270.77V150H267.137ZM290.633 141.41C290.633 142.73 290.469 143.934 290.141 145.02C289.812 146.098 289.312 147.027 288.641 147.809C287.977 148.59 287.133 149.191 286.109 149.613C285.086 150.027 283.875 150.234 282.477 150.234C281.078 150.234 279.867 150.027 278.844 149.613C277.82 149.191 276.973 148.59 276.301 147.809C275.637 147.027 275.141 146.094 274.812 145.008C274.484 143.922 274.32 142.715 274.32 141.387C274.32 139.613 274.609 138.07 275.188 136.758C275.773 135.438 276.672 134.414 277.883 133.688C279.094 132.961 280.633 132.598 282.5 132.598C284.359 132.598 285.887 132.961 287.082 133.688C288.285 134.414 289.176 135.438 289.754 136.758C290.34 138.078 290.633 139.629 290.633 141.41ZM278.129 141.41C278.129 142.605 278.277 143.637 278.574 144.504C278.879 145.363 279.352 146.027 279.992 146.496C280.633 146.957 281.461 147.188 282.477 147.188C283.508 147.188 284.344 146.957 284.984 146.496C285.625 146.027 286.09 145.363 286.379 144.504C286.676 143.637 286.824 142.605 286.824 141.41C286.824 139.613 286.488 138.199 285.816 137.168C285.145 136.137 284.039 135.621 282.5 135.621C281.477 135.621 280.641 135.855 279.992 136.324C279.352 136.785 278.879 137.449 278.574 138.316C278.277 139.176 278.129 140.207 278.129 141.41ZM309.383 150H304.766L297.312 137.039H297.207C297.238 137.578 297.266 138.121 297.289 138.668C297.312 139.215 297.336 139.762 297.359 140.309C297.383 140.848 297.406 141.391 297.43 141.938V150H294.184V132.867H298.766L306.207 145.699H306.289C306.273 145.168 306.254 144.641 306.23 144.117C306.207 143.594 306.184 143.07 306.16 142.547C306.145 142.023 306.129 141.5 306.113 140.977V132.867H309.383V150Z" fill="#31344E"/>
<path d="M16 168H464V362C464 365.314 461.314 368 458 368H22C18.6863 368 16 365.314 16 362V168Z" fill="#7700C6"/>
<path d="M281.77 221C283.766 221 285.385 222.619 285.385 224.615V246.308C285.385 248.304 283.766 249.923 281.77 249.923H260.077C258.08 249.923 256.462 248.304 256.462 246.308C256.462 244.311 258.08 242.692 260.077 242.692H275.437C275.246 242.549 275.067 242.385 274.902 242.199C267.343 233.663 256.094 228.23 243.498 228.23C220.59 228.231 202.23 246.151 202.23 268C202.23 289.849 220.59 307.769 243.498 307.77C260.857 307.77 272.373 298.05 278.412 282.929C279.153 281.074 281.256 280.172 283.11 280.912C284.964 281.653 285.867 283.756 285.127 285.61C278.192 302.975 264.323 315 243.498 315C216.83 315 195 294.072 195 268C195 241.928 216.83 221 243.498 221C257.057 221 269.341 226.397 278.153 235.119V224.615C278.153 222.619 279.773 221 281.77 221ZM244.444 255.489C247.998 255.489 251.289 257.356 253.124 260.404L259.272 270.635C260.232 272.227 259.716 274.305 258.123 275.265C256.53 276.224 254.453 275.708 253.493 274.115L250.466 269.095V292.625C250.466 294.492 248.958 296 247.091 296C245.224 296 243.716 294.492 243.716 292.625V279.125H242.028V292.625C242.028 294.492 240.52 296 238.653 296C236.787 296 235.278 294.492 235.278 292.625V269.095L232.263 274.115C231.303 275.708 229.224 276.224 227.632 275.265C226.04 274.305 225.523 272.227 226.482 270.635L232.632 260.404C234.467 257.356 237.757 255.489 241.312 255.489H244.444ZM242.872 242C244.215 242 245.503 242.533 246.452 243.482C247.402 244.432 247.935 245.72 247.935 247.062C247.935 248.405 247.402 249.693 246.452 250.643C245.503 251.592 244.215 252.125 242.872 252.125C241.53 252.125 240.242 251.592 239.293 250.643C238.344 249.693 237.81 248.405 237.81 247.062C237.81 245.72 238.344 244.432 239.293 243.482C240.242 242.533 241.53 242 242.872 242Z" fill="white"/>
<defs>
<filter id="filter0_d_3980_48039" x="12" y="382" width="456" height="88" filterUnits="userSpaceOnUse" color-interpolation-filters="sRGB">
<feFlood flood-opacity="0" result="BackgroundImageFix"/>
<feColorMatrix in="SourceAlpha" type="matrix" values="0 0 0 0 0 0 0 0 0 0 0 0 0 0 0 0 0 0 127 0" result="hardAlpha"/>
<feOffset dy="2"/>
<feGaussianBlur stdDeviation="2"/>
<feComposite in2="hardAlpha" operator="out"/>
<feColorMatrix type="matrix" values="0 0 0 0 0 0 0 0 0 0 0 0 0 0 0 0 0 0 0.25 0"/>
<feBlend mode="normal" in2="BackgroundImageFix" result="effect1_dropShadow_3980_48039"/>
<feBlend mode="normal" in="SourceGraphic" in2="effect1_dropShadow_3980_48039" result="shape"/>
</filter>
</defs>
</svg>
