<svg width="480" height="480" viewBox="0 0 480 480" fill="none" xmlns="http://www.w3.org/2000/svg">
<rect width="480" height="480" fill="white"/>
<rect x="17.5" y="17.5" width="445" height="445" rx="4.5" fill="white" stroke="#218448" stroke-width="3"/>
<path d="M98.0469 45.1562H105.156C108.198 45.1562 110.5 45.5833 112.062 46.4375C113.625 47.2917 114.406 48.7917 114.406 50.9375C114.406 51.8021 114.266 52.5833 113.984 53.2812C113.714 53.9792 113.318 54.5521 112.797 55C112.276 55.4479 111.641 55.7396 110.891 55.875V56.0312C111.651 56.1875 112.339 56.4583 112.953 56.8438C113.568 57.2188 114.057 57.7708 114.422 58.5C114.797 59.2188 114.984 60.1771 114.984 61.375C114.984 62.7604 114.646 63.9479 113.969 64.9375C113.292 65.9271 112.323 66.6875 111.062 67.2188C109.812 67.7396 108.323 68 106.594 68H98.0469V45.1562ZM102.891 54.2031H105.703C107.109 54.2031 108.083 53.9844 108.625 53.5469C109.167 53.099 109.438 52.4427 109.438 51.5781C109.438 50.7031 109.115 50.0781 108.469 49.7031C107.833 49.3177 106.823 49.125 105.438 49.125H102.891V54.2031ZM102.891 58.0469V64H106.047C107.505 64 108.521 63.7188 109.094 63.1562C109.667 62.5938 109.953 61.8385 109.953 60.8906C109.953 60.3281 109.828 59.8333 109.578 59.4062C109.328 58.9792 108.906 58.6458 108.312 58.4062C107.729 58.1667 106.922 58.0469 105.891 58.0469H102.891ZM132.703 68H119.547V45.1562H132.703V49.125H124.391V54.1406H132.125V58.1094H124.391V64H132.703V68ZM156.438 56.3594C156.438 58.9323 155.943 61.0833 154.953 62.8125C153.974 64.5312 152.552 65.8281 150.688 66.7031C148.823 67.5677 146.578 68 143.953 68H137.484V45.1562H144.656C147.052 45.1562 149.13 45.5833 150.891 46.4375C152.651 47.2812 154.016 48.5365 154.984 50.2031C155.953 51.8594 156.438 53.9115 156.438 56.3594ZM151.406 56.4844C151.406 54.7969 151.156 53.4115 150.656 52.3281C150.167 51.2344 149.438 50.4271 148.469 49.9062C147.51 49.3854 146.323 49.125 144.906 49.125H142.328V64H144.406C146.771 64 148.526 63.3698 149.672 62.1094C150.828 60.849 151.406 58.974 151.406 56.4844ZM179.156 68L173.656 50.0781H173.516C173.536 50.5052 173.568 51.151 173.609 52.0156C173.661 52.8698 173.708 53.7812 173.75 54.75C173.792 55.7188 173.812 56.5938 173.812 57.375V68H169.484V45.1562H176.078L181.484 62.625H181.578L187.312 45.1562H193.906V68H189.391V57.1875C189.391 56.4688 189.401 55.6406 189.422 54.7031C189.453 53.7656 189.49 52.875 189.531 52.0312C189.573 51.1771 189.604 50.5365 189.625 50.1094H189.484L183.594 68H179.156ZM220.406 56.5469C220.406 58.3073 220.188 59.9115 219.75 61.3594C219.312 62.7969 218.646 64.0365 217.75 65.0781C216.865 66.1198 215.74 66.9219 214.375 67.4844C213.01 68.0365 211.396 68.3125 209.531 68.3125C207.667 68.3125 206.052 68.0365 204.688 67.4844C203.323 66.9219 202.193 66.1198 201.297 65.0781C200.411 64.0365 199.75 62.7917 199.312 61.3438C198.875 59.8958 198.656 58.2865 198.656 56.5156C198.656 54.151 199.042 52.0938 199.812 50.3438C200.594 48.5833 201.792 47.2188 203.406 46.25C205.021 45.2812 207.073 44.7969 209.562 44.7969C212.042 44.7969 214.078 45.2812 215.672 46.25C217.276 47.2188 218.464 48.5833 219.234 50.3438C220.016 52.1042 220.406 54.1719 220.406 56.5469ZM203.734 56.5469C203.734 58.1406 203.932 59.5156 204.328 60.6719C204.734 61.8177 205.365 62.7031 206.219 63.3281C207.073 63.9427 208.177 64.25 209.531 64.25C210.906 64.25 212.021 63.9427 212.875 63.3281C213.729 62.7031 214.349 61.8177 214.734 60.6719C215.13 59.5156 215.328 58.1406 215.328 56.5469C215.328 54.151 214.88 52.2656 213.984 50.8906C213.089 49.5156 211.615 48.8281 209.562 48.8281C208.198 48.8281 207.083 49.1406 206.219 49.7656C205.365 50.3802 204.734 51.2656 204.328 52.4219C203.932 53.5677 203.734 54.9427 203.734 56.5469ZM245.406 68H239.25L229.312 50.7188H229.172C229.214 51.4375 229.25 52.1615 229.281 52.8906C229.312 53.6198 229.344 54.349 229.375 55.0781C229.406 55.7969 229.438 56.5208 229.469 57.25V68H225.141V45.1562H231.25L241.172 62.2656H241.281C241.26 61.5573 241.234 60.8542 241.203 60.1562C241.172 59.4583 241.141 58.7604 241.109 58.0625C241.089 57.3646 241.068 56.6667 241.047 55.9688V45.1562H245.406V68ZM251.172 68V45.1562H256.016V68H251.172ZM270.578 68H265.734V49.1875H259.531V45.1562H276.781V49.1875H270.578V68ZM301.031 56.5469C301.031 58.3073 300.812 59.9115 300.375 61.3594C299.938 62.7969 299.271 64.0365 298.375 65.0781C297.49 66.1198 296.365 66.9219 295 67.4844C293.635 68.0365 292.021 68.3125 290.156 68.3125C288.292 68.3125 286.677 68.0365 285.312 67.4844C283.948 66.9219 282.818 66.1198 281.922 65.0781C281.036 64.0365 280.375 62.7917 279.938 61.3438C279.5 59.8958 279.281 58.2865 279.281 56.5156C279.281 54.151 279.667 52.0938 280.438 50.3438C281.219 48.5833 282.417 47.2188 284.031 46.25C285.646 45.2812 287.698 44.7969 290.188 44.7969C292.667 44.7969 294.703 45.2812 296.297 46.25C297.901 47.2188 299.089 48.5833 299.859 50.3438C300.641 52.1042 301.031 54.1719 301.031 56.5469ZM284.359 56.5469C284.359 58.1406 284.557 59.5156 284.953 60.6719C285.359 61.8177 285.99 62.7031 286.844 63.3281C287.698 63.9427 288.802 64.25 290.156 64.25C291.531 64.25 292.646 63.9427 293.5 63.3281C294.354 62.7031 294.974 61.8177 295.359 60.6719C295.755 59.5156 295.953 58.1406 295.953 56.5469C295.953 54.151 295.505 52.2656 294.609 50.8906C293.714 49.5156 292.24 48.8281 290.188 48.8281C288.823 48.8281 287.708 49.1406 286.844 49.7656C285.99 50.3802 285.359 51.2656 284.953 52.4219C284.557 53.5677 284.359 54.9427 284.359 56.5469ZM312.422 45.1562C314.495 45.1562 316.203 45.4062 317.547 45.9062C318.901 46.4062 319.906 47.1615 320.562 48.1719C321.219 49.1823 321.547 50.4583 321.547 52C321.547 53.0417 321.349 53.9531 320.953 54.7344C320.557 55.5156 320.036 56.1771 319.391 56.7188C318.745 57.2604 318.047 57.7031 317.297 58.0469L324.016 68H318.641L313.188 59.2344H310.609V68H305.766V45.1562H312.422ZM312.078 49.125H310.609V55.2969H312.172C313.776 55.2969 314.922 55.0312 315.609 54.5C316.307 53.9583 316.656 53.1667 316.656 52.125C316.656 51.0417 316.281 50.2708 315.531 49.8125C314.792 49.3542 313.641 49.125 312.078 49.125ZM326.891 68V45.1562H331.734V68H326.891ZM357.75 68H351.594L341.656 50.7188H341.516C341.557 51.4375 341.594 52.1615 341.625 52.8906C341.656 53.6198 341.688 54.349 341.719 55.0781C341.75 55.7969 341.781 56.5208 341.812 57.25V68H337.484V45.1562H343.594L353.516 62.2656H353.625C353.604 61.5573 353.578 60.8542 353.547 60.1562C353.516 59.4583 353.484 58.7604 353.453 58.0625C353.432 57.3646 353.411 56.6667 353.391 55.9688V45.1562H357.75V68ZM372.188 55.1719H381.25V67.0156C380.052 67.4115 378.807 67.7292 377.516 67.9688C376.224 68.1979 374.76 68.3125 373.125 68.3125C370.854 68.3125 368.927 67.8646 367.344 66.9688C365.76 66.0729 364.557 64.75 363.734 63C362.911 61.25 362.5 59.099 362.5 56.5469C362.5 54.151 362.958 52.0781 363.875 50.3281C364.802 48.5781 366.151 47.224 367.922 46.2656C369.703 45.3073 371.875 44.8281 374.438 44.8281C375.646 44.8281 376.839 44.9583 378.016 45.2188C379.193 45.4792 380.26 45.8177 381.219 46.2344L379.609 50.1094C378.911 49.7552 378.115 49.4583 377.219 49.2188C376.323 48.9792 375.385 48.8594 374.406 48.8594C373 48.8594 371.776 49.1823 370.734 49.8281C369.703 50.474 368.901 51.3802 368.328 52.5469C367.766 53.7031 367.484 55.0677 367.484 56.6406C367.484 58.1302 367.688 59.4531 368.094 60.6094C368.5 61.7552 369.141 62.6562 370.016 63.3125C370.891 63.9583 372.031 64.2812 373.438 64.2812C374.125 64.2812 374.703 64.25 375.172 64.1875C375.651 64.1146 376.099 64.0417 376.516 63.9688V59.2031H372.188V55.1719Z" fill="#31344E"/>
<path d="M16 94H464V458C464 461.314 461.314 464 458 464H22C18.6863 464 16 461.314 16 458V94Z" fill="#218448"/>
<path d="M177.547 262.702L170 215.059L178.138 214.069C182.632 213.522 186.781 216.272 187.406 220.211L190.78 241.514H197.265V240.969C197.265 236.992 200.944 233.768 205.481 233.768H218.626C223.164 233.768 226.842 236.992 226.842 240.969V241.514H300.011V241.689H300.784C305.321 241.689 309 244.912 309 248.889V296.411C305.179 296.411 301.888 294.047 301.138 290.763L298.533 279.345H188.015L185.409 290.763C184.659 294.047 181.369 296.411 177.547 296.411V262.702Z" fill="white"/>
<path d="M217.164 341V323.867H220.797V338H227.746V341H217.164ZM242.359 334.426C242.359 335.52 242.211 336.488 241.914 337.332C241.625 338.176 241.199 338.891 240.637 339.477C240.082 340.055 239.41 340.492 238.621 340.789C237.84 341.086 236.957 341.234 235.973 341.234C235.051 341.234 234.203 341.086 233.43 340.789C232.664 340.492 231.996 340.055 231.426 339.477C230.863 338.891 230.426 338.176 230.113 337.332C229.809 336.488 229.656 335.52 229.656 334.426C229.656 332.973 229.914 331.742 230.43 330.734C230.945 329.727 231.68 328.961 232.633 328.438C233.586 327.914 234.723 327.652 236.043 327.652C237.27 327.652 238.355 327.914 239.301 328.438C240.254 328.961 241 329.727 241.539 330.734C242.086 331.742 242.359 332.973 242.359 334.426ZM233.301 334.426C233.301 335.285 233.395 336.008 233.582 336.594C233.77 337.18 234.062 337.621 234.461 337.918C234.859 338.215 235.379 338.363 236.02 338.363C236.652 338.363 237.164 338.215 237.555 337.918C237.953 337.621 238.242 337.18 238.422 336.594C238.609 336.008 238.703 335.285 238.703 334.426C238.703 333.559 238.609 332.84 238.422 332.27C238.242 331.691 237.953 331.258 237.555 330.969C237.156 330.68 236.637 330.535 235.996 330.535C235.051 330.535 234.363 330.859 233.934 331.508C233.512 332.156 233.301 333.129 233.301 334.426ZM256.082 341L255.074 336.418C255.02 336.145 254.93 335.742 254.805 335.211C254.68 334.672 254.543 334.098 254.395 333.488C254.254 332.871 254.121 332.301 253.996 331.777C253.879 331.254 253.793 330.871 253.738 330.629H253.633C253.578 330.871 253.492 331.254 253.375 331.777C253.258 332.301 253.125 332.871 252.977 333.488C252.836 334.105 252.703 334.688 252.578 335.234C252.453 335.773 252.359 336.184 252.297 336.465L251.242 341H247.398L243.672 327.898H247.234L248.746 333.699C248.848 334.105 248.945 334.59 249.039 335.152C249.133 335.707 249.215 336.246 249.285 336.77C249.363 337.285 249.422 337.695 249.461 338H249.555C249.57 337.773 249.602 337.473 249.648 337.098C249.703 336.723 249.762 336.336 249.824 335.938C249.895 335.531 249.957 335.168 250.012 334.848C250.074 334.52 250.121 334.297 250.152 334.18L251.77 327.898H255.707L257.242 334.18C257.297 334.406 257.367 334.766 257.453 335.258C257.547 335.75 257.629 336.258 257.699 336.781C257.77 337.297 257.809 337.703 257.816 338H257.91C257.941 337.734 257.996 337.34 258.074 336.816C258.152 336.293 258.242 335.746 258.344 335.176C258.453 334.598 258.562 334.105 258.672 333.699L260.242 327.898H263.746L259.973 341H256.082Z" fill="white"/>
</svg>
