<svg width="480" height="480" viewBox="0 0 480 480" fill="none" xmlns="http://www.w3.org/2000/svg">
<rect width="480" height="480" fill="white"/>
<g filter="url(#filter0_d_3949_46233)">
<circle cx="240" cy="192" r="160" fill="#1A1040"/>
</g>
<path d="M178.184 181L176.113 174.203H165.703L163.633 181H157.109L167.188 152.328H174.59L184.707 181H178.184ZM174.668 169.125L172.598 162.484C172.467 162.042 172.292 161.475 172.07 160.785C171.862 160.082 171.647 159.372 171.426 158.656C171.217 157.927 171.048 157.296 170.918 156.762C170.788 157.296 170.605 157.96 170.371 158.754C170.15 159.535 169.935 160.277 169.727 160.98C169.518 161.684 169.368 162.185 169.277 162.484L167.227 169.125H174.668ZM196.719 181.391C194.557 181.391 192.715 181 191.191 180.219C189.668 179.424 188.509 178.201 187.715 176.547C186.921 174.893 186.523 172.777 186.523 170.199C186.523 167.53 186.973 165.355 187.871 163.676C188.783 161.983 190.039 160.74 191.641 159.945C193.255 159.151 195.124 158.754 197.246 158.754C198.757 158.754 200.059 158.904 201.152 159.203C202.259 159.49 203.223 159.835 204.043 160.238L202.285 164.848C201.348 164.47 200.475 164.164 199.668 163.93C198.861 163.682 198.053 163.559 197.246 163.559C196.204 163.559 195.339 163.806 194.648 164.301C193.958 164.783 193.444 165.512 193.105 166.488C192.767 167.465 192.598 168.689 192.598 170.16C192.598 171.605 192.78 172.803 193.145 173.754C193.509 174.704 194.036 175.414 194.727 175.883C195.417 176.339 196.257 176.566 197.246 176.566C198.483 176.566 199.583 176.404 200.547 176.078C201.51 175.74 202.448 175.271 203.359 174.672V179.77C202.448 180.342 201.491 180.753 200.488 181C199.499 181.26 198.242 181.391 196.719 181.391ZM217.637 176.645C218.288 176.645 218.919 176.579 219.531 176.449C220.156 176.319 220.775 176.156 221.387 175.961V180.395C220.749 180.681 219.954 180.915 219.004 181.098C218.066 181.293 217.038 181.391 215.918 181.391C214.616 181.391 213.444 181.182 212.402 180.766C211.374 180.336 210.56 179.6 209.961 178.559C209.375 177.504 209.082 176.039 209.082 174.164V163.637H206.23V161.117L209.512 159.125L211.23 154.516H215.039V159.164H221.152V163.637H215.039V174.164C215.039 174.997 215.273 175.622 215.742 176.039C216.224 176.443 216.855 176.645 217.637 176.645ZM231.777 159.164V181H225.82V159.164H231.777ZM228.809 150.609C229.694 150.609 230.456 150.818 231.094 151.234C231.732 151.638 232.051 152.4 232.051 153.52C232.051 154.626 231.732 155.395 231.094 155.824C230.456 156.241 229.694 156.449 228.809 156.449C227.91 156.449 227.142 156.241 226.504 155.824C225.879 155.395 225.566 154.626 225.566 153.52C225.566 152.4 225.879 151.638 226.504 151.234C227.142 150.818 227.91 150.609 228.809 150.609ZM243.242 181L234.922 159.164H241.152L245.371 171.605C245.605 172.335 245.788 173.103 245.918 173.91C246.061 174.717 246.159 175.44 246.211 176.078H246.367C246.406 175.388 246.497 174.652 246.641 173.871C246.797 173.09 246.999 172.335 247.246 171.605L251.445 159.164H257.676L249.355 181H243.242ZM269.766 158.715C272.695 158.715 274.941 159.353 276.504 160.629C278.066 161.905 278.848 163.845 278.848 166.449V181H274.688L273.535 178.031H273.379C272.754 178.812 272.116 179.451 271.465 179.945C270.814 180.44 270.065 180.805 269.219 181.039C268.372 181.273 267.344 181.391 266.133 181.391C264.844 181.391 263.685 181.143 262.656 180.648C261.641 180.154 260.84 179.398 260.254 178.383C259.668 177.354 259.375 176.052 259.375 174.477C259.375 172.159 260.189 170.453 261.816 169.359C263.444 168.253 265.885 167.641 269.141 167.523L272.93 167.406V166.449C272.93 165.303 272.63 164.464 272.031 163.93C271.432 163.396 270.599 163.129 269.531 163.129C268.477 163.129 267.441 163.279 266.426 163.578C265.41 163.878 264.395 164.255 263.379 164.711L261.406 160.688C262.565 160.076 263.861 159.594 265.293 159.242C266.738 158.891 268.229 158.715 269.766 158.715ZM272.93 170.883L270.625 170.961C268.698 171.013 267.357 171.358 266.602 171.996C265.859 172.634 265.488 173.474 265.488 174.516C265.488 175.427 265.755 176.078 266.289 176.469C266.823 176.846 267.52 177.035 268.379 177.035C269.655 177.035 270.729 176.658 271.602 175.902C272.487 175.147 272.93 174.073 272.93 172.68V170.883ZM294.199 176.645C294.85 176.645 295.482 176.579 296.094 176.449C296.719 176.319 297.337 176.156 297.949 175.961V180.395C297.311 180.681 296.517 180.915 295.566 181.098C294.629 181.293 293.6 181.391 292.48 181.391C291.178 181.391 290.007 181.182 288.965 180.766C287.936 180.336 287.122 179.6 286.523 178.559C285.938 177.504 285.645 176.039 285.645 174.164V163.637H282.793V161.117L286.074 159.125L287.793 154.516H291.602V159.164H297.715V163.637H291.602V174.164C291.602 174.997 291.836 175.622 292.305 176.039C292.786 176.443 293.418 176.645 294.199 176.645ZM311.387 158.754C313.405 158.754 315.143 159.145 316.602 159.926C318.06 160.694 319.186 161.814 319.98 163.285C320.775 164.757 321.172 166.553 321.172 168.676V171.566H307.09C307.155 173.246 307.656 174.568 308.594 175.531C309.544 176.482 310.859 176.957 312.539 176.957C313.932 176.957 315.208 176.814 316.367 176.527C317.526 176.241 318.717 175.811 319.941 175.238V179.848C318.861 180.382 317.728 180.772 316.543 181.02C315.371 181.267 313.945 181.391 312.266 181.391C310.078 181.391 308.138 180.987 306.445 180.18C304.766 179.372 303.444 178.142 302.48 176.488C301.53 174.835 301.055 172.751 301.055 170.238C301.055 167.686 301.484 165.564 302.344 163.871C303.216 162.165 304.427 160.889 305.977 160.043C307.526 159.184 309.329 158.754 311.387 158.754ZM311.426 162.992C310.267 162.992 309.303 163.363 308.535 164.105C307.78 164.848 307.344 166.013 307.227 167.602H315.586C315.573 166.716 315.41 165.928 315.098 165.238C314.798 164.548 314.342 164.001 313.73 163.598C313.132 163.194 312.363 162.992 311.426 162.992ZM187.949 227.07C187.949 228.763 187.539 230.234 186.719 231.484C185.898 232.734 184.701 233.698 183.125 234.375C181.562 235.052 179.661 235.391 177.422 235.391C176.432 235.391 175.462 235.326 174.512 235.195C173.574 235.065 172.669 234.876 171.797 234.629C170.938 234.368 170.117 234.049 169.336 233.672V228.047C170.69 228.646 172.096 229.186 173.555 229.668C175.013 230.15 176.458 230.391 177.891 230.391C178.88 230.391 179.674 230.26 180.273 230C180.885 229.74 181.328 229.382 181.602 228.926C181.875 228.47 182.012 227.949 182.012 227.363C182.012 226.647 181.771 226.035 181.289 225.527C180.807 225.02 180.143 224.544 179.297 224.102C178.464 223.659 177.52 223.184 176.465 222.676C175.801 222.363 175.078 221.986 174.297 221.543C173.516 221.087 172.773 220.534 172.07 219.883C171.367 219.232 170.788 218.444 170.332 217.52C169.889 216.582 169.668 215.462 169.668 214.16C169.668 212.454 170.059 210.996 170.84 209.785C171.621 208.574 172.734 207.65 174.18 207.012C175.638 206.361 177.357 206.035 179.336 206.035C180.82 206.035 182.233 206.211 183.574 206.562C184.928 206.901 186.341 207.396 187.812 208.047L185.859 212.754C184.544 212.22 183.366 211.81 182.324 211.523C181.283 211.224 180.221 211.074 179.141 211.074C178.385 211.074 177.741 211.198 177.207 211.445C176.673 211.68 176.27 212.018 175.996 212.461C175.723 212.891 175.586 213.392 175.586 213.965C175.586 214.642 175.781 215.215 176.172 215.684C176.576 216.139 177.174 216.582 177.969 217.012C178.776 217.441 179.779 217.943 180.977 218.516C182.435 219.206 183.678 219.928 184.707 220.684C185.749 221.426 186.549 222.305 187.109 223.32C187.669 224.323 187.949 225.573 187.949 227.07ZM189.531 213.164H196.055L200.176 225.449C200.306 225.84 200.417 226.237 200.508 226.641C200.599 227.044 200.677 227.461 200.742 227.891C200.807 228.32 200.859 228.77 200.898 229.238H201.016C201.094 228.535 201.198 227.878 201.328 227.266C201.471 226.654 201.647 226.048 201.855 225.449L205.898 213.164H212.285L203.047 237.793C202.487 239.303 201.758 240.56 200.859 241.562C199.961 242.578 198.926 243.34 197.754 243.848C196.595 244.355 195.319 244.609 193.926 244.609C193.249 244.609 192.663 244.57 192.168 244.492C191.673 244.427 191.25 244.355 190.898 244.277V239.551C191.172 239.616 191.517 239.674 191.934 239.727C192.35 239.779 192.786 239.805 193.242 239.805C194.076 239.805 194.792 239.629 195.391 239.277C195.99 238.926 196.491 238.451 196.895 237.852C197.298 237.266 197.617 236.621 197.852 235.918L198.203 234.844L189.531 213.164ZM230.664 228.516C230.664 230 230.312 231.257 229.609 232.285C228.919 233.301 227.884 234.076 226.504 234.609C225.124 235.13 223.405 235.391 221.348 235.391C219.824 235.391 218.516 235.293 217.422 235.098C216.341 234.902 215.247 234.577 214.141 234.121V229.199C215.326 229.733 216.595 230.176 217.949 230.527C219.316 230.866 220.514 231.035 221.543 231.035C222.702 231.035 223.529 230.866 224.023 230.527C224.531 230.176 224.785 229.72 224.785 229.16C224.785 228.796 224.681 228.47 224.473 228.184C224.277 227.884 223.848 227.552 223.184 227.188C222.52 226.81 221.478 226.322 220.059 225.723C218.691 225.15 217.565 224.57 216.68 223.984C215.807 223.398 215.156 222.708 214.727 221.914C214.31 221.107 214.102 220.085 214.102 218.848C214.102 216.829 214.883 215.312 216.445 214.297C218.021 213.268 220.124 212.754 222.754 212.754C224.108 212.754 225.397 212.891 226.621 213.164C227.858 213.438 229.128 213.874 230.43 214.473L228.633 218.77C227.552 218.301 226.53 217.917 225.566 217.617C224.616 217.318 223.646 217.168 222.656 217.168C221.784 217.168 221.126 217.285 220.684 217.52C220.241 217.754 220.02 218.112 220.02 218.594C220.02 218.945 220.13 219.258 220.352 219.531C220.586 219.805 221.029 220.111 221.68 220.449C222.344 220.775 223.314 221.198 224.59 221.719C225.827 222.227 226.901 222.76 227.812 223.32C228.724 223.867 229.427 224.551 229.922 225.371C230.417 226.178 230.664 227.227 230.664 228.516ZM244.512 230.645C245.163 230.645 245.794 230.579 246.406 230.449C247.031 230.319 247.65 230.156 248.262 229.961V234.395C247.624 234.681 246.829 234.915 245.879 235.098C244.941 235.293 243.913 235.391 242.793 235.391C241.491 235.391 240.319 235.182 239.277 234.766C238.249 234.336 237.435 233.6 236.836 232.559C236.25 231.504 235.957 230.039 235.957 228.164V217.637H233.105V215.117L236.387 213.125L238.105 208.516H241.914V213.164H248.027V217.637H241.914V228.164C241.914 228.997 242.148 229.622 242.617 230.039C243.099 230.443 243.73 230.645 244.512 230.645ZM261.699 212.754C263.717 212.754 265.456 213.145 266.914 213.926C268.372 214.694 269.499 215.814 270.293 217.285C271.087 218.757 271.484 220.553 271.484 222.676V225.566H257.402C257.467 227.246 257.969 228.568 258.906 229.531C259.857 230.482 261.172 230.957 262.852 230.957C264.245 230.957 265.521 230.814 266.68 230.527C267.839 230.241 269.03 229.811 270.254 229.238V233.848C269.173 234.382 268.04 234.772 266.855 235.02C265.684 235.267 264.258 235.391 262.578 235.391C260.391 235.391 258.451 234.987 256.758 234.18C255.078 233.372 253.757 232.142 252.793 230.488C251.842 228.835 251.367 226.751 251.367 224.238C251.367 221.686 251.797 219.564 252.656 217.871C253.529 216.165 254.74 214.889 256.289 214.043C257.839 213.184 259.642 212.754 261.699 212.754ZM261.738 216.992C260.579 216.992 259.616 217.363 258.848 218.105C258.092 218.848 257.656 220.013 257.539 221.602H265.898C265.885 220.716 265.723 219.928 265.41 219.238C265.111 218.548 264.655 218.001 264.043 217.598C263.444 217.194 262.676 216.992 261.738 216.992ZM301.973 212.754C304.447 212.754 306.315 213.392 307.578 214.668C308.854 215.931 309.492 217.962 309.492 220.762V235H303.516V222.246C303.516 220.684 303.249 219.505 302.715 218.711C302.181 217.917 301.354 217.52 300.234 217.52C298.659 217.52 297.539 218.086 296.875 219.219C296.211 220.339 295.879 221.947 295.879 224.043V235H289.922V222.246C289.922 221.204 289.805 220.332 289.57 219.629C289.336 218.926 288.978 218.398 288.496 218.047C288.014 217.695 287.396 217.52 286.641 217.52C285.534 217.52 284.661 217.799 284.023 218.359C283.398 218.906 282.949 219.72 282.676 220.801C282.415 221.868 282.285 223.177 282.285 224.727V235H276.328V213.164H280.879L281.68 215.957H282.012C282.454 215.202 283.008 214.59 283.672 214.121C284.349 213.652 285.091 213.307 285.898 213.086C286.706 212.865 287.526 212.754 288.359 212.754C289.961 212.754 291.315 213.014 292.422 213.535C293.542 214.056 294.401 214.863 295 215.957H295.527C296.178 214.837 297.096 214.023 298.281 213.516C299.479 213.008 300.71 212.754 301.973 212.754Z" fill="white"/>
<g filter="url(#filter1_d_3949_46233)">
<rect x="16" y="384" width="448" height="80" rx="5" fill="white" shape-rendering="crispEdges"/>
<rect x="17.5" y="385.5" width="445" height="77" rx="3.5" stroke="#AC211C" stroke-width="3" shape-rendering="crispEdges"/>
<path d="M187.078 428.742C187.078 429.758 186.832 430.641 186.34 431.391C185.848 432.141 185.129 432.719 184.184 433.125C183.246 433.531 182.105 433.734 180.762 433.734C180.168 433.734 179.586 433.695 179.016 433.617C178.453 433.539 177.91 433.426 177.387 433.277C176.871 433.121 176.379 432.93 175.91 432.703V429.328C176.723 429.688 177.566 430.012 178.441 430.301C179.316 430.59 180.184 430.734 181.043 430.734C181.637 430.734 182.113 430.656 182.473 430.5C182.84 430.344 183.105 430.129 183.27 429.855C183.434 429.582 183.516 429.27 183.516 428.918C183.516 428.488 183.371 428.121 183.082 427.816C182.793 427.512 182.395 427.227 181.887 426.961C181.387 426.695 180.82 426.41 180.188 426.105C179.789 425.918 179.355 425.691 178.887 425.426C178.418 425.152 177.973 424.82 177.551 424.43C177.129 424.039 176.781 423.566 176.508 423.012C176.242 422.449 176.109 421.777 176.109 420.996C176.109 419.973 176.344 419.098 176.812 418.371C177.281 417.645 177.949 417.09 178.816 416.707C179.691 416.316 180.723 416.121 181.91 416.121C182.801 416.121 183.648 416.227 184.453 416.438C185.266 416.641 186.113 416.938 186.996 417.328L185.824 420.152C185.035 419.832 184.328 419.586 183.703 419.414C183.078 419.234 182.441 419.145 181.793 419.145C181.34 419.145 180.953 419.219 180.633 419.367C180.312 419.508 180.07 419.711 179.906 419.977C179.742 420.234 179.66 420.535 179.66 420.879C179.66 421.285 179.777 421.629 180.012 421.91C180.254 422.184 180.613 422.449 181.09 422.707C181.574 422.965 182.176 423.266 182.895 423.609C183.77 424.023 184.516 424.457 185.133 424.91C185.758 425.355 186.238 425.883 186.574 426.492C186.91 427.094 187.078 427.844 187.078 428.742ZM193.477 415.266V418.98C193.477 419.629 193.453 420.246 193.406 420.832C193.367 421.418 193.336 421.832 193.312 422.074H193.5C193.781 421.621 194.113 421.254 194.496 420.973C194.887 420.691 195.316 420.484 195.785 420.352C196.254 420.219 196.758 420.152 197.297 420.152C198.242 420.152 199.066 420.32 199.77 420.656C200.473 420.984 201.02 421.504 201.41 422.215C201.801 422.918 201.996 423.832 201.996 424.957V433.5H198.422V425.848C198.422 424.91 198.25 424.203 197.906 423.727C197.562 423.25 197.031 423.012 196.312 423.012C195.594 423.012 195.027 423.18 194.613 423.516C194.199 423.844 193.906 424.332 193.734 424.98C193.562 425.621 193.477 426.406 193.477 427.336V433.5H189.902V415.266H193.477ZM217.699 420.398V433.5H214.957L214.477 431.824H214.289C214.008 432.27 213.656 432.633 213.234 432.914C212.812 433.195 212.348 433.402 211.84 433.535C211.332 433.668 210.805 433.734 210.258 433.734C209.32 433.734 208.504 433.57 207.809 433.242C207.113 432.906 206.57 432.387 206.18 431.684C205.797 430.98 205.605 430.066 205.605 428.941V420.398H209.18V428.051C209.18 428.988 209.348 429.695 209.684 430.172C210.02 430.648 210.555 430.887 211.289 430.887C212.016 430.887 212.586 430.723 213 430.395C213.414 430.059 213.703 429.57 213.867 428.93C214.039 428.281 214.125 427.492 214.125 426.562V420.398H217.699ZM226.969 430.887C227.359 430.887 227.738 430.848 228.105 430.77C228.48 430.691 228.852 430.594 229.219 430.477V433.137C228.836 433.309 228.359 433.449 227.789 433.559C227.227 433.676 226.609 433.734 225.938 433.734C225.156 433.734 224.453 433.609 223.828 433.359C223.211 433.102 222.723 432.66 222.363 432.035C222.012 431.402 221.836 430.523 221.836 429.398V423.082H220.125V421.57L222.094 420.375L223.125 417.609H225.41V420.398H229.078V423.082H225.41V429.398C225.41 429.898 225.551 430.273 225.832 430.523C226.121 430.766 226.5 430.887 226.969 430.887ZM252.609 424.77C252.609 426.699 252.238 428.312 251.496 429.609C250.762 430.898 249.695 431.871 248.297 432.527C246.898 433.176 245.215 433.5 243.246 433.5H238.395V416.367H243.773C245.57 416.367 247.129 416.688 248.449 417.328C249.77 417.961 250.793 418.902 251.52 420.152C252.246 421.395 252.609 422.934 252.609 424.77ZM248.836 424.863C248.836 423.598 248.648 422.559 248.273 421.746C247.906 420.926 247.359 420.32 246.633 419.93C245.914 419.539 245.023 419.344 243.961 419.344H242.027V430.5H243.586C245.359 430.5 246.676 430.027 247.535 429.082C248.402 428.137 248.836 426.73 248.836 424.863ZM267.785 426.926C267.785 428.02 267.637 428.988 267.34 429.832C267.051 430.676 266.625 431.391 266.062 431.977C265.508 432.555 264.836 432.992 264.047 433.289C263.266 433.586 262.383 433.734 261.398 433.734C260.477 433.734 259.629 433.586 258.855 433.289C258.09 432.992 257.422 432.555 256.852 431.977C256.289 431.391 255.852 430.676 255.539 429.832C255.234 428.988 255.082 428.02 255.082 426.926C255.082 425.473 255.34 424.242 255.855 423.234C256.371 422.227 257.105 421.461 258.059 420.938C259.012 420.414 260.148 420.152 261.469 420.152C262.695 420.152 263.781 420.414 264.727 420.938C265.68 421.461 266.426 422.227 266.965 423.234C267.512 424.242 267.785 425.473 267.785 426.926ZM258.727 426.926C258.727 427.785 258.82 428.508 259.008 429.094C259.195 429.68 259.488 430.121 259.887 430.418C260.285 430.715 260.805 430.863 261.445 430.863C262.078 430.863 262.59 430.715 262.98 430.418C263.379 430.121 263.668 429.68 263.848 429.094C264.035 428.508 264.129 427.785 264.129 426.926C264.129 426.059 264.035 425.34 263.848 424.77C263.668 424.191 263.379 423.758 262.98 423.469C262.582 423.18 262.062 423.035 261.422 423.035C260.477 423.035 259.789 423.359 259.359 424.008C258.938 424.656 258.727 425.629 258.727 426.926ZM281.508 433.5L280.5 428.918C280.445 428.645 280.355 428.242 280.23 427.711C280.105 427.172 279.969 426.598 279.82 425.988C279.68 425.371 279.547 424.801 279.422 424.277C279.305 423.754 279.219 423.371 279.164 423.129H279.059C279.004 423.371 278.918 423.754 278.801 424.277C278.684 424.801 278.551 425.371 278.402 425.988C278.262 426.605 278.129 427.188 278.004 427.734C277.879 428.273 277.785 428.684 277.723 428.965L276.668 433.5H272.824L269.098 420.398H272.66L274.172 426.199C274.273 426.605 274.371 427.09 274.465 427.652C274.559 428.207 274.641 428.746 274.711 429.27C274.789 429.785 274.848 430.195 274.887 430.5H274.98C274.996 430.273 275.027 429.973 275.074 429.598C275.129 429.223 275.188 428.836 275.25 428.438C275.32 428.031 275.383 427.668 275.438 427.348C275.5 427.02 275.547 426.797 275.578 426.68L277.195 420.398H281.133L282.668 426.68C282.723 426.906 282.793 427.266 282.879 427.758C282.973 428.25 283.055 428.758 283.125 429.281C283.195 429.797 283.234 430.203 283.242 430.5H283.336C283.367 430.234 283.422 429.84 283.5 429.316C283.578 428.793 283.668 428.246 283.77 427.676C283.879 427.098 283.988 426.605 284.098 426.199L285.668 420.398H289.172L285.398 433.5H281.508ZM298.734 420.152C300.133 420.152 301.258 420.535 302.109 421.301C302.961 422.059 303.387 423.277 303.387 424.957V433.5H299.812V425.848C299.812 424.91 299.641 424.203 299.297 423.727C298.961 423.25 298.43 423.012 297.703 423.012C296.609 423.012 295.863 423.383 295.465 424.125C295.066 424.867 294.867 425.938 294.867 427.336V433.5H291.293V420.398H294.023L294.504 422.074H294.703C294.984 421.621 295.332 421.254 295.746 420.973C296.168 420.691 296.633 420.484 297.141 420.352C297.656 420.219 298.188 420.152 298.734 420.152Z" fill="#AC211C"/>
</g>
<defs>
<filter id="filter0_d_3949_46233" x="56" y="20" width="368" height="368" filterUnits="userSpaceOnUse" color-interpolation-filters="sRGB">
<feFlood flood-opacity="0" result="BackgroundImageFix"/>
<feColorMatrix in="SourceAlpha" type="matrix" values="0 0 0 0 0 0 0 0 0 0 0 0 0 0 0 0 0 0 127 0" result="hardAlpha"/>
<feOffset dy="12"/>
<feGaussianBlur stdDeviation="12"/>
<feComposite in2="hardAlpha" operator="out"/>
<feColorMatrix type="matrix" values="0 0 0 0 0 0 0 0 0 0 0 0 0 0 0 0 0 0 0.16 0"/>
<feBlend mode="normal" in2="BackgroundImageFix" result="effect1_dropShadow_3949_46233"/>
<feBlend mode="normal" in="SourceGraphic" in2="effect1_dropShadow_3949_46233" result="shape"/>
</filter>
<filter id="filter1_d_3949_46233" x="12" y="382" width="456" height="88" filterUnits="userSpaceOnUse" color-interpolation-filters="sRGB">
<feFlood flood-opacity="0" result="BackgroundImageFix"/>
<feColorMatrix in="SourceAlpha" type="matrix" values="0 0 0 0 0 0 0 0 0 0 0 0 0 0 0 0 0 0 127 0" result="hardAlpha"/>
<feOffset dy="2"/>
<feGaussianBlur stdDeviation="2"/>
<feComposite in2="hardAlpha" operator="out"/>
<feColorMatrix type="matrix" values="0 0 0 0 0 0 0 0 0 0 0 0 0 0 0 0 0 0 0.25 0"/>
<feBlend mode="normal" in2="BackgroundImageFix" result="effect1_dropShadow_3949_46233"/>
<feBlend mode="normal" in="SourceGraphic" in2="effect1_dropShadow_3949_46233" result="shape"/>
</filter>
</defs>
</svg>
