<svg width="480" height="480" viewBox="0 0 480 480" fill="none" xmlns="http://www.w3.org/2000/svg">
<rect width="480" height="480" fill="#F6F6F6"/>
<mask id="path-1-inside-1_3926_12817" fill="white">
<path d="M0 0H480V64H0V0Z"/>
</mask>
<path d="M0 0H480V64H0V0Z" fill="white"/>
<path d="M480 64V63H0V64V65H480V64Z" fill="#D1D1D1" mask="url(#path-1-inside-1_3926_12817)"/>
<path d="M186.578 36.0352C186.578 37.3242 186.113 38.3398 185.182 39.082C184.257 39.8242 182.968 40.1953 181.314 40.1953C179.791 40.1953 178.443 39.9089 177.271 39.3359V36.5234C178.235 36.9531 179.049 37.2559 179.713 37.4316C180.383 37.6074 180.995 37.6953 181.549 37.6953C182.213 37.6953 182.721 37.5684 183.072 37.3145C183.43 37.0605 183.609 36.6829 183.609 36.1816C183.609 35.9017 183.531 35.6543 183.375 35.4395C183.219 35.2181 182.988 35.0065 182.682 34.8047C182.382 34.6029 181.767 34.2806 180.836 33.8379C179.964 33.4277 179.309 33.0339 178.873 32.6562C178.437 32.2786 178.089 31.8392 177.828 31.3379C177.568 30.8366 177.438 30.2507 177.438 29.5801C177.438 28.3171 177.864 27.3242 178.717 26.6016C179.576 25.8789 180.761 25.5176 182.271 25.5176C183.014 25.5176 183.72 25.6055 184.391 25.7812C185.068 25.957 185.774 26.2044 186.51 26.5234L185.533 28.877C184.771 28.5645 184.14 28.3464 183.639 28.2227C183.144 28.099 182.656 28.0371 182.174 28.0371C181.601 28.0371 181.161 28.1706 180.855 28.4375C180.549 28.7044 180.396 29.0527 180.396 29.4824C180.396 29.7493 180.458 29.9837 180.582 30.1855C180.706 30.3809 180.901 30.5729 181.168 30.7617C181.441 30.944 182.083 31.276 183.092 31.7578C184.426 32.3958 185.341 33.0371 185.836 33.6816C186.331 34.3197 186.578 35.1042 186.578 36.0352ZM193.453 30.9961C192.822 30.9961 192.327 31.1979 191.969 31.6016C191.611 31.9987 191.406 32.5651 191.354 33.3008H195.533C195.52 32.5651 195.328 31.9987 194.957 31.6016C194.586 31.1979 194.085 30.9961 193.453 30.9961ZM193.873 40.1953C192.115 40.1953 190.742 39.7103 189.752 38.7402C188.762 37.7702 188.268 36.3965 188.268 34.6191C188.268 32.7897 188.723 31.377 189.635 30.3809C190.553 29.3783 191.819 28.877 193.434 28.877C194.977 28.877 196.178 29.3164 197.037 30.1953C197.896 31.0742 198.326 32.2884 198.326 33.8379V35.2832H191.285C191.318 36.1296 191.568 36.7904 192.037 37.2656C192.506 37.7409 193.163 37.9785 194.01 37.9785C194.667 37.9785 195.289 37.9102 195.875 37.7734C196.461 37.6367 197.073 37.4186 197.711 37.1191V39.4238C197.19 39.6842 196.633 39.8763 196.041 40C195.449 40.1302 194.726 40.1953 193.873 40.1953ZM203.727 40H200.748V24.8047H203.727V40ZM211.383 30.9961C210.751 30.9961 210.257 31.1979 209.898 31.6016C209.54 31.9987 209.335 32.5651 209.283 33.3008H213.463C213.45 32.5651 213.258 31.9987 212.887 31.6016C212.516 31.1979 212.014 30.9961 211.383 30.9961ZM211.803 40.1953C210.045 40.1953 208.671 39.7103 207.682 38.7402C206.692 37.7702 206.197 36.3965 206.197 34.6191C206.197 32.7897 206.653 31.377 207.564 30.3809C208.482 29.3783 209.749 28.877 211.363 28.877C212.906 28.877 214.107 29.3164 214.967 30.1953C215.826 31.0742 216.256 32.2884 216.256 33.8379V35.2832H209.215C209.247 36.1296 209.498 36.7904 209.967 37.2656C210.436 37.7409 211.093 37.9785 211.939 37.9785C212.597 37.9785 213.219 37.9102 213.805 37.7734C214.391 37.6367 215.003 37.4186 215.641 37.1191V39.4238C215.12 39.6842 214.563 39.8763 213.971 40C213.378 40.1302 212.656 40.1953 211.803 40.1953ZM223.111 40.1953C219.713 40.1953 218.014 38.3301 218.014 34.5996C218.014 32.7441 218.476 31.3281 219.4 30.3516C220.325 29.3685 221.65 28.877 223.375 28.877C224.638 28.877 225.771 29.1243 226.773 29.6191L225.895 31.9238C225.426 31.735 224.99 31.582 224.586 31.4648C224.182 31.3411 223.779 31.2793 223.375 31.2793C221.826 31.2793 221.051 32.3796 221.051 34.5801C221.051 36.7155 221.826 37.7832 223.375 37.7832C223.948 37.7832 224.479 37.7083 224.967 37.5586C225.455 37.4023 225.943 37.1615 226.432 36.8359V39.3848C225.95 39.6908 225.462 39.9023 224.967 40.0195C224.479 40.1367 223.86 40.1953 223.111 40.1953ZM233.57 37.8223C234.091 37.8223 234.716 37.7083 235.445 37.4805V39.6973C234.703 40.0293 233.792 40.1953 232.711 40.1953C231.52 40.1953 230.65 39.8958 230.104 39.2969C229.563 38.6914 229.293 37.7865 229.293 36.582V31.3184H227.867V30.0586L229.508 29.0625L230.367 26.7578H232.271V29.082H235.328V31.3184H232.271V36.582C232.271 37.0052 232.389 37.3177 232.623 37.5195C232.864 37.7214 233.18 37.8223 233.57 37.8223ZM249.791 40L249.215 38.5156H249.137C248.635 39.1471 248.118 39.5866 247.584 39.834C247.057 40.0749 246.367 40.1953 245.514 40.1953C244.465 40.1953 243.639 39.8958 243.033 39.2969C242.434 38.6979 242.135 37.8451 242.135 36.7383C242.135 35.5794 242.538 34.7266 243.346 34.1797C244.16 33.6263 245.383 33.3203 247.018 33.2617L248.912 33.2031V32.7246C248.912 31.6178 248.346 31.0645 247.213 31.0645C246.34 31.0645 245.315 31.3281 244.137 31.8555L243.15 29.8438C244.407 29.1862 245.8 28.8574 247.33 28.8574C248.795 28.8574 249.918 29.1764 250.699 29.8145C251.48 30.4525 251.871 31.4225 251.871 32.7246V40H249.791ZM248.912 34.9414L247.76 34.9805C246.894 35.0065 246.249 35.1628 245.826 35.4492C245.403 35.7357 245.191 36.1719 245.191 36.7578C245.191 37.5977 245.673 38.0176 246.637 38.0176C247.327 38.0176 247.877 37.819 248.287 37.4219C248.704 37.0247 248.912 36.4974 248.912 35.8398V34.9414ZM271.998 25.7227V34.9609C271.998 36.0156 271.76 36.9401 271.285 37.7344C270.816 38.5286 270.136 39.1374 269.244 39.5605C268.352 39.9837 267.298 40.1953 266.08 40.1953C264.244 40.1953 262.818 39.7266 261.803 38.7891C260.787 37.8451 260.279 36.556 260.279 34.9219V25.7227H263.297V34.4629C263.297 35.5632 263.518 36.3704 263.961 36.8848C264.404 37.3991 265.136 37.6562 266.158 37.6562C267.148 37.6562 267.864 37.3991 268.307 36.8848C268.756 36.3639 268.98 35.5501 268.98 34.4434V25.7227H271.998ZM285.338 40H282.359V33.623C282.359 32.8353 282.219 32.2461 281.939 31.8555C281.66 31.4583 281.214 31.2598 280.602 31.2598C279.768 31.2598 279.166 31.5397 278.795 32.0996C278.424 32.653 278.238 33.5742 278.238 34.8633V40H275.26V29.082H277.535L277.936 30.4785H278.102C278.434 29.9512 278.889 29.554 279.469 29.2871C280.055 29.0137 280.719 28.877 281.461 28.877C282.73 28.877 283.694 29.222 284.352 29.9121C285.009 30.5957 285.338 31.5853 285.338 32.8809V40ZM288.277 26.2598C288.277 25.2897 288.818 24.8047 289.898 24.8047C290.979 24.8047 291.52 25.2897 291.52 26.2598C291.52 26.722 291.383 27.0833 291.109 27.3438C290.842 27.5977 290.439 27.7246 289.898 27.7246C288.818 27.7246 288.277 27.2363 288.277 26.2598ZM291.383 40H288.404V29.082H291.383V40ZM299.117 37.8223C299.638 37.8223 300.263 37.7083 300.992 37.4805V39.6973C300.25 40.0293 299.339 40.1953 298.258 40.1953C297.066 40.1953 296.197 39.8958 295.65 39.2969C295.11 38.6914 294.84 37.7865 294.84 36.582V31.3184H293.414V30.0586L295.055 29.0625L295.914 26.7578H297.818V29.082H300.875V31.3184H297.818V36.582C297.818 37.0052 297.936 37.3177 298.17 37.5195C298.411 37.7214 298.727 37.8223 299.117 37.8223Z" fill="#31344E"/>
<path d="M459.29 24.0987C460.227 23.1616 460.227 21.6399 459.29 20.7028C458.353 19.7657 456.831 19.7657 455.894 20.7028L448 28.6041L440.099 20.7103C439.162 19.7732 437.64 19.7732 436.703 20.7103C435.766 21.6474 435.766 23.1691 436.703 24.1062L444.604 32L436.71 39.9013C435.773 40.8384 435.773 42.3601 436.71 43.2972C437.647 44.2343 439.169 44.2343 440.106 43.2972L448 35.3959L455.901 43.2897C456.838 44.2268 458.36 44.2268 459.297 43.2897C460.234 42.3526 460.234 40.8309 459.297 39.8938L451.396 32L459.29 24.0987Z" fill="#1A1040"/>
<g filter="url(#filter0_d_3926_12817)">
<rect x="16" y="80" width="219" height="64" rx="5" fill="white" shape-rendering="crispEdges"/>
<rect x="17.5" y="81.5" width="216" height="61" rx="3.5" stroke="#1A1040" stroke-width="3" shape-rendering="crispEdges"/>
<path d="M110.717 105.65V113.965C110.717 114.914 110.503 115.746 110.075 116.461C109.653 117.176 109.041 117.724 108.238 118.104C107.436 118.485 106.486 118.676 105.391 118.676C103.738 118.676 102.455 118.254 101.541 117.41C100.627 116.561 100.17 115.4 100.17 113.93V105.65H102.886V113.517C102.886 114.507 103.085 115.233 103.483 115.696C103.882 116.159 104.541 116.391 105.461 116.391C106.352 116.391 106.996 116.159 107.395 115.696C107.799 115.228 108.001 114.495 108.001 113.499V105.65H110.717ZM122.723 118.5H120.042V112.761C120.042 112.052 119.916 111.521 119.664 111.17C119.412 110.812 119.011 110.634 118.46 110.634C117.71 110.634 117.168 110.886 116.834 111.39C116.5 111.888 116.333 112.717 116.333 113.877V118.5H113.652V108.674H115.7L116.061 109.931H116.21C116.509 109.456 116.919 109.099 117.44 108.858C117.968 108.612 118.565 108.489 119.233 108.489C120.376 108.489 121.243 108.8 121.835 109.421C122.427 110.036 122.723 110.927 122.723 112.093V118.5ZM125.368 106.134C125.368 105.261 125.854 104.824 126.827 104.824C127.8 104.824 128.286 105.261 128.286 106.134C128.286 106.55 128.163 106.875 127.917 107.109C127.677 107.338 127.313 107.452 126.827 107.452C125.854 107.452 125.368 107.013 125.368 106.134ZM128.163 118.5H125.482V108.674H128.163V118.5ZM135.124 116.54C135.593 116.54 136.155 116.438 136.812 116.232V118.228C136.144 118.526 135.323 118.676 134.351 118.676C133.278 118.676 132.496 118.406 132.004 117.867C131.518 117.322 131.274 116.508 131.274 115.424V110.687H129.991V109.553L131.468 108.656L132.241 106.582H133.955V108.674H136.706V110.687H133.955V115.424C133.955 115.805 134.061 116.086 134.271 116.268C134.488 116.449 134.772 116.54 135.124 116.54ZM149.512 118.5H146.796V111.064L146.822 109.843L146.866 108.507C146.415 108.958 146.102 109.254 145.926 109.395L144.449 110.581L143.14 108.946L147.279 105.65H149.512V118.5Z" fill="#31344E"/>
</g>
<g filter="url(#filter1_d_3926_12817)">
<rect x="245" y="80" width="219" height="64" rx="5" fill="white" shape-rendering="crispEdges"/>
<rect x="246.5" y="81.5" width="216" height="61" rx="3.5" stroke="#1A1040" stroke-width="3" shape-rendering="crispEdges"/>
<path d="M339.717 105.65V113.965C339.717 114.914 339.503 115.746 339.075 116.461C338.653 117.176 338.041 117.724 337.238 118.104C336.436 118.485 335.486 118.676 334.391 118.676C332.738 118.676 331.455 118.254 330.541 117.41C329.627 116.561 329.17 115.4 329.17 113.93V105.65H331.886V113.517C331.886 114.507 332.085 115.233 332.483 115.696C332.882 116.159 333.541 116.391 334.461 116.391C335.352 116.391 335.996 116.159 336.395 115.696C336.799 115.228 337.001 114.495 337.001 113.499V105.65H339.717ZM351.723 118.5H349.042V112.761C349.042 112.052 348.916 111.521 348.664 111.17C348.412 110.812 348.011 110.634 347.46 110.634C346.71 110.634 346.168 110.886 345.834 111.39C345.5 111.888 345.333 112.717 345.333 113.877V118.5H342.652V108.674H344.7L345.061 109.931H345.21C345.509 109.456 345.919 109.099 346.44 108.858C346.968 108.612 347.565 108.489 348.233 108.489C349.376 108.489 350.243 108.8 350.835 109.421C351.427 110.036 351.723 110.927 351.723 112.093V118.5ZM354.368 106.134C354.368 105.261 354.854 104.824 355.827 104.824C356.8 104.824 357.286 105.261 357.286 106.134C357.286 106.55 357.163 106.875 356.917 107.109C356.677 107.338 356.313 107.452 355.827 107.452C354.854 107.452 354.368 107.013 354.368 106.134ZM357.163 118.5H354.482V108.674H357.163V118.5ZM364.124 116.54C364.593 116.54 365.155 116.438 365.812 116.232V118.228C365.144 118.526 364.323 118.676 363.351 118.676C362.278 118.676 361.496 118.406 361.004 117.867C360.518 117.322 360.274 116.508 360.274 115.424V110.687H358.991V109.553L360.468 108.656L361.241 106.582H362.955V108.674H365.706V110.687H362.955V115.424C362.955 115.805 363.061 116.086 363.271 116.268C363.488 116.449 363.772 116.54 364.124 116.54ZM380.779 118.5H371.797V116.61L375.022 113.35C375.978 112.371 376.602 111.694 376.895 111.319C377.188 110.938 377.398 110.587 377.527 110.265C377.656 109.942 377.721 109.608 377.721 109.263C377.721 108.747 377.577 108.363 377.29 108.111C377.009 107.859 376.631 107.733 376.156 107.733C375.658 107.733 375.175 107.848 374.706 108.076C374.237 108.305 373.748 108.63 373.238 109.052L371.762 107.303C372.395 106.764 372.919 106.383 373.335 106.16C373.751 105.938 374.205 105.768 374.697 105.65C375.189 105.527 375.74 105.466 376.35 105.466C377.152 105.466 377.861 105.612 378.477 105.905C379.092 106.198 379.569 106.608 379.909 107.136C380.249 107.663 380.419 108.267 380.419 108.946C380.419 109.538 380.313 110.095 380.103 110.616C379.897 111.132 379.575 111.662 379.136 112.207C378.702 112.752 377.935 113.528 376.833 114.536L375.181 116.092V116.215H380.779V118.5Z" fill="#1A1040"/>
</g>
<g filter="url(#filter2_d_3926_12817)">
<rect x="16" y="154" width="219" height="64" rx="5" fill="white" shape-rendering="crispEdges"/>
<rect x="17.5" y="155.5" width="216" height="61" rx="3.5" stroke="#1A1040" stroke-width="3" shape-rendering="crispEdges"/>
<path d="M110.717 179.65V187.965C110.717 188.914 110.503 189.746 110.075 190.461C109.653 191.176 109.041 191.724 108.238 192.104C107.436 192.485 106.486 192.676 105.391 192.676C103.738 192.676 102.455 192.254 101.541 191.41C100.627 190.561 100.17 189.4 100.17 187.93V179.65H102.886V187.517C102.886 188.507 103.085 189.233 103.483 189.696C103.882 190.159 104.541 190.391 105.461 190.391C106.352 190.391 106.996 190.159 107.395 189.696C107.799 189.228 108.001 188.495 108.001 187.499V179.65H110.717ZM122.723 192.5H120.042V186.761C120.042 186.052 119.916 185.521 119.664 185.17C119.412 184.812 119.011 184.634 118.46 184.634C117.71 184.634 117.168 184.886 116.834 185.39C116.5 185.888 116.333 186.717 116.333 187.877V192.5H113.652V182.674H115.7L116.061 183.931H116.21C116.509 183.456 116.919 183.099 117.44 182.858C117.968 182.612 118.565 182.489 119.233 182.489C120.376 182.489 121.243 182.8 121.835 183.421C122.427 184.036 122.723 184.927 122.723 186.093V192.5ZM125.368 180.134C125.368 179.261 125.854 178.824 126.827 178.824C127.8 178.824 128.286 179.261 128.286 180.134C128.286 180.55 128.163 180.875 127.917 181.109C127.677 181.338 127.313 181.452 126.827 181.452C125.854 181.452 125.368 181.013 125.368 180.134ZM128.163 192.5H125.482V182.674H128.163V192.5ZM135.124 190.54C135.593 190.54 136.155 190.438 136.812 190.232V192.228C136.144 192.526 135.323 192.676 134.351 192.676C133.278 192.676 132.496 192.406 132.004 191.867C131.518 191.322 131.274 190.508 131.274 189.424V184.687H129.991V183.553L131.468 182.656L132.241 180.582H133.955V182.674H136.706V184.687H133.955V189.424C133.955 189.805 134.061 190.086 134.271 190.268C134.488 190.449 134.772 190.54 135.124 190.54ZM151.278 182.524C151.278 183.327 151.035 184.01 150.549 184.572C150.062 185.135 149.38 185.521 148.501 185.732V185.785C149.538 185.914 150.323 186.23 150.856 186.734C151.39 187.232 151.656 187.906 151.656 188.756C151.656 189.992 151.208 190.956 150.312 191.647C149.415 192.333 148.135 192.676 146.471 192.676C145.076 192.676 143.84 192.444 142.762 191.981V189.67C143.26 189.922 143.808 190.127 144.405 190.285C145.003 190.443 145.595 190.522 146.181 190.522C147.077 190.522 147.739 190.37 148.167 190.065C148.595 189.761 148.809 189.271 148.809 188.598C148.809 187.994 148.562 187.566 148.07 187.314C147.578 187.062 146.793 186.937 145.715 186.937H144.739V184.854H145.732C146.729 184.854 147.455 184.725 147.912 184.467C148.375 184.203 148.606 183.755 148.606 183.122C148.606 182.149 147.997 181.663 146.778 181.663C146.356 181.663 145.926 181.733 145.486 181.874C145.053 182.015 144.569 182.258 144.036 182.604L142.779 180.731C143.951 179.888 145.349 179.466 146.972 179.466C148.302 179.466 149.351 179.735 150.118 180.274C150.892 180.813 151.278 181.563 151.278 182.524Z" fill="#31344E"/>
</g>
<g filter="url(#filter3_d_3926_12817)">
<rect x="245" y="154" width="219" height="64" rx="5" fill="#0E76BD"/>
<rect x="246.5" y="155.5" width="216" height="61" rx="3.5" stroke="#0E76BD" stroke-width="3"/>
<path d="M339.717 179.65V187.965C339.717 188.914 339.503 189.746 339.075 190.461C338.653 191.176 338.041 191.724 337.238 192.104C336.436 192.485 335.486 192.676 334.391 192.676C332.738 192.676 331.455 192.254 330.541 191.41C329.627 190.561 329.17 189.4 329.17 187.93V179.65H331.886V187.517C331.886 188.507 332.085 189.233 332.483 189.696C332.882 190.159 333.541 190.391 334.461 190.391C335.352 190.391 335.996 190.159 336.395 189.696C336.799 189.228 337.001 188.495 337.001 187.499V179.65H339.717ZM351.723 192.5H349.042V186.761C349.042 186.052 348.916 185.521 348.664 185.17C348.412 184.812 348.011 184.634 347.46 184.634C346.71 184.634 346.168 184.886 345.834 185.39C345.5 185.888 345.333 186.717 345.333 187.877V192.5H342.652V182.674H344.7L345.061 183.931H345.21C345.509 183.456 345.919 183.099 346.44 182.858C346.968 182.612 347.565 182.489 348.233 182.489C349.376 182.489 350.243 182.8 350.835 183.421C351.427 184.036 351.723 184.927 351.723 186.093V192.5ZM354.368 180.134C354.368 179.261 354.854 178.824 355.827 178.824C356.8 178.824 357.286 179.261 357.286 180.134C357.286 180.55 357.163 180.875 356.917 181.109C356.677 181.338 356.313 181.452 355.827 181.452C354.854 181.452 354.368 181.013 354.368 180.134ZM357.163 192.5H354.482V182.674H357.163V192.5ZM364.124 190.54C364.593 190.54 365.155 190.438 365.812 190.232V192.228C365.144 192.526 364.323 192.676 363.351 192.676C362.278 192.676 361.496 192.406 361.004 191.867C360.518 191.322 360.274 190.508 360.274 189.424V184.687H358.991V183.553L360.468 182.656L361.241 180.582H362.955V182.674H365.706V184.687H362.955V189.424C362.955 189.805 363.061 190.086 363.271 190.268C363.488 190.449 363.772 190.54 364.124 190.54ZM381.069 189.837H379.522V192.5H376.868V189.837H371.384V187.947L377.018 179.65H379.522V187.728H381.069V189.837ZM376.868 187.728V185.548C376.868 185.185 376.883 184.657 376.912 183.966C376.941 183.274 376.965 182.873 376.982 182.762H376.912C376.695 183.242 376.435 183.711 376.13 184.168L373.774 187.728H376.868Z" fill="white"/>
</g>
<g filter="url(#filter4_d_3926_12817)">
<rect x="16" y="228" width="219" height="64" rx="5" fill="white" shape-rendering="crispEdges"/>
<rect x="17.5" y="229.5" width="216" height="61" rx="3.5" stroke="#1A1040" stroke-width="3" shape-rendering="crispEdges"/>
<path d="M110.717 253.65V261.965C110.717 262.914 110.503 263.746 110.075 264.461C109.653 265.176 109.041 265.724 108.238 266.104C107.436 266.485 106.486 266.676 105.391 266.676C103.738 266.676 102.455 266.254 101.541 265.41C100.627 264.561 100.17 263.4 100.17 261.93V253.65H102.886V261.517C102.886 262.507 103.085 263.233 103.483 263.696C103.882 264.159 104.541 264.391 105.461 264.391C106.352 264.391 106.996 264.159 107.395 263.696C107.799 263.228 108.001 262.495 108.001 261.499V253.65H110.717ZM122.723 266.5H120.042V260.761C120.042 260.052 119.916 259.521 119.664 259.17C119.412 258.812 119.011 258.634 118.46 258.634C117.71 258.634 117.168 258.886 116.834 259.39C116.5 259.888 116.333 260.717 116.333 261.877V266.5H113.652V256.674H115.7L116.061 257.931H116.21C116.509 257.456 116.919 257.099 117.44 256.858C117.968 256.612 118.565 256.489 119.233 256.489C120.376 256.489 121.243 256.8 121.835 257.421C122.427 258.036 122.723 258.927 122.723 260.093V266.5ZM125.368 254.134C125.368 253.261 125.854 252.824 126.827 252.824C127.8 252.824 128.286 253.261 128.286 254.134C128.286 254.55 128.163 254.875 127.917 255.109C127.677 255.338 127.313 255.452 126.827 255.452C125.854 255.452 125.368 255.013 125.368 254.134ZM128.163 266.5H125.482V256.674H128.163V266.5ZM135.124 264.54C135.593 264.54 136.155 264.438 136.812 264.232V266.228C136.144 266.526 135.323 266.676 134.351 266.676C133.278 266.676 132.496 266.406 132.004 265.867C131.518 265.322 131.274 264.508 131.274 263.424V258.687H129.991V257.553L131.468 256.656L132.241 254.582H133.955V256.674H136.706V258.687H133.955V263.424C133.955 263.805 134.061 264.086 134.271 264.268C134.488 264.449 134.772 264.54 135.124 264.54ZM147.473 258.291C148.715 258.291 149.702 258.64 150.435 259.337C151.173 260.034 151.542 260.989 151.542 262.202C151.542 263.638 151.1 264.742 150.215 265.516C149.33 266.289 148.064 266.676 146.418 266.676C144.988 266.676 143.834 266.444 142.955 265.981V263.635C143.418 263.881 143.957 264.083 144.572 264.241C145.188 264.394 145.771 264.47 146.321 264.47C147.979 264.47 148.809 263.79 148.809 262.431C148.809 261.136 147.95 260.488 146.233 260.488C145.923 260.488 145.58 260.521 145.205 260.585C144.83 260.644 144.525 260.708 144.291 260.778L143.21 260.198L143.693 253.65H150.663V255.953H146.075L145.838 258.476L146.146 258.414C146.503 258.332 146.945 258.291 147.473 258.291Z" fill="#31344E"/>
</g>
<g filter="url(#filter5_d_3926_12817)">
<rect x="245" y="228" width="219" height="64" rx="5" fill="white" shape-rendering="crispEdges"/>
<rect x="246.5" y="229.5" width="216" height="61" rx="3.5" stroke="#1A1040" stroke-width="3" shape-rendering="crispEdges"/>
<path d="M339.717 253.65V261.965C339.717 262.914 339.503 263.746 339.075 264.461C338.653 265.176 338.041 265.724 337.238 266.104C336.436 266.485 335.486 266.676 334.391 266.676C332.738 266.676 331.455 266.254 330.541 265.41C329.627 264.561 329.17 263.4 329.17 261.93V253.65H331.886V261.517C331.886 262.507 332.085 263.233 332.483 263.696C332.882 264.159 333.541 264.391 334.461 264.391C335.352 264.391 335.996 264.159 336.395 263.696C336.799 263.228 337.001 262.495 337.001 261.499V253.65H339.717ZM351.723 266.5H349.042V260.761C349.042 260.052 348.916 259.521 348.664 259.17C348.412 258.812 348.011 258.634 347.46 258.634C346.71 258.634 346.168 258.886 345.834 259.39C345.5 259.888 345.333 260.717 345.333 261.877V266.5H342.652V256.674H344.7L345.061 257.931H345.21C345.509 257.456 345.919 257.099 346.44 256.858C346.968 256.612 347.565 256.489 348.233 256.489C349.376 256.489 350.243 256.8 350.835 257.421C351.427 258.036 351.723 258.927 351.723 260.093V266.5ZM354.368 254.134C354.368 253.261 354.854 252.824 355.827 252.824C356.8 252.824 357.286 253.261 357.286 254.134C357.286 254.55 357.163 254.875 356.917 255.109C356.677 255.338 356.313 255.452 355.827 255.452C354.854 255.452 354.368 255.013 354.368 254.134ZM357.163 266.5H354.482V256.674H357.163V266.5ZM364.124 264.54C364.593 264.54 365.155 264.438 365.812 264.232V266.228C365.144 266.526 364.323 266.676 363.351 266.676C362.278 266.676 361.496 266.406 361.004 265.867C360.518 265.322 360.274 264.508 360.274 263.424V258.687H358.991V257.553L360.468 256.656L361.241 254.582H362.955V256.674H365.706V258.687H362.955V263.424C362.955 263.805 363.061 264.086 363.271 264.268C363.488 264.449 363.772 264.54 364.124 264.54ZM371.709 261.042C371.709 258.499 372.245 256.606 373.317 255.364C374.396 254.122 376.007 253.501 378.151 253.501C378.884 253.501 379.458 253.545 379.874 253.633V255.804C379.353 255.687 378.837 255.628 378.327 255.628C377.396 255.628 376.634 255.769 376.042 256.05C375.456 256.331 375.017 256.747 374.724 257.298C374.431 257.849 374.258 258.631 374.205 259.645H374.319C374.899 258.648 375.828 258.15 377.105 258.15C378.254 258.15 379.153 258.511 379.804 259.231C380.454 259.952 380.779 260.948 380.779 262.22C380.779 263.591 380.393 264.678 379.619 265.48C378.846 266.277 377.773 266.676 376.402 266.676C375.453 266.676 374.624 266.456 373.915 266.017C373.212 265.577 372.667 264.936 372.28 264.092C371.899 263.248 371.709 262.231 371.709 261.042ZM376.35 264.505C376.93 264.505 377.375 264.312 377.686 263.925C377.996 263.532 378.151 262.976 378.151 262.255C378.151 261.628 378.005 261.136 377.712 260.778C377.425 260.415 376.988 260.233 376.402 260.233C375.852 260.233 375.38 260.412 374.987 260.77C374.601 261.127 374.407 261.543 374.407 262.018C374.407 262.715 374.589 263.304 374.952 263.784C375.321 264.265 375.787 264.505 376.35 264.505Z" fill="#1A1040"/>
</g>
<path d="M214.5 346.271H212.441V333.102C212.441 332.602 212.441 332.174 212.441 331.818C212.449 331.453 212.458 331.123 212.466 330.826C212.483 330.521 212.504 330.212 212.53 329.898C212.267 330.169 212.021 330.402 211.792 330.597C211.564 330.784 211.28 331.017 210.941 331.296L208.818 333L207.712 331.563L212.746 327.686H214.5V346.271ZM241.258 339.279C241.258 340.424 241.11 341.445 240.814 342.343C240.517 343.241 240.089 344 239.53 344.618C238.97 345.237 238.292 345.712 237.496 346.042C236.708 346.364 235.814 346.525 234.814 346.525C233.881 346.525 233.025 346.364 232.246 346.042C231.475 345.712 230.805 345.237 230.237 344.618C229.678 344 229.242 343.241 228.928 342.343C228.623 341.445 228.47 340.424 228.47 339.279C228.47 337.754 228.729 336.457 229.246 335.39C229.763 334.313 230.5 333.496 231.458 332.936C232.424 332.368 233.572 332.085 234.903 332.085C236.174 332.085 237.284 332.368 238.233 332.936C239.191 333.504 239.932 334.326 240.458 335.402C240.992 336.47 241.258 337.763 241.258 339.279ZM230.657 339.279C230.657 340.398 230.805 341.368 231.102 342.19C231.398 343.013 231.856 343.648 232.475 344.097C233.093 344.546 233.89 344.771 234.864 344.771C235.831 344.771 236.623 344.546 237.242 344.097C237.869 343.648 238.331 343.013 238.627 342.19C238.924 341.368 239.072 340.398 239.072 339.279C239.072 338.169 238.924 337.212 238.627 336.407C238.331 335.593 237.873 334.966 237.254 334.525C236.636 334.085 235.835 333.864 234.852 333.864C233.403 333.864 232.339 334.343 231.661 335.301C230.992 336.258 230.657 337.585 230.657 339.279ZM251.11 333.991H247.64V346.271H245.53V333.991H243.064V332.974L245.53 332.275V331.347C245.53 330.178 245.703 329.229 246.051 328.5C246.398 327.763 246.903 327.22 247.564 326.873C248.225 326.525 249.03 326.352 249.979 326.352C250.513 326.352 251 326.398 251.441 326.491C251.89 326.585 252.284 326.69 252.623 326.809L252.076 328.474C251.788 328.381 251.462 328.296 251.097 328.22C250.742 328.135 250.377 328.093 250.004 328.093C249.199 328.093 248.602 328.356 248.212 328.881C247.831 329.398 247.64 330.212 247.64 331.322V332.339H251.11V333.991ZM272.606 341.962H269.822V346.271H267.763V341.962H258.775V340.182L267.623 327.585H269.822V340.055H272.606V341.962ZM267.763 340.055V333.979C267.763 333.513 267.767 333.093 267.775 332.72C267.784 332.339 267.797 331.987 267.814 331.665C267.831 331.335 267.843 331.021 267.852 330.724C267.869 330.428 267.881 330.135 267.89 329.847H267.788C267.627 330.186 267.441 330.546 267.229 330.928C267.025 331.301 266.818 331.635 266.606 331.932L260.873 340.055H267.763Z" fill="#787B91"/>
<g opacity="0.6">
<path d="M94.1017 307.424C94.1017 304.428 96.53 302 99.5254 302H160.271C163.267 302 165.695 304.428 165.695 307.424V366C165.695 368.995 163.267 371.424 160.271 371.424H99.5254C96.53 371.424 94.1017 368.995 94.1017 366V307.424Z" fill="#1A1040"/>
<path d="M122.941 338.004C122.093 337.14 122.093 335.735 122.941 334.87L133.786 323.801C134.633 322.937 136.009 322.937 136.856 323.801C137.703 324.666 137.703 326.07 136.856 326.935L127.543 336.441L136.849 345.946C137.697 346.811 137.697 348.216 136.849 349.08C136.002 349.945 134.626 349.945 133.779 349.08L122.934 338.011L122.941 338.004Z" fill="white"/>
</g>
<path d="M385.898 307.424C385.898 304.428 383.47 302 380.475 302H319.729C316.733 302 314.305 304.428 314.305 307.424V366C314.305 368.995 316.733 371.424 319.729 371.424H380.475C383.47 371.424 385.898 368.995 385.898 366V307.424Z" fill="#1A1040"/>
<path d="M357.059 338.004C357.907 337.14 357.907 335.735 357.059 334.87L346.214 323.801C345.367 322.937 343.991 322.937 343.144 323.801C342.297 324.666 342.297 326.07 343.144 326.935L352.457 336.441L343.151 345.946C342.303 346.811 342.303 348.216 343.151 349.08C343.998 349.945 345.374 349.945 346.221 349.08L357.066 338.011L357.059 338.004Z" fill="white"/>
<g opacity="0.6">
<path d="M16 307.424C16 304.428 18.4283 302 21.4237 302H82.1695C85.1649 302 87.5932 304.428 87.5932 307.424V366C87.5932 368.995 85.1649 371.424 82.1695 371.424H21.4237C18.4283 371.424 16 368.995 16 366V307.424Z" fill="#1A1040"/>
<path d="M37.2456 335.18C36.3984 336.028 36.3984 337.403 37.2456 338.25L48.0888 349.094C48.9359 349.941 50.3117 349.941 51.1588 349.094C52.0059 348.247 52.0059 346.871 51.1588 346.024L41.8472 336.712L51.152 327.4C51.9991 326.553 51.9991 325.178 51.152 324.33C50.3049 323.483 48.9291 323.483 48.082 324.33L37.2388 335.174L37.2456 335.18ZM63.2693 324.337L52.4261 335.18C51.579 336.028 51.579 337.403 52.4261 338.25L63.2693 349.094C64.1164 349.941 65.4922 349.941 66.3393 349.094C67.1864 348.247 67.1864 346.871 66.3393 346.024L57.0277 336.712L66.3325 327.4C67.1796 326.553 67.1796 325.178 66.3325 324.33C65.4854 323.483 64.1097 323.483 63.2625 324.33L63.2693 324.337Z" fill="white"/>
</g>
<path d="M464 366C464 368.996 461.572 371.424 458.576 371.424L397.83 371.424C394.835 371.424 392.407 368.996 392.407 366L392.407 307.424C392.407 304.428 394.835 302 397.831 302L458.576 302C461.572 302 464 304.428 464 307.424L464 366Z" fill="#1A1040"/>
<path d="M442.755 338.243C443.602 337.396 443.602 336.021 442.755 335.173L431.911 324.33C431.064 323.483 429.688 323.483 428.841 324.33C427.994 325.177 427.994 326.553 428.841 327.4L438.153 336.712L428.848 346.023C428.001 346.871 428.001 348.246 428.848 349.093C429.695 349.941 431.071 349.941 431.918 349.093L442.761 338.25L442.755 338.243ZM416.731 349.087L427.574 338.243C428.421 337.396 428.421 336.021 427.574 335.173L416.731 324.33C415.884 323.483 414.508 323.483 413.661 324.33C412.814 325.177 412.814 326.553 413.661 327.4L422.972 336.712L413.668 346.023C412.82 346.871 412.82 348.246 413.668 349.093C414.515 349.941 415.89 349.941 416.738 349.093L416.731 349.087Z" fill="white"/>
<g opacity="0.6" filter="url(#filter6_d_3926_12817)">
<rect x="16" y="384" width="216" height="80" rx="5" fill="white" shape-rendering="crispEdges"/>
<rect x="17.5" y="385.5" width="213" height="77" rx="3.5" stroke="#1A1040" stroke-width="3" shape-rendering="crispEdges"/>
<path d="M97.2227 416.367H102.555C104.836 416.367 106.562 416.688 107.734 417.328C108.906 417.969 109.492 419.094 109.492 420.703C109.492 421.352 109.387 421.938 109.176 422.461C108.973 422.984 108.676 423.414 108.285 423.75C107.895 424.086 107.418 424.305 106.855 424.406V424.523C107.426 424.641 107.941 424.844 108.402 425.133C108.863 425.414 109.23 425.828 109.504 426.375C109.785 426.914 109.926 427.633 109.926 428.531C109.926 429.57 109.672 430.461 109.164 431.203C108.656 431.945 107.93 432.516 106.984 432.914C106.047 433.305 104.93 433.5 103.633 433.5H97.2227V416.367ZM100.855 423.152H102.965C104.02 423.152 104.75 422.988 105.156 422.66C105.562 422.324 105.766 421.832 105.766 421.184C105.766 420.527 105.523 420.059 105.039 419.777C104.562 419.488 103.805 419.344 102.766 419.344H100.855V423.152ZM100.855 426.035V430.5H103.223C104.316 430.5 105.078 430.289 105.508 429.867C105.938 429.445 106.152 428.879 106.152 428.168C106.152 427.746 106.059 427.375 105.871 427.055C105.684 426.734 105.367 426.484 104.922 426.305C104.484 426.125 103.879 426.035 103.105 426.035H100.855ZM118.434 420.129C120.191 420.129 121.539 420.512 122.477 421.277C123.414 422.043 123.883 423.207 123.883 424.77V433.5H121.387L120.695 431.719H120.602C120.227 432.188 119.844 432.57 119.453 432.867C119.062 433.164 118.613 433.383 118.105 433.523C117.598 433.664 116.98 433.734 116.254 433.734C115.48 433.734 114.785 433.586 114.168 433.289C113.559 432.992 113.078 432.539 112.727 431.93C112.375 431.312 112.199 430.531 112.199 429.586C112.199 428.195 112.688 427.172 113.664 426.516C114.641 425.852 116.105 425.484 118.059 425.414L120.332 425.344V424.77C120.332 424.082 120.152 423.578 119.793 423.258C119.434 422.938 118.934 422.777 118.293 422.777C117.66 422.777 117.039 422.867 116.43 423.047C115.82 423.227 115.211 423.453 114.602 423.727L113.418 421.312C114.113 420.945 114.891 420.656 115.75 420.445C116.617 420.234 117.512 420.129 118.434 420.129ZM120.332 427.43L118.949 427.477C117.793 427.508 116.988 427.715 116.535 428.098C116.09 428.48 115.867 428.984 115.867 429.609C115.867 430.156 116.027 430.547 116.348 430.781C116.668 431.008 117.086 431.121 117.602 431.121C118.367 431.121 119.012 430.895 119.535 430.441C120.066 429.988 120.332 429.344 120.332 428.508V427.43ZM132.895 433.734C131.598 433.734 130.492 433.5 129.578 433.031C128.664 432.555 127.969 431.82 127.492 430.828C127.016 429.836 126.777 428.566 126.777 427.02C126.777 425.418 127.047 424.113 127.586 423.105C128.133 422.09 128.887 421.344 129.848 420.867C130.816 420.391 131.938 420.152 133.211 420.152C134.117 420.152 134.898 420.242 135.555 420.422C136.219 420.594 136.797 420.801 137.289 421.043L136.234 423.809C135.672 423.582 135.148 423.398 134.664 423.258C134.18 423.109 133.695 423.035 133.211 423.035C132.586 423.035 132.066 423.184 131.652 423.48C131.238 423.77 130.93 424.207 130.727 424.793C130.523 425.379 130.422 426.113 130.422 426.996C130.422 427.863 130.531 428.582 130.75 429.152C130.969 429.723 131.285 430.148 131.699 430.43C132.113 430.703 132.617 430.84 133.211 430.84C133.953 430.84 134.613 430.742 135.191 430.547C135.77 430.344 136.332 430.062 136.879 429.703V432.762C136.332 433.105 135.758 433.352 135.156 433.5C134.562 433.656 133.809 433.734 132.895 433.734ZM143.5 415.266V423.422C143.5 423.914 143.48 424.406 143.441 424.898C143.402 425.391 143.359 425.883 143.312 426.375H143.359C143.602 426.031 143.848 425.691 144.098 425.355C144.355 425.02 144.629 424.695 144.918 424.383L148.586 420.398H152.617L147.414 426.082L152.934 433.5H148.809L145.035 428.191L143.5 429.422V433.5H139.926V415.266H143.5Z" fill="#1A1040"/>
</g>
<g filter="url(#filter7_d_3926_12817)">
<rect x="248" y="384" width="216" height="80" rx="5" fill="#1A1040" shape-rendering="crispEdges"/>
<path d="M344.352 433.5H339.734L332.281 420.539H332.176C332.207 421.078 332.234 421.621 332.258 422.168C332.281 422.715 332.305 423.262 332.328 423.809C332.352 424.348 332.375 424.891 332.398 425.438V433.5H329.152V416.367H333.734L341.176 429.199H341.258C341.242 428.668 341.223 428.141 341.199 427.617C341.176 427.094 341.152 426.57 341.129 426.047C341.113 425.523 341.098 425 341.082 424.477V416.367H344.352V433.5ZM353.797 420.152C355.008 420.152 356.051 420.387 356.926 420.855C357.801 421.316 358.477 421.988 358.953 422.871C359.43 423.754 359.668 424.832 359.668 426.105V427.84H351.219C351.258 428.848 351.559 429.641 352.121 430.219C352.691 430.789 353.48 431.074 354.488 431.074C355.324 431.074 356.09 430.988 356.785 430.816C357.48 430.645 358.195 430.387 358.93 430.043V432.809C358.281 433.129 357.602 433.363 356.891 433.512C356.188 433.66 355.332 433.734 354.324 433.734C353.012 433.734 351.848 433.492 350.832 433.008C349.824 432.523 349.031 431.785 348.453 430.793C347.883 429.801 347.598 428.551 347.598 427.043C347.598 425.512 347.855 424.238 348.371 423.223C348.895 422.199 349.621 421.434 350.551 420.926C351.48 420.41 352.562 420.152 353.797 420.152ZM353.82 422.695C353.125 422.695 352.547 422.918 352.086 423.363C351.633 423.809 351.371 424.508 351.301 425.461H356.316C356.309 424.93 356.211 424.457 356.023 424.043C355.844 423.629 355.57 423.301 355.203 423.059C354.844 422.816 354.383 422.695 353.82 422.695ZM365.258 426.809L361.039 420.398H365.094L367.637 424.57L370.203 420.398H374.258L369.992 426.809L374.457 433.5H370.391L367.637 429.012L364.871 433.5H360.816L365.258 426.809ZM381.969 430.887C382.359 430.887 382.738 430.848 383.105 430.77C383.48 430.691 383.852 430.594 384.219 430.477V433.137C383.836 433.309 383.359 433.449 382.789 433.559C382.227 433.676 381.609 433.734 380.938 433.734C380.156 433.734 379.453 433.609 378.828 433.359C378.211 433.102 377.723 432.66 377.363 432.035C377.012 431.402 376.836 430.523 376.836 429.398V423.082H375.125V421.57L377.094 420.375L378.125 417.609H380.41V420.398H384.078V423.082H380.41V429.398C380.41 429.898 380.551 430.273 380.832 430.523C381.121 430.766 381.5 430.887 381.969 430.887Z" fill="white"/>
</g>
<defs>
<filter id="filter0_d_3926_12817" x="12" y="78" width="227" height="72" filterUnits="userSpaceOnUse" color-interpolation-filters="sRGB">
<feFlood flood-opacity="0" result="BackgroundImageFix"/>
<feColorMatrix in="SourceAlpha" type="matrix" values="0 0 0 0 0 0 0 0 0 0 0 0 0 0 0 0 0 0 127 0" result="hardAlpha"/>
<feOffset dy="2"/>
<feGaussianBlur stdDeviation="2"/>
<feComposite in2="hardAlpha" operator="out"/>
<feColorMatrix type="matrix" values="0 0 0 0 0 0 0 0 0 0 0 0 0 0 0 0 0 0 0.25 0"/>
<feBlend mode="normal" in2="BackgroundImageFix" result="effect1_dropShadow_3926_12817"/>
<feBlend mode="normal" in="SourceGraphic" in2="effect1_dropShadow_3926_12817" result="shape"/>
</filter>
<filter id="filter1_d_3926_12817" x="241" y="78" width="227" height="72" filterUnits="userSpaceOnUse" color-interpolation-filters="sRGB">
<feFlood flood-opacity="0" result="BackgroundImageFix"/>
<feColorMatrix in="SourceAlpha" type="matrix" values="0 0 0 0 0 0 0 0 0 0 0 0 0 0 0 0 0 0 127 0" result="hardAlpha"/>
<feOffset dy="2"/>
<feGaussianBlur stdDeviation="2"/>
<feComposite in2="hardAlpha" operator="out"/>
<feColorMatrix type="matrix" values="0 0 0 0 0 0 0 0 0 0 0 0 0 0 0 0 0 0 0.25 0"/>
<feBlend mode="normal" in2="BackgroundImageFix" result="effect1_dropShadow_3926_12817"/>
<feBlend mode="normal" in="SourceGraphic" in2="effect1_dropShadow_3926_12817" result="shape"/>
</filter>
<filter id="filter2_d_3926_12817" x="12" y="152" width="227" height="72" filterUnits="userSpaceOnUse" color-interpolation-filters="sRGB">
<feFlood flood-opacity="0" result="BackgroundImageFix"/>
<feColorMatrix in="SourceAlpha" type="matrix" values="0 0 0 0 0 0 0 0 0 0 0 0 0 0 0 0 0 0 127 0" result="hardAlpha"/>
<feOffset dy="2"/>
<feGaussianBlur stdDeviation="2"/>
<feComposite in2="hardAlpha" operator="out"/>
<feColorMatrix type="matrix" values="0 0 0 0 0 0 0 0 0 0 0 0 0 0 0 0 0 0 0.25 0"/>
<feBlend mode="normal" in2="BackgroundImageFix" result="effect1_dropShadow_3926_12817"/>
<feBlend mode="normal" in="SourceGraphic" in2="effect1_dropShadow_3926_12817" result="shape"/>
</filter>
<filter id="filter3_d_3926_12817" x="240" y="149" width="229" height="74" filterUnits="userSpaceOnUse" color-interpolation-filters="sRGB">
<feFlood flood-opacity="0" result="BackgroundImageFix"/>
<feColorMatrix in="SourceAlpha" type="matrix" values="0 0 0 0 0 0 0 0 0 0 0 0 0 0 0 0 0 0 127 0" result="hardAlpha"/>
<feMorphology radius="3" operator="dilate" in="SourceAlpha" result="effect1_dropShadow_3926_12817"/>
<feOffset/>
<feGaussianBlur stdDeviation="1"/>
<feColorMatrix type="matrix" values="0 0 0 0 0.454167 0 0 0 0 0.706867 0 0 0 0 1 0 0 0 0.5 0"/>
<feBlend mode="normal" in2="BackgroundImageFix" result="effect1_dropShadow_3926_12817"/>
<feBlend mode="normal" in="SourceGraphic" in2="effect1_dropShadow_3926_12817" result="shape"/>
</filter>
<filter id="filter4_d_3926_12817" x="12" y="226" width="227" height="72" filterUnits="userSpaceOnUse" color-interpolation-filters="sRGB">
<feFlood flood-opacity="0" result="BackgroundImageFix"/>
<feColorMatrix in="SourceAlpha" type="matrix" values="0 0 0 0 0 0 0 0 0 0 0 0 0 0 0 0 0 0 127 0" result="hardAlpha"/>
<feOffset dy="2"/>
<feGaussianBlur stdDeviation="2"/>
<feComposite in2="hardAlpha" operator="out"/>
<feColorMatrix type="matrix" values="0 0 0 0 0 0 0 0 0 0 0 0 0 0 0 0 0 0 0.25 0"/>
<feBlend mode="normal" in2="BackgroundImageFix" result="effect1_dropShadow_3926_12817"/>
<feBlend mode="normal" in="SourceGraphic" in2="effect1_dropShadow_3926_12817" result="shape"/>
</filter>
<filter id="filter5_d_3926_12817" x="241" y="226" width="227" height="72" filterUnits="userSpaceOnUse" color-interpolation-filters="sRGB">
<feFlood flood-opacity="0" result="BackgroundImageFix"/>
<feColorMatrix in="SourceAlpha" type="matrix" values="0 0 0 0 0 0 0 0 0 0 0 0 0 0 0 0 0 0 127 0" result="hardAlpha"/>
<feOffset dy="2"/>
<feGaussianBlur stdDeviation="2"/>
<feComposite in2="hardAlpha" operator="out"/>
<feColorMatrix type="matrix" values="0 0 0 0 0 0 0 0 0 0 0 0 0 0 0 0 0 0 0.25 0"/>
<feBlend mode="normal" in2="BackgroundImageFix" result="effect1_dropShadow_3926_12817"/>
<feBlend mode="normal" in="SourceGraphic" in2="effect1_dropShadow_3926_12817" result="shape"/>
</filter>
<filter id="filter6_d_3926_12817" x="12" y="382" width="224" height="88" filterUnits="userSpaceOnUse" color-interpolation-filters="sRGB">
<feFlood flood-opacity="0" result="BackgroundImageFix"/>
<feColorMatrix in="SourceAlpha" type="matrix" values="0 0 0 0 0 0 0 0 0 0 0 0 0 0 0 0 0 0 127 0" result="hardAlpha"/>
<feOffset dy="2"/>
<feGaussianBlur stdDeviation="2"/>
<feComposite in2="hardAlpha" operator="out"/>
<feColorMatrix type="matrix" values="0 0 0 0 0 0 0 0 0 0 0 0 0 0 0 0 0 0 0.25 0"/>
<feBlend mode="normal" in2="BackgroundImageFix" result="effect1_dropShadow_3926_12817"/>
<feBlend mode="normal" in="SourceGraphic" in2="effect1_dropShadow_3926_12817" result="shape"/>
</filter>
<filter id="filter7_d_3926_12817" x="244" y="382" width="224" height="88" filterUnits="userSpaceOnUse" color-interpolation-filters="sRGB">
<feFlood flood-opacity="0" result="BackgroundImageFix"/>
<feColorMatrix in="SourceAlpha" type="matrix" values="0 0 0 0 0 0 0 0 0 0 0 0 0 0 0 0 0 0 127 0" result="hardAlpha"/>
<feOffset dy="2"/>
<feGaussianBlur stdDeviation="2"/>
<feComposite in2="hardAlpha" operator="out"/>
<feColorMatrix type="matrix" values="0 0 0 0 0 0 0 0 0 0 0 0 0 0 0 0 0 0 0.25 0"/>
<feBlend mode="normal" in2="BackgroundImageFix" result="effect1_dropShadow_3926_12817"/>
<feBlend mode="normal" in="SourceGraphic" in2="effect1_dropShadow_3926_12817" result="shape"/>
</filter>
</defs>
</svg>
