<svg width="480" height="480" viewBox="0 0 480 480" fill="none" xmlns="http://www.w3.org/2000/svg">
<rect width="480" height="480" fill="white"/>
<rect x="17.5" y="17.5" width="445" height="445" rx="4.5" fill="white" stroke="#FFEE58" stroke-width="3"/>
<path d="M87.707 60.4492C87.707 61.6341 87.4199 62.6641 86.8457 63.5391C86.2715 64.4141 85.4329 65.0885 84.3301 65.5625C83.2363 66.0365 81.9056 66.2734 80.3379 66.2734C79.6452 66.2734 78.9661 66.2279 78.3008 66.1367C77.6445 66.0456 77.0111 65.9134 76.4004 65.7402C75.7988 65.5579 75.2246 65.3346 74.6777 65.0703V61.1328C75.6257 61.5521 76.61 61.9303 77.6309 62.2676C78.6517 62.6048 79.6634 62.7734 80.666 62.7734C81.3587 62.7734 81.9147 62.6823 82.334 62.5C82.7624 62.3177 83.0723 62.0671 83.2637 61.748C83.4551 61.429 83.5508 61.0645 83.5508 60.6543C83.5508 60.153 83.3822 59.7246 83.0449 59.3691C82.7077 59.0137 82.2428 58.681 81.6504 58.3711C81.0671 58.0612 80.4062 57.7285 79.668 57.373C79.2031 57.1543 78.6973 56.89 78.1504 56.5801C77.6035 56.2611 77.084 55.8737 76.5918 55.418C76.0996 54.9622 75.694 54.4108 75.375 53.7637C75.0651 53.1074 74.9102 52.3236 74.9102 51.4121C74.9102 50.2181 75.1836 49.1973 75.7305 48.3496C76.2773 47.502 77.0566 46.8548 78.0684 46.4082C79.0892 45.9525 80.2923 45.7246 81.6777 45.7246C82.7168 45.7246 83.7057 45.8477 84.6445 46.0938C85.5924 46.3307 86.5814 46.6771 87.6113 47.1328L86.2441 50.4277C85.3236 50.054 84.4987 49.7669 83.7695 49.5664C83.0404 49.3568 82.2975 49.252 81.541 49.252C81.0124 49.252 80.5612 49.3385 80.1875 49.5117C79.8138 49.6758 79.5312 49.9128 79.3398 50.2227C79.1484 50.5234 79.0527 50.8743 79.0527 51.2754C79.0527 51.7493 79.1895 52.1504 79.4629 52.4785C79.7454 52.7975 80.1647 53.1074 80.7207 53.4082C81.2858 53.709 81.9876 54.0599 82.8262 54.4609C83.847 54.944 84.7174 55.4499 85.4375 55.9785C86.1667 56.498 86.7272 57.1133 87.1191 57.8242C87.5111 58.526 87.707 59.401 87.707 60.4492ZM97.5508 54.2422L101.721 46.0117H106.287L99.6562 58.2207V66H95.4453V58.3574L88.8145 46.0117H93.4082L97.5508 54.2422ZM120.602 60.4492C120.602 61.6341 120.314 62.6641 119.74 63.5391C119.166 64.4141 118.327 65.0885 117.225 65.5625C116.131 66.0365 114.8 66.2734 113.232 66.2734C112.54 66.2734 111.861 66.2279 111.195 66.1367C110.539 66.0456 109.906 65.9134 109.295 65.7402C108.693 65.5579 108.119 65.3346 107.572 65.0703V61.1328C108.52 61.5521 109.505 61.9303 110.525 62.2676C111.546 62.6048 112.558 62.7734 113.561 62.7734C114.253 62.7734 114.809 62.6823 115.229 62.5C115.657 62.3177 115.967 62.0671 116.158 61.748C116.35 61.429 116.445 61.0645 116.445 60.6543C116.445 60.153 116.277 59.7246 115.939 59.3691C115.602 59.0137 115.137 58.681 114.545 58.3711C113.962 58.0612 113.301 57.7285 112.562 57.373C112.098 57.1543 111.592 56.89 111.045 56.5801C110.498 56.2611 109.979 55.8737 109.486 55.418C108.994 54.9622 108.589 54.4108 108.27 53.7637C107.96 53.1074 107.805 52.3236 107.805 51.4121C107.805 50.2181 108.078 49.1973 108.625 48.3496C109.172 47.502 109.951 46.8548 110.963 46.4082C111.984 45.9525 113.187 45.7246 114.572 45.7246C115.611 45.7246 116.6 45.8477 117.539 46.0938C118.487 46.3307 119.476 46.6771 120.506 47.1328L119.139 50.4277C118.218 50.054 117.393 49.7669 116.664 49.5664C115.935 49.3568 115.192 49.252 114.436 49.252C113.907 49.252 113.456 49.3385 113.082 49.5117C112.708 49.6758 112.426 49.9128 112.234 50.2227C112.043 50.5234 111.947 50.8743 111.947 51.2754C111.947 51.7493 112.084 52.1504 112.357 52.4785C112.64 52.7975 113.059 53.1074 113.615 53.4082C114.18 53.709 114.882 54.0599 115.721 54.4609C116.742 54.944 117.612 55.4499 118.332 55.9785C119.061 56.498 119.622 57.1133 120.014 57.8242C120.406 58.526 120.602 59.401 120.602 60.4492ZM131.936 66H127.697V49.5391H122.27V46.0117H137.363V49.5391H131.936V66ZM151.951 66H140.439V46.0117H151.951V49.4844H144.678V53.873H151.445V57.3457H144.678V62.5H151.951V66ZM164.598 66L159.785 50.3184H159.662C159.68 50.6921 159.708 51.2572 159.744 52.0137C159.79 52.7611 159.831 53.5586 159.867 54.4062C159.904 55.2539 159.922 56.0195 159.922 56.7031V66H156.135V46.0117H161.904L166.635 61.2969H166.717L171.734 46.0117H177.504V66H173.553V56.5391C173.553 55.9102 173.562 55.1855 173.58 54.3652C173.607 53.5449 173.639 52.7656 173.676 52.0273C173.712 51.2799 173.74 50.7194 173.758 50.3457H173.635L168.48 66H164.598ZM206.406 55.8145C206.406 58.0658 205.973 59.9479 205.107 61.4609C204.251 62.9648 203.007 64.0996 201.375 64.8652C199.743 65.6217 197.779 66 195.482 66H189.822V46.0117H196.098C198.194 46.0117 200.012 46.3854 201.553 47.1328C203.093 47.8711 204.287 48.9694 205.135 50.4277C205.982 51.877 206.406 53.6725 206.406 55.8145ZM202.004 55.9238C202.004 54.4473 201.785 53.235 201.348 52.2871C200.919 51.3301 200.281 50.6237 199.434 50.168C198.595 49.7122 197.556 49.4844 196.316 49.4844H194.061V62.5H195.879C197.948 62.5 199.484 61.9486 200.486 60.8457C201.498 59.7428 202.004 58.1022 202.004 55.9238ZM210.549 66V46.0117H214.787V66H210.549ZM231.617 60.4492C231.617 61.6341 231.33 62.6641 230.756 63.5391C230.182 64.4141 229.343 65.0885 228.24 65.5625C227.146 66.0365 225.816 66.2734 224.248 66.2734C223.555 66.2734 222.876 66.2279 222.211 66.1367C221.555 66.0456 220.921 65.9134 220.311 65.7402C219.709 65.5579 219.135 65.3346 218.588 65.0703V61.1328C219.536 61.5521 220.52 61.9303 221.541 62.2676C222.562 62.6048 223.574 62.7734 224.576 62.7734C225.269 62.7734 225.825 62.6823 226.244 62.5C226.673 62.3177 226.982 62.0671 227.174 61.748C227.365 61.429 227.461 61.0645 227.461 60.6543C227.461 60.153 227.292 59.7246 226.955 59.3691C226.618 59.0137 226.153 58.681 225.561 58.3711C224.977 58.0612 224.316 57.7285 223.578 57.373C223.113 57.1543 222.607 56.89 222.061 56.5801C221.514 56.2611 220.994 55.8737 220.502 55.418C220.01 54.9622 219.604 54.4108 219.285 53.7637C218.975 53.1074 218.82 52.3236 218.82 51.4121C218.82 50.2181 219.094 49.1973 219.641 48.3496C220.188 47.502 220.967 46.8548 221.979 46.4082C222.999 45.9525 224.202 45.7246 225.588 45.7246C226.627 45.7246 227.616 45.8477 228.555 46.0938C229.503 46.3307 230.492 46.6771 231.521 47.1328L230.154 50.4277C229.234 50.054 228.409 49.7669 227.68 49.5664C226.951 49.3568 226.208 49.252 225.451 49.252C224.923 49.252 224.471 49.3385 224.098 49.5117C223.724 49.6758 223.441 49.9128 223.25 50.2227C223.059 50.5234 222.963 50.8743 222.963 51.2754C222.963 51.7493 223.1 52.1504 223.373 52.4785C223.656 52.7975 224.075 53.1074 224.631 53.4082C225.196 53.709 225.898 54.0599 226.736 54.4609C227.757 54.944 228.628 55.4499 229.348 55.9785C230.077 56.498 230.637 57.1133 231.029 57.8242C231.421 58.526 231.617 59.401 231.617 60.4492ZM243.73 49.252C242.919 49.252 242.199 49.4115 241.57 49.7305C240.951 50.0404 240.426 50.4915 239.998 51.084C239.579 51.6764 239.26 52.3919 239.041 53.2305C238.822 54.069 238.713 55.0124 238.713 56.0605C238.713 57.4733 238.886 58.681 239.232 59.6836C239.588 60.6771 240.135 61.4382 240.873 61.9668C241.611 62.4863 242.564 62.7461 243.73 62.7461C244.542 62.7461 245.353 62.6549 246.164 62.4727C246.984 62.2904 247.873 62.0306 248.83 61.6934V65.248C247.946 65.6126 247.076 65.8724 246.219 66.0273C245.362 66.1914 244.4 66.2734 243.334 66.2734C241.274 66.2734 239.579 65.8496 238.248 65.002C236.926 64.1452 235.947 62.9512 235.309 61.4199C234.671 59.8796 234.352 58.084 234.352 56.0332C234.352 54.5202 234.557 53.1348 234.967 51.877C235.377 50.6191 235.979 49.5299 236.771 48.6094C237.564 47.6888 238.544 46.9779 239.711 46.4766C240.878 45.9753 242.217 45.7246 243.73 45.7246C244.724 45.7246 245.717 45.8522 246.711 46.1074C247.714 46.3535 248.671 46.6953 249.582 47.1328L248.215 50.5781C247.467 50.2227 246.715 49.9128 245.959 49.6484C245.202 49.3841 244.46 49.252 243.73 49.252ZM271.238 55.9785C271.238 57.5189 271.047 58.9225 270.664 60.1895C270.281 61.4473 269.698 62.5319 268.914 63.4434C268.139 64.3548 267.155 65.0566 265.961 65.5488C264.767 66.0319 263.354 66.2734 261.723 66.2734C260.091 66.2734 258.678 66.0319 257.484 65.5488C256.29 65.0566 255.301 64.3548 254.518 63.4434C253.743 62.5319 253.164 61.4427 252.781 60.1758C252.398 58.9089 252.207 57.5007 252.207 55.9512C252.207 53.8822 252.544 52.082 253.219 50.5508C253.902 49.0104 254.951 47.8164 256.363 46.9688C257.776 46.1211 259.572 45.6973 261.75 45.6973C263.919 45.6973 265.701 46.1211 267.096 46.9688C268.499 47.8164 269.538 49.0104 270.213 50.5508C270.896 52.0911 271.238 53.9004 271.238 55.9785ZM256.65 55.9785C256.65 57.373 256.824 58.5762 257.17 59.5879C257.525 60.5905 258.077 61.3652 258.824 61.9121C259.572 62.4499 260.538 62.7188 261.723 62.7188C262.926 62.7188 263.901 62.4499 264.648 61.9121C265.396 61.3652 265.938 60.5905 266.275 59.5879C266.622 58.5762 266.795 57.373 266.795 55.9785C266.795 53.8822 266.403 52.2324 265.619 51.0293C264.835 49.8262 263.546 49.2246 261.75 49.2246C260.556 49.2246 259.581 49.498 258.824 50.0449C258.077 50.5827 257.525 51.3574 257.17 52.3691C256.824 53.3717 256.65 54.5749 256.65 55.9785ZM293.113 66H287.727L279.031 50.8789H278.908C278.945 51.5078 278.977 52.1413 279.004 52.7793C279.031 53.4173 279.059 54.0553 279.086 54.6934C279.113 55.3223 279.141 55.9557 279.168 56.5938V66H275.381V46.0117H280.727L289.408 60.9824H289.504C289.486 60.3626 289.463 59.7474 289.436 59.1367C289.408 58.526 289.381 57.9154 289.354 57.3047C289.335 56.694 289.317 56.0833 289.299 55.4727V46.0117H293.113V66ZM315.891 66H310.504L301.809 50.8789H301.686C301.722 51.5078 301.754 52.1413 301.781 52.7793C301.809 53.4173 301.836 54.0553 301.863 54.6934C301.891 55.3223 301.918 55.9557 301.945 56.5938V66H298.158V46.0117H303.504L312.186 60.9824H312.281C312.263 60.3626 312.24 59.7474 312.213 59.1367C312.186 58.526 312.158 57.9154 312.131 57.3047C312.113 56.694 312.094 56.0833 312.076 55.4727V46.0117H315.891V66ZM332.447 66H320.936V46.0117H332.447V49.4844H325.174V53.873H331.941V57.3457H325.174V62.5H332.447V66ZM345.121 49.252C344.31 49.252 343.59 49.4115 342.961 49.7305C342.341 50.0404 341.817 50.4915 341.389 51.084C340.969 51.6764 340.65 52.3919 340.432 53.2305C340.213 54.069 340.104 55.0124 340.104 56.0605C340.104 57.4733 340.277 58.681 340.623 59.6836C340.979 60.6771 341.525 61.4382 342.264 61.9668C343.002 62.4863 343.954 62.7461 345.121 62.7461C345.932 62.7461 346.743 62.6549 347.555 62.4727C348.375 62.2904 349.264 62.0306 350.221 61.6934V65.248C349.337 65.6126 348.466 65.8724 347.609 66.0273C346.753 66.1914 345.791 66.2734 344.725 66.2734C342.665 66.2734 340.969 65.8496 339.639 65.002C338.317 64.1452 337.337 62.9512 336.699 61.4199C336.061 59.8796 335.742 58.084 335.742 56.0332C335.742 54.5202 335.947 53.1348 336.357 51.877C336.768 50.6191 337.369 49.5299 338.162 48.6094C338.955 47.6888 339.935 46.9779 341.102 46.4766C342.268 45.9753 343.608 45.7246 345.121 45.7246C346.115 45.7246 347.108 45.8522 348.102 46.1074C349.104 46.3535 350.061 46.6953 350.973 47.1328L349.605 50.5781C348.858 50.2227 348.106 49.9128 347.35 49.6484C346.593 49.3841 345.85 49.252 345.121 49.252ZM362.197 66H357.959V49.5391H352.531V46.0117H367.625V49.5391H362.197V66ZM382.213 66H370.701V46.0117H382.213V49.4844H374.939V53.873H381.707V57.3457H374.939V62.5H382.213V66ZM402.98 55.8145C402.98 58.0658 402.548 59.9479 401.682 61.4609C400.825 62.9648 399.581 64.0996 397.949 64.8652C396.318 65.6217 394.354 66 392.057 66H386.396V46.0117H392.672C394.768 46.0117 396.587 46.3854 398.127 47.1328C399.667 47.8711 400.861 48.9694 401.709 50.4277C402.557 51.877 402.98 53.6725 402.98 55.8145ZM398.578 55.9238C398.578 54.4473 398.359 53.235 397.922 52.2871C397.493 51.3301 396.855 50.6237 396.008 50.168C395.169 49.7122 394.13 49.4844 392.891 49.4844H390.635V62.5H392.453C394.522 62.5 396.058 61.9486 397.061 60.8457C398.072 59.7428 398.578 58.1022 398.578 55.9238Z" fill="#31344E"/>
<path d="M16 94H464V458C464 461.314 461.314 464 458 464H22C18.6863 464 16 461.314 16 458V94Z" fill="#FFEE58"/>
<path d="M218.08 234.917C220.585 232.411 223.982 231 227.528 231H251.472C255.018 231 258.415 232.411 260.92 234.917L283.083 257.08C285.589 259.585 287 262.982 287 266.528V290.472C287 294.018 285.589 297.415 283.083 299.92L260.92 322.083C258.415 324.589 255.018 326 251.472 326H227.528C223.982 326 220.585 324.589 218.08 322.083L195.917 299.92C193.411 297.415 192 294.018 192 290.472V266.528C192 262.982 193.411 259.585 195.917 257.08L218.08 234.917ZM224.465 263.465C222.72 265.21 222.72 268.031 224.465 269.757L233.189 278.481L224.465 287.206C222.72 288.95 222.72 291.772 224.465 293.498C226.21 295.224 229.031 295.243 230.757 293.498L239.481 284.774L248.206 293.498C249.95 295.243 252.772 295.243 254.498 293.498C256.224 291.753 256.243 288.932 254.498 287.206L245.774 278.481L254.498 269.757C256.243 268.013 256.243 265.191 254.498 263.465C252.753 261.739 249.932 261.72 248.206 263.465L239.481 272.189L230.757 263.465C229.013 261.72 226.191 261.72 224.465 263.465Z" fill="#31344E"/>
</svg>
