<svg width="480" height="480" viewBox="0 0 480 480" fill="none" xmlns="http://www.w3.org/2000/svg">
<rect width="480" height="480" fill="white"/>
<rect x="17.5" y="17.5" width="445" height="445" rx="4.5" fill="white" stroke="#650F16" stroke-width="3"/>
<path d="M125.734 68H120.969V45.1562H134.062V49.125H125.734V55.0156H133.484V58.9688H125.734V68ZM152.516 68L150.859 62.5625H142.531L140.875 68H135.656L143.719 45.0625H149.641L157.734 68H152.516ZM149.703 58.5L148.047 53.1875C147.943 52.8333 147.802 52.3802 147.625 51.8281C147.458 51.2656 147.286 50.6979 147.109 50.125C146.943 49.5417 146.807 49.0365 146.703 48.6094C146.599 49.0365 146.453 49.5677 146.266 50.2031C146.089 50.8281 145.917 51.4219 145.75 51.9844C145.583 52.5469 145.464 52.9479 145.391 53.1875L143.75 58.5H149.703ZM160.625 68V45.1562H165.469V64H174.734V68H160.625ZM178.719 68V45.1562H183.562V64H192.828V68H178.719ZM224.078 56.3594C224.078 58.9323 223.583 61.0833 222.594 62.8125C221.615 64.5312 220.193 65.8281 218.328 66.7031C216.464 67.5677 214.219 68 211.594 68H205.125V45.1562H212.297C214.693 45.1562 216.771 45.5833 218.531 46.4375C220.292 47.2812 221.656 48.5365 222.625 50.2031C223.594 51.8594 224.078 53.9115 224.078 56.3594ZM219.047 56.4844C219.047 54.7969 218.797 53.4115 218.297 52.3281C217.807 51.2344 217.078 50.4271 216.109 49.9062C215.151 49.3854 213.964 49.125 212.547 49.125H209.969V64H212.047C214.411 64 216.167 63.3698 217.312 62.1094C218.469 60.849 219.047 58.974 219.047 56.4844ZM241.969 68H228.812V45.1562H241.969V49.125H233.656V54.1406H241.391V58.1094H233.656V64H241.969V68ZM255.562 68H250.719V49.1875H244.516V45.1562H261.766V49.1875H255.562V68ZM278.438 68H265.281V45.1562H278.438V49.125H270.125V54.1406H277.859V58.1094H270.125V64H278.438V68ZM292.922 48.8594C291.995 48.8594 291.172 49.0417 290.453 49.4062C289.745 49.7604 289.146 50.276 288.656 50.9531C288.177 51.6302 287.812 52.4479 287.562 53.4062C287.312 54.3646 287.188 55.4427 287.188 56.6406C287.188 58.2552 287.385 59.6354 287.781 60.7812C288.188 61.9167 288.812 62.7865 289.656 63.3906C290.5 63.9844 291.589 64.2812 292.922 64.2812C293.849 64.2812 294.776 64.1771 295.703 63.9688C296.641 63.7604 297.656 63.4635 298.75 63.0781V67.1406C297.74 67.5573 296.745 67.8542 295.766 68.0312C294.786 68.2188 293.688 68.3125 292.469 68.3125C290.115 68.3125 288.177 67.8281 286.656 66.8594C285.146 65.8802 284.026 64.5156 283.297 62.7656C282.568 61.0052 282.203 58.9531 282.203 56.6094C282.203 54.8802 282.438 53.2969 282.906 51.8594C283.375 50.4219 284.062 49.1771 284.969 48.125C285.875 47.0729 286.995 46.2604 288.328 45.6875C289.661 45.1146 291.193 44.8281 292.922 44.8281C294.057 44.8281 295.193 44.974 296.328 45.2656C297.474 45.5469 298.568 45.9375 299.609 46.4375L298.047 50.375C297.193 49.9688 296.333 49.6146 295.469 49.3125C294.604 49.0104 293.755 48.8594 292.922 48.8594ZM312.438 68H307.594V49.1875H301.391V45.1562H318.641V49.1875H312.438V68ZM335.312 68H322.156V45.1562H335.312V49.125H327V54.1406H334.734V58.1094H327V64H335.312V68ZM359.047 56.3594C359.047 58.9323 358.552 61.0833 357.562 62.8125C356.583 64.5312 355.161 65.8281 353.297 66.7031C351.432 67.5677 349.188 68 346.562 68H340.094V45.1562H347.266C349.661 45.1562 351.74 45.5833 353.5 46.4375C355.26 47.2812 356.625 48.5365 357.594 50.2031C358.562 51.8594 359.047 53.9115 359.047 56.3594ZM354.016 56.4844C354.016 54.7969 353.766 53.4115 353.266 52.3281C352.776 51.2344 352.047 50.4271 351.078 49.9062C350.12 49.3854 348.932 49.125 347.516 49.125H344.938V64H347.016C349.38 64 351.135 63.3698 352.281 62.1094C353.438 60.849 354.016 58.974 354.016 56.4844Z" fill="#31344E"/>
<path d="M16 94H464V458C464 461.314 461.314 464 458 464H22C18.6863 464 16 461.314 16 458V94Z" fill="#650F16"/>
<path d="M239.367 232C242.715 232 245.42 234.705 245.42 238.053V239.906C245.42 250.233 240.143 259.69 231.707 265.175L231.745 265.231L239.62 276.366L252.357 268.184C253.922 267.178 255.847 266.904 257.631 267.432L278.232 273.528C281.62 274.531 283.553 278.09 282.551 281.478C281.548 284.865 277.99 286.798 274.603 285.796L256.809 280.53L242.911 289.46C242.797 289.533 242.68 289.601 242.563 289.666L242.453 289.738L256.259 292.396C258.253 292.78 259.946 294.089 260.821 295.921L270.816 316.844C272.339 320.031 270.989 323.85 267.802 325.373C264.614 326.896 260.795 325.546 259.272 322.358L250.669 304.349L232.384 300.828C230.883 300.539 229.607 299.747 228.695 298.661L228.659 298.686L228.349 298.205C228.26 298.078 228.176 297.948 228.097 297.815L216.009 279.134C215.46 280.874 215.157 282.727 215.157 284.618V298.577C215.157 301.925 212.452 304.63 209.104 304.63C205.757 304.63 203.053 301.925 203.053 298.577V284.618C203.053 272.305 210.543 261.222 221.985 256.645C228.832 253.902 233.314 247.283 233.314 239.906V238.053C233.314 234.705 236.019 232 239.367 232ZM206.079 238.053C208.487 238.053 210.796 239.009 212.498 240.712C214.201 242.414 215.157 244.723 215.157 247.131C215.157 249.539 214.201 251.848 212.498 253.551C210.796 255.253 208.487 256.21 206.079 256.21C203.671 256.21 201.362 255.253 199.659 253.551C197.957 251.848 197 249.539 197 247.131C197 244.723 197.957 242.414 199.659 240.712C201.362 239.009 203.671 238.053 206.079 238.053Z" fill="white"/>
</svg>
