<svg width="480" height="480" viewBox="0 0 480 480" fill="none" xmlns="http://www.w3.org/2000/svg">
<g clip-path="url(#clip0_3949_46586)">
<rect width="480" height="480" fill="white"/>
<g filter="url(#filter0_d_3949_46586)">
<circle cx="240" cy="192" r="160" fill="#1A1040"/>
</g>
<path d="M178.184 181L176.113 174.203H165.703L163.633 181H157.109L167.188 152.328H174.59L184.707 181H178.184ZM174.668 169.125L172.598 162.484C172.467 162.042 172.292 161.475 172.07 160.785C171.862 160.082 171.647 159.372 171.426 158.656C171.217 157.927 171.048 157.296 170.918 156.762C170.788 157.296 170.605 157.96 170.371 158.754C170.15 159.535 169.935 160.277 169.727 160.98C169.518 161.684 169.368 162.185 169.277 162.484L167.227 169.125H174.668ZM196.719 181.391C194.557 181.391 192.715 181 191.191 180.219C189.668 179.424 188.509 178.201 187.715 176.547C186.921 174.893 186.523 172.777 186.523 170.199C186.523 167.53 186.973 165.355 187.871 163.676C188.783 161.983 190.039 160.74 191.641 159.945C193.255 159.151 195.124 158.754 197.246 158.754C198.757 158.754 200.059 158.904 201.152 159.203C202.259 159.49 203.223 159.835 204.043 160.238L202.285 164.848C201.348 164.47 200.475 164.164 199.668 163.93C198.861 163.682 198.053 163.559 197.246 163.559C196.204 163.559 195.339 163.806 194.648 164.301C193.958 164.783 193.444 165.512 193.105 166.488C192.767 167.465 192.598 168.689 192.598 170.16C192.598 171.605 192.78 172.803 193.145 173.754C193.509 174.704 194.036 175.414 194.727 175.883C195.417 176.339 196.257 176.566 197.246 176.566C198.483 176.566 199.583 176.404 200.547 176.078C201.51 175.74 202.448 175.271 203.359 174.672V179.77C202.448 180.342 201.491 180.753 200.488 181C199.499 181.26 198.242 181.391 196.719 181.391ZM217.637 176.645C218.288 176.645 218.919 176.579 219.531 176.449C220.156 176.319 220.775 176.156 221.387 175.961V180.395C220.749 180.681 219.954 180.915 219.004 181.098C218.066 181.293 217.038 181.391 215.918 181.391C214.616 181.391 213.444 181.182 212.402 180.766C211.374 180.336 210.56 179.6 209.961 178.559C209.375 177.504 209.082 176.039 209.082 174.164V163.637H206.23V161.117L209.512 159.125L211.23 154.516H215.039V159.164H221.152V163.637H215.039V174.164C215.039 174.997 215.273 175.622 215.742 176.039C216.224 176.443 216.855 176.645 217.637 176.645ZM231.777 159.164V181H225.82V159.164H231.777ZM228.809 150.609C229.694 150.609 230.456 150.818 231.094 151.234C231.732 151.638 232.051 152.4 232.051 153.52C232.051 154.626 231.732 155.395 231.094 155.824C230.456 156.241 229.694 156.449 228.809 156.449C227.91 156.449 227.142 156.241 226.504 155.824C225.879 155.395 225.566 154.626 225.566 153.52C225.566 152.4 225.879 151.638 226.504 151.234C227.142 150.818 227.91 150.609 228.809 150.609ZM243.242 181L234.922 159.164H241.152L245.371 171.605C245.605 172.335 245.788 173.103 245.918 173.91C246.061 174.717 246.159 175.44 246.211 176.078H246.367C246.406 175.388 246.497 174.652 246.641 173.871C246.797 173.09 246.999 172.335 247.246 171.605L251.445 159.164H257.676L249.355 181H243.242ZM269.766 158.715C272.695 158.715 274.941 159.353 276.504 160.629C278.066 161.905 278.848 163.845 278.848 166.449V181H274.688L273.535 178.031H273.379C272.754 178.812 272.116 179.451 271.465 179.945C270.814 180.44 270.065 180.805 269.219 181.039C268.372 181.273 267.344 181.391 266.133 181.391C264.844 181.391 263.685 181.143 262.656 180.648C261.641 180.154 260.84 179.398 260.254 178.383C259.668 177.354 259.375 176.052 259.375 174.477C259.375 172.159 260.189 170.453 261.816 169.359C263.444 168.253 265.885 167.641 269.141 167.523L272.93 167.406V166.449C272.93 165.303 272.63 164.464 272.031 163.93C271.432 163.396 270.599 163.129 269.531 163.129C268.477 163.129 267.441 163.279 266.426 163.578C265.41 163.878 264.395 164.255 263.379 164.711L261.406 160.688C262.565 160.076 263.861 159.594 265.293 159.242C266.738 158.891 268.229 158.715 269.766 158.715ZM272.93 170.883L270.625 170.961C268.698 171.013 267.357 171.358 266.602 171.996C265.859 172.634 265.488 173.474 265.488 174.516C265.488 175.427 265.755 176.078 266.289 176.469C266.823 176.846 267.52 177.035 268.379 177.035C269.655 177.035 270.729 176.658 271.602 175.902C272.487 175.147 272.93 174.073 272.93 172.68V170.883ZM294.199 176.645C294.85 176.645 295.482 176.579 296.094 176.449C296.719 176.319 297.337 176.156 297.949 175.961V180.395C297.311 180.681 296.517 180.915 295.566 181.098C294.629 181.293 293.6 181.391 292.48 181.391C291.178 181.391 290.007 181.182 288.965 180.766C287.936 180.336 287.122 179.6 286.523 178.559C285.938 177.504 285.645 176.039 285.645 174.164V163.637H282.793V161.117L286.074 159.125L287.793 154.516H291.602V159.164H297.715V163.637H291.602V174.164C291.602 174.997 291.836 175.622 292.305 176.039C292.786 176.443 293.418 176.645 294.199 176.645ZM311.387 158.754C313.405 158.754 315.143 159.145 316.602 159.926C318.06 160.694 319.186 161.814 319.98 163.285C320.775 164.757 321.172 166.553 321.172 168.676V171.566H307.09C307.155 173.246 307.656 174.568 308.594 175.531C309.544 176.482 310.859 176.957 312.539 176.957C313.932 176.957 315.208 176.814 316.367 176.527C317.526 176.241 318.717 175.811 319.941 175.238V179.848C318.861 180.382 317.728 180.772 316.543 181.02C315.371 181.267 313.945 181.391 312.266 181.391C310.078 181.391 308.138 180.987 306.445 180.18C304.766 179.372 303.444 178.142 302.48 176.488C301.53 174.835 301.055 172.751 301.055 170.238C301.055 167.686 301.484 165.564 302.344 163.871C303.216 162.165 304.427 160.889 305.977 160.043C307.526 159.184 309.329 158.754 311.387 158.754ZM311.426 162.992C310.267 162.992 309.303 163.363 308.535 164.105C307.78 164.848 307.344 166.013 307.227 167.602H315.586C315.573 166.716 315.41 165.928 315.098 165.238C314.798 164.548 314.342 164.001 313.73 163.598C313.132 163.194 312.363 162.992 311.426 162.992ZM187.949 227.07C187.949 228.763 187.539 230.234 186.719 231.484C185.898 232.734 184.701 233.698 183.125 234.375C181.562 235.052 179.661 235.391 177.422 235.391C176.432 235.391 175.462 235.326 174.512 235.195C173.574 235.065 172.669 234.876 171.797 234.629C170.938 234.368 170.117 234.049 169.336 233.672V228.047C170.69 228.646 172.096 229.186 173.555 229.668C175.013 230.15 176.458 230.391 177.891 230.391C178.88 230.391 179.674 230.26 180.273 230C180.885 229.74 181.328 229.382 181.602 228.926C181.875 228.47 182.012 227.949 182.012 227.363C182.012 226.647 181.771 226.035 181.289 225.527C180.807 225.02 180.143 224.544 179.297 224.102C178.464 223.659 177.52 223.184 176.465 222.676C175.801 222.363 175.078 221.986 174.297 221.543C173.516 221.087 172.773 220.534 172.07 219.883C171.367 219.232 170.788 218.444 170.332 217.52C169.889 216.582 169.668 215.462 169.668 214.16C169.668 212.454 170.059 210.996 170.84 209.785C171.621 208.574 172.734 207.65 174.18 207.012C175.638 206.361 177.357 206.035 179.336 206.035C180.82 206.035 182.233 206.211 183.574 206.562C184.928 206.901 186.341 207.396 187.812 208.047L185.859 212.754C184.544 212.22 183.366 211.81 182.324 211.523C181.283 211.224 180.221 211.074 179.141 211.074C178.385 211.074 177.741 211.198 177.207 211.445C176.673 211.68 176.27 212.018 175.996 212.461C175.723 212.891 175.586 213.392 175.586 213.965C175.586 214.642 175.781 215.215 176.172 215.684C176.576 216.139 177.174 216.582 177.969 217.012C178.776 217.441 179.779 217.943 180.977 218.516C182.435 219.206 183.678 219.928 184.707 220.684C185.749 221.426 186.549 222.305 187.109 223.32C187.669 224.323 187.949 225.573 187.949 227.07ZM189.531 213.164H196.055L200.176 225.449C200.306 225.84 200.417 226.237 200.508 226.641C200.599 227.044 200.677 227.461 200.742 227.891C200.807 228.32 200.859 228.77 200.898 229.238H201.016C201.094 228.535 201.198 227.878 201.328 227.266C201.471 226.654 201.647 226.048 201.855 225.449L205.898 213.164H212.285L203.047 237.793C202.487 239.303 201.758 240.56 200.859 241.562C199.961 242.578 198.926 243.34 197.754 243.848C196.595 244.355 195.319 244.609 193.926 244.609C193.249 244.609 192.663 244.57 192.168 244.492C191.673 244.427 191.25 244.355 190.898 244.277V239.551C191.172 239.616 191.517 239.674 191.934 239.727C192.35 239.779 192.786 239.805 193.242 239.805C194.076 239.805 194.792 239.629 195.391 239.277C195.99 238.926 196.491 238.451 196.895 237.852C197.298 237.266 197.617 236.621 197.852 235.918L198.203 234.844L189.531 213.164ZM230.664 228.516C230.664 230 230.312 231.257 229.609 232.285C228.919 233.301 227.884 234.076 226.504 234.609C225.124 235.13 223.405 235.391 221.348 235.391C219.824 235.391 218.516 235.293 217.422 235.098C216.341 234.902 215.247 234.577 214.141 234.121V229.199C215.326 229.733 216.595 230.176 217.949 230.527C219.316 230.866 220.514 231.035 221.543 231.035C222.702 231.035 223.529 230.866 224.023 230.527C224.531 230.176 224.785 229.72 224.785 229.16C224.785 228.796 224.681 228.47 224.473 228.184C224.277 227.884 223.848 227.552 223.184 227.188C222.52 226.81 221.478 226.322 220.059 225.723C218.691 225.15 217.565 224.57 216.68 223.984C215.807 223.398 215.156 222.708 214.727 221.914C214.31 221.107 214.102 220.085 214.102 218.848C214.102 216.829 214.883 215.312 216.445 214.297C218.021 213.268 220.124 212.754 222.754 212.754C224.108 212.754 225.397 212.891 226.621 213.164C227.858 213.438 229.128 213.874 230.43 214.473L228.633 218.77C227.552 218.301 226.53 217.917 225.566 217.617C224.616 217.318 223.646 217.168 222.656 217.168C221.784 217.168 221.126 217.285 220.684 217.52C220.241 217.754 220.02 218.112 220.02 218.594C220.02 218.945 220.13 219.258 220.352 219.531C220.586 219.805 221.029 220.111 221.68 220.449C222.344 220.775 223.314 221.198 224.59 221.719C225.827 222.227 226.901 222.76 227.812 223.32C228.724 223.867 229.427 224.551 229.922 225.371C230.417 226.178 230.664 227.227 230.664 228.516ZM244.512 230.645C245.163 230.645 245.794 230.579 246.406 230.449C247.031 230.319 247.65 230.156 248.262 229.961V234.395C247.624 234.681 246.829 234.915 245.879 235.098C244.941 235.293 243.913 235.391 242.793 235.391C241.491 235.391 240.319 235.182 239.277 234.766C238.249 234.336 237.435 233.6 236.836 232.559C236.25 231.504 235.957 230.039 235.957 228.164V217.637H233.105V215.117L236.387 213.125L238.105 208.516H241.914V213.164H248.027V217.637H241.914V228.164C241.914 228.997 242.148 229.622 242.617 230.039C243.099 230.443 243.73 230.645 244.512 230.645ZM261.699 212.754C263.717 212.754 265.456 213.145 266.914 213.926C268.372 214.694 269.499 215.814 270.293 217.285C271.087 218.757 271.484 220.553 271.484 222.676V225.566H257.402C257.467 227.246 257.969 228.568 258.906 229.531C259.857 230.482 261.172 230.957 262.852 230.957C264.245 230.957 265.521 230.814 266.68 230.527C267.839 230.241 269.03 229.811 270.254 229.238V233.848C269.173 234.382 268.04 234.772 266.855 235.02C265.684 235.267 264.258 235.391 262.578 235.391C260.391 235.391 258.451 234.987 256.758 234.18C255.078 233.372 253.757 232.142 252.793 230.488C251.842 228.835 251.367 226.751 251.367 224.238C251.367 221.686 251.797 219.564 252.656 217.871C253.529 216.165 254.74 214.889 256.289 214.043C257.839 213.184 259.642 212.754 261.699 212.754ZM261.738 216.992C260.579 216.992 259.616 217.363 258.848 218.105C258.092 218.848 257.656 220.013 257.539 221.602H265.898C265.885 220.716 265.723 219.928 265.41 219.238C265.111 218.548 264.655 218.001 264.043 217.598C263.444 217.194 262.676 216.992 261.738 216.992ZM301.973 212.754C304.447 212.754 306.315 213.392 307.578 214.668C308.854 215.931 309.492 217.962 309.492 220.762V235H303.516V222.246C303.516 220.684 303.249 219.505 302.715 218.711C302.181 217.917 301.354 217.52 300.234 217.52C298.659 217.52 297.539 218.086 296.875 219.219C296.211 220.339 295.879 221.947 295.879 224.043V235H289.922V222.246C289.922 221.204 289.805 220.332 289.57 219.629C289.336 218.926 288.978 218.398 288.496 218.047C288.014 217.695 287.396 217.52 286.641 217.52C285.534 217.52 284.661 217.799 284.023 218.359C283.398 218.906 282.949 219.72 282.676 220.801C282.415 221.868 282.285 223.177 282.285 224.727V235H276.328V213.164H280.879L281.68 215.957H282.012C282.454 215.202 283.008 214.59 283.672 214.121C284.349 213.652 285.091 213.307 285.898 213.086C286.706 212.865 287.526 212.754 288.359 212.754C289.961 212.754 291.315 213.014 292.422 213.535C293.542 214.056 294.401 214.863 295 215.957H295.527C296.178 214.837 297.096 214.023 298.281 213.516C299.479 213.008 300.71 212.754 301.973 212.754Z" fill="white"/>
<g filter="url(#filter1_d_3949_46586)">
<rect x="16" y="384" width="448" height="80" rx="5" fill="white" shape-rendering="crispEdges"/>
<rect x="17.5" y="385.5" width="445" height="77" rx="3.5" stroke="#AC211C" stroke-width="3" shape-rendering="crispEdges"/>
<path d="M187.078 428.742C187.078 429.758 186.832 430.641 186.34 431.391C185.848 432.141 185.129 432.719 184.184 433.125C183.246 433.531 182.105 433.734 180.762 433.734C180.168 433.734 179.586 433.695 179.016 433.617C178.453 433.539 177.91 433.426 177.387 433.277C176.871 433.121 176.379 432.93 175.91 432.703V429.328C176.723 429.688 177.566 430.012 178.441 430.301C179.316 430.59 180.184 430.734 181.043 430.734C181.637 430.734 182.113 430.656 182.473 430.5C182.84 430.344 183.105 430.129 183.27 429.855C183.434 429.582 183.516 429.27 183.516 428.918C183.516 428.488 183.371 428.121 183.082 427.816C182.793 427.512 182.395 427.227 181.887 426.961C181.387 426.695 180.82 426.41 180.188 426.105C179.789 425.918 179.355 425.691 178.887 425.426C178.418 425.152 177.973 424.82 177.551 424.43C177.129 424.039 176.781 423.566 176.508 423.012C176.242 422.449 176.109 421.777 176.109 420.996C176.109 419.973 176.344 419.098 176.812 418.371C177.281 417.645 177.949 417.09 178.816 416.707C179.691 416.316 180.723 416.121 181.91 416.121C182.801 416.121 183.648 416.227 184.453 416.438C185.266 416.641 186.113 416.938 186.996 417.328L185.824 420.152C185.035 419.832 184.328 419.586 183.703 419.414C183.078 419.234 182.441 419.145 181.793 419.145C181.34 419.145 180.953 419.219 180.633 419.367C180.312 419.508 180.07 419.711 179.906 419.977C179.742 420.234 179.66 420.535 179.66 420.879C179.66 421.285 179.777 421.629 180.012 421.91C180.254 422.184 180.613 422.449 181.09 422.707C181.574 422.965 182.176 423.266 182.895 423.609C183.77 424.023 184.516 424.457 185.133 424.91C185.758 425.355 186.238 425.883 186.574 426.492C186.91 427.094 187.078 427.844 187.078 428.742ZM193.477 415.266V418.98C193.477 419.629 193.453 420.246 193.406 420.832C193.367 421.418 193.336 421.832 193.312 422.074H193.5C193.781 421.621 194.113 421.254 194.496 420.973C194.887 420.691 195.316 420.484 195.785 420.352C196.254 420.219 196.758 420.152 197.297 420.152C198.242 420.152 199.066 420.32 199.77 420.656C200.473 420.984 201.02 421.504 201.41 422.215C201.801 422.918 201.996 423.832 201.996 424.957V433.5H198.422V425.848C198.422 424.91 198.25 424.203 197.906 423.727C197.562 423.25 197.031 423.012 196.312 423.012C195.594 423.012 195.027 423.18 194.613 423.516C194.199 423.844 193.906 424.332 193.734 424.98C193.562 425.621 193.477 426.406 193.477 427.336V433.5H189.902V415.266H193.477ZM217.699 420.398V433.5H214.957L214.477 431.824H214.289C214.008 432.27 213.656 432.633 213.234 432.914C212.812 433.195 212.348 433.402 211.84 433.535C211.332 433.668 210.805 433.734 210.258 433.734C209.32 433.734 208.504 433.57 207.809 433.242C207.113 432.906 206.57 432.387 206.18 431.684C205.797 430.98 205.605 430.066 205.605 428.941V420.398H209.18V428.051C209.18 428.988 209.348 429.695 209.684 430.172C210.02 430.648 210.555 430.887 211.289 430.887C212.016 430.887 212.586 430.723 213 430.395C213.414 430.059 213.703 429.57 213.867 428.93C214.039 428.281 214.125 427.492 214.125 426.562V420.398H217.699ZM226.969 430.887C227.359 430.887 227.738 430.848 228.105 430.77C228.48 430.691 228.852 430.594 229.219 430.477V433.137C228.836 433.309 228.359 433.449 227.789 433.559C227.227 433.676 226.609 433.734 225.938 433.734C225.156 433.734 224.453 433.609 223.828 433.359C223.211 433.102 222.723 432.66 222.363 432.035C222.012 431.402 221.836 430.523 221.836 429.398V423.082H220.125V421.57L222.094 420.375L223.125 417.609H225.41V420.398H229.078V423.082H225.41V429.398C225.41 429.898 225.551 430.273 225.832 430.523C226.121 430.766 226.5 430.887 226.969 430.887ZM252.609 424.77C252.609 426.699 252.238 428.312 251.496 429.609C250.762 430.898 249.695 431.871 248.297 432.527C246.898 433.176 245.215 433.5 243.246 433.5H238.395V416.367H243.773C245.57 416.367 247.129 416.688 248.449 417.328C249.77 417.961 250.793 418.902 251.52 420.152C252.246 421.395 252.609 422.934 252.609 424.77ZM248.836 424.863C248.836 423.598 248.648 422.559 248.273 421.746C247.906 420.926 247.359 420.32 246.633 419.93C245.914 419.539 245.023 419.344 243.961 419.344H242.027V430.5H243.586C245.359 430.5 246.676 430.027 247.535 429.082C248.402 428.137 248.836 426.73 248.836 424.863ZM267.785 426.926C267.785 428.02 267.637 428.988 267.34 429.832C267.051 430.676 266.625 431.391 266.062 431.977C265.508 432.555 264.836 432.992 264.047 433.289C263.266 433.586 262.383 433.734 261.398 433.734C260.477 433.734 259.629 433.586 258.855 433.289C258.09 432.992 257.422 432.555 256.852 431.977C256.289 431.391 255.852 430.676 255.539 429.832C255.234 428.988 255.082 428.02 255.082 426.926C255.082 425.473 255.34 424.242 255.855 423.234C256.371 422.227 257.105 421.461 258.059 420.938C259.012 420.414 260.148 420.152 261.469 420.152C262.695 420.152 263.781 420.414 264.727 420.938C265.68 421.461 266.426 422.227 266.965 423.234C267.512 424.242 267.785 425.473 267.785 426.926ZM258.727 426.926C258.727 427.785 258.82 428.508 259.008 429.094C259.195 429.68 259.488 430.121 259.887 430.418C260.285 430.715 260.805 430.863 261.445 430.863C262.078 430.863 262.59 430.715 262.98 430.418C263.379 430.121 263.668 429.68 263.848 429.094C264.035 428.508 264.129 427.785 264.129 426.926C264.129 426.059 264.035 425.34 263.848 424.77C263.668 424.191 263.379 423.758 262.98 423.469C262.582 423.18 262.062 423.035 261.422 423.035C260.477 423.035 259.789 423.359 259.359 424.008C258.938 424.656 258.727 425.629 258.727 426.926ZM281.508 433.5L280.5 428.918C280.445 428.645 280.355 428.242 280.23 427.711C280.105 427.172 279.969 426.598 279.82 425.988C279.68 425.371 279.547 424.801 279.422 424.277C279.305 423.754 279.219 423.371 279.164 423.129H279.059C279.004 423.371 278.918 423.754 278.801 424.277C278.684 424.801 278.551 425.371 278.402 425.988C278.262 426.605 278.129 427.188 278.004 427.734C277.879 428.273 277.785 428.684 277.723 428.965L276.668 433.5H272.824L269.098 420.398H272.66L274.172 426.199C274.273 426.605 274.371 427.09 274.465 427.652C274.559 428.207 274.641 428.746 274.711 429.27C274.789 429.785 274.848 430.195 274.887 430.5H274.98C274.996 430.273 275.027 429.973 275.074 429.598C275.129 429.223 275.188 428.836 275.25 428.438C275.32 428.031 275.383 427.668 275.438 427.348C275.5 427.02 275.547 426.797 275.578 426.68L277.195 420.398H281.133L282.668 426.68C282.723 426.906 282.793 427.266 282.879 427.758C282.973 428.25 283.055 428.758 283.125 429.281C283.195 429.797 283.234 430.203 283.242 430.5H283.336C283.367 430.234 283.422 429.84 283.5 429.316C283.578 428.793 283.668 428.246 283.77 427.676C283.879 427.098 283.988 426.605 284.098 426.199L285.668 420.398H289.172L285.398 433.5H281.508ZM298.734 420.152C300.133 420.152 301.258 420.535 302.109 421.301C302.961 422.059 303.387 423.277 303.387 424.957V433.5H299.812V425.848C299.812 424.91 299.641 424.203 299.297 423.727C298.961 423.25 298.43 423.012 297.703 423.012C296.609 423.012 295.863 423.383 295.465 424.125C295.066 424.867 294.867 425.938 294.867 427.336V433.5H291.293V420.398H294.023L294.504 422.074H294.703C294.984 421.621 295.332 421.254 295.746 420.973C296.168 420.691 296.633 420.484 297.141 420.352C297.656 420.219 298.188 420.152 298.734 420.152Z" fill="#AC211C"/>
</g>
<rect opacity="0.6" width="480" height="480" fill="black" fill-opacity="0.5"/>
<g filter="url(#filter2_d_3949_46586)">
<rect x="32" y="95" width="416" height="290" rx="11" fill="white" shape-rendering="crispEdges"/>
<rect x="32.5" y="95.5" width="415" height="289" rx="10.5" stroke="#D1D1D1" shape-rendering="crispEdges"/>
<path d="M92.125 157L89.6641 150.656H81.6523L79.2051 157H76.8535L84.6738 136.93H86.7656L94.5312 157H92.125ZM88.9668 148.592L86.6289 142.289C86.5742 142.125 86.4831 141.856 86.3555 141.482C86.237 141.109 86.1139 140.721 85.9863 140.32C85.8587 139.919 85.7539 139.596 85.6719 139.35C85.5807 139.723 85.4805 140.097 85.3711 140.471C85.2708 140.835 85.1706 141.177 85.0703 141.496C84.9701 141.806 84.8835 142.07 84.8105 142.289L82.4316 148.592H88.9668ZM103.773 141.742C104.074 141.742 104.389 141.76 104.717 141.797C105.045 141.824 105.337 141.865 105.592 141.92L105.305 144.025C105.059 143.962 104.785 143.911 104.484 143.875C104.184 143.839 103.901 143.82 103.637 143.82C103.035 143.82 102.465 143.943 101.928 144.189C101.399 144.426 100.934 144.773 100.533 145.229C100.132 145.675 99.8177 146.217 99.5898 146.855C99.362 147.484 99.248 148.186 99.248 148.961V157H96.9648V142.016H98.8516L99.0977 144.777H99.1934C99.5033 144.221 99.877 143.715 100.314 143.26C100.752 142.795 101.258 142.426 101.832 142.152C102.415 141.879 103.062 141.742 103.773 141.742ZM114.191 141.742C115.467 141.742 116.561 142.025 117.473 142.59C118.384 143.155 119.081 143.948 119.564 144.969C120.048 145.98 120.289 147.165 120.289 148.523V149.932H109.939C109.967 151.691 110.404 153.031 111.252 153.951C112.1 154.872 113.294 155.332 114.834 155.332C115.782 155.332 116.62 155.245 117.35 155.072C118.079 154.899 118.835 154.644 119.619 154.307V156.303C118.863 156.64 118.111 156.886 117.363 157.041C116.625 157.196 115.75 157.273 114.738 157.273C113.298 157.273 112.04 156.982 110.965 156.398C109.898 155.806 109.069 154.94 108.477 153.801C107.884 152.661 107.588 151.267 107.588 149.617C107.588 148.004 107.857 146.609 108.395 145.434C108.941 144.249 109.707 143.337 110.691 142.699C111.685 142.061 112.852 141.742 114.191 141.742ZM114.164 143.602C112.952 143.602 111.986 143.998 111.266 144.791C110.546 145.584 110.117 146.691 109.98 148.113H117.91C117.901 147.22 117.76 146.436 117.486 145.762C117.222 145.078 116.816 144.549 116.27 144.176C115.723 143.793 115.021 143.602 114.164 143.602ZM129.053 142.016H131.486L134.795 150.711C134.986 151.221 135.164 151.714 135.328 152.188C135.492 152.652 135.638 153.099 135.766 153.527C135.893 153.956 135.993 154.37 136.066 154.771H136.162C136.29 154.316 136.472 153.719 136.709 152.98C136.946 152.233 137.201 151.472 137.475 150.697L140.605 142.016H143.053L136.531 159.201C136.185 160.122 135.779 160.924 135.314 161.607C134.859 162.291 134.303 162.815 133.646 163.18C132.99 163.553 132.197 163.74 131.268 163.74C130.839 163.74 130.461 163.713 130.133 163.658C129.805 163.613 129.522 163.558 129.285 163.494V161.676C129.486 161.721 129.727 161.762 130.01 161.799C130.301 161.835 130.602 161.854 130.912 161.854C131.477 161.854 131.965 161.744 132.375 161.525C132.794 161.316 133.154 161.006 133.455 160.596C133.756 160.186 134.016 159.698 134.234 159.133L135.055 157.027L129.053 142.016ZM158.365 149.48C158.365 150.711 158.206 151.809 157.887 152.775C157.568 153.742 157.107 154.557 156.506 155.223C155.904 155.888 155.175 156.398 154.318 156.754C153.471 157.1 152.509 157.273 151.434 157.273C150.431 157.273 149.51 157.1 148.672 156.754C147.842 156.398 147.122 155.888 146.512 155.223C145.91 154.557 145.441 153.742 145.104 152.775C144.775 151.809 144.611 150.711 144.611 149.48C144.611 147.84 144.889 146.445 145.445 145.297C146.001 144.139 146.794 143.26 147.824 142.658C148.863 142.048 150.098 141.742 151.529 141.742C152.896 141.742 154.09 142.048 155.111 142.658C156.141 143.269 156.939 144.153 157.504 145.311C158.078 146.459 158.365 147.849 158.365 149.48ZM146.963 149.48C146.963 150.684 147.122 151.727 147.441 152.611C147.76 153.495 148.253 154.179 148.918 154.662C149.583 155.145 150.44 155.387 151.488 155.387C152.527 155.387 153.38 155.145 154.045 154.662C154.719 154.179 155.216 153.495 155.535 152.611C155.854 151.727 156.014 150.684 156.014 149.48C156.014 148.286 155.854 147.257 155.535 146.391C155.216 145.516 154.724 144.841 154.059 144.367C153.393 143.893 152.532 143.656 151.475 143.656C149.916 143.656 148.772 144.171 148.043 145.201C147.323 146.231 146.963 147.658 146.963 149.48ZM174.662 142.016V157H172.803L172.475 154.895H172.352C172.042 155.414 171.641 155.852 171.148 156.207C170.656 156.562 170.1 156.827 169.48 157C168.87 157.182 168.218 157.273 167.525 157.273C166.34 157.273 165.347 157.082 164.545 156.699C163.743 156.316 163.137 155.724 162.727 154.922C162.326 154.12 162.125 153.09 162.125 151.832V142.016H164.422V151.668C164.422 152.917 164.704 153.851 165.27 154.471C165.835 155.081 166.696 155.387 167.854 155.387C168.965 155.387 169.85 155.177 170.506 154.758C171.171 154.339 171.65 153.723 171.941 152.912C172.233 152.092 172.379 151.089 172.379 149.904V142.016H174.662ZM196.428 152.898C196.428 153.855 196.186 154.662 195.703 155.318C195.229 155.965 194.546 156.453 193.652 156.781C192.768 157.109 191.711 157.273 190.48 157.273C189.432 157.273 188.525 157.191 187.76 157.027C186.994 156.863 186.324 156.631 185.75 156.33V154.238C186.361 154.539 187.09 154.812 187.938 155.059C188.785 155.305 189.651 155.428 190.535 155.428C191.829 155.428 192.768 155.218 193.352 154.799C193.935 154.38 194.227 153.81 194.227 153.09C194.227 152.68 194.108 152.32 193.871 152.01C193.643 151.691 193.256 151.385 192.709 151.094C192.162 150.793 191.406 150.465 190.439 150.109C189.482 149.745 188.653 149.385 187.951 149.029C187.258 148.665 186.721 148.223 186.338 147.703C185.964 147.184 185.777 146.509 185.777 145.68C185.777 144.413 186.288 143.442 187.309 142.768C188.339 142.084 189.688 141.742 191.355 141.742C192.258 141.742 193.101 141.833 193.885 142.016C194.678 142.189 195.416 142.426 196.1 142.727L195.334 144.545C194.714 144.281 194.053 144.057 193.352 143.875C192.65 143.693 191.934 143.602 191.205 143.602C190.157 143.602 189.35 143.775 188.785 144.121C188.229 144.467 187.951 144.941 187.951 145.543C187.951 146.008 188.079 146.391 188.334 146.691C188.598 146.992 189.018 147.275 189.592 147.539C190.166 147.803 190.923 148.113 191.861 148.469C192.8 148.815 193.611 149.175 194.295 149.549C194.979 149.913 195.503 150.36 195.867 150.889C196.241 151.408 196.428 152.078 196.428 152.898ZM212.451 142.016V157H210.592L210.264 154.895H210.141C209.831 155.414 209.43 155.852 208.938 156.207C208.445 156.562 207.889 156.827 207.27 157C206.659 157.182 206.007 157.273 205.314 157.273C204.13 157.273 203.136 157.082 202.334 156.699C201.532 156.316 200.926 155.724 200.516 154.922C200.115 154.12 199.914 153.09 199.914 151.832V142.016H202.211V151.668C202.211 152.917 202.493 153.851 203.059 154.471C203.624 155.081 204.485 155.387 205.643 155.387C206.755 155.387 207.639 155.177 208.295 154.758C208.96 154.339 209.439 153.723 209.73 152.912C210.022 152.092 210.168 151.089 210.168 149.904V142.016H212.451ZM224.059 141.742C224.359 141.742 224.674 141.76 225.002 141.797C225.33 141.824 225.622 141.865 225.877 141.92L225.59 144.025C225.344 143.962 225.07 143.911 224.77 143.875C224.469 143.839 224.186 143.82 223.922 143.82C223.32 143.82 222.751 143.943 222.213 144.189C221.684 144.426 221.219 144.773 220.818 145.229C220.417 145.675 220.103 146.217 219.875 146.855C219.647 147.484 219.533 148.186 219.533 148.961V157H217.25V142.016H219.137L219.383 144.777H219.479C219.788 144.221 220.162 143.715 220.6 143.26C221.037 142.795 221.543 142.426 222.117 142.152C222.701 141.879 223.348 141.742 224.059 141.742ZM234.477 141.742C235.753 141.742 236.846 142.025 237.758 142.59C238.669 143.155 239.367 143.948 239.85 144.969C240.333 145.98 240.574 147.165 240.574 148.523V149.932H230.225C230.252 151.691 230.689 153.031 231.537 153.951C232.385 154.872 233.579 155.332 235.119 155.332C236.067 155.332 236.906 155.245 237.635 155.072C238.364 154.899 239.12 154.644 239.904 154.307V156.303C239.148 156.64 238.396 156.886 237.648 157.041C236.91 157.196 236.035 157.273 235.023 157.273C233.583 157.273 232.326 156.982 231.25 156.398C230.184 155.806 229.354 154.94 228.762 153.801C228.169 152.661 227.873 151.267 227.873 149.617C227.873 148.004 228.142 146.609 228.68 145.434C229.227 144.249 229.992 143.337 230.977 142.699C231.97 142.061 233.137 141.742 234.477 141.742ZM234.449 143.602C233.237 143.602 232.271 143.998 231.551 144.791C230.831 145.584 230.402 146.691 230.266 148.113H238.195C238.186 147.22 238.045 146.436 237.771 145.762C237.507 145.078 237.102 144.549 236.555 144.176C236.008 143.793 235.306 143.602 234.449 143.602ZM249.338 142.016H251.771L255.08 150.711C255.271 151.221 255.449 151.714 255.613 152.188C255.777 152.652 255.923 153.099 256.051 153.527C256.178 153.956 256.279 154.37 256.352 154.771H256.447C256.575 154.316 256.757 153.719 256.994 152.98C257.231 152.233 257.486 151.472 257.76 150.697L260.891 142.016H263.338L256.816 159.201C256.47 160.122 256.064 160.924 255.6 161.607C255.144 162.291 254.588 162.815 253.932 163.18C253.275 163.553 252.482 163.74 251.553 163.74C251.124 163.74 250.746 163.713 250.418 163.658C250.09 163.613 249.807 163.558 249.57 163.494V161.676C249.771 161.721 250.012 161.762 250.295 161.799C250.587 161.835 250.887 161.854 251.197 161.854C251.762 161.854 252.25 161.744 252.66 161.525C253.079 161.316 253.439 161.006 253.74 160.596C254.041 160.186 254.301 159.698 254.52 159.133L255.34 157.027L249.338 142.016ZM278.65 149.48C278.65 150.711 278.491 151.809 278.172 152.775C277.853 153.742 277.393 154.557 276.791 155.223C276.189 155.888 275.46 156.398 274.604 156.754C273.756 157.1 272.794 157.273 271.719 157.273C270.716 157.273 269.796 157.1 268.957 156.754C268.128 156.398 267.408 155.888 266.797 155.223C266.195 154.557 265.726 153.742 265.389 152.775C265.061 151.809 264.896 150.711 264.896 149.48C264.896 147.84 265.174 146.445 265.73 145.297C266.286 144.139 267.079 143.26 268.109 142.658C269.148 142.048 270.383 141.742 271.814 141.742C273.182 141.742 274.376 142.048 275.396 142.658C276.426 143.269 277.224 144.153 277.789 145.311C278.363 146.459 278.65 147.849 278.65 149.48ZM267.248 149.48C267.248 150.684 267.408 151.727 267.727 152.611C268.046 153.495 268.538 154.179 269.203 154.662C269.868 155.145 270.725 155.387 271.773 155.387C272.812 155.387 273.665 155.145 274.33 154.662C275.005 154.179 275.501 153.495 275.82 152.611C276.139 151.727 276.299 150.684 276.299 149.48C276.299 148.286 276.139 147.257 275.82 146.391C275.501 145.516 275.009 144.841 274.344 144.367C273.678 143.893 272.817 143.656 271.76 143.656C270.201 143.656 269.057 144.171 268.328 145.201C267.608 146.231 267.248 147.658 267.248 149.48ZM294.947 142.016V157H293.088L292.76 154.895H292.637C292.327 155.414 291.926 155.852 291.434 156.207C290.941 156.562 290.385 156.827 289.766 157C289.155 157.182 288.503 157.273 287.811 157.273C286.626 157.273 285.632 157.082 284.83 156.699C284.028 156.316 283.422 155.724 283.012 154.922C282.611 154.12 282.41 153.09 282.41 151.832V142.016H284.707V151.668C284.707 152.917 284.99 153.851 285.555 154.471C286.12 155.081 286.981 155.387 288.139 155.387C289.251 155.387 290.135 155.177 290.791 154.758C291.456 154.339 291.935 153.723 292.227 152.912C292.518 152.092 292.664 151.089 292.664 149.904V142.016H294.947ZM319.215 156.973L316.549 148.25C316.43 147.876 316.316 147.512 316.207 147.156C316.107 146.792 316.011 146.445 315.92 146.117C315.838 145.78 315.76 145.47 315.688 145.188C315.624 144.896 315.569 144.645 315.523 144.436H315.428C315.391 144.645 315.341 144.896 315.277 145.188C315.214 145.47 315.136 145.78 315.045 146.117C314.963 146.454 314.872 146.81 314.771 147.184C314.671 147.548 314.557 147.917 314.43 148.291L311.641 156.973H309.084L304.955 141.988H307.307L309.467 150.26C309.613 150.807 309.749 151.349 309.877 151.887C310.014 152.415 310.128 152.917 310.219 153.391C310.319 153.855 310.392 154.261 310.438 154.607H310.547C310.602 154.38 310.661 154.106 310.725 153.787C310.798 153.468 310.875 153.131 310.957 152.775C311.048 152.411 311.144 152.051 311.244 151.695C311.344 151.331 311.445 150.989 311.545 150.67L314.307 141.988H316.754L319.42 150.656C319.557 151.094 319.689 151.549 319.816 152.023C319.953 152.497 320.076 152.958 320.186 153.404C320.295 153.842 320.372 154.234 320.418 154.58H320.527C320.564 154.27 320.632 153.887 320.732 153.432C320.833 152.976 320.947 152.475 321.074 151.928C321.211 151.381 321.352 150.825 321.498 150.26L323.686 141.988H325.996L321.854 156.973H319.215ZM334.336 141.77C336.122 141.77 337.449 142.171 338.314 142.973C339.18 143.775 339.613 145.055 339.613 146.814V157H337.959L337.521 154.785H337.412C336.993 155.332 336.555 155.792 336.1 156.166C335.644 156.531 335.115 156.809 334.514 157C333.921 157.182 333.192 157.273 332.326 157.273C331.415 157.273 330.604 157.114 329.893 156.795C329.191 156.476 328.635 155.993 328.225 155.346C327.824 154.699 327.623 153.878 327.623 152.885C327.623 151.39 328.215 150.242 329.4 149.439C330.585 148.637 332.39 148.2 334.814 148.127L337.398 148.018V147.102C337.398 145.807 337.12 144.9 336.564 144.381C336.008 143.861 335.225 143.602 334.213 143.602C333.429 143.602 332.682 143.715 331.971 143.943C331.26 144.171 330.585 144.44 329.947 144.75L329.25 143.027C329.924 142.681 330.699 142.385 331.574 142.139C332.449 141.893 333.37 141.77 334.336 141.77ZM337.371 149.617L335.088 149.713C333.219 149.786 331.902 150.091 331.137 150.629C330.371 151.167 329.988 151.928 329.988 152.912C329.988 153.769 330.248 154.402 330.768 154.812C331.287 155.223 331.975 155.428 332.832 155.428C334.163 155.428 335.252 155.059 336.1 154.32C336.947 153.582 337.371 152.475 337.371 150.998V149.617ZM351.385 141.742C353.162 141.742 354.507 142.18 355.418 143.055C356.329 143.921 356.785 145.315 356.785 147.238V157H354.543V147.389C354.543 146.14 354.256 145.206 353.682 144.586C353.117 143.966 352.246 143.656 351.07 143.656C349.411 143.656 348.245 144.126 347.57 145.064C346.896 146.003 346.559 147.366 346.559 149.152V157H344.289V142.016H346.121L346.463 144.176H346.586C346.905 143.647 347.311 143.205 347.803 142.85C348.295 142.485 348.846 142.212 349.457 142.029C350.068 141.838 350.71 141.742 351.385 141.742ZM366.301 155.414C366.674 155.414 367.057 155.382 367.449 155.318C367.841 155.255 368.16 155.177 368.406 155.086V156.85C368.142 156.968 367.773 157.068 367.299 157.15C366.834 157.232 366.378 157.273 365.932 157.273C365.139 157.273 364.419 157.137 363.771 156.863C363.124 156.581 362.605 156.107 362.213 155.441C361.83 154.776 361.639 153.855 361.639 152.68V143.793H359.506V142.686L361.652 141.797L362.555 138.543H363.922V142.016H368.311V143.793H363.922V152.611C363.922 153.55 364.136 154.252 364.564 154.717C365.002 155.182 365.581 155.414 366.301 155.414ZM383.555 155.414C383.928 155.414 384.311 155.382 384.703 155.318C385.095 155.255 385.414 155.177 385.66 155.086V156.85C385.396 156.968 385.027 157.068 384.553 157.15C384.088 157.232 383.632 157.273 383.186 157.273C382.393 157.273 381.673 157.137 381.025 156.863C380.378 156.581 379.859 156.107 379.467 155.441C379.084 154.776 378.893 153.855 378.893 152.68V143.793H376.76V142.686L378.906 141.797L379.809 138.543H381.176V142.016H385.564V143.793H381.176V152.611C381.176 153.55 381.39 154.252 381.818 154.717C382.256 155.182 382.835 155.414 383.555 155.414ZM401.615 149.48C401.615 150.711 401.456 151.809 401.137 152.775C400.818 153.742 400.357 154.557 399.756 155.223C399.154 155.888 398.425 156.398 397.568 156.754C396.721 157.1 395.759 157.273 394.684 157.273C393.681 157.273 392.76 157.1 391.922 156.754C391.092 156.398 390.372 155.888 389.762 155.223C389.16 154.557 388.691 153.742 388.354 152.775C388.025 151.809 387.861 150.711 387.861 149.48C387.861 147.84 388.139 146.445 388.695 145.297C389.251 144.139 390.044 143.26 391.074 142.658C392.113 142.048 393.348 141.742 394.779 141.742C396.146 141.742 397.34 142.048 398.361 142.658C399.391 143.269 400.189 144.153 400.754 145.311C401.328 146.459 401.615 147.849 401.615 149.48ZM390.213 149.48C390.213 150.684 390.372 151.727 390.691 152.611C391.01 153.495 391.503 154.179 392.168 154.662C392.833 155.145 393.69 155.387 394.738 155.387C395.777 155.387 396.63 155.145 397.295 154.662C397.969 154.179 398.466 153.495 398.785 152.611C399.104 151.727 399.264 150.684 399.264 149.48C399.264 148.286 399.104 147.257 398.785 146.391C398.466 145.516 397.974 144.841 397.309 144.367C396.643 143.893 395.782 143.656 394.725 143.656C393.166 143.656 392.022 144.171 391.293 145.201C390.573 146.231 390.213 147.658 390.213 149.48ZM105.496 184.814C105.496 187.066 105.063 188.948 104.197 190.461C103.34 191.965 102.096 193.1 100.465 193.865C98.8333 194.622 96.8691 195 94.5723 195H88.9121V175.012H95.1875C97.2839 175.012 99.1022 175.385 100.643 176.133C102.183 176.871 103.377 177.969 104.225 179.428C105.072 180.877 105.496 182.673 105.496 184.814ZM101.094 184.924C101.094 183.447 100.875 182.235 100.438 181.287C100.009 180.33 99.3711 179.624 98.5234 179.168C97.6849 178.712 96.6458 178.484 95.4062 178.484H93.1504V191.5H94.9688C97.0378 191.5 98.5736 190.949 99.5762 189.846C100.588 188.743 101.094 187.102 101.094 184.924ZM121.15 195H109.639V175.012H121.15V178.484H113.877V182.873H120.645V186.346H113.877V191.5H121.15V195ZM137.57 195L136.121 190.242H128.834L127.385 195H122.818L129.873 174.93H135.055L142.137 195H137.57ZM135.109 186.688L133.66 182.039C133.569 181.729 133.446 181.333 133.291 180.85C133.145 180.357 132.995 179.861 132.84 179.359C132.694 178.849 132.576 178.407 132.484 178.033C132.393 178.407 132.266 178.872 132.102 179.428C131.947 179.975 131.796 180.494 131.65 180.986C131.505 181.479 131.4 181.829 131.336 182.039L129.9 186.688H135.109ZM153.156 178.252C152.345 178.252 151.625 178.411 150.996 178.73C150.376 179.04 149.852 179.492 149.424 180.084C149.005 180.676 148.686 181.392 148.467 182.23C148.248 183.069 148.139 184.012 148.139 185.061C148.139 186.473 148.312 187.681 148.658 188.684C149.014 189.677 149.561 190.438 150.299 190.967C151.037 191.486 151.99 191.746 153.156 191.746C153.967 191.746 154.779 191.655 155.59 191.473C156.41 191.29 157.299 191.031 158.256 190.693V194.248C157.372 194.613 156.501 194.872 155.645 195.027C154.788 195.191 153.826 195.273 152.76 195.273C150.7 195.273 149.005 194.85 147.674 194.002C146.352 193.145 145.372 191.951 144.734 190.42C144.096 188.88 143.777 187.084 143.777 185.033C143.777 183.52 143.982 182.135 144.393 180.877C144.803 179.619 145.404 178.53 146.197 177.609C146.99 176.689 147.97 175.978 149.137 175.477C150.303 174.975 151.643 174.725 153.156 174.725C154.15 174.725 155.143 174.852 156.137 175.107C157.139 175.354 158.096 175.695 159.008 176.133L157.641 179.578C156.893 179.223 156.141 178.913 155.385 178.648C154.628 178.384 153.885 178.252 153.156 178.252ZM170.232 195H165.994V178.539H160.566V175.012H175.66V178.539H170.232V195ZM178.736 195V175.012H182.975V195H178.736ZM203.688 175.012L196.893 195H192.271L185.49 175.012H189.77L193.529 186.906C193.593 187.107 193.698 187.485 193.844 188.041C193.99 188.588 194.135 189.171 194.281 189.791C194.436 190.402 194.541 190.908 194.596 191.309C194.65 190.908 194.746 190.402 194.883 189.791C195.029 189.18 195.17 188.602 195.307 188.055C195.452 187.499 195.557 187.116 195.621 186.906L199.408 175.012H203.688ZM218.453 195L217.004 190.242H209.717L208.268 195H203.701L210.756 174.93H215.938L223.02 195H218.453ZM215.992 186.688L214.543 182.039C214.452 181.729 214.329 181.333 214.174 180.85C214.028 180.357 213.878 179.861 213.723 179.359C213.577 178.849 213.458 178.407 213.367 178.033C213.276 178.407 213.148 178.872 212.984 179.428C212.829 179.975 212.679 180.494 212.533 180.986C212.387 181.479 212.283 181.829 212.219 182.039L210.783 186.688H215.992ZM233.26 195H229.021V178.539H223.594V175.012H238.688V178.539H233.26V195ZM253.275 195H241.764V175.012H253.275V178.484H246.002V182.873H252.77V186.346H246.002V191.5H253.275V195ZM270.215 179.77C272.001 179.77 273.327 180.171 274.193 180.973C275.059 181.775 275.492 183.055 275.492 184.814V195H273.838L273.4 192.785H273.291C272.872 193.332 272.434 193.792 271.979 194.166C271.523 194.531 270.994 194.809 270.393 195C269.8 195.182 269.071 195.273 268.205 195.273C267.294 195.273 266.482 195.114 265.771 194.795C265.07 194.476 264.514 193.993 264.104 193.346C263.702 192.699 263.502 191.878 263.502 190.885C263.502 189.39 264.094 188.242 265.279 187.439C266.464 186.637 268.269 186.2 270.693 186.127L273.277 186.018V185.102C273.277 183.807 272.999 182.9 272.443 182.381C271.887 181.861 271.104 181.602 270.092 181.602C269.308 181.602 268.561 181.715 267.85 181.943C267.139 182.171 266.464 182.44 265.826 182.75L265.129 181.027C265.803 180.681 266.578 180.385 267.453 180.139C268.328 179.893 269.249 179.77 270.215 179.77ZM273.25 187.617L270.967 187.713C269.098 187.786 267.781 188.091 267.016 188.629C266.25 189.167 265.867 189.928 265.867 190.912C265.867 191.769 266.127 192.402 266.646 192.812C267.166 193.223 267.854 193.428 268.711 193.428C270.042 193.428 271.131 193.059 271.979 192.32C272.826 191.582 273.25 190.475 273.25 188.998V187.617ZM287.264 179.742C289.041 179.742 290.385 180.18 291.297 181.055C292.208 181.921 292.664 183.315 292.664 185.238V195H290.422V185.389C290.422 184.14 290.135 183.206 289.561 182.586C288.995 181.966 288.125 181.656 286.949 181.656C285.29 181.656 284.124 182.126 283.449 183.064C282.775 184.003 282.438 185.366 282.438 187.152V195H280.168V180.016H282L282.342 182.176H282.465C282.784 181.647 283.189 181.205 283.682 180.85C284.174 180.485 284.725 180.212 285.336 180.029C285.947 179.838 286.589 179.742 287.264 179.742ZM302.672 195.273C300.776 195.273 299.272 194.626 298.16 193.332C297.057 192.038 296.506 190.115 296.506 187.562C296.506 184.983 297.071 183.037 298.201 181.725C299.331 180.403 300.835 179.742 302.713 179.742C303.506 179.742 304.199 179.847 304.791 180.057C305.383 180.266 305.894 180.549 306.322 180.904C306.751 181.251 307.111 181.647 307.402 182.094H307.566C307.53 181.811 307.493 181.424 307.457 180.932C307.421 180.439 307.402 180.038 307.402 179.729V173.727H309.672V195H307.84L307.498 192.867H307.402C307.12 193.314 306.76 193.719 306.322 194.084C305.894 194.449 305.379 194.74 304.777 194.959C304.185 195.169 303.483 195.273 302.672 195.273ZM303.027 193.387C304.632 193.387 305.766 192.931 306.432 192.02C307.097 191.108 307.43 189.755 307.43 187.959V187.549C307.43 185.644 307.111 184.181 306.473 183.16C305.844 182.139 304.695 181.629 303.027 181.629C301.633 181.629 300.589 182.167 299.896 183.242C299.204 184.309 298.857 185.767 298.857 187.617C298.857 189.458 299.199 190.88 299.883 191.883C300.576 192.885 301.624 193.387 303.027 193.387ZM333.68 189.449C333.68 190.634 333.393 191.664 332.818 192.539C332.244 193.414 331.406 194.089 330.303 194.562C329.209 195.036 327.878 195.273 326.311 195.273C325.618 195.273 324.939 195.228 324.273 195.137C323.617 195.046 322.984 194.913 322.373 194.74C321.771 194.558 321.197 194.335 320.65 194.07V190.133C321.598 190.552 322.583 190.93 323.604 191.268C324.624 191.605 325.636 191.773 326.639 191.773C327.331 191.773 327.887 191.682 328.307 191.5C328.735 191.318 329.045 191.067 329.236 190.748C329.428 190.429 329.523 190.064 329.523 189.654C329.523 189.153 329.355 188.725 329.018 188.369C328.68 188.014 328.215 187.681 327.623 187.371C327.04 187.061 326.379 186.729 325.641 186.373C325.176 186.154 324.67 185.89 324.123 185.58C323.576 185.261 323.057 184.874 322.564 184.418C322.072 183.962 321.667 183.411 321.348 182.764C321.038 182.107 320.883 181.324 320.883 180.412C320.883 179.218 321.156 178.197 321.703 177.35C322.25 176.502 323.029 175.855 324.041 175.408C325.062 174.952 326.265 174.725 327.65 174.725C328.689 174.725 329.678 174.848 330.617 175.094C331.565 175.331 332.554 175.677 333.584 176.133L332.217 179.428C331.296 179.054 330.471 178.767 329.742 178.566C329.013 178.357 328.27 178.252 327.514 178.252C326.985 178.252 326.534 178.339 326.16 178.512C325.786 178.676 325.504 178.913 325.312 179.223C325.121 179.523 325.025 179.874 325.025 180.275C325.025 180.749 325.162 181.15 325.436 181.479C325.718 181.798 326.137 182.107 326.693 182.408C327.258 182.709 327.96 183.06 328.799 183.461C329.82 183.944 330.69 184.45 331.41 184.979C332.139 185.498 332.7 186.113 333.092 186.824C333.484 187.526 333.68 188.401 333.68 189.449ZM353.682 195H349.457V186.373H341.541V195H337.303V175.012H341.541V182.846H349.457V175.012H353.682V195ZM375.01 175.012V187.945C375.01 189.322 374.704 190.566 374.094 191.678C373.492 192.781 372.576 193.656 371.346 194.303C370.124 194.95 368.584 195.273 366.725 195.273C364.081 195.273 362.067 194.599 360.682 193.25C359.296 191.901 358.604 190.115 358.604 187.891V175.012H362.828V187.248C362.828 188.898 363.165 190.055 363.84 190.721C364.514 191.386 365.512 191.719 366.834 191.719C367.764 191.719 368.516 191.559 369.09 191.24C369.673 190.921 370.102 190.429 370.375 189.764C370.648 189.098 370.785 188.251 370.785 187.221V175.012H375.01ZM387.615 195H383.377V178.539H377.949V175.012H393.043V178.539H387.615V195ZM131.746 222.814C131.746 225.066 131.313 226.948 130.447 228.461C129.59 229.965 128.346 231.1 126.715 231.865C125.083 232.622 123.119 233 120.822 233H115.162V213.012H121.438C123.534 213.012 125.352 213.385 126.893 214.133C128.433 214.871 129.627 215.969 130.475 217.428C131.322 218.877 131.746 220.673 131.746 222.814ZM127.344 222.924C127.344 221.447 127.125 220.235 126.688 219.287C126.259 218.33 125.621 217.624 124.773 217.168C123.935 216.712 122.896 216.484 121.656 216.484H119.4V229.5H121.219C123.288 229.5 124.824 228.949 125.826 227.846C126.838 226.743 127.344 225.102 127.344 222.924ZM154.031 222.979C154.031 224.519 153.84 225.923 153.457 227.189C153.074 228.447 152.491 229.532 151.707 230.443C150.932 231.355 149.948 232.057 148.754 232.549C147.56 233.032 146.147 233.273 144.516 233.273C142.884 233.273 141.471 233.032 140.277 232.549C139.083 232.057 138.094 231.355 137.311 230.443C136.536 229.532 135.957 228.443 135.574 227.176C135.191 225.909 135 224.501 135 222.951C135 220.882 135.337 219.082 136.012 217.551C136.695 216.01 137.743 214.816 139.156 213.969C140.569 213.121 142.365 212.697 144.543 212.697C146.712 212.697 148.494 213.121 149.889 213.969C151.292 214.816 152.331 216.01 153.006 217.551C153.689 219.091 154.031 220.9 154.031 222.979ZM139.443 222.979C139.443 224.373 139.617 225.576 139.963 226.588C140.318 227.59 140.87 228.365 141.617 228.912C142.365 229.45 143.331 229.719 144.516 229.719C145.719 229.719 146.694 229.45 147.441 228.912C148.189 228.365 148.731 227.59 149.068 226.588C149.415 225.576 149.588 224.373 149.588 222.979C149.588 220.882 149.196 219.232 148.412 218.029C147.628 216.826 146.339 216.225 144.543 216.225C143.349 216.225 142.374 216.498 141.617 217.045C140.87 217.583 140.318 218.357 139.963 219.369C139.617 220.372 139.443 221.575 139.443 222.979ZM182.729 213.012L177.643 233H172.816L170.109 222.5C170.055 222.299 169.982 221.994 169.891 221.584C169.799 221.174 169.704 220.727 169.604 220.244C169.503 219.752 169.412 219.292 169.33 218.863C169.257 218.426 169.207 218.079 169.18 217.824C169.152 218.079 169.098 218.421 169.016 218.85C168.943 219.278 168.856 219.734 168.756 220.217C168.665 220.7 168.574 221.151 168.482 221.57C168.391 221.99 168.318 222.309 168.264 222.527L165.57 233H160.758L155.658 213.012H159.828L162.385 223.922C162.458 224.25 162.54 224.642 162.631 225.098C162.731 225.553 162.827 226.032 162.918 226.533C163.018 227.025 163.105 227.504 163.178 227.969C163.26 228.424 163.319 228.821 163.355 229.158C163.401 228.812 163.46 228.411 163.533 227.955C163.606 227.49 163.684 227.021 163.766 226.547C163.857 226.064 163.948 225.617 164.039 225.207C164.13 224.797 164.212 224.464 164.285 224.209L167.197 213.012H171.203L174.115 224.209C174.179 224.455 174.252 224.788 174.334 225.207C174.425 225.617 174.516 226.064 174.607 226.547C174.699 227.03 174.781 227.504 174.854 227.969C174.936 228.424 174.995 228.821 175.031 229.158C175.095 228.702 175.182 228.151 175.291 227.504C175.41 226.848 175.533 226.196 175.66 225.549C175.797 224.902 175.915 224.359 176.016 223.922L178.559 213.012H182.729ZM202.977 233H197.59L188.895 217.879H188.771C188.808 218.508 188.84 219.141 188.867 219.779C188.895 220.417 188.922 221.055 188.949 221.693C188.977 222.322 189.004 222.956 189.031 223.594V233H185.244V213.012H190.59L199.271 227.982H199.367C199.349 227.363 199.326 226.747 199.299 226.137C199.271 225.526 199.244 224.915 199.217 224.305C199.199 223.694 199.18 223.083 199.162 222.473V213.012H202.977V233ZM220.012 231.414C220.385 231.414 220.768 231.382 221.16 231.318C221.552 231.255 221.871 231.177 222.117 231.086V232.85C221.853 232.968 221.484 233.068 221.01 233.15C220.545 233.232 220.089 233.273 219.643 233.273C218.85 233.273 218.13 233.137 217.482 232.863C216.835 232.581 216.316 232.107 215.924 231.441C215.541 230.776 215.35 229.855 215.35 228.68V219.793H213.217V218.686L215.363 217.797L216.266 214.543H217.633V218.016H222.021V219.793H217.633V228.611C217.633 229.55 217.847 230.252 218.275 230.717C218.713 231.182 219.292 231.414 220.012 231.414ZM227.422 211.727V218.084C227.422 218.449 227.413 218.818 227.395 219.191C227.376 219.556 227.344 219.893 227.299 220.203H227.449C227.759 219.674 228.151 219.232 228.625 218.877C229.108 218.512 229.655 218.239 230.266 218.057C230.876 217.865 231.523 217.77 232.207 217.77C233.41 217.77 234.413 217.961 235.215 218.344C236.026 218.727 236.632 219.319 237.033 220.121C237.443 220.923 237.648 221.962 237.648 223.238V233H235.406V223.389C235.406 222.14 235.119 221.206 234.545 220.586C233.98 219.966 233.109 219.656 231.934 219.656C230.822 219.656 229.933 219.87 229.268 220.299C228.611 220.718 228.137 221.338 227.846 222.158C227.563 222.979 227.422 223.981 227.422 225.166V233H225.152V211.727H227.422ZM248.094 217.742C249.37 217.742 250.464 218.025 251.375 218.59C252.286 219.155 252.984 219.948 253.467 220.969C253.95 221.98 254.191 223.165 254.191 224.523V225.932H243.842C243.869 227.691 244.307 229.031 245.154 229.951C246.002 230.872 247.196 231.332 248.736 231.332C249.684 231.332 250.523 231.245 251.252 231.072C251.981 230.899 252.738 230.644 253.521 230.307V232.303C252.765 232.64 252.013 232.886 251.266 233.041C250.527 233.196 249.652 233.273 248.641 233.273C247.201 233.273 245.943 232.982 244.867 232.398C243.801 231.806 242.971 230.94 242.379 229.801C241.786 228.661 241.49 227.267 241.49 225.617C241.49 224.004 241.759 222.609 242.297 221.434C242.844 220.249 243.609 219.337 244.594 218.699C245.587 218.061 246.754 217.742 248.094 217.742ZM248.066 219.602C246.854 219.602 245.888 219.998 245.168 220.791C244.448 221.584 244.02 222.691 243.883 224.113H251.812C251.803 223.22 251.662 222.436 251.389 221.762C251.124 221.078 250.719 220.549 250.172 220.176C249.625 219.793 248.923 219.602 248.066 219.602ZM275.014 228.898C275.014 229.855 274.772 230.662 274.289 231.318C273.815 231.965 273.132 232.453 272.238 232.781C271.354 233.109 270.297 233.273 269.066 233.273C268.018 233.273 267.111 233.191 266.346 233.027C265.58 232.863 264.91 232.631 264.336 232.33V230.238C264.947 230.539 265.676 230.812 266.523 231.059C267.371 231.305 268.237 231.428 269.121 231.428C270.415 231.428 271.354 231.218 271.938 230.799C272.521 230.38 272.812 229.81 272.812 229.09C272.812 228.68 272.694 228.32 272.457 228.01C272.229 227.691 271.842 227.385 271.295 227.094C270.748 226.793 269.992 226.465 269.025 226.109C268.068 225.745 267.239 225.385 266.537 225.029C265.844 224.665 265.307 224.223 264.924 223.703C264.55 223.184 264.363 222.509 264.363 221.68C264.363 220.413 264.874 219.442 265.895 218.768C266.924 218.084 268.273 217.742 269.941 217.742C270.844 217.742 271.687 217.833 272.471 218.016C273.264 218.189 274.002 218.426 274.686 218.727L273.92 220.545C273.3 220.281 272.639 220.057 271.938 219.875C271.236 219.693 270.52 219.602 269.791 219.602C268.743 219.602 267.936 219.775 267.371 220.121C266.815 220.467 266.537 220.941 266.537 221.543C266.537 222.008 266.665 222.391 266.92 222.691C267.184 222.992 267.604 223.275 268.178 223.539C268.752 223.803 269.508 224.113 270.447 224.469C271.386 224.815 272.197 225.175 272.881 225.549C273.564 225.913 274.089 226.36 274.453 226.889C274.827 227.408 275.014 228.078 275.014 228.898ZM276.299 218.016H278.732L282.041 226.711C282.232 227.221 282.41 227.714 282.574 228.188C282.738 228.652 282.884 229.099 283.012 229.527C283.139 229.956 283.24 230.37 283.312 230.771H283.408C283.536 230.316 283.718 229.719 283.955 228.98C284.192 228.233 284.447 227.472 284.721 226.697L287.852 218.016H290.299L283.777 235.201C283.431 236.122 283.025 236.924 282.561 237.607C282.105 238.291 281.549 238.815 280.893 239.18C280.236 239.553 279.443 239.74 278.514 239.74C278.085 239.74 277.707 239.713 277.379 239.658C277.051 239.613 276.768 239.558 276.531 239.494V237.676C276.732 237.721 276.973 237.762 277.256 237.799C277.548 237.835 277.848 237.854 278.158 237.854C278.723 237.854 279.211 237.744 279.621 237.525C280.04 237.316 280.4 237.006 280.701 236.596C281.002 236.186 281.262 235.698 281.48 235.133L282.301 233.027L276.299 218.016ZM302.385 228.898C302.385 229.855 302.143 230.662 301.66 231.318C301.186 231.965 300.503 232.453 299.609 232.781C298.725 233.109 297.668 233.273 296.438 233.273C295.389 233.273 294.482 233.191 293.717 233.027C292.951 232.863 292.281 232.631 291.707 232.33V230.238C292.318 230.539 293.047 230.812 293.895 231.059C294.742 231.305 295.608 231.428 296.492 231.428C297.786 231.428 298.725 231.218 299.309 230.799C299.892 230.38 300.184 229.81 300.184 229.09C300.184 228.68 300.065 228.32 299.828 228.01C299.6 227.691 299.213 227.385 298.666 227.094C298.119 226.793 297.363 226.465 296.396 226.109C295.439 225.745 294.61 225.385 293.908 225.029C293.215 224.665 292.678 224.223 292.295 223.703C291.921 223.184 291.734 222.509 291.734 221.68C291.734 220.413 292.245 219.442 293.266 218.768C294.296 218.084 295.645 217.742 297.312 217.742C298.215 217.742 299.058 217.833 299.842 218.016C300.635 218.189 301.373 218.426 302.057 218.727L301.291 220.545C300.671 220.281 300.01 220.057 299.309 219.875C298.607 219.693 297.891 219.602 297.162 219.602C296.114 219.602 295.307 219.775 294.742 220.121C294.186 220.467 293.908 220.941 293.908 221.543C293.908 222.008 294.036 222.391 294.291 222.691C294.555 222.992 294.975 223.275 295.549 223.539C296.123 223.803 296.88 224.113 297.818 224.469C298.757 224.815 299.568 225.175 300.252 225.549C300.936 225.913 301.46 226.36 301.824 226.889C302.198 227.408 302.385 228.078 302.385 228.898ZM310.875 231.414C311.249 231.414 311.632 231.382 312.023 231.318C312.415 231.255 312.734 231.177 312.98 231.086V232.85C312.716 232.968 312.347 233.068 311.873 233.15C311.408 233.232 310.952 233.273 310.506 233.273C309.713 233.273 308.993 233.137 308.346 232.863C307.699 232.581 307.179 232.107 306.787 231.441C306.404 230.776 306.213 229.855 306.213 228.68V219.793H304.08V218.686L306.227 217.797L307.129 214.543H308.496V218.016H312.885V219.793H308.496V228.611C308.496 229.55 308.71 230.252 309.139 230.717C309.576 231.182 310.155 231.414 310.875 231.414ZM321.785 217.742C323.061 217.742 324.155 218.025 325.066 218.59C325.978 219.155 326.675 219.948 327.158 220.969C327.641 221.98 327.883 223.165 327.883 224.523V225.932H317.533C317.561 227.691 317.998 229.031 318.846 229.951C319.693 230.872 320.887 231.332 322.428 231.332C323.376 231.332 324.214 231.245 324.943 231.072C325.673 230.899 326.429 230.644 327.213 230.307V232.303C326.456 232.64 325.704 232.886 324.957 233.041C324.219 233.196 323.344 233.273 322.332 233.273C320.892 233.273 319.634 232.982 318.559 232.398C317.492 231.806 316.663 230.94 316.07 229.801C315.478 228.661 315.182 227.267 315.182 225.617C315.182 224.004 315.451 222.609 315.988 221.434C316.535 220.249 317.301 219.337 318.285 218.699C319.279 218.061 320.445 217.742 321.785 217.742ZM321.758 219.602C320.546 219.602 319.579 219.998 318.859 220.791C318.139 221.584 317.711 222.691 317.574 224.113H325.504C325.495 223.22 325.354 222.436 325.08 221.762C324.816 221.078 324.41 220.549 323.863 220.176C323.316 219.793 322.615 219.602 321.758 219.602ZM348.008 217.742C349.658 217.742 350.902 218.175 351.74 219.041C352.579 219.898 352.998 221.279 352.998 223.184V233H350.756V223.293C350.756 222.081 350.492 221.174 349.963 220.572C349.443 219.962 348.669 219.656 347.639 219.656C346.189 219.656 345.137 220.076 344.48 220.914C343.824 221.753 343.496 222.988 343.496 224.619V233H341.24V223.293C341.24 222.482 341.122 221.807 340.885 221.27C340.657 220.732 340.311 220.331 339.846 220.066C339.39 219.793 338.811 219.656 338.109 219.656C337.116 219.656 336.318 219.861 335.717 220.271C335.115 220.682 334.678 221.292 334.404 222.104C334.14 222.906 334.008 223.895 334.008 225.07V233H331.738V218.016H333.57L333.912 220.135H334.035C334.336 219.615 334.714 219.178 335.17 218.822C335.626 218.467 336.136 218.198 336.701 218.016C337.266 217.833 337.868 217.742 338.506 217.742C339.645 217.742 340.598 217.956 341.363 218.385C342.138 218.804 342.699 219.447 343.045 220.312H343.168C343.66 219.447 344.335 218.804 345.191 218.385C346.048 217.956 346.987 217.742 348.008 217.742ZM359.205 227.449V226.738C359.205 226.009 359.273 225.385 359.41 224.865C359.547 224.337 359.784 223.844 360.121 223.389C360.467 222.933 360.946 222.45 361.557 221.939C362.268 221.347 362.828 220.846 363.238 220.436C363.658 220.016 363.958 219.597 364.141 219.178C364.323 218.758 364.414 218.253 364.414 217.66C364.414 216.712 364.109 215.988 363.498 215.486C362.887 214.976 362.026 214.721 360.914 214.721C360.012 214.721 359.21 214.835 358.508 215.062C357.806 215.29 357.132 215.564 356.484 215.883L355.691 214.051C356.439 213.659 357.25 213.34 358.125 213.094C359 212.848 359.975 212.725 361.051 212.725C362.81 212.725 364.173 213.162 365.139 214.037C366.105 214.903 366.588 216.097 366.588 217.619C366.588 218.467 366.451 219.191 366.178 219.793C365.904 220.385 365.517 220.932 365.016 221.434C364.514 221.926 363.922 222.45 363.238 223.006C362.637 223.516 362.176 223.967 361.857 224.359C361.538 224.742 361.32 225.139 361.201 225.549C361.083 225.95 361.023 226.433 361.023 226.998V227.449H359.205ZM358.604 231.578C358.604 230.94 358.754 230.489 359.055 230.225C359.355 229.951 359.743 229.814 360.217 229.814C360.663 229.814 361.042 229.951 361.352 230.225C361.671 230.489 361.83 230.94 361.83 231.578C361.83 232.207 361.671 232.667 361.352 232.959C361.042 233.242 360.663 233.383 360.217 233.383C359.743 233.383 359.355 233.242 359.055 232.959C358.754 232.667 358.604 232.207 358.604 231.578Z" fill="black"/>
<g filter="url(#filter3_d_3949_46586)">
<rect x="64" y="289" width="168" height="64" rx="5" fill="white" shape-rendering="crispEdges"/>
<rect x="65.5" y="290.5" width="165" height="61" rx="3.5" stroke="#1A1040" stroke-width="3" shape-rendering="crispEdges"/>
<path d="M117.707 316.145C117.012 316.145 116.395 316.281 115.855 316.555C115.324 316.82 114.875 317.207 114.508 317.715C114.148 318.223 113.875 318.836 113.688 319.555C113.5 320.273 113.406 321.082 113.406 321.98C113.406 323.191 113.555 324.227 113.852 325.086C114.156 325.938 114.625 326.59 115.258 327.043C115.891 327.488 116.707 327.711 117.707 327.711C118.402 327.711 119.098 327.633 119.793 327.477C120.496 327.32 121.258 327.098 122.078 326.809V329.855C121.32 330.168 120.574 330.391 119.84 330.523C119.105 330.664 118.281 330.734 117.367 330.734C115.602 330.734 114.148 330.371 113.008 329.645C111.875 328.91 111.035 327.887 110.488 326.574C109.941 325.254 109.668 323.715 109.668 321.957C109.668 320.66 109.844 319.473 110.195 318.395C110.547 317.316 111.062 316.383 111.742 315.594C112.422 314.805 113.262 314.195 114.262 313.766C115.262 313.336 116.41 313.121 117.707 313.121C118.559 313.121 119.41 313.23 120.262 313.449C121.121 313.66 121.941 313.953 122.723 314.328L121.551 317.281C120.91 316.977 120.266 316.711 119.617 316.484C118.969 316.258 118.332 316.145 117.707 316.145ZM130.82 317.129C132.578 317.129 133.926 317.512 134.863 318.277C135.801 319.043 136.27 320.207 136.27 321.77V330.5H133.773L133.082 328.719H132.988C132.613 329.188 132.23 329.57 131.84 329.867C131.449 330.164 131 330.383 130.492 330.523C129.984 330.664 129.367 330.734 128.641 330.734C127.867 330.734 127.172 330.586 126.555 330.289C125.945 329.992 125.465 329.539 125.113 328.93C124.762 328.312 124.586 327.531 124.586 326.586C124.586 325.195 125.074 324.172 126.051 323.516C127.027 322.852 128.492 322.484 130.445 322.414L132.719 322.344V321.77C132.719 321.082 132.539 320.578 132.18 320.258C131.82 319.938 131.32 319.777 130.68 319.777C130.047 319.777 129.426 319.867 128.816 320.047C128.207 320.227 127.598 320.453 126.988 320.727L125.805 318.312C126.5 317.945 127.277 317.656 128.137 317.445C129.004 317.234 129.898 317.129 130.82 317.129ZM132.719 324.43L131.336 324.477C130.18 324.508 129.375 324.715 128.922 325.098C128.477 325.48 128.254 325.984 128.254 326.609C128.254 327.156 128.414 327.547 128.734 327.781C129.055 328.008 129.473 328.121 129.988 328.121C130.754 328.121 131.398 327.895 131.922 327.441C132.453 326.988 132.719 326.344 132.719 325.508V324.43ZM147.402 317.152C148.801 317.152 149.926 317.535 150.777 318.301C151.629 319.059 152.055 320.277 152.055 321.957V330.5H148.48V322.848C148.48 321.91 148.309 321.203 147.965 320.727C147.629 320.25 147.098 320.012 146.371 320.012C145.277 320.012 144.531 320.383 144.133 321.125C143.734 321.867 143.535 322.938 143.535 324.336V330.5H139.961V317.398H142.691L143.172 319.074H143.371C143.652 318.621 144 318.254 144.414 317.973C144.836 317.691 145.301 317.484 145.809 317.352C146.324 317.219 146.855 317.152 147.402 317.152ZM161.055 330.734C159.758 330.734 158.652 330.5 157.738 330.031C156.824 329.555 156.129 328.82 155.652 327.828C155.176 326.836 154.938 325.566 154.938 324.02C154.938 322.418 155.207 321.113 155.746 320.105C156.293 319.09 157.047 318.344 158.008 317.867C158.977 317.391 160.098 317.152 161.371 317.152C162.277 317.152 163.059 317.242 163.715 317.422C164.379 317.594 164.957 317.801 165.449 318.043L164.395 320.809C163.832 320.582 163.309 320.398 162.824 320.258C162.34 320.109 161.855 320.035 161.371 320.035C160.746 320.035 160.227 320.184 159.812 320.48C159.398 320.77 159.09 321.207 158.887 321.793C158.684 322.379 158.582 323.113 158.582 323.996C158.582 324.863 158.691 325.582 158.91 326.152C159.129 326.723 159.445 327.148 159.859 327.43C160.273 327.703 160.777 327.84 161.371 327.84C162.113 327.84 162.773 327.742 163.352 327.547C163.93 327.344 164.492 327.062 165.039 326.703V329.762C164.492 330.105 163.918 330.352 163.316 330.5C162.723 330.656 161.969 330.734 161.055 330.734ZM173.488 317.152C174.699 317.152 175.742 317.387 176.617 317.855C177.492 318.316 178.168 318.988 178.645 319.871C179.121 320.754 179.359 321.832 179.359 323.105V324.84H170.91C170.949 325.848 171.25 326.641 171.812 327.219C172.383 327.789 173.172 328.074 174.18 328.074C175.016 328.074 175.781 327.988 176.477 327.816C177.172 327.645 177.887 327.387 178.621 327.043V329.809C177.973 330.129 177.293 330.363 176.582 330.512C175.879 330.66 175.023 330.734 174.016 330.734C172.703 330.734 171.539 330.492 170.523 330.008C169.516 329.523 168.723 328.785 168.145 327.793C167.574 326.801 167.289 325.551 167.289 324.043C167.289 322.512 167.547 321.238 168.062 320.223C168.586 319.199 169.312 318.434 170.242 317.926C171.172 317.41 172.254 317.152 173.488 317.152ZM173.512 319.695C172.816 319.695 172.238 319.918 171.777 320.363C171.324 320.809 171.062 321.508 170.992 322.461H176.008C176 321.93 175.902 321.457 175.715 321.043C175.535 320.629 175.262 320.301 174.895 320.059C174.535 319.816 174.074 319.695 173.512 319.695ZM185.84 330.5H182.266V312.266H185.84V330.5Z" fill="#1A1040"/>
</g>
<g filter="url(#filter4_d_3949_46586)">
<rect x="248" y="289" width="168" height="64" rx="5" fill="#AC211C" shape-rendering="crispEdges"/>
<path d="M279.078 325.742C279.078 326.758 278.832 327.641 278.34 328.391C277.848 329.141 277.129 329.719 276.184 330.125C275.246 330.531 274.105 330.734 272.762 330.734C272.168 330.734 271.586 330.695 271.016 330.617C270.453 330.539 269.91 330.426 269.387 330.277C268.871 330.121 268.379 329.93 267.91 329.703V326.328C268.723 326.688 269.566 327.012 270.441 327.301C271.316 327.59 272.184 327.734 273.043 327.734C273.637 327.734 274.113 327.656 274.473 327.5C274.84 327.344 275.105 327.129 275.27 326.855C275.434 326.582 275.516 326.27 275.516 325.918C275.516 325.488 275.371 325.121 275.082 324.816C274.793 324.512 274.395 324.227 273.887 323.961C273.387 323.695 272.82 323.41 272.188 323.105C271.789 322.918 271.355 322.691 270.887 322.426C270.418 322.152 269.973 321.82 269.551 321.43C269.129 321.039 268.781 320.566 268.508 320.012C268.242 319.449 268.109 318.777 268.109 317.996C268.109 316.973 268.344 316.098 268.812 315.371C269.281 314.645 269.949 314.09 270.816 313.707C271.691 313.316 272.723 313.121 273.91 313.121C274.801 313.121 275.648 313.227 276.453 313.438C277.266 313.641 278.113 313.938 278.996 314.328L277.824 317.152C277.035 316.832 276.328 316.586 275.703 316.414C275.078 316.234 274.441 316.145 273.793 316.145C273.34 316.145 272.953 316.219 272.633 316.367C272.312 316.508 272.07 316.711 271.906 316.977C271.742 317.234 271.66 317.535 271.66 317.879C271.66 318.285 271.777 318.629 272.012 318.91C272.254 319.184 272.613 319.449 273.09 319.707C273.574 319.965 274.176 320.266 274.895 320.609C275.77 321.023 276.516 321.457 277.133 321.91C277.758 322.355 278.238 322.883 278.574 323.492C278.91 324.094 279.078 324.844 279.078 325.742ZM285.477 312.266V315.98C285.477 316.629 285.453 317.246 285.406 317.832C285.367 318.418 285.336 318.832 285.312 319.074H285.5C285.781 318.621 286.113 318.254 286.496 317.973C286.887 317.691 287.316 317.484 287.785 317.352C288.254 317.219 288.758 317.152 289.297 317.152C290.242 317.152 291.066 317.32 291.77 317.656C292.473 317.984 293.02 318.504 293.41 319.215C293.801 319.918 293.996 320.832 293.996 321.957V330.5H290.422V322.848C290.422 321.91 290.25 321.203 289.906 320.727C289.562 320.25 289.031 320.012 288.312 320.012C287.594 320.012 287.027 320.18 286.613 320.516C286.199 320.844 285.906 321.332 285.734 321.98C285.562 322.621 285.477 323.406 285.477 324.336V330.5H281.902V312.266H285.477ZM309.699 317.398V330.5H306.957L306.477 328.824H306.289C306.008 329.27 305.656 329.633 305.234 329.914C304.812 330.195 304.348 330.402 303.84 330.535C303.332 330.668 302.805 330.734 302.258 330.734C301.32 330.734 300.504 330.57 299.809 330.242C299.113 329.906 298.57 329.387 298.18 328.684C297.797 327.98 297.605 327.066 297.605 325.941V317.398H301.18V325.051C301.18 325.988 301.348 326.695 301.684 327.172C302.02 327.648 302.555 327.887 303.289 327.887C304.016 327.887 304.586 327.723 305 327.395C305.414 327.059 305.703 326.57 305.867 325.93C306.039 325.281 306.125 324.492 306.125 323.562V317.398H309.699ZM318.969 327.887C319.359 327.887 319.738 327.848 320.105 327.77C320.48 327.691 320.852 327.594 321.219 327.477V330.137C320.836 330.309 320.359 330.449 319.789 330.559C319.227 330.676 318.609 330.734 317.938 330.734C317.156 330.734 316.453 330.609 315.828 330.359C315.211 330.102 314.723 329.66 314.363 329.035C314.012 328.402 313.836 327.523 313.836 326.398V320.082H312.125V318.57L314.094 317.375L315.125 314.609H317.41V317.398H321.078V320.082H317.41V326.398C317.41 326.898 317.551 327.273 317.832 327.523C318.121 327.766 318.5 327.887 318.969 327.887ZM344.609 321.77C344.609 323.699 344.238 325.312 343.496 326.609C342.762 327.898 341.695 328.871 340.297 329.527C338.898 330.176 337.215 330.5 335.246 330.5H330.395V313.367H335.773C337.57 313.367 339.129 313.688 340.449 314.328C341.77 314.961 342.793 315.902 343.52 317.152C344.246 318.395 344.609 319.934 344.609 321.77ZM340.836 321.863C340.836 320.598 340.648 319.559 340.273 318.746C339.906 317.926 339.359 317.32 338.633 316.93C337.914 316.539 337.023 316.344 335.961 316.344H334.027V327.5H335.586C337.359 327.5 338.676 327.027 339.535 326.082C340.402 325.137 340.836 323.73 340.836 321.863ZM359.785 323.926C359.785 325.02 359.637 325.988 359.34 326.832C359.051 327.676 358.625 328.391 358.062 328.977C357.508 329.555 356.836 329.992 356.047 330.289C355.266 330.586 354.383 330.734 353.398 330.734C352.477 330.734 351.629 330.586 350.855 330.289C350.09 329.992 349.422 329.555 348.852 328.977C348.289 328.391 347.852 327.676 347.539 326.832C347.234 325.988 347.082 325.02 347.082 323.926C347.082 322.473 347.34 321.242 347.855 320.234C348.371 319.227 349.105 318.461 350.059 317.938C351.012 317.414 352.148 317.152 353.469 317.152C354.695 317.152 355.781 317.414 356.727 317.938C357.68 318.461 358.426 319.227 358.965 320.234C359.512 321.242 359.785 322.473 359.785 323.926ZM350.727 323.926C350.727 324.785 350.82 325.508 351.008 326.094C351.195 326.68 351.488 327.121 351.887 327.418C352.285 327.715 352.805 327.863 353.445 327.863C354.078 327.863 354.59 327.715 354.98 327.418C355.379 327.121 355.668 326.68 355.848 326.094C356.035 325.508 356.129 324.785 356.129 323.926C356.129 323.059 356.035 322.34 355.848 321.77C355.668 321.191 355.379 320.758 354.98 320.469C354.582 320.18 354.062 320.035 353.422 320.035C352.477 320.035 351.789 320.359 351.359 321.008C350.938 321.656 350.727 322.629 350.727 323.926ZM373.508 330.5L372.5 325.918C372.445 325.645 372.355 325.242 372.23 324.711C372.105 324.172 371.969 323.598 371.82 322.988C371.68 322.371 371.547 321.801 371.422 321.277C371.305 320.754 371.219 320.371 371.164 320.129H371.059C371.004 320.371 370.918 320.754 370.801 321.277C370.684 321.801 370.551 322.371 370.402 322.988C370.262 323.605 370.129 324.188 370.004 324.734C369.879 325.273 369.785 325.684 369.723 325.965L368.668 330.5H364.824L361.098 317.398H364.66L366.172 323.199C366.273 323.605 366.371 324.09 366.465 324.652C366.559 325.207 366.641 325.746 366.711 326.27C366.789 326.785 366.848 327.195 366.887 327.5H366.98C366.996 327.273 367.027 326.973 367.074 326.598C367.129 326.223 367.188 325.836 367.25 325.438C367.32 325.031 367.383 324.668 367.438 324.348C367.5 324.02 367.547 323.797 367.578 323.68L369.195 317.398H373.133L374.668 323.68C374.723 323.906 374.793 324.266 374.879 324.758C374.973 325.25 375.055 325.758 375.125 326.281C375.195 326.797 375.234 327.203 375.242 327.5H375.336C375.367 327.234 375.422 326.84 375.5 326.316C375.578 325.793 375.668 325.246 375.77 324.676C375.879 324.098 375.988 323.605 376.098 323.199L377.668 317.398H381.172L377.398 330.5H373.508ZM390.734 317.152C392.133 317.152 393.258 317.535 394.109 318.301C394.961 319.059 395.387 320.277 395.387 321.957V330.5H391.812V322.848C391.812 321.91 391.641 321.203 391.297 320.727C390.961 320.25 390.43 320.012 389.703 320.012C388.609 320.012 387.863 320.383 387.465 321.125C387.066 321.867 386.867 322.938 386.867 324.336V330.5H383.293V317.398H386.023L386.504 319.074H386.703C386.984 318.621 387.332 318.254 387.746 317.973C388.168 317.691 388.633 317.484 389.141 317.352C389.656 317.219 390.188 317.152 390.734 317.152Z" fill="white"/>
</g>
</g>
</g>
<defs>
<filter id="filter0_d_3949_46586" x="56" y="20" width="368" height="368" filterUnits="userSpaceOnUse" color-interpolation-filters="sRGB">
<feFlood flood-opacity="0" result="BackgroundImageFix"/>
<feColorMatrix in="SourceAlpha" type="matrix" values="0 0 0 0 0 0 0 0 0 0 0 0 0 0 0 0 0 0 127 0" result="hardAlpha"/>
<feOffset dy="12"/>
<feGaussianBlur stdDeviation="12"/>
<feComposite in2="hardAlpha" operator="out"/>
<feColorMatrix type="matrix" values="0 0 0 0 0 0 0 0 0 0 0 0 0 0 0 0 0 0 0.16 0"/>
<feBlend mode="normal" in2="BackgroundImageFix" result="effect1_dropShadow_3949_46586"/>
<feBlend mode="normal" in="SourceGraphic" in2="effect1_dropShadow_3949_46586" result="shape"/>
</filter>
<filter id="filter1_d_3949_46586" x="12" y="382" width="456" height="88" filterUnits="userSpaceOnUse" color-interpolation-filters="sRGB">
<feFlood flood-opacity="0" result="BackgroundImageFix"/>
<feColorMatrix in="SourceAlpha" type="matrix" values="0 0 0 0 0 0 0 0 0 0 0 0 0 0 0 0 0 0 127 0" result="hardAlpha"/>
<feOffset dy="2"/>
<feGaussianBlur stdDeviation="2"/>
<feComposite in2="hardAlpha" operator="out"/>
<feColorMatrix type="matrix" values="0 0 0 0 0 0 0 0 0 0 0 0 0 0 0 0 0 0 0.25 0"/>
<feBlend mode="normal" in2="BackgroundImageFix" result="effect1_dropShadow_3949_46586"/>
<feBlend mode="normal" in="SourceGraphic" in2="effect1_dropShadow_3949_46586" result="shape"/>
</filter>
<filter id="filter2_d_3949_46586" x="30" y="95" width="424" height="298" filterUnits="userSpaceOnUse" color-interpolation-filters="sRGB">
<feFlood flood-opacity="0" result="BackgroundImageFix"/>
<feColorMatrix in="SourceAlpha" type="matrix" values="0 0 0 0 0 0 0 0 0 0 0 0 0 0 0 0 0 0 127 0" result="hardAlpha"/>
<feOffset dx="2" dy="4"/>
<feGaussianBlur stdDeviation="2"/>
<feComposite in2="hardAlpha" operator="out"/>
<feColorMatrix type="matrix" values="0 0 0 0 0 0 0 0 0 0 0 0 0 0 0 0 0 0 0.25 0"/>
<feBlend mode="normal" in2="BackgroundImageFix" result="effect1_dropShadow_3949_46586"/>
<feBlend mode="normal" in="SourceGraphic" in2="effect1_dropShadow_3949_46586" result="shape"/>
</filter>
<filter id="filter3_d_3949_46586" x="60" y="287" width="176" height="72" filterUnits="userSpaceOnUse" color-interpolation-filters="sRGB">
<feFlood flood-opacity="0" result="BackgroundImageFix"/>
<feColorMatrix in="SourceAlpha" type="matrix" values="0 0 0 0 0 0 0 0 0 0 0 0 0 0 0 0 0 0 127 0" result="hardAlpha"/>
<feOffset dy="2"/>
<feGaussianBlur stdDeviation="2"/>
<feComposite in2="hardAlpha" operator="out"/>
<feColorMatrix type="matrix" values="0 0 0 0 0 0 0 0 0 0 0 0 0 0 0 0 0 0 0.25 0"/>
<feBlend mode="normal" in2="BackgroundImageFix" result="effect1_dropShadow_3949_46586"/>
<feBlend mode="normal" in="SourceGraphic" in2="effect1_dropShadow_3949_46586" result="shape"/>
</filter>
<filter id="filter4_d_3949_46586" x="244" y="287" width="176" height="72" filterUnits="userSpaceOnUse" color-interpolation-filters="sRGB">
<feFlood flood-opacity="0" result="BackgroundImageFix"/>
<feColorMatrix in="SourceAlpha" type="matrix" values="0 0 0 0 0 0 0 0 0 0 0 0 0 0 0 0 0 0 127 0" result="hardAlpha"/>
<feOffset dy="2"/>
<feGaussianBlur stdDeviation="2"/>
<feComposite in2="hardAlpha" operator="out"/>
<feColorMatrix type="matrix" values="0 0 0 0 0 0 0 0 0 0 0 0 0 0 0 0 0 0 0.25 0"/>
<feBlend mode="normal" in2="BackgroundImageFix" result="effect1_dropShadow_3949_46586"/>
<feBlend mode="normal" in="SourceGraphic" in2="effect1_dropShadow_3949_46586" result="shape"/>
</filter>
<clipPath id="clip0_3949_46586">
<rect width="480" height="480" fill="white"/>
</clipPath>
</defs>
</svg>
