<svg width="480" height="480" viewBox="0 0 480 480" fill="none" xmlns="http://www.w3.org/2000/svg">
<rect width="480" height="480" fill="#F6F6F6"/>
<mask id="path-1-inside-1_3926_12665" fill="white">
<path d="M0 0H480V64H0V0Z"/>
</mask>
<path d="M0 0H480V64H0V0Z" fill="white"/>
<path d="M480 64V63H0V64V65H480V64Z" fill="#D1D1D1" mask="url(#path-1-inside-1_3926_12665)"/>
<path d="M179.303 36.0352C179.303 37.3242 178.837 38.3398 177.906 39.082C176.982 39.8242 175.693 40.1953 174.039 40.1953C172.516 40.1953 171.168 39.9089 169.996 39.3359V36.5234C170.96 36.9531 171.773 37.2559 172.438 37.4316C173.108 37.6074 173.72 37.6953 174.273 37.6953C174.938 37.6953 175.445 37.5684 175.797 37.3145C176.155 37.0605 176.334 36.6829 176.334 36.1816C176.334 35.9017 176.256 35.6543 176.1 35.4395C175.943 35.2181 175.712 35.0065 175.406 34.8047C175.107 34.6029 174.492 34.2806 173.561 33.8379C172.688 33.4277 172.034 33.0339 171.598 32.6562C171.161 32.2786 170.813 31.8392 170.553 31.3379C170.292 30.8366 170.162 30.2507 170.162 29.5801C170.162 28.3171 170.589 27.3242 171.441 26.6016C172.301 25.8789 173.486 25.5176 174.996 25.5176C175.738 25.5176 176.445 25.6055 177.115 25.7812C177.792 25.957 178.499 26.2044 179.234 26.5234L178.258 28.877C177.496 28.5645 176.865 28.3464 176.363 28.2227C175.868 28.099 175.38 28.0371 174.898 28.0371C174.326 28.0371 173.886 28.1706 173.58 28.4375C173.274 28.7044 173.121 29.0527 173.121 29.4824C173.121 29.7493 173.183 29.9837 173.307 30.1855C173.43 30.3809 173.626 30.5729 173.893 30.7617C174.166 30.944 174.807 31.276 175.816 31.7578C177.151 32.3958 178.066 33.0371 178.561 33.6816C179.055 34.3197 179.303 35.1042 179.303 36.0352ZM186.178 30.9961C185.546 30.9961 185.051 31.1979 184.693 31.6016C184.335 31.9987 184.13 32.5651 184.078 33.3008H188.258C188.245 32.5651 188.053 31.9987 187.682 31.6016C187.311 31.1979 186.809 30.9961 186.178 30.9961ZM186.598 40.1953C184.84 40.1953 183.466 39.7103 182.477 38.7402C181.487 37.7702 180.992 36.3965 180.992 34.6191C180.992 32.7897 181.448 31.377 182.359 30.3809C183.277 29.3783 184.544 28.877 186.158 28.877C187.701 28.877 188.902 29.3164 189.762 30.1953C190.621 31.0742 191.051 32.2884 191.051 33.8379V35.2832H184.01C184.042 36.1296 184.293 36.7904 184.762 37.2656C185.23 37.7409 185.888 37.9785 186.734 37.9785C187.392 37.9785 188.014 37.9102 188.6 37.7734C189.186 37.6367 189.798 37.4186 190.436 37.1191V39.4238C189.915 39.6842 189.358 39.8763 188.766 40C188.173 40.1302 187.451 40.1953 186.598 40.1953ZM196.451 40H193.473V24.8047H196.451V40ZM204.107 30.9961C203.476 30.9961 202.981 31.1979 202.623 31.6016C202.265 31.9987 202.06 32.5651 202.008 33.3008H206.188C206.174 32.5651 205.982 31.9987 205.611 31.6016C205.24 31.1979 204.739 30.9961 204.107 30.9961ZM204.527 40.1953C202.77 40.1953 201.396 39.7103 200.406 38.7402C199.417 37.7702 198.922 36.3965 198.922 34.6191C198.922 32.7897 199.378 31.377 200.289 30.3809C201.207 29.3783 202.473 28.877 204.088 28.877C205.631 28.877 206.832 29.3164 207.691 30.1953C208.551 31.0742 208.98 32.2884 208.98 33.8379V35.2832H201.939C201.972 36.1296 202.223 36.7904 202.691 37.2656C203.16 37.7409 203.818 37.9785 204.664 37.9785C205.322 37.9785 205.943 37.9102 206.529 37.7734C207.115 37.6367 207.727 37.4186 208.365 37.1191V39.4238C207.844 39.6842 207.288 39.8763 206.695 40C206.103 40.1302 205.38 40.1953 204.527 40.1953ZM215.836 40.1953C212.438 40.1953 210.738 38.3301 210.738 34.5996C210.738 32.7441 211.201 31.3281 212.125 30.3516C213.049 29.3685 214.374 28.877 216.1 28.877C217.363 28.877 218.495 29.1243 219.498 29.6191L218.619 31.9238C218.15 31.735 217.714 31.582 217.311 31.4648C216.907 31.3411 216.503 31.2793 216.1 31.2793C214.55 31.2793 213.775 32.3796 213.775 34.5801C213.775 36.7155 214.55 37.7832 216.1 37.7832C216.673 37.7832 217.203 37.7083 217.691 37.5586C218.18 37.4023 218.668 37.1615 219.156 36.8359V39.3848C218.674 39.6908 218.186 39.9023 217.691 40.0195C217.203 40.1367 216.585 40.1953 215.836 40.1953ZM226.295 37.8223C226.816 37.8223 227.441 37.7083 228.17 37.4805V39.6973C227.428 40.0293 226.516 40.1953 225.436 40.1953C224.244 40.1953 223.375 39.8958 222.828 39.2969C222.288 38.6914 222.018 37.7865 222.018 36.582V31.3184H220.592V30.0586L222.232 29.0625L223.092 26.7578H224.996V29.082H228.053V31.3184H224.996V36.582C224.996 37.0052 225.113 37.3177 225.348 37.5195C225.589 37.7214 225.904 37.8223 226.295 37.8223ZM242.516 40L241.939 38.5156H241.861C241.36 39.1471 240.842 39.5866 240.309 39.834C239.781 40.0749 239.091 40.1953 238.238 40.1953C237.19 40.1953 236.363 39.8958 235.758 39.2969C235.159 38.6979 234.859 37.8451 234.859 36.7383C234.859 35.5794 235.263 34.7266 236.07 34.1797C236.884 33.6263 238.108 33.3203 239.742 33.2617L241.637 33.2031V32.7246C241.637 31.6178 241.07 31.0645 239.938 31.0645C239.065 31.0645 238.04 31.3281 236.861 31.8555L235.875 29.8438C237.132 29.1862 238.525 28.8574 240.055 28.8574C241.52 28.8574 242.643 29.1764 243.424 29.8145C244.205 30.4525 244.596 31.4225 244.596 32.7246V40H242.516ZM241.637 34.9414L240.484 34.9805C239.618 35.0065 238.974 35.1628 238.551 35.4492C238.128 35.7357 237.916 36.1719 237.916 36.7578C237.916 37.5977 238.398 38.0176 239.361 38.0176C240.051 38.0176 240.602 37.819 241.012 37.4219C241.428 37.0247 241.637 36.4974 241.637 35.8398V34.9414ZM256.129 32.0605H257.105C258.062 32.0605 258.769 31.901 259.225 31.582C259.68 31.263 259.908 30.7617 259.908 30.0781C259.908 29.401 259.674 28.9193 259.205 28.6328C258.743 28.3464 258.023 28.2031 257.047 28.2031H256.129V32.0605ZM256.129 34.5215V40H253.102V25.7227H257.262C259.202 25.7227 260.637 26.0775 261.568 26.7871C262.499 27.4902 262.965 28.5612 262.965 30C262.965 30.8398 262.734 31.5885 262.271 32.2461C261.809 32.8971 261.155 33.4082 260.309 33.7793C262.457 36.9889 263.857 39.0625 264.508 40H261.148L257.74 34.5215H256.129ZM268.443 34.5215C268.443 35.6022 268.619 36.4193 268.971 36.9727C269.329 37.526 269.908 37.8027 270.709 37.8027C271.503 37.8027 272.073 37.5293 272.418 36.9824C272.77 36.429 272.945 35.6087 272.945 34.5215C272.945 33.4408 272.77 32.6302 272.418 32.0898C272.066 31.5495 271.49 31.2793 270.689 31.2793C269.895 31.2793 269.322 31.5495 268.971 32.0898C268.619 32.6237 268.443 33.4342 268.443 34.5215ZM275.992 34.5215C275.992 36.2988 275.523 37.6888 274.586 38.6914C273.648 39.694 272.343 40.1953 270.67 40.1953C269.622 40.1953 268.697 39.9674 267.896 39.5117C267.096 39.0495 266.48 38.3887 266.051 37.5293C265.621 36.6699 265.406 35.6673 265.406 34.5215C265.406 32.7376 265.872 31.3509 266.803 30.3613C267.734 29.3717 269.042 28.877 270.729 28.877C271.777 28.877 272.701 29.1048 273.502 29.5605C274.303 30.0163 274.918 30.6706 275.348 31.5234C275.777 32.3763 275.992 33.3757 275.992 34.5215ZM280.826 34.5215C280.826 35.6022 281.002 36.4193 281.354 36.9727C281.712 37.526 282.291 37.8027 283.092 37.8027C283.886 37.8027 284.456 37.5293 284.801 36.9824C285.152 36.429 285.328 35.6087 285.328 34.5215C285.328 33.4408 285.152 32.6302 284.801 32.0898C284.449 31.5495 283.873 31.2793 283.072 31.2793C282.278 31.2793 281.705 31.5495 281.354 32.0898C281.002 32.6237 280.826 33.4342 280.826 34.5215ZM288.375 34.5215C288.375 36.2988 287.906 37.6888 286.969 38.6914C286.031 39.694 284.726 40.1953 283.053 40.1953C282.005 40.1953 281.08 39.9674 280.279 39.5117C279.479 39.0495 278.863 38.3887 278.434 37.5293C278.004 36.6699 277.789 35.6673 277.789 34.5215C277.789 32.7376 278.255 31.3509 279.186 30.3613C280.117 29.3717 281.425 28.877 283.111 28.877C284.16 28.877 285.084 29.1048 285.885 29.5605C286.686 30.0163 287.301 30.6706 287.73 31.5234C288.16 32.3763 288.375 33.3757 288.375 34.5215ZM300.611 40H297.633V33.623C297.633 32.8353 297.499 32.2461 297.232 31.8555C296.972 31.4583 296.559 31.2598 295.992 31.2598C295.23 31.2598 294.677 31.5397 294.332 32.0996C293.987 32.6595 293.814 33.5807 293.814 34.8633V40H290.836V29.082H293.111L293.512 30.4785H293.678C293.971 29.9772 294.394 29.5866 294.947 29.3066C295.501 29.0202 296.135 28.877 296.852 28.877C298.486 28.877 299.592 29.4108 300.172 30.4785H300.436C300.729 29.9707 301.158 29.5768 301.725 29.2969C302.298 29.0169 302.942 28.877 303.658 28.877C304.895 28.877 305.829 29.196 306.461 29.834C307.099 30.4655 307.418 31.4811 307.418 32.8809V40H304.43V33.623C304.43 32.8353 304.296 32.2461 304.029 31.8555C303.769 31.4583 303.355 31.2598 302.789 31.2598C302.06 31.2598 301.513 31.5202 301.148 32.041C300.79 32.5618 300.611 33.3887 300.611 34.5215V40Z" fill="#31344E"/>
<path d="M459.29 24.0987C460.227 23.1616 460.227 21.6399 459.29 20.7028C458.353 19.7657 456.831 19.7657 455.894 20.7028L448 28.6041L440.099 20.7103C439.162 19.7732 437.64 19.7732 436.703 20.7103C435.766 21.6474 435.766 23.1691 436.703 24.1062L444.604 32L436.71 39.9013C435.773 40.8384 435.773 42.3601 436.71 43.2972C437.647 44.2343 439.169 44.2343 440.106 43.2972L448 35.3959L455.901 43.2897C456.838 44.2268 458.36 44.2268 459.297 43.2897C460.234 42.3526 460.234 40.8309 459.297 39.8938L451.396 32L459.29 24.0987Z" fill="#1A1040"/>
<g filter="url(#filter0_d_3926_12665)">
<rect x="16" y="80" width="219" height="64" rx="5" fill="white" shape-rendering="crispEdges"/>
<rect x="17.5" y="81.5" width="216" height="61" rx="3.5" stroke="#1A1040" stroke-width="3" shape-rendering="crispEdges"/>
<path d="M120.068 115.837H118.521V118.5H115.867V115.837H110.383V113.947L116.017 105.65H118.521V113.728H120.068V115.837ZM115.867 113.728V111.548C115.867 111.185 115.882 110.657 115.911 109.966C115.94 109.274 115.964 108.873 115.981 108.762H115.911C115.694 109.242 115.434 109.711 115.129 110.168L112.773 113.728H115.867ZM129.991 112.075C129.991 114.319 129.622 115.98 128.884 117.059C128.151 118.137 127.021 118.676 125.491 118.676C124.009 118.676 122.89 118.119 122.134 117.006C121.384 115.893 121.009 114.249 121.009 112.075C121.009 109.808 121.375 108.138 122.107 107.065C122.84 105.987 123.968 105.448 125.491 105.448C126.974 105.448 128.093 106.011 128.849 107.136C129.61 108.261 129.991 109.907 129.991 112.075ZM123.707 112.075C123.707 113.651 123.842 114.782 124.111 115.468C124.387 116.147 124.847 116.487 125.491 116.487C126.124 116.487 126.581 116.142 126.862 115.45C127.144 114.759 127.284 113.634 127.284 112.075C127.284 110.499 127.141 109.368 126.854 108.683C126.572 107.991 126.118 107.646 125.491 107.646C124.853 107.646 124.396 107.991 124.12 108.683C123.845 109.368 123.707 110.499 123.707 112.075ZM140.274 112.075C140.274 114.319 139.905 115.98 139.167 117.059C138.435 118.137 137.304 118.676 135.774 118.676C134.292 118.676 133.173 118.119 132.417 117.006C131.667 115.893 131.292 114.249 131.292 112.075C131.292 109.808 131.658 108.138 132.391 107.065C133.123 105.987 134.251 105.448 135.774 105.448C137.257 105.448 138.376 106.011 139.132 107.136C139.894 108.261 140.274 109.907 140.274 112.075ZM133.99 112.075C133.99 113.651 134.125 114.782 134.395 115.468C134.67 116.147 135.13 116.487 135.774 116.487C136.407 116.487 136.864 116.142 137.146 115.45C137.427 114.759 137.567 113.634 137.567 112.075C137.567 110.499 137.424 109.368 137.137 108.683C136.855 107.991 136.401 107.646 135.774 107.646C135.136 107.646 134.679 107.991 134.403 108.683C134.128 109.368 133.99 110.499 133.99 112.075Z" fill="#31344E"/>
</g>
<g filter="url(#filter1_d_3926_12665)">
<rect x="245" y="80" width="219" height="64" rx="5" fill="white" shape-rendering="crispEdges"/>
<rect x="246.5" y="81.5" width="216" height="61" rx="3.5" stroke="#1A1040" stroke-width="3" shape-rendering="crispEdges"/>
<path d="M349.068 115.837H347.521V118.5H344.867V115.837H339.383V113.947L345.017 105.65H347.521V113.728H349.068V115.837ZM344.867 113.728V111.548C344.867 111.185 344.882 110.657 344.911 109.966C344.94 109.274 344.964 108.873 344.981 108.762H344.911C344.694 109.242 344.434 109.711 344.129 110.168L341.773 113.728H344.867ZM358.991 112.075C358.991 114.319 358.622 115.98 357.884 117.059C357.151 118.137 356.021 118.676 354.491 118.676C353.009 118.676 351.89 118.119 351.134 117.006C350.384 115.893 350.009 114.249 350.009 112.075C350.009 109.808 350.375 108.138 351.107 107.065C351.84 105.987 352.968 105.448 354.491 105.448C355.974 105.448 357.093 106.011 357.849 107.136C358.61 108.261 358.991 109.907 358.991 112.075ZM352.707 112.075C352.707 113.651 352.842 114.782 353.111 115.468C353.387 116.147 353.847 116.487 354.491 116.487C355.124 116.487 355.581 116.142 355.862 115.45C356.144 114.759 356.284 113.634 356.284 112.075C356.284 110.499 356.141 109.368 355.854 108.683C355.572 107.991 355.118 107.646 354.491 107.646C353.853 107.646 353.396 107.991 353.12 108.683C352.845 109.368 352.707 110.499 352.707 112.075ZM367.077 118.5H364.361V111.064L364.388 109.843L364.432 108.507C363.98 108.958 363.667 109.254 363.491 109.395L362.015 110.581L360.705 108.946L364.845 105.65H367.077V118.5Z" fill="#1A1040"/>
</g>
<g filter="url(#filter2_d_3926_12665)">
<rect x="16" y="154" width="219" height="64" rx="5" fill="white" shape-rendering="crispEdges"/>
<rect x="17.5" y="155.5" width="216" height="61" rx="3.5" stroke="#1A1040" stroke-width="3" shape-rendering="crispEdges"/>
<path d="M120.068 189.837H118.521V192.5H115.867V189.837H110.383V187.947L116.017 179.65H118.521V187.728H120.068V189.837ZM115.867 187.728V185.548C115.867 185.185 115.882 184.657 115.911 183.966C115.94 183.274 115.964 182.873 115.981 182.762H115.911C115.694 183.242 115.434 183.711 115.129 184.168L112.773 187.728H115.867ZM129.991 186.075C129.991 188.319 129.622 189.98 128.884 191.059C128.151 192.137 127.021 192.676 125.491 192.676C124.009 192.676 122.89 192.119 122.134 191.006C121.384 189.893 121.009 188.249 121.009 186.075C121.009 183.808 121.375 182.138 122.107 181.065C122.84 179.987 123.968 179.448 125.491 179.448C126.974 179.448 128.093 180.011 128.849 181.136C129.61 182.261 129.991 183.907 129.991 186.075ZM123.707 186.075C123.707 187.651 123.842 188.782 124.111 189.468C124.387 190.147 124.847 190.487 125.491 190.487C126.124 190.487 126.581 190.142 126.862 189.45C127.144 188.759 127.284 187.634 127.284 186.075C127.284 184.499 127.141 183.368 126.854 182.683C126.572 181.991 126.118 181.646 125.491 181.646C124.853 181.646 124.396 181.991 124.12 182.683C123.845 183.368 123.707 184.499 123.707 186.075ZM140.345 192.5H131.362V190.61L134.588 187.35C135.543 186.371 136.167 185.694 136.46 185.319C136.753 184.938 136.964 184.587 137.093 184.265C137.222 183.942 137.286 183.608 137.286 183.263C137.286 182.747 137.143 182.363 136.855 182.111C136.574 181.859 136.196 181.733 135.722 181.733C135.224 181.733 134.74 181.848 134.271 182.076C133.803 182.305 133.313 182.63 132.804 183.052L131.327 181.303C131.96 180.764 132.484 180.383 132.9 180.16C133.316 179.938 133.771 179.768 134.263 179.65C134.755 179.527 135.306 179.466 135.915 179.466C136.718 179.466 137.427 179.612 138.042 179.905C138.657 180.198 139.135 180.608 139.475 181.136C139.814 181.663 139.984 182.267 139.984 182.946C139.984 183.538 139.879 184.095 139.668 184.616C139.463 185.132 139.141 185.662 138.701 186.207C138.268 186.752 137.5 187.528 136.398 188.536L134.746 190.092V190.215H140.345V192.5Z" fill="#31344E"/>
</g>
<g filter="url(#filter3_d_3926_12665)">
<rect x="245" y="154" width="219" height="64" rx="5" fill="white" shape-rendering="crispEdges"/>
<rect x="246.5" y="155.5" width="216" height="61" rx="3.5" stroke="#1A1040" stroke-width="3" shape-rendering="crispEdges"/>
<path d="M349.068 189.837H347.521V192.5H344.867V189.837H339.383V187.947L345.017 179.65H347.521V187.728H349.068V189.837ZM344.867 187.728V185.548C344.867 185.185 344.882 184.657 344.911 183.966C344.94 183.274 344.964 182.873 344.981 182.762H344.911C344.694 183.242 344.434 183.711 344.129 184.168L341.773 187.728H344.867ZM358.991 186.075C358.991 188.319 358.622 189.98 357.884 191.059C357.151 192.137 356.021 192.676 354.491 192.676C353.009 192.676 351.89 192.119 351.134 191.006C350.384 189.893 350.009 188.249 350.009 186.075C350.009 183.808 350.375 182.138 351.107 181.065C351.84 179.987 352.968 179.448 354.491 179.448C355.974 179.448 357.093 180.011 357.849 181.136C358.61 182.261 358.991 183.907 358.991 186.075ZM352.707 186.075C352.707 187.651 352.842 188.782 353.111 189.468C353.387 190.147 353.847 190.487 354.491 190.487C355.124 190.487 355.581 190.142 355.862 189.45C356.144 188.759 356.284 187.634 356.284 186.075C356.284 184.499 356.141 183.368 355.854 182.683C355.572 181.991 355.118 181.646 354.491 181.646C353.853 181.646 353.396 181.991 353.12 182.683C352.845 183.368 352.707 184.499 352.707 186.075ZM368.844 182.524C368.844 183.327 368.601 184.01 368.114 184.572C367.628 185.135 366.945 185.521 366.066 185.732V185.785C367.104 185.914 367.889 186.23 368.422 186.734C368.955 187.232 369.222 187.906 369.222 188.756C369.222 189.992 368.773 190.956 367.877 191.647C366.98 192.333 365.7 192.676 364.036 192.676C362.642 192.676 361.405 192.444 360.327 191.981V189.67C360.825 189.922 361.373 190.127 361.971 190.285C362.568 190.443 363.16 190.522 363.746 190.522C364.643 190.522 365.305 190.37 365.732 190.065C366.16 189.761 366.374 189.271 366.374 188.598C366.374 187.994 366.128 187.566 365.636 187.314C365.144 187.062 364.358 186.937 363.28 186.937H362.305V184.854H363.298C364.294 184.854 365.021 184.725 365.478 184.467C365.94 184.203 366.172 183.755 366.172 183.122C366.172 182.149 365.562 181.663 364.344 181.663C363.922 181.663 363.491 181.733 363.052 181.874C362.618 182.015 362.135 182.258 361.602 182.604L360.345 180.731C361.517 179.888 362.914 179.466 364.537 179.466C365.867 179.466 366.916 179.735 367.684 180.274C368.457 180.813 368.844 181.563 368.844 182.524Z" fill="#1A1040"/>
</g>
<g filter="url(#filter4_d_3926_12665)">
<rect x="16" y="228" width="219" height="64" rx="5" fill="white" shape-rendering="crispEdges"/>
<rect x="17.5" y="229.5" width="216" height="61" rx="3.5" stroke="#1A1040" stroke-width="3" shape-rendering="crispEdges"/>
<path d="M120.068 263.837H118.521V266.5H115.867V263.837H110.383V261.947L116.017 253.65H118.521V261.728H120.068V263.837ZM115.867 261.728V259.548C115.867 259.185 115.882 258.657 115.911 257.966C115.94 257.274 115.964 256.873 115.981 256.762H115.911C115.694 257.242 115.434 257.711 115.129 258.168L112.773 261.728H115.867ZM129.991 260.075C129.991 262.319 129.622 263.98 128.884 265.059C128.151 266.137 127.021 266.676 125.491 266.676C124.009 266.676 122.89 266.119 122.134 265.006C121.384 263.893 121.009 262.249 121.009 260.075C121.009 257.808 121.375 256.138 122.107 255.065C122.84 253.987 123.968 253.448 125.491 253.448C126.974 253.448 128.093 254.011 128.849 255.136C129.61 256.261 129.991 257.907 129.991 260.075ZM123.707 260.075C123.707 261.651 123.842 262.782 124.111 263.468C124.387 264.147 124.847 264.487 125.491 264.487C126.124 264.487 126.581 264.142 126.862 263.45C127.144 262.759 127.284 261.634 127.284 260.075C127.284 258.499 127.141 257.368 126.854 256.683C126.572 255.991 126.118 255.646 125.491 255.646C124.853 255.646 124.396 255.991 124.12 256.683C123.845 257.368 123.707 258.499 123.707 260.075ZM140.635 263.837H139.088V266.5H136.434V263.837H130.949V261.947L136.583 253.65H139.088V261.728H140.635V263.837ZM136.434 261.728V259.548C136.434 259.185 136.448 258.657 136.478 257.966C136.507 257.274 136.53 256.873 136.548 256.762H136.478C136.261 257.242 136 257.711 135.695 258.168L133.34 261.728H136.434Z" fill="#31344E"/>
</g>
<g filter="url(#filter5_d_3926_12665)">
<rect x="245" y="228" width="219" height="64" rx="5" fill="white" shape-rendering="crispEdges"/>
<rect x="246.5" y="229.5" width="216" height="61" rx="3.5" stroke="#1A1040" stroke-width="3" shape-rendering="crispEdges"/>
<path d="M349.068 263.837H347.521V266.5H344.867V263.837H339.383V261.947L345.017 253.65H347.521V261.728H349.068V263.837ZM344.867 261.728V259.548C344.867 259.185 344.882 258.657 344.911 257.966C344.94 257.274 344.964 256.873 344.981 256.762H344.911C344.694 257.242 344.434 257.711 344.129 258.168L341.773 261.728H344.867ZM358.991 260.075C358.991 262.319 358.622 263.98 357.884 265.059C357.151 266.137 356.021 266.676 354.491 266.676C353.009 266.676 351.89 266.119 351.134 265.006C350.384 263.893 350.009 262.249 350.009 260.075C350.009 257.808 350.375 256.138 351.107 255.065C351.84 253.987 352.968 253.448 354.491 253.448C355.974 253.448 357.093 254.011 357.849 255.136C358.61 256.261 358.991 257.907 358.991 260.075ZM352.707 260.075C352.707 261.651 352.842 262.782 353.111 263.468C353.387 264.147 353.847 264.487 354.491 264.487C355.124 264.487 355.581 264.142 355.862 263.45C356.144 262.759 356.284 261.634 356.284 260.075C356.284 258.499 356.141 257.368 355.854 256.683C355.572 255.991 355.118 255.646 354.491 255.646C353.853 255.646 353.396 255.991 353.12 256.683C352.845 257.368 352.707 258.499 352.707 260.075ZM365.038 258.291C366.28 258.291 367.268 258.64 368 259.337C368.738 260.034 369.107 260.989 369.107 262.202C369.107 263.638 368.665 264.742 367.78 265.516C366.896 266.289 365.63 266.676 363.983 266.676C362.554 266.676 361.399 266.444 360.521 265.981V263.635C360.983 263.881 361.522 264.083 362.138 264.241C362.753 264.394 363.336 264.47 363.887 264.47C365.545 264.47 366.374 263.79 366.374 262.431C366.374 261.136 365.516 260.488 363.799 260.488C363.488 260.488 363.146 260.521 362.771 260.585C362.396 260.644 362.091 260.708 361.856 260.778L360.775 260.198L361.259 253.65H368.229V255.953H363.641L363.403 258.476L363.711 258.414C364.068 258.332 364.511 258.291 365.038 258.291Z" fill="#1A1040"/>
</g>
<path d="M207.551 346.271H205.492V333.102C205.492 332.602 205.492 332.174 205.492 331.818C205.5 331.453 205.508 331.123 205.517 330.826C205.534 330.521 205.555 330.212 205.581 329.898C205.318 330.169 205.072 330.402 204.843 330.597C204.614 330.784 204.331 331.017 203.992 331.296L201.869 333L200.763 331.563L205.797 327.686H207.551V346.271ZM234.309 339.279C234.309 340.424 234.161 341.445 233.864 342.343C233.568 343.241 233.14 344 232.581 344.618C232.021 345.237 231.343 345.712 230.547 346.042C229.758 346.364 228.864 346.525 227.864 346.525C226.932 346.525 226.076 346.364 225.297 346.042C224.525 345.712 223.856 345.237 223.288 344.618C222.729 344 222.292 343.241 221.979 342.343C221.674 341.445 221.521 340.424 221.521 339.279C221.521 337.754 221.78 336.457 222.297 335.39C222.814 334.313 223.551 333.496 224.508 332.936C225.475 332.368 226.623 332.085 227.953 332.085C229.225 332.085 230.335 332.368 231.284 332.936C232.242 333.504 232.983 334.326 233.508 335.402C234.042 336.47 234.309 337.763 234.309 339.279ZM223.708 339.279C223.708 340.398 223.856 341.368 224.153 342.19C224.449 343.013 224.907 343.648 225.525 344.097C226.144 344.546 226.941 344.771 227.915 344.771C228.881 344.771 229.674 344.546 230.292 344.097C230.92 343.648 231.381 343.013 231.678 342.19C231.975 341.368 232.123 340.398 232.123 339.279C232.123 338.169 231.975 337.212 231.678 336.407C231.381 335.593 230.924 334.966 230.305 334.525C229.686 334.085 228.886 333.864 227.903 333.864C226.453 333.864 225.39 334.343 224.712 335.301C224.042 336.258 223.708 337.585 223.708 339.279ZM244.161 333.991H240.691V346.271H238.581V333.991H236.114V332.974L238.581 332.275V331.347C238.581 330.178 238.754 329.229 239.102 328.5C239.449 327.763 239.953 327.22 240.614 326.873C241.275 326.525 242.081 326.352 243.03 326.352C243.564 326.352 244.051 326.398 244.492 326.491C244.941 326.585 245.335 326.69 245.674 326.809L245.127 328.474C244.839 328.381 244.513 328.296 244.148 328.22C243.792 328.135 243.428 328.093 243.055 328.093C242.25 328.093 241.653 328.356 241.263 328.881C240.881 329.398 240.691 330.212 240.691 331.322V332.339H244.161V333.991ZM260.407 346.271H258.347V333.102C258.347 332.602 258.347 332.174 258.347 331.818C258.356 331.453 258.364 331.123 258.373 330.826C258.39 330.521 258.411 330.212 258.436 329.898C258.174 330.169 257.928 330.402 257.699 330.597C257.47 330.784 257.186 331.017 256.847 331.296L254.725 333L253.619 331.563L258.653 327.686H260.407V346.271ZM279.729 336.953C279.729 338.462 279.614 339.809 279.386 340.996C279.157 342.182 278.797 343.186 278.305 344.008C277.814 344.83 277.178 345.457 276.398 345.89C275.619 346.313 274.682 346.525 273.589 346.525C272.208 346.525 271.064 346.148 270.157 345.394C269.258 344.64 268.585 343.551 268.136 342.127C267.695 340.695 267.475 338.97 267.475 336.953C267.475 334.97 267.674 333.267 268.072 331.843C268.479 330.411 269.131 329.313 270.03 328.551C270.928 327.779 272.114 327.394 273.589 327.394C274.987 327.394 276.14 327.775 277.047 328.538C277.953 329.292 278.627 330.385 279.068 331.818C279.508 333.241 279.729 334.953 279.729 336.953ZM269.597 336.953C269.597 338.682 269.729 340.123 269.992 341.275C270.254 342.428 270.678 343.292 271.263 343.868C271.856 344.436 272.631 344.72 273.589 344.72C274.547 344.72 275.318 344.436 275.903 343.868C276.496 343.301 276.924 342.44 277.186 341.288C277.458 340.135 277.593 338.69 277.593 336.953C277.593 335.25 277.462 333.826 277.199 332.682C276.936 331.529 276.513 330.665 275.928 330.089C275.343 329.504 274.564 329.212 273.589 329.212C272.614 329.212 271.835 329.504 271.25 330.089C270.665 330.665 270.242 331.529 269.979 332.682C269.725 333.826 269.597 335.25 269.597 336.953Z" fill="#787B91"/>
<g opacity="0.6">
<path d="M94.1018 307.424C94.1018 304.428 96.5301 302 99.5255 302H160.271C163.267 302 165.695 304.428 165.695 307.424V366C165.695 368.995 163.267 371.424 160.271 371.424H99.5255C96.5301 371.424 94.1018 368.995 94.1018 366V307.424Z" fill="#1A1040"/>
<path d="M122.941 338.004C122.093 337.14 122.093 335.735 122.941 334.87L133.786 323.801C134.633 322.937 136.009 322.937 136.856 323.801C137.704 324.666 137.704 326.07 136.856 326.935L127.543 336.441L136.849 345.946C137.697 346.811 137.697 348.216 136.849 349.08C136.002 349.945 134.626 349.945 133.779 349.08L122.934 338.011L122.941 338.004Z" fill="white"/>
</g>
<path d="M385.898 307.424C385.898 304.428 383.47 302 380.475 302H319.729C316.733 302 314.305 304.428 314.305 307.424V366C314.305 368.995 316.733 371.424 319.729 371.424H380.475C383.47 371.424 385.898 368.995 385.898 366V307.424Z" fill="#1A1040"/>
<path d="M357.06 338.004C357.907 337.14 357.907 335.735 357.06 334.87L346.214 323.801C345.367 322.937 343.991 322.937 343.144 323.801C342.297 324.666 342.297 326.07 343.144 326.935L352.457 336.441L343.151 345.946C342.304 346.811 342.304 348.216 343.151 349.08C343.998 349.945 345.374 349.945 346.221 349.08L357.066 338.011L357.06 338.004Z" fill="white"/>
<g opacity="0.6">
<path d="M16 307.424C16 304.428 18.4283 302 21.4237 302H82.1695C85.1649 302 87.5932 304.428 87.5932 307.424V366C87.5932 368.995 85.1649 371.424 82.1695 371.424H21.4237C18.4283 371.424 16 368.995 16 366V307.424Z" fill="#1A1040"/>
<path d="M37.2455 335.18C36.3983 336.028 36.3983 337.403 37.2455 338.25L48.0887 349.094C48.9358 349.941 50.3115 349.941 51.1587 349.094C52.0058 348.247 52.0058 346.871 51.1587 346.024L41.847 336.712L51.1519 327.4C51.999 326.553 51.999 325.178 51.1519 324.33C50.3048 323.483 48.929 323.483 48.0819 324.33L37.2387 335.174L37.2455 335.18ZM63.2692 324.337L52.426 335.18C51.5788 336.028 51.5788 337.403 52.426 338.25L63.2692 349.094C64.1163 349.941 65.492 349.941 66.3392 349.094C67.1863 348.247 67.1863 346.871 66.3392 346.024L57.0276 336.712L66.3324 327.4C67.1795 326.553 67.1795 325.178 66.3324 324.33C65.4853 323.483 64.1095 323.483 63.2624 324.33L63.2692 324.337Z" fill="white"/>
</g>
<path d="M464 366C464 368.996 461.572 371.424 458.576 371.424L397.83 371.424C394.835 371.424 392.407 368.996 392.407 366L392.407 307.424C392.407 304.428 394.835 302 397.831 302L458.576 302C461.572 302 464 304.428 464 307.424L464 366Z" fill="#1A1040"/>
<path d="M442.755 338.243C443.602 337.396 443.602 336.021 442.755 335.173L431.911 324.33C431.064 323.483 429.688 323.483 428.841 324.33C427.994 325.177 427.994 326.553 428.841 327.4L438.153 336.712L428.848 346.023C428.001 346.871 428.001 348.246 428.848 349.093C429.695 349.941 431.071 349.941 431.918 349.093L442.761 338.25L442.755 338.243ZM416.731 349.087L427.574 338.243C428.421 337.396 428.421 336.021 427.574 335.173L416.731 324.33C415.884 323.483 414.508 323.483 413.661 324.33C412.814 325.177 412.814 326.553 413.661 327.4L422.972 336.712L413.668 346.023C412.82 346.871 412.82 348.246 413.668 349.093C414.515 349.941 415.89 349.941 416.738 349.093L416.731 349.087Z" fill="white"/>
<g filter="url(#filter6_d_3926_12665)">
<rect x="16" y="384" width="216" height="80" rx="5" fill="white" shape-rendering="crispEdges"/>
<rect x="17.5" y="385.5" width="213" height="77" rx="3.5" stroke="#1A1040" stroke-width="3" shape-rendering="crispEdges"/>
<path d="M97.2227 416.367H102.555C104.836 416.367 106.562 416.688 107.734 417.328C108.906 417.969 109.492 419.094 109.492 420.703C109.492 421.352 109.387 421.938 109.176 422.461C108.973 422.984 108.676 423.414 108.285 423.75C107.895 424.086 107.418 424.305 106.855 424.406V424.523C107.426 424.641 107.941 424.844 108.402 425.133C108.863 425.414 109.23 425.828 109.504 426.375C109.785 426.914 109.926 427.633 109.926 428.531C109.926 429.57 109.672 430.461 109.164 431.203C108.656 431.945 107.93 432.516 106.984 432.914C106.047 433.305 104.93 433.5 103.633 433.5H97.2227V416.367ZM100.855 423.152H102.965C104.02 423.152 104.75 422.988 105.156 422.66C105.562 422.324 105.766 421.832 105.766 421.184C105.766 420.527 105.523 420.059 105.039 419.777C104.562 419.488 103.805 419.344 102.766 419.344H100.855V423.152ZM100.855 426.035V430.5H103.223C104.316 430.5 105.078 430.289 105.508 429.867C105.938 429.445 106.152 428.879 106.152 428.168C106.152 427.746 106.059 427.375 105.871 427.055C105.684 426.734 105.367 426.484 104.922 426.305C104.484 426.125 103.879 426.035 103.105 426.035H100.855ZM118.434 420.129C120.191 420.129 121.539 420.512 122.477 421.277C123.414 422.043 123.883 423.207 123.883 424.77V433.5H121.387L120.695 431.719H120.602C120.227 432.188 119.844 432.57 119.453 432.867C119.062 433.164 118.613 433.383 118.105 433.523C117.598 433.664 116.98 433.734 116.254 433.734C115.48 433.734 114.785 433.586 114.168 433.289C113.559 432.992 113.078 432.539 112.727 431.93C112.375 431.312 112.199 430.531 112.199 429.586C112.199 428.195 112.688 427.172 113.664 426.516C114.641 425.852 116.105 425.484 118.059 425.414L120.332 425.344V424.77C120.332 424.082 120.152 423.578 119.793 423.258C119.434 422.938 118.934 422.777 118.293 422.777C117.66 422.777 117.039 422.867 116.43 423.047C115.82 423.227 115.211 423.453 114.602 423.727L113.418 421.312C114.113 420.945 114.891 420.656 115.75 420.445C116.617 420.234 117.512 420.129 118.434 420.129ZM120.332 427.43L118.949 427.477C117.793 427.508 116.988 427.715 116.535 428.098C116.09 428.48 115.867 428.984 115.867 429.609C115.867 430.156 116.027 430.547 116.348 430.781C116.668 431.008 117.086 431.121 117.602 431.121C118.367 431.121 119.012 430.895 119.535 430.441C120.066 429.988 120.332 429.344 120.332 428.508V427.43ZM132.895 433.734C131.598 433.734 130.492 433.5 129.578 433.031C128.664 432.555 127.969 431.82 127.492 430.828C127.016 429.836 126.777 428.566 126.777 427.02C126.777 425.418 127.047 424.113 127.586 423.105C128.133 422.09 128.887 421.344 129.848 420.867C130.816 420.391 131.938 420.152 133.211 420.152C134.117 420.152 134.898 420.242 135.555 420.422C136.219 420.594 136.797 420.801 137.289 421.043L136.234 423.809C135.672 423.582 135.148 423.398 134.664 423.258C134.18 423.109 133.695 423.035 133.211 423.035C132.586 423.035 132.066 423.184 131.652 423.48C131.238 423.77 130.93 424.207 130.727 424.793C130.523 425.379 130.422 426.113 130.422 426.996C130.422 427.863 130.531 428.582 130.75 429.152C130.969 429.723 131.285 430.148 131.699 430.43C132.113 430.703 132.617 430.84 133.211 430.84C133.953 430.84 134.613 430.742 135.191 430.547C135.77 430.344 136.332 430.062 136.879 429.703V432.762C136.332 433.105 135.758 433.352 135.156 433.5C134.562 433.656 133.809 433.734 132.895 433.734ZM143.5 415.266V423.422C143.5 423.914 143.48 424.406 143.441 424.898C143.402 425.391 143.359 425.883 143.312 426.375H143.359C143.602 426.031 143.848 425.691 144.098 425.355C144.355 425.02 144.629 424.695 144.918 424.383L148.586 420.398H152.617L147.414 426.082L152.934 433.5H148.809L145.035 428.191L143.5 429.422V433.5H139.926V415.266H143.5Z" fill="#1A1040"/>
</g>
<g opacity="0.6" filter="url(#filter7_d_3926_12665)">
<rect x="248" y="384" width="216" height="80" rx="5" fill="#1A1040" shape-rendering="crispEdges"/>
<path d="M344.352 433.5H339.734L332.281 420.539H332.176C332.207 421.078 332.234 421.621 332.258 422.168C332.281 422.715 332.305 423.262 332.328 423.809C332.352 424.348 332.375 424.891 332.398 425.438V433.5H329.152V416.367H333.734L341.176 429.199H341.258C341.242 428.668 341.223 428.141 341.199 427.617C341.176 427.094 341.152 426.57 341.129 426.047C341.113 425.523 341.098 425 341.082 424.477V416.367H344.352V433.5ZM353.797 420.152C355.008 420.152 356.051 420.387 356.926 420.855C357.801 421.316 358.477 421.988 358.953 422.871C359.43 423.754 359.668 424.832 359.668 426.105V427.84H351.219C351.258 428.848 351.559 429.641 352.121 430.219C352.691 430.789 353.48 431.074 354.488 431.074C355.324 431.074 356.09 430.988 356.785 430.816C357.48 430.645 358.195 430.387 358.93 430.043V432.809C358.281 433.129 357.602 433.363 356.891 433.512C356.188 433.66 355.332 433.734 354.324 433.734C353.012 433.734 351.848 433.492 350.832 433.008C349.824 432.523 349.031 431.785 348.453 430.793C347.883 429.801 347.598 428.551 347.598 427.043C347.598 425.512 347.855 424.238 348.371 423.223C348.895 422.199 349.621 421.434 350.551 420.926C351.48 420.41 352.562 420.152 353.797 420.152ZM353.82 422.695C353.125 422.695 352.547 422.918 352.086 423.363C351.633 423.809 351.371 424.508 351.301 425.461H356.316C356.309 424.93 356.211 424.457 356.023 424.043C355.844 423.629 355.57 423.301 355.203 423.059C354.844 422.816 354.383 422.695 353.82 422.695ZM365.258 426.809L361.039 420.398H365.094L367.637 424.57L370.203 420.398H374.258L369.992 426.809L374.457 433.5H370.391L367.637 429.012L364.871 433.5H360.816L365.258 426.809ZM381.969 430.887C382.359 430.887 382.738 430.848 383.105 430.77C383.48 430.691 383.852 430.594 384.219 430.477V433.137C383.836 433.309 383.359 433.449 382.789 433.559C382.227 433.676 381.609 433.734 380.938 433.734C380.156 433.734 379.453 433.609 378.828 433.359C378.211 433.102 377.723 432.66 377.363 432.035C377.012 431.402 376.836 430.523 376.836 429.398V423.082H375.125V421.57L377.094 420.375L378.125 417.609H380.41V420.398H384.078V423.082H380.41V429.398C380.41 429.898 380.551 430.273 380.832 430.523C381.121 430.766 381.5 430.887 381.969 430.887Z" fill="white"/>
</g>
<defs>
<filter id="filter0_d_3926_12665" x="12" y="78" width="227" height="72" filterUnits="userSpaceOnUse" color-interpolation-filters="sRGB">
<feFlood flood-opacity="0" result="BackgroundImageFix"/>
<feColorMatrix in="SourceAlpha" type="matrix" values="0 0 0 0 0 0 0 0 0 0 0 0 0 0 0 0 0 0 127 0" result="hardAlpha"/>
<feOffset dy="2"/>
<feGaussianBlur stdDeviation="2"/>
<feComposite in2="hardAlpha" operator="out"/>
<feColorMatrix type="matrix" values="0 0 0 0 0 0 0 0 0 0 0 0 0 0 0 0 0 0 0.25 0"/>
<feBlend mode="normal" in2="BackgroundImageFix" result="effect1_dropShadow_3926_12665"/>
<feBlend mode="normal" in="SourceGraphic" in2="effect1_dropShadow_3926_12665" result="shape"/>
</filter>
<filter id="filter1_d_3926_12665" x="241" y="78" width="227" height="72" filterUnits="userSpaceOnUse" color-interpolation-filters="sRGB">
<feFlood flood-opacity="0" result="BackgroundImageFix"/>
<feColorMatrix in="SourceAlpha" type="matrix" values="0 0 0 0 0 0 0 0 0 0 0 0 0 0 0 0 0 0 127 0" result="hardAlpha"/>
<feOffset dy="2"/>
<feGaussianBlur stdDeviation="2"/>
<feComposite in2="hardAlpha" operator="out"/>
<feColorMatrix type="matrix" values="0 0 0 0 0 0 0 0 0 0 0 0 0 0 0 0 0 0 0.25 0"/>
<feBlend mode="normal" in2="BackgroundImageFix" result="effect1_dropShadow_3926_12665"/>
<feBlend mode="normal" in="SourceGraphic" in2="effect1_dropShadow_3926_12665" result="shape"/>
</filter>
<filter id="filter2_d_3926_12665" x="12" y="152" width="227" height="72" filterUnits="userSpaceOnUse" color-interpolation-filters="sRGB">
<feFlood flood-opacity="0" result="BackgroundImageFix"/>
<feColorMatrix in="SourceAlpha" type="matrix" values="0 0 0 0 0 0 0 0 0 0 0 0 0 0 0 0 0 0 127 0" result="hardAlpha"/>
<feOffset dy="2"/>
<feGaussianBlur stdDeviation="2"/>
<feComposite in2="hardAlpha" operator="out"/>
<feColorMatrix type="matrix" values="0 0 0 0 0 0 0 0 0 0 0 0 0 0 0 0 0 0 0.25 0"/>
<feBlend mode="normal" in2="BackgroundImageFix" result="effect1_dropShadow_3926_12665"/>
<feBlend mode="normal" in="SourceGraphic" in2="effect1_dropShadow_3926_12665" result="shape"/>
</filter>
<filter id="filter3_d_3926_12665" x="241" y="152" width="227" height="72" filterUnits="userSpaceOnUse" color-interpolation-filters="sRGB">
<feFlood flood-opacity="0" result="BackgroundImageFix"/>
<feColorMatrix in="SourceAlpha" type="matrix" values="0 0 0 0 0 0 0 0 0 0 0 0 0 0 0 0 0 0 127 0" result="hardAlpha"/>
<feOffset dy="2"/>
<feGaussianBlur stdDeviation="2"/>
<feComposite in2="hardAlpha" operator="out"/>
<feColorMatrix type="matrix" values="0 0 0 0 0 0 0 0 0 0 0 0 0 0 0 0 0 0 0.25 0"/>
<feBlend mode="normal" in2="BackgroundImageFix" result="effect1_dropShadow_3926_12665"/>
<feBlend mode="normal" in="SourceGraphic" in2="effect1_dropShadow_3926_12665" result="shape"/>
</filter>
<filter id="filter4_d_3926_12665" x="12" y="226" width="227" height="72" filterUnits="userSpaceOnUse" color-interpolation-filters="sRGB">
<feFlood flood-opacity="0" result="BackgroundImageFix"/>
<feColorMatrix in="SourceAlpha" type="matrix" values="0 0 0 0 0 0 0 0 0 0 0 0 0 0 0 0 0 0 127 0" result="hardAlpha"/>
<feOffset dy="2"/>
<feGaussianBlur stdDeviation="2"/>
<feComposite in2="hardAlpha" operator="out"/>
<feColorMatrix type="matrix" values="0 0 0 0 0 0 0 0 0 0 0 0 0 0 0 0 0 0 0.25 0"/>
<feBlend mode="normal" in2="BackgroundImageFix" result="effect1_dropShadow_3926_12665"/>
<feBlend mode="normal" in="SourceGraphic" in2="effect1_dropShadow_3926_12665" result="shape"/>
</filter>
<filter id="filter5_d_3926_12665" x="241" y="226" width="227" height="72" filterUnits="userSpaceOnUse" color-interpolation-filters="sRGB">
<feFlood flood-opacity="0" result="BackgroundImageFix"/>
<feColorMatrix in="SourceAlpha" type="matrix" values="0 0 0 0 0 0 0 0 0 0 0 0 0 0 0 0 0 0 127 0" result="hardAlpha"/>
<feOffset dy="2"/>
<feGaussianBlur stdDeviation="2"/>
<feComposite in2="hardAlpha" operator="out"/>
<feColorMatrix type="matrix" values="0 0 0 0 0 0 0 0 0 0 0 0 0 0 0 0 0 0 0.25 0"/>
<feBlend mode="normal" in2="BackgroundImageFix" result="effect1_dropShadow_3926_12665"/>
<feBlend mode="normal" in="SourceGraphic" in2="effect1_dropShadow_3926_12665" result="shape"/>
</filter>
<filter id="filter6_d_3926_12665" x="12" y="382" width="224" height="88" filterUnits="userSpaceOnUse" color-interpolation-filters="sRGB">
<feFlood flood-opacity="0" result="BackgroundImageFix"/>
<feColorMatrix in="SourceAlpha" type="matrix" values="0 0 0 0 0 0 0 0 0 0 0 0 0 0 0 0 0 0 127 0" result="hardAlpha"/>
<feOffset dy="2"/>
<feGaussianBlur stdDeviation="2"/>
<feComposite in2="hardAlpha" operator="out"/>
<feColorMatrix type="matrix" values="0 0 0 0 0 0 0 0 0 0 0 0 0 0 0 0 0 0 0.25 0"/>
<feBlend mode="normal" in2="BackgroundImageFix" result="effect1_dropShadow_3926_12665"/>
<feBlend mode="normal" in="SourceGraphic" in2="effect1_dropShadow_3926_12665" result="shape"/>
</filter>
<filter id="filter7_d_3926_12665" x="244" y="382" width="224" height="88" filterUnits="userSpaceOnUse" color-interpolation-filters="sRGB">
<feFlood flood-opacity="0" result="BackgroundImageFix"/>
<feColorMatrix in="SourceAlpha" type="matrix" values="0 0 0 0 0 0 0 0 0 0 0 0 0 0 0 0 0 0 127 0" result="hardAlpha"/>
<feOffset dy="2"/>
<feGaussianBlur stdDeviation="2"/>
<feComposite in2="hardAlpha" operator="out"/>
<feColorMatrix type="matrix" values="0 0 0 0 0 0 0 0 0 0 0 0 0 0 0 0 0 0 0.25 0"/>
<feBlend mode="normal" in2="BackgroundImageFix" result="effect1_dropShadow_3926_12665"/>
<feBlend mode="normal" in="SourceGraphic" in2="effect1_dropShadow_3926_12665" result="shape"/>
</filter>
</defs>
</svg>
