<svg width="480" height="480" viewBox="0 0 480 480" fill="none" xmlns="http://www.w3.org/2000/svg">
<rect width="480" height="480" fill="white"/>
<g filter="url(#filter0_d_3949_46231)">
<circle cx="240" cy="240" r="187" fill="#1A1040"/>
</g>
<path d="M178.184 229L176.113 222.203H165.703L163.633 229H157.109L167.188 200.328H174.59L184.707 229H178.184ZM174.668 217.125L172.598 210.484C172.467 210.042 172.292 209.475 172.07 208.785C171.862 208.082 171.647 207.372 171.426 206.656C171.217 205.927 171.048 205.296 170.918 204.762C170.788 205.296 170.605 205.96 170.371 206.754C170.15 207.535 169.935 208.277 169.727 208.98C169.518 209.684 169.368 210.185 169.277 210.484L167.227 217.125H174.668ZM196.719 229.391C194.557 229.391 192.715 229 191.191 228.219C189.668 227.424 188.509 226.201 187.715 224.547C186.921 222.893 186.523 220.777 186.523 218.199C186.523 215.53 186.973 213.355 187.871 211.676C188.783 209.983 190.039 208.74 191.641 207.945C193.255 207.151 195.124 206.754 197.246 206.754C198.757 206.754 200.059 206.904 201.152 207.203C202.259 207.49 203.223 207.835 204.043 208.238L202.285 212.848C201.348 212.47 200.475 212.164 199.668 211.93C198.861 211.682 198.053 211.559 197.246 211.559C196.204 211.559 195.339 211.806 194.648 212.301C193.958 212.783 193.444 213.512 193.105 214.488C192.767 215.465 192.598 216.689 192.598 218.16C192.598 219.605 192.78 220.803 193.145 221.754C193.509 222.704 194.036 223.414 194.727 223.883C195.417 224.339 196.257 224.566 197.246 224.566C198.483 224.566 199.583 224.404 200.547 224.078C201.51 223.74 202.448 223.271 203.359 222.672V227.77C202.448 228.342 201.491 228.753 200.488 229C199.499 229.26 198.242 229.391 196.719 229.391ZM217.637 224.645C218.288 224.645 218.919 224.579 219.531 224.449C220.156 224.319 220.775 224.156 221.387 223.961V228.395C220.749 228.681 219.954 228.915 219.004 229.098C218.066 229.293 217.038 229.391 215.918 229.391C214.616 229.391 213.444 229.182 212.402 228.766C211.374 228.336 210.56 227.6 209.961 226.559C209.375 225.504 209.082 224.039 209.082 222.164V211.637H206.23V209.117L209.512 207.125L211.23 202.516H215.039V207.164H221.152V211.637H215.039V222.164C215.039 222.997 215.273 223.622 215.742 224.039C216.224 224.443 216.855 224.645 217.637 224.645ZM231.777 207.164V229H225.82V207.164H231.777ZM228.809 198.609C229.694 198.609 230.456 198.818 231.094 199.234C231.732 199.638 232.051 200.4 232.051 201.52C232.051 202.626 231.732 203.395 231.094 203.824C230.456 204.241 229.694 204.449 228.809 204.449C227.91 204.449 227.142 204.241 226.504 203.824C225.879 203.395 225.566 202.626 225.566 201.52C225.566 200.4 225.879 199.638 226.504 199.234C227.142 198.818 227.91 198.609 228.809 198.609ZM243.242 229L234.922 207.164H241.152L245.371 219.605C245.605 220.335 245.788 221.103 245.918 221.91C246.061 222.717 246.159 223.44 246.211 224.078H246.367C246.406 223.388 246.497 222.652 246.641 221.871C246.797 221.09 246.999 220.335 247.246 219.605L251.445 207.164H257.676L249.355 229H243.242ZM269.766 206.715C272.695 206.715 274.941 207.353 276.504 208.629C278.066 209.905 278.848 211.845 278.848 214.449V229H274.688L273.535 226.031H273.379C272.754 226.812 272.116 227.451 271.465 227.945C270.814 228.44 270.065 228.805 269.219 229.039C268.372 229.273 267.344 229.391 266.133 229.391C264.844 229.391 263.685 229.143 262.656 228.648C261.641 228.154 260.84 227.398 260.254 226.383C259.668 225.354 259.375 224.052 259.375 222.477C259.375 220.159 260.189 218.453 261.816 217.359C263.444 216.253 265.885 215.641 269.141 215.523L272.93 215.406V214.449C272.93 213.303 272.63 212.464 272.031 211.93C271.432 211.396 270.599 211.129 269.531 211.129C268.477 211.129 267.441 211.279 266.426 211.578C265.41 211.878 264.395 212.255 263.379 212.711L261.406 208.688C262.565 208.076 263.861 207.594 265.293 207.242C266.738 206.891 268.229 206.715 269.766 206.715ZM272.93 218.883L270.625 218.961C268.698 219.013 267.357 219.358 266.602 219.996C265.859 220.634 265.488 221.474 265.488 222.516C265.488 223.427 265.755 224.078 266.289 224.469C266.823 224.846 267.52 225.035 268.379 225.035C269.655 225.035 270.729 224.658 271.602 223.902C272.487 223.147 272.93 222.073 272.93 220.68V218.883ZM294.199 224.645C294.85 224.645 295.482 224.579 296.094 224.449C296.719 224.319 297.337 224.156 297.949 223.961V228.395C297.311 228.681 296.517 228.915 295.566 229.098C294.629 229.293 293.6 229.391 292.48 229.391C291.178 229.391 290.007 229.182 288.965 228.766C287.936 228.336 287.122 227.6 286.523 226.559C285.938 225.504 285.645 224.039 285.645 222.164V211.637H282.793V209.117L286.074 207.125L287.793 202.516H291.602V207.164H297.715V211.637H291.602V222.164C291.602 222.997 291.836 223.622 292.305 224.039C292.786 224.443 293.418 224.645 294.199 224.645ZM311.387 206.754C313.405 206.754 315.143 207.145 316.602 207.926C318.06 208.694 319.186 209.814 319.98 211.285C320.775 212.757 321.172 214.553 321.172 216.676V219.566H307.09C307.155 221.246 307.656 222.568 308.594 223.531C309.544 224.482 310.859 224.957 312.539 224.957C313.932 224.957 315.208 224.814 316.367 224.527C317.526 224.241 318.717 223.811 319.941 223.238V227.848C318.861 228.382 317.728 228.772 316.543 229.02C315.371 229.267 313.945 229.391 312.266 229.391C310.078 229.391 308.138 228.987 306.445 228.18C304.766 227.372 303.444 226.142 302.48 224.488C301.53 222.835 301.055 220.751 301.055 218.238C301.055 215.686 301.484 213.564 302.344 211.871C303.216 210.165 304.427 208.889 305.977 208.043C307.526 207.184 309.329 206.754 311.387 206.754ZM311.426 210.992C310.267 210.992 309.303 211.363 308.535 212.105C307.78 212.848 307.344 214.013 307.227 215.602H315.586C315.573 214.716 315.41 213.928 315.098 213.238C314.798 212.548 314.342 212.001 313.73 211.598C313.132 211.194 312.363 210.992 311.426 210.992ZM187.949 275.07C187.949 276.763 187.539 278.234 186.719 279.484C185.898 280.734 184.701 281.698 183.125 282.375C181.562 283.052 179.661 283.391 177.422 283.391C176.432 283.391 175.462 283.326 174.512 283.195C173.574 283.065 172.669 282.876 171.797 282.629C170.938 282.368 170.117 282.049 169.336 281.672V276.047C170.69 276.646 172.096 277.186 173.555 277.668C175.013 278.15 176.458 278.391 177.891 278.391C178.88 278.391 179.674 278.26 180.273 278C180.885 277.74 181.328 277.382 181.602 276.926C181.875 276.47 182.012 275.949 182.012 275.363C182.012 274.647 181.771 274.035 181.289 273.527C180.807 273.02 180.143 272.544 179.297 272.102C178.464 271.659 177.52 271.184 176.465 270.676C175.801 270.363 175.078 269.986 174.297 269.543C173.516 269.087 172.773 268.534 172.07 267.883C171.367 267.232 170.788 266.444 170.332 265.52C169.889 264.582 169.668 263.462 169.668 262.16C169.668 260.454 170.059 258.996 170.84 257.785C171.621 256.574 172.734 255.65 174.18 255.012C175.638 254.361 177.357 254.035 179.336 254.035C180.82 254.035 182.233 254.211 183.574 254.562C184.928 254.901 186.341 255.396 187.812 256.047L185.859 260.754C184.544 260.22 183.366 259.81 182.324 259.523C181.283 259.224 180.221 259.074 179.141 259.074C178.385 259.074 177.741 259.198 177.207 259.445C176.673 259.68 176.27 260.018 175.996 260.461C175.723 260.891 175.586 261.392 175.586 261.965C175.586 262.642 175.781 263.215 176.172 263.684C176.576 264.139 177.174 264.582 177.969 265.012C178.776 265.441 179.779 265.943 180.977 266.516C182.435 267.206 183.678 267.928 184.707 268.684C185.749 269.426 186.549 270.305 187.109 271.32C187.669 272.323 187.949 273.573 187.949 275.07ZM189.531 261.164H196.055L200.176 273.449C200.306 273.84 200.417 274.237 200.508 274.641C200.599 275.044 200.677 275.461 200.742 275.891C200.807 276.32 200.859 276.77 200.898 277.238H201.016C201.094 276.535 201.198 275.878 201.328 275.266C201.471 274.654 201.647 274.048 201.855 273.449L205.898 261.164H212.285L203.047 285.793C202.487 287.303 201.758 288.56 200.859 289.562C199.961 290.578 198.926 291.34 197.754 291.848C196.595 292.355 195.319 292.609 193.926 292.609C193.249 292.609 192.663 292.57 192.168 292.492C191.673 292.427 191.25 292.355 190.898 292.277V287.551C191.172 287.616 191.517 287.674 191.934 287.727C192.35 287.779 192.786 287.805 193.242 287.805C194.076 287.805 194.792 287.629 195.391 287.277C195.99 286.926 196.491 286.451 196.895 285.852C197.298 285.266 197.617 284.621 197.852 283.918L198.203 282.844L189.531 261.164ZM230.664 276.516C230.664 278 230.312 279.257 229.609 280.285C228.919 281.301 227.884 282.076 226.504 282.609C225.124 283.13 223.405 283.391 221.348 283.391C219.824 283.391 218.516 283.293 217.422 283.098C216.341 282.902 215.247 282.577 214.141 282.121V277.199C215.326 277.733 216.595 278.176 217.949 278.527C219.316 278.866 220.514 279.035 221.543 279.035C222.702 279.035 223.529 278.866 224.023 278.527C224.531 278.176 224.785 277.72 224.785 277.16C224.785 276.796 224.681 276.47 224.473 276.184C224.277 275.884 223.848 275.552 223.184 275.188C222.52 274.81 221.478 274.322 220.059 273.723C218.691 273.15 217.565 272.57 216.68 271.984C215.807 271.398 215.156 270.708 214.727 269.914C214.31 269.107 214.102 268.085 214.102 266.848C214.102 264.829 214.883 263.312 216.445 262.297C218.021 261.268 220.124 260.754 222.754 260.754C224.108 260.754 225.397 260.891 226.621 261.164C227.858 261.438 229.128 261.874 230.43 262.473L228.633 266.77C227.552 266.301 226.53 265.917 225.566 265.617C224.616 265.318 223.646 265.168 222.656 265.168C221.784 265.168 221.126 265.285 220.684 265.52C220.241 265.754 220.02 266.112 220.02 266.594C220.02 266.945 220.13 267.258 220.352 267.531C220.586 267.805 221.029 268.111 221.68 268.449C222.344 268.775 223.314 269.198 224.59 269.719C225.827 270.227 226.901 270.76 227.812 271.32C228.724 271.867 229.427 272.551 229.922 273.371C230.417 274.178 230.664 275.227 230.664 276.516ZM244.512 278.645C245.163 278.645 245.794 278.579 246.406 278.449C247.031 278.319 247.65 278.156 248.262 277.961V282.395C247.624 282.681 246.829 282.915 245.879 283.098C244.941 283.293 243.913 283.391 242.793 283.391C241.491 283.391 240.319 283.182 239.277 282.766C238.249 282.336 237.435 281.6 236.836 280.559C236.25 279.504 235.957 278.039 235.957 276.164V265.637H233.105V263.117L236.387 261.125L238.105 256.516H241.914V261.164H248.027V265.637H241.914V276.164C241.914 276.997 242.148 277.622 242.617 278.039C243.099 278.443 243.73 278.645 244.512 278.645ZM261.699 260.754C263.717 260.754 265.456 261.145 266.914 261.926C268.372 262.694 269.499 263.814 270.293 265.285C271.087 266.757 271.484 268.553 271.484 270.676V273.566H257.402C257.467 275.246 257.969 276.568 258.906 277.531C259.857 278.482 261.172 278.957 262.852 278.957C264.245 278.957 265.521 278.814 266.68 278.527C267.839 278.241 269.03 277.811 270.254 277.238V281.848C269.173 282.382 268.04 282.772 266.855 283.02C265.684 283.267 264.258 283.391 262.578 283.391C260.391 283.391 258.451 282.987 256.758 282.18C255.078 281.372 253.757 280.142 252.793 278.488C251.842 276.835 251.367 274.751 251.367 272.238C251.367 269.686 251.797 267.564 252.656 265.871C253.529 264.165 254.74 262.889 256.289 262.043C257.839 261.184 259.642 260.754 261.699 260.754ZM261.738 264.992C260.579 264.992 259.616 265.363 258.848 266.105C258.092 266.848 257.656 268.013 257.539 269.602H265.898C265.885 268.716 265.723 267.928 265.41 267.238C265.111 266.548 264.655 266.001 264.043 265.598C263.444 265.194 262.676 264.992 261.738 264.992ZM301.973 260.754C304.447 260.754 306.315 261.392 307.578 262.668C308.854 263.931 309.492 265.962 309.492 268.762V283H303.516V270.246C303.516 268.684 303.249 267.505 302.715 266.711C302.181 265.917 301.354 265.52 300.234 265.52C298.659 265.52 297.539 266.086 296.875 267.219C296.211 268.339 295.879 269.947 295.879 272.043V283H289.922V270.246C289.922 269.204 289.805 268.332 289.57 267.629C289.336 266.926 288.978 266.398 288.496 266.047C288.014 265.695 287.396 265.52 286.641 265.52C285.534 265.52 284.661 265.799 284.023 266.359C283.398 266.906 282.949 267.72 282.676 268.801C282.415 269.868 282.285 271.177 282.285 272.727V283H276.328V261.164H280.879L281.68 263.957H282.012C282.454 263.202 283.008 262.59 283.672 262.121C284.349 261.652 285.091 261.307 285.898 261.086C286.706 260.865 287.526 260.754 288.359 260.754C289.961 260.754 291.315 261.014 292.422 261.535C293.542 262.056 294.401 262.863 295 263.957H295.527C296.178 262.837 297.096 262.023 298.281 261.516C299.479 261.008 300.71 260.754 301.973 260.754Z" fill="white"/>
<defs>
<filter id="filter0_d_3949_46231" x="29" y="41" width="422" height="422" filterUnits="userSpaceOnUse" color-interpolation-filters="sRGB">
<feFlood flood-opacity="0" result="BackgroundImageFix"/>
<feColorMatrix in="SourceAlpha" type="matrix" values="0 0 0 0 0 0 0 0 0 0 0 0 0 0 0 0 0 0 127 0" result="hardAlpha"/>
<feOffset dy="12"/>
<feGaussianBlur stdDeviation="12"/>
<feComposite in2="hardAlpha" operator="out"/>
<feColorMatrix type="matrix" values="0 0 0 0 0 0 0 0 0 0 0 0 0 0 0 0 0 0 0.16 0"/>
<feBlend mode="normal" in2="BackgroundImageFix" result="effect1_dropShadow_3949_46231"/>
<feBlend mode="normal" in="SourceGraphic" in2="effect1_dropShadow_3949_46231" result="shape"/>
</filter>
</defs>
</svg>
