<svg width="480" height="480" viewBox="0 0 480 480" fill="none" xmlns="http://www.w3.org/2000/svg">
<rect width="480" height="480" fill="white"/>
<rect x="17.5" y="17.5" width="349" height="77" rx="3.5" fill="white"/>
<rect x="17.5" y="17.5" width="349" height="77" rx="3.5" stroke="#31344E" stroke-width="3"/>
<path d="M50.5547 48.3672H55.6523C57.8633 48.3672 59.5312 48.6875 60.6562 49.3281C61.7812 49.9688 62.3438 51.0742 62.3438 52.6445C62.3438 53.3008 62.2266 53.8945 61.9922 54.4258C61.7656 54.9492 61.4336 55.3828 60.9961 55.7266C60.5586 56.0625 60.0195 56.2891 59.3789 56.4062V56.5234C60.043 56.6406 60.6328 56.8477 61.1484 57.1445C61.6719 57.4414 62.082 57.8672 62.3789 58.4219C62.6836 58.9766 62.8359 59.6953 62.8359 60.5781C62.8359 61.625 62.5859 62.5156 62.0859 63.25C61.5938 63.9844 60.8867 64.543 59.9648 64.9258C59.0508 65.3086 57.9648 65.5 56.707 65.5H50.5547V48.3672ZM53.3672 55.4336H56.0625C57.3359 55.4336 58.2188 55.2266 58.7109 54.8125C59.2031 54.3984 59.4492 53.793 59.4492 52.9961C59.4492 52.1836 59.1562 51.5977 58.5703 51.2383C57.9922 50.8789 57.0703 50.6992 55.8047 50.6992H53.3672V55.4336ZM53.3672 57.707V63.1445H56.332C57.6445 63.1445 58.5664 62.8906 59.0977 62.3828C59.6289 61.875 59.8945 61.1875 59.8945 60.3203C59.8945 59.7891 59.7734 59.3281 59.5312 58.9375C59.2969 58.5469 58.9102 58.2461 58.3711 58.0352C57.832 57.8164 57.1055 57.707 56.1914 57.707H53.3672ZM71.2617 52.2812C72.418 52.2812 73.4102 52.5195 74.2383 52.9961C75.0664 53.4727 75.7031 54.1484 76.1484 55.0234C76.5938 55.8984 76.8164 56.9453 76.8164 58.1641V59.6406H68.1562C68.1875 60.8984 68.5234 61.8672 69.1641 62.5469C69.8125 63.2266 70.7188 63.5664 71.8828 63.5664C72.7109 63.5664 73.4531 63.4883 74.1094 63.332C74.7734 63.168 75.457 62.9297 76.1602 62.6172V64.8555C75.5117 65.1602 74.8516 65.3828 74.1797 65.5234C73.5078 65.6641 72.7031 65.7344 71.7656 65.7344C70.4922 65.7344 69.3711 65.4883 68.4023 64.9961C67.4414 64.4961 66.6875 63.7539 66.1406 62.7695C65.6016 61.7852 65.332 60.5625 65.332 59.1016C65.332 57.6484 65.5781 56.4141 66.0703 55.3984C66.5625 54.3828 67.2539 53.6094 68.1445 53.0781C69.0352 52.5469 70.0742 52.2812 71.2617 52.2812ZM71.2617 54.3555C70.3945 54.3555 69.6914 54.6367 69.1523 55.1992C68.6211 55.7617 68.3086 56.5859 68.2148 57.6719H74.1211C74.1133 57.0234 74.0039 56.4492 73.793 55.9492C73.5898 55.4492 73.2773 55.0586 72.8555 54.7773C72.4414 54.4961 71.9102 54.3555 71.2617 54.3555ZM84.2812 65.7344C82.7344 65.7344 81.4922 65.1719 80.5547 64.0469C79.625 62.9141 79.1602 61.2461 79.1602 59.043C79.1602 56.8164 79.6328 55.1328 80.5781 53.9922C81.5312 52.8516 82.7852 52.2812 84.3398 52.2812C84.9961 52.2812 85.5703 52.3711 86.0625 52.5508C86.5547 52.7227 86.9766 52.957 87.3281 53.2539C87.6875 53.5508 87.9922 53.8828 88.2422 54.25H88.3711C88.332 54.0078 88.2852 53.6602 88.2305 53.207C88.1836 52.7461 88.1602 52.3203 88.1602 51.9297V47.2656H90.9258V65.5H88.7695L88.2773 63.7305H88.1602C87.9258 64.1055 87.6289 64.4453 87.2695 64.75C86.918 65.0469 86.4961 65.2852 86.0039 65.4648C85.5195 65.6445 84.9453 65.7344 84.2812 65.7344ZM85.0547 63.4961C86.2344 63.4961 87.0664 63.1562 87.5508 62.4766C88.0352 61.7969 88.2852 60.7773 88.3008 59.418V59.0547C88.3008 57.6016 88.0664 56.4883 87.5977 55.7148C87.1289 54.9336 86.2734 54.543 85.0312 54.543C84.0391 54.543 83.2812 54.9453 82.7578 55.75C82.2422 56.5469 81.9844 57.6602 81.9844 59.0898C81.9844 60.5195 82.2422 61.6133 82.7578 62.3711C83.2812 63.1211 84.0469 63.4961 85.0547 63.4961ZM108.785 65.5L103.852 51.1914H103.746C103.77 51.5117 103.797 51.9492 103.828 52.5039C103.859 53.0586 103.887 53.6523 103.91 54.2852C103.934 54.918 103.945 55.5234 103.945 56.1016V65.5H101.391V48.3672H105.34L110.086 62.043H110.156L115.066 48.3672H119.004V65.5H116.32V55.9609C116.32 55.4375 116.328 54.8711 116.344 54.2617C116.367 53.6523 116.391 53.0742 116.414 52.5273C116.445 51.9805 116.469 51.543 116.484 51.2148H116.391L111.27 65.5H108.785ZM134.719 58.9844C134.719 60.0625 134.578 61.0195 134.297 61.8555C134.016 62.6914 133.605 63.3984 133.066 63.9766C132.527 64.5469 131.879 64.9844 131.121 65.2891C130.363 65.5859 129.508 65.7344 128.555 65.7344C127.664 65.7344 126.848 65.5859 126.105 65.2891C125.363 64.9844 124.719 64.5469 124.172 63.9766C123.633 63.3984 123.215 62.6914 122.918 61.8555C122.621 61.0195 122.473 60.0625 122.473 58.9844C122.473 57.5547 122.719 56.3438 123.211 55.3516C123.711 54.3516 124.422 53.5898 125.344 53.0664C126.266 52.543 127.363 52.2812 128.637 52.2812C129.832 52.2812 130.887 52.543 131.801 53.0664C132.715 53.5898 133.43 54.3516 133.945 55.3516C134.461 56.3516 134.719 57.5625 134.719 58.9844ZM125.309 58.9844C125.309 59.9297 125.422 60.7383 125.648 61.4102C125.883 62.082 126.242 62.5977 126.727 62.957C127.211 63.3086 127.836 63.4844 128.602 63.4844C129.367 63.4844 129.992 63.3086 130.477 62.957C130.961 62.5977 131.316 62.082 131.543 61.4102C131.77 60.7383 131.883 59.9297 131.883 58.9844C131.883 58.0391 131.77 57.2383 131.543 56.582C131.316 55.918 130.961 55.4141 130.477 55.0703C129.992 54.7188 129.363 54.543 128.59 54.543C127.449 54.543 126.617 54.9258 126.094 55.6914C125.57 56.457 125.309 57.5547 125.309 58.9844ZM142.242 65.7344C140.695 65.7344 139.453 65.1719 138.516 64.0469C137.586 62.9141 137.121 61.2461 137.121 59.043C137.121 56.8164 137.594 55.1328 138.539 53.9922C139.492 52.8516 140.746 52.2812 142.301 52.2812C142.957 52.2812 143.531 52.3711 144.023 52.5508C144.516 52.7227 144.938 52.957 145.289 53.2539C145.648 53.5508 145.953 53.8828 146.203 54.25H146.332C146.293 54.0078 146.246 53.6602 146.191 53.207C146.145 52.7461 146.121 52.3203 146.121 51.9297V47.2656H148.887V65.5H146.73L146.238 63.7305H146.121C145.887 64.1055 145.59 64.4453 145.23 64.75C144.879 65.0469 144.457 65.2852 143.965 65.4648C143.48 65.6445 142.906 65.7344 142.242 65.7344ZM143.016 63.4961C144.195 63.4961 145.027 63.1562 145.512 62.4766C145.996 61.7969 146.246 60.7773 146.262 59.418V59.0547C146.262 57.6016 146.027 56.4883 145.559 55.7148C145.09 54.9336 144.234 54.543 142.992 54.543C142 54.543 141.242 54.9453 140.719 55.75C140.203 56.5469 139.945 57.6602 139.945 59.0898C139.945 60.5195 140.203 61.6133 140.719 62.3711C141.242 63.1211 142.008 63.4961 143.016 63.4961ZM158.004 52.2812C159.16 52.2812 160.152 52.5195 160.98 52.9961C161.809 53.4727 162.445 54.1484 162.891 55.0234C163.336 55.8984 163.559 56.9453 163.559 58.1641V59.6406H154.898C154.93 60.8984 155.266 61.8672 155.906 62.5469C156.555 63.2266 157.461 63.5664 158.625 63.5664C159.453 63.5664 160.195 63.4883 160.852 63.332C161.516 63.168 162.199 62.9297 162.902 62.6172V64.8555C162.254 65.1602 161.594 65.3828 160.922 65.5234C160.25 65.6641 159.445 65.7344 158.508 65.7344C157.234 65.7344 156.113 65.4883 155.145 64.9961C154.184 64.4961 153.43 63.7539 152.883 62.7695C152.344 61.7852 152.074 60.5625 152.074 59.1016C152.074 57.6484 152.32 56.4141 152.812 55.3984C153.305 54.3828 153.996 53.6094 154.887 53.0781C155.777 52.5469 156.816 52.2812 158.004 52.2812ZM158.004 54.3555C157.137 54.3555 156.434 54.6367 155.895 55.1992C155.363 55.7617 155.051 56.5859 154.957 57.6719H160.863C160.855 57.0234 160.746 56.4492 160.535 55.9492C160.332 55.4492 160.02 55.0586 159.598 54.7773C159.184 54.4961 158.652 54.3555 158.004 54.3555Z" fill="#1A1040"/>
<rect x="194" y="23" width="167" height="66" rx="2" fill="#1A1040"/>
<path d="M218.473 51.1445C217.777 51.1445 217.16 51.2812 216.621 51.5547C216.09 51.8203 215.641 52.207 215.273 52.7148C214.914 53.2227 214.641 53.8359 214.453 54.5547C214.266 55.2734 214.172 56.082 214.172 56.9805C214.172 58.1914 214.32 59.2266 214.617 60.0859C214.922 60.9375 215.391 61.5898 216.023 62.043C216.656 62.4883 217.473 62.7109 218.473 62.7109C219.168 62.7109 219.863 62.6328 220.559 62.4766C221.262 62.3203 222.023 62.0977 222.844 61.8086V64.8555C222.086 65.168 221.34 65.3906 220.605 65.5234C219.871 65.6641 219.047 65.7344 218.133 65.7344C216.367 65.7344 214.914 65.3711 213.773 64.6445C212.641 63.9102 211.801 62.8867 211.254 61.5742C210.707 60.2539 210.434 58.7148 210.434 56.957C210.434 55.6602 210.609 54.4727 210.961 53.3945C211.312 52.3164 211.828 51.3828 212.508 50.5938C213.188 49.8047 214.027 49.1953 215.027 48.7656C216.027 48.3359 217.176 48.1211 218.473 48.1211C219.324 48.1211 220.176 48.2305 221.027 48.4492C221.887 48.6602 222.707 48.9531 223.488 49.3281L222.316 52.2812C221.676 51.9766 221.031 51.7109 220.383 51.4844C219.734 51.2578 219.098 51.1445 218.473 51.1445ZM229.793 47.2656V50.9805C229.793 51.6289 229.77 52.2461 229.723 52.832C229.684 53.418 229.652 53.832 229.629 54.0742H229.816C230.098 53.6211 230.43 53.2539 230.812 52.9727C231.203 52.6914 231.633 52.4844 232.102 52.3516C232.57 52.2188 233.074 52.1523 233.613 52.1523C234.559 52.1523 235.383 52.3203 236.086 52.6562C236.789 52.9844 237.336 53.5039 237.727 54.2148C238.117 54.918 238.312 55.832 238.312 56.957V65.5H234.738V57.8477C234.738 56.9102 234.566 56.2031 234.223 55.7266C233.879 55.25 233.348 55.0117 232.629 55.0117C231.91 55.0117 231.344 55.1797 230.93 55.5156C230.516 55.8438 230.223 56.332 230.051 56.9805C229.879 57.6211 229.793 58.4062 229.793 59.3359V65.5H226.219V47.2656H229.793ZM247.359 52.1289C249.117 52.1289 250.465 52.5117 251.402 53.2773C252.34 54.043 252.809 55.207 252.809 56.7695V65.5H250.312L249.621 63.7188H249.527C249.152 64.1875 248.77 64.5703 248.379 64.8672C247.988 65.1641 247.539 65.3828 247.031 65.5234C246.523 65.6641 245.906 65.7344 245.18 65.7344C244.406 65.7344 243.711 65.5859 243.094 65.2891C242.484 64.9922 242.004 64.5391 241.652 63.9297C241.301 63.3125 241.125 62.5312 241.125 61.5859C241.125 60.1953 241.613 59.1719 242.59 58.5156C243.566 57.8516 245.031 57.4844 246.984 57.4141L249.258 57.3438V56.7695C249.258 56.082 249.078 55.5781 248.719 55.2578C248.359 54.9375 247.859 54.7773 247.219 54.7773C246.586 54.7773 245.965 54.8672 245.355 55.0469C244.746 55.2266 244.137 55.4531 243.527 55.7266L242.344 53.3125C243.039 52.9453 243.816 52.6562 244.676 52.4453C245.543 52.2344 246.438 52.1289 247.359 52.1289ZM249.258 59.4297L247.875 59.4766C246.719 59.5078 245.914 59.7148 245.461 60.0977C245.016 60.4805 244.793 60.9844 244.793 61.6094C244.793 62.1562 244.953 62.5469 245.273 62.7812C245.594 63.0078 246.012 63.1211 246.527 63.1211C247.293 63.1211 247.938 62.8945 248.461 62.4414C248.992 61.9883 249.258 61.3438 249.258 60.5078V59.4297ZM260.074 52.3984V65.5H256.5V52.3984H260.074ZM258.293 47.2656C258.824 47.2656 259.281 47.3906 259.664 47.6406C260.047 47.8828 260.238 48.3398 260.238 49.0117C260.238 49.6758 260.047 50.1367 259.664 50.3945C259.281 50.6445 258.824 50.7695 258.293 50.7695C257.754 50.7695 257.293 50.6445 256.91 50.3945C256.535 50.1367 256.348 49.6758 256.348 49.0117C256.348 48.3398 256.535 47.8828 256.91 47.6406C257.293 47.3906 257.754 47.2656 258.293 47.2656ZM271.148 52.1523C271.328 52.1523 271.535 52.1641 271.77 52.1875C272.012 52.2031 272.207 52.2266 272.355 52.2578L272.086 55.6094C271.969 55.5703 271.801 55.543 271.582 55.5273C271.371 55.5039 271.188 55.4922 271.031 55.4922C270.57 55.4922 270.121 55.5508 269.684 55.668C269.254 55.7852 268.867 55.9766 268.523 56.2422C268.18 56.5 267.906 56.8438 267.703 57.2734C267.508 57.6953 267.41 58.2148 267.41 58.832V65.5H263.836V52.3984H266.543L267.07 54.6016H267.246C267.504 54.1562 267.824 53.75 268.207 53.3828C268.598 53.0078 269.039 52.7109 269.531 52.4922C270.031 52.2656 270.57 52.1523 271.148 52.1523ZM288.504 65.5L284.379 52.0586H284.273C284.289 52.3789 284.312 52.8633 284.344 53.5117C284.383 54.1523 284.418 54.8359 284.449 55.5625C284.48 56.2891 284.496 56.9453 284.496 57.5312V65.5H281.25V48.3672H286.195L290.25 61.4688H290.32L294.621 48.3672H299.566V65.5H296.18V57.3906C296.18 56.8516 296.188 56.2305 296.203 55.5273C296.227 54.8242 296.254 54.1562 296.285 53.5234C296.316 52.8828 296.34 52.4023 296.355 52.082H296.25L291.832 65.5H288.504ZM315.516 58.9258C315.516 60.0195 315.367 60.9883 315.07 61.832C314.781 62.6758 314.355 63.3906 313.793 63.9766C313.238 64.5547 312.566 64.9922 311.777 65.2891C310.996 65.5859 310.113 65.7344 309.129 65.7344C308.207 65.7344 307.359 65.5859 306.586 65.2891C305.82 64.9922 305.152 64.5547 304.582 63.9766C304.02 63.3906 303.582 62.6758 303.27 61.832C302.965 60.9883 302.812 60.0195 302.812 58.9258C302.812 57.4727 303.07 56.2422 303.586 55.2344C304.102 54.2266 304.836 53.4609 305.789 52.9375C306.742 52.4141 307.879 52.1523 309.199 52.1523C310.426 52.1523 311.512 52.4141 312.457 52.9375C313.41 53.4609 314.156 54.2266 314.695 55.2344C315.242 56.2422 315.516 57.4727 315.516 58.9258ZM306.457 58.9258C306.457 59.7852 306.551 60.5078 306.738 61.0938C306.926 61.6797 307.219 62.1211 307.617 62.418C308.016 62.7148 308.535 62.8633 309.176 62.8633C309.809 62.8633 310.32 62.7148 310.711 62.418C311.109 62.1211 311.398 61.6797 311.578 61.0938C311.766 60.5078 311.859 59.7852 311.859 58.9258C311.859 58.0586 311.766 57.3398 311.578 56.7695C311.398 56.1914 311.109 55.7578 310.711 55.4688C310.312 55.1797 309.793 55.0352 309.152 55.0352C308.207 55.0352 307.52 55.3594 307.09 56.0078C306.668 56.6562 306.457 57.6289 306.457 58.9258ZM322.617 65.7344C321.156 65.7344 319.965 65.1641 319.043 64.0234C318.129 62.875 317.672 61.1914 317.672 58.9727C317.672 56.7305 318.137 55.0352 319.066 53.8867C319.996 52.7305 321.211 52.1523 322.711 52.1523C323.336 52.1523 323.887 52.2383 324.363 52.4102C324.84 52.582 325.25 52.8125 325.594 53.1016C325.945 53.3906 326.242 53.7148 326.484 54.0742H326.602C326.555 53.8242 326.496 53.457 326.426 52.9727C326.363 52.4805 326.332 51.9766 326.332 51.4609V47.2656H329.918V65.5H327.176L326.484 63.8008H326.332C326.105 64.1602 325.82 64.4883 325.477 64.7852C325.141 65.0742 324.738 65.3047 324.27 65.4766C323.801 65.6484 323.25 65.7344 322.617 65.7344ZM323.871 62.8867C324.848 62.8867 325.535 62.5977 325.934 62.0195C326.34 61.4336 326.555 60.5547 326.578 59.3828V58.9961C326.578 57.7227 326.383 56.75 325.992 56.0781C325.602 55.3984 324.875 55.0586 323.812 55.0586C323.023 55.0586 322.406 55.3984 321.961 56.0781C321.516 56.7578 321.293 57.7383 321.293 59.0195C321.293 60.3008 321.516 61.2656 321.961 61.9141C322.414 62.5625 323.051 62.8867 323.871 62.8867ZM339.059 52.1523C340.27 52.1523 341.312 52.3867 342.188 52.8555C343.062 53.3164 343.738 53.9883 344.215 54.8711C344.691 55.7539 344.93 56.832 344.93 58.1055V59.8398H336.48C336.52 60.8477 336.82 61.6406 337.383 62.2188C337.953 62.7891 338.742 63.0742 339.75 63.0742C340.586 63.0742 341.352 62.9883 342.047 62.8164C342.742 62.6445 343.457 62.3867 344.191 62.043V64.8086C343.543 65.1289 342.863 65.3633 342.152 65.5117C341.449 65.6602 340.594 65.7344 339.586 65.7344C338.273 65.7344 337.109 65.4922 336.094 65.0078C335.086 64.5234 334.293 63.7852 333.715 62.793C333.145 61.8008 332.859 60.5508 332.859 59.043C332.859 57.5117 333.117 56.2383 333.633 55.2227C334.156 54.1992 334.883 53.4336 335.812 52.9258C336.742 52.4102 337.824 52.1523 339.059 52.1523ZM339.082 54.6953C338.387 54.6953 337.809 54.918 337.348 55.3633C336.895 55.8086 336.633 56.5078 336.562 57.4609H341.578C341.57 56.9297 341.473 56.457 341.285 56.043C341.105 55.6289 340.832 55.3008 340.465 55.0586C340.105 54.8164 339.645 54.6953 339.082 54.6953Z" fill="white"/>
<rect x="385.5" y="17.5" width="77" height="77" rx="3.5" fill="white" stroke="#1A1040" stroke-width="3"/>
<path d="M415.35 31.4431C416.865 30.5262 418.739 30.541 420.241 31.4812L423.58 33.5711C423.852 33.7417 424.164 33.8318 424.482 33.8318H424.77C425.087 33.8318 425.399 33.7419 425.671 33.5721L428.995 31.4969C430.491 30.5626 432.356 30.5467 433.867 31.4549L439.854 35.0525C441.369 35.963 442.292 37.6589 442.262 39.4822L442.197 43.5398C442.192 43.8711 442.273 44.1982 442.431 44.4851L442.576 44.7449C442.735 45.0311 442.964 45.2678 443.241 45.4285L446.635 47.3973C448.157 48.2802 449.102 49.9521 449.106 51.7683L449.122 58.9588C449.126 60.7863 448.176 62.4714 446.643 63.3572L443.242 65.323C442.964 65.4837 442.733 65.7206 442.574 66.0076L442.431 66.2644C442.273 66.5514 442.192 66.8784 442.197 67.2098L442.262 71.2723C442.292 73.09 441.375 74.7816 439.867 75.6941L433.899 79.3064C432.384 80.2234 430.51 80.2086 429.009 79.2683L425.67 77.1785C425.397 77.008 425.085 76.9178 424.767 76.9178H424.479C424.162 76.9178 423.851 77.0077 423.579 77.1775L420.256 79.2527C418.759 80.1872 416.894 80.2029 415.383 79.2947L409.395 75.698C407.88 74.7875 406.959 73.0907 406.988 71.2674L407.053 67.2224C407.059 66.8934 406.979 66.5686 406.822 66.283L406.67 66.0056C406.511 65.7167 406.28 65.4781 406.001 65.3162L402.615 63.3523C401.093 62.4693 400.147 60.7975 400.143 58.9812L400.128 51.7908C400.124 49.9634 401.073 48.2782 402.606 47.3924L406.008 45.4265C406.286 45.2658 406.517 45.0291 406.677 44.742L406.818 44.4851C406.977 44.1981 407.059 43.8712 407.053 43.5398L406.988 39.4773C406.959 37.6597 407.875 35.968 409.383 35.0555L415.35 31.4431ZM424.625 46.2488C419.792 46.2488 415.874 50.3351 415.874 55.3748C415.874 60.4143 419.792 64.4998 424.625 64.4998C429.458 64.4998 433.376 60.4143 433.376 55.3748C433.376 50.3351 429.458 46.2488 424.625 46.2488Z" fill="#1A1040"/>
<path d="M415.35 31.4431L414.833 30.5876L414.833 30.5877L415.35 31.4431ZM420.241 31.4812L419.71 32.3288L419.71 32.3289L420.241 31.4812ZM423.58 33.5711L424.11 32.7234L424.11 32.7234L423.58 33.5711ZM424.482 33.8318L424.482 34.8318H424.482V33.8318ZM425.671 33.5721L426.2 34.4204L426.2 34.4203L425.671 33.5721ZM428.995 31.4969L429.524 32.3451L429.524 32.3451L428.995 31.4969ZM433.867 31.4549L433.352 32.312V32.312L433.867 31.4549ZM439.854 35.0525L440.369 34.1954L440.369 34.1954L439.854 35.0525ZM442.262 39.4822L441.263 39.4661V39.4661L442.262 39.4822ZM442.197 43.5398L443.197 43.556V43.556L442.197 43.5398ZM442.431 44.4851L441.557 44.9695L441.558 44.9713L442.431 44.4851ZM442.576 44.7449L443.451 44.2603L443.45 44.2587L442.576 44.7449ZM443.241 45.4285L442.739 46.2934L442.739 46.2935L443.241 45.4285ZM446.635 47.3973L446.133 48.2622L446.133 48.2622L446.635 47.3973ZM449.106 51.7683L450.106 51.7662V51.7661L449.106 51.7683ZM449.122 58.9588L448.122 58.9609V58.961L449.122 58.9588ZM446.643 63.3572L446.143 62.4914L446.143 62.4914L446.643 63.3572ZM443.242 65.323L443.742 66.1889L443.742 66.1888L443.242 65.323ZM442.574 66.0076L443.448 66.493L443.449 66.4924L442.574 66.0076ZM442.431 66.2644L441.557 65.7791L441.557 65.7801L442.431 66.2644ZM442.197 67.2098L443.197 67.1936V67.1936L442.197 67.2098ZM442.262 71.2723L441.263 71.2884V71.2884L442.262 71.2723ZM439.867 75.6941L439.349 74.8386L439.349 74.8386L439.867 75.6941ZM433.899 79.3064L434.417 80.162L434.417 80.1619L433.899 79.3064ZM429.009 79.2683L429.539 78.4207L429.539 78.4207L429.009 79.2683ZM425.67 77.1785L426.2 76.3308L426.2 76.3307L425.67 77.1785ZM424.479 76.9178V75.9178H424.479L424.479 76.9178ZM423.579 77.1775L423.049 76.3293L423.049 76.3293L423.579 77.1775ZM420.256 79.2527L420.785 80.101L420.785 80.1009L420.256 79.2527ZM415.383 79.2947L415.898 78.4376L415.898 78.4375L415.383 79.2947ZM409.395 75.698L408.88 76.5552L408.88 76.5553L409.395 75.698ZM406.988 71.2674L405.988 71.2512L405.988 71.2512L406.988 71.2674ZM407.053 67.2224L406.054 67.2063L406.054 67.2063L407.053 67.2224ZM406.822 66.283L407.699 65.8018L407.699 65.8015L406.822 66.283ZM406.67 66.0056L405.793 66.487L405.793 66.4871L406.67 66.0056ZM406.001 65.3162L406.503 64.4512L406.502 64.4512L406.001 65.3162ZM402.615 63.3523L402.113 64.2173L402.113 64.2173L402.615 63.3523ZM400.143 58.9812L399.143 58.9834L399.143 58.9835L400.143 58.9812ZM400.128 51.7908L401.128 51.7886V51.7886L400.128 51.7908ZM402.606 47.3924L403.107 48.2582L403.107 48.2582L402.606 47.3924ZM406.008 45.4265L405.507 44.5607L405.507 44.5607L406.008 45.4265ZM406.677 44.742L407.551 45.2266L407.552 45.2248L406.677 44.742ZM406.818 44.4851L405.943 44.0007L405.942 44.0023L406.818 44.4851ZM407.053 43.5398L406.054 43.5559L406.054 43.556L407.053 43.5398ZM406.988 39.4773L407.988 39.4612V39.4612L406.988 39.4773ZM409.383 35.0555L409.9 35.911L409.9 35.9109L409.383 35.0555ZM424.625 46.2488L424.625 45.2488H424.625V46.2488ZM415.874 55.3748H414.874V55.3748L415.874 55.3748ZM424.625 64.4998V65.4998H424.625L424.625 64.4998ZM433.376 55.3748L434.376 55.3748V55.3748H433.376ZM415.35 31.4431L415.868 32.2987C417.06 31.5774 418.528 31.5887 419.71 32.3288L420.241 31.4812L420.772 30.6336C418.95 29.4933 416.671 29.475 414.833 30.5876L415.35 31.4431ZM420.241 31.4812L419.71 32.3289L423.049 34.4187L423.58 33.5711L424.11 32.7234L420.772 30.6336L420.241 31.4812ZM423.58 33.5711L423.049 34.4187C423.479 34.6877 423.974 34.8318 424.482 34.8318L424.482 33.8318L424.482 32.8318C424.354 32.8318 424.226 32.7957 424.11 32.7234L423.58 33.5711ZM424.482 33.8318V34.8318H424.77V33.8318V32.8318H424.482V33.8318ZM424.77 33.8318V34.8318C425.277 34.8318 425.772 34.6878 426.2 34.4204L425.671 33.5721L425.141 32.7237C425.026 32.7959 424.897 32.8318 424.77 32.8318V33.8318ZM425.671 33.5721L426.2 34.4203L429.524 32.3451L428.995 31.4969L428.465 30.6486L425.141 32.7238L425.671 33.5721ZM428.995 31.4969L429.524 32.3451C430.702 31.6098 432.163 31.5976 433.352 32.312L433.867 31.4549L434.382 30.5977C432.548 29.4959 430.281 29.5153 428.465 30.6486L428.995 31.4969ZM433.867 31.4549L433.352 32.312L439.339 35.9097L439.854 35.0525L440.369 34.1954L434.382 30.5977L433.867 31.4549ZM439.854 35.0525L439.339 35.9097C440.537 36.6295 441.286 37.9859 441.263 39.4661L442.262 39.4822L443.262 39.4983C443.297 37.3319 442.202 35.2965 440.369 34.1954L439.854 35.0525ZM442.262 39.4822L441.263 39.4661L441.197 43.5237L442.197 43.5398L443.197 43.556L443.262 39.4983L442.262 39.4822ZM442.197 43.5398L441.197 43.5237C441.189 44.0273 441.312 44.5272 441.557 44.9695L442.431 44.4851L443.306 44.0008C443.233 43.8691 443.194 43.715 443.197 43.556L442.197 43.5398ZM442.431 44.4851L441.558 44.9713L441.702 45.2311L442.576 44.7449L443.45 44.2587L443.305 43.9989L442.431 44.4851ZM442.576 44.7449L441.701 45.2295C441.945 45.6688 442.301 46.039 442.739 46.2934L443.241 45.4285L443.743 44.5636C443.627 44.4965 443.524 44.3935 443.451 44.2603L442.576 44.7449ZM443.241 45.4285L442.739 46.2935L446.133 48.2622L446.635 47.3973L447.136 46.5323L443.743 44.5635L443.241 45.4285ZM446.635 47.3973L446.133 48.2622C447.335 48.9598 448.103 50.296 448.106 51.7706L449.106 51.7683L450.106 51.7661C450.101 49.6081 448.978 47.6007 447.136 46.5323L446.635 47.3973ZM449.106 51.7683L448.106 51.7705L448.122 58.9609L449.122 58.9588L450.122 58.9566L450.106 51.7662L449.106 51.7683ZM449.122 58.9588L448.122 58.961C448.125 60.4448 447.354 61.7916 446.143 62.4914L446.643 63.3572L447.144 64.223C448.999 63.1511 450.127 61.1278 450.122 58.9566L449.122 58.9588ZM446.643 63.3572L446.143 62.4914L442.742 64.4572L443.242 65.323L443.742 66.1888L447.144 64.223L446.643 63.3572ZM443.242 65.323L442.742 64.4572C442.302 64.711 441.944 65.0814 441.699 65.5228L442.574 66.0076L443.449 66.4924C443.522 66.3597 443.625 66.2564 443.742 66.1889L443.242 65.323ZM442.574 66.0076L441.7 65.5222L441.557 65.7791L442.431 66.2644L443.306 66.7498L443.448 66.493L442.574 66.0076ZM442.431 66.2644L441.557 65.7801C441.312 66.2223 441.189 66.7223 441.197 67.2259L442.197 67.2098L443.197 67.1936C443.194 67.0346 443.233 66.8804 443.306 66.7488L442.431 66.2644ZM442.197 67.2098L441.197 67.2259L441.263 71.2884L442.262 71.2723L443.262 71.2561L443.197 67.1936L442.197 67.2098ZM442.262 71.2723L441.263 71.2884C441.286 72.7639 440.541 74.117 439.349 74.8386L439.867 75.6941L440.385 76.5497C442.208 75.4461 443.297 73.416 443.262 71.2561L442.262 71.2723ZM439.867 75.6941L439.349 74.8386L433.381 78.4509L433.899 79.3064L434.417 80.1619L440.385 76.5496L439.867 75.6941ZM433.899 79.3064L433.381 78.4509C432.19 79.1722 430.721 79.1609 429.539 78.4207L429.009 79.2683L428.478 80.116C430.299 81.2562 432.579 81.2746 434.417 80.162L433.899 79.3064ZM429.009 79.2683L429.539 78.4207L426.2 76.3308L425.67 77.1785L425.139 78.0261L428.478 80.116L429.009 79.2683ZM425.67 77.1785L426.2 76.3307C425.771 76.0621 425.275 75.9178 424.767 75.9178V76.9178V77.9178C424.895 77.9178 425.024 77.9539 425.139 78.0263L425.67 77.1785ZM424.767 76.9178V75.9178H424.479V76.9178V77.9178H424.767V76.9178ZM424.479 76.9178L424.479 75.9178C423.972 75.9178 423.478 76.0616 423.049 76.3293L423.579 77.1775L424.108 78.0258C424.224 77.9537 424.352 77.9178 424.479 77.9178L424.479 76.9178ZM423.579 77.1775L423.049 76.3293L419.726 78.4045L420.256 79.2527L420.785 80.1009L424.109 78.0257L423.579 77.1775ZM420.256 79.2527L419.726 78.4045C418.548 79.1399 417.087 79.1521 415.898 78.4376L415.383 79.2947L414.868 80.1519C416.701 81.2537 418.97 81.2345 420.785 80.101L420.256 79.2527ZM415.383 79.2947L415.898 78.4375L409.91 74.8408L409.395 75.698L408.88 76.5553L414.868 80.1519L415.383 79.2947ZM409.395 75.698L409.91 74.8409C408.713 74.1213 407.964 72.7643 407.988 71.2835L406.988 71.2674L405.988 71.2512C405.953 73.4171 407.047 75.4537 408.88 76.5552L409.395 75.698ZM406.988 71.2674L407.988 71.2835L408.053 67.2386L407.053 67.2224L406.054 67.2063L405.988 71.2512L406.988 71.2674ZM407.053 67.2224L408.053 67.2386C408.061 66.7378 407.94 66.2413 407.699 65.8018L406.822 66.283L405.945 66.7642C406.018 66.8958 406.056 67.0491 406.054 67.2063L407.053 67.2224ZM406.822 66.283L407.699 65.8015L407.546 65.5242L406.67 66.0056L405.793 66.4871L405.946 66.7644L406.822 66.283ZM406.67 66.0056L407.546 65.5243C407.302 65.08 406.943 64.7069 406.503 64.4512L406.001 65.3162L405.499 66.1812C405.616 66.2493 405.72 66.3534 405.793 66.487L406.67 66.0056ZM406.001 65.3162L406.502 64.4512L403.117 62.4873L402.615 63.3523L402.113 64.2173L405.499 66.1812L406.001 65.3162ZM402.615 63.3523L403.117 62.4873C401.914 61.7897 401.147 60.4535 401.143 58.979L400.143 58.9812L399.143 58.9835C399.148 61.1414 400.272 63.1489 402.113 64.2173L402.615 63.3523ZM400.143 58.9812L401.143 58.9791L401.128 51.7886L400.128 51.7908L399.128 51.793L399.143 58.9834L400.143 58.9812ZM400.128 51.7908L401.128 51.7886C401.124 50.3049 401.896 48.958 403.107 48.2582L402.606 47.3924L402.106 46.5265C400.251 47.5985 399.123 49.6218 399.128 51.793L400.128 51.7908ZM402.606 47.3924L403.107 48.2582L406.508 46.2923L406.008 45.4265L405.507 44.5607L402.106 46.5266L402.606 47.3924ZM406.008 45.4265L406.508 46.2924C406.946 46.0393 407.306 45.6696 407.551 45.2266L406.677 44.742L405.802 44.2573C405.729 44.3886 405.626 44.4923 405.507 44.5607L406.008 45.4265ZM406.677 44.742L407.552 45.2248L407.694 44.968L406.818 44.4851L405.942 44.0023L405.801 44.2592L406.677 44.742ZM406.818 44.4851L407.693 44.9696C407.937 44.5289 408.062 44.0293 408.053 43.5237L407.053 43.5398L406.054 43.556C406.056 43.7132 406.017 43.8674 405.943 44.0007L406.818 44.4851ZM407.053 43.5398L408.053 43.5237L407.988 39.4612L406.988 39.4773L405.988 39.4934L406.054 43.5559L407.053 43.5398ZM406.988 39.4773L407.988 39.4612C407.964 37.9853 408.708 36.6324 409.9 35.911L409.383 35.0555L408.865 34.1999C407.041 35.3037 405.953 37.334 405.988 39.4934L406.988 39.4773ZM409.383 35.0555L409.9 35.9109L415.868 32.2986L415.35 31.4431L414.833 30.5877L408.865 34.2L409.383 35.0555ZM424.625 46.2488V45.2488C419.2 45.2488 414.874 49.8228 414.874 55.3748H415.874H416.874C416.874 50.8473 420.383 47.2488 424.625 47.2488V46.2488ZM415.874 55.3748L414.874 55.3748C414.874 60.9267 419.2 65.4998 424.625 65.4998V64.4998V63.4998C420.383 63.4998 416.874 59.9019 416.874 55.3747L415.874 55.3748ZM424.625 64.4998L424.625 65.4998C430.049 65.4998 434.375 60.9267 434.376 55.3748L433.376 55.3748L432.376 55.3747C432.376 59.9019 428.866 63.4998 424.625 63.4998L424.625 64.4998ZM433.376 55.3748H434.376C434.376 49.8228 430.049 45.2488 424.625 45.2488L424.625 46.2488L424.625 47.2488C428.866 47.2488 432.376 50.8474 432.376 55.3748H433.376Z" fill="#1A1040"/>
<g filter="url(#filter0_d_3980_47982)">
<rect x="16" y="384" width="216" height="80" rx="5" fill="#1A1040" shape-rendering="crispEdges"/>
<path d="M64.832 428.742C64.832 429.758 64.5859 430.641 64.0938 431.391C63.6016 432.141 62.8828 432.719 61.9375 433.125C61 433.531 59.8594 433.734 58.5156 433.734C57.9219 433.734 57.3398 433.695 56.7695 433.617C56.207 433.539 55.6641 433.426 55.1406 433.277C54.625 433.121 54.1328 432.93 53.6641 432.703V429.328C54.4766 429.688 55.3203 430.012 56.1953 430.301C57.0703 430.59 57.9375 430.734 58.7969 430.734C59.3906 430.734 59.8672 430.656 60.2266 430.5C60.5938 430.344 60.8594 430.129 61.0234 429.855C61.1875 429.582 61.2695 429.27 61.2695 428.918C61.2695 428.488 61.125 428.121 60.8359 427.816C60.5469 427.512 60.1484 427.227 59.6406 426.961C59.1406 426.695 58.5742 426.41 57.9414 426.105C57.543 425.918 57.1094 425.691 56.6406 425.426C56.1719 425.152 55.7266 424.82 55.3047 424.43C54.8828 424.039 54.5352 423.566 54.2617 423.012C53.9961 422.449 53.8633 421.777 53.8633 420.996C53.8633 419.973 54.0977 419.098 54.5664 418.371C55.0352 417.645 55.7031 417.09 56.5703 416.707C57.4453 416.316 58.4766 416.121 59.6641 416.121C60.5547 416.121 61.4023 416.227 62.207 416.438C63.0195 416.641 63.8672 416.938 64.75 417.328L63.5781 420.152C62.7891 419.832 62.082 419.586 61.457 419.414C60.832 419.234 60.1953 419.145 59.5469 419.145C59.0938 419.145 58.707 419.219 58.3867 419.367C58.0664 419.508 57.8242 419.711 57.6602 419.977C57.4961 420.234 57.4141 420.535 57.4141 420.879C57.4141 421.285 57.5312 421.629 57.7656 421.91C58.0078 422.184 58.3672 422.449 58.8438 422.707C59.3281 422.965 59.9297 423.266 60.6484 423.609C61.5234 424.023 62.2695 424.457 62.8867 424.91C63.5117 425.355 63.9922 425.883 64.3281 426.492C64.6641 427.094 64.832 427.844 64.832 428.742ZM71.2305 415.266V418.98C71.2305 419.629 71.207 420.246 71.1602 420.832C71.1211 421.418 71.0898 421.832 71.0664 422.074H71.2539C71.5352 421.621 71.8672 421.254 72.25 420.973C72.6406 420.691 73.0703 420.484 73.5391 420.352C74.0078 420.219 74.5117 420.152 75.0508 420.152C75.9961 420.152 76.8203 420.32 77.5234 420.656C78.2266 420.984 78.7734 421.504 79.1641 422.215C79.5547 422.918 79.75 423.832 79.75 424.957V433.5H76.1758V425.848C76.1758 424.91 76.0039 424.203 75.6602 423.727C75.3164 423.25 74.7852 423.012 74.0664 423.012C73.3477 423.012 72.7812 423.18 72.3672 423.516C71.9531 423.844 71.6602 424.332 71.4883 424.98C71.3164 425.621 71.2305 426.406 71.2305 427.336V433.5H67.6562V415.266H71.2305ZM95.3359 426.926C95.3359 428.02 95.1875 428.988 94.8906 429.832C94.6016 430.676 94.1758 431.391 93.6133 431.977C93.0586 432.555 92.3867 432.992 91.5977 433.289C90.8164 433.586 89.9336 433.734 88.9492 433.734C88.0273 433.734 87.1797 433.586 86.4062 433.289C85.6406 432.992 84.9727 432.555 84.4023 431.977C83.8398 431.391 83.4023 430.676 83.0898 429.832C82.7852 428.988 82.6328 428.02 82.6328 426.926C82.6328 425.473 82.8906 424.242 83.4062 423.234C83.9219 422.227 84.6562 421.461 85.6094 420.938C86.5625 420.414 87.6992 420.152 89.0195 420.152C90.2461 420.152 91.332 420.414 92.2773 420.938C93.2305 421.461 93.9766 422.227 94.5156 423.234C95.0625 424.242 95.3359 425.473 95.3359 426.926ZM86.2773 426.926C86.2773 427.785 86.3711 428.508 86.5586 429.094C86.7461 429.68 87.0391 430.121 87.4375 430.418C87.8359 430.715 88.3555 430.863 88.9961 430.863C89.6289 430.863 90.1406 430.715 90.5312 430.418C90.9297 430.121 91.2188 429.68 91.3984 429.094C91.5859 428.508 91.6797 427.785 91.6797 426.926C91.6797 426.059 91.5859 425.34 91.3984 424.77C91.2188 424.191 90.9297 423.758 90.5312 423.469C90.1328 423.18 89.6133 423.035 88.9727 423.035C88.0273 423.035 87.3398 423.359 86.9102 424.008C86.4883 424.656 86.2773 425.629 86.2773 426.926ZM105.602 420.152C105.781 420.152 105.988 420.164 106.223 420.188C106.465 420.203 106.66 420.227 106.809 420.258L106.539 423.609C106.422 423.57 106.254 423.543 106.035 423.527C105.824 423.504 105.641 423.492 105.484 423.492C105.023 423.492 104.574 423.551 104.137 423.668C103.707 423.785 103.32 423.977 102.977 424.242C102.633 424.5 102.359 424.844 102.156 425.273C101.961 425.695 101.863 426.215 101.863 426.832V433.5H98.2891V420.398H100.996L101.523 422.602H101.699C101.957 422.156 102.277 421.75 102.66 421.383C103.051 421.008 103.492 420.711 103.984 420.492C104.484 420.266 105.023 420.152 105.602 420.152ZM114.707 430.887C115.098 430.887 115.477 430.848 115.844 430.77C116.219 430.691 116.59 430.594 116.957 430.477V433.137C116.574 433.309 116.098 433.449 115.527 433.559C114.965 433.676 114.348 433.734 113.676 433.734C112.895 433.734 112.191 433.609 111.566 433.359C110.949 433.102 110.461 432.66 110.102 432.035C109.75 431.402 109.574 430.523 109.574 429.398V423.082H107.863V421.57L109.832 420.375L110.863 417.609H113.148V420.398H116.816V423.082H113.148V429.398C113.148 429.898 113.289 430.273 113.57 430.523C113.859 430.766 114.238 430.887 114.707 430.887ZM131.605 416.367C133.816 416.367 135.43 416.844 136.445 417.797C137.461 418.742 137.969 420.047 137.969 421.711C137.969 422.461 137.855 423.18 137.629 423.867C137.402 424.547 137.031 425.152 136.516 425.684C136.008 426.215 135.328 426.637 134.477 426.949C133.625 427.254 132.574 427.406 131.324 427.406H129.766V433.5H126.133V416.367H131.605ZM131.418 419.344H129.766V424.43H130.961C131.641 424.43 132.23 424.34 132.73 424.16C133.23 423.98 133.617 423.699 133.891 423.316C134.164 422.934 134.301 422.441 134.301 421.84C134.301 420.996 134.066 420.371 133.598 419.965C133.129 419.551 132.402 419.344 131.418 419.344ZM146.289 420.129C148.047 420.129 149.395 420.512 150.332 421.277C151.27 422.043 151.738 423.207 151.738 424.77V433.5H149.242L148.551 431.719H148.457C148.082 432.188 147.699 432.57 147.309 432.867C146.918 433.164 146.469 433.383 145.961 433.523C145.453 433.664 144.836 433.734 144.109 433.734C143.336 433.734 142.641 433.586 142.023 433.289C141.414 432.992 140.934 432.539 140.582 431.93C140.23 431.312 140.055 430.531 140.055 429.586C140.055 428.195 140.543 427.172 141.52 426.516C142.496 425.852 143.961 425.484 145.914 425.414L148.188 425.344V424.77C148.188 424.082 148.008 423.578 147.648 423.258C147.289 422.938 146.789 422.777 146.148 422.777C145.516 422.777 144.895 422.867 144.285 423.047C143.676 423.227 143.066 423.453 142.457 423.727L141.273 421.312C141.969 420.945 142.746 420.656 143.605 420.445C144.473 420.234 145.367 420.129 146.289 420.129ZM148.188 427.43L146.805 427.477C145.648 427.508 144.844 427.715 144.391 428.098C143.945 428.48 143.723 428.984 143.723 429.609C143.723 430.156 143.883 430.547 144.203 430.781C144.523 431.008 144.941 431.121 145.457 431.121C146.223 431.121 146.867 430.895 147.391 430.441C147.922 429.988 148.188 429.344 148.188 428.508V427.43ZM167.453 420.398V433.5H164.711L164.23 431.824H164.043C163.762 432.27 163.41 432.633 162.988 432.914C162.566 433.195 162.102 433.402 161.594 433.535C161.086 433.668 160.559 433.734 160.012 433.734C159.074 433.734 158.258 433.57 157.562 433.242C156.867 432.906 156.324 432.387 155.934 431.684C155.551 430.98 155.359 430.066 155.359 428.941V420.398H158.934V428.051C158.934 428.988 159.102 429.695 159.438 430.172C159.773 430.648 160.309 430.887 161.043 430.887C161.77 430.887 162.34 430.723 162.754 430.395C163.168 430.059 163.457 429.57 163.621 428.93C163.793 428.281 163.879 427.492 163.879 426.562V420.398H167.453ZM180.344 429.609C180.344 430.5 180.133 431.254 179.711 431.871C179.297 432.48 178.676 432.945 177.848 433.266C177.02 433.578 175.988 433.734 174.754 433.734C173.84 433.734 173.055 433.676 172.398 433.559C171.75 433.441 171.094 433.246 170.43 432.973V430.02C171.141 430.34 171.902 430.605 172.715 430.816C173.535 431.02 174.254 431.121 174.871 431.121C175.566 431.121 176.062 431.02 176.359 430.816C176.664 430.605 176.816 430.332 176.816 429.996C176.816 429.777 176.754 429.582 176.629 429.41C176.512 429.23 176.254 429.031 175.855 428.812C175.457 428.586 174.832 428.293 173.98 427.934C173.16 427.59 172.484 427.242 171.953 426.891C171.43 426.539 171.039 426.125 170.781 425.648C170.531 425.164 170.406 424.551 170.406 423.809C170.406 422.598 170.875 421.688 171.812 421.078C172.758 420.461 174.02 420.152 175.598 420.152C176.41 420.152 177.184 420.234 177.918 420.398C178.66 420.562 179.422 420.824 180.203 421.184L179.125 423.762C178.477 423.48 177.863 423.25 177.285 423.07C176.715 422.891 176.133 422.801 175.539 422.801C175.016 422.801 174.621 422.871 174.355 423.012C174.09 423.152 173.957 423.367 173.957 423.656C173.957 423.867 174.023 424.055 174.156 424.219C174.297 424.383 174.562 424.566 174.953 424.77C175.352 424.965 175.934 425.219 176.699 425.531C177.441 425.836 178.086 426.156 178.633 426.492C179.18 426.82 179.602 427.23 179.898 427.723C180.195 428.207 180.344 428.836 180.344 429.609ZM188.535 420.152C189.746 420.152 190.789 420.387 191.664 420.855C192.539 421.316 193.215 421.988 193.691 422.871C194.168 423.754 194.406 424.832 194.406 426.105V427.84H185.957C185.996 428.848 186.297 429.641 186.859 430.219C187.43 430.789 188.219 431.074 189.227 431.074C190.062 431.074 190.828 430.988 191.523 430.816C192.219 430.645 192.934 430.387 193.668 430.043V432.809C193.02 433.129 192.34 433.363 191.629 433.512C190.926 433.66 190.07 433.734 189.062 433.734C187.75 433.734 186.586 433.492 185.57 433.008C184.562 432.523 183.77 431.785 183.191 430.793C182.621 429.801 182.336 428.551 182.336 427.043C182.336 425.512 182.594 424.238 183.109 423.223C183.633 422.199 184.359 421.434 185.289 420.926C186.219 420.41 187.301 420.152 188.535 420.152ZM188.559 422.695C187.863 422.695 187.285 422.918 186.824 423.363C186.371 423.809 186.109 424.508 186.039 425.461H191.055C191.047 424.93 190.949 424.457 190.762 424.043C190.582 423.629 190.309 423.301 189.941 423.059C189.582 422.816 189.121 422.695 188.559 422.695Z" fill="white"/>
</g>
<g filter="url(#filter1_d_3980_47982)">
<rect x="248" y="384" width="216" height="80" rx="5" fill="#1A1040" shape-rendering="crispEdges"/>
<path d="M290.422 433.5V416.367H294.055V430.5H301.004V433.5H290.422ZM315.617 426.926C315.617 428.02 315.469 428.988 315.172 429.832C314.883 430.676 314.457 431.391 313.895 431.977C313.34 432.555 312.668 432.992 311.879 433.289C311.098 433.586 310.215 433.734 309.23 433.734C308.309 433.734 307.461 433.586 306.688 433.289C305.922 432.992 305.254 432.555 304.684 431.977C304.121 431.391 303.684 430.676 303.371 429.832C303.066 428.988 302.914 428.02 302.914 426.926C302.914 425.473 303.172 424.242 303.688 423.234C304.203 422.227 304.938 421.461 305.891 420.938C306.844 420.414 307.98 420.152 309.301 420.152C310.527 420.152 311.613 420.414 312.559 420.938C313.512 421.461 314.258 422.227 314.797 423.234C315.344 424.242 315.617 425.473 315.617 426.926ZM306.559 426.926C306.559 427.785 306.652 428.508 306.84 429.094C307.027 429.68 307.32 430.121 307.719 430.418C308.117 430.715 308.637 430.863 309.277 430.863C309.91 430.863 310.422 430.715 310.812 430.418C311.211 430.121 311.5 429.68 311.68 429.094C311.867 428.508 311.961 427.785 311.961 426.926C311.961 426.059 311.867 425.34 311.68 424.77C311.5 424.191 311.211 423.758 310.812 423.469C310.414 423.18 309.895 423.035 309.254 423.035C308.309 423.035 307.621 423.359 307.191 424.008C306.77 424.656 306.559 425.629 306.559 426.926ZM326.012 420.152C327.41 420.152 328.535 420.535 329.387 421.301C330.238 422.059 330.664 423.277 330.664 424.957V433.5H327.09V425.848C327.09 424.91 326.918 424.203 326.574 423.727C326.238 423.25 325.707 423.012 324.98 423.012C323.887 423.012 323.141 423.383 322.742 424.125C322.344 424.867 322.145 425.938 322.145 427.336V433.5H318.57V420.398H321.301L321.781 422.074H321.98C322.262 421.621 322.609 421.254 323.023 420.973C323.445 420.691 323.91 420.484 324.418 420.352C324.934 420.219 325.465 420.152 326.012 420.152ZM338.176 439.266C336.348 439.266 334.949 438.945 333.98 438.305C333.02 437.672 332.539 436.781 332.539 435.633C332.539 434.844 332.785 434.184 333.277 433.652C333.77 433.121 334.492 432.742 335.445 432.516C335.078 432.359 334.758 432.105 334.484 431.754C334.211 431.395 334.074 431.016 334.074 430.617C334.074 430.117 334.219 429.703 334.508 429.375C334.797 429.039 335.215 428.711 335.762 428.391C335.074 428.094 334.527 427.617 334.121 426.961C333.723 426.305 333.523 425.531 333.523 424.641C333.523 423.688 333.73 422.879 334.145 422.215C334.566 421.543 335.176 421.031 335.973 420.68C336.777 420.328 337.754 420.152 338.902 420.152C339.145 420.152 339.426 420.168 339.746 420.199C340.066 420.23 340.359 420.266 340.625 420.305C340.898 420.344 341.082 420.375 341.176 420.398H345.746V422.215L343.695 422.742C343.883 423.031 344.023 423.34 344.117 423.668C344.211 423.996 344.258 424.344 344.258 424.711C344.258 426.117 343.766 427.215 342.781 428.004C341.805 428.785 340.445 429.176 338.703 429.176C338.289 429.152 337.898 429.121 337.531 429.082C337.352 429.223 337.215 429.371 337.121 429.527C337.027 429.684 336.98 429.848 336.98 430.02C336.98 430.191 337.051 430.336 337.191 430.453C337.34 430.562 337.559 430.648 337.848 430.711C338.145 430.766 338.512 430.793 338.949 430.793H341.176C342.613 430.793 343.707 431.102 344.457 431.719C345.215 432.336 345.594 433.242 345.594 434.438C345.594 435.969 344.953 437.156 343.672 438C342.398 438.844 340.566 439.266 338.176 439.266ZM338.328 436.934C339.18 436.934 339.91 436.852 340.52 436.688C341.137 436.531 341.609 436.305 341.938 436.008C342.266 435.719 342.43 435.371 342.43 434.965C342.43 434.637 342.332 434.375 342.137 434.18C341.949 433.992 341.66 433.859 341.27 433.781C340.887 433.703 340.395 433.664 339.793 433.664H337.941C337.504 433.664 337.109 433.734 336.758 433.875C336.414 434.016 336.141 434.211 335.938 434.461C335.734 434.719 335.633 435.016 335.633 435.352C335.633 435.844 335.867 436.23 336.336 436.512C336.812 436.793 337.477 436.934 338.328 436.934ZM338.902 426.996C339.574 426.996 340.066 426.789 340.379 426.375C340.691 425.961 340.848 425.398 340.848 424.688C340.848 423.898 340.684 423.309 340.355 422.918C340.035 422.52 339.551 422.32 338.902 422.32C338.246 422.32 337.754 422.52 337.426 422.918C337.098 423.309 336.934 423.898 336.934 424.688C336.934 425.398 337.094 425.961 337.414 426.375C337.742 426.789 338.238 426.996 338.902 426.996ZM359.902 416.367C362.113 416.367 363.727 416.844 364.742 417.797C365.758 418.742 366.266 420.047 366.266 421.711C366.266 422.461 366.152 423.18 365.926 423.867C365.699 424.547 365.328 425.152 364.812 425.684C364.305 426.215 363.625 426.637 362.773 426.949C361.922 427.254 360.871 427.406 359.621 427.406H358.062V433.5H354.43V416.367H359.902ZM359.715 419.344H358.062V424.43H359.258C359.938 424.43 360.527 424.34 361.027 424.16C361.527 423.98 361.914 423.699 362.188 423.316C362.461 422.934 362.598 422.441 362.598 421.84C362.598 420.996 362.363 420.371 361.895 419.965C361.426 419.551 360.699 419.344 359.715 419.344ZM374.586 420.129C376.344 420.129 377.691 420.512 378.629 421.277C379.566 422.043 380.035 423.207 380.035 424.77V433.5H377.539L376.848 431.719H376.754C376.379 432.188 375.996 432.57 375.605 432.867C375.215 433.164 374.766 433.383 374.258 433.523C373.75 433.664 373.133 433.734 372.406 433.734C371.633 433.734 370.938 433.586 370.32 433.289C369.711 432.992 369.23 432.539 368.879 431.93C368.527 431.312 368.352 430.531 368.352 429.586C368.352 428.195 368.84 427.172 369.816 426.516C370.793 425.852 372.258 425.484 374.211 425.414L376.484 425.344V424.77C376.484 424.082 376.305 423.578 375.945 423.258C375.586 422.938 375.086 422.777 374.445 422.777C373.812 422.777 373.191 422.867 372.582 423.047C371.973 423.227 371.363 423.453 370.754 423.727L369.57 421.312C370.266 420.945 371.043 420.656 371.902 420.445C372.77 420.234 373.664 420.129 374.586 420.129ZM376.484 427.43L375.102 427.477C373.945 427.508 373.141 427.715 372.688 428.098C372.242 428.48 372.02 428.984 372.02 429.609C372.02 430.156 372.18 430.547 372.5 430.781C372.82 431.008 373.238 431.121 373.754 431.121C374.52 431.121 375.164 430.895 375.688 430.441C376.219 429.988 376.484 429.344 376.484 428.508V427.43ZM395.75 420.398V433.5H393.008L392.527 431.824H392.34C392.059 432.27 391.707 432.633 391.285 432.914C390.863 433.195 390.398 433.402 389.891 433.535C389.383 433.668 388.855 433.734 388.309 433.734C387.371 433.734 386.555 433.57 385.859 433.242C385.164 432.906 384.621 432.387 384.23 431.684C383.848 430.98 383.656 430.066 383.656 428.941V420.398H387.23V428.051C387.23 428.988 387.398 429.695 387.734 430.172C388.07 430.648 388.605 430.887 389.34 430.887C390.066 430.887 390.637 430.723 391.051 430.395C391.465 430.059 391.754 429.57 391.918 428.93C392.09 428.281 392.176 427.492 392.176 426.562V420.398H395.75ZM408.641 429.609C408.641 430.5 408.43 431.254 408.008 431.871C407.594 432.48 406.973 432.945 406.145 433.266C405.316 433.578 404.285 433.734 403.051 433.734C402.137 433.734 401.352 433.676 400.695 433.559C400.047 433.441 399.391 433.246 398.727 432.973V430.02C399.438 430.34 400.199 430.605 401.012 430.816C401.832 431.02 402.551 431.121 403.168 431.121C403.863 431.121 404.359 431.02 404.656 430.816C404.961 430.605 405.113 430.332 405.113 429.996C405.113 429.777 405.051 429.582 404.926 429.41C404.809 429.23 404.551 429.031 404.152 428.812C403.754 428.586 403.129 428.293 402.277 427.934C401.457 427.59 400.781 427.242 400.25 426.891C399.727 426.539 399.336 426.125 399.078 425.648C398.828 425.164 398.703 424.551 398.703 423.809C398.703 422.598 399.172 421.688 400.109 421.078C401.055 420.461 402.316 420.152 403.895 420.152C404.707 420.152 405.48 420.234 406.215 420.398C406.957 420.562 407.719 420.824 408.5 421.184L407.422 423.762C406.773 423.48 406.16 423.25 405.582 423.07C405.012 422.891 404.43 422.801 403.836 422.801C403.312 422.801 402.918 422.871 402.652 423.012C402.387 423.152 402.254 423.367 402.254 423.656C402.254 423.867 402.32 424.055 402.453 424.219C402.594 424.383 402.859 424.566 403.25 424.77C403.648 424.965 404.23 425.219 404.996 425.531C405.738 425.836 406.383 426.156 406.93 426.492C407.477 426.82 407.898 427.23 408.195 427.723C408.492 428.207 408.641 428.836 408.641 429.609ZM416.832 420.152C418.043 420.152 419.086 420.387 419.961 420.855C420.836 421.316 421.512 421.988 421.988 422.871C422.465 423.754 422.703 424.832 422.703 426.105V427.84H414.254C414.293 428.848 414.594 429.641 415.156 430.219C415.727 430.789 416.516 431.074 417.523 431.074C418.359 431.074 419.125 430.988 419.82 430.816C420.516 430.645 421.23 430.387 421.965 430.043V432.809C421.316 433.129 420.637 433.363 419.926 433.512C419.223 433.66 418.367 433.734 417.359 433.734C416.047 433.734 414.883 433.492 413.867 433.008C412.859 432.523 412.066 431.785 411.488 430.793C410.918 429.801 410.633 428.551 410.633 427.043C410.633 425.512 410.891 424.238 411.406 423.223C411.93 422.199 412.656 421.434 413.586 420.926C414.516 420.41 415.598 420.152 416.832 420.152ZM416.855 422.695C416.16 422.695 415.582 422.918 415.121 423.363C414.668 423.809 414.406 424.508 414.336 425.461H419.352C419.344 424.93 419.246 424.457 419.059 424.043C418.879 423.629 418.605 423.301 418.238 423.059C417.879 422.816 417.418 422.695 416.855 422.695Z" fill="white"/>
</g>
<rect x="17.5" y="113.5" width="445" height="253" rx="4.5" fill="white" stroke="#218448" stroke-width="3"/>
<path d="M129.957 135.645C129.262 135.645 128.645 135.781 128.105 136.055C127.574 136.32 127.125 136.707 126.758 137.215C126.398 137.723 126.125 138.336 125.938 139.055C125.75 139.773 125.656 140.582 125.656 141.48C125.656 142.691 125.805 143.727 126.102 144.586C126.406 145.438 126.875 146.09 127.508 146.543C128.141 146.988 128.957 147.211 129.957 147.211C130.652 147.211 131.348 147.133 132.043 146.977C132.746 146.82 133.508 146.598 134.328 146.309V149.355C133.57 149.668 132.824 149.891 132.09 150.023C131.355 150.164 130.531 150.234 129.617 150.234C127.852 150.234 126.398 149.871 125.258 149.145C124.125 148.41 123.285 147.387 122.738 146.074C122.191 144.754 121.918 143.215 121.918 141.457C121.918 140.16 122.094 138.973 122.445 137.895C122.797 136.816 123.312 135.883 123.992 135.094C124.672 134.305 125.512 133.695 126.512 133.266C127.512 132.836 128.66 132.621 129.957 132.621C130.809 132.621 131.66 132.73 132.512 132.949C133.371 133.16 134.191 133.453 134.973 133.828L133.801 136.781C133.16 136.477 132.516 136.211 131.867 135.984C131.219 135.758 130.582 135.645 129.957 135.645ZM152.023 150H148.402V142.605H141.617V150H137.984V132.867H141.617V139.582H148.402V132.867H152.023V150ZM166.848 150L165.605 145.922H159.359L158.117 150H154.203L160.25 132.797H164.691L170.762 150H166.848ZM164.738 142.875L163.496 138.891C163.418 138.625 163.312 138.285 163.18 137.871C163.055 137.449 162.926 137.023 162.793 136.594C162.668 136.156 162.566 135.777 162.488 135.457C162.41 135.777 162.301 136.176 162.16 136.652C162.027 137.121 161.898 137.566 161.773 137.988C161.648 138.41 161.559 138.711 161.504 138.891L160.273 142.875H164.738ZM172.93 150V132.867H176.562V150H172.93ZM185.867 132.867C187.422 132.867 188.703 133.055 189.711 133.43C190.727 133.805 191.48 134.371 191.973 135.129C192.465 135.887 192.711 136.844 192.711 138C192.711 138.781 192.562 139.465 192.266 140.051C191.969 140.637 191.578 141.133 191.094 141.539C190.609 141.945 190.086 142.277 189.523 142.535L194.562 150H190.531L186.441 143.426H184.508V150H180.875V132.867H185.867ZM185.609 135.844H184.508V140.473H185.68C186.883 140.473 187.742 140.273 188.258 139.875C188.781 139.469 189.043 138.875 189.043 138.094C189.043 137.281 188.762 136.703 188.199 136.359C187.645 136.016 186.781 135.844 185.609 135.844ZM210.207 150L206.082 136.559H205.977C205.992 136.879 206.016 137.363 206.047 138.012C206.086 138.652 206.121 139.336 206.152 140.062C206.184 140.789 206.199 141.445 206.199 142.031V150H202.953V132.867H207.898L211.953 145.969H212.023L216.324 132.867H221.27V150H217.883V141.891C217.883 141.352 217.891 140.73 217.906 140.027C217.93 139.324 217.957 138.656 217.988 138.023C218.02 137.383 218.043 136.902 218.059 136.582H217.953L213.535 150H210.207ZM241.145 141.41C241.145 142.73 240.98 143.934 240.652 145.02C240.324 146.098 239.824 147.027 239.152 147.809C238.488 148.59 237.645 149.191 236.621 149.613C235.598 150.027 234.387 150.234 232.988 150.234C231.59 150.234 230.379 150.027 229.355 149.613C228.332 149.191 227.484 148.59 226.812 147.809C226.148 147.027 225.652 146.094 225.324 145.008C224.996 143.922 224.832 142.715 224.832 141.387C224.832 139.613 225.121 138.07 225.699 136.758C226.285 135.438 227.184 134.414 228.395 133.688C229.605 132.961 231.145 132.598 233.012 132.598C234.871 132.598 236.398 132.961 237.594 133.688C238.797 134.414 239.688 135.438 240.266 136.758C240.852 138.078 241.145 139.629 241.145 141.41ZM228.641 141.41C228.641 142.605 228.789 143.637 229.086 144.504C229.391 145.363 229.863 146.027 230.504 146.496C231.145 146.957 231.973 147.188 232.988 147.188C234.02 147.188 234.855 146.957 235.496 146.496C236.137 146.027 236.602 145.363 236.891 144.504C237.188 143.637 237.336 142.605 237.336 141.41C237.336 139.613 237 138.199 236.328 137.168C235.656 136.137 234.551 135.621 233.012 135.621C231.988 135.621 231.152 135.855 230.504 136.324C229.863 136.785 229.391 137.449 229.086 138.316C228.789 139.176 228.641 140.207 228.641 141.41ZM259.895 150H255.277L247.824 137.039H247.719C247.75 137.578 247.777 138.121 247.801 138.668C247.824 139.215 247.848 139.762 247.871 140.309C247.895 140.848 247.918 141.391 247.941 141.938V150H244.695V132.867H249.277L256.719 145.699H256.801C256.785 145.168 256.766 144.641 256.742 144.117C256.719 143.594 256.695 143.07 256.672 142.547C256.656 142.023 256.641 141.5 256.625 140.977V132.867H259.895V150ZM264.219 150V132.867H267.852V150H264.219ZM278.773 150H275.141V135.891H270.488V132.867H283.426V135.891H278.773V150ZM301.613 141.41C301.613 142.73 301.449 143.934 301.121 145.02C300.793 146.098 300.293 147.027 299.621 147.809C298.957 148.59 298.113 149.191 297.09 149.613C296.066 150.027 294.855 150.234 293.457 150.234C292.059 150.234 290.848 150.027 289.824 149.613C288.801 149.191 287.953 148.59 287.281 147.809C286.617 147.027 286.121 146.094 285.793 145.008C285.465 143.922 285.301 142.715 285.301 141.387C285.301 139.613 285.59 138.07 286.168 136.758C286.754 135.438 287.652 134.414 288.863 133.688C290.074 132.961 291.613 132.598 293.48 132.598C295.34 132.598 296.867 132.961 298.062 133.688C299.266 134.414 300.156 135.438 300.734 136.758C301.32 138.078 301.613 139.629 301.613 141.41ZM289.109 141.41C289.109 142.605 289.258 143.637 289.555 144.504C289.859 145.363 290.332 146.027 290.973 146.496C291.613 146.957 292.441 147.188 293.457 147.188C294.488 147.188 295.324 146.957 295.965 146.496C296.605 146.027 297.07 145.363 297.359 144.504C297.656 143.637 297.805 142.605 297.805 141.41C297.805 139.613 297.469 138.199 296.797 137.168C296.125 136.137 295.02 135.621 293.48 135.621C292.457 135.621 291.621 135.855 290.973 136.324C290.332 136.785 289.859 137.449 289.555 138.316C289.258 139.176 289.109 140.207 289.109 141.41ZM310.156 132.867C311.711 132.867 312.992 133.055 314 133.43C315.016 133.805 315.77 134.371 316.262 135.129C316.754 135.887 317 136.844 317 138C317 138.781 316.852 139.465 316.555 140.051C316.258 140.637 315.867 141.133 315.383 141.539C314.898 141.945 314.375 142.277 313.812 142.535L318.852 150H314.82L310.73 143.426H308.797V150H305.164V132.867H310.156ZM309.898 135.844H308.797V140.473H309.969C311.172 140.473 312.031 140.273 312.547 139.875C313.07 139.469 313.332 138.875 313.332 138.094C313.332 137.281 313.051 136.703 312.488 136.359C311.934 136.016 311.07 135.844 309.898 135.844ZM321.008 150V132.867H324.641V150H321.008ZM344.152 150H339.535L332.082 137.039H331.977C332.008 137.578 332.035 138.121 332.059 138.668C332.082 139.215 332.105 139.762 332.129 140.309C332.152 140.848 332.176 141.391 332.199 141.938V150H328.953V132.867H333.535L340.977 145.699H341.059C341.043 145.168 341.023 144.641 341 144.117C340.977 143.594 340.953 143.07 340.93 142.547C340.914 142.023 340.898 141.5 340.883 140.977V132.867H344.152V150ZM354.98 140.379H361.777V149.262C360.879 149.559 359.945 149.797 358.977 149.977C358.008 150.148 356.91 150.234 355.684 150.234C353.98 150.234 352.535 149.898 351.348 149.227C350.16 148.555 349.258 147.562 348.641 146.25C348.023 144.938 347.715 143.324 347.715 141.41C347.715 139.613 348.059 138.059 348.746 136.746C349.441 135.434 350.453 134.418 351.781 133.699C353.117 132.98 354.746 132.621 356.668 132.621C357.574 132.621 358.469 132.719 359.352 132.914C360.234 133.109 361.035 133.363 361.754 133.676L360.547 136.582C360.023 136.316 359.426 136.094 358.754 135.914C358.082 135.734 357.379 135.645 356.645 135.645C355.59 135.645 354.672 135.887 353.891 136.371C353.117 136.855 352.516 137.535 352.086 138.41C351.664 139.277 351.453 140.301 351.453 141.48C351.453 142.598 351.605 143.59 351.91 144.457C352.215 145.316 352.695 145.992 353.352 146.484C354.008 146.969 354.863 147.211 355.918 147.211C356.434 147.211 356.867 147.188 357.219 147.141C357.578 147.086 357.914 147.031 358.227 146.977V143.402H354.98V140.379Z" fill="#31344E"/>
<path d="M16 168H464V362C464 365.314 461.314 368 458 368H22C18.6863 368 16 365.314 16 362V168Z" fill="#218448"/>
<path d="M214.075 264.835L208 222.091L215.522 221.071C219.675 220.508 223.51 223.34 224.087 227.398L229.368 264.559H264.192C267.866 264.559 270.93 267.107 271.634 270.493H271.786V315C268.308 315 265.368 312.485 264.908 309.118L260.851 279.394H225.01L220.953 309.118C220.493 312.485 217.553 315 214.075 315V264.835Z" fill="white"/>
<defs>
<filter id="filter0_d_3980_47982" x="12" y="382" width="224" height="88" filterUnits="userSpaceOnUse" color-interpolation-filters="sRGB">
<feFlood flood-opacity="0" result="BackgroundImageFix"/>
<feColorMatrix in="SourceAlpha" type="matrix" values="0 0 0 0 0 0 0 0 0 0 0 0 0 0 0 0 0 0 127 0" result="hardAlpha"/>
<feOffset dy="2"/>
<feGaussianBlur stdDeviation="2"/>
<feComposite in2="hardAlpha" operator="out"/>
<feColorMatrix type="matrix" values="0 0 0 0 0 0 0 0 0 0 0 0 0 0 0 0 0 0 0.25 0"/>
<feBlend mode="normal" in2="BackgroundImageFix" result="effect1_dropShadow_3980_47982"/>
<feBlend mode="normal" in="SourceGraphic" in2="effect1_dropShadow_3980_47982" result="shape"/>
</filter>
<filter id="filter1_d_3980_47982" x="244" y="382" width="224" height="88" filterUnits="userSpaceOnUse" color-interpolation-filters="sRGB">
<feFlood flood-opacity="0" result="BackgroundImageFix"/>
<feColorMatrix in="SourceAlpha" type="matrix" values="0 0 0 0 0 0 0 0 0 0 0 0 0 0 0 0 0 0 127 0" result="hardAlpha"/>
<feOffset dy="2"/>
<feGaussianBlur stdDeviation="2"/>
<feComposite in2="hardAlpha" operator="out"/>
<feColorMatrix type="matrix" values="0 0 0 0 0 0 0 0 0 0 0 0 0 0 0 0 0 0 0.25 0"/>
<feBlend mode="normal" in2="BackgroundImageFix" result="effect1_dropShadow_3980_47982"/>
<feBlend mode="normal" in="SourceGraphic" in2="effect1_dropShadow_3980_47982" result="shape"/>
</filter>
</defs>
</svg>
