<svg width="480" height="480" viewBox="0 0 480 480" fill="none" xmlns="http://www.w3.org/2000/svg">
<rect width="480" height="480" fill="white"/>
<rect x="17.5" y="17.5" width="349" height="77" rx="3.5" fill="white"/>
<rect x="17.5" y="17.5" width="349" height="77" rx="3.5" stroke="#31344E" stroke-width="3"/>
<path d="M23 25C23 23.8954 23.8954 23 25 23H188C189.105 23 190 23.8954 190 25V87C190 88.1046 189.105 89 188 89H25C23.8954 89 23 88.1046 23 87V25Z" fill="#1A1040"/>
<path d="M49.3594 48.3672H54.6914C56.9727 48.3672 58.6992 48.6875 59.8711 49.3281C61.043 49.9688 61.6289 51.0938 61.6289 52.7031C61.6289 53.3516 61.5234 53.9375 61.3125 54.4609C61.1094 54.9844 60.8125 55.4141 60.4219 55.75C60.0312 56.0859 59.5547 56.3047 58.9922 56.4062V56.5234C59.5625 56.6406 60.0781 56.8438 60.5391 57.1328C61 57.4141 61.3672 57.8281 61.6406 58.375C61.9219 58.9141 62.0625 59.6328 62.0625 60.5312C62.0625 61.5703 61.8086 62.4609 61.3008 63.2031C60.793 63.9453 60.0664 64.5156 59.1211 64.9141C58.1836 65.3047 57.0664 65.5 55.7695 65.5H49.3594V48.3672ZM52.9922 55.1523H55.1016C56.1562 55.1523 56.8867 54.9883 57.293 54.6602C57.6992 54.3242 57.9023 53.832 57.9023 53.1836C57.9023 52.5273 57.6602 52.0586 57.1758 51.7773C56.6992 51.4883 55.9414 51.3438 54.9023 51.3438H52.9922V55.1523ZM52.9922 58.0352V62.5H55.3594C56.4531 62.5 57.2148 62.2891 57.6445 61.8672C58.0742 61.4453 58.2891 60.8789 58.2891 60.168C58.2891 59.7461 58.1953 59.375 58.0078 59.0547C57.8203 58.7344 57.5039 58.4844 57.0586 58.3047C56.6211 58.125 56.0156 58.0352 55.2422 58.0352H52.9922ZM70.6055 52.1523C71.8164 52.1523 72.8594 52.3867 73.7344 52.8555C74.6094 53.3164 75.2852 53.9883 75.7617 54.8711C76.2383 55.7539 76.4766 56.832 76.4766 58.1055V59.8398H68.0273C68.0664 60.8477 68.3672 61.6406 68.9297 62.2188C69.5 62.7891 70.2891 63.0742 71.2969 63.0742C72.1328 63.0742 72.8984 62.9883 73.5938 62.8164C74.2891 62.6445 75.0039 62.3867 75.7383 62.043V64.8086C75.0898 65.1289 74.4102 65.3633 73.6992 65.5117C72.9961 65.6602 72.1406 65.7344 71.1328 65.7344C69.8203 65.7344 68.6562 65.4922 67.6406 65.0078C66.6328 64.5234 65.8398 63.7852 65.2617 62.793C64.6914 61.8008 64.4062 60.5508 64.4062 59.043C64.4062 57.5117 64.6641 56.2383 65.1797 55.2227C65.7031 54.1992 66.4297 53.4336 67.3594 52.9258C68.2891 52.4102 69.3711 52.1523 70.6055 52.1523ZM70.6289 54.6953C69.9336 54.6953 69.3555 54.918 68.8945 55.3633C68.4414 55.8086 68.1797 56.5078 68.1094 57.4609H73.125C73.1172 56.9297 73.0195 56.457 72.832 56.043C72.6523 55.6289 72.3789 55.3008 72.0117 55.0586C71.6523 54.8164 71.1914 54.6953 70.6289 54.6953ZM83.5312 65.7344C82.0703 65.7344 80.8789 65.1641 79.957 64.0234C79.043 62.875 78.5859 61.1914 78.5859 58.9727C78.5859 56.7305 79.0508 55.0352 79.9805 53.8867C80.9102 52.7305 82.125 52.1523 83.625 52.1523C84.25 52.1523 84.8008 52.2383 85.2773 52.4102C85.7539 52.582 86.1641 52.8125 86.5078 53.1016C86.8594 53.3906 87.1562 53.7148 87.3984 54.0742H87.5156C87.4688 53.8242 87.4102 53.457 87.3398 52.9727C87.2773 52.4805 87.2461 51.9766 87.2461 51.4609V47.2656H90.832V65.5H88.0898L87.3984 63.8008H87.2461C87.0195 64.1602 86.7344 64.4883 86.3906 64.7852C86.0547 65.0742 85.6523 65.3047 85.1836 65.4766C84.7148 65.6484 84.1641 65.7344 83.5312 65.7344ZM84.7852 62.8867C85.7617 62.8867 86.4492 62.5977 86.8477 62.0195C87.2539 61.4336 87.4688 60.5547 87.4922 59.3828V58.9961C87.4922 57.7227 87.2969 56.75 86.9062 56.0781C86.5156 55.3984 85.7891 55.0586 84.7266 55.0586C83.9375 55.0586 83.3203 55.3984 82.875 56.0781C82.4297 56.7578 82.207 57.7383 82.207 59.0195C82.207 60.3008 82.4297 61.2656 82.875 61.9141C83.3281 62.5625 83.9648 62.8867 84.7852 62.8867ZM108.34 65.5L104.215 52.0586H104.109C104.125 52.3789 104.148 52.8633 104.18 53.5117C104.219 54.1523 104.254 54.8359 104.285 55.5625C104.316 56.2891 104.332 56.9453 104.332 57.5312V65.5H101.086V48.3672H106.031L110.086 61.4688H110.156L114.457 48.3672H119.402V65.5H116.016V57.3906C116.016 56.8516 116.023 56.2305 116.039 55.5273C116.062 54.8242 116.09 54.1562 116.121 53.5234C116.152 52.8828 116.176 52.4023 116.191 52.082H116.086L111.668 65.5H108.34ZM135.352 58.9258C135.352 60.0195 135.203 60.9883 134.906 61.832C134.617 62.6758 134.191 63.3906 133.629 63.9766C133.074 64.5547 132.402 64.9922 131.613 65.2891C130.832 65.5859 129.949 65.7344 128.965 65.7344C128.043 65.7344 127.195 65.5859 126.422 65.2891C125.656 64.9922 124.988 64.5547 124.418 63.9766C123.855 63.3906 123.418 62.6758 123.105 61.832C122.801 60.9883 122.648 60.0195 122.648 58.9258C122.648 57.4727 122.906 56.2422 123.422 55.2344C123.938 54.2266 124.672 53.4609 125.625 52.9375C126.578 52.4141 127.715 52.1523 129.035 52.1523C130.262 52.1523 131.348 52.4141 132.293 52.9375C133.246 53.4609 133.992 54.2266 134.531 55.2344C135.078 56.2422 135.352 57.4727 135.352 58.9258ZM126.293 58.9258C126.293 59.7852 126.387 60.5078 126.574 61.0938C126.762 61.6797 127.055 62.1211 127.453 62.418C127.852 62.7148 128.371 62.8633 129.012 62.8633C129.645 62.8633 130.156 62.7148 130.547 62.418C130.945 62.1211 131.234 61.6797 131.414 61.0938C131.602 60.5078 131.695 59.7852 131.695 58.9258C131.695 58.0586 131.602 57.3398 131.414 56.7695C131.234 56.1914 130.945 55.7578 130.547 55.4688C130.148 55.1797 129.629 55.0352 128.988 55.0352C128.043 55.0352 127.355 55.3594 126.926 56.0078C126.504 56.6562 126.293 57.6289 126.293 58.9258ZM142.453 65.7344C140.992 65.7344 139.801 65.1641 138.879 64.0234C137.965 62.875 137.508 61.1914 137.508 58.9727C137.508 56.7305 137.973 55.0352 138.902 53.8867C139.832 52.7305 141.047 52.1523 142.547 52.1523C143.172 52.1523 143.723 52.2383 144.199 52.4102C144.676 52.582 145.086 52.8125 145.43 53.1016C145.781 53.3906 146.078 53.7148 146.32 54.0742H146.438C146.391 53.8242 146.332 53.457 146.262 52.9727C146.199 52.4805 146.168 51.9766 146.168 51.4609V47.2656H149.754V65.5H147.012L146.32 63.8008H146.168C145.941 64.1602 145.656 64.4883 145.312 64.7852C144.977 65.0742 144.574 65.3047 144.105 65.4766C143.637 65.6484 143.086 65.7344 142.453 65.7344ZM143.707 62.8867C144.684 62.8867 145.371 62.5977 145.77 62.0195C146.176 61.4336 146.391 60.5547 146.414 59.3828V58.9961C146.414 57.7227 146.219 56.75 145.828 56.0781C145.438 55.3984 144.711 55.0586 143.648 55.0586C142.859 55.0586 142.242 55.3984 141.797 56.0781C141.352 56.7578 141.129 57.7383 141.129 59.0195C141.129 60.3008 141.352 61.2656 141.797 61.9141C142.25 62.5625 142.887 62.8867 143.707 62.8867ZM158.895 52.1523C160.105 52.1523 161.148 52.3867 162.023 52.8555C162.898 53.3164 163.574 53.9883 164.051 54.8711C164.527 55.7539 164.766 56.832 164.766 58.1055V59.8398H156.316C156.355 60.8477 156.656 61.6406 157.219 62.2188C157.789 62.7891 158.578 63.0742 159.586 63.0742C160.422 63.0742 161.188 62.9883 161.883 62.8164C162.578 62.6445 163.293 62.3867 164.027 62.043V64.8086C163.379 65.1289 162.699 65.3633 161.988 65.5117C161.285 65.6602 160.43 65.7344 159.422 65.7344C158.109 65.7344 156.945 65.4922 155.93 65.0078C154.922 64.5234 154.129 63.7852 153.551 62.793C152.98 61.8008 152.695 60.5508 152.695 59.043C152.695 57.5117 152.953 56.2383 153.469 55.2227C153.992 54.1992 154.719 53.4336 155.648 52.9258C156.578 52.4102 157.66 52.1523 158.895 52.1523ZM158.918 54.6953C158.223 54.6953 157.645 54.918 157.184 55.3633C156.73 55.8086 156.469 56.5078 156.398 57.4609H161.414C161.406 56.9297 161.309 56.457 161.121 56.043C160.941 55.6289 160.668 55.3008 160.301 55.0586C159.941 54.8164 159.48 54.6953 158.918 54.6953Z" fill="white"/>
<path d="M220.43 50.5117C219.609 50.5117 218.875 50.6602 218.227 50.957C217.586 51.2539 217.043 51.6836 216.598 52.2461C216.152 52.8008 215.812 53.4766 215.578 54.2734C215.344 55.0625 215.227 55.9531 215.227 56.9453C215.227 58.2734 215.414 59.418 215.789 60.3789C216.164 61.332 216.734 62.0664 217.5 62.582C218.266 63.0898 219.234 63.3438 220.406 63.3438C221.133 63.3438 221.84 63.2734 222.527 63.1328C223.215 62.9922 223.926 62.8008 224.66 62.5586V64.9492C223.965 65.2227 223.262 65.4219 222.551 65.5469C221.84 65.6719 221.02 65.7344 220.09 65.7344C218.34 65.7344 216.887 65.3711 215.73 64.6445C214.582 63.918 213.723 62.8945 213.152 61.5742C212.59 60.2539 212.309 58.707 212.309 56.9336C212.309 55.6367 212.488 54.4492 212.848 53.3711C213.207 52.293 213.73 51.3633 214.418 50.582C215.105 49.793 215.953 49.1875 216.961 48.7656C217.977 48.3359 219.137 48.1211 220.441 48.1211C221.301 48.1211 222.145 48.2188 222.973 48.4141C223.809 48.6016 224.582 48.8711 225.293 49.2227L224.309 51.543C223.715 51.2617 223.094 51.0195 222.445 50.8164C221.797 50.6133 221.125 50.5117 220.43 50.5117ZM230.812 47.2656V51.8477C230.812 52.3242 230.797 52.7891 230.766 53.2422C230.742 53.6953 230.715 54.0469 230.684 54.2969H230.836C231.109 53.8438 231.445 53.4727 231.844 53.1836C232.242 52.8867 232.688 52.6641 233.18 52.5156C233.68 52.3672 234.211 52.293 234.773 52.293C235.766 52.293 236.609 52.4609 237.305 52.7969C238 53.125 238.531 53.6367 238.898 54.332C239.273 55.0273 239.461 55.9297 239.461 57.0391V65.5H236.707V57.5547C236.707 56.5469 236.5 55.793 236.086 55.293C235.672 54.7852 235.031 54.5312 234.164 54.5312C233.328 54.5312 232.664 54.707 232.172 55.0586C231.688 55.4023 231.34 55.9141 231.129 56.5938C230.918 57.2656 230.812 58.0859 230.812 59.0547V65.5H228.059V47.2656H230.812ZM248.402 52.2812C250.043 52.2812 251.281 52.6445 252.117 53.3711C252.961 54.0977 253.383 55.2305 253.383 56.7695V65.5H251.426L250.898 63.6602H250.805C250.438 64.1289 250.059 64.5156 249.668 64.8203C249.277 65.125 248.824 65.3516 248.309 65.5C247.801 65.6562 247.18 65.7344 246.445 65.7344C245.672 65.7344 244.98 65.5938 244.371 65.3125C243.762 65.0234 243.281 64.5859 242.93 64C242.578 63.4141 242.402 62.6719 242.402 61.7734C242.402 60.4375 242.898 59.4336 243.891 58.7617C244.891 58.0898 246.398 57.7188 248.414 57.6484L250.664 57.5664V56.8867C250.664 55.9883 250.453 55.3477 250.031 54.9648C249.617 54.582 249.031 54.3906 248.273 54.3906C247.625 54.3906 246.996 54.4844 246.387 54.6719C245.777 54.8594 245.184 55.0898 244.605 55.3633L243.715 53.418C244.348 53.082 245.066 52.8086 245.871 52.5977C246.684 52.3867 247.527 52.2812 248.402 52.2812ZM250.652 59.3008L248.977 59.3594C247.602 59.4062 246.637 59.6406 246.082 60.0625C245.527 60.4844 245.25 61.0625 245.25 61.7969C245.25 62.4375 245.441 62.9062 245.824 63.2031C246.207 63.4922 246.711 63.6367 247.336 63.6367C248.289 63.6367 249.078 63.3672 249.703 62.8281C250.336 62.2812 250.652 61.4805 250.652 60.4258V59.3008ZM259.992 52.5273V65.5H257.238V52.5273H259.992ZM258.633 47.5586C259.055 47.5586 259.418 47.6719 259.723 47.8984C260.035 48.125 260.191 48.5156 260.191 49.0703C260.191 49.6172 260.035 50.0078 259.723 50.2422C259.418 50.4688 259.055 50.582 258.633 50.582C258.195 50.582 257.824 50.4688 257.52 50.2422C257.223 50.0078 257.074 49.6172 257.074 49.0703C257.074 48.5156 257.223 48.125 257.52 47.8984C257.824 47.6719 258.195 47.5586 258.633 47.5586ZM270.516 52.2812C270.734 52.2812 270.973 52.293 271.23 52.3164C271.488 52.3398 271.711 52.3711 271.898 52.4102L271.641 54.9883C271.477 54.9414 271.273 54.9062 271.031 54.8828C270.797 54.8594 270.586 54.8477 270.398 54.8477C269.906 54.8477 269.438 54.9297 268.992 55.0938C268.547 55.25 268.152 55.4922 267.809 55.8203C267.465 56.1406 267.195 56.543 267 57.0273C266.805 57.5117 266.707 58.0742 266.707 58.7148V65.5H263.941V52.5273H266.098L266.473 54.8125H266.602C266.859 54.3516 267.18 53.9297 267.562 53.5469C267.945 53.1641 268.383 52.8594 268.875 52.6328C269.375 52.3984 269.922 52.2812 270.516 52.2812ZM288.211 65.5L283.277 51.1914H283.172C283.195 51.5117 283.223 51.9492 283.254 52.5039C283.285 53.0586 283.312 53.6523 283.336 54.2852C283.359 54.918 283.371 55.5234 283.371 56.1016V65.5H280.816V48.3672H284.766L289.512 62.043H289.582L294.492 48.3672H298.43V65.5H295.746V55.9609C295.746 55.4375 295.754 54.8711 295.77 54.2617C295.793 53.6523 295.816 53.0742 295.84 52.5273C295.871 51.9805 295.895 51.543 295.91 51.2148H295.816L290.695 65.5H288.211ZM314.145 58.9844C314.145 60.0625 314.004 61.0195 313.723 61.8555C313.441 62.6914 313.031 63.3984 312.492 63.9766C311.953 64.5469 311.305 64.9844 310.547 65.2891C309.789 65.5859 308.934 65.7344 307.98 65.7344C307.09 65.7344 306.273 65.5859 305.531 65.2891C304.789 64.9844 304.145 64.5469 303.598 63.9766C303.059 63.3984 302.641 62.6914 302.344 61.8555C302.047 61.0195 301.898 60.0625 301.898 58.9844C301.898 57.5547 302.145 56.3438 302.637 55.3516C303.137 54.3516 303.848 53.5898 304.77 53.0664C305.691 52.543 306.789 52.2812 308.062 52.2812C309.258 52.2812 310.312 52.543 311.227 53.0664C312.141 53.5898 312.855 54.3516 313.371 55.3516C313.887 56.3516 314.145 57.5625 314.145 58.9844ZM304.734 58.9844C304.734 59.9297 304.848 60.7383 305.074 61.4102C305.309 62.082 305.668 62.5977 306.152 62.957C306.637 63.3086 307.262 63.4844 308.027 63.4844C308.793 63.4844 309.418 63.3086 309.902 62.957C310.387 62.5977 310.742 62.082 310.969 61.4102C311.195 60.7383 311.309 59.9297 311.309 58.9844C311.309 58.0391 311.195 57.2383 310.969 56.582C310.742 55.918 310.387 55.4141 309.902 55.0703C309.418 54.7188 308.789 54.543 308.016 54.543C306.875 54.543 306.043 54.9258 305.52 55.6914C304.996 56.457 304.734 57.5547 304.734 58.9844ZM321.668 65.7344C320.121 65.7344 318.879 65.1719 317.941 64.0469C317.012 62.9141 316.547 61.2461 316.547 59.043C316.547 56.8164 317.02 55.1328 317.965 53.9922C318.918 52.8516 320.172 52.2812 321.727 52.2812C322.383 52.2812 322.957 52.3711 323.449 52.5508C323.941 52.7227 324.363 52.957 324.715 53.2539C325.074 53.5508 325.379 53.8828 325.629 54.25H325.758C325.719 54.0078 325.672 53.6602 325.617 53.207C325.57 52.7461 325.547 52.3203 325.547 51.9297V47.2656H328.312V65.5H326.156L325.664 63.7305H325.547C325.312 64.1055 325.016 64.4453 324.656 64.75C324.305 65.0469 323.883 65.2852 323.391 65.4648C322.906 65.6445 322.332 65.7344 321.668 65.7344ZM322.441 63.4961C323.621 63.4961 324.453 63.1562 324.938 62.4766C325.422 61.7969 325.672 60.7773 325.688 59.418V59.0547C325.688 57.6016 325.453 56.4883 324.984 55.7148C324.516 54.9336 323.66 54.543 322.418 54.543C321.426 54.543 320.668 54.9453 320.145 55.75C319.629 56.5469 319.371 57.6602 319.371 59.0898C319.371 60.5195 319.629 61.6133 320.145 62.3711C320.668 63.1211 321.434 63.4961 322.441 63.4961ZM337.43 52.2812C338.586 52.2812 339.578 52.5195 340.406 52.9961C341.234 53.4727 341.871 54.1484 342.316 55.0234C342.762 55.8984 342.984 56.9453 342.984 58.1641V59.6406H334.324C334.355 60.8984 334.691 61.8672 335.332 62.5469C335.98 63.2266 336.887 63.5664 338.051 63.5664C338.879 63.5664 339.621 63.4883 340.277 63.332C340.941 63.168 341.625 62.9297 342.328 62.6172V64.8555C341.68 65.1602 341.02 65.3828 340.348 65.5234C339.676 65.6641 338.871 65.7344 337.934 65.7344C336.66 65.7344 335.539 65.4883 334.57 64.9961C333.609 64.4961 332.855 63.7539 332.309 62.7695C331.77 61.7852 331.5 60.5625 331.5 59.1016C331.5 57.6484 331.746 56.4141 332.238 55.3984C332.73 54.3828 333.422 53.6094 334.312 53.0781C335.203 52.5469 336.242 52.2812 337.43 52.2812ZM337.43 54.3555C336.562 54.3555 335.859 54.6367 335.32 55.1992C334.789 55.7617 334.477 56.5859 334.383 57.6719H340.289C340.281 57.0234 340.172 56.4492 339.961 55.9492C339.758 55.4492 339.445 55.0586 339.023 54.7773C338.609 54.4961 338.078 54.3555 337.43 54.3555Z" fill="#1A1040"/>
<rect x="385.5" y="17.5" width="77" height="77" rx="3.5" fill="white" stroke="#1A1040" stroke-width="3"/>
<path d="M415.35 31.4434C416.865 30.5264 418.739 30.5412 420.241 31.4814L423.58 33.5713C423.852 33.7419 424.164 33.832 424.482 33.832H424.77C425.087 33.832 425.399 33.7421 425.671 33.5723L428.995 31.4971C430.491 30.5628 432.356 30.5469 433.867 31.4551L439.854 35.0527C441.369 35.9632 442.292 37.6591 442.262 39.4824L442.197 43.54C442.192 43.8714 442.273 44.1984 442.431 44.4854L442.576 44.7451C442.734 45.0314 442.964 45.268 443.241 45.4287L446.635 47.3975C448.157 48.2804 449.102 49.9523 449.106 51.7686L449.122 58.959C449.126 60.7865 448.176 62.4716 446.643 63.3574L443.242 65.3232C442.964 65.4839 442.733 65.7208 442.574 66.0078L442.431 66.2646C442.273 66.5516 442.192 66.8786 442.197 67.21L442.262 71.2725C442.292 73.0902 441.375 74.7818 439.867 75.6943L433.899 79.3066C432.384 80.2236 430.51 80.2088 429.009 79.2686L425.67 77.1787C425.397 77.0082 425.085 76.918 424.767 76.918H424.479C424.162 76.918 423.851 77.0079 423.579 77.1777L420.256 79.2529C418.759 80.1874 416.894 80.2031 415.383 79.2949L409.395 75.6982C407.88 74.7877 406.959 73.0909 406.988 71.2676L407.053 67.2227C407.059 66.8936 406.979 66.5688 406.822 66.2832L406.67 66.0059C406.511 65.7169 406.28 65.4783 406.001 65.3164L402.615 63.3525C401.093 62.4695 400.147 60.7977 400.143 58.9814L400.128 51.791C400.124 49.9636 401.073 48.2784 402.606 47.3926L406.008 45.4268C406.286 45.266 406.517 45.0293 406.677 44.7422L406.818 44.4854C406.977 44.1983 407.059 43.8714 407.053 43.54L406.988 39.4775C406.959 37.6599 407.875 35.9683 409.383 35.0557L415.35 31.4434ZM424.625 46.249C419.792 46.249 415.874 50.3353 415.874 55.375C415.874 60.4145 419.792 64.5 424.625 64.5C429.458 64.5 433.375 60.4145 433.376 55.375C433.376 50.3353 429.458 46.249 424.625 46.249Z" fill="#1A1040"/>
<path d="M415.35 31.4434L414.833 30.5878L414.833 30.5879L415.35 31.4434ZM420.241 31.4814L419.71 32.3291L419.71 32.3291L420.241 31.4814ZM423.58 33.5713L424.11 32.7236L424.11 32.7236L423.58 33.5713ZM424.482 33.832L424.482 34.832H424.482V33.832ZM425.671 33.5723L426.2 34.4206L426.2 34.4205L425.671 33.5723ZM428.995 31.4971L429.524 32.3453L429.524 32.3453L428.995 31.4971ZM433.867 31.4551L433.352 32.3122L433.352 32.3122L433.867 31.4551ZM439.854 35.0527L440.369 34.1956L440.369 34.1956L439.854 35.0527ZM442.262 39.4824L441.263 39.4663V39.4663L442.262 39.4824ZM442.197 43.54L443.197 43.5562V43.5562L442.197 43.54ZM442.431 44.4854L441.557 44.9697L441.558 44.9716L442.431 44.4854ZM442.576 44.7451L443.451 44.2605L443.45 44.2589L442.576 44.7451ZM443.241 45.4287L442.739 46.2936L442.739 46.2937L443.241 45.4287ZM446.635 47.3975L446.133 48.2624L446.133 48.2625L446.635 47.3975ZM449.106 51.7686L450.106 51.7664V51.7663L449.106 51.7686ZM449.122 58.959L448.122 58.9612V58.9612L449.122 58.959ZM446.643 63.3574L446.143 62.4916L446.143 62.4916L446.643 63.3574ZM443.242 65.3232L443.742 66.1891L443.742 66.189L443.242 65.3232ZM442.574 66.0078L443.448 66.4932L443.449 66.4926L442.574 66.0078ZM442.431 66.2646L441.557 65.7793L441.557 65.7803L442.431 66.2646ZM442.197 67.21L443.197 67.1939V67.1938L442.197 67.21ZM442.262 71.2725L441.263 71.2886V71.2886L442.262 71.2725ZM439.867 75.6943L439.349 74.8388L439.349 74.8389L439.867 75.6943ZM433.899 79.3066L434.417 80.1622L434.417 80.1621L433.899 79.3066ZM429.009 79.2686L429.539 78.4209L429.539 78.4209L429.009 79.2686ZM425.67 77.1787L426.2 76.3311L426.2 76.331L425.67 77.1787ZM424.479 76.918V75.918H424.479L424.479 76.918ZM423.579 77.1777L423.049 76.3295L423.049 76.3295L423.579 77.1777ZM420.256 79.2529L420.785 80.1012L420.785 80.1011L420.256 79.2529ZM415.383 79.2949L415.898 78.4378L415.898 78.4377L415.383 79.2949ZM409.395 75.6982L408.88 76.5554L408.88 76.5555L409.395 75.6982ZM406.988 71.2676L405.988 71.2514L405.988 71.2514L406.988 71.2676ZM407.053 67.2227L406.054 67.2065L406.054 67.2065L407.053 67.2227ZM406.822 66.2832L407.699 65.802L407.698 65.8018L406.822 66.2832ZM406.67 66.0059L405.793 66.4872L405.793 66.4873L406.67 66.0059ZM406.001 65.3164L406.503 64.4514L406.502 64.4514L406.001 65.3164ZM402.615 63.3525L402.113 64.2175L402.113 64.2176L402.615 63.3525ZM400.143 58.9814L399.143 58.9836L399.143 58.9837L400.143 58.9814ZM400.128 51.791L401.128 51.7888V51.7888L400.128 51.791ZM402.606 47.3926L403.107 48.2584L403.107 48.2584L402.606 47.3926ZM406.008 45.4268L405.507 44.5609L405.507 44.561L406.008 45.4268ZM406.677 44.7422L407.551 45.2268L407.552 45.225L406.677 44.7422ZM406.818 44.4854L405.943 44.0009L405.942 44.0025L406.818 44.4854ZM407.053 43.54L406.054 43.5561L406.054 43.5562L407.053 43.54ZM406.988 39.4775L407.988 39.4614V39.4614L406.988 39.4775ZM409.383 35.0557L409.9 35.9112L409.9 35.9111L409.383 35.0557ZM424.625 46.249L424.625 45.249H424.625V46.249ZM415.874 55.375H414.874V55.375L415.874 55.375ZM424.625 64.5V65.5H424.625L424.625 64.5ZM433.376 55.375L434.376 55.375V55.375H433.376ZM415.35 31.4434L415.868 32.2989C417.06 31.5776 418.528 31.5889 419.71 32.3291L420.241 31.4814L420.772 30.6338C418.95 29.4936 416.671 29.4752 414.833 30.5878L415.35 31.4434ZM420.241 31.4814L419.71 32.3291L423.049 34.4189L423.58 33.5713L424.11 32.7236L420.772 30.6338L420.241 31.4814ZM423.58 33.5713L423.049 34.4189C423.479 34.6879 423.974 34.832 424.482 34.832L424.482 33.832L424.482 32.832C424.354 32.832 424.226 32.7959 424.11 32.7236L423.58 33.5713ZM424.482 33.832V34.832H424.77V33.832V32.832H424.482V33.832ZM424.77 33.832V34.832C425.277 34.832 425.772 34.688 426.2 34.4206L425.671 33.5723L425.141 32.7239C425.026 32.7961 424.897 32.832 424.77 32.832V33.832ZM425.671 33.5723L426.2 34.4205L429.524 32.3453L428.995 31.4971L428.465 30.6488L425.141 32.724L425.671 33.5723ZM428.995 31.4971L429.524 32.3453C430.702 31.61 432.163 31.5978 433.352 32.3122L433.867 31.4551L434.382 30.5979C432.548 29.4961 430.281 29.5155 428.465 30.6488L428.995 31.4971ZM433.867 31.4551L433.352 32.3122L439.339 35.9099L439.854 35.0527L440.369 34.1956L434.382 30.5979L433.867 31.4551ZM439.854 35.0527L439.339 35.9099C440.537 36.6297 441.286 37.9861 441.263 39.4663L442.262 39.4824L443.262 39.4986C443.297 37.3321 442.202 35.2968 440.369 34.1956L439.854 35.0527ZM442.262 39.4824L441.263 39.4663L441.197 43.5239L442.197 43.54L443.197 43.5562L443.262 39.4985L442.262 39.4824ZM442.197 43.54L441.197 43.5239C441.189 44.0275 441.312 44.5274 441.557 44.9697L442.431 44.4854L443.306 44.001C443.233 43.8693 443.194 43.7152 443.197 43.5562L442.197 43.54ZM442.431 44.4854L441.558 44.9716L441.702 45.2313L442.576 44.7451L443.45 44.2589L443.305 43.9992L442.431 44.4854ZM442.576 44.7451L441.701 45.2297C441.945 45.669 442.301 46.0392 442.739 46.2936L443.241 45.4287L443.743 44.5638C443.627 44.4967 443.524 44.3937 443.451 44.2605L442.576 44.7451ZM443.241 45.4287L442.739 46.2937L446.133 48.2624L446.635 47.3975L447.136 46.5325L443.743 44.5637L443.241 45.4287ZM446.635 47.3975L446.133 48.2625C447.335 48.96 448.103 50.2962 448.106 51.7708L449.106 51.7686L450.106 51.7663C450.101 49.6083 448.978 47.6009 447.136 46.5325L446.635 47.3975ZM449.106 51.7686L448.106 51.7707L448.122 58.9612L449.122 58.959L450.122 58.9568L450.106 51.7664L449.106 51.7686ZM449.122 58.959L448.122 58.9612C448.125 60.445 447.354 61.7918 446.143 62.4916L446.643 63.3574L447.144 64.2233C448.999 63.1513 450.127 61.128 450.122 58.9568L449.122 58.959ZM446.643 63.3574L446.143 62.4916L442.742 64.4574L443.242 65.3232L443.742 66.189L447.144 64.2232L446.643 63.3574ZM443.242 65.3232L442.742 64.4574C442.302 64.7113 441.944 65.0817 441.699 65.523L442.574 66.0078L443.449 66.4926C443.522 66.3599 443.625 66.2566 443.742 66.1891L443.242 65.3232ZM442.574 66.0078L441.7 65.5225L441.557 65.7793L442.431 66.2646L443.306 66.75L443.448 66.4932L442.574 66.0078ZM442.431 66.2646L441.557 65.7803C441.312 66.2225 441.189 66.7225 441.197 67.2261L442.197 67.21L443.197 67.1938C443.194 67.0348 443.233 66.8807 443.306 66.749L442.431 66.2646ZM442.197 67.21L441.197 67.2261L441.263 71.2886L442.262 71.2725L443.262 71.2564L443.197 67.1939L442.197 67.21ZM442.262 71.2725L441.263 71.2886C441.286 72.7641 440.541 74.1172 439.349 74.8388L439.867 75.6943L440.385 76.5499C442.208 75.4463 443.297 73.4162 443.262 71.2564L442.262 71.2725ZM439.867 75.6943L439.349 74.8389L433.381 78.4512L433.899 79.3066L434.417 80.1621L440.385 76.5498L439.867 75.6943ZM433.899 79.3066L433.381 78.4511C432.19 79.1724 430.721 79.1611 429.539 78.4209L429.009 79.2686L428.478 80.1162C430.299 81.2565 432.579 81.2748 434.417 80.1622L433.899 79.3066ZM429.009 79.2686L429.539 78.4209L426.2 76.3311L425.67 77.1787L425.139 78.0264L428.478 80.1162L429.009 79.2686ZM425.67 77.1787L426.2 76.331C425.771 76.0623 425.275 75.918 424.767 75.918V76.918V77.918C424.895 77.918 425.024 77.9541 425.139 78.0265L425.67 77.1787ZM424.767 76.918V75.918H424.479V76.918V77.918H424.767V76.918ZM424.479 76.918L424.479 75.918C423.972 75.9181 423.478 76.0618 423.049 76.3295L423.579 77.1777L424.108 78.026C424.224 77.9539 424.352 77.918 424.479 77.918L424.479 76.918ZM423.579 77.1777L423.049 76.3295L419.726 78.4047L420.256 79.2529L420.785 80.1011L424.109 78.0259L423.579 77.1777ZM420.256 79.2529L419.726 78.4047C418.548 79.1401 417.087 79.1523 415.898 78.4378L415.383 79.2949L414.868 80.1521C416.701 81.2539 418.97 81.2347 420.785 80.1012L420.256 79.2529ZM415.383 79.2949L415.898 78.4377L409.91 74.841L409.395 75.6982L408.88 76.5555L414.868 80.1521L415.383 79.2949ZM409.395 75.6982L409.91 74.8411C408.713 74.1215 407.964 72.7645 407.988 71.2837L406.988 71.2676L405.988 71.2514C405.953 73.4173 407.047 75.4539 408.88 76.5554L409.395 75.6982ZM406.988 71.2676L407.988 71.2838L408.053 67.2388L407.053 67.2227L406.054 67.2065L405.988 71.2514L406.988 71.2676ZM407.053 67.2227L408.053 67.2388C408.061 66.738 407.94 66.2415 407.699 65.802L406.822 66.2832L405.945 66.7644C406.018 66.8961 406.056 67.0493 406.054 67.2065L407.053 67.2227ZM406.822 66.2832L407.698 65.8018L407.546 65.5244L406.67 66.0059L405.793 66.4873L405.946 66.7646L406.822 66.2832ZM406.67 66.0059L407.546 65.5245C407.302 65.0802 406.943 64.7071 406.503 64.4514L406.001 65.3164L405.499 66.1814C405.616 66.2495 405.72 66.3536 405.793 66.4872L406.67 66.0059ZM406.001 65.3164L406.502 64.4514L403.117 62.4875L402.615 63.3525L402.113 64.2176L405.499 66.1814L406.001 65.3164ZM402.615 63.3525L403.117 62.4876C401.914 61.79 401.147 60.4537 401.143 58.9792L400.143 58.9814L399.143 58.9837C399.148 61.1417 400.272 63.1491 402.113 64.2175L402.615 63.3525ZM400.143 58.9814L401.143 58.9793L401.128 51.7888L400.128 51.791L399.128 51.7932L399.143 58.9836L400.143 58.9814ZM400.128 51.791L401.128 51.7888C401.124 50.3051 401.896 48.9582 403.107 48.2584L402.606 47.3926L402.106 46.5268C400.251 47.5987 399.123 49.6221 399.128 51.7932L400.128 51.791ZM402.606 47.3926L403.107 48.2584L406.508 46.2926L406.008 45.4268L405.507 44.561L402.106 46.5268L402.606 47.3926ZM406.008 45.4268L406.508 46.2926C406.946 46.0395 407.306 45.6698 407.551 45.2268L406.677 44.7422L405.802 44.2575C405.729 44.3888 405.626 44.4925 405.507 44.5609L406.008 45.4268ZM406.677 44.7422L407.552 45.225L407.694 44.9682L406.818 44.4854L405.942 44.0025L405.801 44.2594L406.677 44.7422ZM406.818 44.4854L407.693 44.9698C407.937 44.5291 408.061 44.0295 408.053 43.5239L407.053 43.54L406.054 43.5562C406.056 43.7134 406.017 43.8676 405.943 44.0009L406.818 44.4854ZM407.053 43.54L408.053 43.5239L407.988 39.4614L406.988 39.4775L405.988 39.4936L406.054 43.5561L407.053 43.54ZM406.988 39.4775L407.988 39.4614C407.964 37.9855 408.708 36.6326 409.9 35.9112L409.383 35.0557L408.865 34.2002C407.041 35.3039 405.953 37.3342 405.988 39.4936L406.988 39.4775ZM409.383 35.0557L409.9 35.9111L415.868 32.2988L415.35 31.4434L414.833 30.5879L408.865 34.2002L409.383 35.0557ZM424.625 46.249V45.249C419.2 45.249 414.874 49.823 414.874 55.375H415.874H416.874C416.874 50.8476 420.383 47.249 424.625 47.249V46.249ZM415.874 55.375L414.874 55.375C414.874 60.9269 419.2 65.5 424.625 65.5V64.5V63.5C420.383 63.5 416.874 59.9021 416.874 55.375L415.874 55.375ZM424.625 64.5L424.625 65.5C430.049 65.5 434.375 60.9269 434.376 55.375L433.376 55.375L432.376 55.375C432.376 59.9021 428.866 63.5 424.625 63.5L424.625 64.5ZM433.376 55.375H434.376C434.376 49.823 430.049 45.249 424.625 45.249L424.625 46.249L424.625 47.249C428.866 47.249 432.376 50.8476 432.376 55.375H433.376Z" fill="#1A1040"/>
<g filter="url(#filter0_d_6207_33571)">
<rect x="16" y="384" width="216" height="80" rx="5" fill="#1A1040" shape-rendering="crispEdges"/>
<path d="M64.832 428.742C64.832 429.758 64.5859 430.641 64.0938 431.391C63.6016 432.141 62.8828 432.719 61.9375 433.125C61 433.531 59.8594 433.734 58.5156 433.734C57.9219 433.734 57.3398 433.695 56.7695 433.617C56.207 433.539 55.6641 433.426 55.1406 433.277C54.625 433.121 54.1328 432.93 53.6641 432.703V429.328C54.4766 429.688 55.3203 430.012 56.1953 430.301C57.0703 430.59 57.9375 430.734 58.7969 430.734C59.3906 430.734 59.8672 430.656 60.2266 430.5C60.5938 430.344 60.8594 430.129 61.0234 429.855C61.1875 429.582 61.2695 429.27 61.2695 428.918C61.2695 428.488 61.125 428.121 60.8359 427.816C60.5469 427.512 60.1484 427.227 59.6406 426.961C59.1406 426.695 58.5742 426.41 57.9414 426.105C57.543 425.918 57.1094 425.691 56.6406 425.426C56.1719 425.152 55.7266 424.82 55.3047 424.43C54.8828 424.039 54.5352 423.566 54.2617 423.012C53.9961 422.449 53.8633 421.777 53.8633 420.996C53.8633 419.973 54.0977 419.098 54.5664 418.371C55.0352 417.645 55.7031 417.09 56.5703 416.707C57.4453 416.316 58.4766 416.121 59.6641 416.121C60.5547 416.121 61.4023 416.227 62.207 416.438C63.0195 416.641 63.8672 416.938 64.75 417.328L63.5781 420.152C62.7891 419.832 62.082 419.586 61.457 419.414C60.832 419.234 60.1953 419.145 59.5469 419.145C59.0938 419.145 58.707 419.219 58.3867 419.367C58.0664 419.508 57.8242 419.711 57.6602 419.977C57.4961 420.234 57.4141 420.535 57.4141 420.879C57.4141 421.285 57.5312 421.629 57.7656 421.91C58.0078 422.184 58.3672 422.449 58.8438 422.707C59.3281 422.965 59.9297 423.266 60.6484 423.609C61.5234 424.023 62.2695 424.457 62.8867 424.91C63.5117 425.355 63.9922 425.883 64.3281 426.492C64.6641 427.094 64.832 427.844 64.832 428.742ZM71.2305 415.266V418.98C71.2305 419.629 71.207 420.246 71.1602 420.832C71.1211 421.418 71.0898 421.832 71.0664 422.074H71.2539C71.5352 421.621 71.8672 421.254 72.25 420.973C72.6406 420.691 73.0703 420.484 73.5391 420.352C74.0078 420.219 74.5117 420.152 75.0508 420.152C75.9961 420.152 76.8203 420.32 77.5234 420.656C78.2266 420.984 78.7734 421.504 79.1641 422.215C79.5547 422.918 79.75 423.832 79.75 424.957V433.5H76.1758V425.848C76.1758 424.91 76.0039 424.203 75.6602 423.727C75.3164 423.25 74.7852 423.012 74.0664 423.012C73.3477 423.012 72.7812 423.18 72.3672 423.516C71.9531 423.844 71.6602 424.332 71.4883 424.98C71.3164 425.621 71.2305 426.406 71.2305 427.336V433.5H67.6562V415.266H71.2305ZM95.3359 426.926C95.3359 428.02 95.1875 428.988 94.8906 429.832C94.6016 430.676 94.1758 431.391 93.6133 431.977C93.0586 432.555 92.3867 432.992 91.5977 433.289C90.8164 433.586 89.9336 433.734 88.9492 433.734C88.0273 433.734 87.1797 433.586 86.4062 433.289C85.6406 432.992 84.9727 432.555 84.4023 431.977C83.8398 431.391 83.4023 430.676 83.0898 429.832C82.7852 428.988 82.6328 428.02 82.6328 426.926C82.6328 425.473 82.8906 424.242 83.4062 423.234C83.9219 422.227 84.6562 421.461 85.6094 420.938C86.5625 420.414 87.6992 420.152 89.0195 420.152C90.2461 420.152 91.332 420.414 92.2773 420.938C93.2305 421.461 93.9766 422.227 94.5156 423.234C95.0625 424.242 95.3359 425.473 95.3359 426.926ZM86.2773 426.926C86.2773 427.785 86.3711 428.508 86.5586 429.094C86.7461 429.68 87.0391 430.121 87.4375 430.418C87.8359 430.715 88.3555 430.863 88.9961 430.863C89.6289 430.863 90.1406 430.715 90.5312 430.418C90.9297 430.121 91.2188 429.68 91.3984 429.094C91.5859 428.508 91.6797 427.785 91.6797 426.926C91.6797 426.059 91.5859 425.34 91.3984 424.77C91.2188 424.191 90.9297 423.758 90.5312 423.469C90.1328 423.18 89.6133 423.035 88.9727 423.035C88.0273 423.035 87.3398 423.359 86.9102 424.008C86.4883 424.656 86.2773 425.629 86.2773 426.926ZM105.602 420.152C105.781 420.152 105.988 420.164 106.223 420.188C106.465 420.203 106.66 420.227 106.809 420.258L106.539 423.609C106.422 423.57 106.254 423.543 106.035 423.527C105.824 423.504 105.641 423.492 105.484 423.492C105.023 423.492 104.574 423.551 104.137 423.668C103.707 423.785 103.32 423.977 102.977 424.242C102.633 424.5 102.359 424.844 102.156 425.273C101.961 425.695 101.863 426.215 101.863 426.832V433.5H98.2891V420.398H100.996L101.523 422.602H101.699C101.957 422.156 102.277 421.75 102.66 421.383C103.051 421.008 103.492 420.711 103.984 420.492C104.484 420.266 105.023 420.152 105.602 420.152ZM114.707 430.887C115.098 430.887 115.477 430.848 115.844 430.77C116.219 430.691 116.59 430.594 116.957 430.477V433.137C116.574 433.309 116.098 433.449 115.527 433.559C114.965 433.676 114.348 433.734 113.676 433.734C112.895 433.734 112.191 433.609 111.566 433.359C110.949 433.102 110.461 432.66 110.102 432.035C109.75 431.402 109.574 430.523 109.574 429.398V423.082H107.863V421.57L109.832 420.375L110.863 417.609H113.148V420.398H116.816V423.082H113.148V429.398C113.148 429.898 113.289 430.273 113.57 430.523C113.859 430.766 114.238 430.887 114.707 430.887ZM131.605 416.367C133.816 416.367 135.43 416.844 136.445 417.797C137.461 418.742 137.969 420.047 137.969 421.711C137.969 422.461 137.855 423.18 137.629 423.867C137.402 424.547 137.031 425.152 136.516 425.684C136.008 426.215 135.328 426.637 134.477 426.949C133.625 427.254 132.574 427.406 131.324 427.406H129.766V433.5H126.133V416.367H131.605ZM131.418 419.344H129.766V424.43H130.961C131.641 424.43 132.23 424.34 132.73 424.16C133.23 423.98 133.617 423.699 133.891 423.316C134.164 422.934 134.301 422.441 134.301 421.84C134.301 420.996 134.066 420.371 133.598 419.965C133.129 419.551 132.402 419.344 131.418 419.344ZM146.289 420.129C148.047 420.129 149.395 420.512 150.332 421.277C151.27 422.043 151.738 423.207 151.738 424.77V433.5H149.242L148.551 431.719H148.457C148.082 432.188 147.699 432.57 147.309 432.867C146.918 433.164 146.469 433.383 145.961 433.523C145.453 433.664 144.836 433.734 144.109 433.734C143.336 433.734 142.641 433.586 142.023 433.289C141.414 432.992 140.934 432.539 140.582 431.93C140.23 431.312 140.055 430.531 140.055 429.586C140.055 428.195 140.543 427.172 141.52 426.516C142.496 425.852 143.961 425.484 145.914 425.414L148.188 425.344V424.77C148.188 424.082 148.008 423.578 147.648 423.258C147.289 422.938 146.789 422.777 146.148 422.777C145.516 422.777 144.895 422.867 144.285 423.047C143.676 423.227 143.066 423.453 142.457 423.727L141.273 421.312C141.969 420.945 142.746 420.656 143.605 420.445C144.473 420.234 145.367 420.129 146.289 420.129ZM148.188 427.43L146.805 427.477C145.648 427.508 144.844 427.715 144.391 428.098C143.945 428.48 143.723 428.984 143.723 429.609C143.723 430.156 143.883 430.547 144.203 430.781C144.523 431.008 144.941 431.121 145.457 431.121C146.223 431.121 146.867 430.895 147.391 430.441C147.922 429.988 148.188 429.344 148.188 428.508V427.43ZM167.453 420.398V433.5H164.711L164.23 431.824H164.043C163.762 432.27 163.41 432.633 162.988 432.914C162.566 433.195 162.102 433.402 161.594 433.535C161.086 433.668 160.559 433.734 160.012 433.734C159.074 433.734 158.258 433.57 157.562 433.242C156.867 432.906 156.324 432.387 155.934 431.684C155.551 430.98 155.359 430.066 155.359 428.941V420.398H158.934V428.051C158.934 428.988 159.102 429.695 159.438 430.172C159.773 430.648 160.309 430.887 161.043 430.887C161.77 430.887 162.34 430.723 162.754 430.395C163.168 430.059 163.457 429.57 163.621 428.93C163.793 428.281 163.879 427.492 163.879 426.562V420.398H167.453ZM180.344 429.609C180.344 430.5 180.133 431.254 179.711 431.871C179.297 432.48 178.676 432.945 177.848 433.266C177.02 433.578 175.988 433.734 174.754 433.734C173.84 433.734 173.055 433.676 172.398 433.559C171.75 433.441 171.094 433.246 170.43 432.973V430.02C171.141 430.34 171.902 430.605 172.715 430.816C173.535 431.02 174.254 431.121 174.871 431.121C175.566 431.121 176.062 431.02 176.359 430.816C176.664 430.605 176.816 430.332 176.816 429.996C176.816 429.777 176.754 429.582 176.629 429.41C176.512 429.23 176.254 429.031 175.855 428.812C175.457 428.586 174.832 428.293 173.98 427.934C173.16 427.59 172.484 427.242 171.953 426.891C171.43 426.539 171.039 426.125 170.781 425.648C170.531 425.164 170.406 424.551 170.406 423.809C170.406 422.598 170.875 421.688 171.812 421.078C172.758 420.461 174.02 420.152 175.598 420.152C176.41 420.152 177.184 420.234 177.918 420.398C178.66 420.562 179.422 420.824 180.203 421.184L179.125 423.762C178.477 423.48 177.863 423.25 177.285 423.07C176.715 422.891 176.133 422.801 175.539 422.801C175.016 422.801 174.621 422.871 174.355 423.012C174.09 423.152 173.957 423.367 173.957 423.656C173.957 423.867 174.023 424.055 174.156 424.219C174.297 424.383 174.562 424.566 174.953 424.77C175.352 424.965 175.934 425.219 176.699 425.531C177.441 425.836 178.086 426.156 178.633 426.492C179.18 426.82 179.602 427.23 179.898 427.723C180.195 428.207 180.344 428.836 180.344 429.609ZM188.535 420.152C189.746 420.152 190.789 420.387 191.664 420.855C192.539 421.316 193.215 421.988 193.691 422.871C194.168 423.754 194.406 424.832 194.406 426.105V427.84H185.957C185.996 428.848 186.297 429.641 186.859 430.219C187.43 430.789 188.219 431.074 189.227 431.074C190.062 431.074 190.828 430.988 191.523 430.816C192.219 430.645 192.934 430.387 193.668 430.043V432.809C193.02 433.129 192.34 433.363 191.629 433.512C190.926 433.66 190.07 433.734 189.062 433.734C187.75 433.734 186.586 433.492 185.57 433.008C184.562 432.523 183.77 431.785 183.191 430.793C182.621 429.801 182.336 428.551 182.336 427.043C182.336 425.512 182.594 424.238 183.109 423.223C183.633 422.199 184.359 421.434 185.289 420.926C186.219 420.41 187.301 420.152 188.535 420.152ZM188.559 422.695C187.863 422.695 187.285 422.918 186.824 423.363C186.371 423.809 186.109 424.508 186.039 425.461H191.055C191.047 424.93 190.949 424.457 190.762 424.043C190.582 423.629 190.309 423.301 189.941 423.059C189.582 422.816 189.121 422.695 188.559 422.695Z" fill="white"/>
</g>
<g filter="url(#filter1_d_6207_33571)">
<rect x="248" y="384" width="216" height="80" rx="5" fill="#1A1040" shape-rendering="crispEdges"/>
<path d="M290.422 433.5V416.367H294.055V430.5H301.004V433.5H290.422ZM315.617 426.926C315.617 428.02 315.469 428.988 315.172 429.832C314.883 430.676 314.457 431.391 313.895 431.977C313.34 432.555 312.668 432.992 311.879 433.289C311.098 433.586 310.215 433.734 309.23 433.734C308.309 433.734 307.461 433.586 306.688 433.289C305.922 432.992 305.254 432.555 304.684 431.977C304.121 431.391 303.684 430.676 303.371 429.832C303.066 428.988 302.914 428.02 302.914 426.926C302.914 425.473 303.172 424.242 303.688 423.234C304.203 422.227 304.938 421.461 305.891 420.938C306.844 420.414 307.98 420.152 309.301 420.152C310.527 420.152 311.613 420.414 312.559 420.938C313.512 421.461 314.258 422.227 314.797 423.234C315.344 424.242 315.617 425.473 315.617 426.926ZM306.559 426.926C306.559 427.785 306.652 428.508 306.84 429.094C307.027 429.68 307.32 430.121 307.719 430.418C308.117 430.715 308.637 430.863 309.277 430.863C309.91 430.863 310.422 430.715 310.812 430.418C311.211 430.121 311.5 429.68 311.68 429.094C311.867 428.508 311.961 427.785 311.961 426.926C311.961 426.059 311.867 425.34 311.68 424.77C311.5 424.191 311.211 423.758 310.812 423.469C310.414 423.18 309.895 423.035 309.254 423.035C308.309 423.035 307.621 423.359 307.191 424.008C306.77 424.656 306.559 425.629 306.559 426.926ZM326.012 420.152C327.41 420.152 328.535 420.535 329.387 421.301C330.238 422.059 330.664 423.277 330.664 424.957V433.5H327.09V425.848C327.09 424.91 326.918 424.203 326.574 423.727C326.238 423.25 325.707 423.012 324.98 423.012C323.887 423.012 323.141 423.383 322.742 424.125C322.344 424.867 322.145 425.938 322.145 427.336V433.5H318.57V420.398H321.301L321.781 422.074H321.98C322.262 421.621 322.609 421.254 323.023 420.973C323.445 420.691 323.91 420.484 324.418 420.352C324.934 420.219 325.465 420.152 326.012 420.152ZM338.176 439.266C336.348 439.266 334.949 438.945 333.98 438.305C333.02 437.672 332.539 436.781 332.539 435.633C332.539 434.844 332.785 434.184 333.277 433.652C333.77 433.121 334.492 432.742 335.445 432.516C335.078 432.359 334.758 432.105 334.484 431.754C334.211 431.395 334.074 431.016 334.074 430.617C334.074 430.117 334.219 429.703 334.508 429.375C334.797 429.039 335.215 428.711 335.762 428.391C335.074 428.094 334.527 427.617 334.121 426.961C333.723 426.305 333.523 425.531 333.523 424.641C333.523 423.688 333.73 422.879 334.145 422.215C334.566 421.543 335.176 421.031 335.973 420.68C336.777 420.328 337.754 420.152 338.902 420.152C339.145 420.152 339.426 420.168 339.746 420.199C340.066 420.23 340.359 420.266 340.625 420.305C340.898 420.344 341.082 420.375 341.176 420.398H345.746V422.215L343.695 422.742C343.883 423.031 344.023 423.34 344.117 423.668C344.211 423.996 344.258 424.344 344.258 424.711C344.258 426.117 343.766 427.215 342.781 428.004C341.805 428.785 340.445 429.176 338.703 429.176C338.289 429.152 337.898 429.121 337.531 429.082C337.352 429.223 337.215 429.371 337.121 429.527C337.027 429.684 336.98 429.848 336.98 430.02C336.98 430.191 337.051 430.336 337.191 430.453C337.34 430.562 337.559 430.648 337.848 430.711C338.145 430.766 338.512 430.793 338.949 430.793H341.176C342.613 430.793 343.707 431.102 344.457 431.719C345.215 432.336 345.594 433.242 345.594 434.438C345.594 435.969 344.953 437.156 343.672 438C342.398 438.844 340.566 439.266 338.176 439.266ZM338.328 436.934C339.18 436.934 339.91 436.852 340.52 436.688C341.137 436.531 341.609 436.305 341.938 436.008C342.266 435.719 342.43 435.371 342.43 434.965C342.43 434.637 342.332 434.375 342.137 434.18C341.949 433.992 341.66 433.859 341.27 433.781C340.887 433.703 340.395 433.664 339.793 433.664H337.941C337.504 433.664 337.109 433.734 336.758 433.875C336.414 434.016 336.141 434.211 335.938 434.461C335.734 434.719 335.633 435.016 335.633 435.352C335.633 435.844 335.867 436.23 336.336 436.512C336.812 436.793 337.477 436.934 338.328 436.934ZM338.902 426.996C339.574 426.996 340.066 426.789 340.379 426.375C340.691 425.961 340.848 425.398 340.848 424.688C340.848 423.898 340.684 423.309 340.355 422.918C340.035 422.52 339.551 422.32 338.902 422.32C338.246 422.32 337.754 422.52 337.426 422.918C337.098 423.309 336.934 423.898 336.934 424.688C336.934 425.398 337.094 425.961 337.414 426.375C337.742 426.789 338.238 426.996 338.902 426.996ZM359.902 416.367C362.113 416.367 363.727 416.844 364.742 417.797C365.758 418.742 366.266 420.047 366.266 421.711C366.266 422.461 366.152 423.18 365.926 423.867C365.699 424.547 365.328 425.152 364.812 425.684C364.305 426.215 363.625 426.637 362.773 426.949C361.922 427.254 360.871 427.406 359.621 427.406H358.062V433.5H354.43V416.367H359.902ZM359.715 419.344H358.062V424.43H359.258C359.938 424.43 360.527 424.34 361.027 424.16C361.527 423.98 361.914 423.699 362.188 423.316C362.461 422.934 362.598 422.441 362.598 421.84C362.598 420.996 362.363 420.371 361.895 419.965C361.426 419.551 360.699 419.344 359.715 419.344ZM374.586 420.129C376.344 420.129 377.691 420.512 378.629 421.277C379.566 422.043 380.035 423.207 380.035 424.77V433.5H377.539L376.848 431.719H376.754C376.379 432.188 375.996 432.57 375.605 432.867C375.215 433.164 374.766 433.383 374.258 433.523C373.75 433.664 373.133 433.734 372.406 433.734C371.633 433.734 370.938 433.586 370.32 433.289C369.711 432.992 369.23 432.539 368.879 431.93C368.527 431.312 368.352 430.531 368.352 429.586C368.352 428.195 368.84 427.172 369.816 426.516C370.793 425.852 372.258 425.484 374.211 425.414L376.484 425.344V424.77C376.484 424.082 376.305 423.578 375.945 423.258C375.586 422.938 375.086 422.777 374.445 422.777C373.812 422.777 373.191 422.867 372.582 423.047C371.973 423.227 371.363 423.453 370.754 423.727L369.57 421.312C370.266 420.945 371.043 420.656 371.902 420.445C372.77 420.234 373.664 420.129 374.586 420.129ZM376.484 427.43L375.102 427.477C373.945 427.508 373.141 427.715 372.688 428.098C372.242 428.48 372.02 428.984 372.02 429.609C372.02 430.156 372.18 430.547 372.5 430.781C372.82 431.008 373.238 431.121 373.754 431.121C374.52 431.121 375.164 430.895 375.688 430.441C376.219 429.988 376.484 429.344 376.484 428.508V427.43ZM395.75 420.398V433.5H393.008L392.527 431.824H392.34C392.059 432.27 391.707 432.633 391.285 432.914C390.863 433.195 390.398 433.402 389.891 433.535C389.383 433.668 388.855 433.734 388.309 433.734C387.371 433.734 386.555 433.57 385.859 433.242C385.164 432.906 384.621 432.387 384.23 431.684C383.848 430.98 383.656 430.066 383.656 428.941V420.398H387.23V428.051C387.23 428.988 387.398 429.695 387.734 430.172C388.07 430.648 388.605 430.887 389.34 430.887C390.066 430.887 390.637 430.723 391.051 430.395C391.465 430.059 391.754 429.57 391.918 428.93C392.09 428.281 392.176 427.492 392.176 426.562V420.398H395.75ZM408.641 429.609C408.641 430.5 408.43 431.254 408.008 431.871C407.594 432.48 406.973 432.945 406.145 433.266C405.316 433.578 404.285 433.734 403.051 433.734C402.137 433.734 401.352 433.676 400.695 433.559C400.047 433.441 399.391 433.246 398.727 432.973V430.02C399.438 430.34 400.199 430.605 401.012 430.816C401.832 431.02 402.551 431.121 403.168 431.121C403.863 431.121 404.359 431.02 404.656 430.816C404.961 430.605 405.113 430.332 405.113 429.996C405.113 429.777 405.051 429.582 404.926 429.41C404.809 429.23 404.551 429.031 404.152 428.812C403.754 428.586 403.129 428.293 402.277 427.934C401.457 427.59 400.781 427.242 400.25 426.891C399.727 426.539 399.336 426.125 399.078 425.648C398.828 425.164 398.703 424.551 398.703 423.809C398.703 422.598 399.172 421.688 400.109 421.078C401.055 420.461 402.316 420.152 403.895 420.152C404.707 420.152 405.48 420.234 406.215 420.398C406.957 420.562 407.719 420.824 408.5 421.184L407.422 423.762C406.773 423.48 406.16 423.25 405.582 423.07C405.012 422.891 404.43 422.801 403.836 422.801C403.312 422.801 402.918 422.871 402.652 423.012C402.387 423.152 402.254 423.367 402.254 423.656C402.254 423.867 402.32 424.055 402.453 424.219C402.594 424.383 402.859 424.566 403.25 424.77C403.648 424.965 404.23 425.219 404.996 425.531C405.738 425.836 406.383 426.156 406.93 426.492C407.477 426.82 407.898 427.23 408.195 427.723C408.492 428.207 408.641 428.836 408.641 429.609ZM416.832 420.152C418.043 420.152 419.086 420.387 419.961 420.855C420.836 421.316 421.512 421.988 421.988 422.871C422.465 423.754 422.703 424.832 422.703 426.105V427.84H414.254C414.293 428.848 414.594 429.641 415.156 430.219C415.727 430.789 416.516 431.074 417.523 431.074C418.359 431.074 419.125 430.988 419.82 430.816C420.516 430.645 421.23 430.387 421.965 430.043V432.809C421.316 433.129 420.637 433.363 419.926 433.512C419.223 433.66 418.367 433.734 417.359 433.734C416.047 433.734 414.883 433.492 413.867 433.008C412.859 432.523 412.066 431.785 411.488 430.793C410.918 429.801 410.633 428.551 410.633 427.043C410.633 425.512 410.891 424.238 411.406 423.223C411.93 422.199 412.656 421.434 413.586 420.926C414.516 420.41 415.598 420.152 416.832 420.152ZM416.855 422.695C416.16 422.695 415.582 422.918 415.121 423.363C414.668 423.809 414.406 424.508 414.336 425.461H419.352C419.344 424.93 419.246 424.457 419.059 424.043C418.879 423.629 418.605 423.301 418.238 423.059C417.879 422.816 417.418 422.695 416.855 422.695Z" fill="white"/>
</g>
<rect x="17.5" y="113.5" width="445" height="253" rx="4.5" fill="white" stroke="#218448" stroke-width="3"/>
<path d="M42.1562 132.867H47.4883C49.7695 132.867 51.4961 133.188 52.668 133.828C53.8398 134.469 54.4258 135.594 54.4258 137.203C54.4258 137.852 54.3203 138.438 54.1094 138.961C53.9062 139.484 53.6094 139.914 53.2188 140.25C52.8281 140.586 52.3516 140.805 51.7891 140.906V141.023C52.3594 141.141 52.875 141.344 53.3359 141.633C53.7969 141.914 54.1641 142.328 54.4375 142.875C54.7188 143.414 54.8594 144.133 54.8594 145.031C54.8594 146.07 54.6055 146.961 54.0977 147.703C53.5898 148.445 52.8633 149.016 51.918 149.414C50.9805 149.805 49.8633 150 48.5664 150H42.1562V132.867ZM45.7891 139.652H47.8984C48.9531 139.652 49.6836 139.488 50.0898 139.16C50.4961 138.824 50.6992 138.332 50.6992 137.684C50.6992 137.027 50.457 136.559 49.9727 136.277C49.4961 135.988 48.7383 135.844 47.6992 135.844H45.7891V139.652ZM45.7891 142.535V147H48.1562C49.25 147 50.0117 146.789 50.4414 146.367C50.8711 145.945 51.0859 145.379 51.0859 144.668C51.0859 144.246 50.9922 143.875 50.8047 143.555C50.6172 143.234 50.3008 142.984 49.8555 142.805C49.418 142.625 48.8125 142.535 48.0391 142.535H45.7891ZM68.1484 150H58.2812V132.867H68.1484V135.844H61.9141V139.605H67.7148V142.582H61.9141V147H68.1484V150ZM85.9492 141.27C85.9492 143.199 85.5781 144.812 84.8359 146.109C84.1016 147.398 83.0352 148.371 81.6367 149.027C80.2383 149.676 78.5547 150 76.5859 150H71.7344V132.867H77.1133C78.9102 132.867 80.4688 133.188 81.7891 133.828C83.1094 134.461 84.1328 135.402 84.8594 136.652C85.5859 137.895 85.9492 139.434 85.9492 141.27ZM82.1758 141.363C82.1758 140.098 81.9883 139.059 81.6133 138.246C81.2461 137.426 80.6992 136.82 79.9727 136.43C79.2539 136.039 78.3633 135.844 77.3008 135.844H75.3672V147H76.9258C78.6992 147 80.0156 146.527 80.875 145.582C81.7422 144.637 82.1758 143.23 82.1758 141.363ZM102.988 150L98.8633 136.559H98.7578C98.7734 136.879 98.7969 137.363 98.8281 138.012C98.8672 138.652 98.9023 139.336 98.9336 140.062C98.9648 140.789 98.9805 141.445 98.9805 142.031V150H95.7344V132.867H100.68L104.734 145.969H104.805L109.105 132.867H114.051V150H110.664V141.891C110.664 141.352 110.672 140.73 110.688 140.027C110.711 139.324 110.738 138.656 110.77 138.023C110.801 137.383 110.824 136.902 110.84 136.582H110.734L106.316 150H102.988ZM133.926 141.41C133.926 142.73 133.762 143.934 133.434 145.02C133.105 146.098 132.605 147.027 131.934 147.809C131.27 148.59 130.426 149.191 129.402 149.613C128.379 150.027 127.168 150.234 125.77 150.234C124.371 150.234 123.16 150.027 122.137 149.613C121.113 149.191 120.266 148.59 119.594 147.809C118.93 147.027 118.434 146.094 118.105 145.008C117.777 143.922 117.613 142.715 117.613 141.387C117.613 139.613 117.902 138.07 118.48 136.758C119.066 135.438 119.965 134.414 121.176 133.688C122.387 132.961 123.926 132.598 125.793 132.598C127.652 132.598 129.18 132.961 130.375 133.688C131.578 134.414 132.469 135.438 133.047 136.758C133.633 138.078 133.926 139.629 133.926 141.41ZM121.422 141.41C121.422 142.605 121.57 143.637 121.867 144.504C122.172 145.363 122.645 146.027 123.285 146.496C123.926 146.957 124.754 147.188 125.77 147.188C126.801 147.188 127.637 146.957 128.277 146.496C128.918 146.027 129.383 145.363 129.672 144.504C129.969 143.637 130.117 142.605 130.117 141.41C130.117 139.613 129.781 138.199 129.109 137.168C128.438 136.137 127.332 135.621 125.793 135.621C124.77 135.621 123.934 135.855 123.285 136.324C122.645 136.785 122.172 137.449 121.867 138.316C121.57 139.176 121.422 140.207 121.422 141.41ZM152.676 150H148.059L140.605 137.039H140.5C140.531 137.578 140.559 138.121 140.582 138.668C140.605 139.215 140.629 139.762 140.652 140.309C140.676 140.848 140.699 141.391 140.723 141.938V150H137.477V132.867H142.059L149.5 145.699H149.582C149.566 145.168 149.547 144.641 149.523 144.117C149.5 143.594 149.477 143.07 149.453 142.547C149.438 142.023 149.422 141.5 149.406 140.977V132.867H152.676V150ZM157 150V132.867H160.633V150H157ZM171.555 150H167.922V135.891H163.27V132.867H176.207V135.891H171.555V150ZM194.395 141.41C194.395 142.73 194.23 143.934 193.902 145.02C193.574 146.098 193.074 147.027 192.402 147.809C191.738 148.59 190.895 149.191 189.871 149.613C188.848 150.027 187.637 150.234 186.238 150.234C184.84 150.234 183.629 150.027 182.605 149.613C181.582 149.191 180.734 148.59 180.062 147.809C179.398 147.027 178.902 146.094 178.574 145.008C178.246 143.922 178.082 142.715 178.082 141.387C178.082 139.613 178.371 138.07 178.949 136.758C179.535 135.438 180.434 134.414 181.645 133.688C182.855 132.961 184.395 132.598 186.262 132.598C188.121 132.598 189.648 132.961 190.844 133.688C192.047 134.414 192.938 135.438 193.516 136.758C194.102 138.078 194.395 139.629 194.395 141.41ZM181.891 141.41C181.891 142.605 182.039 143.637 182.336 144.504C182.641 145.363 183.113 146.027 183.754 146.496C184.395 146.957 185.223 147.188 186.238 147.188C187.27 147.188 188.105 146.957 188.746 146.496C189.387 146.027 189.852 145.363 190.141 144.504C190.438 143.637 190.586 142.605 190.586 141.41C190.586 139.613 190.25 138.199 189.578 137.168C188.906 136.137 187.801 135.621 186.262 135.621C185.238 135.621 184.402 135.855 183.754 136.324C183.113 136.785 182.641 137.449 182.336 138.316C182.039 139.176 181.891 140.207 181.891 141.41ZM202.938 132.867C204.492 132.867 205.773 133.055 206.781 133.43C207.797 133.805 208.551 134.371 209.043 135.129C209.535 135.887 209.781 136.844 209.781 138C209.781 138.781 209.633 139.465 209.336 140.051C209.039 140.637 208.648 141.133 208.164 141.539C207.68 141.945 207.156 142.277 206.594 142.535L211.633 150H207.602L203.512 143.426H201.578V150H197.945V132.867H202.938ZM202.68 135.844H201.578V140.473H202.75C203.953 140.473 204.812 140.273 205.328 139.875C205.852 139.469 206.113 138.875 206.113 138.094C206.113 137.281 205.832 136.703 205.27 136.359C204.715 136.016 203.852 135.844 202.68 135.844ZM213.789 150V132.867H217.422V150H213.789ZM236.934 150H232.316L224.863 137.039H224.758C224.789 137.578 224.816 138.121 224.84 138.668C224.863 139.215 224.887 139.762 224.91 140.309C224.934 140.848 224.957 141.391 224.98 141.938V150H221.734V132.867H226.316L233.758 145.699H233.84C233.824 145.168 233.805 144.641 233.781 144.117C233.758 143.594 233.734 143.07 233.711 142.547C233.695 142.023 233.68 141.5 233.664 140.977V132.867H236.934V150ZM247.762 140.379H254.559V149.262C253.66 149.559 252.727 149.797 251.758 149.977C250.789 150.148 249.691 150.234 248.465 150.234C246.762 150.234 245.316 149.898 244.129 149.227C242.941 148.555 242.039 147.562 241.422 146.25C240.805 144.938 240.496 143.324 240.496 141.41C240.496 139.613 240.84 138.059 241.527 136.746C242.223 135.434 243.234 134.418 244.562 133.699C245.898 132.98 247.527 132.621 249.449 132.621C250.355 132.621 251.25 132.719 252.133 132.914C253.016 133.109 253.816 133.363 254.535 133.676L253.328 136.582C252.805 136.316 252.207 136.094 251.535 135.914C250.863 135.734 250.16 135.645 249.426 135.645C248.371 135.645 247.453 135.887 246.672 136.371C245.898 136.855 245.297 137.535 244.867 138.41C244.445 139.277 244.234 140.301 244.234 141.48C244.234 142.598 244.387 143.59 244.691 144.457C244.996 145.316 245.477 145.992 246.133 146.484C246.789 146.969 247.645 147.211 248.699 147.211C249.215 147.211 249.648 147.188 250 147.141C250.359 147.086 250.695 147.031 251.008 146.977V143.402H247.762V140.379Z" fill="black"/>
<path d="M16 168H464V362C464 365.314 461.314 368 458 368H22C18.6863 368 16 365.314 16 362V168Z" fill="#218448"/>
<path d="M177.547 251.702L170 204.059L178.138 203.069C182.632 202.522 186.781 205.272 187.406 209.211L190.78 230.514H197.265V229.969C197.265 225.992 200.944 222.768 205.481 222.768H218.626C223.164 222.768 226.842 225.992 226.842 229.969V230.514H300.011V230.689H300.784C305.321 230.689 309 233.912 309 237.889V285.411C305.179 285.411 301.888 283.047 301.138 279.763L298.533 268.345H188.015L185.409 279.763C184.659 283.047 181.369 285.411 177.547 285.411V251.702Z" fill="white"/>
<path d="M217.164 330V312.867H220.797V327H227.746V330H217.164ZM242.359 323.426C242.359 324.52 242.211 325.488 241.914 326.332C241.625 327.176 241.199 327.891 240.637 328.477C240.082 329.055 239.41 329.492 238.621 329.789C237.84 330.086 236.957 330.234 235.973 330.234C235.051 330.234 234.203 330.086 233.43 329.789C232.664 329.492 231.996 329.055 231.426 328.477C230.863 327.891 230.426 327.176 230.113 326.332C229.809 325.488 229.656 324.52 229.656 323.426C229.656 321.973 229.914 320.742 230.43 319.734C230.945 318.727 231.68 317.961 232.633 317.438C233.586 316.914 234.723 316.652 236.043 316.652C237.27 316.652 238.355 316.914 239.301 317.438C240.254 317.961 241 318.727 241.539 319.734C242.086 320.742 242.359 321.973 242.359 323.426ZM233.301 323.426C233.301 324.285 233.395 325.008 233.582 325.594C233.77 326.18 234.062 326.621 234.461 326.918C234.859 327.215 235.379 327.363 236.02 327.363C236.652 327.363 237.164 327.215 237.555 326.918C237.953 326.621 238.242 326.18 238.422 325.594C238.609 325.008 238.703 324.285 238.703 323.426C238.703 322.559 238.609 321.84 238.422 321.27C238.242 320.691 237.953 320.258 237.555 319.969C237.156 319.68 236.637 319.535 235.996 319.535C235.051 319.535 234.363 319.859 233.934 320.508C233.512 321.156 233.301 322.129 233.301 323.426ZM256.082 330L255.074 325.418C255.02 325.145 254.93 324.742 254.805 324.211C254.68 323.672 254.543 323.098 254.395 322.488C254.254 321.871 254.121 321.301 253.996 320.777C253.879 320.254 253.793 319.871 253.738 319.629H253.633C253.578 319.871 253.492 320.254 253.375 320.777C253.258 321.301 253.125 321.871 252.977 322.488C252.836 323.105 252.703 323.688 252.578 324.234C252.453 324.773 252.359 325.184 252.297 325.465L251.242 330H247.398L243.672 316.898H247.234L248.746 322.699C248.848 323.105 248.945 323.59 249.039 324.152C249.133 324.707 249.215 325.246 249.285 325.77C249.363 326.285 249.422 326.695 249.461 327H249.555C249.57 326.773 249.602 326.473 249.648 326.098C249.703 325.723 249.762 325.336 249.824 324.938C249.895 324.531 249.957 324.168 250.012 323.848C250.074 323.52 250.121 323.297 250.152 323.18L251.77 316.898H255.707L257.242 323.18C257.297 323.406 257.367 323.766 257.453 324.258C257.547 324.75 257.629 325.258 257.699 325.781C257.77 326.297 257.809 326.703 257.816 327H257.91C257.941 326.734 257.996 326.34 258.074 325.816C258.152 325.293 258.242 324.746 258.344 324.176C258.453 323.598 258.562 323.105 258.672 322.699L260.242 316.898H263.746L259.973 330H256.082Z" fill="white"/>
<mask id="path-19-inside-1_6207_33571" fill="white">
<path d="M369.04 129C369.57 129 370 129.413 370 129.923V135.462C370 135.971 369.57 136.385 369.04 136.385H363.281C362.751 136.385 362.322 135.971 362.321 135.462C362.321 134.952 362.751 134.538 363.281 134.538H367.354C367.303 134.501 367.255 134.459 367.212 134.412C365.205 132.233 362.219 130.846 358.875 130.846C352.794 130.846 347.92 135.422 347.92 141C347.92 146.578 352.794 151.153 358.875 151.153C363.483 151.153 366.54 148.672 368.144 144.812C368.34 144.338 368.898 144.108 369.391 144.297C369.883 144.486 370.123 145.023 369.927 145.496C368.086 149.93 364.403 153 358.875 153C351.795 153 346 147.657 346 141C346 134.343 351.795 129 358.875 129C362.477 129 365.74 130.381 368.08 132.611V129.923C368.08 129.413 368.51 129 369.04 129ZM359 137.467C359.287 137.467 359.557 137.536 359.797 137.657C360.012 137.584 360.26 137.607 360.461 137.742C360.876 138.021 361.488 138.527 362.035 139.174C362.578 139.815 363.106 140.652 363.263 141.59C363.326 141.968 363.056 142.323 362.66 142.384C362.264 142.444 361.892 142.187 361.828 141.809C361.727 141.206 361.366 140.591 360.904 140.045C360.862 139.995 360.818 139.946 360.775 139.898V141.7C360.775 141.887 360.745 142.068 360.691 142.237C360.742 142.343 360.771 142.462 360.771 142.587V147.444C360.771 147.89 360.41 148.251 359.965 148.251C359.519 148.251 359.158 147.89 359.157 147.444V143.468C359.106 143.472 359.053 143.476 359 143.476C358.946 143.476 358.891 143.472 358.838 143.467V147.444C358.838 147.89 358.476 148.251 358.031 148.251C357.586 148.251 357.224 147.89 357.224 147.444V142.587C357.224 142.46 357.253 142.34 357.306 142.233C357.253 142.065 357.224 141.886 357.224 141.7V139.803C357.151 139.88 357.078 139.961 357.007 140.045C356.545 140.591 356.184 141.206 356.083 141.809C356.02 142.186 355.647 142.444 355.251 142.384C354.855 142.323 354.585 141.968 354.648 141.59C354.806 140.652 355.333 139.815 355.876 139.174C356.423 138.527 357.035 138.021 357.45 137.742C357.666 137.597 357.935 137.583 358.16 137.677C358.41 137.543 358.697 137.467 359 137.467ZM358.996 134.537C359.709 134.537 360.288 135.089 360.288 135.77C360.288 136.45 359.709 137.002 358.996 137.002C358.283 137.002 357.705 136.45 357.705 135.77C357.705 135.089 358.283 134.537 358.996 134.537Z"/>
</mask>
<path d="M369.04 129C369.57 129 370 129.413 370 129.923V135.462C370 135.971 369.57 136.385 369.04 136.385H363.281C362.751 136.385 362.322 135.971 362.321 135.462C362.321 134.952 362.751 134.538 363.281 134.538H367.354C367.303 134.501 367.255 134.459 367.212 134.412C365.205 132.233 362.219 130.846 358.875 130.846C352.794 130.846 347.92 135.422 347.92 141C347.92 146.578 352.794 151.153 358.875 151.153C363.483 151.153 366.54 148.672 368.144 144.812C368.34 144.338 368.898 144.108 369.391 144.297C369.883 144.486 370.123 145.023 369.927 145.496C368.086 149.93 364.403 153 358.875 153C351.795 153 346 147.657 346 141C346 134.343 351.795 129 358.875 129C362.477 129 365.74 130.381 368.08 132.611V129.923C368.08 129.413 368.51 129 369.04 129ZM359 137.467C359.287 137.467 359.557 137.536 359.797 137.657C360.012 137.584 360.26 137.607 360.461 137.742C360.876 138.021 361.488 138.527 362.035 139.174C362.578 139.815 363.106 140.652 363.263 141.59C363.326 141.968 363.056 142.323 362.66 142.384C362.264 142.444 361.892 142.187 361.828 141.809C361.727 141.206 361.366 140.591 360.904 140.045C360.862 139.995 360.818 139.946 360.775 139.898V141.7C360.775 141.887 360.745 142.068 360.691 142.237C360.742 142.343 360.771 142.462 360.771 142.587V147.444C360.771 147.89 360.41 148.251 359.965 148.251C359.519 148.251 359.158 147.89 359.157 147.444V143.468C359.106 143.472 359.053 143.476 359 143.476C358.946 143.476 358.891 143.472 358.838 143.467V147.444C358.838 147.89 358.476 148.251 358.031 148.251C357.586 148.251 357.224 147.89 357.224 147.444V142.587C357.224 142.46 357.253 142.34 357.306 142.233C357.253 142.065 357.224 141.886 357.224 141.7V139.803C357.151 139.88 357.078 139.961 357.007 140.045C356.545 140.591 356.184 141.206 356.083 141.809C356.02 142.186 355.647 142.444 355.251 142.384C354.855 142.323 354.585 141.968 354.648 141.59C354.806 140.652 355.333 139.815 355.876 139.174C356.423 138.527 357.035 138.021 357.45 137.742C357.666 137.597 357.935 137.583 358.16 137.677C358.41 137.543 358.697 137.467 359 137.467ZM358.996 134.537C359.709 134.537 360.288 135.089 360.288 135.77C360.288 136.45 359.709 137.002 358.996 137.002C358.283 137.002 357.705 136.45 357.705 135.77C357.705 135.089 358.283 134.537 358.996 134.537Z" fill="black"/>
<path d="M369.04 129L369.04 128H369.04V129ZM370 129.923H371V129.923L370 129.923ZM370 135.462L371 135.462V135.462H370ZM369.04 136.385V137.385H369.04L369.04 136.385ZM363.281 136.385L363.281 137.385H363.281V136.385ZM362.321 135.462H361.321V135.462L362.321 135.462ZM363.281 134.538V133.538H363.281L363.281 134.538ZM367.354 134.538V135.538C367.787 135.538 368.171 135.259 368.305 134.847C368.438 134.434 368.291 133.983 367.941 133.729L367.354 134.538ZM367.212 134.412L367.948 133.735L367.948 133.735L367.212 134.412ZM358.875 130.846L358.875 129.846H358.875V130.846ZM347.92 141H346.92V141L347.92 141ZM358.875 151.153V152.153H358.875L358.875 151.153ZM368.144 144.812L369.067 145.195L369.067 145.195L368.144 144.812ZM369.391 144.297L369.749 143.363L369.749 143.363L369.391 144.297ZM369.927 145.496L370.85 145.88L370.85 145.88L369.927 145.496ZM358.875 153V154H358.875L358.875 153ZM346 141H345V141L346 141ZM358.875 129L358.875 128H358.875V129ZM368.08 132.611L367.39 133.335C367.68 133.611 368.106 133.688 368.474 133.531C368.842 133.373 369.08 133.011 369.08 132.611H368.08ZM368.08 129.923L367.08 129.923V129.923H368.08ZM359 137.467L359 136.467H359V137.467ZM359.797 137.657L359.347 138.55C359.587 138.671 359.866 138.69 360.12 138.603L359.797 137.657ZM360.461 137.742L361.019 136.912L361.018 136.912L360.461 137.742ZM362.035 139.174L362.799 138.528L362.799 138.528L362.035 139.174ZM363.263 141.59L364.249 141.425L364.249 141.424L363.263 141.59ZM362.66 142.384L362.811 143.372L362.812 143.372L362.66 142.384ZM361.828 141.809L360.842 141.974L360.842 141.974L361.828 141.809ZM360.904 140.045L361.668 139.399L361.668 139.399L360.904 140.045ZM360.775 139.898L361.519 139.23C361.242 138.922 360.804 138.816 360.417 138.965C360.031 139.113 359.775 139.484 359.775 139.898H360.775ZM360.775 141.7L361.775 141.701V141.7H360.775ZM360.691 142.237L359.738 141.935C359.661 142.178 359.68 142.441 359.79 142.671L360.691 142.237ZM360.771 142.587H361.771V142.587L360.771 142.587ZM360.771 147.444L361.771 147.445V147.444H360.771ZM359.965 148.251V149.251H359.966L359.965 148.251ZM359.157 147.444H358.157V147.445L359.157 147.444ZM359.157 143.468H360.157C360.157 143.187 360.039 142.92 359.833 142.73C359.626 142.541 359.349 142.447 359.07 142.472L359.157 143.468ZM359 143.476V144.476H359.001L359 143.476ZM358.838 143.467L358.928 142.471C358.648 142.446 358.371 142.539 358.163 142.729C357.956 142.918 357.838 143.186 357.838 143.467H358.838ZM358.838 147.444L359.838 147.445V147.444H358.838ZM358.031 148.251V149.251H358.032L358.031 148.251ZM357.224 147.444H356.224V147.445L357.224 147.444ZM357.224 142.587L356.224 142.587V142.587H357.224ZM357.306 142.233L358.204 142.672C358.317 142.442 358.336 142.178 358.26 141.933L357.306 142.233ZM357.224 141.7H356.224V141.701L357.224 141.7ZM357.224 139.803H358.224C358.224 139.392 357.973 139.023 357.591 138.873C357.209 138.722 356.773 138.82 356.493 139.12L357.224 139.803ZM357.007 140.045L356.244 139.399L356.243 139.399L357.007 140.045ZM356.083 141.809L357.069 141.974L357.069 141.974L356.083 141.809ZM355.251 142.384L355.1 143.372L355.101 143.372L355.251 142.384ZM354.648 141.59L353.662 141.424L353.662 141.425L354.648 141.59ZM355.876 139.174L355.113 138.528L355.113 138.528L355.876 139.174ZM357.45 137.742L356.893 136.912L356.893 136.912L357.45 137.742ZM358.16 137.677L357.774 138.599C358.052 138.716 358.368 138.7 358.633 138.558L358.16 137.677ZM358.996 134.537L358.996 133.537H358.996L358.996 134.537ZM360.288 135.77L361.288 135.77V135.77L360.288 135.77ZM358.996 137.002L358.996 138.002H358.996L358.996 137.002ZM357.705 135.77L356.705 135.77V135.77L357.705 135.77ZM369.04 129L369.04 130C369.042 130 369.035 130 369.026 129.991C369.021 129.987 369.015 129.979 369.009 129.966C369.003 129.953 369 129.938 369 129.923L370 129.923L371 129.923C371 128.824 370.085 128 369.04 128L369.04 129ZM370 129.923H369V135.462H370H371V129.923H370ZM370 135.462L369 135.461C369 135.447 369.003 135.431 369.009 135.418C369.015 135.406 369.021 135.398 369.026 135.394C369.035 135.385 369.042 135.385 369.04 135.385L369.04 136.385L369.04 137.385C370.085 137.385 370.999 136.56 371 135.462L370 135.462ZM369.04 136.385V135.385H363.281V136.385V137.385H369.04V136.385ZM363.281 136.385L363.281 135.385C363.28 135.385 363.287 135.385 363.296 135.394C363.3 135.398 363.307 135.406 363.312 135.418C363.318 135.431 363.321 135.447 363.321 135.461L362.321 135.462L361.321 135.462C361.322 136.56 362.236 137.385 363.281 137.385L363.281 136.385ZM362.321 135.462H363.321C363.321 135.476 363.318 135.492 363.312 135.505C363.307 135.517 363.3 135.525 363.296 135.529C363.287 135.538 363.28 135.538 363.281 135.538L363.281 134.538L363.281 133.538C362.235 133.538 361.321 134.364 361.321 135.462H362.321ZM363.281 134.538V135.538H367.354V134.538V133.538H363.281V134.538ZM367.354 134.538L367.941 133.729C367.943 133.73 367.945 133.732 367.948 133.735L367.212 134.412L366.476 135.089C366.565 135.186 366.663 135.273 366.766 135.348L367.354 134.538ZM367.212 134.412L367.948 133.735C365.75 131.349 362.497 129.846 358.875 129.846L358.875 130.846L358.875 131.846C361.941 131.846 364.66 133.117 366.476 135.09L367.212 134.412ZM358.875 130.846V129.846C352.31 129.846 346.92 134.803 346.92 141H347.92H348.92C348.92 136.04 353.277 131.846 358.875 131.846V130.846ZM347.92 141L346.92 141C346.92 147.197 352.31 152.153 358.875 152.153V151.153V150.153C353.277 150.153 348.92 145.959 348.92 141L347.92 141ZM358.875 151.153L358.875 152.153C361.367 152.153 363.492 151.479 365.218 150.243C366.939 149.012 368.208 147.263 369.067 145.195L368.144 144.812L367.22 144.428C366.475 146.221 365.415 147.643 364.054 148.617C362.699 149.587 360.991 150.153 358.875 150.153L358.875 151.153ZM368.144 144.812L369.067 145.195C369.062 145.206 369.056 145.216 369.049 145.222C369.043 145.228 369.039 145.23 369.038 145.23C369.036 145.231 369.036 145.231 369.035 145.231C369.034 145.231 369.034 145.231 369.033 145.231C369.032 145.231 369.032 145.23 369.032 145.23L369.391 144.297L369.749 143.363C368.775 142.99 367.634 143.43 367.22 144.428L368.144 144.812ZM369.391 144.297L369.032 145.23C369.032 145.23 369.031 145.23 369.029 145.229C369.026 145.227 369.024 145.225 369.021 145.222C369.015 145.217 369.009 145.209 369.004 145.198C368.999 145.188 368.996 145.174 368.995 145.157C368.995 145.14 368.998 145.124 369.003 145.113L369.927 145.496L370.85 145.88C371.274 144.859 370.739 143.744 369.749 143.363L369.391 144.297ZM369.927 145.496L369.003 145.113C367.296 149.224 363.946 152 358.875 152L358.875 153L358.875 154C364.861 154 368.876 150.635 370.85 145.88L369.927 145.496ZM358.875 153V152C352.277 152 347 147.036 347 141L346 141L345 141C345 148.277 351.314 154 358.875 154V153ZM346 141H347C347 134.964 352.277 130 358.875 130V129V128C351.314 128 345 133.723 345 141H346ZM358.875 129L358.875 130C362.22 130 365.236 131.282 367.39 133.335L368.08 132.611L368.77 131.887C366.244 129.48 362.735 128 358.875 128L358.875 129ZM368.08 132.611H369.08V129.923H368.08H367.08V132.611H368.08ZM368.08 129.923L369.08 129.923C369.08 129.938 369.077 129.953 369.071 129.966C369.065 129.979 369.059 129.987 369.054 129.991C369.045 130 369.038 130 369.04 130V129V128C367.995 128 367.08 128.824 367.08 129.923L368.08 129.923ZM359 137.467L359 138.467C359.123 138.467 359.24 138.496 359.347 138.55L359.797 137.657L360.247 136.764C359.874 136.576 359.45 136.467 359 136.467L359 137.467ZM359.797 137.657L360.12 138.603C360.058 138.625 359.977 138.622 359.904 138.572L360.461 137.742L361.018 136.912C360.543 136.593 359.966 136.543 359.473 136.711L359.797 137.657ZM360.461 137.742L359.903 138.572C360.247 138.803 360.789 139.249 361.272 139.82L362.035 139.174L362.799 138.528C362.188 137.806 361.505 137.239 361.019 136.912L360.461 137.742ZM362.035 139.174L361.272 139.82C361.758 140.395 362.161 141.068 362.276 141.755L363.263 141.59L364.249 141.424C364.05 140.236 363.397 139.235 362.799 138.528L362.035 139.174ZM363.263 141.59L362.276 141.755C362.241 141.54 362.396 141.413 362.509 141.395L362.66 142.384L362.812 143.372C363.715 143.234 364.411 142.395 364.249 141.425L363.263 141.59ZM362.66 142.384L362.509 141.395C362.613 141.379 362.781 141.443 362.814 141.643L361.828 141.809L360.842 141.974C361.003 142.93 361.915 143.509 362.811 143.372L362.66 142.384ZM361.828 141.809L362.814 141.643C362.671 140.789 362.186 140.011 361.668 139.399L360.904 140.045L360.141 140.691C360.547 141.171 360.783 141.622 360.842 141.974L361.828 141.809ZM360.904 140.045L361.668 139.399C361.615 139.336 361.562 139.277 361.519 139.23L360.775 139.898L360.032 140.567C360.075 140.615 360.11 140.654 360.141 140.691L360.904 140.045ZM360.775 139.898H359.775V141.7H360.775H361.775V139.898H360.775ZM360.775 141.7L359.775 141.7C359.775 141.779 359.763 141.858 359.738 141.935L360.691 142.237L361.645 142.54C361.728 142.278 361.775 141.996 361.775 141.701L360.775 141.7ZM360.691 142.237L359.79 142.671C359.779 142.648 359.771 142.618 359.771 142.587L360.771 142.587L361.771 142.587C361.771 142.305 361.706 142.039 361.592 141.804L360.691 142.237ZM360.771 142.587H359.771V147.444H360.771H361.771V142.587H360.771ZM360.771 147.444L359.771 147.444C359.772 147.337 359.858 147.251 359.964 147.251L359.965 148.251L359.966 149.251C360.962 149.25 361.771 148.442 361.771 147.445L360.771 147.444ZM359.965 148.251V147.251C360.071 147.251 360.157 147.337 360.157 147.444L359.157 147.444L358.157 147.445C358.158 148.443 358.968 149.251 359.965 149.251V148.251ZM359.157 147.444H360.157V143.468H359.157H358.157V147.444H359.157ZM359.157 143.468L359.07 142.472C359.035 142.475 359.013 142.476 358.999 142.476L359 143.476L359.001 144.476C359.093 144.476 359.176 144.47 359.245 144.464L359.157 143.468ZM359 143.476V142.476C358.991 142.476 358.972 142.475 358.928 142.471L358.838 143.467L358.748 144.463C358.81 144.468 358.9 144.476 359 144.476V143.476ZM358.838 143.467H357.838V147.444H358.838H359.838V143.467H358.838ZM358.838 147.444L357.838 147.444C357.838 147.337 357.924 147.251 358.03 147.251L358.031 148.251L358.032 149.251C359.029 149.25 359.837 148.442 359.838 147.445L358.838 147.444ZM358.031 148.251V147.251C358.137 147.251 358.224 147.337 358.224 147.444L357.224 147.444L356.224 147.445C356.224 148.443 357.034 149.251 358.031 149.251V148.251ZM357.224 147.444H358.224V142.587H357.224H356.224V147.444H357.224ZM357.224 142.587L358.224 142.587C358.224 142.619 358.216 142.649 358.204 142.672L357.306 142.233L356.407 141.794C356.291 142.032 356.224 142.301 356.224 142.587L357.224 142.587ZM357.306 142.233L358.26 141.933C358.236 141.859 358.224 141.781 358.224 141.7L357.224 141.7L356.224 141.701C356.224 141.991 356.269 142.271 356.352 142.534L357.306 142.233ZM357.224 141.7H358.224V139.803H357.224H356.224V141.7H357.224ZM357.224 139.803L356.493 139.12C356.414 139.204 356.329 139.298 356.244 139.399L357.007 140.045L357.77 140.691C357.827 140.624 357.888 140.557 357.954 140.486L357.224 139.803ZM357.007 140.045L356.243 139.399C355.725 140.011 355.24 140.789 355.097 141.643L356.083 141.809L357.069 141.974C357.128 141.622 357.364 141.171 357.77 140.691L357.007 140.045ZM356.083 141.809L355.097 141.643C355.131 141.442 355.298 141.379 355.401 141.395L355.251 142.384L355.101 143.372C355.996 143.508 356.909 142.931 357.069 141.974L356.083 141.809ZM355.251 142.384L355.402 141.395C355.515 141.412 355.671 141.541 355.635 141.755L354.648 141.59L353.662 141.425C353.5 142.395 354.195 143.234 355.1 143.372L355.251 142.384ZM354.648 141.59L355.635 141.755C355.75 141.068 356.153 140.395 356.639 139.82L355.876 139.174L355.113 138.528C354.514 139.235 353.861 140.236 353.662 141.424L354.648 141.59ZM355.876 139.174L356.639 139.82C357.123 139.249 357.664 138.803 358.008 138.572L357.45 137.742L356.893 136.912C356.406 137.239 355.724 137.806 355.113 138.528L355.876 139.174ZM357.45 137.742L358.007 138.573C357.925 138.628 357.837 138.626 357.774 138.599L358.16 137.677L358.546 136.754C358.033 136.54 357.407 136.567 356.893 136.912L357.45 137.742ZM358.16 137.677L358.633 138.558C358.74 138.5 358.864 138.467 359 138.467V137.467V136.467C358.529 136.467 358.08 136.585 357.687 136.796L358.16 137.677ZM358.996 134.537L358.996 135.537C359.202 135.537 359.288 135.686 359.288 135.77L360.288 135.77L361.288 135.77C361.288 134.492 360.216 133.538 358.996 133.537L358.996 134.537ZM360.288 135.77L359.288 135.769C359.288 135.853 359.202 136.002 358.996 136.002L358.996 137.002L358.996 138.002C360.216 138.002 361.288 137.047 361.288 135.77L360.288 135.77ZM358.996 137.002L358.996 136.002C358.791 136.002 358.705 135.855 358.705 135.769L357.705 135.77L356.705 135.77C356.705 137.046 357.775 138.002 358.996 138.002L358.996 137.002ZM357.705 135.77L358.705 135.77C358.705 135.684 358.791 135.537 358.996 135.537L358.996 134.537L358.996 133.537C357.775 133.537 356.705 134.493 356.705 135.77L357.705 135.77Z" fill="black" mask="url(#path-19-inside-1_6207_33571)"/>
<path d="M390.844 141.434C390.844 142.816 390.734 144.051 390.516 145.137C390.305 146.223 389.961 147.145 389.484 147.902C389.016 148.66 388.398 149.238 387.633 149.637C386.867 150.035 385.938 150.234 384.844 150.234C383.469 150.234 382.34 149.887 381.457 149.191C380.574 148.488 379.922 147.48 379.5 146.168C379.078 144.848 378.867 143.27 378.867 141.434C378.867 139.582 379.059 138 379.441 136.688C379.832 135.367 380.465 134.355 381.34 133.652C382.215 132.949 383.383 132.598 384.844 132.598C386.211 132.598 387.336 132.949 388.219 133.652C389.109 134.348 389.77 135.355 390.199 136.676C390.629 137.988 390.844 139.574 390.844 141.434ZM382.465 141.434C382.465 142.738 382.535 143.828 382.676 144.703C382.824 145.57 383.07 146.223 383.414 146.66C383.758 147.098 384.234 147.316 384.844 147.316C385.445 147.316 385.918 147.102 386.262 146.672C386.613 146.234 386.863 145.582 387.012 144.715C387.16 143.84 387.234 142.746 387.234 141.434C387.234 140.129 387.16 139.039 387.012 138.164C386.863 137.289 386.613 136.633 386.262 136.195C385.918 135.75 385.445 135.527 384.844 135.527C384.234 135.527 383.758 135.75 383.414 136.195C383.07 136.633 382.824 137.289 382.676 138.164C382.535 139.039 382.465 140.129 382.465 141.434ZM404.578 141.434C404.578 142.816 404.469 144.051 404.25 145.137C404.039 146.223 403.695 147.145 403.219 147.902C402.75 148.66 402.133 149.238 401.367 149.637C400.602 150.035 399.672 150.234 398.578 150.234C397.203 150.234 396.074 149.887 395.191 149.191C394.309 148.488 393.656 147.48 393.234 146.168C392.812 144.848 392.602 143.27 392.602 141.434C392.602 139.582 392.793 138 393.176 136.688C393.566 135.367 394.199 134.355 395.074 133.652C395.949 132.949 397.117 132.598 398.578 132.598C399.945 132.598 401.07 132.949 401.953 133.652C402.844 134.348 403.504 135.355 403.934 136.676C404.363 137.988 404.578 139.574 404.578 141.434ZM396.199 141.434C396.199 142.738 396.27 143.828 396.41 144.703C396.559 145.57 396.805 146.223 397.148 146.66C397.492 147.098 397.969 147.316 398.578 147.316C399.18 147.316 399.652 147.102 399.996 146.672C400.348 146.234 400.598 145.582 400.746 144.715C400.895 143.84 400.969 142.746 400.969 141.434C400.969 140.129 400.895 139.039 400.746 138.164C400.598 137.289 400.348 136.633 399.996 136.195C399.652 135.75 399.18 135.527 398.578 135.527C397.969 135.527 397.492 135.75 397.148 136.195C396.805 136.633 396.559 137.289 396.41 138.164C396.27 139.039 396.199 140.129 396.199 141.434ZM406.84 148.324C406.84 147.59 407.039 147.074 407.438 146.777C407.844 146.48 408.332 146.332 408.902 146.332C409.457 146.332 409.934 146.48 410.332 146.777C410.738 147.074 410.941 147.59 410.941 148.324C410.941 149.027 410.738 149.535 410.332 149.848C409.934 150.16 409.457 150.316 408.902 150.316C408.332 150.316 407.844 150.16 407.438 149.848C407.039 149.535 406.84 149.027 406.84 148.324ZM406.84 138.645C406.84 137.91 407.039 137.395 407.438 137.098C407.844 136.801 408.332 136.652 408.902 136.652C409.457 136.652 409.934 136.801 410.332 137.098C410.738 137.395 410.941 137.91 410.941 138.645C410.941 139.355 410.738 139.867 410.332 140.18C409.934 140.484 409.457 140.637 408.902 140.637C408.332 140.637 407.844 140.484 407.438 140.18C407.039 139.867 406.84 139.355 406.84 138.645ZM425.156 141.434C425.156 142.816 425.047 144.051 424.828 145.137C424.617 146.223 424.273 147.145 423.797 147.902C423.328 148.66 422.711 149.238 421.945 149.637C421.18 150.035 420.25 150.234 419.156 150.234C417.781 150.234 416.652 149.887 415.77 149.191C414.887 148.488 414.234 147.48 413.812 146.168C413.391 144.848 413.18 143.27 413.18 141.434C413.18 139.582 413.371 138 413.754 136.688C414.145 135.367 414.777 134.355 415.652 133.652C416.527 132.949 417.695 132.598 419.156 132.598C420.523 132.598 421.648 132.949 422.531 133.652C423.422 134.348 424.082 135.355 424.512 136.676C424.941 137.988 425.156 139.574 425.156 141.434ZM416.777 141.434C416.777 142.738 416.848 143.828 416.988 144.703C417.137 145.57 417.383 146.223 417.727 146.66C418.07 147.098 418.547 147.316 419.156 147.316C419.758 147.316 420.23 147.102 420.574 146.672C420.926 146.234 421.176 145.582 421.324 144.715C421.473 143.84 421.547 142.746 421.547 141.434C421.547 140.129 421.473 139.039 421.324 138.164C421.176 137.289 420.926 136.633 420.574 136.195C420.23 135.75 419.758 135.527 419.156 135.527C418.547 135.527 418.07 135.75 417.727 136.195C417.383 136.633 417.137 137.289 416.988 138.164C416.848 139.039 416.777 140.129 416.777 141.434ZM438.891 141.434C438.891 142.816 438.781 144.051 438.562 145.137C438.352 146.223 438.008 147.145 437.531 147.902C437.062 148.66 436.445 149.238 435.68 149.637C434.914 150.035 433.984 150.234 432.891 150.234C431.516 150.234 430.387 149.887 429.504 149.191C428.621 148.488 427.969 147.48 427.547 146.168C427.125 144.848 426.914 143.27 426.914 141.434C426.914 139.582 427.105 138 427.488 136.688C427.879 135.367 428.512 134.355 429.387 133.652C430.262 132.949 431.43 132.598 432.891 132.598C434.258 132.598 435.383 132.949 436.266 133.652C437.156 134.348 437.816 135.355 438.246 136.676C438.676 137.988 438.891 139.574 438.891 141.434ZM430.512 141.434C430.512 142.738 430.582 143.828 430.723 144.703C430.871 145.57 431.117 146.223 431.461 146.66C431.805 147.098 432.281 147.316 432.891 147.316C433.492 147.316 433.965 147.102 434.309 146.672C434.66 146.234 434.91 145.582 435.059 144.715C435.207 143.84 435.281 142.746 435.281 141.434C435.281 140.129 435.207 139.039 435.059 138.164C434.91 137.289 434.66 136.633 434.309 136.195C433.965 135.75 433.492 135.527 432.891 135.527C432.281 135.527 431.805 135.75 431.461 136.195C431.117 136.633 430.871 137.289 430.723 138.164C430.582 139.039 430.512 140.129 430.512 141.434Z" fill="black"/>
<defs>
<filter id="filter0_d_6207_33571" x="12" y="382" width="224" height="88" filterUnits="userSpaceOnUse" color-interpolation-filters="sRGB">
<feFlood flood-opacity="0" result="BackgroundImageFix"/>
<feColorMatrix in="SourceAlpha" type="matrix" values="0 0 0 0 0 0 0 0 0 0 0 0 0 0 0 0 0 0 127 0" result="hardAlpha"/>
<feOffset dy="2"/>
<feGaussianBlur stdDeviation="2"/>
<feComposite in2="hardAlpha" operator="out"/>
<feColorMatrix type="matrix" values="0 0 0 0 0 0 0 0 0 0 0 0 0 0 0 0 0 0 0.25 0"/>
<feBlend mode="normal" in2="BackgroundImageFix" result="effect1_dropShadow_6207_33571"/>
<feBlend mode="normal" in="SourceGraphic" in2="effect1_dropShadow_6207_33571" result="shape"/>
</filter>
<filter id="filter1_d_6207_33571" x="244" y="382" width="224" height="88" filterUnits="userSpaceOnUse" color-interpolation-filters="sRGB">
<feFlood flood-opacity="0" result="BackgroundImageFix"/>
<feColorMatrix in="SourceAlpha" type="matrix" values="0 0 0 0 0 0 0 0 0 0 0 0 0 0 0 0 0 0 127 0" result="hardAlpha"/>
<feOffset dy="2"/>
<feGaussianBlur stdDeviation="2"/>
<feComposite in2="hardAlpha" operator="out"/>
<feColorMatrix type="matrix" values="0 0 0 0 0 0 0 0 0 0 0 0 0 0 0 0 0 0 0.25 0"/>
<feBlend mode="normal" in2="BackgroundImageFix" result="effect1_dropShadow_6207_33571"/>
<feBlend mode="normal" in="SourceGraphic" in2="effect1_dropShadow_6207_33571" result="shape"/>
</filter>
</defs>
</svg>
