<svg width="480" height="480" viewBox="0 0 480 480" fill="none" xmlns="http://www.w3.org/2000/svg">
<rect width="480" height="480" fill="white"/>
<rect x="17.5" y="17.5" width="445" height="445" rx="4.5" fill="white" stroke="#FFEE58" stroke-width="3"/>
<path d="M186.359 45.1562C189.307 45.1562 191.458 45.7917 192.812 47.0625C194.167 48.3229 194.844 50.0625 194.844 52.2812C194.844 53.2812 194.693 54.2396 194.391 55.1562C194.089 56.0625 193.594 56.8698 192.906 57.5781C192.229 58.2865 191.323 58.849 190.188 59.2656C189.052 59.6719 187.651 59.875 185.984 59.875H183.906V68H179.062V45.1562H186.359ZM186.109 49.125H183.906V55.9062H185.5C186.406 55.9062 187.193 55.7865 187.859 55.5469C188.526 55.3073 189.042 54.9323 189.406 54.4219C189.771 53.9115 189.953 53.2552 189.953 52.4531C189.953 51.3281 189.641 50.4948 189.016 49.9531C188.391 49.401 187.422 49.125 186.109 49.125ZM213.141 68L211.484 62.5625H203.156L201.5 68H196.281L204.344 45.0625H210.266L218.359 68H213.141ZM210.328 58.5L208.672 53.1875C208.568 52.8333 208.427 52.3802 208.25 51.8281C208.083 51.2656 207.911 50.6979 207.734 50.125C207.568 49.5417 207.432 49.0365 207.328 48.6094C207.224 49.0365 207.078 49.5677 206.891 50.2031C206.714 50.8281 206.542 51.4219 206.375 51.9844C206.208 52.5469 206.089 52.9479 206.016 53.1875L204.375 58.5H210.328ZM239.844 45.1562V59.9375C239.844 61.5104 239.495 62.9323 238.797 64.2031C238.109 65.4635 237.062 66.4635 235.656 67.2031C234.26 67.9427 232.5 68.3125 230.375 68.3125C227.354 68.3125 225.052 67.5417 223.469 66C221.885 64.4583 221.094 62.4167 221.094 59.875V45.1562H225.922V59.1406C225.922 61.026 226.307 62.349 227.078 63.1094C227.849 63.8698 228.99 64.25 230.5 64.25C231.562 64.25 232.422 64.0677 233.078 63.7031C233.745 63.3385 234.234 62.776 234.547 62.0156C234.859 61.2552 235.016 60.2865 235.016 59.1094V45.1562H239.844ZM258.922 61.6562C258.922 63.0104 258.594 64.1875 257.938 65.1875C257.281 66.1875 256.323 66.9583 255.062 67.5C253.812 68.0417 252.292 68.3125 250.5 68.3125C249.708 68.3125 248.932 68.2604 248.172 68.1562C247.422 68.0521 246.698 67.901 246 67.7031C245.312 67.4948 244.656 67.2396 244.031 66.9375V62.4375C245.115 62.9167 246.24 63.349 247.406 63.7344C248.573 64.1198 249.729 64.3125 250.875 64.3125C251.667 64.3125 252.302 64.2083 252.781 64C253.271 63.7917 253.625 63.5052 253.844 63.1406C254.062 62.776 254.172 62.3594 254.172 61.8906C254.172 61.3177 253.979 60.8281 253.594 60.4219C253.208 60.0156 252.677 59.6354 252 59.2812C251.333 58.9271 250.578 58.5469 249.734 58.1406C249.203 57.8906 248.625 57.5885 248 57.2344C247.375 56.8698 246.781 56.4271 246.219 55.9062C245.656 55.3854 245.193 54.7552 244.828 54.0156C244.474 53.2656 244.297 52.3698 244.297 51.3281C244.297 49.9635 244.609 48.7969 245.234 47.8281C245.859 46.8594 246.75 46.1198 247.906 45.6094C249.073 45.0885 250.448 44.8281 252.031 44.8281C253.219 44.8281 254.349 44.9688 255.422 45.25C256.505 45.5208 257.635 45.9167 258.812 46.4375L257.25 50.2031C256.198 49.776 255.255 49.4479 254.422 49.2188C253.589 48.9792 252.74 48.8594 251.875 48.8594C251.271 48.8594 250.755 48.9583 250.328 49.1562C249.901 49.3438 249.578 49.6146 249.359 49.9688C249.141 50.3125 249.031 50.7135 249.031 51.1719C249.031 51.7135 249.188 52.1719 249.5 52.5469C249.823 52.9115 250.302 53.2656 250.938 53.6094C251.583 53.9531 252.385 54.3542 253.344 54.8125C254.51 55.3646 255.505 55.9427 256.328 56.5469C257.161 57.1406 257.802 57.8438 258.25 58.6562C258.698 59.4583 258.922 60.4583 258.922 61.6562ZM276.219 68H263.062V45.1562H276.219V49.125H267.906V54.1406H275.641V58.1094H267.906V64H276.219V68ZM299.953 56.3594C299.953 58.9323 299.458 61.0833 298.469 62.8125C297.49 64.5312 296.068 65.8281 294.203 66.7031C292.339 67.5677 290.094 68 287.469 68H281V45.1562H288.172C290.568 45.1562 292.646 45.5833 294.406 46.4375C296.167 47.2812 297.531 48.5365 298.5 50.2031C299.469 51.8594 299.953 53.9115 299.953 56.3594ZM294.922 56.4844C294.922 54.7969 294.672 53.4115 294.172 52.3281C293.682 51.2344 292.953 50.4271 291.984 49.9062C291.026 49.3854 289.839 49.125 288.422 49.125H285.844V64H287.922C290.286 64 292.042 63.3698 293.188 62.1094C294.344 60.849 294.922 58.974 294.922 56.4844Z" fill="#31344E"/>
<path d="M16 94H464V458C464 461.314 461.314 464 458 464H22C18.6863 464 16 461.314 16 458V94Z" fill="#FFEE58"/>
<path d="M138 325.5C150.465 325.5 162.42 320.548 171.234 311.734C180.048 302.92 185 290.965 185 278.5C185 266.035 180.048 254.08 171.234 245.266C162.42 236.452 150.465 231.5 138 231.5C125.535 231.5 113.58 236.452 104.766 245.266C95.9518 254.08 91 266.035 91 278.5C91 290.965 95.9518 302.92 104.766 311.734C113.58 320.548 125.535 325.5 138 325.5ZM132.125 266.75V290.25C132.125 293.5 129.5 296.125 126.25 296.125C123 296.125 120.375 293.5 120.375 290.25V266.75C120.375 263.5 123 260.875 126.25 260.875C129.5 260.875 132.125 263.5 132.125 266.75ZM155.625 266.75V290.25C155.625 293.5 153 296.125 149.75 296.125C146.5 296.125 143.875 293.5 143.875 290.25V266.75C143.875 263.5 146.5 260.875 149.75 260.875C153 260.875 155.625 263.5 155.625 266.75Z" fill="#31344E"/>
<path d="M246.461 281.015C246.461 285.048 246.142 288.648 245.504 291.815C244.889 294.983 243.886 297.672 242.496 299.882C241.129 302.092 239.329 303.778 237.096 304.94C234.863 306.103 232.151 306.684 228.961 306.684C224.951 306.684 221.658 305.67 219.083 303.642C216.508 301.591 214.605 298.651 213.375 294.823C212.145 290.972 211.529 286.369 211.529 281.015C211.529 275.614 212.088 271 213.204 267.172C214.343 263.321 216.189 260.37 218.741 258.319C221.293 256.269 224.7 255.243 228.961 255.243C232.949 255.243 236.23 256.269 238.805 258.319C241.402 260.347 243.328 263.287 244.581 267.138C245.834 270.966 246.461 275.591 246.461 281.015ZM222.022 281.015C222.022 284.82 222.228 287.999 222.638 290.551C223.071 293.08 223.788 294.983 224.791 296.259C225.794 297.535 227.184 298.173 228.961 298.173C230.715 298.173 232.094 297.546 233.097 296.293C234.122 295.017 234.851 293.114 235.284 290.585C235.717 288.033 235.934 284.843 235.934 281.015C235.934 277.209 235.717 274.031 235.284 271.479C234.851 268.926 234.122 267.012 233.097 265.736C232.094 264.438 230.715 263.788 228.961 263.788C227.184 263.788 225.794 264.438 224.791 265.736C223.788 267.012 223.071 268.926 222.638 271.479C222.228 274.031 222.022 277.209 222.022 281.015ZM286.52 281.015C286.52 285.048 286.201 288.648 285.562 291.815C284.947 294.983 283.945 297.672 282.555 299.882C281.188 302.092 279.387 303.778 277.154 304.94C274.921 306.103 272.21 306.684 269.02 306.684C265.009 306.684 261.716 305.67 259.142 303.642C256.567 301.591 254.664 298.651 253.434 294.823C252.203 290.972 251.588 286.369 251.588 281.015C251.588 275.614 252.146 271 253.263 267.172C254.402 263.321 256.248 260.37 258.8 258.319C261.352 256.269 264.758 255.243 269.02 255.243C273.007 255.243 276.288 256.269 278.863 258.319C281.461 260.347 283.386 263.287 284.64 267.138C285.893 270.966 286.52 275.591 286.52 281.015ZM262.081 281.015C262.081 284.82 262.286 287.999 262.696 290.551C263.129 293.08 263.847 294.983 264.85 296.259C265.852 297.535 267.242 298.173 269.02 298.173C270.774 298.173 272.153 297.546 273.155 296.293C274.181 295.017 274.91 293.114 275.343 290.585C275.776 288.033 275.992 284.843 275.992 281.015C275.992 277.209 275.776 274.031 275.343 271.479C274.91 268.926 274.181 267.012 273.155 265.736C272.153 264.438 270.774 263.788 269.02 263.788C267.242 263.788 265.852 264.438 264.85 265.736C263.847 267.012 263.129 268.926 262.696 271.479C262.286 274.031 262.081 277.209 262.081 281.015ZM293.116 301.112C293.116 298.97 293.697 297.466 294.859 296.601C296.044 295.735 297.468 295.302 299.132 295.302C300.75 295.302 302.14 295.735 303.302 296.601C304.487 297.466 305.079 298.97 305.079 301.112C305.079 303.163 304.487 304.644 303.302 305.556C302.14 306.467 300.75 306.923 299.132 306.923C297.468 306.923 296.044 306.467 294.859 305.556C293.697 304.644 293.116 303.163 293.116 301.112ZM293.116 272.88C293.116 270.738 293.697 269.234 294.859 268.368C296.044 267.502 297.468 267.069 299.132 267.069C300.75 267.069 302.14 267.502 303.302 268.368C304.487 269.234 305.079 270.738 305.079 272.88C305.079 274.953 304.487 276.446 303.302 277.357C302.14 278.246 300.75 278.69 299.132 278.69C297.468 278.69 296.044 278.246 294.859 277.357C293.697 276.446 293.116 274.953 293.116 272.88ZM346.539 281.015C346.539 285.048 346.22 288.648 345.582 291.815C344.967 294.983 343.964 297.672 342.574 299.882C341.207 302.092 339.407 303.778 337.174 304.94C334.941 306.103 332.229 306.684 329.039 306.684C325.029 306.684 321.736 305.67 319.161 303.642C316.586 301.591 314.684 298.651 313.453 294.823C312.223 290.972 311.607 286.369 311.607 281.015C311.607 275.614 312.166 271 313.282 267.172C314.422 263.321 316.267 260.37 318.819 258.319C321.371 256.269 324.778 255.243 329.039 255.243C333.027 255.243 336.308 256.269 338.883 258.319C341.48 260.347 343.406 263.287 344.659 267.138C345.912 270.966 346.539 275.591 346.539 281.015ZM322.101 281.015C322.101 284.82 322.306 287.999 322.716 290.551C323.149 293.08 323.867 294.983 324.869 296.259C325.872 297.535 327.262 298.173 329.039 298.173C330.794 298.173 332.172 297.546 333.175 296.293C334.2 295.017 334.929 293.114 335.362 290.585C335.795 288.033 336.012 284.843 336.012 281.015C336.012 277.209 335.795 274.031 335.362 271.479C334.929 268.926 334.2 267.012 333.175 265.736C332.172 264.438 330.794 263.788 329.039 263.788C327.262 263.788 325.872 264.438 324.869 265.736C323.867 267.012 323.149 268.926 322.716 271.479C322.306 274.031 322.101 277.209 322.101 281.015ZM386.598 281.015C386.598 285.048 386.279 288.648 385.641 291.815C385.025 294.983 384.023 297.672 382.633 299.882C381.266 302.092 379.465 303.778 377.232 304.94C374.999 306.103 372.288 306.684 369.098 306.684C365.087 306.684 361.795 305.67 359.22 303.642C356.645 301.591 354.742 298.651 353.512 294.823C352.281 290.972 351.666 286.369 351.666 281.015C351.666 275.614 352.224 271 353.341 267.172C354.48 263.321 356.326 260.37 358.878 258.319C361.43 256.269 364.837 255.243 369.098 255.243C373.085 255.243 376.367 256.269 378.941 258.319C381.539 260.347 383.465 263.287 384.718 267.138C385.971 270.966 386.598 275.591 386.598 281.015ZM362.159 281.015C362.159 284.82 362.364 287.999 362.774 290.551C363.207 293.08 363.925 294.983 364.928 296.259C365.93 297.535 367.32 298.173 369.098 298.173C370.852 298.173 372.231 297.546 373.233 296.293C374.259 295.017 374.988 293.114 375.421 290.585C375.854 288.033 376.07 284.843 376.07 281.015C376.07 277.209 375.854 274.031 375.421 271.479C374.988 268.926 374.259 267.012 373.233 265.736C372.231 264.438 370.852 263.788 369.098 263.788C367.32 263.788 365.93 264.438 364.928 265.736C363.925 267.012 363.207 268.926 362.774 271.479C362.364 274.031 362.159 277.209 362.159 281.015Z" fill="#31344E"/>
</svg>
