<svg width="480" height="480" viewBox="0 0 480 480" fill="none" xmlns="http://www.w3.org/2000/svg">
<rect width="480" height="480" fill="white"/>
<rect x="17.5" y="17.5" width="445" height="445" rx="4.5" fill="white" stroke="#AC211C" stroke-width="3"/>
<path d="M171.953 45.1562H179.062C182.104 45.1562 184.406 45.5833 185.969 46.4375C187.531 47.2917 188.312 48.7917 188.312 50.9375C188.312 51.8021 188.172 52.5833 187.891 53.2812C187.62 53.9792 187.224 54.5521 186.703 55C186.182 55.4479 185.547 55.7396 184.797 55.875V56.0312C185.557 56.1875 186.245 56.4583 186.859 56.8438C187.474 57.2188 187.964 57.7708 188.328 58.5C188.703 59.2188 188.891 60.1771 188.891 61.375C188.891 62.7604 188.552 63.9479 187.875 64.9375C187.198 65.9271 186.229 66.6875 184.969 67.2188C183.719 67.7396 182.229 68 180.5 68H171.953V45.1562ZM176.797 54.2031H179.609C181.016 54.2031 181.99 53.9844 182.531 53.5469C183.073 53.099 183.344 52.4427 183.344 51.5781C183.344 50.7031 183.021 50.0781 182.375 49.7031C181.74 49.3177 180.729 49.125 179.344 49.125H176.797V54.2031ZM176.797 58.0469V64H179.953C181.411 64 182.427 63.7188 183 63.1562C183.573 62.5938 183.859 61.8385 183.859 60.8906C183.859 60.3281 183.734 59.8333 183.484 59.4062C183.234 58.9792 182.812 58.6458 182.219 58.4062C181.635 58.1667 180.828 58.0469 179.797 58.0469H176.797ZM206.609 68H193.453V45.1562H206.609V49.125H198.297V54.1406H206.031V58.1094H198.297V64H206.609V68ZM230.344 56.3594C230.344 58.9323 229.849 61.0833 228.859 62.8125C227.88 64.5312 226.458 65.8281 224.594 66.7031C222.729 67.5677 220.484 68 217.859 68H211.391V45.1562H218.562C220.958 45.1562 223.036 45.5833 224.797 46.4375C226.557 47.2812 227.922 48.5365 228.891 50.2031C229.859 51.8594 230.344 53.9115 230.344 56.3594ZM225.312 56.4844C225.312 54.7969 225.062 53.4115 224.562 52.3281C224.073 51.2344 223.344 50.4271 222.375 49.9062C221.417 49.3854 220.229 49.125 218.812 49.125H216.234V64H218.312C220.677 64 222.432 63.3698 223.578 62.1094C224.734 60.849 225.312 58.974 225.312 56.4844ZM256.547 68H243.391V45.1562H256.547V49.125H248.234V54.1406H255.969V58.1094H248.234V64H256.547V68ZM279.797 68H274.266L268.953 59.3594L263.641 68H258.453L266.031 56.2188L258.938 45.1562H264.281L269.203 53.375L274.031 45.1562H279.25L272.078 56.4844L279.797 68ZM282.672 68V45.1562H287.516V68H282.672ZM302.078 68H297.234V49.1875H291.031V45.1562H308.281V49.1875H302.078V68Z" fill="#31344E"/>
<path d="M16 94H464V458C464 461.314 461.314 464 458 464H22C18.6863 464 16 461.314 16 458V94Z" fill="#AC211C"/>
<path d="M177.547 262.702L170 215.059L178.138 214.069C182.632 213.522 186.781 216.272 187.406 220.211L190.78 241.514H197.265V240.969C197.265 236.992 200.944 233.768 205.481 233.768H218.626C223.164 233.768 226.842 236.992 226.842 240.969V241.514H300.011V241.689H300.784C305.321 241.689 309 244.912 309 248.889V296.411C305.179 296.411 301.888 294.047 301.138 290.763L298.533 279.345H188.015L185.409 290.763C184.659 294.047 181.369 296.411 177.547 296.411V262.702Z" fill="white"/>
<path d="M217.164 341V323.867H220.797V338H227.746V341H217.164ZM242.359 334.426C242.359 335.52 242.211 336.488 241.914 337.332C241.625 338.176 241.199 338.891 240.637 339.477C240.082 340.055 239.41 340.492 238.621 340.789C237.84 341.086 236.957 341.234 235.973 341.234C235.051 341.234 234.203 341.086 233.43 340.789C232.664 340.492 231.996 340.055 231.426 339.477C230.863 338.891 230.426 338.176 230.113 337.332C229.809 336.488 229.656 335.52 229.656 334.426C229.656 332.973 229.914 331.742 230.43 330.734C230.945 329.727 231.68 328.961 232.633 328.438C233.586 327.914 234.723 327.652 236.043 327.652C237.27 327.652 238.355 327.914 239.301 328.438C240.254 328.961 241 329.727 241.539 330.734C242.086 331.742 242.359 332.973 242.359 334.426ZM233.301 334.426C233.301 335.285 233.395 336.008 233.582 336.594C233.77 337.18 234.062 337.621 234.461 337.918C234.859 338.215 235.379 338.363 236.02 338.363C236.652 338.363 237.164 338.215 237.555 337.918C237.953 337.621 238.242 337.18 238.422 336.594C238.609 336.008 238.703 335.285 238.703 334.426C238.703 333.559 238.609 332.84 238.422 332.27C238.242 331.691 237.953 331.258 237.555 330.969C237.156 330.68 236.637 330.535 235.996 330.535C235.051 330.535 234.363 330.859 233.934 331.508C233.512 332.156 233.301 333.129 233.301 334.426ZM256.082 341L255.074 336.418C255.02 336.145 254.93 335.742 254.805 335.211C254.68 334.672 254.543 334.098 254.395 333.488C254.254 332.871 254.121 332.301 253.996 331.777C253.879 331.254 253.793 330.871 253.738 330.629H253.633C253.578 330.871 253.492 331.254 253.375 331.777C253.258 332.301 253.125 332.871 252.977 333.488C252.836 334.105 252.703 334.688 252.578 335.234C252.453 335.773 252.359 336.184 252.297 336.465L251.242 341H247.398L243.672 327.898H247.234L248.746 333.699C248.848 334.105 248.945 334.59 249.039 335.152C249.133 335.707 249.215 336.246 249.285 336.77C249.363 337.285 249.422 337.695 249.461 338H249.555C249.57 337.773 249.602 337.473 249.648 337.098C249.703 336.723 249.762 336.336 249.824 335.938C249.895 335.531 249.957 335.168 250.012 334.848C250.074 334.52 250.121 334.297 250.152 334.18L251.77 327.898H255.707L257.242 334.18C257.297 334.406 257.367 334.766 257.453 335.258C257.547 335.75 257.629 336.258 257.699 336.781C257.77 337.297 257.809 337.703 257.816 338H257.91C257.941 337.734 257.996 337.34 258.074 336.816C258.152 336.293 258.242 335.746 258.344 335.176C258.453 334.598 258.562 334.105 258.672 333.699L260.242 327.898H263.746L259.973 341H256.082Z" fill="white"/>
</svg>
