<svg width="480" height="480" viewBox="0 0 480 480" fill="none" xmlns="http://www.w3.org/2000/svg">
<rect width="480" height="480" fill="white"/>
<g opacity="0.6">
<rect x="17.5" y="17.5" width="349" height="77" rx="3.5" fill="white" stroke="#1A1040" stroke-width="3"/>
<path d="M43.1602 48.3672H48.4922C50.7734 48.3672 52.5 48.6875 53.6719 49.3281C54.8438 49.9688 55.4297 51.0938 55.4297 52.7031C55.4297 53.3516 55.3242 53.9375 55.1133 54.4609C54.9102 54.9844 54.6133 55.4141 54.2227 55.75C53.832 56.0859 53.3555 56.3047 52.793 56.4062V56.5234C53.3633 56.6406 53.8789 56.8438 54.3398 57.1328C54.8008 57.4141 55.168 57.8281 55.4414 58.375C55.7227 58.9141 55.8633 59.6328 55.8633 60.5312C55.8633 61.5703 55.6094 62.4609 55.1016 63.2031C54.5938 63.9453 53.8672 64.5156 52.9219 64.9141C51.9844 65.3047 50.8672 65.5 49.5703 65.5H43.1602V48.3672ZM46.793 55.1523H48.9023C49.957 55.1523 50.6875 54.9883 51.0938 54.6602C51.5 54.3242 51.7031 53.832 51.7031 53.1836C51.7031 52.5273 51.4609 52.0586 50.9766 51.7773C50.5 51.4883 49.7422 51.3438 48.7031 51.3438H46.793V55.1523ZM46.793 58.0352V62.5H49.1602C50.2539 62.5 51.0156 62.2891 51.4453 61.8672C51.875 61.4453 52.0898 60.8789 52.0898 60.168C52.0898 59.7461 51.9961 59.375 51.8086 59.0547C51.6211 58.7344 51.3047 58.4844 50.8594 58.3047C50.4219 58.125 49.8164 58.0352 49.043 58.0352H46.793ZM64.4062 52.1523C65.6172 52.1523 66.6602 52.3867 67.5352 52.8555C68.4102 53.3164 69.0859 53.9883 69.5625 54.8711C70.0391 55.7539 70.2773 56.832 70.2773 58.1055V59.8398H61.8281C61.8672 60.8477 62.168 61.6406 62.7305 62.2188C63.3008 62.7891 64.0898 63.0742 65.0977 63.0742C65.9336 63.0742 66.6992 62.9883 67.3945 62.8164C68.0898 62.6445 68.8047 62.3867 69.5391 62.043V64.8086C68.8906 65.1289 68.2109 65.3633 67.5 65.5117C66.7969 65.6602 65.9414 65.7344 64.9336 65.7344C63.6211 65.7344 62.457 65.4922 61.4414 65.0078C60.4336 64.5234 59.6406 63.7852 59.0625 62.793C58.4922 61.8008 58.207 60.5508 58.207 59.043C58.207 57.5117 58.4648 56.2383 58.9805 55.2227C59.5039 54.1992 60.2305 53.4336 61.1602 52.9258C62.0898 52.4102 63.1719 52.1523 64.4062 52.1523ZM64.4297 54.6953C63.7344 54.6953 63.1562 54.918 62.6953 55.3633C62.2422 55.8086 61.9805 56.5078 61.9102 57.4609H66.9258C66.918 56.9297 66.8203 56.457 66.6328 56.043C66.4531 55.6289 66.1797 55.3008 65.8125 55.0586C65.4531 54.8164 64.9922 54.6953 64.4297 54.6953ZM77.332 65.7344C75.8711 65.7344 74.6797 65.1641 73.7578 64.0234C72.8438 62.875 72.3867 61.1914 72.3867 58.9727C72.3867 56.7305 72.8516 55.0352 73.7812 53.8867C74.7109 52.7305 75.9258 52.1523 77.4258 52.1523C78.0508 52.1523 78.6016 52.2383 79.0781 52.4102C79.5547 52.582 79.9648 52.8125 80.3086 53.1016C80.6602 53.3906 80.957 53.7148 81.1992 54.0742H81.3164C81.2695 53.8242 81.2109 53.457 81.1406 52.9727C81.0781 52.4805 81.0469 51.9766 81.0469 51.4609V47.2656H84.6328V65.5H81.8906L81.1992 63.8008H81.0469C80.8203 64.1602 80.5352 64.4883 80.1914 64.7852C79.8555 65.0742 79.4531 65.3047 78.9844 65.4766C78.5156 65.6484 77.9648 65.7344 77.332 65.7344ZM78.5859 62.8867C79.5625 62.8867 80.25 62.5977 80.6484 62.0195C81.0547 61.4336 81.2695 60.5547 81.293 59.3828V58.9961C81.293 57.7227 81.0977 56.75 80.707 56.0781C80.3164 55.3984 79.5898 55.0586 78.5273 55.0586C77.7383 55.0586 77.1211 55.3984 76.6758 56.0781C76.2305 56.7578 76.0078 57.7383 76.0078 59.0195C76.0078 60.3008 76.2305 61.2656 76.6758 61.9141C77.1289 62.5625 77.7656 62.8867 78.5859 62.8867ZM96.293 48.3672L89.9062 65.5H86.6602L93.0469 48.3672H96.293ZM105.844 51.1445C105.148 51.1445 104.531 51.2812 103.992 51.5547C103.461 51.8203 103.012 52.207 102.645 52.7148C102.285 53.2227 102.012 53.8359 101.824 54.5547C101.637 55.2734 101.543 56.082 101.543 56.9805C101.543 58.1914 101.691 59.2266 101.988 60.0859C102.293 60.9375 102.762 61.5898 103.395 62.043C104.027 62.4883 104.844 62.7109 105.844 62.7109C106.539 62.7109 107.234 62.6328 107.93 62.4766C108.633 62.3203 109.395 62.0977 110.215 61.8086V64.8555C109.457 65.168 108.711 65.3906 107.977 65.5234C107.242 65.6641 106.418 65.7344 105.504 65.7344C103.738 65.7344 102.285 65.3711 101.145 64.6445C100.012 63.9102 99.1719 62.8867 98.625 61.5742C98.0781 60.2539 97.8047 58.7148 97.8047 56.957C97.8047 55.6602 97.9805 54.4727 98.332 53.3945C98.6836 52.3164 99.1992 51.3828 99.8789 50.5938C100.559 49.8047 101.398 49.1953 102.398 48.7656C103.398 48.3359 104.547 48.1211 105.844 48.1211C106.695 48.1211 107.547 48.2305 108.398 48.4492C109.258 48.6602 110.078 48.9531 110.859 49.3281L109.688 52.2812C109.047 51.9766 108.402 51.7109 107.754 51.4844C107.105 51.2578 106.469 51.1445 105.844 51.1445ZM117.164 47.2656V50.9805C117.164 51.6289 117.141 52.2461 117.094 52.832C117.055 53.418 117.023 53.832 117 54.0742H117.188C117.469 53.6211 117.801 53.2539 118.184 52.9727C118.574 52.6914 119.004 52.4844 119.473 52.3516C119.941 52.2188 120.445 52.1523 120.984 52.1523C121.93 52.1523 122.754 52.3203 123.457 52.6562C124.16 52.9844 124.707 53.5039 125.098 54.2148C125.488 54.918 125.684 55.832 125.684 56.957V65.5H122.109V57.8477C122.109 56.9102 121.938 56.2031 121.594 55.7266C121.25 55.25 120.719 55.0117 120 55.0117C119.281 55.0117 118.715 55.1797 118.301 55.5156C117.887 55.8438 117.594 56.332 117.422 56.9805C117.25 57.6211 117.164 58.4062 117.164 59.3359V65.5H113.59V47.2656H117.164ZM134.73 52.1289C136.488 52.1289 137.836 52.5117 138.773 53.2773C139.711 54.043 140.18 55.207 140.18 56.7695V65.5H137.684L136.992 63.7188H136.898C136.523 64.1875 136.141 64.5703 135.75 64.8672C135.359 65.1641 134.91 65.3828 134.402 65.5234C133.895 65.6641 133.277 65.7344 132.551 65.7344C131.777 65.7344 131.082 65.5859 130.465 65.2891C129.855 64.9922 129.375 64.5391 129.023 63.9297C128.672 63.3125 128.496 62.5312 128.496 61.5859C128.496 60.1953 128.984 59.1719 129.961 58.5156C130.938 57.8516 132.402 57.4844 134.355 57.4141L136.629 57.3438V56.7695C136.629 56.082 136.449 55.5781 136.09 55.2578C135.73 54.9375 135.23 54.7773 134.59 54.7773C133.957 54.7773 133.336 54.8672 132.727 55.0469C132.117 55.2266 131.508 55.4531 130.898 55.7266L129.715 53.3125C130.41 52.9453 131.188 52.6562 132.047 52.4453C132.914 52.2344 133.809 52.1289 134.73 52.1289ZM136.629 59.4297L135.246 59.4766C134.09 59.5078 133.285 59.7148 132.832 60.0977C132.387 60.4805 132.164 60.9844 132.164 61.6094C132.164 62.1562 132.324 62.5469 132.645 62.7812C132.965 63.0078 133.383 63.1211 133.898 63.1211C134.664 63.1211 135.309 62.8945 135.832 62.4414C136.363 61.9883 136.629 61.3438 136.629 60.5078V59.4297ZM147.445 52.3984V65.5H143.871V52.3984H147.445ZM145.664 47.2656C146.195 47.2656 146.652 47.3906 147.035 47.6406C147.418 47.8828 147.609 48.3398 147.609 49.0117C147.609 49.6758 147.418 50.1367 147.035 50.3945C146.652 50.6445 146.195 50.7695 145.664 50.7695C145.125 50.7695 144.664 50.6445 144.281 50.3945C143.906 50.1367 143.719 49.6758 143.719 49.0117C143.719 48.3398 143.906 47.8828 144.281 47.6406C144.664 47.3906 145.125 47.2656 145.664 47.2656ZM158.52 52.1523C158.699 52.1523 158.906 52.1641 159.141 52.1875C159.383 52.2031 159.578 52.2266 159.727 52.2578L159.457 55.6094C159.34 55.5703 159.172 55.543 158.953 55.5273C158.742 55.5039 158.559 55.4922 158.402 55.4922C157.941 55.4922 157.492 55.5508 157.055 55.668C156.625 55.7852 156.238 55.9766 155.895 56.2422C155.551 56.5 155.277 56.8438 155.074 57.2734C154.879 57.6953 154.781 58.2148 154.781 58.832V65.5H151.207V52.3984H153.914L154.441 54.6016H154.617C154.875 54.1562 155.195 53.75 155.578 53.3828C155.969 53.0078 156.41 52.7109 156.902 52.4922C157.402 52.2656 157.941 52.1523 158.52 52.1523ZM175.875 65.5L171.75 52.0586H171.645C171.66 52.3789 171.684 52.8633 171.715 53.5117C171.754 54.1523 171.789 54.8359 171.82 55.5625C171.852 56.2891 171.867 56.9453 171.867 57.5312V65.5H168.621V48.3672H173.566L177.621 61.4688H177.691L181.992 48.3672H186.938V65.5H183.551V57.3906C183.551 56.8516 183.559 56.2305 183.574 55.5273C183.598 54.8242 183.625 54.1562 183.656 53.5234C183.688 52.8828 183.711 52.4023 183.727 52.082H183.621L179.203 65.5H175.875ZM202.887 58.9258C202.887 60.0195 202.738 60.9883 202.441 61.832C202.152 62.6758 201.727 63.3906 201.164 63.9766C200.609 64.5547 199.938 64.9922 199.148 65.2891C198.367 65.5859 197.484 65.7344 196.5 65.7344C195.578 65.7344 194.73 65.5859 193.957 65.2891C193.191 64.9922 192.523 64.5547 191.953 63.9766C191.391 63.3906 190.953 62.6758 190.641 61.832C190.336 60.9883 190.184 60.0195 190.184 58.9258C190.184 57.4727 190.441 56.2422 190.957 55.2344C191.473 54.2266 192.207 53.4609 193.16 52.9375C194.113 52.4141 195.25 52.1523 196.57 52.1523C197.797 52.1523 198.883 52.4141 199.828 52.9375C200.781 53.4609 201.527 54.2266 202.066 55.2344C202.613 56.2422 202.887 57.4727 202.887 58.9258ZM193.828 58.9258C193.828 59.7852 193.922 60.5078 194.109 61.0938C194.297 61.6797 194.59 62.1211 194.988 62.418C195.387 62.7148 195.906 62.8633 196.547 62.8633C197.18 62.8633 197.691 62.7148 198.082 62.418C198.48 62.1211 198.77 61.6797 198.949 61.0938C199.137 60.5078 199.23 59.7852 199.23 58.9258C199.23 58.0586 199.137 57.3398 198.949 56.7695C198.77 56.1914 198.48 55.7578 198.082 55.4688C197.684 55.1797 197.164 55.0352 196.523 55.0352C195.578 55.0352 194.891 55.3594 194.461 56.0078C194.039 56.6562 193.828 57.6289 193.828 58.9258ZM209.988 65.7344C208.527 65.7344 207.336 65.1641 206.414 64.0234C205.5 62.875 205.043 61.1914 205.043 58.9727C205.043 56.7305 205.508 55.0352 206.438 53.8867C207.367 52.7305 208.582 52.1523 210.082 52.1523C210.707 52.1523 211.258 52.2383 211.734 52.4102C212.211 52.582 212.621 52.8125 212.965 53.1016C213.316 53.3906 213.613 53.7148 213.855 54.0742H213.973C213.926 53.8242 213.867 53.457 213.797 52.9727C213.734 52.4805 213.703 51.9766 213.703 51.4609V47.2656H217.289V65.5H214.547L213.855 63.8008H213.703C213.477 64.1602 213.191 64.4883 212.848 64.7852C212.512 65.0742 212.109 65.3047 211.641 65.4766C211.172 65.6484 210.621 65.7344 209.988 65.7344ZM211.242 62.8867C212.219 62.8867 212.906 62.5977 213.305 62.0195C213.711 61.4336 213.926 60.5547 213.949 59.3828V58.9961C213.949 57.7227 213.754 56.75 213.363 56.0781C212.973 55.3984 212.246 55.0586 211.184 55.0586C210.395 55.0586 209.777 55.3984 209.332 56.0781C208.887 56.7578 208.664 57.7383 208.664 59.0195C208.664 60.3008 208.887 61.2656 209.332 61.9141C209.785 62.5625 210.422 62.8867 211.242 62.8867ZM226.43 52.1523C227.641 52.1523 228.684 52.3867 229.559 52.8555C230.434 53.3164 231.109 53.9883 231.586 54.8711C232.062 55.7539 232.301 56.832 232.301 58.1055V59.8398H223.852C223.891 60.8477 224.191 61.6406 224.754 62.2188C225.324 62.7891 226.113 63.0742 227.121 63.0742C227.957 63.0742 228.723 62.9883 229.418 62.8164C230.113 62.6445 230.828 62.3867 231.562 62.043V64.8086C230.914 65.1289 230.234 65.3633 229.523 65.5117C228.82 65.6602 227.965 65.7344 226.957 65.7344C225.645 65.7344 224.48 65.4922 223.465 65.0078C222.457 64.5234 221.664 63.7852 221.086 62.793C220.516 61.8008 220.23 60.5508 220.23 59.043C220.23 57.5117 220.488 56.2383 221.004 55.2227C221.527 54.1992 222.254 53.4336 223.184 52.9258C224.113 52.4102 225.195 52.1523 226.43 52.1523ZM226.453 54.6953C225.758 54.6953 225.18 54.918 224.719 55.3633C224.266 55.8086 224.004 56.5078 223.934 57.4609H228.949C228.941 56.9297 228.844 56.457 228.656 56.043C228.477 55.6289 228.203 55.3008 227.836 55.0586C227.477 54.8164 227.016 54.6953 226.453 54.6953ZM255.938 56.7695C255.938 58.6992 255.566 60.3125 254.824 61.6094C254.09 62.8984 253.023 63.8711 251.625 64.5273C250.227 65.1758 248.543 65.5 246.574 65.5H241.723V48.3672H247.102C248.898 48.3672 250.457 48.6875 251.777 49.3281C253.098 49.9609 254.121 50.9023 254.848 52.1523C255.574 53.3945 255.938 54.9336 255.938 56.7695ZM252.164 56.8633C252.164 55.5977 251.977 54.5586 251.602 53.7461C251.234 52.9258 250.688 52.3203 249.961 51.9297C249.242 51.5391 248.352 51.3438 247.289 51.3438H245.355V62.5H246.914C248.688 62.5 250.004 62.0273 250.863 61.082C251.73 60.1367 252.164 58.7305 252.164 56.8633ZM262.781 52.3984V65.5H259.207V52.3984H262.781ZM261 47.2656C261.531 47.2656 261.988 47.3906 262.371 47.6406C262.754 47.8828 262.945 48.3398 262.945 49.0117C262.945 49.6758 262.754 50.1367 262.371 50.3945C261.988 50.6445 261.531 50.7695 261 50.7695C260.461 50.7695 260 50.6445 259.617 50.3945C259.242 50.1367 259.055 49.6758 259.055 49.0117C259.055 48.3398 259.242 47.8828 259.617 47.6406C260 47.3906 260.461 47.2656 261 47.2656ZM275.684 61.6094C275.684 62.5 275.473 63.2539 275.051 63.8711C274.637 64.4805 274.016 64.9453 273.188 65.2656C272.359 65.5781 271.328 65.7344 270.094 65.7344C269.18 65.7344 268.395 65.6758 267.738 65.5586C267.09 65.4414 266.434 65.2461 265.77 64.9727V62.0195C266.48 62.3398 267.242 62.6055 268.055 62.8164C268.875 63.0195 269.594 63.1211 270.211 63.1211C270.906 63.1211 271.402 63.0195 271.699 62.8164C272.004 62.6055 272.156 62.332 272.156 61.9961C272.156 61.7773 272.094 61.582 271.969 61.4102C271.852 61.2305 271.594 61.0312 271.195 60.8125C270.797 60.5859 270.172 60.293 269.32 59.9336C268.5 59.5898 267.824 59.2422 267.293 58.8906C266.77 58.5391 266.379 58.125 266.121 57.6484C265.871 57.1641 265.746 56.5508 265.746 55.8086C265.746 54.5977 266.215 53.6875 267.152 53.0781C268.098 52.4609 269.359 52.1523 270.938 52.1523C271.75 52.1523 272.523 52.2344 273.258 52.3984C274 52.5625 274.762 52.8242 275.543 53.1836L274.465 55.7617C273.816 55.4805 273.203 55.25 272.625 55.0703C272.055 54.8906 271.473 54.8008 270.879 54.8008C270.355 54.8008 269.961 54.8711 269.695 55.0117C269.43 55.1523 269.297 55.3672 269.297 55.6562C269.297 55.8672 269.363 56.0547 269.496 56.2188C269.637 56.3828 269.902 56.5664 270.293 56.7695C270.691 56.9648 271.273 57.2188 272.039 57.5312C272.781 57.8359 273.426 58.1562 273.973 58.4922C274.52 58.8203 274.941 59.2305 275.238 59.7227C275.535 60.207 275.684 60.8359 275.684 61.6094ZM283.84 52.1289C285.598 52.1289 286.945 52.5117 287.883 53.2773C288.82 54.043 289.289 55.207 289.289 56.7695V65.5H286.793L286.102 63.7188H286.008C285.633 64.1875 285.25 64.5703 284.859 64.8672C284.469 65.1641 284.02 65.3828 283.512 65.5234C283.004 65.6641 282.387 65.7344 281.66 65.7344C280.887 65.7344 280.191 65.5859 279.574 65.2891C278.965 64.9922 278.484 64.5391 278.133 63.9297C277.781 63.3125 277.605 62.5312 277.605 61.5859C277.605 60.1953 278.094 59.1719 279.07 58.5156C280.047 57.8516 281.512 57.4844 283.465 57.4141L285.738 57.3438V56.7695C285.738 56.082 285.559 55.5781 285.199 55.2578C284.84 54.9375 284.34 54.7773 283.699 54.7773C283.066 54.7773 282.445 54.8672 281.836 55.0469C281.227 55.2266 280.617 55.4531 280.008 55.7266L278.824 53.3125C279.52 52.9453 280.297 52.6562 281.156 52.4453C282.023 52.2344 282.918 52.1289 283.84 52.1289ZM285.738 59.4297L284.355 59.4766C283.199 59.5078 282.395 59.7148 281.941 60.0977C281.496 60.4805 281.273 60.9844 281.273 61.6094C281.273 62.1562 281.434 62.5469 281.754 62.7812C282.074 63.0078 282.492 63.1211 283.008 63.1211C283.773 63.1211 284.418 62.8945 284.941 62.4414C285.473 61.9883 285.738 61.3438 285.738 60.5078V59.4297ZM296.555 47.2656V51.5078C296.555 52 296.539 52.4883 296.508 52.9727C296.484 53.457 296.453 53.832 296.414 54.0977H296.555C296.898 53.5586 297.367 53.1016 297.961 52.7266C298.555 52.3438 299.324 52.1523 300.27 52.1523C301.738 52.1523 302.93 52.7266 303.844 53.875C304.758 55.0234 305.215 56.707 305.215 58.9258C305.215 60.418 305.004 61.6719 304.582 62.6875C304.16 63.6953 303.57 64.457 302.812 64.9727C302.055 65.4805 301.176 65.7344 300.176 65.7344C299.215 65.7344 298.457 65.5625 297.902 65.2188C297.348 64.875 296.898 64.4883 296.555 64.0586H296.309L295.711 65.5H292.98V47.2656H296.555ZM299.121 55.0117C298.496 55.0117 298 55.1406 297.633 55.3984C297.266 55.6562 296.996 56.043 296.824 56.5586C296.66 57.0742 296.57 57.7266 296.555 58.5156V58.9023C296.555 60.1758 296.742 61.1523 297.117 61.832C297.492 62.5039 298.176 62.8398 299.168 62.8398C299.902 62.8398 300.484 62.5 300.914 61.8203C301.352 61.1406 301.57 60.1602 301.57 58.8789C301.57 57.5977 301.352 56.6328 300.914 55.9844C300.477 55.3359 299.879 55.0117 299.121 55.0117ZM311.742 65.5H308.168V47.2656H311.742V65.5ZM320.906 52.1523C322.117 52.1523 323.16 52.3867 324.035 52.8555C324.91 53.3164 325.586 53.9883 326.062 54.8711C326.539 55.7539 326.777 56.832 326.777 58.1055V59.8398H318.328C318.367 60.8477 318.668 61.6406 319.23 62.2188C319.801 62.7891 320.59 63.0742 321.598 63.0742C322.434 63.0742 323.199 62.9883 323.895 62.8164C324.59 62.6445 325.305 62.3867 326.039 62.043V64.8086C325.391 65.1289 324.711 65.3633 324 65.5117C323.297 65.6602 322.441 65.7344 321.434 65.7344C320.121 65.7344 318.957 65.4922 317.941 65.0078C316.934 64.5234 316.141 63.7852 315.562 62.793C314.992 61.8008 314.707 60.5508 314.707 59.043C314.707 57.5117 314.965 56.2383 315.48 55.2227C316.004 54.1992 316.73 53.4336 317.66 52.9258C318.59 52.4102 319.672 52.1523 320.906 52.1523ZM320.93 54.6953C320.234 54.6953 319.656 54.918 319.195 55.3633C318.742 55.8086 318.48 56.5078 318.41 57.4609H323.426C323.418 56.9297 323.32 56.457 323.133 56.043C322.953 55.6289 322.68 55.3008 322.312 55.0586C321.953 54.8164 321.492 54.6953 320.93 54.6953ZM333.832 65.7344C332.371 65.7344 331.18 65.1641 330.258 64.0234C329.344 62.875 328.887 61.1914 328.887 58.9727C328.887 56.7305 329.352 55.0352 330.281 53.8867C331.211 52.7305 332.426 52.1523 333.926 52.1523C334.551 52.1523 335.102 52.2383 335.578 52.4102C336.055 52.582 336.465 52.8125 336.809 53.1016C337.16 53.3906 337.457 53.7148 337.699 54.0742H337.816C337.77 53.8242 337.711 53.457 337.641 52.9727C337.578 52.4805 337.547 51.9766 337.547 51.4609V47.2656H341.133V65.5H338.391L337.699 63.8008H337.547C337.32 64.1602 337.035 64.4883 336.691 64.7852C336.355 65.0742 335.953 65.3047 335.484 65.4766C335.016 65.6484 334.465 65.7344 333.832 65.7344ZM335.086 62.8867C336.062 62.8867 336.75 62.5977 337.148 62.0195C337.555 61.4336 337.77 60.5547 337.793 59.3828V58.9961C337.793 57.7227 337.598 56.75 337.207 56.0781C336.816 55.3984 336.09 55.0586 335.027 55.0586C334.238 55.0586 333.621 55.3984 333.176 56.0781C332.73 56.7578 332.508 57.7383 332.508 59.0195C332.508 60.3008 332.73 61.2656 333.176 61.9141C333.629 62.5625 334.266 62.8867 335.086 62.8867Z" fill="#1A1040"/>
</g>
<rect x="385.5" y="17.5" width="77" height="77" rx="3.5" fill="white" stroke="#1A1040" stroke-width="3"/>
<path d="M415.351 31.4434C416.866 30.5264 418.74 30.5412 420.241 31.4814L423.58 33.5713C423.853 33.7419 424.165 33.832 424.483 33.832H424.771C425.088 33.832 425.399 33.7421 425.671 33.5723L428.995 31.4971C430.492 30.5628 432.356 30.5469 433.867 31.4551L439.855 35.0527C441.37 35.9632 442.292 37.6591 442.263 39.4824L442.198 43.54C442.192 43.8714 442.273 44.1984 442.432 44.4854L442.576 44.7451C442.735 45.0314 442.964 45.268 443.241 45.4287L446.635 47.3975C448.157 48.2804 449.103 49.9523 449.107 51.7686L449.122 58.959C449.126 60.7865 448.177 62.4716 446.644 63.3574L443.242 65.3232C442.964 65.4839 442.734 65.7208 442.574 66.0078L442.432 66.2646C442.273 66.5516 442.192 66.8786 442.198 67.21L442.263 71.2725C442.292 73.0902 441.375 74.7818 439.867 75.6943L433.9 79.3066C432.385 80.2236 430.511 80.2088 429.009 79.2686L425.67 77.1787C425.398 77.0082 425.086 76.918 424.768 76.918H424.48C424.163 76.918 423.851 77.0079 423.579 77.1777L420.256 79.2529C418.759 80.1874 416.894 80.2031 415.383 79.2949L409.396 75.6982C407.88 74.7877 406.959 73.0909 406.989 71.2676L407.054 67.2227C407.059 66.8936 406.979 66.5688 406.823 66.2832L406.67 66.0059C406.511 65.7169 406.28 65.4783 406.001 65.3164L402.615 63.3525C401.093 62.4695 400.148 60.7977 400.144 58.9814L400.128 51.791C400.124 49.9636 401.074 48.2784 402.607 47.3926L406.008 45.4268C406.286 45.266 406.518 45.0293 406.677 44.7422L406.819 44.4854C406.978 44.1983 407.059 43.8714 407.054 43.54L406.989 39.4775C406.959 37.6599 407.875 35.9683 409.383 35.0557L415.351 31.4434ZM424.625 46.249C419.792 46.249 415.874 50.3353 415.874 55.375C415.875 60.4145 419.792 64.5 424.625 64.5C429.458 64.5 433.376 60.4145 433.376 55.375C433.376 50.3353 429.458 46.249 424.625 46.249Z" fill="#1A1040"/>
<path d="M415.351 31.4434L414.833 30.5878L414.833 30.5879L415.351 31.4434ZM420.241 31.4814L419.711 32.3291L419.711 32.3291L420.241 31.4814ZM423.58 33.5713L424.111 32.7236L424.111 32.7236L423.58 33.5713ZM424.483 33.832L424.483 34.832H424.483V33.832ZM425.671 33.5723L426.201 34.4206L426.201 34.4205L425.671 33.5723ZM428.995 31.4971L429.525 32.3453L429.525 32.3453L428.995 31.4971ZM433.867 31.4551L433.352 32.3122L433.352 32.3122L433.867 31.4551ZM439.855 35.0527L440.37 34.1956L440.37 34.1956L439.855 35.0527ZM442.263 39.4824L441.263 39.4663V39.4663L442.263 39.4824ZM442.198 43.54L443.197 43.5562V43.5562L442.198 43.54ZM442.432 44.4854L441.557 44.9697L441.558 44.9716L442.432 44.4854ZM442.576 44.7451L443.451 44.2605L443.45 44.2589L442.576 44.7451ZM443.241 45.4287L442.74 46.2936L442.74 46.2937L443.241 45.4287ZM446.635 47.3975L446.133 48.2624L446.133 48.2625L446.635 47.3975ZM449.107 51.7686L450.107 51.7664V51.7663L449.107 51.7686ZM449.122 58.959L448.122 58.9612V58.9612L449.122 58.959ZM446.644 63.3574L446.143 62.4916L446.143 62.4916L446.644 63.3574ZM443.242 65.3232L443.743 66.1891L443.743 66.189L443.242 65.3232ZM442.574 66.0078L443.449 66.4932L443.449 66.4926L442.574 66.0078ZM442.432 66.2646L441.558 65.7793L441.557 65.7803L442.432 66.2646ZM442.198 67.21L443.197 67.1939V67.1938L442.198 67.21ZM442.263 71.2725L441.263 71.2886V71.2886L442.263 71.2725ZM439.867 75.6943L439.35 74.8388L439.35 74.8389L439.867 75.6943ZM433.9 79.3066L434.417 80.1622L434.417 80.1621L433.9 79.3066ZM429.009 79.2686L429.54 78.4209L429.54 78.4209L429.009 79.2686ZM425.67 77.1787L426.201 76.3311L426.201 76.331L425.67 77.1787ZM424.48 76.918V75.918H424.48L424.48 76.918ZM423.579 77.1777L423.05 76.3295L423.05 76.3295L423.579 77.1777ZM420.256 79.2529L420.786 80.1012L420.786 80.1011L420.256 79.2529ZM415.383 79.2949L415.898 78.4378L415.898 78.4377L415.383 79.2949ZM409.396 75.6982L408.881 76.5554L408.881 76.5555L409.396 75.6982ZM406.989 71.2676L405.989 71.2514L405.989 71.2514L406.989 71.2676ZM407.054 67.2227L406.054 67.2065L406.054 67.2065L407.054 67.2227ZM406.823 66.2832L407.699 65.802L407.699 65.8018L406.823 66.2832ZM406.67 66.0059L405.794 66.4872L405.794 66.4873L406.67 66.0059ZM406.001 65.3164L406.503 64.4514L406.503 64.4514L406.001 65.3164ZM402.615 63.3525L402.114 64.2175L402.114 64.2176L402.615 63.3525ZM400.144 58.9814L399.144 58.9836L399.144 58.9837L400.144 58.9814ZM400.128 51.791L401.128 51.7888V51.7888L400.128 51.791ZM402.607 47.3926L403.107 48.2584L403.107 48.2584L402.607 47.3926ZM406.008 45.4268L405.508 44.5609L405.508 44.561L406.008 45.4268ZM406.677 44.7422L407.552 45.2268L407.553 45.225L406.677 44.7422ZM406.819 44.4854L405.944 44.0009L405.943 44.0025L406.819 44.4854ZM407.054 43.54L406.054 43.5561L406.054 43.5562L407.054 43.54ZM406.989 39.4775L407.988 39.4614V39.4614L406.989 39.4775ZM409.383 35.0557L409.901 35.9112L409.901 35.9111L409.383 35.0557ZM424.625 46.249L424.625 45.249H424.625V46.249ZM415.874 55.375H414.874V55.375L415.874 55.375ZM424.625 64.5V65.5H424.625L424.625 64.5ZM433.376 55.375L434.376 55.375V55.375H433.376ZM415.351 31.4434L415.869 32.2989C417.06 31.5776 418.529 31.5889 419.711 32.3291L420.241 31.4814L420.772 30.6338C418.951 29.4936 416.671 29.4752 414.833 30.5878L415.351 31.4434ZM420.241 31.4814L419.711 32.3291L423.05 34.4189L423.58 33.5713L424.111 32.7236L420.772 30.6338L420.241 31.4814ZM423.58 33.5713L423.05 34.4189C423.479 34.6879 423.975 34.832 424.483 34.832L424.483 33.832L424.483 32.832C424.355 32.832 424.226 32.7959 424.111 32.7236L423.58 33.5713ZM424.483 33.832V34.832H424.771V33.832V32.832H424.483V33.832ZM424.771 33.832V34.832C425.278 34.832 425.772 34.688 426.201 34.4206L425.671 33.5723L425.142 32.7239C425.026 32.7961 424.898 32.832 424.771 32.832V33.832ZM425.671 33.5723L426.201 34.4205L429.525 32.3453L428.995 31.4971L428.466 30.6488L425.142 32.724L425.671 33.5723ZM428.995 31.4971L429.525 32.3453C430.703 31.61 432.163 31.5978 433.352 32.3122L433.867 31.4551L434.382 30.5979C432.549 29.4961 430.281 29.5155 428.466 30.6488L428.995 31.4971ZM433.867 31.4551L433.352 32.3122L439.34 35.9099L439.855 35.0527L440.37 34.1956L434.382 30.5979L433.867 31.4551ZM439.855 35.0527L439.34 35.9099C440.538 36.6297 441.287 37.9861 441.263 39.4663L442.263 39.4824L443.263 39.4986C443.298 37.3321 442.202 35.2968 440.37 34.1956L439.855 35.0527ZM442.263 39.4824L441.263 39.4663L441.198 43.5239L442.198 43.54L443.197 43.5562L443.263 39.4985L442.263 39.4824ZM442.198 43.54L441.198 43.5239C441.19 44.0275 441.312 44.5274 441.557 44.9697L442.432 44.4854L443.307 44.001C443.234 43.8693 443.195 43.7152 443.197 43.5562L442.198 43.54ZM442.432 44.4854L441.558 44.9716L441.703 45.2313L442.576 44.7451L443.45 44.2589L443.306 43.9992L442.432 44.4854ZM442.576 44.7451L441.702 45.2297C441.945 45.669 442.301 46.0392 442.74 46.2936L443.241 45.4287L443.743 44.5638C443.628 44.4967 443.525 44.3937 443.451 44.2605L442.576 44.7451ZM443.241 45.4287L442.74 46.2937L446.133 48.2624L446.635 47.3975L447.137 46.5325L443.743 44.5637L443.241 45.4287ZM446.635 47.3975L446.133 48.2625C447.336 48.96 448.103 50.2962 448.107 51.7708L449.107 51.7686L450.107 51.7663C450.102 49.6083 448.979 47.6009 447.137 46.5325L446.635 47.3975ZM449.107 51.7686L448.107 51.7707L448.122 58.9612L449.122 58.959L450.122 58.9568L450.107 51.7664L449.107 51.7686ZM449.122 58.959L448.122 58.9612C448.126 60.445 447.354 61.7918 446.143 62.4916L446.644 63.3574L447.144 64.2233C448.999 63.1513 450.127 61.128 450.122 58.9568L449.122 58.959ZM446.644 63.3574L446.143 62.4916L442.742 64.4574L443.242 65.3232L443.743 66.189L447.144 64.2232L446.644 63.3574ZM443.242 65.3232L442.742 64.4574C442.303 64.7113 441.944 65.0817 441.7 65.523L442.574 66.0078L443.449 66.4926C443.523 66.3599 443.626 66.2566 443.743 66.1891L443.242 65.3232ZM442.574 66.0078L441.7 65.5225L441.558 65.7793L442.432 66.2646L443.306 66.75L443.449 66.4932L442.574 66.0078ZM442.432 66.2646L441.557 65.7803C441.312 66.2225 441.19 66.7225 441.198 67.2261L442.198 67.21L443.197 67.1938C443.195 67.0348 443.234 66.8807 443.307 66.749L442.432 66.2646ZM442.198 67.21L441.198 67.2261L441.263 71.2886L442.263 71.2725L443.263 71.2564L443.197 67.1939L442.198 67.21ZM442.263 71.2725L441.263 71.2886C441.287 72.7641 440.542 74.1172 439.35 74.8388L439.867 75.6943L440.385 76.5499C442.209 75.4463 443.298 73.4162 443.263 71.2564L442.263 71.2725ZM439.867 75.6943L439.35 74.8389L433.382 78.4512L433.9 79.3066L434.417 80.1621L440.385 76.5498L439.867 75.6943ZM433.9 79.3066L433.382 78.4511C432.19 79.1724 430.722 79.1611 429.54 78.4209L429.009 79.2686L428.478 80.1162C430.3 81.2565 432.579 81.2748 434.417 80.1622L433.9 79.3066ZM429.009 79.2686L429.54 78.4209L426.201 76.3311L425.67 77.1787L425.14 78.0264L428.478 80.1162L429.009 79.2686ZM425.67 77.1787L426.201 76.331C425.771 76.0623 425.276 75.918 424.768 75.918V76.918V77.918C424.895 77.918 425.024 77.9541 425.14 78.0265L425.67 77.1787ZM424.768 76.918V75.918H424.48V76.918V77.918H424.768V76.918ZM424.48 76.918L424.48 75.918C423.973 75.9181 423.479 76.0618 423.05 76.3295L423.579 77.1777L424.109 78.026C424.224 77.9539 424.352 77.918 424.48 77.918L424.48 76.918ZM423.579 77.1777L423.05 76.3295L419.726 78.4047L420.256 79.2529L420.786 80.1011L424.109 78.0259L423.579 77.1777ZM420.256 79.2529L419.726 78.4047C418.549 79.1401 417.087 79.1523 415.898 78.4378L415.383 79.2949L414.868 80.1521C416.702 81.2539 418.97 81.2347 420.786 80.1012L420.256 79.2529ZM415.383 79.2949L415.898 78.4377L409.911 74.841L409.396 75.6982L408.881 76.5555L414.868 80.1521L415.383 79.2949ZM409.396 75.6982L409.911 74.8411C408.713 74.1215 407.964 72.7645 407.988 71.2837L406.989 71.2676L405.989 71.2514C405.954 73.4173 407.048 75.4539 408.881 76.5554L409.396 75.6982ZM406.989 71.2676L407.988 71.2838L408.054 67.2388L407.054 67.2227L406.054 67.2065L405.989 71.2514L406.989 71.2676ZM407.054 67.2227L408.054 67.2388C408.062 66.738 407.94 66.2415 407.699 65.802L406.823 66.2832L405.946 66.7644C406.018 66.8961 406.057 67.0493 406.054 67.2065L407.054 67.2227ZM406.823 66.2832L407.699 65.8018L407.547 65.5244L406.67 66.0059L405.794 66.4873L405.946 66.7646L406.823 66.2832ZM406.67 66.0059L407.547 65.5245C407.303 65.0802 406.944 64.7071 406.503 64.4514L406.001 65.3164L405.499 66.1814C405.617 66.2495 405.72 66.3536 405.794 66.4872L406.67 66.0059ZM406.001 65.3164L406.503 64.4514L403.117 62.4875L402.615 63.3525L402.114 64.2176L405.499 66.1814L406.001 65.3164ZM402.615 63.3525L403.117 62.4876C401.915 61.79 401.147 60.4537 401.144 58.9792L400.144 58.9814L399.144 58.9837C399.149 61.1417 400.272 63.1491 402.114 64.2175L402.615 63.3525ZM400.144 58.9814L401.144 58.9793L401.128 51.7888L400.128 51.791L399.128 51.7932L399.144 58.9836L400.144 58.9814ZM400.128 51.791L401.128 51.7888C401.125 50.3051 401.896 48.9582 403.107 48.2584L402.607 47.3926L402.106 46.5268C400.251 47.5987 399.123 49.6221 399.128 51.7932L400.128 51.791ZM402.607 47.3926L403.107 48.2584L406.508 46.2926L406.008 45.4268L405.508 44.561L402.106 46.5268L402.607 47.3926ZM406.008 45.4268L406.508 46.2926C406.946 46.0395 407.306 45.6698 407.552 45.2268L406.677 44.7422L405.802 44.2575C405.73 44.3888 405.626 44.4925 405.508 44.5609L406.008 45.4268ZM406.677 44.7422L407.553 45.225L407.694 44.9682L406.819 44.4854L405.943 44.0025L405.801 44.2594L406.677 44.7422ZM406.819 44.4854L407.693 44.9698C407.937 44.5291 408.062 44.0295 408.054 43.5239L407.054 43.54L406.054 43.5562C406.057 43.7134 406.018 43.8676 405.944 44.0009L406.819 44.4854ZM407.054 43.54L408.054 43.5239L407.988 39.4614L406.989 39.4775L405.989 39.4936L406.054 43.5561L407.054 43.54ZM406.989 39.4775L407.988 39.4614C407.965 37.9855 408.709 36.6326 409.901 35.9112L409.383 35.0557L408.865 34.2002C407.042 35.3039 405.954 37.3342 405.989 39.4936L406.989 39.4775ZM409.383 35.0557L409.901 35.9111L415.869 32.2988L415.351 31.4434L414.833 30.5879L408.865 34.2002L409.383 35.0557ZM424.625 46.249V45.249C419.201 45.249 414.874 49.823 414.874 55.375H415.874H416.874C416.874 50.8476 420.384 47.249 424.625 47.249V46.249ZM415.874 55.375L414.874 55.375C414.875 60.9269 419.201 65.5 424.625 65.5V64.5V63.5C420.384 63.5 416.874 59.9021 416.874 55.375L415.874 55.375ZM424.625 64.5L424.625 65.5C430.05 65.5 434.376 60.9269 434.376 55.375L433.376 55.375L432.376 55.375C432.376 59.9021 428.867 63.5 424.625 63.5L424.625 64.5ZM433.376 55.375H434.376C434.376 49.823 430.05 45.249 424.625 45.249L424.625 46.249L424.625 47.249C428.867 47.249 432.376 50.8476 432.376 55.375H433.376Z" fill="#1A1040"/>
<g opacity="0.6" filter="url(#filter0_d_6207_31941)">
<rect x="16" y="384" width="216" height="80" rx="5" fill="#1A1040" shape-rendering="crispEdges"/>
<path d="M64.832 428.742C64.832 429.758 64.5859 430.641 64.0938 431.391C63.6016 432.141 62.8828 432.719 61.9375 433.125C61 433.531 59.8594 433.734 58.5156 433.734C57.9219 433.734 57.3398 433.695 56.7695 433.617C56.207 433.539 55.6641 433.426 55.1406 433.277C54.625 433.121 54.1328 432.93 53.6641 432.703V429.328C54.4766 429.688 55.3203 430.012 56.1953 430.301C57.0703 430.59 57.9375 430.734 58.7969 430.734C59.3906 430.734 59.8672 430.656 60.2266 430.5C60.5938 430.344 60.8594 430.129 61.0234 429.855C61.1875 429.582 61.2695 429.27 61.2695 428.918C61.2695 428.488 61.125 428.121 60.8359 427.816C60.5469 427.512 60.1484 427.227 59.6406 426.961C59.1406 426.695 58.5742 426.41 57.9414 426.105C57.543 425.918 57.1094 425.691 56.6406 425.426C56.1719 425.152 55.7266 424.82 55.3047 424.43C54.8828 424.039 54.5352 423.566 54.2617 423.012C53.9961 422.449 53.8633 421.777 53.8633 420.996C53.8633 419.973 54.0977 419.098 54.5664 418.371C55.0352 417.645 55.7031 417.09 56.5703 416.707C57.4453 416.316 58.4766 416.121 59.6641 416.121C60.5547 416.121 61.4023 416.227 62.207 416.438C63.0195 416.641 63.8672 416.938 64.75 417.328L63.5781 420.152C62.7891 419.832 62.082 419.586 61.457 419.414C60.832 419.234 60.1953 419.145 59.5469 419.145C59.0938 419.145 58.707 419.219 58.3867 419.367C58.0664 419.508 57.8242 419.711 57.6602 419.977C57.4961 420.234 57.4141 420.535 57.4141 420.879C57.4141 421.285 57.5312 421.629 57.7656 421.91C58.0078 422.184 58.3672 422.449 58.8438 422.707C59.3281 422.965 59.9297 423.266 60.6484 423.609C61.5234 424.023 62.2695 424.457 62.8867 424.91C63.5117 425.355 63.9922 425.883 64.3281 426.492C64.6641 427.094 64.832 427.844 64.832 428.742ZM71.2305 415.266V418.98C71.2305 419.629 71.207 420.246 71.1602 420.832C71.1211 421.418 71.0898 421.832 71.0664 422.074H71.2539C71.5352 421.621 71.8672 421.254 72.25 420.973C72.6406 420.691 73.0703 420.484 73.5391 420.352C74.0078 420.219 74.5117 420.152 75.0508 420.152C75.9961 420.152 76.8203 420.32 77.5234 420.656C78.2266 420.984 78.7734 421.504 79.1641 422.215C79.5547 422.918 79.75 423.832 79.75 424.957V433.5H76.1758V425.848C76.1758 424.91 76.0039 424.203 75.6602 423.727C75.3164 423.25 74.7852 423.012 74.0664 423.012C73.3477 423.012 72.7812 423.18 72.3672 423.516C71.9531 423.844 71.6602 424.332 71.4883 424.98C71.3164 425.621 71.2305 426.406 71.2305 427.336V433.5H67.6562V415.266H71.2305ZM95.3359 426.926C95.3359 428.02 95.1875 428.988 94.8906 429.832C94.6016 430.676 94.1758 431.391 93.6133 431.977C93.0586 432.555 92.3867 432.992 91.5977 433.289C90.8164 433.586 89.9336 433.734 88.9492 433.734C88.0273 433.734 87.1797 433.586 86.4062 433.289C85.6406 432.992 84.9727 432.555 84.4023 431.977C83.8398 431.391 83.4023 430.676 83.0898 429.832C82.7852 428.988 82.6328 428.02 82.6328 426.926C82.6328 425.473 82.8906 424.242 83.4062 423.234C83.9219 422.227 84.6562 421.461 85.6094 420.938C86.5625 420.414 87.6992 420.152 89.0195 420.152C90.2461 420.152 91.332 420.414 92.2773 420.938C93.2305 421.461 93.9766 422.227 94.5156 423.234C95.0625 424.242 95.3359 425.473 95.3359 426.926ZM86.2773 426.926C86.2773 427.785 86.3711 428.508 86.5586 429.094C86.7461 429.68 87.0391 430.121 87.4375 430.418C87.8359 430.715 88.3555 430.863 88.9961 430.863C89.6289 430.863 90.1406 430.715 90.5312 430.418C90.9297 430.121 91.2188 429.68 91.3984 429.094C91.5859 428.508 91.6797 427.785 91.6797 426.926C91.6797 426.059 91.5859 425.34 91.3984 424.77C91.2188 424.191 90.9297 423.758 90.5312 423.469C90.1328 423.18 89.6133 423.035 88.9727 423.035C88.0273 423.035 87.3398 423.359 86.9102 424.008C86.4883 424.656 86.2773 425.629 86.2773 426.926ZM105.602 420.152C105.781 420.152 105.988 420.164 106.223 420.188C106.465 420.203 106.66 420.227 106.809 420.258L106.539 423.609C106.422 423.57 106.254 423.543 106.035 423.527C105.824 423.504 105.641 423.492 105.484 423.492C105.023 423.492 104.574 423.551 104.137 423.668C103.707 423.785 103.32 423.977 102.977 424.242C102.633 424.5 102.359 424.844 102.156 425.273C101.961 425.695 101.863 426.215 101.863 426.832V433.5H98.2891V420.398H100.996L101.523 422.602H101.699C101.957 422.156 102.277 421.75 102.66 421.383C103.051 421.008 103.492 420.711 103.984 420.492C104.484 420.266 105.023 420.152 105.602 420.152ZM114.707 430.887C115.098 430.887 115.477 430.848 115.844 430.77C116.219 430.691 116.59 430.594 116.957 430.477V433.137C116.574 433.309 116.098 433.449 115.527 433.559C114.965 433.676 114.348 433.734 113.676 433.734C112.895 433.734 112.191 433.609 111.566 433.359C110.949 433.102 110.461 432.66 110.102 432.035C109.75 431.402 109.574 430.523 109.574 429.398V423.082H107.863V421.57L109.832 420.375L110.863 417.609H113.148V420.398H116.816V423.082H113.148V429.398C113.148 429.898 113.289 430.273 113.57 430.523C113.859 430.766 114.238 430.887 114.707 430.887ZM131.605 416.367C133.816 416.367 135.43 416.844 136.445 417.797C137.461 418.742 137.969 420.047 137.969 421.711C137.969 422.461 137.855 423.18 137.629 423.867C137.402 424.547 137.031 425.152 136.516 425.684C136.008 426.215 135.328 426.637 134.477 426.949C133.625 427.254 132.574 427.406 131.324 427.406H129.766V433.5H126.133V416.367H131.605ZM131.418 419.344H129.766V424.43H130.961C131.641 424.43 132.23 424.34 132.73 424.16C133.23 423.98 133.617 423.699 133.891 423.316C134.164 422.934 134.301 422.441 134.301 421.84C134.301 420.996 134.066 420.371 133.598 419.965C133.129 419.551 132.402 419.344 131.418 419.344ZM146.289 420.129C148.047 420.129 149.395 420.512 150.332 421.277C151.27 422.043 151.738 423.207 151.738 424.77V433.5H149.242L148.551 431.719H148.457C148.082 432.188 147.699 432.57 147.309 432.867C146.918 433.164 146.469 433.383 145.961 433.523C145.453 433.664 144.836 433.734 144.109 433.734C143.336 433.734 142.641 433.586 142.023 433.289C141.414 432.992 140.934 432.539 140.582 431.93C140.23 431.312 140.055 430.531 140.055 429.586C140.055 428.195 140.543 427.172 141.52 426.516C142.496 425.852 143.961 425.484 145.914 425.414L148.188 425.344V424.77C148.188 424.082 148.008 423.578 147.648 423.258C147.289 422.938 146.789 422.777 146.148 422.777C145.516 422.777 144.895 422.867 144.285 423.047C143.676 423.227 143.066 423.453 142.457 423.727L141.273 421.312C141.969 420.945 142.746 420.656 143.605 420.445C144.473 420.234 145.367 420.129 146.289 420.129ZM148.188 427.43L146.805 427.477C145.648 427.508 144.844 427.715 144.391 428.098C143.945 428.48 143.723 428.984 143.723 429.609C143.723 430.156 143.883 430.547 144.203 430.781C144.523 431.008 144.941 431.121 145.457 431.121C146.223 431.121 146.867 430.895 147.391 430.441C147.922 429.988 148.188 429.344 148.188 428.508V427.43ZM167.453 420.398V433.5H164.711L164.23 431.824H164.043C163.762 432.27 163.41 432.633 162.988 432.914C162.566 433.195 162.102 433.402 161.594 433.535C161.086 433.668 160.559 433.734 160.012 433.734C159.074 433.734 158.258 433.57 157.562 433.242C156.867 432.906 156.324 432.387 155.934 431.684C155.551 430.98 155.359 430.066 155.359 428.941V420.398H158.934V428.051C158.934 428.988 159.102 429.695 159.438 430.172C159.773 430.648 160.309 430.887 161.043 430.887C161.77 430.887 162.34 430.723 162.754 430.395C163.168 430.059 163.457 429.57 163.621 428.93C163.793 428.281 163.879 427.492 163.879 426.562V420.398H167.453ZM180.344 429.609C180.344 430.5 180.133 431.254 179.711 431.871C179.297 432.48 178.676 432.945 177.848 433.266C177.02 433.578 175.988 433.734 174.754 433.734C173.84 433.734 173.055 433.676 172.398 433.559C171.75 433.441 171.094 433.246 170.43 432.973V430.02C171.141 430.34 171.902 430.605 172.715 430.816C173.535 431.02 174.254 431.121 174.871 431.121C175.566 431.121 176.062 431.02 176.359 430.816C176.664 430.605 176.816 430.332 176.816 429.996C176.816 429.777 176.754 429.582 176.629 429.41C176.512 429.23 176.254 429.031 175.855 428.812C175.457 428.586 174.832 428.293 173.98 427.934C173.16 427.59 172.484 427.242 171.953 426.891C171.43 426.539 171.039 426.125 170.781 425.648C170.531 425.164 170.406 424.551 170.406 423.809C170.406 422.598 170.875 421.688 171.812 421.078C172.758 420.461 174.02 420.152 175.598 420.152C176.41 420.152 177.184 420.234 177.918 420.398C178.66 420.562 179.422 420.824 180.203 421.184L179.125 423.762C178.477 423.48 177.863 423.25 177.285 423.07C176.715 422.891 176.133 422.801 175.539 422.801C175.016 422.801 174.621 422.871 174.355 423.012C174.09 423.152 173.957 423.367 173.957 423.656C173.957 423.867 174.023 424.055 174.156 424.219C174.297 424.383 174.562 424.566 174.953 424.77C175.352 424.965 175.934 425.219 176.699 425.531C177.441 425.836 178.086 426.156 178.633 426.492C179.18 426.82 179.602 427.23 179.898 427.723C180.195 428.207 180.344 428.836 180.344 429.609ZM188.535 420.152C189.746 420.152 190.789 420.387 191.664 420.855C192.539 421.316 193.215 421.988 193.691 422.871C194.168 423.754 194.406 424.832 194.406 426.105V427.84H185.957C185.996 428.848 186.297 429.641 186.859 430.219C187.43 430.789 188.219 431.074 189.227 431.074C190.062 431.074 190.828 430.988 191.523 430.816C192.219 430.645 192.934 430.387 193.668 430.043V432.809C193.02 433.129 192.34 433.363 191.629 433.512C190.926 433.66 190.07 433.734 189.062 433.734C187.75 433.734 186.586 433.492 185.57 433.008C184.562 432.523 183.77 431.785 183.191 430.793C182.621 429.801 182.336 428.551 182.336 427.043C182.336 425.512 182.594 424.238 183.109 423.223C183.633 422.199 184.359 421.434 185.289 420.926C186.219 420.41 187.301 420.152 188.535 420.152ZM188.559 422.695C187.863 422.695 187.285 422.918 186.824 423.363C186.371 423.809 186.109 424.508 186.039 425.461H191.055C191.047 424.93 190.949 424.457 190.762 424.043C190.582 423.629 190.309 423.301 189.941 423.059C189.582 422.816 189.121 422.695 188.559 422.695Z" fill="white"/>
</g>
<g opacity="0.6" filter="url(#filter1_d_6207_31941)">
<rect x="248" y="384" width="216" height="80" rx="5" fill="#1A1040" shape-rendering="crispEdges"/>
<path d="M290.422 433.5V416.367H294.055V430.5H301.004V433.5H290.422ZM315.617 426.926C315.617 428.02 315.469 428.988 315.172 429.832C314.883 430.676 314.457 431.391 313.895 431.977C313.34 432.555 312.668 432.992 311.879 433.289C311.098 433.586 310.215 433.734 309.231 433.734C308.309 433.734 307.461 433.586 306.688 433.289C305.922 432.992 305.254 432.555 304.684 431.977C304.121 431.391 303.684 430.676 303.371 429.832C303.067 428.988 302.914 428.02 302.914 426.926C302.914 425.473 303.172 424.242 303.688 423.234C304.203 422.227 304.938 421.461 305.891 420.938C306.844 420.414 307.981 420.152 309.301 420.152C310.528 420.152 311.614 420.414 312.559 420.938C313.512 421.461 314.258 422.227 314.797 423.234C315.344 424.242 315.617 425.473 315.617 426.926ZM306.559 426.926C306.559 427.785 306.653 428.508 306.84 429.094C307.028 429.68 307.321 430.121 307.719 430.418C308.117 430.715 308.637 430.863 309.278 430.863C309.91 430.863 310.422 430.715 310.813 430.418C311.211 430.121 311.5 429.68 311.68 429.094C311.867 428.508 311.961 427.785 311.961 426.926C311.961 426.059 311.867 425.34 311.68 424.77C311.5 424.191 311.211 423.758 310.813 423.469C310.414 423.18 309.895 423.035 309.254 423.035C308.309 423.035 307.621 423.359 307.192 424.008C306.77 424.656 306.559 425.629 306.559 426.926ZM326.012 420.152C327.41 420.152 328.535 420.535 329.387 421.301C330.239 422.059 330.664 423.277 330.664 424.957V433.5H327.09V425.848C327.09 424.91 326.918 424.203 326.574 423.727C326.239 423.25 325.707 423.012 324.981 423.012C323.887 423.012 323.141 423.383 322.742 424.125C322.344 424.867 322.145 425.938 322.145 427.336V433.5H318.571V420.398H321.301L321.781 422.074H321.981C322.262 421.621 322.61 421.254 323.024 420.973C323.446 420.691 323.91 420.484 324.418 420.352C324.934 420.219 325.465 420.152 326.012 420.152ZM338.176 439.266C336.348 439.266 334.949 438.945 333.981 438.305C333.02 437.672 332.539 436.781 332.539 435.633C332.539 434.844 332.785 434.184 333.278 433.652C333.77 433.121 334.492 432.742 335.446 432.516C335.078 432.359 334.758 432.105 334.485 431.754C334.211 431.395 334.074 431.016 334.074 430.617C334.074 430.117 334.219 429.703 334.508 429.375C334.797 429.039 335.215 428.711 335.762 428.391C335.074 428.094 334.528 427.617 334.121 426.961C333.723 426.305 333.524 425.531 333.524 424.641C333.524 423.688 333.731 422.879 334.145 422.215C334.567 421.543 335.176 421.031 335.973 420.68C336.778 420.328 337.754 420.152 338.903 420.152C339.145 420.152 339.426 420.168 339.746 420.199C340.067 420.23 340.36 420.266 340.625 420.305C340.899 420.344 341.082 420.375 341.176 420.398H345.746V422.215L343.696 422.742C343.883 423.031 344.024 423.34 344.117 423.668C344.211 423.996 344.258 424.344 344.258 424.711C344.258 426.117 343.766 427.215 342.781 428.004C341.805 428.785 340.446 429.176 338.703 429.176C338.289 429.152 337.899 429.121 337.531 429.082C337.352 429.223 337.215 429.371 337.121 429.527C337.028 429.684 336.981 429.848 336.981 430.02C336.981 430.191 337.051 430.336 337.192 430.453C337.34 430.562 337.559 430.648 337.848 430.711C338.145 430.766 338.512 430.793 338.949 430.793H341.176C342.614 430.793 343.707 431.102 344.457 431.719C345.215 432.336 345.594 433.242 345.594 434.438C345.594 435.969 344.953 437.156 343.672 438C342.399 438.844 340.567 439.266 338.176 439.266ZM338.328 436.934C339.18 436.934 339.91 436.852 340.52 436.688C341.137 436.531 341.61 436.305 341.938 436.008C342.266 435.719 342.43 435.371 342.43 434.965C342.43 434.637 342.332 434.375 342.137 434.18C341.949 433.992 341.66 433.859 341.27 433.781C340.887 433.703 340.395 433.664 339.793 433.664H337.942C337.504 433.664 337.11 433.734 336.758 433.875C336.414 434.016 336.141 434.211 335.938 434.461C335.735 434.719 335.633 435.016 335.633 435.352C335.633 435.844 335.867 436.23 336.336 436.512C336.813 436.793 337.477 436.934 338.328 436.934ZM338.903 426.996C339.574 426.996 340.067 426.789 340.379 426.375C340.692 425.961 340.848 425.398 340.848 424.688C340.848 423.898 340.684 423.309 340.356 422.918C340.035 422.52 339.551 422.32 338.903 422.32C338.246 422.32 337.754 422.52 337.426 422.918C337.098 423.309 336.934 423.898 336.934 424.688C336.934 425.398 337.094 425.961 337.414 426.375C337.742 426.789 338.239 426.996 338.903 426.996ZM359.903 416.367C362.114 416.367 363.727 416.844 364.742 417.797C365.758 418.742 366.266 420.047 366.266 421.711C366.266 422.461 366.153 423.18 365.926 423.867C365.699 424.547 365.328 425.152 364.813 425.684C364.305 426.215 363.625 426.637 362.774 426.949C361.922 427.254 360.871 427.406 359.621 427.406H358.063V433.5H354.43V416.367H359.903ZM359.715 419.344H358.063V424.43H359.258C359.938 424.43 360.528 424.34 361.028 424.16C361.528 423.98 361.914 423.699 362.188 423.316C362.461 422.934 362.598 422.441 362.598 421.84C362.598 420.996 362.364 420.371 361.895 419.965C361.426 419.551 360.699 419.344 359.715 419.344ZM374.586 420.129C376.344 420.129 377.692 420.512 378.629 421.277C379.567 422.043 380.035 423.207 380.035 424.77V433.5H377.539L376.848 431.719H376.754C376.379 432.188 375.996 432.57 375.606 432.867C375.215 433.164 374.766 433.383 374.258 433.523C373.75 433.664 373.133 433.734 372.406 433.734C371.633 433.734 370.938 433.586 370.321 433.289C369.711 432.992 369.231 432.539 368.879 431.93C368.528 431.312 368.352 430.531 368.352 429.586C368.352 428.195 368.84 427.172 369.817 426.516C370.793 425.852 372.258 425.484 374.211 425.414L376.485 425.344V424.77C376.485 424.082 376.305 423.578 375.946 423.258C375.586 422.938 375.086 422.777 374.446 422.777C373.813 422.777 373.192 422.867 372.582 423.047C371.973 423.227 371.364 423.453 370.754 423.727L369.571 421.312C370.266 420.945 371.043 420.656 371.903 420.445C372.77 420.234 373.664 420.129 374.586 420.129ZM376.485 427.43L375.102 427.477C373.946 427.508 373.141 427.715 372.688 428.098C372.242 428.48 372.02 428.984 372.02 429.609C372.02 430.156 372.18 430.547 372.5 430.781C372.821 431.008 373.239 431.121 373.754 431.121C374.52 431.121 375.164 430.895 375.688 430.441C376.219 429.988 376.485 429.344 376.485 428.508V427.43ZM395.75 420.398V433.5H393.008L392.528 431.824H392.34C392.059 432.27 391.707 432.633 391.285 432.914C390.864 433.195 390.399 433.402 389.891 433.535C389.383 433.668 388.856 433.734 388.309 433.734C387.371 433.734 386.555 433.57 385.86 433.242C385.164 432.906 384.621 432.387 384.231 431.684C383.848 430.98 383.656 430.066 383.656 428.941V420.398H387.231V428.051C387.231 428.988 387.399 429.695 387.735 430.172C388.071 430.648 388.606 430.887 389.34 430.887C390.067 430.887 390.637 430.723 391.051 430.395C391.465 430.059 391.754 429.57 391.918 428.93C392.09 428.281 392.176 427.492 392.176 426.562V420.398H395.75ZM408.641 429.609C408.641 430.5 408.43 431.254 408.008 431.871C407.594 432.48 406.973 432.945 406.145 433.266C405.317 433.578 404.285 433.734 403.051 433.734C402.137 433.734 401.352 433.676 400.696 433.559C400.047 433.441 399.391 433.246 398.727 432.973V430.02C399.438 430.34 400.199 430.605 401.012 430.816C401.832 431.02 402.551 431.121 403.168 431.121C403.864 431.121 404.36 431.02 404.656 430.816C404.961 430.605 405.114 430.332 405.114 429.996C405.114 429.777 405.051 429.582 404.926 429.41C404.809 429.23 404.551 429.031 404.153 428.812C403.754 428.586 403.129 428.293 402.278 427.934C401.457 427.59 400.781 427.242 400.25 426.891C399.727 426.539 399.336 426.125 399.078 425.648C398.828 425.164 398.703 424.551 398.703 423.809C398.703 422.598 399.172 421.688 400.11 421.078C401.055 420.461 402.317 420.152 403.895 420.152C404.707 420.152 405.481 420.234 406.215 420.398C406.957 420.562 407.719 420.824 408.5 421.184L407.422 423.762C406.774 423.48 406.16 423.25 405.582 423.07C405.012 422.891 404.43 422.801 403.836 422.801C403.313 422.801 402.918 422.871 402.653 423.012C402.387 423.152 402.254 423.367 402.254 423.656C402.254 423.867 402.321 424.055 402.453 424.219C402.594 424.383 402.86 424.566 403.25 424.77C403.649 424.965 404.231 425.219 404.996 425.531C405.739 425.836 406.383 426.156 406.93 426.492C407.477 426.82 407.899 427.23 408.196 427.723C408.492 428.207 408.641 428.836 408.641 429.609ZM416.832 420.152C418.043 420.152 419.086 420.387 419.961 420.855C420.836 421.316 421.512 421.988 421.989 422.871C422.465 423.754 422.703 424.832 422.703 426.105V427.84H414.254C414.293 428.848 414.594 429.641 415.156 430.219C415.727 430.789 416.516 431.074 417.524 431.074C418.36 431.074 419.125 430.988 419.821 430.816C420.516 430.645 421.231 430.387 421.965 430.043V432.809C421.317 433.129 420.637 433.363 419.926 433.512C419.223 433.66 418.367 433.734 417.36 433.734C416.047 433.734 414.883 433.492 413.867 433.008C412.86 432.523 412.067 431.785 411.489 430.793C410.918 429.801 410.633 428.551 410.633 427.043C410.633 425.512 410.891 424.238 411.406 423.223C411.93 422.199 412.656 421.434 413.586 420.926C414.516 420.41 415.598 420.152 416.832 420.152ZM416.856 422.695C416.16 422.695 415.582 422.918 415.121 423.363C414.668 423.809 414.406 424.508 414.336 425.461H419.352C419.344 424.93 419.246 424.457 419.059 424.043C418.879 423.629 418.606 423.301 418.239 423.059C417.879 422.816 417.418 422.695 416.856 422.695Z" fill="white"/>
</g>
<rect x="17.5" y="113.5" width="445" height="253" rx="4.5" fill="white" stroke="#11A0D6" stroke-width="3"/>
<path d="M180.746 145.242C180.746 146.258 180.5 147.141 180.008 147.891C179.516 148.641 178.797 149.219 177.852 149.625C176.914 150.031 175.774 150.234 174.43 150.234C173.836 150.234 173.254 150.195 172.684 150.117C172.121 150.039 171.578 149.926 171.055 149.777C170.539 149.621 170.047 149.43 169.578 149.203V145.828C170.391 146.188 171.235 146.512 172.11 146.801C172.985 147.09 173.852 147.234 174.711 147.234C175.305 147.234 175.781 147.156 176.141 147C176.508 146.844 176.774 146.629 176.938 146.355C177.102 146.082 177.184 145.77 177.184 145.418C177.184 144.988 177.039 144.621 176.75 144.316C176.461 144.012 176.063 143.727 175.555 143.461C175.055 143.195 174.489 142.91 173.856 142.605C173.457 142.418 173.024 142.191 172.555 141.926C172.086 141.652 171.641 141.32 171.219 140.93C170.797 140.539 170.449 140.066 170.176 139.512C169.91 138.949 169.778 138.277 169.778 137.496C169.778 136.473 170.012 135.598 170.481 134.871C170.949 134.145 171.617 133.59 172.485 133.207C173.36 132.816 174.391 132.621 175.578 132.621C176.469 132.621 177.317 132.727 178.121 132.938C178.934 133.141 179.781 133.438 180.664 133.828L179.492 136.652C178.703 136.332 177.996 136.086 177.371 135.914C176.746 135.734 176.11 135.645 175.461 135.645C175.008 135.645 174.621 135.719 174.301 135.867C173.981 136.008 173.739 136.211 173.574 136.477C173.41 136.734 173.328 137.035 173.328 137.379C173.328 137.785 173.446 138.129 173.68 138.41C173.922 138.684 174.281 138.949 174.758 139.207C175.242 139.465 175.844 139.766 176.563 140.109C177.438 140.523 178.184 140.957 178.801 141.41C179.426 141.855 179.906 142.383 180.242 142.992C180.578 143.594 180.746 144.344 180.746 145.242ZM191.129 135.645C190.434 135.645 189.817 135.781 189.278 136.055C188.746 136.32 188.297 136.707 187.93 137.215C187.571 137.723 187.297 138.336 187.11 139.055C186.922 139.773 186.828 140.582 186.828 141.48C186.828 142.691 186.977 143.727 187.274 144.586C187.578 145.438 188.047 146.09 188.68 146.543C189.313 146.988 190.129 147.211 191.129 147.211C191.824 147.211 192.52 147.133 193.215 146.977C193.918 146.82 194.68 146.598 195.5 146.309V149.355C194.742 149.668 193.996 149.891 193.262 150.023C192.528 150.164 191.703 150.234 190.789 150.234C189.024 150.234 187.571 149.871 186.43 149.145C185.297 148.41 184.457 147.387 183.91 146.074C183.364 144.754 183.09 143.215 183.09 141.457C183.09 140.16 183.266 138.973 183.617 137.895C183.969 136.816 184.485 135.883 185.164 135.094C185.844 134.305 186.684 133.695 187.684 133.266C188.684 132.836 189.832 132.621 191.129 132.621C191.981 132.621 192.832 132.73 193.684 132.949C194.543 133.16 195.364 133.453 196.145 133.828L194.973 136.781C194.332 136.477 193.688 136.211 193.039 135.984C192.391 135.758 191.754 135.645 191.129 135.645ZM213.196 150H209.574V142.605H202.789V150H199.156V132.867H202.789V139.582H209.574V132.867H213.196V150ZM227.399 150H217.531V132.867H227.399V135.844H221.164V139.605H226.965V142.582H221.164V147H227.399V150ZM245.199 141.27C245.199 143.199 244.828 144.812 244.086 146.109C243.352 147.398 242.285 148.371 240.887 149.027C239.489 149.676 237.805 150 235.836 150H230.985V132.867H236.364C238.16 132.867 239.719 133.188 241.039 133.828C242.36 134.461 243.383 135.402 244.11 136.652C244.836 137.895 245.199 139.434 245.199 141.27ZM241.426 141.363C241.426 140.098 241.239 139.059 240.864 138.246C240.496 137.426 239.949 136.82 239.223 136.43C238.504 136.039 237.614 135.844 236.551 135.844H234.617V147H236.176C237.949 147 239.266 146.527 240.125 145.582C240.992 144.637 241.426 143.23 241.426 141.363ZM262.696 132.867V143.953C262.696 145.133 262.434 146.199 261.91 147.152C261.395 148.098 260.61 148.848 259.555 149.402C258.508 149.957 257.188 150.234 255.594 150.234C253.328 150.234 251.602 149.656 250.414 148.5C249.227 147.344 248.633 145.812 248.633 143.906V132.867H252.254V143.355C252.254 144.77 252.543 145.762 253.121 146.332C253.699 146.902 254.555 147.188 255.688 147.188C256.485 147.188 257.129 147.051 257.621 146.777C258.121 146.504 258.489 146.082 258.723 145.512C258.957 144.941 259.074 144.215 259.074 143.332V132.867H262.696ZM266.891 150V132.867H270.524V147H277.473V150H266.891ZM290.328 150H280.461V132.867H290.328V135.844H284.094V139.605H289.895V142.582H284.094V147H290.328V150ZM308.129 141.27C308.129 143.199 307.758 144.812 307.016 146.109C306.281 147.398 305.215 148.371 303.817 149.027C302.418 149.676 300.735 150 298.766 150H293.914V132.867H299.293C301.09 132.867 302.649 133.188 303.969 133.828C305.289 134.461 306.313 135.402 307.039 136.652C307.766 137.895 308.129 139.434 308.129 141.27ZM304.356 141.363C304.356 140.098 304.168 139.059 303.793 138.246C303.426 137.426 302.879 136.82 302.153 136.43C301.434 136.039 300.543 135.844 299.481 135.844H297.547V147H299.106C300.879 147 302.196 146.527 303.055 145.582C303.922 144.637 304.356 143.23 304.356 141.363Z" fill="black"/>
<path d="M16 168H464V362C464 365.314 461.314 368 458 368H22C18.6863 368 16 365.314 16 362V168Z" fill="#11A0D6"/>
<path d="M267.383 235.826L254.305 228.47V213.348H260.435V224.791L270.244 230.513L267.383 235.826ZM279.644 244.817C281.687 247.678 282.913 250.948 282.913 254.217V291H274.739V278.739H201.174V291H193V229.696H201.174V266.478H233.87V240.322C231.418 235.826 229.783 230.922 229.783 225.609C229.783 209.67 242.452 197 258.392 197C274.331 197 287 209.67 287 225.609C287 232.965 284.139 239.504 279.644 244.817ZM237.957 225.609C237.957 237.052 246.948 246.043 258.392 246.043C269.835 246.043 278.826 237.052 278.826 225.609C278.826 214.165 269.835 205.174 258.392 205.174C246.948 205.174 237.957 214.165 237.957 225.609ZM217.522 262.391C224.47 262.391 229.783 257.078 229.783 250.13C229.783 243.183 224.47 237.87 217.522 237.87C210.574 237.87 205.261 243.183 205.261 250.13C205.261 257.078 210.574 262.391 217.522 262.391Z" fill="white"/>
<path d="M140.469 330L147.196 315.281H138.301V312.867H150.16V314.754L143.434 330H140.469ZM152.739 328.547C152.739 327.906 152.903 327.457 153.231 327.199C153.567 326.934 153.973 326.801 154.449 326.801C154.926 326.801 155.332 326.934 155.668 327.199C156.012 327.457 156.184 327.906 156.184 328.547C156.184 329.172 156.012 329.625 155.668 329.906C155.332 330.18 154.926 330.316 154.449 330.316C153.973 330.316 153.567 330.18 153.231 329.906C152.903 329.625 152.739 329.172 152.739 328.547ZM152.739 318.516C152.739 317.867 152.903 317.41 153.231 317.145C153.567 316.879 153.973 316.746 154.449 316.746C154.926 316.746 155.332 316.879 155.668 317.145C156.012 317.41 156.184 317.867 156.184 318.516C156.184 319.133 156.012 319.582 155.668 319.863C155.332 320.137 154.926 320.273 154.449 320.273C153.973 320.273 153.567 320.137 153.231 319.863C152.903 319.582 152.739 319.133 152.739 318.516ZM170.434 321.422C170.434 322.805 170.324 324.043 170.106 325.137C169.895 326.223 169.559 327.145 169.098 327.902C168.637 328.66 168.035 329.238 167.293 329.637C166.551 330.035 165.653 330.234 164.598 330.234C163.278 330.234 162.188 329.887 161.328 329.191C160.469 328.488 159.832 327.48 159.418 326.168C159.004 324.848 158.797 323.266 158.797 321.422C158.797 319.578 158.985 318 159.36 316.688C159.742 315.367 160.36 314.355 161.211 313.652C162.063 312.949 163.192 312.598 164.598 312.598C165.926 312.598 167.02 312.949 167.879 313.652C168.746 314.348 169.387 315.355 169.801 316.676C170.223 317.988 170.434 319.57 170.434 321.422ZM161.574 321.422C161.574 322.867 161.668 324.074 161.856 325.043C162.051 326.012 162.371 326.738 162.817 327.223C163.262 327.699 163.856 327.938 164.598 327.938C165.34 327.938 165.934 327.699 166.379 327.223C166.824 326.746 167.145 326.023 167.34 325.055C167.543 324.086 167.645 322.875 167.645 321.422C167.645 319.984 167.547 318.781 167.352 317.812C167.156 316.844 166.836 316.117 166.391 315.633C165.946 315.141 165.348 314.895 164.598 314.895C163.848 314.895 163.25 315.141 162.805 315.633C162.367 316.117 162.051 316.844 161.856 317.812C161.668 318.781 161.574 319.984 161.574 321.422ZM184.168 321.422C184.168 322.805 184.059 324.043 183.84 325.137C183.629 326.223 183.293 327.145 182.832 327.902C182.371 328.66 181.77 329.238 181.028 329.637C180.285 330.035 179.387 330.234 178.332 330.234C177.012 330.234 175.922 329.887 175.063 329.191C174.203 328.488 173.567 327.48 173.153 326.168C172.739 324.848 172.531 323.266 172.531 321.422C172.531 319.578 172.719 318 173.094 316.688C173.477 315.367 174.094 314.355 174.946 313.652C175.797 312.949 176.926 312.598 178.332 312.598C179.66 312.598 180.754 312.949 181.614 313.652C182.481 314.348 183.121 315.355 183.535 316.676C183.957 317.988 184.168 319.57 184.168 321.422ZM175.309 321.422C175.309 322.867 175.403 324.074 175.59 325.043C175.785 326.012 176.106 326.738 176.551 327.223C176.996 327.699 177.59 327.938 178.332 327.938C179.074 327.938 179.668 327.699 180.114 327.223C180.559 326.746 180.879 326.023 181.074 325.055C181.278 324.086 181.379 322.875 181.379 321.422C181.379 319.984 181.281 318.781 181.086 317.812C180.891 316.844 180.571 316.117 180.125 315.633C179.68 315.141 179.082 314.895 178.332 314.895C177.582 314.895 176.985 315.141 176.539 315.633C176.102 316.117 175.785 316.844 175.59 317.812C175.403 318.781 175.309 319.984 175.309 321.422ZM198.688 312.867C200.899 312.867 202.512 313.32 203.528 314.227C204.543 315.133 205.051 316.402 205.051 318.035C205.051 318.777 204.934 319.484 204.699 320.156C204.473 320.82 204.098 321.41 203.574 321.926C203.051 322.434 202.36 322.836 201.5 323.133C200.649 323.43 199.598 323.578 198.348 323.578H196.52V330H193.707V312.867H198.688ZM198.5 315.199H196.52V321.234H198.055C198.938 321.234 199.688 321.133 200.305 320.93C200.922 320.719 201.391 320.387 201.711 319.934C202.031 319.48 202.192 318.883 202.192 318.141C202.192 317.148 201.891 316.41 201.289 315.926C200.696 315.441 199.766 315.199 198.5 315.199ZM215.867 330L210.934 315.691H210.828C210.852 316.012 210.879 316.449 210.91 317.004C210.942 317.559 210.969 318.152 210.992 318.785C211.016 319.418 211.028 320.023 211.028 320.602V330H208.473V312.867H212.422L217.168 326.543H217.239L222.149 312.867H226.086V330H223.403V320.461C223.403 319.938 223.41 319.371 223.426 318.762C223.449 318.152 223.473 317.574 223.496 317.027C223.528 316.48 223.551 316.043 223.567 315.715H223.473L218.352 330H215.867ZM235.426 324.727V322.395H241.473V324.727H235.426ZM261.207 320.168C261.207 321.184 261.133 322.18 260.985 323.156C260.844 324.133 260.594 325.047 260.235 325.898C259.883 326.75 259.395 327.504 258.77 328.16C258.153 328.809 257.371 329.316 256.426 329.684C255.481 330.051 254.34 330.234 253.004 330.234C252.668 330.234 252.278 330.215 251.832 330.176C251.395 330.145 251.035 330.098 250.754 330.035V327.738C251.051 327.824 251.383 327.895 251.75 327.949C252.125 327.996 252.496 328.02 252.864 328.02C254.309 328.02 255.434 327.75 256.239 327.211C257.051 326.672 257.625 325.93 257.961 324.984C258.305 324.039 258.5 322.965 258.547 321.762H258.406C258.18 322.137 257.895 322.48 257.551 322.793C257.207 323.098 256.781 323.344 256.274 323.531C255.766 323.711 255.149 323.801 254.422 323.801C253.438 323.801 252.578 323.594 251.844 323.18C251.117 322.766 250.551 322.164 250.145 321.375C249.746 320.578 249.547 319.621 249.547 318.504C249.547 317.293 249.778 316.25 250.239 315.375C250.699 314.5 251.352 313.828 252.196 313.359C253.039 312.883 254.031 312.645 255.172 312.645C256.031 312.645 256.824 312.801 257.551 313.113C258.285 313.418 258.926 313.887 259.473 314.52C260.02 315.145 260.446 315.93 260.75 316.875C261.055 317.812 261.207 318.91 261.207 320.168ZM255.207 314.918C254.34 314.918 253.633 315.211 253.086 315.797C252.539 316.375 252.266 317.266 252.266 318.469C252.266 319.445 252.5 320.219 252.969 320.789C253.438 321.359 254.156 321.645 255.125 321.645C255.797 321.645 256.375 321.508 256.86 321.234C257.352 320.953 257.731 320.598 257.996 320.168C258.27 319.738 258.406 319.301 258.406 318.855C258.406 318.395 258.34 317.934 258.207 317.473C258.082 317.012 257.887 316.59 257.621 316.207C257.356 315.824 257.02 315.516 256.614 315.281C256.215 315.039 255.746 314.918 255.207 314.918ZM263.856 328.547C263.856 327.906 264.02 327.457 264.348 327.199C264.684 326.934 265.09 326.801 265.567 326.801C266.043 326.801 266.449 326.934 266.785 327.199C267.129 327.457 267.301 327.906 267.301 328.547C267.301 329.172 267.129 329.625 266.785 329.906C266.449 330.18 266.043 330.316 265.567 330.316C265.09 330.316 264.684 330.18 264.348 329.906C264.02 329.625 263.856 329.172 263.856 328.547ZM263.856 318.516C263.856 317.867 264.02 317.41 264.348 317.145C264.684 316.879 265.09 316.746 265.567 316.746C266.043 316.746 266.449 316.879 266.785 317.145C267.129 317.41 267.301 317.867 267.301 318.516C267.301 319.133 267.129 319.582 266.785 319.863C266.449 320.137 266.043 320.273 265.567 320.273C265.09 320.273 264.684 320.137 264.348 319.863C264.02 319.582 263.856 319.133 263.856 318.516ZM281.551 321.422C281.551 322.805 281.442 324.043 281.223 325.137C281.012 326.223 280.676 327.145 280.215 327.902C279.754 328.66 279.153 329.238 278.41 329.637C277.668 330.035 276.77 330.234 275.715 330.234C274.395 330.234 273.305 329.887 272.446 329.191C271.586 328.488 270.949 327.48 270.535 326.168C270.121 324.848 269.914 323.266 269.914 321.422C269.914 319.578 270.102 318 270.477 316.688C270.86 315.367 271.477 314.355 272.328 313.652C273.18 312.949 274.309 312.598 275.715 312.598C277.043 312.598 278.137 312.949 278.996 313.652C279.864 314.348 280.504 315.355 280.918 316.676C281.34 317.988 281.551 319.57 281.551 321.422ZM272.692 321.422C272.692 322.867 272.785 324.074 272.973 325.043C273.168 326.012 273.489 326.738 273.934 327.223C274.379 327.699 274.973 327.938 275.715 327.938C276.457 327.938 277.051 327.699 277.496 327.223C277.942 326.746 278.262 326.023 278.457 325.055C278.66 324.086 278.762 322.875 278.762 321.422C278.762 319.984 278.664 318.781 278.469 317.812C278.274 316.844 277.953 316.117 277.508 315.633C277.063 315.141 276.465 314.895 275.715 314.895C274.965 314.895 274.367 315.141 273.922 315.633C273.485 316.117 273.168 316.844 272.973 317.812C272.785 318.781 272.692 319.984 272.692 321.422ZM295.285 321.422C295.285 322.805 295.176 324.043 294.957 325.137C294.746 326.223 294.41 327.145 293.949 327.902C293.489 328.66 292.887 329.238 292.145 329.637C291.403 330.035 290.504 330.234 289.449 330.234C288.129 330.234 287.039 329.887 286.18 329.191C285.321 328.488 284.684 327.48 284.27 326.168C283.856 324.848 283.649 323.266 283.649 321.422C283.649 319.578 283.836 318 284.211 316.688C284.594 315.367 285.211 314.355 286.063 313.652C286.914 312.949 288.043 312.598 289.449 312.598C290.778 312.598 291.871 312.949 292.731 313.652C293.598 314.348 294.239 315.355 294.653 316.676C295.074 317.988 295.285 319.57 295.285 321.422ZM286.426 321.422C286.426 322.867 286.52 324.074 286.707 325.043C286.903 326.012 287.223 326.738 287.668 327.223C288.114 327.699 288.707 327.938 289.449 327.938C290.192 327.938 290.785 327.699 291.231 327.223C291.676 326.746 291.996 326.023 292.192 325.055C292.395 324.086 292.496 322.875 292.496 321.422C292.496 319.984 292.399 318.781 292.203 317.812C292.008 316.844 291.688 316.117 291.242 315.633C290.797 315.141 290.199 314.895 289.449 314.895C288.699 314.895 288.102 315.141 287.656 315.633C287.219 316.117 286.903 316.844 286.707 317.812C286.52 318.781 286.426 319.984 286.426 321.422ZM315.442 330L313.766 325.242H307.215L305.539 330H302.574L308.949 312.797H312.067L318.43 330H315.442ZM313.039 322.828L311.41 318.141C311.348 317.938 311.258 317.652 311.141 317.285C311.024 316.91 310.906 316.531 310.789 316.148C310.672 315.758 310.574 315.43 310.496 315.164C310.418 315.484 310.321 315.844 310.203 316.242C310.094 316.633 309.985 317 309.875 317.344C309.774 317.688 309.696 317.953 309.641 318.141L308 322.828H313.039ZM328.086 330L323.153 315.691H323.047C323.071 316.012 323.098 316.449 323.129 317.004C323.16 317.559 323.188 318.152 323.211 318.785C323.235 319.418 323.246 320.023 323.246 320.602V330H320.692V312.867H324.641L329.387 326.543H329.457L334.367 312.867H338.305V330H335.621V320.461C335.621 319.938 335.629 319.371 335.645 318.762C335.668 318.152 335.692 317.574 335.715 317.027C335.746 316.48 335.77 316.043 335.785 315.715H335.692L330.571 330H328.086Z" fill="white"/>
<defs>
<filter id="filter0_d_6207_31941" x="12" y="382" width="224" height="88" filterUnits="userSpaceOnUse" color-interpolation-filters="sRGB">
<feFlood flood-opacity="0" result="BackgroundImageFix"/>
<feColorMatrix in="SourceAlpha" type="matrix" values="0 0 0 0 0 0 0 0 0 0 0 0 0 0 0 0 0 0 127 0" result="hardAlpha"/>
<feOffset dy="2"/>
<feGaussianBlur stdDeviation="2"/>
<feComposite in2="hardAlpha" operator="out"/>
<feColorMatrix type="matrix" values="0 0 0 0 0 0 0 0 0 0 0 0 0 0 0 0 0 0 0.25 0"/>
<feBlend mode="normal" in2="BackgroundImageFix" result="effect1_dropShadow_6207_31941"/>
<feBlend mode="normal" in="SourceGraphic" in2="effect1_dropShadow_6207_31941" result="shape"/>
</filter>
<filter id="filter1_d_6207_31941" x="244" y="382" width="224" height="88" filterUnits="userSpaceOnUse" color-interpolation-filters="sRGB">
<feFlood flood-opacity="0" result="BackgroundImageFix"/>
<feColorMatrix in="SourceAlpha" type="matrix" values="0 0 0 0 0 0 0 0 0 0 0 0 0 0 0 0 0 0 127 0" result="hardAlpha"/>
<feOffset dy="2"/>
<feGaussianBlur stdDeviation="2"/>
<feComposite in2="hardAlpha" operator="out"/>
<feColorMatrix type="matrix" values="0 0 0 0 0 0 0 0 0 0 0 0 0 0 0 0 0 0 0.25 0"/>
<feBlend mode="normal" in2="BackgroundImageFix" result="effect1_dropShadow_6207_31941"/>
<feBlend mode="normal" in="SourceGraphic" in2="effect1_dropShadow_6207_31941" result="shape"/>
</filter>
</defs>
</svg>
