<svg width="480" height="480" viewBox="0 0 480 480" fill="none" xmlns="http://www.w3.org/2000/svg">
<rect width="480" height="480" fill="white"/>
<rect x="17.5" y="17.5" width="349" height="77" rx="3.5" fill="white"/>
<rect x="17.5" y="17.5" width="349" height="77" rx="3.5" stroke="#31344E" stroke-width="3"/>
<path d="M23 25C23 23.8954 23.8954 23 25 23H188C189.105 23 190 23.8954 190 25V87C190 88.1046 189.105 89 188 89H25C23.8954 89 23 88.1046 23 87V25Z" fill="#1A1040"/>
<path d="M49.3594 48.3672H54.6914C56.9727 48.3672 58.6992 48.6875 59.8711 49.3281C61.043 49.9688 61.6289 51.0938 61.6289 52.7031C61.6289 53.3516 61.5234 53.9375 61.3125 54.4609C61.1094 54.9844 60.8125 55.4141 60.4219 55.75C60.0312 56.0859 59.5547 56.3047 58.9922 56.4062V56.5234C59.5625 56.6406 60.0781 56.8438 60.5391 57.1328C61 57.4141 61.3672 57.8281 61.6406 58.375C61.9219 58.9141 62.0625 59.6328 62.0625 60.5312C62.0625 61.5703 61.8086 62.4609 61.3008 63.2031C60.793 63.9453 60.0664 64.5156 59.1211 64.9141C58.1836 65.3047 57.0664 65.5 55.7695 65.5H49.3594V48.3672ZM52.9922 55.1523H55.1016C56.1562 55.1523 56.8867 54.9883 57.293 54.6602C57.6992 54.3242 57.9023 53.832 57.9023 53.1836C57.9023 52.5273 57.6602 52.0586 57.1758 51.7773C56.6992 51.4883 55.9414 51.3438 54.9023 51.3438H52.9922V55.1523ZM52.9922 58.0352V62.5H55.3594C56.4531 62.5 57.2148 62.2891 57.6445 61.8672C58.0742 61.4453 58.2891 60.8789 58.2891 60.168C58.2891 59.7461 58.1953 59.375 58.0078 59.0547C57.8203 58.7344 57.5039 58.4844 57.0586 58.3047C56.6211 58.125 56.0156 58.0352 55.2422 58.0352H52.9922ZM70.6055 52.1523C71.8164 52.1523 72.8594 52.3867 73.7344 52.8555C74.6094 53.3164 75.2852 53.9883 75.7617 54.8711C76.2383 55.7539 76.4766 56.832 76.4766 58.1055V59.8398H68.0273C68.0664 60.8477 68.3672 61.6406 68.9297 62.2188C69.5 62.7891 70.2891 63.0742 71.2969 63.0742C72.1328 63.0742 72.8984 62.9883 73.5938 62.8164C74.2891 62.6445 75.0039 62.3867 75.7383 62.043V64.8086C75.0898 65.1289 74.4102 65.3633 73.6992 65.5117C72.9961 65.6602 72.1406 65.7344 71.1328 65.7344C69.8203 65.7344 68.6562 65.4922 67.6406 65.0078C66.6328 64.5234 65.8398 63.7852 65.2617 62.793C64.6914 61.8008 64.4062 60.5508 64.4062 59.043C64.4062 57.5117 64.6641 56.2383 65.1797 55.2227C65.7031 54.1992 66.4297 53.4336 67.3594 52.9258C68.2891 52.4102 69.3711 52.1523 70.6055 52.1523ZM70.6289 54.6953C69.9336 54.6953 69.3555 54.918 68.8945 55.3633C68.4414 55.8086 68.1797 56.5078 68.1094 57.4609H73.125C73.1172 56.9297 73.0195 56.457 72.832 56.043C72.6523 55.6289 72.3789 55.3008 72.0117 55.0586C71.6523 54.8164 71.1914 54.6953 70.6289 54.6953ZM83.5312 65.7344C82.0703 65.7344 80.8789 65.1641 79.957 64.0234C79.043 62.875 78.5859 61.1914 78.5859 58.9727C78.5859 56.7305 79.0508 55.0352 79.9805 53.8867C80.9102 52.7305 82.125 52.1523 83.625 52.1523C84.25 52.1523 84.8008 52.2383 85.2773 52.4102C85.7539 52.582 86.1641 52.8125 86.5078 53.1016C86.8594 53.3906 87.1562 53.7148 87.3984 54.0742H87.5156C87.4688 53.8242 87.4102 53.457 87.3398 52.9727C87.2773 52.4805 87.2461 51.9766 87.2461 51.4609V47.2656H90.832V65.5H88.0898L87.3984 63.8008H87.2461C87.0195 64.1602 86.7344 64.4883 86.3906 64.7852C86.0547 65.0742 85.6523 65.3047 85.1836 65.4766C84.7148 65.6484 84.1641 65.7344 83.5312 65.7344ZM84.7852 62.8867C85.7617 62.8867 86.4492 62.5977 86.8477 62.0195C87.2539 61.4336 87.4688 60.5547 87.4922 59.3828V58.9961C87.4922 57.7227 87.2969 56.75 86.9062 56.0781C86.5156 55.3984 85.7891 55.0586 84.7266 55.0586C83.9375 55.0586 83.3203 55.3984 82.875 56.0781C82.4297 56.7578 82.207 57.7383 82.207 59.0195C82.207 60.3008 82.4297 61.2656 82.875 61.9141C83.3281 62.5625 83.9648 62.8867 84.7852 62.8867ZM108.34 65.5L104.215 52.0586H104.109C104.125 52.3789 104.148 52.8633 104.18 53.5117C104.219 54.1523 104.254 54.8359 104.285 55.5625C104.316 56.2891 104.332 56.9453 104.332 57.5312V65.5H101.086V48.3672H106.031L110.086 61.4688H110.156L114.457 48.3672H119.402V65.5H116.016V57.3906C116.016 56.8516 116.023 56.2305 116.039 55.5273C116.062 54.8242 116.09 54.1562 116.121 53.5234C116.152 52.8828 116.176 52.4023 116.191 52.082H116.086L111.668 65.5H108.34ZM135.352 58.9258C135.352 60.0195 135.203 60.9883 134.906 61.832C134.617 62.6758 134.191 63.3906 133.629 63.9766C133.074 64.5547 132.402 64.9922 131.613 65.2891C130.832 65.5859 129.949 65.7344 128.965 65.7344C128.043 65.7344 127.195 65.5859 126.422 65.2891C125.656 64.9922 124.988 64.5547 124.418 63.9766C123.855 63.3906 123.418 62.6758 123.105 61.832C122.801 60.9883 122.648 60.0195 122.648 58.9258C122.648 57.4727 122.906 56.2422 123.422 55.2344C123.938 54.2266 124.672 53.4609 125.625 52.9375C126.578 52.4141 127.715 52.1523 129.035 52.1523C130.262 52.1523 131.348 52.4141 132.293 52.9375C133.246 53.4609 133.992 54.2266 134.531 55.2344C135.078 56.2422 135.352 57.4727 135.352 58.9258ZM126.293 58.9258C126.293 59.7852 126.387 60.5078 126.574 61.0938C126.762 61.6797 127.055 62.1211 127.453 62.418C127.852 62.7148 128.371 62.8633 129.012 62.8633C129.645 62.8633 130.156 62.7148 130.547 62.418C130.945 62.1211 131.234 61.6797 131.414 61.0938C131.602 60.5078 131.695 59.7852 131.695 58.9258C131.695 58.0586 131.602 57.3398 131.414 56.7695C131.234 56.1914 130.945 55.7578 130.547 55.4688C130.148 55.1797 129.629 55.0352 128.988 55.0352C128.043 55.0352 127.355 55.3594 126.926 56.0078C126.504 56.6562 126.293 57.6289 126.293 58.9258ZM142.453 65.7344C140.992 65.7344 139.801 65.1641 138.879 64.0234C137.965 62.875 137.508 61.1914 137.508 58.9727C137.508 56.7305 137.973 55.0352 138.902 53.8867C139.832 52.7305 141.047 52.1523 142.547 52.1523C143.172 52.1523 143.723 52.2383 144.199 52.4102C144.676 52.582 145.086 52.8125 145.43 53.1016C145.781 53.3906 146.078 53.7148 146.32 54.0742H146.438C146.391 53.8242 146.332 53.457 146.262 52.9727C146.199 52.4805 146.168 51.9766 146.168 51.4609V47.2656H149.754V65.5H147.012L146.32 63.8008H146.168C145.941 64.1602 145.656 64.4883 145.312 64.7852C144.977 65.0742 144.574 65.3047 144.105 65.4766C143.637 65.6484 143.086 65.7344 142.453 65.7344ZM143.707 62.8867C144.684 62.8867 145.371 62.5977 145.77 62.0195C146.176 61.4336 146.391 60.5547 146.414 59.3828V58.9961C146.414 57.7227 146.219 56.75 145.828 56.0781C145.438 55.3984 144.711 55.0586 143.648 55.0586C142.859 55.0586 142.242 55.3984 141.797 56.0781C141.352 56.7578 141.129 57.7383 141.129 59.0195C141.129 60.3008 141.352 61.2656 141.797 61.9141C142.25 62.5625 142.887 62.8867 143.707 62.8867ZM158.895 52.1523C160.105 52.1523 161.148 52.3867 162.023 52.8555C162.898 53.3164 163.574 53.9883 164.051 54.8711C164.527 55.7539 164.766 56.832 164.766 58.1055V59.8398H156.316C156.355 60.8477 156.656 61.6406 157.219 62.2188C157.789 62.7891 158.578 63.0742 159.586 63.0742C160.422 63.0742 161.188 62.9883 161.883 62.8164C162.578 62.6445 163.293 62.3867 164.027 62.043V64.8086C163.379 65.1289 162.699 65.3633 161.988 65.5117C161.285 65.6602 160.43 65.7344 159.422 65.7344C158.109 65.7344 156.945 65.4922 155.93 65.0078C154.922 64.5234 154.129 63.7852 153.551 62.793C152.98 61.8008 152.695 60.5508 152.695 59.043C152.695 57.5117 152.953 56.2383 153.469 55.2227C153.992 54.1992 154.719 53.4336 155.648 52.9258C156.578 52.4102 157.66 52.1523 158.895 52.1523ZM158.918 54.6953C158.223 54.6953 157.645 54.918 157.184 55.3633C156.73 55.8086 156.469 56.5078 156.398 57.4609H161.414C161.406 56.9297 161.309 56.457 161.121 56.043C160.941 55.6289 160.668 55.3008 160.301 55.0586C159.941 54.8164 159.48 54.6953 158.918 54.6953Z" fill="white"/>
<path d="M220.43 50.5117C219.609 50.5117 218.875 50.6602 218.227 50.957C217.586 51.2539 217.043 51.6836 216.598 52.2461C216.152 52.8008 215.812 53.4766 215.578 54.2734C215.344 55.0625 215.227 55.9531 215.227 56.9453C215.227 58.2734 215.414 59.418 215.789 60.3789C216.164 61.332 216.734 62.0664 217.5 62.582C218.266 63.0898 219.234 63.3438 220.406 63.3438C221.133 63.3438 221.84 63.2734 222.527 63.1328C223.215 62.9922 223.926 62.8008 224.66 62.5586V64.9492C223.965 65.2227 223.262 65.4219 222.551 65.5469C221.84 65.6719 221.02 65.7344 220.09 65.7344C218.34 65.7344 216.887 65.3711 215.73 64.6445C214.582 63.918 213.723 62.8945 213.152 61.5742C212.59 60.2539 212.309 58.707 212.309 56.9336C212.309 55.6367 212.488 54.4492 212.848 53.3711C213.207 52.293 213.73 51.3633 214.418 50.582C215.105 49.793 215.953 49.1875 216.961 48.7656C217.977 48.3359 219.137 48.1211 220.441 48.1211C221.301 48.1211 222.145 48.2188 222.973 48.4141C223.809 48.6016 224.582 48.8711 225.293 49.2227L224.309 51.543C223.715 51.2617 223.094 51.0195 222.445 50.8164C221.797 50.6133 221.125 50.5117 220.43 50.5117ZM230.812 47.2656V51.8477C230.812 52.3242 230.797 52.7891 230.766 53.2422C230.742 53.6953 230.715 54.0469 230.684 54.2969H230.836C231.109 53.8438 231.445 53.4727 231.844 53.1836C232.242 52.8867 232.688 52.6641 233.18 52.5156C233.68 52.3672 234.211 52.293 234.773 52.293C235.766 52.293 236.609 52.4609 237.305 52.7969C238 53.125 238.531 53.6367 238.898 54.332C239.273 55.0273 239.461 55.9297 239.461 57.0391V65.5H236.707V57.5547C236.707 56.5469 236.5 55.793 236.086 55.293C235.672 54.7852 235.031 54.5312 234.164 54.5312C233.328 54.5312 232.664 54.707 232.172 55.0586C231.688 55.4023 231.34 55.9141 231.129 56.5938C230.918 57.2656 230.812 58.0859 230.812 59.0547V65.5H228.059V47.2656H230.812ZM248.402 52.2812C250.043 52.2812 251.281 52.6445 252.117 53.3711C252.961 54.0977 253.383 55.2305 253.383 56.7695V65.5H251.426L250.898 63.6602H250.805C250.438 64.1289 250.059 64.5156 249.668 64.8203C249.277 65.125 248.824 65.3516 248.309 65.5C247.801 65.6562 247.18 65.7344 246.445 65.7344C245.672 65.7344 244.98 65.5938 244.371 65.3125C243.762 65.0234 243.281 64.5859 242.93 64C242.578 63.4141 242.402 62.6719 242.402 61.7734C242.402 60.4375 242.898 59.4336 243.891 58.7617C244.891 58.0898 246.398 57.7188 248.414 57.6484L250.664 57.5664V56.8867C250.664 55.9883 250.453 55.3477 250.031 54.9648C249.617 54.582 249.031 54.3906 248.273 54.3906C247.625 54.3906 246.996 54.4844 246.387 54.6719C245.777 54.8594 245.184 55.0898 244.605 55.3633L243.715 53.418C244.348 53.082 245.066 52.8086 245.871 52.5977C246.684 52.3867 247.527 52.2812 248.402 52.2812ZM250.652 59.3008L248.977 59.3594C247.602 59.4062 246.637 59.6406 246.082 60.0625C245.527 60.4844 245.25 61.0625 245.25 61.7969C245.25 62.4375 245.441 62.9062 245.824 63.2031C246.207 63.4922 246.711 63.6367 247.336 63.6367C248.289 63.6367 249.078 63.3672 249.703 62.8281C250.336 62.2812 250.652 61.4805 250.652 60.4258V59.3008ZM259.992 52.5273V65.5H257.238V52.5273H259.992ZM258.633 47.5586C259.055 47.5586 259.418 47.6719 259.723 47.8984C260.035 48.125 260.191 48.5156 260.191 49.0703C260.191 49.6172 260.035 50.0078 259.723 50.2422C259.418 50.4688 259.055 50.582 258.633 50.582C258.195 50.582 257.824 50.4688 257.52 50.2422C257.223 50.0078 257.074 49.6172 257.074 49.0703C257.074 48.5156 257.223 48.125 257.52 47.8984C257.824 47.6719 258.195 47.5586 258.633 47.5586ZM270.516 52.2812C270.734 52.2812 270.973 52.293 271.23 52.3164C271.488 52.3398 271.711 52.3711 271.898 52.4102L271.641 54.9883C271.477 54.9414 271.273 54.9062 271.031 54.8828C270.797 54.8594 270.586 54.8477 270.398 54.8477C269.906 54.8477 269.438 54.9297 268.992 55.0938C268.547 55.25 268.152 55.4922 267.809 55.8203C267.465 56.1406 267.195 56.543 267 57.0273C266.805 57.5117 266.707 58.0742 266.707 58.7148V65.5H263.941V52.5273H266.098L266.473 54.8125H266.602C266.859 54.3516 267.18 53.9297 267.562 53.5469C267.945 53.1641 268.383 52.8594 268.875 52.6328C269.375 52.3984 269.922 52.2812 270.516 52.2812ZM288.211 65.5L283.277 51.1914H283.172C283.195 51.5117 283.223 51.9492 283.254 52.5039C283.285 53.0586 283.312 53.6523 283.336 54.2852C283.359 54.918 283.371 55.5234 283.371 56.1016V65.5H280.816V48.3672H284.766L289.512 62.043H289.582L294.492 48.3672H298.43V65.5H295.746V55.9609C295.746 55.4375 295.754 54.8711 295.77 54.2617C295.793 53.6523 295.816 53.0742 295.84 52.5273C295.871 51.9805 295.895 51.543 295.91 51.2148H295.816L290.695 65.5H288.211ZM314.145 58.9844C314.145 60.0625 314.004 61.0195 313.723 61.8555C313.441 62.6914 313.031 63.3984 312.492 63.9766C311.953 64.5469 311.305 64.9844 310.547 65.2891C309.789 65.5859 308.934 65.7344 307.98 65.7344C307.09 65.7344 306.273 65.5859 305.531 65.2891C304.789 64.9844 304.145 64.5469 303.598 63.9766C303.059 63.3984 302.641 62.6914 302.344 61.8555C302.047 61.0195 301.898 60.0625 301.898 58.9844C301.898 57.5547 302.145 56.3438 302.637 55.3516C303.137 54.3516 303.848 53.5898 304.77 53.0664C305.691 52.543 306.789 52.2812 308.062 52.2812C309.258 52.2812 310.312 52.543 311.227 53.0664C312.141 53.5898 312.855 54.3516 313.371 55.3516C313.887 56.3516 314.145 57.5625 314.145 58.9844ZM304.734 58.9844C304.734 59.9297 304.848 60.7383 305.074 61.4102C305.309 62.082 305.668 62.5977 306.152 62.957C306.637 63.3086 307.262 63.4844 308.027 63.4844C308.793 63.4844 309.418 63.3086 309.902 62.957C310.387 62.5977 310.742 62.082 310.969 61.4102C311.195 60.7383 311.309 59.9297 311.309 58.9844C311.309 58.0391 311.195 57.2383 310.969 56.582C310.742 55.918 310.387 55.4141 309.902 55.0703C309.418 54.7188 308.789 54.543 308.016 54.543C306.875 54.543 306.043 54.9258 305.52 55.6914C304.996 56.457 304.734 57.5547 304.734 58.9844ZM321.668 65.7344C320.121 65.7344 318.879 65.1719 317.941 64.0469C317.012 62.9141 316.547 61.2461 316.547 59.043C316.547 56.8164 317.02 55.1328 317.965 53.9922C318.918 52.8516 320.172 52.2812 321.727 52.2812C322.383 52.2812 322.957 52.3711 323.449 52.5508C323.941 52.7227 324.363 52.957 324.715 53.2539C325.074 53.5508 325.379 53.8828 325.629 54.25H325.758C325.719 54.0078 325.672 53.6602 325.617 53.207C325.57 52.7461 325.547 52.3203 325.547 51.9297V47.2656H328.312V65.5H326.156L325.664 63.7305H325.547C325.312 64.1055 325.016 64.4453 324.656 64.75C324.305 65.0469 323.883 65.2852 323.391 65.4648C322.906 65.6445 322.332 65.7344 321.668 65.7344ZM322.441 63.4961C323.621 63.4961 324.453 63.1562 324.938 62.4766C325.422 61.7969 325.672 60.7773 325.688 59.418V59.0547C325.688 57.6016 325.453 56.4883 324.984 55.7148C324.516 54.9336 323.66 54.543 322.418 54.543C321.426 54.543 320.668 54.9453 320.145 55.75C319.629 56.5469 319.371 57.6602 319.371 59.0898C319.371 60.5195 319.629 61.6133 320.145 62.3711C320.668 63.1211 321.434 63.4961 322.441 63.4961ZM337.43 52.2812C338.586 52.2812 339.578 52.5195 340.406 52.9961C341.234 53.4727 341.871 54.1484 342.316 55.0234C342.762 55.8984 342.984 56.9453 342.984 58.1641V59.6406H334.324C334.355 60.8984 334.691 61.8672 335.332 62.5469C335.98 63.2266 336.887 63.5664 338.051 63.5664C338.879 63.5664 339.621 63.4883 340.277 63.332C340.941 63.168 341.625 62.9297 342.328 62.6172V64.8555C341.68 65.1602 341.02 65.3828 340.348 65.5234C339.676 65.6641 338.871 65.7344 337.934 65.7344C336.66 65.7344 335.539 65.4883 334.57 64.9961C333.609 64.4961 332.855 63.7539 332.309 62.7695C331.77 61.7852 331.5 60.5625 331.5 59.1016C331.5 57.6484 331.746 56.4141 332.238 55.3984C332.73 54.3828 333.422 53.6094 334.312 53.0781C335.203 52.5469 336.242 52.2812 337.43 52.2812ZM337.43 54.3555C336.562 54.3555 335.859 54.6367 335.32 55.1992C334.789 55.7617 334.477 56.5859 334.383 57.6719H340.289C340.281 57.0234 340.172 56.4492 339.961 55.9492C339.758 55.4492 339.445 55.0586 339.023 54.7773C338.609 54.4961 338.078 54.3555 337.43 54.3555Z" fill="#1A1040"/>
<rect x="385.5" y="17.5" width="77" height="77" rx="3.5" fill="white" stroke="#1A1040" stroke-width="3"/>
<path d="M415.351 31.4431C416.866 30.5262 418.739 30.541 420.241 31.4812L423.58 33.5711C423.853 33.7417 424.165 33.8318 424.482 33.8318H424.771C425.088 33.8318 425.399 33.7419 425.671 33.5721L428.995 31.4969C430.492 30.5626 432.356 30.5467 433.867 31.4549L439.855 35.0525C441.37 35.963 442.292 37.6589 442.263 39.4822L442.197 43.5398C442.192 43.8711 442.273 44.1982 442.432 44.4851L442.576 44.7449C442.735 45.0311 442.964 45.2678 443.241 45.4285L446.635 47.3973C448.157 48.2802 449.102 49.9521 449.106 51.7683L449.122 58.9588C449.126 60.7863 448.177 62.4714 446.644 63.3572L443.242 65.323C442.964 65.4837 442.733 65.7206 442.574 66.0076L442.432 66.2644C442.273 66.5514 442.192 66.8784 442.197 67.2098L442.263 71.2723C442.292 73.09 441.375 74.7816 439.867 75.6941L433.899 79.3064C432.384 80.2234 430.511 80.2086 429.009 79.2683L425.67 77.1785C425.397 77.008 425.085 76.9178 424.768 76.9178H424.48C424.162 76.9178 423.851 77.0077 423.579 77.1775L420.256 79.2527C418.759 80.1872 416.894 80.2029 415.383 79.2947L409.396 75.698C407.88 74.7875 406.959 73.0907 406.988 71.2674L407.054 67.2224C407.059 66.8934 406.979 66.5686 406.822 66.283L406.67 66.0056C406.511 65.7167 406.28 65.4781 406.001 65.3162L402.615 63.3523C401.093 62.4693 400.148 60.7975 400.144 58.9812L400.128 51.7908C400.124 49.9634 401.074 48.2782 402.606 47.3924L406.008 45.4265C406.286 45.2658 406.518 45.0291 406.677 44.742L406.818 44.4851C406.977 44.1981 407.059 43.8712 407.054 43.5398L406.988 39.4773C406.959 37.6597 407.875 35.968 409.383 35.0555L415.351 31.4431ZM424.625 46.2488C419.792 46.2488 415.874 50.3351 415.874 55.3748C415.874 60.4143 419.792 64.4998 424.625 64.4998C429.458 64.4998 433.376 60.4143 433.376 55.3748C433.376 50.3351 429.458 46.2488 424.625 46.2488Z" fill="#1A1040"/>
<path d="M415.351 31.4431L414.833 30.5876L414.833 30.5877L415.351 31.4431ZM420.241 31.4812L419.711 32.3288L419.711 32.3289L420.241 31.4812ZM423.58 33.5711L424.111 32.7234L424.111 32.7234L423.58 33.5711ZM424.482 33.8318L424.482 34.8318H424.482V33.8318ZM425.671 33.5721L426.2 34.4204L426.2 34.4203L425.671 33.5721ZM428.995 31.4969L429.525 32.3451L429.525 32.3451L428.995 31.4969ZM433.867 31.4549L433.352 32.312V32.312L433.867 31.4549ZM439.855 35.0525L440.37 34.1954L440.37 34.1954L439.855 35.0525ZM442.263 39.4822L441.263 39.4661V39.4661L442.263 39.4822ZM442.197 43.5398L443.197 43.556V43.556L442.197 43.5398ZM442.432 44.4851L441.557 44.9695L441.558 44.9713L442.432 44.4851ZM442.576 44.7449L443.451 44.2603L443.45 44.2587L442.576 44.7449ZM443.241 45.4285L442.739 46.2934L442.739 46.2935L443.241 45.4285ZM446.635 47.3973L446.133 48.2622L446.133 48.2622L446.635 47.3973ZM449.106 51.7683L450.106 51.7662V51.7661L449.106 51.7683ZM449.122 58.9588L448.122 58.9609V58.961L449.122 58.9588ZM446.644 63.3572L446.143 62.4914L446.143 62.4914L446.644 63.3572ZM443.242 65.323L443.743 66.1889L443.743 66.1888L443.242 65.323ZM442.574 66.0076L443.449 66.493L443.449 66.4924L442.574 66.0076ZM442.432 66.2644L441.557 65.7791L441.557 65.7801L442.432 66.2644ZM442.197 67.2098L443.197 67.1936V67.1936L442.197 67.2098ZM442.263 71.2723L441.263 71.2884V71.2884L442.263 71.2723ZM439.867 75.6941L439.349 74.8386L439.349 74.8386L439.867 75.6941ZM433.899 79.3064L434.417 80.162L434.417 80.1619L433.899 79.3064ZM429.009 79.2683L429.539 78.4207L429.539 78.4207L429.009 79.2683ZM425.67 77.1785L426.2 76.3308L426.2 76.3307L425.67 77.1785ZM424.48 76.9178V75.9178H424.479L424.48 76.9178ZM423.579 77.1775L423.05 76.3293L423.049 76.3293L423.579 77.1775ZM420.256 79.2527L420.785 80.101L420.786 80.1009L420.256 79.2527ZM415.383 79.2947L415.898 78.4376L415.898 78.4375L415.383 79.2947ZM409.396 75.698L408.88 76.5552L408.881 76.5553L409.396 75.698ZM406.988 71.2674L405.988 71.2512L405.988 71.2512L406.988 71.2674ZM407.054 67.2224L406.054 67.2063L406.054 67.2063L407.054 67.2224ZM406.822 66.283L407.699 65.8018L407.699 65.8015L406.822 66.283ZM406.67 66.0056L405.793 66.487L405.793 66.4871L406.67 66.0056ZM406.001 65.3162L406.503 64.4512L406.503 64.4512L406.001 65.3162ZM402.615 63.3523L402.113 64.2173L402.114 64.2173L402.615 63.3523ZM400.144 58.9812L399.144 58.9834L399.144 58.9835L400.144 58.9812ZM400.128 51.7908L401.128 51.7886V51.7886L400.128 51.7908ZM402.606 47.3924L403.107 48.2582L403.107 48.2582L402.606 47.3924ZM406.008 45.4265L405.507 44.5607L405.507 44.5607L406.008 45.4265ZM406.677 44.742L407.551 45.2266L407.552 45.2248L406.677 44.742ZM406.818 44.4851L405.944 44.0007L405.943 44.0023L406.818 44.4851ZM407.054 43.5398L406.054 43.5559L406.054 43.556L407.054 43.5398ZM406.988 39.4773L407.988 39.4612V39.4612L406.988 39.4773ZM409.383 35.0555L409.901 35.911L409.901 35.9109L409.383 35.0555ZM424.625 46.2488L424.625 45.2488H424.625V46.2488ZM415.874 55.3748H414.874V55.3748L415.874 55.3748ZM424.625 64.4998V65.4998H424.625L424.625 64.4998ZM433.376 55.3748L434.376 55.3748V55.3748H433.376ZM415.351 31.4431L415.868 32.2987C417.06 31.5774 418.528 31.5887 419.711 32.3288L420.241 31.4812L420.772 30.6336C418.95 29.4933 416.671 29.475 414.833 30.5876L415.351 31.4431ZM420.241 31.4812L419.711 32.3289L423.05 34.4187L423.58 33.5711L424.111 32.7234L420.772 30.6336L420.241 31.4812ZM423.58 33.5711L423.05 34.4187C423.479 34.6877 423.975 34.8318 424.482 34.8318L424.482 33.8318L424.482 32.8318C424.355 32.8318 424.226 32.7957 424.111 32.7234L423.58 33.5711ZM424.482 33.8318V34.8318H424.771V33.8318V32.8318H424.482V33.8318ZM424.771 33.8318V34.8318C425.278 34.8318 425.772 34.6878 426.2 34.4204L425.671 33.5721L425.141 32.7237C425.026 32.7959 424.898 32.8318 424.771 32.8318V33.8318ZM425.671 33.5721L426.2 34.4203L429.525 32.3451L428.995 31.4969L428.466 30.6486L425.141 32.7238L425.671 33.5721ZM428.995 31.4969L429.525 32.3451C430.703 31.6098 432.163 31.5976 433.352 32.312L433.867 31.4549L434.382 30.5977C432.549 29.4959 430.281 29.5153 428.466 30.6486L428.995 31.4969ZM433.867 31.4549L433.352 32.312L439.339 35.9097L439.855 35.0525L440.37 34.1954L434.382 30.5977L433.867 31.4549ZM439.855 35.0525L439.339 35.9097C440.537 36.6295 441.287 37.9859 441.263 39.4661L442.263 39.4822L443.263 39.4983C443.298 37.3319 442.202 35.2965 440.37 34.1954L439.855 35.0525ZM442.263 39.4822L441.263 39.4661L441.197 43.5237L442.197 43.5398L443.197 43.556L443.263 39.4983L442.263 39.4822ZM442.197 43.5398L441.197 43.5237C441.189 44.0273 441.312 44.5272 441.557 44.9695L442.432 44.4851L443.307 44.0008C443.234 43.8691 443.195 43.715 443.197 43.556L442.197 43.5398ZM442.432 44.4851L441.558 44.9713L441.702 45.2311L442.576 44.7449L443.45 44.2587L443.306 43.9989L442.432 44.4851ZM442.576 44.7449L441.701 45.2295C441.945 45.6688 442.301 46.039 442.739 46.2934L443.241 45.4285L443.743 44.5636C443.627 44.4965 443.525 44.3935 443.451 44.2603L442.576 44.7449ZM443.241 45.4285L442.739 46.2935L446.133 48.2622L446.635 47.3973L447.137 46.5323L443.743 44.5635L443.241 45.4285ZM446.635 47.3973L446.133 48.2622C447.336 48.9598 448.103 50.296 448.106 51.7706L449.106 51.7683L450.106 51.7661C450.102 49.6081 448.978 47.6007 447.137 46.5323L446.635 47.3973ZM449.106 51.7683L448.106 51.7705L448.122 58.9609L449.122 58.9588L450.122 58.9566L450.106 51.7662L449.106 51.7683ZM449.122 58.9588L448.122 58.961C448.125 60.4448 447.354 61.7916 446.143 62.4914L446.644 63.3572L447.144 64.223C448.999 63.1511 450.127 61.1278 450.122 58.9566L449.122 58.9588ZM446.644 63.3572L446.143 62.4914L442.742 64.4572L443.242 65.323L443.743 66.1888L447.144 64.223L446.644 63.3572ZM443.242 65.323L442.742 64.4572C442.303 64.711 441.944 65.0814 441.7 65.5228L442.574 66.0076L443.449 66.4924C443.522 66.3597 443.626 66.2564 443.743 66.1889L443.242 65.323ZM442.574 66.0076L441.7 65.5222L441.557 65.7791L442.432 66.2644L443.306 66.7498L443.449 66.493L442.574 66.0076ZM442.432 66.2644L441.557 65.7801C441.312 66.2223 441.189 66.7223 441.197 67.2259L442.197 67.2098L443.197 67.1936C443.195 67.0346 443.234 66.8804 443.307 66.7488L442.432 66.2644ZM442.197 67.2098L441.197 67.2259L441.263 71.2884L442.263 71.2723L443.263 71.2561L443.197 67.1936L442.197 67.2098ZM442.263 71.2723L441.263 71.2884C441.287 72.7639 440.542 74.117 439.349 74.8386L439.867 75.6941L440.385 76.5497C442.208 75.4461 443.297 73.416 443.263 71.2561L442.263 71.2723ZM439.867 75.6941L439.349 74.8386L433.382 78.4509L433.899 79.3064L434.417 80.1619L440.385 76.5496L439.867 75.6941ZM433.899 79.3064L433.382 78.4509C432.19 79.1722 430.722 79.1609 429.539 78.4207L429.009 79.2683L428.478 80.116C430.3 81.2562 432.579 81.2746 434.417 80.162L433.899 79.3064ZM429.009 79.2683L429.539 78.4207L426.2 76.3308L425.67 77.1785L425.139 78.0261L428.478 80.116L429.009 79.2683ZM425.67 77.1785L426.2 76.3307C425.771 76.0621 425.275 75.9178 424.768 75.9178V76.9178V77.9178C424.895 77.9178 425.024 77.9539 425.14 78.0263L425.67 77.1785ZM424.768 76.9178V75.9178H424.48V76.9178V77.9178H424.768V76.9178ZM424.48 76.9178L424.479 75.9178C423.973 75.9178 423.478 76.0616 423.05 76.3293L423.579 77.1775L424.109 78.0258C424.224 77.9537 424.352 77.9178 424.48 77.9178L424.48 76.9178ZM423.579 77.1775L423.049 76.3293L419.726 78.4045L420.256 79.2527L420.786 80.1009L424.109 78.0257L423.579 77.1775ZM420.256 79.2527L419.726 78.4045C418.548 79.1399 417.087 79.1521 415.898 78.4376L415.383 79.2947L414.868 80.1519C416.701 81.2537 418.97 81.2345 420.785 80.101L420.256 79.2527ZM415.383 79.2947L415.898 78.4375L409.91 74.8408L409.396 75.698L408.881 76.5553L414.868 80.1519L415.383 79.2947ZM409.396 75.698L409.911 74.8409C408.713 74.1213 407.964 72.7643 407.988 71.2835L406.988 71.2674L405.988 71.2512C405.953 73.4171 407.047 75.4537 408.88 76.5552L409.396 75.698ZM406.988 71.2674L407.988 71.2835L408.054 67.2386L407.054 67.2224L406.054 67.2063L405.988 71.2512L406.988 71.2674ZM407.054 67.2224L408.054 67.2386C408.062 66.7378 407.94 66.2413 407.699 65.8018L406.822 66.283L405.946 66.7642C406.018 66.8958 406.056 67.0491 406.054 67.2063L407.054 67.2224ZM406.822 66.283L407.699 65.8015L407.546 65.5242L406.67 66.0056L405.793 66.4871L405.946 66.7644L406.822 66.283ZM406.67 66.0056L407.546 65.5243C407.302 65.08 406.944 64.7069 406.503 64.4512L406.001 65.3162L405.499 66.1812C405.617 66.2493 405.72 66.3534 405.793 66.487L406.67 66.0056ZM406.001 65.3162L406.503 64.4512L403.117 62.4873L402.615 63.3523L402.114 64.2173L405.499 66.1812L406.001 65.3162ZM402.615 63.3523L403.117 62.4873C401.915 61.7897 401.147 60.4535 401.144 58.979L400.144 58.9812L399.144 58.9835C399.148 61.1414 400.272 63.1489 402.113 64.2173L402.615 63.3523ZM400.144 58.9812L401.144 58.9791L401.128 51.7886L400.128 51.7908L399.128 51.793L399.144 58.9834L400.144 58.9812ZM400.128 51.7908L401.128 51.7886C401.125 50.3049 401.896 48.958 403.107 48.2582L402.606 47.3924L402.106 46.5265C400.251 47.5985 399.123 49.6218 399.128 51.793L400.128 51.7908ZM402.606 47.3924L403.107 48.2582L406.508 46.2923L406.008 45.4265L405.507 44.5607L402.106 46.5266L402.606 47.3924ZM406.008 45.4265L406.508 46.2924C406.946 46.0393 407.306 45.6696 407.551 45.2266L406.677 44.742L405.802 44.2573C405.729 44.3886 405.626 44.4923 405.507 44.5607L406.008 45.4265ZM406.677 44.742L407.552 45.2248L407.694 44.968L406.818 44.4851L405.943 44.0023L405.801 44.2592L406.677 44.742ZM406.818 44.4851L407.693 44.9696C407.937 44.5289 408.062 44.0293 408.054 43.5237L407.054 43.5398L406.054 43.556C406.056 43.7132 406.017 43.8674 405.944 44.0007L406.818 44.4851ZM407.054 43.5398L408.054 43.5237L407.988 39.4612L406.988 39.4773L405.988 39.4934L406.054 43.5559L407.054 43.5398ZM406.988 39.4773L407.988 39.4612C407.964 37.9853 408.709 36.6324 409.901 35.911L409.383 35.0555L408.865 34.1999C407.041 35.3037 405.954 37.334 405.988 39.4934L406.988 39.4773ZM409.383 35.0555L409.901 35.9109L415.868 32.2986L415.351 31.4431L414.833 30.5877L408.865 34.2L409.383 35.0555ZM424.625 46.2488V45.2488C419.2 45.2488 414.874 49.8228 414.874 55.3748H415.874H416.874C416.874 50.8473 420.383 47.2488 424.625 47.2488V46.2488ZM415.874 55.3748L414.874 55.3748C414.874 60.9267 419.201 65.4998 424.625 65.4998V64.4998V63.4998C420.383 63.4998 416.874 59.9019 416.874 55.3747L415.874 55.3748ZM424.625 64.4998L424.625 65.4998C430.049 65.4998 434.376 60.9267 434.376 55.3748L433.376 55.3748L432.376 55.3747C432.376 59.9019 428.867 63.4998 424.625 63.4998L424.625 64.4998ZM433.376 55.3748H434.376C434.376 49.8228 430.05 45.2488 424.625 45.2488L424.625 46.2488L424.625 47.2488C428.867 47.2488 432.376 50.8474 432.376 55.3748H433.376Z" fill="#1A1040"/>
<g filter="url(#filter0_d_3980_48044)">
<rect x="16" y="384" width="448" height="80" rx="5" fill="#1A1040" shape-rendering="crispEdges"/>
<path d="M185.496 419.145C184.801 419.145 184.184 419.281 183.645 419.555C183.113 419.82 182.664 420.207 182.297 420.715C181.938 421.223 181.664 421.836 181.477 422.555C181.289 423.273 181.195 424.082 181.195 424.98C181.195 426.191 181.344 427.227 181.641 428.086C181.945 428.938 182.414 429.59 183.047 430.043C183.68 430.488 184.496 430.711 185.496 430.711C186.191 430.711 186.887 430.633 187.582 430.477C188.285 430.32 189.047 430.098 189.867 429.809V432.855C189.109 433.168 188.363 433.391 187.629 433.523C186.895 433.664 186.07 433.734 185.156 433.734C183.391 433.734 181.938 433.371 180.797 432.645C179.664 431.91 178.824 430.887 178.277 429.574C177.73 428.254 177.457 426.715 177.457 424.957C177.457 423.66 177.633 422.473 177.984 421.395C178.336 420.316 178.852 419.383 179.531 418.594C180.211 417.805 181.051 417.195 182.051 416.766C183.051 416.336 184.199 416.121 185.496 416.121C186.348 416.121 187.199 416.23 188.051 416.449C188.91 416.66 189.73 416.953 190.512 417.328L189.34 420.281C188.699 419.977 188.055 419.711 187.406 419.484C186.758 419.258 186.121 419.145 185.496 419.145ZM196.816 433.5H193.242V415.266H196.816V433.5ZM205.98 420.152C207.191 420.152 208.234 420.387 209.109 420.855C209.984 421.316 210.66 421.988 211.137 422.871C211.613 423.754 211.852 424.832 211.852 426.105V427.84H203.402C203.441 428.848 203.742 429.641 204.305 430.219C204.875 430.789 205.664 431.074 206.672 431.074C207.508 431.074 208.273 430.988 208.969 430.816C209.664 430.645 210.379 430.387 211.113 430.043V432.809C210.465 433.129 209.785 433.363 209.074 433.512C208.371 433.66 207.516 433.734 206.508 433.734C205.195 433.734 204.031 433.492 203.016 433.008C202.008 432.523 201.215 431.785 200.637 430.793C200.066 429.801 199.781 428.551 199.781 427.043C199.781 425.512 200.039 424.238 200.555 423.223C201.078 422.199 201.805 421.434 202.734 420.926C203.664 420.41 204.746 420.152 205.98 420.152ZM206.004 422.695C205.309 422.695 204.73 422.918 204.27 423.363C203.816 423.809 203.555 424.508 203.484 425.461H208.5C208.492 424.93 208.395 424.457 208.207 424.043C208.027 423.629 207.754 423.301 207.387 423.059C207.027 422.816 206.566 422.695 206.004 422.695ZM220.125 420.129C221.883 420.129 223.23 420.512 224.168 421.277C225.105 422.043 225.574 423.207 225.574 424.77V433.5H223.078L222.387 431.719H222.293C221.918 432.188 221.535 432.57 221.145 432.867C220.754 433.164 220.305 433.383 219.797 433.523C219.289 433.664 218.672 433.734 217.945 433.734C217.172 433.734 216.477 433.586 215.859 433.289C215.25 432.992 214.77 432.539 214.418 431.93C214.066 431.312 213.891 430.531 213.891 429.586C213.891 428.195 214.379 427.172 215.355 426.516C216.332 425.852 217.797 425.484 219.75 425.414L222.023 425.344V424.77C222.023 424.082 221.844 423.578 221.484 423.258C221.125 422.938 220.625 422.777 219.984 422.777C219.352 422.777 218.73 422.867 218.121 423.047C217.512 423.227 216.902 423.453 216.293 423.727L215.109 421.312C215.805 420.945 216.582 420.656 217.441 420.445C218.309 420.234 219.203 420.129 220.125 420.129ZM222.023 427.43L220.641 427.477C219.484 427.508 218.68 427.715 218.227 428.098C217.781 428.48 217.559 428.984 217.559 429.609C217.559 430.156 217.719 430.547 218.039 430.781C218.359 431.008 218.777 431.121 219.293 431.121C220.059 431.121 220.703 430.895 221.227 430.441C221.758 429.988 222.023 429.344 222.023 428.508V427.43ZM236.578 420.152C236.758 420.152 236.965 420.164 237.199 420.188C237.441 420.203 237.637 420.227 237.785 420.258L237.516 423.609C237.398 423.57 237.23 423.543 237.012 423.527C236.801 423.504 236.617 423.492 236.461 423.492C236 423.492 235.551 423.551 235.113 423.668C234.684 423.785 234.297 423.977 233.953 424.242C233.609 424.5 233.336 424.844 233.133 425.273C232.938 425.695 232.84 426.215 232.84 426.832V433.5H229.266V420.398H231.973L232.5 422.602H232.676C232.934 422.156 233.254 421.75 233.637 421.383C234.027 421.008 234.469 420.711 234.961 420.492C235.461 420.266 236 420.152 236.578 420.152ZM257.168 433.5L255.926 429.422H249.68L248.438 433.5H244.523L250.57 416.297H255.012L261.082 433.5H257.168ZM255.059 426.375L253.816 422.391C253.738 422.125 253.633 421.785 253.5 421.371C253.375 420.949 253.246 420.523 253.113 420.094C252.988 419.656 252.887 419.277 252.809 418.957C252.73 419.277 252.621 419.676 252.48 420.152C252.348 420.621 252.219 421.066 252.094 421.488C251.969 421.91 251.879 422.211 251.824 422.391L250.594 426.375H255.059ZM266.543 433.5H262.969V415.266H266.543V433.5ZM275.707 420.152C276.918 420.152 277.961 420.387 278.836 420.855C279.711 421.316 280.387 421.988 280.863 422.871C281.34 423.754 281.578 424.832 281.578 426.105V427.84H273.129C273.168 428.848 273.469 429.641 274.031 430.219C274.602 430.789 275.391 431.074 276.398 431.074C277.234 431.074 278 430.988 278.695 430.816C279.391 430.645 280.105 430.387 280.84 430.043V432.809C280.191 433.129 279.512 433.363 278.801 433.512C278.098 433.66 277.242 433.734 276.234 433.734C274.922 433.734 273.758 433.492 272.742 433.008C271.734 432.523 270.941 431.785 270.363 430.793C269.793 429.801 269.508 428.551 269.508 427.043C269.508 425.512 269.766 424.238 270.281 423.223C270.805 422.199 271.531 421.434 272.461 420.926C273.391 420.41 274.473 420.152 275.707 420.152ZM275.73 422.695C275.035 422.695 274.457 422.918 273.996 423.363C273.543 423.809 273.281 424.508 273.211 425.461H278.227C278.219 424.93 278.121 424.457 277.934 424.043C277.754 423.629 277.48 423.301 277.113 423.059C276.754 422.816 276.293 422.695 275.73 422.695ZM291.797 420.152C291.977 420.152 292.184 420.164 292.418 420.188C292.66 420.203 292.855 420.227 293.004 420.258L292.734 423.609C292.617 423.57 292.449 423.543 292.23 423.527C292.02 423.504 291.836 423.492 291.68 423.492C291.219 423.492 290.77 423.551 290.332 423.668C289.902 423.785 289.516 423.977 289.172 424.242C288.828 424.5 288.555 424.844 288.352 425.273C288.156 425.695 288.059 426.215 288.059 426.832V433.5H284.484V420.398H287.191L287.719 422.602H287.895C288.152 422.156 288.473 421.75 288.855 421.383C289.246 421.008 289.688 420.711 290.18 420.492C290.68 420.266 291.219 420.152 291.797 420.152ZM300.902 430.887C301.293 430.887 301.672 430.848 302.039 430.77C302.414 430.691 302.785 430.594 303.152 430.477V433.137C302.77 433.309 302.293 433.449 301.723 433.559C301.16 433.676 300.543 433.734 299.871 433.734C299.09 433.734 298.387 433.609 297.762 433.359C297.145 433.102 296.656 432.66 296.297 432.035C295.945 431.402 295.77 430.523 295.77 429.398V423.082H294.059V421.57L296.027 420.375L297.059 417.609H299.344V420.398H303.012V423.082H299.344V429.398C299.344 429.898 299.484 430.273 299.766 430.523C300.055 430.766 300.434 430.887 300.902 430.887Z" fill="white"/>
</g>
<rect x="17.5" y="113.5" width="445" height="253" rx="4.5" fill="white" stroke="#7700C6" stroke-width="3"/>
<path d="M173.598 132.867C175.152 132.867 176.434 133.055 177.441 133.43C178.457 133.805 179.211 134.371 179.703 135.129C180.195 135.887 180.441 136.844 180.441 138C180.441 138.781 180.293 139.465 179.996 140.051C179.699 140.637 179.309 141.133 178.824 141.539C178.34 141.945 177.816 142.277 177.254 142.535L182.293 150H178.262L174.172 143.426H172.238V150H168.605V132.867H173.598ZM173.34 135.844H172.238V140.473H173.41C174.613 140.473 175.473 140.273 175.988 139.875C176.512 139.469 176.773 138.875 176.773 138.094C176.773 137.281 176.492 136.703 175.93 136.359C175.375 136.016 174.512 135.844 173.34 135.844ZM194.316 150H184.449V132.867H194.316V135.844H188.082V139.605H193.883V142.582H188.082V147H194.316V150ZM203.375 132.867C205.586 132.867 207.199 133.344 208.215 134.297C209.23 135.242 209.738 136.547 209.738 138.211C209.738 138.961 209.625 139.68 209.398 140.367C209.172 141.047 208.801 141.652 208.285 142.184C207.777 142.715 207.098 143.137 206.246 143.449C205.395 143.754 204.344 143.906 203.094 143.906H201.535V150H197.902V132.867H203.375ZM203.188 135.844H201.535V140.93H202.73C203.41 140.93 204 140.84 204.5 140.66C205 140.48 205.387 140.199 205.66 139.816C205.934 139.434 206.07 138.941 206.07 138.34C206.07 137.496 205.836 136.871 205.367 136.465C204.898 136.051 204.172 135.844 203.188 135.844ZM228.523 141.41C228.523 142.73 228.359 143.934 228.031 145.02C227.703 146.098 227.203 147.027 226.531 147.809C225.867 148.59 225.023 149.191 224 149.613C222.977 150.027 221.766 150.234 220.367 150.234C218.969 150.234 217.758 150.027 216.734 149.613C215.711 149.191 214.863 148.59 214.191 147.809C213.527 147.027 213.031 146.094 212.703 145.008C212.375 143.922 212.211 142.715 212.211 141.387C212.211 139.613 212.5 138.07 213.078 136.758C213.664 135.438 214.562 134.414 215.773 133.688C216.984 132.961 218.523 132.598 220.391 132.598C222.25 132.598 223.777 132.961 224.973 133.688C226.176 134.414 227.066 135.438 227.645 136.758C228.23 138.078 228.523 139.629 228.523 141.41ZM216.02 141.41C216.02 142.605 216.168 143.637 216.465 144.504C216.77 145.363 217.242 146.027 217.883 146.496C218.523 146.957 219.352 147.188 220.367 147.188C221.398 147.188 222.234 146.957 222.875 146.496C223.516 146.027 223.98 145.363 224.27 144.504C224.566 143.637 224.715 142.605 224.715 141.41C224.715 139.613 224.379 138.199 223.707 137.168C223.035 136.137 221.93 135.621 220.391 135.621C219.367 135.621 218.531 135.855 217.883 136.324C217.242 136.785 216.77 137.449 216.465 138.316C216.168 139.176 216.02 140.207 216.02 141.41ZM242.188 145.242C242.188 146.258 241.941 147.141 241.449 147.891C240.957 148.641 240.238 149.219 239.293 149.625C238.355 150.031 237.215 150.234 235.871 150.234C235.277 150.234 234.695 150.195 234.125 150.117C233.562 150.039 233.02 149.926 232.496 149.777C231.98 149.621 231.488 149.43 231.02 149.203V145.828C231.832 146.188 232.676 146.512 233.551 146.801C234.426 147.09 235.293 147.234 236.152 147.234C236.746 147.234 237.223 147.156 237.582 147C237.949 146.844 238.215 146.629 238.379 146.355C238.543 146.082 238.625 145.77 238.625 145.418C238.625 144.988 238.48 144.621 238.191 144.316C237.902 144.012 237.504 143.727 236.996 143.461C236.496 143.195 235.93 142.91 235.297 142.605C234.898 142.418 234.465 142.191 233.996 141.926C233.527 141.652 233.082 141.32 232.66 140.93C232.238 140.539 231.891 140.066 231.617 139.512C231.352 138.949 231.219 138.277 231.219 137.496C231.219 136.473 231.453 135.598 231.922 134.871C232.391 134.145 233.059 133.59 233.926 133.207C234.801 132.816 235.832 132.621 237.02 132.621C237.91 132.621 238.758 132.727 239.562 132.938C240.375 133.141 241.223 133.438 242.105 133.828L240.934 136.652C240.145 136.332 239.438 136.086 238.812 135.914C238.188 135.734 237.551 135.645 236.902 135.645C236.449 135.645 236.062 135.719 235.742 135.867C235.422 136.008 235.18 136.211 235.016 136.477C234.852 136.734 234.77 137.035 234.77 137.379C234.77 137.785 234.887 138.129 235.121 138.41C235.363 138.684 235.723 138.949 236.199 139.207C236.684 139.465 237.285 139.766 238.004 140.109C238.879 140.523 239.625 140.957 240.242 141.41C240.867 141.855 241.348 142.383 241.684 142.992C242.02 143.594 242.188 144.344 242.188 145.242ZM245.293 150V132.867H248.926V150H245.293ZM259.848 150H256.215V135.891H251.562V132.867H264.5V135.891H259.848V150ZM267.137 150V132.867H270.77V150H267.137ZM290.633 141.41C290.633 142.73 290.469 143.934 290.141 145.02C289.812 146.098 289.312 147.027 288.641 147.809C287.977 148.59 287.133 149.191 286.109 149.613C285.086 150.027 283.875 150.234 282.477 150.234C281.078 150.234 279.867 150.027 278.844 149.613C277.82 149.191 276.973 148.59 276.301 147.809C275.637 147.027 275.141 146.094 274.812 145.008C274.484 143.922 274.32 142.715 274.32 141.387C274.32 139.613 274.609 138.07 275.188 136.758C275.773 135.438 276.672 134.414 277.883 133.688C279.094 132.961 280.633 132.598 282.5 132.598C284.359 132.598 285.887 132.961 287.082 133.688C288.285 134.414 289.176 135.438 289.754 136.758C290.34 138.078 290.633 139.629 290.633 141.41ZM278.129 141.41C278.129 142.605 278.277 143.637 278.574 144.504C278.879 145.363 279.352 146.027 279.992 146.496C280.633 146.957 281.461 147.188 282.477 147.188C283.508 147.188 284.344 146.957 284.984 146.496C285.625 146.027 286.09 145.363 286.379 144.504C286.676 143.637 286.824 142.605 286.824 141.41C286.824 139.613 286.488 138.199 285.816 137.168C285.145 136.137 284.039 135.621 282.5 135.621C281.477 135.621 280.641 135.855 279.992 136.324C279.352 136.785 278.879 137.449 278.574 138.316C278.277 139.176 278.129 140.207 278.129 141.41ZM309.383 150H304.766L297.312 137.039H297.207C297.238 137.578 297.266 138.121 297.289 138.668C297.312 139.215 297.336 139.762 297.359 140.309C297.383 140.848 297.406 141.391 297.43 141.938V150H294.184V132.867H298.766L306.207 145.699H306.289C306.273 145.168 306.254 144.641 306.23 144.117C306.207 143.594 306.184 143.07 306.16 142.547C306.145 142.023 306.129 141.5 306.113 140.977V132.867H309.383V150Z" fill="#31344E"/>
<path d="M16 168H464V362C464 365.314 461.314 368 458 368H22C18.6863 368 16 365.314 16 362V168Z" fill="#7700C6"/>
<path d="M281.77 221C283.766 221 285.385 222.619 285.385 224.615V246.308C285.385 248.304 283.766 249.923 281.77 249.923H260.077C258.08 249.923 256.462 248.304 256.462 246.308C256.462 244.311 258.08 242.692 260.077 242.692H275.437C275.246 242.549 275.067 242.385 274.902 242.199C267.343 233.663 256.094 228.23 243.498 228.23C220.59 228.231 202.23 246.151 202.23 268C202.23 289.849 220.59 307.769 243.498 307.77C260.857 307.77 272.373 298.05 278.412 282.929C279.153 281.074 281.256 280.172 283.11 280.912C284.964 281.653 285.867 283.756 285.127 285.61C278.192 302.975 264.323 315 243.498 315C216.83 315 195 294.072 195 268C195 241.928 216.83 221 243.498 221C257.057 221 269.341 226.397 278.153 235.119V224.615C278.153 222.619 279.773 221 281.77 221ZM244.444 255.489C247.998 255.489 251.289 257.356 253.124 260.404L259.272 270.635C260.232 272.227 259.716 274.305 258.123 275.265C256.53 276.224 254.453 275.708 253.493 274.115L250.466 269.095V292.625C250.466 294.492 248.958 296 247.091 296C245.224 296 243.716 294.492 243.716 292.625V279.125H242.028V292.625C242.028 294.492 240.52 296 238.653 296C236.787 296 235.278 294.492 235.278 292.625V269.095L232.263 274.115C231.303 275.708 229.224 276.224 227.632 275.265C226.04 274.305 225.523 272.227 226.482 270.635L232.632 260.404C234.467 257.356 237.757 255.489 241.312 255.489H244.444ZM242.872 242C244.215 242 245.503 242.533 246.452 243.482C247.402 244.432 247.935 245.72 247.935 247.062C247.935 248.405 247.402 249.693 246.452 250.643C245.503 251.592 244.215 252.125 242.872 252.125C241.53 252.125 240.242 251.592 239.293 250.643C238.344 249.693 237.81 248.405 237.81 247.062C237.81 245.72 238.344 244.432 239.293 243.482C240.242 242.533 241.53 242 242.872 242Z" fill="white"/>
<defs>
<filter id="filter0_d_3980_48044" x="12" y="382" width="456" height="88" filterUnits="userSpaceOnUse" color-interpolation-filters="sRGB">
<feFlood flood-opacity="0" result="BackgroundImageFix"/>
<feColorMatrix in="SourceAlpha" type="matrix" values="0 0 0 0 0 0 0 0 0 0 0 0 0 0 0 0 0 0 127 0" result="hardAlpha"/>
<feOffset dy="2"/>
<feGaussianBlur stdDeviation="2"/>
<feComposite in2="hardAlpha" operator="out"/>
<feColorMatrix type="matrix" values="0 0 0 0 0 0 0 0 0 0 0 0 0 0 0 0 0 0 0.25 0"/>
<feBlend mode="normal" in2="BackgroundImageFix" result="effect1_dropShadow_3980_48044"/>
<feBlend mode="normal" in="SourceGraphic" in2="effect1_dropShadow_3980_48044" result="shape"/>
</filter>
</defs>
</svg>
