<svg width="480" height="480" viewBox="0 0 480 480" fill="none" xmlns="http://www.w3.org/2000/svg">
<rect width="480" height="480" fill="white"/>
<rect x="17.5" y="17.5" width="445" height="445" rx="4.5" fill="white" stroke="#11A0D6" stroke-width="3"/>
<path d="M161.828 61.6562C161.828 63.0104 161.5 64.1875 160.844 65.1875C160.188 66.1875 159.229 66.9583 157.969 67.5C156.719 68.0417 155.198 68.3125 153.406 68.3125C152.615 68.3125 151.839 68.2604 151.078 68.1562C150.328 68.0521 149.604 67.901 148.906 67.7031C148.219 67.4948 147.563 67.2396 146.938 66.9375V62.4375C148.021 62.9167 149.146 63.349 150.313 63.7344C151.479 64.1198 152.636 64.3125 153.781 64.3125C154.573 64.3125 155.209 64.2083 155.688 64C156.177 63.7917 156.531 63.5052 156.75 63.1406C156.969 62.776 157.078 62.3594 157.078 61.8906C157.078 61.3177 156.886 60.8281 156.5 60.4219C156.115 60.0156 155.584 59.6354 154.906 59.2812C154.24 58.9271 153.485 58.5469 152.641 58.1406C152.11 57.8906 151.531 57.5885 150.906 57.2344C150.281 56.8698 149.688 56.4271 149.125 55.9062C148.563 55.3854 148.099 54.7552 147.735 54.0156C147.38 53.2656 147.203 52.3698 147.203 51.3281C147.203 49.9635 147.516 48.7969 148.141 47.8281C148.766 46.8594 149.656 46.1198 150.813 45.6094C151.979 45.0885 153.354 44.8281 154.938 44.8281C156.125 44.8281 157.255 44.9688 158.328 45.25C159.412 45.5208 160.542 45.9167 161.719 46.4375L160.156 50.2031C159.104 49.776 158.162 49.4479 157.328 49.2188C156.495 48.9792 155.646 48.8594 154.781 48.8594C154.177 48.8594 153.662 48.9583 153.235 49.1562C152.808 49.3438 152.485 49.6146 152.266 49.9688C152.047 50.3125 151.938 50.7135 151.938 51.1719C151.938 51.7135 152.094 52.1719 152.406 52.5469C152.729 52.9115 153.209 53.2656 153.844 53.6094C154.49 53.9531 155.292 54.3542 156.25 54.8125C157.417 55.3646 158.412 55.9427 159.235 56.5469C160.068 57.1406 160.709 57.8438 161.156 58.6562C161.604 59.4583 161.828 60.4583 161.828 61.6562ZM175.672 48.8594C174.745 48.8594 173.922 49.0417 173.203 49.4062C172.495 49.7604 171.896 50.276 171.406 50.9531C170.927 51.6302 170.563 52.4479 170.313 53.4062C170.063 54.3646 169.938 55.4427 169.938 56.6406C169.938 58.2552 170.136 59.6354 170.531 60.7812C170.938 61.9167 171.563 62.7865 172.406 63.3906C173.25 63.9844 174.339 64.2812 175.672 64.2812C176.599 64.2812 177.526 64.1771 178.453 63.9688C179.391 63.7604 180.406 63.4635 181.5 63.0781V67.1406C180.49 67.5573 179.495 67.8542 178.516 68.0312C177.537 68.2188 176.438 68.3125 175.219 68.3125C172.865 68.3125 170.927 67.8281 169.406 66.8594C167.896 65.8802 166.776 64.5156 166.047 62.7656C165.318 61.0052 164.953 58.9531 164.953 56.6094C164.953 54.8802 165.188 53.2969 165.656 51.8594C166.125 50.4219 166.813 49.1771 167.719 48.125C168.625 47.0729 169.745 46.2604 171.078 45.6875C172.412 45.1146 173.943 44.8281 175.672 44.8281C176.808 44.8281 177.943 44.974 179.078 45.2656C180.224 45.5469 181.318 45.9375 182.36 46.4375L180.797 50.375C179.943 49.9688 179.084 49.6146 178.219 49.3125C177.354 49.0104 176.505 48.8594 175.672 48.8594ZM205.094 68H200.266V58.1406H191.219V68H186.375V45.1562H191.219V54.1094H200.266V45.1562H205.094V68ZM224.031 68H210.875V45.1562H224.031V49.125H215.719V54.1406H223.453V58.1094H215.719V64H224.031V68ZM247.766 56.3594C247.766 58.9323 247.271 61.0833 246.281 62.8125C245.302 64.5312 243.88 65.8281 242.016 66.7031C240.151 67.5677 237.906 68 235.281 68H228.813V45.1562H235.985C238.38 45.1562 240.459 45.5833 242.219 46.4375C243.979 47.2812 245.344 48.5365 246.313 50.2031C247.281 51.8594 247.766 53.9115 247.766 56.3594ZM242.735 56.4844C242.735 54.7969 242.485 53.4115 241.985 52.3281C241.495 51.2344 240.766 50.4271 239.797 49.9062C238.839 49.3854 237.651 49.125 236.235 49.125H233.656V64H235.735C238.099 64 239.854 63.3698 241 62.1094C242.156 60.849 242.735 58.974 242.735 56.4844ZM271.094 45.1562V59.9375C271.094 61.5104 270.745 62.9323 270.047 64.2031C269.36 65.4635 268.313 66.4635 266.906 67.2031C265.511 67.9427 263.75 68.3125 261.625 68.3125C258.604 68.3125 256.302 67.5417 254.719 66C253.136 64.4583 252.344 62.4167 252.344 59.875V45.1562H257.172V59.1406C257.172 61.026 257.558 62.349 258.328 63.1094C259.099 63.8698 260.24 64.25 261.75 64.25C262.813 64.25 263.672 64.0677 264.328 63.7031C264.995 63.3385 265.485 62.776 265.797 62.0156C266.11 61.2552 266.266 60.2865 266.266 59.1094V45.1562H271.094ZM276.688 68V45.1562H281.531V64H290.797V68H276.688ZM307.938 68H294.781V45.1562H307.938V49.125H299.625V54.1406H307.36V58.1094H299.625V64H307.938V68ZM331.672 56.3594C331.672 58.9323 331.177 61.0833 330.188 62.8125C329.209 64.5312 327.787 65.8281 325.922 66.7031C324.058 67.5677 321.813 68 319.188 68H312.719V45.1562H319.891C322.287 45.1562 324.365 45.5833 326.125 46.4375C327.886 47.2812 329.25 48.5365 330.219 50.2031C331.188 51.8594 331.672 53.9115 331.672 56.3594ZM326.641 56.4844C326.641 54.7969 326.391 53.4115 325.891 52.3281C325.401 51.2344 324.672 50.4271 323.703 49.9062C322.745 49.3854 321.558 49.125 320.141 49.125H317.563V64H319.641C322.005 64 323.761 63.3698 324.906 62.1094C326.063 60.849 326.641 58.974 326.641 56.4844Z" fill="black"/>
<path d="M16 94H464V458C464 461.314 461.314 464 458 464H22C18.6863 464 16 461.314 16 458V94Z" fill="#11A0D6"/>
<path d="M267.383 246.826L254.305 239.47V224.348H260.435V235.791L270.244 241.513L267.383 246.826ZM279.644 255.817C281.687 258.678 282.913 261.948 282.913 265.217V302H274.739V289.739H201.174V302H193V240.696H201.174V277.478H233.87V251.322C231.418 246.826 229.783 241.922 229.783 236.609C229.783 220.67 242.452 208 258.392 208C274.331 208 287 220.67 287 236.609C287 243.965 284.139 250.504 279.644 255.817ZM237.957 236.609C237.957 248.052 246.948 257.043 258.392 257.043C269.835 257.043 278.826 248.052 278.826 236.609C278.826 225.165 269.835 216.174 258.392 216.174C246.948 216.174 237.957 225.165 237.957 236.609ZM217.522 273.391C224.47 273.391 229.783 268.078 229.783 261.13C229.783 254.183 224.47 248.87 217.522 248.87C210.574 248.87 205.261 254.183 205.261 261.13C205.261 268.078 210.574 273.391 217.522 273.391Z" fill="white"/>
<path d="M138.817 341L145.25 326.914H136.801V323.867H149.094V326.141L142.614 341H138.817ZM151.262 339.324C151.262 338.59 151.461 338.074 151.86 337.777C152.266 337.48 152.754 337.332 153.324 337.332C153.879 337.332 154.356 337.48 154.754 337.777C155.16 338.074 155.364 338.59 155.364 339.324C155.364 340.027 155.16 340.535 154.754 340.848C154.356 341.16 153.879 341.316 153.324 341.316C152.754 341.316 152.266 341.16 151.86 340.848C151.461 340.535 151.262 340.027 151.262 339.324ZM151.262 329.645C151.262 328.91 151.461 328.395 151.86 328.098C152.266 327.801 152.754 327.652 153.324 327.652C153.879 327.652 154.356 327.801 154.754 328.098C155.16 328.395 155.364 328.91 155.364 329.645C155.364 330.355 155.16 330.867 154.754 331.18C154.356 331.484 153.879 331.637 153.324 331.637C152.754 331.637 152.266 331.484 151.86 331.18C151.461 330.867 151.262 330.355 151.262 329.645ZM169.578 332.434C169.578 333.816 169.469 335.051 169.25 336.137C169.039 337.223 168.696 338.145 168.219 338.902C167.75 339.66 167.133 340.238 166.367 340.637C165.602 341.035 164.672 341.234 163.578 341.234C162.203 341.234 161.074 340.887 160.192 340.191C159.309 339.488 158.656 338.48 158.235 337.168C157.813 335.848 157.602 334.27 157.602 332.434C157.602 330.582 157.793 329 158.176 327.688C158.567 326.367 159.199 325.355 160.074 324.652C160.949 323.949 162.117 323.598 163.578 323.598C164.946 323.598 166.071 323.949 166.953 324.652C167.844 325.348 168.504 326.355 168.934 327.676C169.364 328.988 169.578 330.574 169.578 332.434ZM161.199 332.434C161.199 333.738 161.27 334.828 161.41 335.703C161.559 336.57 161.805 337.223 162.149 337.66C162.492 338.098 162.969 338.316 163.578 338.316C164.18 338.316 164.653 338.102 164.996 337.672C165.348 337.234 165.598 336.582 165.746 335.715C165.895 334.84 165.969 333.746 165.969 332.434C165.969 331.129 165.895 330.039 165.746 329.164C165.598 328.289 165.348 327.633 164.996 327.195C164.653 326.75 164.18 326.527 163.578 326.527C162.969 326.527 162.492 326.75 162.149 327.195C161.805 327.633 161.559 328.289 161.41 329.164C161.27 330.039 161.199 331.129 161.199 332.434ZM183.313 332.434C183.313 333.816 183.203 335.051 182.985 336.137C182.774 337.223 182.43 338.145 181.953 338.902C181.485 339.66 180.867 340.238 180.102 340.637C179.336 341.035 178.406 341.234 177.313 341.234C175.938 341.234 174.809 340.887 173.926 340.191C173.043 339.488 172.391 338.48 171.969 337.168C171.547 335.848 171.336 334.27 171.336 332.434C171.336 330.582 171.528 329 171.91 327.688C172.301 326.367 172.934 325.355 173.809 324.652C174.684 323.949 175.852 323.598 177.313 323.598C178.68 323.598 179.805 323.949 180.688 324.652C181.578 325.348 182.239 326.355 182.668 327.676C183.098 328.988 183.313 330.574 183.313 332.434ZM174.934 332.434C174.934 333.738 175.004 334.828 175.145 335.703C175.293 336.57 175.539 337.223 175.883 337.66C176.227 338.098 176.703 338.316 177.313 338.316C177.914 338.316 178.387 338.102 178.731 337.672C179.082 337.234 179.332 336.582 179.481 335.715C179.629 334.84 179.703 333.746 179.703 332.434C179.703 331.129 179.629 330.039 179.481 329.164C179.332 328.289 179.082 327.633 178.731 327.195C178.387 326.75 177.914 326.527 177.313 326.527C176.703 326.527 176.227 326.75 175.883 327.195C175.539 327.633 175.293 328.289 175.145 329.164C175.004 330.039 174.934 331.129 174.934 332.434ZM198.067 323.867C200.278 323.867 201.891 324.344 202.906 325.297C203.922 326.242 204.43 327.547 204.43 329.211C204.43 329.961 204.317 330.68 204.09 331.367C203.864 332.047 203.492 332.652 202.977 333.184C202.469 333.715 201.789 334.137 200.938 334.449C200.086 334.754 199.035 334.906 197.785 334.906H196.227V341H192.594V323.867H198.067ZM197.879 326.844H196.227V331.93H197.422C198.102 331.93 198.692 331.84 199.192 331.66C199.692 331.48 200.078 331.199 200.352 330.816C200.625 330.434 200.762 329.941 200.762 329.34C200.762 328.496 200.528 327.871 200.059 327.465C199.59 327.051 198.864 326.844 197.879 326.844ZM214.918 341L210.793 327.559H210.688C210.703 327.879 210.727 328.363 210.758 329.012C210.797 329.652 210.832 330.336 210.864 331.062C210.895 331.789 210.91 332.445 210.91 333.031V341H207.664V323.867H212.61L216.664 336.969H216.735L221.035 323.867H225.981V341H222.594V332.891C222.594 332.352 222.602 331.73 222.617 331.027C222.641 330.324 222.668 329.656 222.699 329.023C222.731 328.383 222.754 327.902 222.77 327.582H222.664L218.246 341H214.918ZM235.098 336.031V333.102H241.391V336.031H235.098ZM261.219 331.18C261.219 332.164 261.145 333.141 260.996 334.109C260.856 335.078 260.606 335.992 260.246 336.852C259.887 337.703 259.383 338.461 258.735 339.125C258.086 339.781 257.262 340.297 256.262 340.672C255.262 341.047 254.051 341.234 252.629 341.234C252.293 341.234 251.899 341.219 251.446 341.188C250.992 341.164 250.617 341.125 250.321 341.07V338.164C250.633 338.242 250.965 338.305 251.317 338.352C251.668 338.391 252.024 338.41 252.383 338.41C253.813 338.41 254.914 338.184 255.688 337.73C256.469 337.277 257.016 336.648 257.328 335.844C257.649 335.039 257.832 334.109 257.879 333.055H257.739C257.512 333.43 257.242 333.77 256.93 334.074C256.625 334.371 256.235 334.609 255.758 334.789C255.281 334.961 254.676 335.047 253.942 335.047C252.965 335.047 252.114 334.836 251.387 334.414C250.668 333.984 250.11 333.367 249.711 332.562C249.321 331.75 249.125 330.77 249.125 329.621C249.125 328.379 249.36 327.316 249.828 326.434C250.305 325.543 250.981 324.859 251.856 324.383C252.731 323.906 253.762 323.668 254.949 323.668C255.824 323.668 256.641 323.82 257.399 324.125C258.156 324.422 258.821 324.879 259.391 325.496C259.969 326.113 260.418 326.895 260.739 327.84C261.059 328.785 261.219 329.898 261.219 331.18ZM255.02 326.574C254.317 326.574 253.742 326.816 253.297 327.301C252.852 327.785 252.629 328.543 252.629 329.574C252.629 330.402 252.821 331.059 253.203 331.543C253.586 332.027 254.168 332.27 254.949 332.27C255.489 332.27 255.957 332.152 256.356 331.918C256.754 331.676 257.063 331.375 257.281 331.016C257.508 330.648 257.621 330.273 257.621 329.891C257.621 329.492 257.567 329.098 257.457 328.707C257.348 328.316 257.184 327.961 256.965 327.641C256.746 327.32 256.473 327.062 256.145 326.867C255.824 326.672 255.449 326.574 255.02 326.574ZM263.457 339.324C263.457 338.59 263.656 338.074 264.055 337.777C264.461 337.48 264.949 337.332 265.52 337.332C266.074 337.332 266.551 337.48 266.949 337.777C267.356 338.074 267.559 338.59 267.559 339.324C267.559 340.027 267.356 340.535 266.949 340.848C266.551 341.16 266.074 341.316 265.52 341.316C264.949 341.316 264.461 341.16 264.055 340.848C263.656 340.535 263.457 340.027 263.457 339.324ZM263.457 329.645C263.457 328.91 263.656 328.395 264.055 328.098C264.461 327.801 264.949 327.652 265.52 327.652C266.074 327.652 266.551 327.801 266.949 328.098C267.356 328.395 267.559 328.91 267.559 329.645C267.559 330.355 267.356 330.867 266.949 331.18C266.551 331.484 266.074 331.637 265.52 331.637C264.949 331.637 264.461 331.484 264.055 331.18C263.656 330.867 263.457 330.355 263.457 329.645ZM281.774 332.434C281.774 333.816 281.664 335.051 281.446 336.137C281.235 337.223 280.891 338.145 280.414 338.902C279.946 339.66 279.328 340.238 278.563 340.637C277.797 341.035 276.867 341.234 275.774 341.234C274.399 341.234 273.27 340.887 272.387 340.191C271.504 339.488 270.852 338.48 270.43 337.168C270.008 335.848 269.797 334.27 269.797 332.434C269.797 330.582 269.989 329 270.371 327.688C270.762 326.367 271.395 325.355 272.27 324.652C273.145 323.949 274.313 323.598 275.774 323.598C277.141 323.598 278.266 323.949 279.149 324.652C280.039 325.348 280.699 326.355 281.129 327.676C281.559 328.988 281.774 330.574 281.774 332.434ZM273.395 332.434C273.395 333.738 273.465 334.828 273.606 335.703C273.754 336.57 274 337.223 274.344 337.66C274.688 338.098 275.164 338.316 275.774 338.316C276.375 338.316 276.848 338.102 277.192 337.672C277.543 337.234 277.793 336.582 277.942 335.715C278.09 334.84 278.164 333.746 278.164 332.434C278.164 331.129 278.09 330.039 277.942 329.164C277.793 328.289 277.543 327.633 277.192 327.195C276.848 326.75 276.375 326.527 275.774 326.527C275.164 326.527 274.688 326.75 274.344 327.195C274 327.633 273.754 328.289 273.606 329.164C273.465 330.039 273.395 331.129 273.395 332.434ZM295.508 332.434C295.508 333.816 295.399 335.051 295.18 336.137C294.969 337.223 294.625 338.145 294.149 338.902C293.68 339.66 293.063 340.238 292.297 340.637C291.531 341.035 290.602 341.234 289.508 341.234C288.133 341.234 287.004 340.887 286.121 340.191C285.239 339.488 284.586 338.48 284.164 337.168C283.742 335.848 283.531 334.27 283.531 332.434C283.531 330.582 283.723 329 284.106 327.688C284.496 326.367 285.129 325.355 286.004 324.652C286.879 323.949 288.047 323.598 289.508 323.598C290.875 323.598 292 323.949 292.883 324.652C293.774 325.348 294.434 326.355 294.864 327.676C295.293 328.988 295.508 330.574 295.508 332.434ZM287.129 332.434C287.129 333.738 287.199 334.828 287.34 335.703C287.489 336.57 287.735 337.223 288.078 337.66C288.422 338.098 288.899 338.316 289.508 338.316C290.11 338.316 290.582 338.102 290.926 337.672C291.278 337.234 291.528 336.582 291.676 335.715C291.824 334.84 291.899 333.746 291.899 332.434C291.899 331.129 291.824 330.039 291.676 329.164C291.528 328.289 291.278 327.633 290.926 327.195C290.582 326.75 290.11 326.527 289.508 326.527C288.899 326.527 288.422 326.75 288.078 327.195C287.735 327.633 287.489 328.289 287.34 329.164C287.199 330.039 287.129 331.129 287.129 332.434ZM315.278 341L314.035 336.922H307.789L306.547 341H302.633L308.68 323.797H313.121L319.192 341H315.278ZM313.168 333.875L311.926 329.891C311.848 329.625 311.742 329.285 311.61 328.871C311.485 328.449 311.356 328.023 311.223 327.594C311.098 327.156 310.996 326.777 310.918 326.457C310.84 326.777 310.731 327.176 310.59 327.652C310.457 328.121 310.328 328.566 310.203 328.988C310.078 329.41 309.989 329.711 309.934 329.891L308.703 333.875H313.168ZM328.614 341L324.489 327.559H324.383C324.399 327.879 324.422 328.363 324.453 329.012C324.492 329.652 324.528 330.336 324.559 331.062C324.59 331.789 324.606 332.445 324.606 333.031V341H321.36V323.867H326.305L330.36 336.969H330.43L334.731 323.867H339.676V341H336.289V332.891C336.289 332.352 336.297 331.73 336.313 331.027C336.336 330.324 336.364 329.656 336.395 329.023C336.426 328.383 336.449 327.902 336.465 327.582H336.36L331.942 341H328.614Z" fill="white"/>
</svg>
