<svg width="480" height="480" viewBox="0 0 480 480" fill="none" xmlns="http://www.w3.org/2000/svg">
<g clip-path="url(#clip0_3926_12762)">
<rect width="480" height="480" fill="#F6F6F6"/>
<mask id="path-1-inside-1_3926_12762" fill="white">
<path d="M0 0H480V64H0V0Z"/>
</mask>
<path d="M0 0H480V64H0V0Z" fill="white"/>
<path d="M480 64V63H0V64V65H480V64Z" fill="#D1D1D1" mask="url(#path-1-inside-1_3926_12762)"/>
<path d="M179.303 36.0352C179.303 37.3242 178.837 38.3398 177.906 39.082C176.982 39.8242 175.693 40.1953 174.039 40.1953C172.516 40.1953 171.168 39.9089 169.996 39.3359V36.5234C170.96 36.9531 171.773 37.2559 172.438 37.4316C173.108 37.6074 173.72 37.6953 174.273 37.6953C174.938 37.6953 175.445 37.5684 175.797 37.3145C176.155 37.0605 176.334 36.6829 176.334 36.1816C176.334 35.9017 176.256 35.6543 176.1 35.4395C175.943 35.2181 175.712 35.0065 175.406 34.8047C175.107 34.6029 174.492 34.2806 173.561 33.8379C172.688 33.4277 172.034 33.0339 171.598 32.6562C171.161 32.2786 170.813 31.8392 170.553 31.3379C170.292 30.8366 170.162 30.2507 170.162 29.5801C170.162 28.3171 170.589 27.3242 171.441 26.6016C172.301 25.8789 173.486 25.5176 174.996 25.5176C175.738 25.5176 176.445 25.6055 177.115 25.7812C177.792 25.957 178.499 26.2044 179.234 26.5234L178.258 28.877C177.496 28.5645 176.865 28.3464 176.363 28.2227C175.868 28.099 175.38 28.0371 174.898 28.0371C174.326 28.0371 173.886 28.1706 173.58 28.4375C173.274 28.7044 173.121 29.0527 173.121 29.4824C173.121 29.7493 173.183 29.9837 173.307 30.1855C173.43 30.3809 173.626 30.5729 173.893 30.7617C174.166 30.944 174.807 31.276 175.816 31.7578C177.151 32.3958 178.066 33.0371 178.561 33.6816C179.055 34.3197 179.303 35.1042 179.303 36.0352ZM186.178 30.9961C185.546 30.9961 185.051 31.1979 184.693 31.6016C184.335 31.9987 184.13 32.5651 184.078 33.3008H188.258C188.245 32.5651 188.053 31.9987 187.682 31.6016C187.311 31.1979 186.809 30.9961 186.178 30.9961ZM186.598 40.1953C184.84 40.1953 183.466 39.7103 182.477 38.7402C181.487 37.7702 180.992 36.3965 180.992 34.6191C180.992 32.7897 181.448 31.377 182.359 30.3809C183.277 29.3783 184.544 28.877 186.158 28.877C187.701 28.877 188.902 29.3164 189.762 30.1953C190.621 31.0742 191.051 32.2884 191.051 33.8379V35.2832H184.01C184.042 36.1296 184.293 36.7904 184.762 37.2656C185.23 37.7409 185.888 37.9785 186.734 37.9785C187.392 37.9785 188.014 37.9102 188.6 37.7734C189.186 37.6367 189.798 37.4186 190.436 37.1191V39.4238C189.915 39.6842 189.358 39.8763 188.766 40C188.173 40.1302 187.451 40.1953 186.598 40.1953ZM196.451 40H193.473V24.8047H196.451V40ZM204.107 30.9961C203.476 30.9961 202.981 31.1979 202.623 31.6016C202.265 31.9987 202.06 32.5651 202.008 33.3008H206.188C206.174 32.5651 205.982 31.9987 205.611 31.6016C205.24 31.1979 204.739 30.9961 204.107 30.9961ZM204.527 40.1953C202.77 40.1953 201.396 39.7103 200.406 38.7402C199.417 37.7702 198.922 36.3965 198.922 34.6191C198.922 32.7897 199.378 31.377 200.289 30.3809C201.207 29.3783 202.473 28.877 204.088 28.877C205.631 28.877 206.832 29.3164 207.691 30.1953C208.551 31.0742 208.98 32.2884 208.98 33.8379V35.2832H201.939C201.972 36.1296 202.223 36.7904 202.691 37.2656C203.16 37.7409 203.818 37.9785 204.664 37.9785C205.322 37.9785 205.943 37.9102 206.529 37.7734C207.115 37.6367 207.727 37.4186 208.365 37.1191V39.4238C207.844 39.6842 207.288 39.8763 206.695 40C206.103 40.1302 205.38 40.1953 204.527 40.1953ZM215.836 40.1953C212.438 40.1953 210.738 38.3301 210.738 34.5996C210.738 32.7441 211.201 31.3281 212.125 30.3516C213.049 29.3685 214.374 28.877 216.1 28.877C217.363 28.877 218.495 29.1243 219.498 29.6191L218.619 31.9238C218.15 31.735 217.714 31.582 217.311 31.4648C216.907 31.3411 216.503 31.2793 216.1 31.2793C214.55 31.2793 213.775 32.3796 213.775 34.5801C213.775 36.7155 214.55 37.7832 216.1 37.7832C216.673 37.7832 217.203 37.7083 217.691 37.5586C218.18 37.4023 218.668 37.1615 219.156 36.8359V39.3848C218.674 39.6908 218.186 39.9023 217.691 40.0195C217.203 40.1367 216.585 40.1953 215.836 40.1953ZM226.295 37.8223C226.816 37.8223 227.441 37.7083 228.17 37.4805V39.6973C227.428 40.0293 226.516 40.1953 225.436 40.1953C224.244 40.1953 223.375 39.8958 222.828 39.2969C222.288 38.6914 222.018 37.7865 222.018 36.582V31.3184H220.592V30.0586L222.232 29.0625L223.092 26.7578H224.996V29.082H228.053V31.3184H224.996V36.582C224.996 37.0052 225.113 37.3177 225.348 37.5195C225.589 37.7214 225.904 37.8223 226.295 37.8223ZM242.516 40L241.939 38.5156H241.861C241.36 39.1471 240.842 39.5866 240.309 39.834C239.781 40.0749 239.091 40.1953 238.238 40.1953C237.19 40.1953 236.363 39.8958 235.758 39.2969C235.159 38.6979 234.859 37.8451 234.859 36.7383C234.859 35.5794 235.263 34.7266 236.07 34.1797C236.884 33.6263 238.108 33.3203 239.742 33.2617L241.637 33.2031V32.7246C241.637 31.6178 241.07 31.0645 239.938 31.0645C239.065 31.0645 238.04 31.3281 236.861 31.8555L235.875 29.8438C237.132 29.1862 238.525 28.8574 240.055 28.8574C241.52 28.8574 242.643 29.1764 243.424 29.8145C244.205 30.4525 244.596 31.4225 244.596 32.7246V40H242.516ZM241.637 34.9414L240.484 34.9805C239.618 35.0065 238.974 35.1628 238.551 35.4492C238.128 35.7357 237.916 36.1719 237.916 36.7578C237.916 37.5977 238.398 38.0176 239.361 38.0176C240.051 38.0176 240.602 37.819 241.012 37.4219C241.428 37.0247 241.637 36.4974 241.637 35.8398V34.9414ZM256.129 32.0605H257.105C258.062 32.0605 258.769 31.901 259.225 31.582C259.68 31.263 259.908 30.7617 259.908 30.0781C259.908 29.401 259.674 28.9193 259.205 28.6328C258.743 28.3464 258.023 28.2031 257.047 28.2031H256.129V32.0605ZM256.129 34.5215V40H253.102V25.7227H257.262C259.202 25.7227 260.637 26.0775 261.568 26.7871C262.499 27.4902 262.965 28.5612 262.965 30C262.965 30.8398 262.734 31.5885 262.271 32.2461C261.809 32.8971 261.155 33.4082 260.309 33.7793C262.457 36.9889 263.857 39.0625 264.508 40H261.148L257.74 34.5215H256.129ZM268.443 34.5215C268.443 35.6022 268.619 36.4193 268.971 36.9727C269.329 37.526 269.908 37.8027 270.709 37.8027C271.503 37.8027 272.073 37.5293 272.418 36.9824C272.77 36.429 272.945 35.6087 272.945 34.5215C272.945 33.4408 272.77 32.6302 272.418 32.0898C272.066 31.5495 271.49 31.2793 270.689 31.2793C269.895 31.2793 269.322 31.5495 268.971 32.0898C268.619 32.6237 268.443 33.4342 268.443 34.5215ZM275.992 34.5215C275.992 36.2988 275.523 37.6888 274.586 38.6914C273.648 39.694 272.343 40.1953 270.67 40.1953C269.622 40.1953 268.697 39.9674 267.896 39.5117C267.096 39.0495 266.48 38.3887 266.051 37.5293C265.621 36.6699 265.406 35.6673 265.406 34.5215C265.406 32.7376 265.872 31.3509 266.803 30.3613C267.734 29.3717 269.042 28.877 270.729 28.877C271.777 28.877 272.701 29.1048 273.502 29.5605C274.303 30.0163 274.918 30.6706 275.348 31.5234C275.777 32.3763 275.992 33.3757 275.992 34.5215ZM280.826 34.5215C280.826 35.6022 281.002 36.4193 281.354 36.9727C281.712 37.526 282.291 37.8027 283.092 37.8027C283.886 37.8027 284.456 37.5293 284.801 36.9824C285.152 36.429 285.328 35.6087 285.328 34.5215C285.328 33.4408 285.152 32.6302 284.801 32.0898C284.449 31.5495 283.873 31.2793 283.072 31.2793C282.278 31.2793 281.705 31.5495 281.354 32.0898C281.002 32.6237 280.826 33.4342 280.826 34.5215ZM288.375 34.5215C288.375 36.2988 287.906 37.6888 286.969 38.6914C286.031 39.694 284.726 40.1953 283.053 40.1953C282.005 40.1953 281.08 39.9674 280.279 39.5117C279.479 39.0495 278.863 38.3887 278.434 37.5293C278.004 36.6699 277.789 35.6673 277.789 34.5215C277.789 32.7376 278.255 31.3509 279.186 30.3613C280.117 29.3717 281.425 28.877 283.111 28.877C284.16 28.877 285.084 29.1048 285.885 29.5605C286.686 30.0163 287.301 30.6706 287.73 31.5234C288.16 32.3763 288.375 33.3757 288.375 34.5215ZM300.611 40H297.633V33.623C297.633 32.8353 297.499 32.2461 297.232 31.8555C296.972 31.4583 296.559 31.2598 295.992 31.2598C295.23 31.2598 294.677 31.5397 294.332 32.0996C293.987 32.6595 293.814 33.5807 293.814 34.8633V40H290.836V29.082H293.111L293.512 30.4785H293.678C293.971 29.9772 294.394 29.5866 294.947 29.3066C295.501 29.0202 296.135 28.877 296.852 28.877C298.486 28.877 299.592 29.4108 300.172 30.4785H300.436C300.729 29.9707 301.158 29.5768 301.725 29.2969C302.298 29.0169 302.942 28.877 303.658 28.877C304.895 28.877 305.829 29.196 306.461 29.834C307.099 30.4655 307.418 31.4811 307.418 32.8809V40H304.43V33.623C304.43 32.8353 304.296 32.2461 304.029 31.8555C303.769 31.4583 303.355 31.2598 302.789 31.2598C302.06 31.2598 301.513 31.5202 301.148 32.041C300.79 32.5618 300.611 33.3887 300.611 34.5215V40Z" fill="#31344E"/>
<path d="M459.29 24.0987C460.227 23.1616 460.227 21.6399 459.29 20.7028C458.353 19.7657 456.831 19.7657 455.894 20.7028L448 28.6041L440.099 20.7103C439.162 19.7732 437.64 19.7732 436.703 20.7103C435.766 21.6474 435.766 23.1691 436.703 24.1062L444.604 32L436.71 39.9013C435.773 40.8384 435.773 42.3601 436.71 43.2972C437.647 44.2343 439.169 44.2343 440.106 43.2972L448 35.3959L455.901 43.2897C456.838 44.2268 458.36 44.2268 459.297 43.2897C460.234 42.3526 460.234 40.8309 459.297 39.8938L451.396 32L459.29 24.0987Z" fill="#1A1040"/>
<g filter="url(#filter0_d_3926_12762)">
<rect x="16" y="154" width="219" height="64" rx="5" fill="white" shape-rendering="crispEdges"/>
<rect x="17.5" y="155.5" width="216" height="61" rx="3.5" stroke="#1A1040" stroke-width="3" shape-rendering="crispEdges"/>
<path d="M120.068 189.837H118.521V192.5H115.867V189.837H110.383V187.947L116.017 179.65H118.521V187.728H120.068V189.837ZM115.867 187.728V185.548C115.867 185.185 115.882 184.657 115.911 183.966C115.94 183.274 115.964 182.873 115.981 182.762H115.911C115.694 183.242 115.434 183.711 115.129 184.168L112.773 187.728H115.867ZM125.755 184.291C126.997 184.291 127.984 184.64 128.717 185.337C129.455 186.034 129.824 186.989 129.824 188.202C129.824 189.638 129.382 190.742 128.497 191.516C127.612 192.289 126.347 192.676 124.7 192.676C123.271 192.676 122.116 192.444 121.237 191.981V189.635C121.7 189.881 122.239 190.083 122.854 190.241C123.47 190.394 124.053 190.47 124.604 190.47C126.262 190.47 127.091 189.79 127.091 188.431C127.091 187.136 126.232 186.488 124.516 186.488C124.205 186.488 123.862 186.521 123.487 186.585C123.112 186.644 122.808 186.708 122.573 186.778L121.492 186.198L121.976 179.65H128.945V181.953H124.357L124.12 184.476L124.428 184.414C124.785 184.332 125.228 184.291 125.755 184.291ZM131.274 187.042C131.274 184.499 131.811 182.606 132.883 181.364C133.961 180.122 135.572 179.501 137.717 179.501C138.449 179.501 139.023 179.545 139.439 179.633V181.804C138.918 181.687 138.402 181.628 137.893 181.628C136.961 181.628 136.199 181.769 135.607 182.05C135.021 182.331 134.582 182.747 134.289 183.298C133.996 183.849 133.823 184.631 133.771 185.645H133.885C134.465 184.648 135.394 184.15 136.671 184.15C137.819 184.15 138.719 184.511 139.369 185.231C140.02 185.952 140.345 186.948 140.345 188.22C140.345 189.591 139.958 190.678 139.185 191.48C138.411 192.277 137.339 192.676 135.968 192.676C135.019 192.676 134.189 192.456 133.48 192.017C132.777 191.577 132.232 190.936 131.846 190.092C131.465 189.248 131.274 188.231 131.274 187.042ZM135.915 190.505C136.495 190.505 136.94 190.312 137.251 189.925C137.562 189.532 137.717 188.976 137.717 188.255C137.717 187.628 137.57 187.136 137.277 186.778C136.99 186.415 136.554 186.233 135.968 186.233C135.417 186.233 134.945 186.412 134.553 186.77C134.166 187.127 133.973 187.543 133.973 188.018C133.973 188.715 134.154 189.304 134.518 189.784C134.887 190.265 135.353 190.505 135.915 190.505Z" fill="#31344E"/>
</g>
<path d="M200.008 346.271H197.949V333.102C197.949 332.602 197.949 332.174 197.949 331.818C197.958 331.453 197.966 331.123 197.975 330.826C197.992 330.521 198.013 330.212 198.038 329.898C197.775 330.169 197.53 330.402 197.301 330.597C197.072 330.784 196.788 331.017 196.449 331.296L194.326 333L193.22 331.563L198.254 327.686H200.008V346.271ZM219.33 336.953C219.33 338.462 219.216 339.809 218.987 340.996C218.758 342.182 218.398 343.186 217.907 344.008C217.415 344.83 216.78 345.457 216 345.89C215.22 346.313 214.284 346.525 213.191 346.525C211.809 346.525 210.665 346.148 209.758 345.394C208.86 344.64 208.186 343.551 207.737 342.127C207.297 340.695 207.076 338.97 207.076 336.953C207.076 334.97 207.275 333.267 207.674 331.843C208.08 330.411 208.733 329.313 209.631 328.551C210.53 327.779 211.716 327.394 213.191 327.394C214.589 327.394 215.742 327.775 216.648 328.538C217.555 329.292 218.229 330.385 218.669 331.818C219.11 333.241 219.33 334.953 219.33 336.953ZM209.199 336.953C209.199 338.682 209.33 340.123 209.593 341.275C209.856 342.428 210.28 343.292 210.864 343.868C211.458 344.436 212.233 344.72 213.191 344.72C214.148 344.72 214.919 344.436 215.504 343.868C216.097 343.301 216.525 342.44 216.788 341.288C217.059 340.135 217.195 338.69 217.195 336.953C217.195 335.25 217.064 333.826 216.801 332.682C216.538 331.529 216.114 330.665 215.53 330.089C214.945 329.504 214.165 329.212 213.191 329.212C212.216 329.212 211.436 329.504 210.852 330.089C210.267 330.665 209.843 331.529 209.58 332.682C209.326 333.826 209.199 335.25 209.199 336.953ZM241.665 339.279C241.665 340.424 241.517 341.445 241.22 342.343C240.924 343.241 240.496 344 239.936 344.618C239.377 345.237 238.699 345.712 237.903 346.042C237.114 346.364 236.22 346.525 235.22 346.525C234.288 346.525 233.432 346.364 232.653 346.042C231.881 345.712 231.212 345.237 230.644 344.618C230.085 344 229.648 343.241 229.335 342.343C229.03 341.445 228.877 340.424 228.877 339.279C228.877 337.754 229.136 336.457 229.653 335.39C230.169 334.313 230.907 333.496 231.864 332.936C232.83 332.368 233.979 332.085 235.309 332.085C236.58 332.085 237.691 332.368 238.64 332.936C239.597 333.504 240.339 334.326 240.864 335.402C241.398 336.47 241.665 337.763 241.665 339.279ZM231.064 339.279C231.064 340.398 231.212 341.368 231.508 342.19C231.805 343.013 232.263 343.648 232.881 344.097C233.5 344.546 234.297 344.771 235.271 344.771C236.237 344.771 237.03 344.546 237.648 344.097C238.275 343.648 238.737 343.013 239.034 342.19C239.33 341.368 239.479 340.398 239.479 339.279C239.479 338.169 239.33 337.212 239.034 336.407C238.737 335.593 238.28 334.966 237.661 334.525C237.042 334.085 236.242 333.864 235.258 333.864C233.809 333.864 232.746 334.343 232.068 335.301C231.398 336.258 231.064 337.585 231.064 339.279ZM251.517 333.991H248.047V346.271H245.936V333.991H243.47V332.974L245.936 332.275V331.347C245.936 330.178 246.11 329.229 246.458 328.5C246.805 327.763 247.309 327.22 247.97 326.873C248.631 326.525 249.436 326.352 250.386 326.352C250.919 326.352 251.407 326.398 251.847 326.491C252.297 326.585 252.691 326.69 253.03 326.809L252.483 328.474C252.195 328.381 251.869 328.296 251.504 328.22C251.148 328.135 250.784 328.093 250.411 328.093C249.606 328.093 249.008 328.356 248.619 328.881C248.237 329.398 248.047 330.212 248.047 331.322V332.339H251.517V333.991ZM267.763 346.271H265.703V333.102C265.703 332.602 265.703 332.174 265.703 331.818C265.712 331.453 265.72 331.123 265.729 330.826C265.746 330.521 265.767 330.212 265.792 329.898C265.53 330.169 265.284 330.402 265.055 330.597C264.826 330.784 264.542 331.017 264.203 331.296L262.08 333L260.975 331.563L266.008 327.686H267.763V346.271ZM287.085 336.953C287.085 338.462 286.97 339.809 286.742 340.996C286.513 342.182 286.153 343.186 285.661 344.008C285.169 344.83 284.534 345.457 283.754 345.89C282.975 346.313 282.038 346.525 280.945 346.525C279.564 346.525 278.419 346.148 277.513 345.394C276.614 344.64 275.941 343.551 275.492 342.127C275.051 340.695 274.83 338.97 274.83 336.953C274.83 334.97 275.03 333.267 275.428 331.843C275.835 330.411 276.487 329.313 277.386 328.551C278.284 327.779 279.47 327.394 280.945 327.394C282.343 327.394 283.496 327.775 284.403 328.538C285.309 329.292 285.983 330.385 286.424 331.818C286.864 333.241 287.085 334.953 287.085 336.953ZM276.953 336.953C276.953 338.682 277.085 340.123 277.347 341.275C277.61 342.428 278.034 343.292 278.619 343.868C279.212 344.436 279.987 344.72 280.945 344.72C281.903 344.72 282.674 344.436 283.258 343.868C283.852 343.301 284.28 342.44 284.542 341.288C284.814 340.135 284.949 338.69 284.949 336.953C284.949 335.25 284.818 333.826 284.555 332.682C284.292 331.529 283.869 330.665 283.284 330.089C282.699 329.504 281.919 329.212 280.945 329.212C279.97 329.212 279.191 329.504 278.606 330.089C278.021 330.665 277.597 331.529 277.335 332.682C277.08 333.826 276.953 335.25 276.953 336.953Z" fill="#787B91"/>
<path d="M94.1016 307.424C94.1016 304.428 96.5298 302 99.5253 302H160.271C163.267 302 165.695 304.428 165.695 307.424V366C165.695 368.995 163.267 371.424 160.271 371.424H99.5253C96.5298 371.424 94.1016 368.995 94.1016 366V307.424Z" fill="#1A1040"/>
<path d="M122.94 338.004C122.093 337.14 122.093 335.735 122.94 334.87L133.785 323.801C134.633 322.937 136.008 322.937 136.856 323.801C137.703 324.666 137.703 326.07 136.856 326.935L127.543 336.441L136.849 345.946C137.696 346.811 137.696 348.216 136.849 349.08C136.002 349.945 134.626 349.945 133.778 349.08L122.933 338.011L122.94 338.004Z" fill="white"/>
<g opacity="0.6">
<path d="M385.898 307.424C385.898 304.428 383.47 302 380.475 302H319.729C316.733 302 314.305 304.428 314.305 307.424V366C314.305 368.995 316.733 371.424 319.729 371.424H380.475C383.47 371.424 385.898 368.995 385.898 366V307.424Z" fill="#1A1040"/>
<path d="M357.06 338.004C357.907 337.14 357.907 335.735 357.06 334.87L346.215 323.801C345.367 322.937 343.992 322.937 343.144 323.801C342.297 324.666 342.297 326.07 343.144 326.935L352.457 336.441L343.151 345.946C342.304 346.811 342.304 348.216 343.151 349.08C343.998 349.945 345.374 349.945 346.222 349.08L357.067 338.011L357.06 338.004Z" fill="white"/>
</g>
<path d="M16 307.424C16 304.428 18.4283 302 21.4237 302H82.1695C85.1649 302 87.5932 304.428 87.5932 307.424V366C87.5932 368.995 85.1649 371.424 82.1695 371.424H21.4237C18.4283 371.424 16 368.995 16 366V307.424Z" fill="#1A1040"/>
<path d="M37.2457 335.18C36.3986 336.028 36.3986 337.403 37.2457 338.25L48.0889 349.094C48.936 349.941 50.3118 349.941 51.1589 349.094C52.006 348.247 52.006 346.871 51.1589 346.024L41.8473 336.712L51.1521 327.4C51.9993 326.553 51.9993 325.178 51.1521 324.33C50.305 323.483 48.9293 323.483 48.0821 324.33L37.2389 335.174L37.2457 335.18ZM63.2694 324.337L52.4262 335.18C51.5791 336.028 51.5791 337.403 52.4262 338.25L63.2694 349.094C64.1166 349.941 65.4923 349.941 66.3394 349.094C67.1865 348.247 67.1865 346.871 66.3394 346.024L57.0278 336.712L66.3326 327.4C67.1798 326.553 67.1798 325.178 66.3326 324.33C65.4855 323.483 64.1098 323.483 63.2626 324.33L63.2694 324.337Z" fill="white"/>
<g opacity="0.6">
<path d="M464 366C464 368.996 461.572 371.424 458.576 371.424L397.83 371.424C394.835 371.424 392.407 368.996 392.407 366L392.407 307.424C392.407 304.428 394.835 302 397.831 302L458.576 302C461.572 302 464 304.428 464 307.424L464 366Z" fill="#1A1040"/>
<path d="M442.754 338.243C443.601 337.396 443.601 336.021 442.754 335.173L431.911 324.33C431.064 323.483 429.688 323.483 428.841 324.33C427.994 325.177 427.994 326.553 428.841 327.4L438.153 336.712L428.848 346.023C428.001 346.871 428.001 348.246 428.848 349.093C429.695 349.941 431.071 349.941 431.918 349.093L442.761 338.25L442.754 338.243ZM416.731 349.087L427.574 338.243C428.421 337.396 428.421 336.021 427.574 335.173L416.731 324.33C415.883 323.483 414.508 323.483 413.661 324.33C412.813 325.177 412.813 326.553 413.661 327.4L422.972 336.712L413.667 346.023C412.82 346.871 412.82 348.246 413.667 349.093C414.514 349.941 415.89 349.941 416.737 349.093L416.731 349.087Z" fill="white"/>
</g>
<g filter="url(#filter1_d_3926_12762)">
<rect x="16" y="80" width="219" height="64" rx="5" fill="white" shape-rendering="crispEdges"/>
<rect x="17.5" y="81.5" width="216" height="61" rx="3.5" stroke="#1A1040" stroke-width="3" shape-rendering="crispEdges"/>
<path d="M120.068 115.837H118.521V118.5H115.867V115.837H110.383V113.947L116.017 105.65H118.521V113.728H120.068V115.837ZM115.867 113.728V111.548C115.867 111.185 115.882 110.657 115.911 109.966C115.94 109.274 115.964 108.873 115.981 108.762H115.911C115.694 109.242 115.434 109.711 115.129 110.168L112.773 113.728H115.867ZM125.755 110.291C126.997 110.291 127.984 110.64 128.717 111.337C129.455 112.034 129.824 112.989 129.824 114.202C129.824 115.638 129.382 116.742 128.497 117.516C127.612 118.289 126.347 118.676 124.7 118.676C123.271 118.676 122.116 118.444 121.237 117.981V115.635C121.7 115.881 122.239 116.083 122.854 116.241C123.47 116.394 124.053 116.47 124.604 116.47C126.262 116.47 127.091 115.79 127.091 114.431C127.091 113.136 126.232 112.488 124.516 112.488C124.205 112.488 123.862 112.521 123.487 112.585C123.112 112.644 122.808 112.708 122.573 112.778L121.492 112.198L121.976 105.65H128.945V107.953H124.357L124.12 110.476L124.428 110.414C124.785 110.332 125.228 110.291 125.755 110.291ZM140.635 115.837H139.088V118.5H136.434V115.837H130.949V113.947L136.583 105.65H139.088V113.728H140.635V115.837ZM136.434 113.728V111.548C136.434 111.185 136.448 110.657 136.478 109.966C136.507 109.274 136.53 108.873 136.548 108.762H136.478C136.261 109.242 136 109.711 135.695 110.168L133.34 113.728H136.434Z" fill="#31344E"/>
</g>
<g filter="url(#filter2_d_3926_12762)">
<rect x="245" y="80" width="219" height="64" rx="5" fill="#0E76BD"/>
<rect x="246.5" y="81.5" width="216" height="61" rx="3.5" stroke="#0E76BD" stroke-width="3"/>
<path d="M349.068 115.837H347.521V118.5H344.867V115.837H339.383V113.947L345.017 105.65H347.521V113.728H349.068V115.837ZM344.867 113.728V111.548C344.867 111.185 344.882 110.657 344.911 109.966C344.94 109.274 344.964 108.873 344.981 108.762H344.911C344.694 109.242 344.434 109.711 344.129 110.168L341.773 113.728H344.867ZM354.755 110.291C355.997 110.291 356.984 110.64 357.717 111.337C358.455 112.034 358.824 112.989 358.824 114.202C358.824 115.638 358.382 116.742 357.497 117.516C356.612 118.289 355.347 118.676 353.7 118.676C352.271 118.676 351.116 118.444 350.237 117.981V115.635C350.7 115.881 351.239 116.083 351.854 116.241C352.47 116.394 353.053 116.47 353.604 116.47C355.262 116.47 356.091 115.79 356.091 114.431C356.091 113.136 355.232 112.488 353.516 112.488C353.205 112.488 352.862 112.521 352.487 112.585C352.112 112.644 351.808 112.708 351.573 112.778L350.492 112.198L350.976 105.65H357.945V107.953H353.357L353.12 110.476L353.428 110.414C353.785 110.332 354.228 110.291 354.755 110.291ZM365.038 110.291C366.28 110.291 367.268 110.64 368 111.337C368.738 112.034 369.107 112.989 369.107 114.202C369.107 115.638 368.665 116.742 367.78 117.516C366.896 118.289 365.63 118.676 363.983 118.676C362.554 118.676 361.399 118.444 360.521 117.981V115.635C360.983 115.881 361.522 116.083 362.138 116.241C362.753 116.394 363.336 116.47 363.887 116.47C365.545 116.47 366.374 115.79 366.374 114.431C366.374 113.136 365.516 112.488 363.799 112.488C363.488 112.488 363.146 112.521 362.771 112.585C362.396 112.644 362.091 112.708 361.856 112.778L360.775 112.198L361.259 105.65H368.229V107.953H363.641L363.403 110.476L363.711 110.414C364.068 110.332 364.511 110.291 365.038 110.291Z" fill="white"/>
</g>
<g filter="url(#filter3_d_3926_12762)">
<rect x="16" y="384" width="216" height="80" rx="5" fill="white" shape-rendering="crispEdges"/>
<rect x="17.5" y="385.5" width="213" height="77" rx="3.5" stroke="#1A1040" stroke-width="3" shape-rendering="crispEdges"/>
<path d="M97.2227 416.367H102.555C104.836 416.367 106.562 416.688 107.734 417.328C108.906 417.969 109.492 419.094 109.492 420.703C109.492 421.352 109.387 421.938 109.176 422.461C108.973 422.984 108.676 423.414 108.285 423.75C107.895 424.086 107.418 424.305 106.855 424.406V424.523C107.426 424.641 107.941 424.844 108.402 425.133C108.863 425.414 109.23 425.828 109.504 426.375C109.785 426.914 109.926 427.633 109.926 428.531C109.926 429.57 109.672 430.461 109.164 431.203C108.656 431.945 107.93 432.516 106.984 432.914C106.047 433.305 104.93 433.5 103.633 433.5H97.2227V416.367ZM100.855 423.152H102.965C104.02 423.152 104.75 422.988 105.156 422.66C105.562 422.324 105.766 421.832 105.766 421.184C105.766 420.527 105.523 420.059 105.039 419.777C104.562 419.488 103.805 419.344 102.766 419.344H100.855V423.152ZM100.855 426.035V430.5H103.223C104.316 430.5 105.078 430.289 105.508 429.867C105.938 429.445 106.152 428.879 106.152 428.168C106.152 427.746 106.059 427.375 105.871 427.055C105.684 426.734 105.367 426.484 104.922 426.305C104.484 426.125 103.879 426.035 103.105 426.035H100.855ZM118.434 420.129C120.191 420.129 121.539 420.512 122.477 421.277C123.414 422.043 123.883 423.207 123.883 424.77V433.5H121.387L120.695 431.719H120.602C120.227 432.188 119.844 432.57 119.453 432.867C119.062 433.164 118.613 433.383 118.105 433.523C117.598 433.664 116.98 433.734 116.254 433.734C115.48 433.734 114.785 433.586 114.168 433.289C113.559 432.992 113.078 432.539 112.727 431.93C112.375 431.312 112.199 430.531 112.199 429.586C112.199 428.195 112.688 427.172 113.664 426.516C114.641 425.852 116.105 425.484 118.059 425.414L120.332 425.344V424.77C120.332 424.082 120.152 423.578 119.793 423.258C119.434 422.938 118.934 422.777 118.293 422.777C117.66 422.777 117.039 422.867 116.43 423.047C115.82 423.227 115.211 423.453 114.602 423.727L113.418 421.312C114.113 420.945 114.891 420.656 115.75 420.445C116.617 420.234 117.512 420.129 118.434 420.129ZM120.332 427.43L118.949 427.477C117.793 427.508 116.988 427.715 116.535 428.098C116.09 428.48 115.867 428.984 115.867 429.609C115.867 430.156 116.027 430.547 116.348 430.781C116.668 431.008 117.086 431.121 117.602 431.121C118.367 431.121 119.012 430.895 119.535 430.441C120.066 429.988 120.332 429.344 120.332 428.508V427.43ZM132.895 433.734C131.598 433.734 130.492 433.5 129.578 433.031C128.664 432.555 127.969 431.82 127.492 430.828C127.016 429.836 126.777 428.566 126.777 427.02C126.777 425.418 127.047 424.113 127.586 423.105C128.133 422.09 128.887 421.344 129.848 420.867C130.816 420.391 131.938 420.152 133.211 420.152C134.117 420.152 134.898 420.242 135.555 420.422C136.219 420.594 136.797 420.801 137.289 421.043L136.234 423.809C135.672 423.582 135.148 423.398 134.664 423.258C134.18 423.109 133.695 423.035 133.211 423.035C132.586 423.035 132.066 423.184 131.652 423.48C131.238 423.77 130.93 424.207 130.727 424.793C130.523 425.379 130.422 426.113 130.422 426.996C130.422 427.863 130.531 428.582 130.75 429.152C130.969 429.723 131.285 430.148 131.699 430.43C132.113 430.703 132.617 430.84 133.211 430.84C133.953 430.84 134.613 430.742 135.191 430.547C135.77 430.344 136.332 430.062 136.879 429.703V432.762C136.332 433.105 135.758 433.352 135.156 433.5C134.562 433.656 133.809 433.734 132.895 433.734ZM143.5 415.266V423.422C143.5 423.914 143.48 424.406 143.441 424.898C143.402 425.391 143.359 425.883 143.312 426.375H143.359C143.602 426.031 143.848 425.691 144.098 425.355C144.355 425.02 144.629 424.695 144.918 424.383L148.586 420.398H152.617L147.414 426.082L152.934 433.5H148.809L145.035 428.191L143.5 429.422V433.5H139.926V415.266H143.5Z" fill="#1A1040"/>
</g>
<g filter="url(#filter4_d_3926_12762)">
<rect x="248" y="384" width="216" height="80" rx="5" fill="#1A1040" shape-rendering="crispEdges"/>
<path d="M344.352 433.5H339.734L332.281 420.539H332.176C332.207 421.078 332.234 421.621 332.258 422.168C332.281 422.715 332.305 423.262 332.328 423.809C332.352 424.348 332.375 424.891 332.398 425.438V433.5H329.152V416.367H333.734L341.176 429.199H341.258C341.242 428.668 341.223 428.141 341.199 427.617C341.176 427.094 341.152 426.57 341.129 426.047C341.113 425.523 341.098 425 341.082 424.477V416.367H344.352V433.5ZM353.797 420.152C355.008 420.152 356.051 420.387 356.926 420.855C357.801 421.316 358.477 421.988 358.953 422.871C359.43 423.754 359.668 424.832 359.668 426.105V427.84H351.219C351.258 428.848 351.559 429.641 352.121 430.219C352.691 430.789 353.48 431.074 354.488 431.074C355.324 431.074 356.09 430.988 356.785 430.816C357.48 430.645 358.195 430.387 358.93 430.043V432.809C358.281 433.129 357.602 433.363 356.891 433.512C356.188 433.66 355.332 433.734 354.324 433.734C353.012 433.734 351.848 433.492 350.832 433.008C349.824 432.523 349.031 431.785 348.453 430.793C347.883 429.801 347.598 428.551 347.598 427.043C347.598 425.512 347.855 424.238 348.371 423.223C348.895 422.199 349.621 421.434 350.551 420.926C351.48 420.41 352.562 420.152 353.797 420.152ZM353.82 422.695C353.125 422.695 352.547 422.918 352.086 423.363C351.633 423.809 351.371 424.508 351.301 425.461H356.316C356.309 424.93 356.211 424.457 356.023 424.043C355.844 423.629 355.57 423.301 355.203 423.059C354.844 422.816 354.383 422.695 353.82 422.695ZM365.258 426.809L361.039 420.398H365.094L367.637 424.57L370.203 420.398H374.258L369.992 426.809L374.457 433.5H370.391L367.637 429.012L364.871 433.5H360.816L365.258 426.809ZM381.969 430.887C382.359 430.887 382.738 430.848 383.105 430.77C383.48 430.691 383.852 430.594 384.219 430.477V433.137C383.836 433.309 383.359 433.449 382.789 433.559C382.227 433.676 381.609 433.734 380.938 433.734C380.156 433.734 379.453 433.609 378.828 433.359C378.211 433.102 377.723 432.66 377.363 432.035C377.012 431.402 376.836 430.523 376.836 429.398V423.082H375.125V421.57L377.094 420.375L378.125 417.609H380.41V420.398H384.078V423.082H380.41V429.398C380.41 429.898 380.551 430.273 380.832 430.523C381.121 430.766 381.5 430.887 381.969 430.887Z" fill="white"/>
</g>
<rect opacity="0.6" width="480" height="480" fill="black" fill-opacity="0.5"/>
<g filter="url(#filter5_d_3926_12762)">
<rect x="32" y="74" width="416" height="332" rx="12" fill="white"/>
<rect x="32.5" y="74.5" width="415" height="331" rx="11.5" stroke="#D1D1D1"/>
<path d="M240 170C248.487 170 256.626 166.629 262.627 160.627C268.629 154.626 272 146.487 272 138C272 129.513 268.629 121.374 262.627 115.373C256.626 109.371 248.487 106 240 106C231.513 106 223.374 109.371 217.373 115.373C211.371 121.374 208 129.513 208 138C208 146.487 211.371 154.626 217.373 160.627C223.374 166.629 231.513 170 240 170ZM254.125 132.125L238.125 148.125C236.95 149.3 235.05 149.3 233.888 148.125L225.888 140.125C224.713 138.95 224.713 137.05 225.888 135.888C227.062 134.725 228.962 134.713 230.125 135.888L236 141.763L249.875 127.875C251.05 126.7 252.95 126.7 254.112 127.875C255.275 129.05 255.287 130.95 254.112 132.112L254.125 132.125Z" fill="#218448"/>
<path d="M181.184 212.012C182.906 212.012 184.328 212.221 185.449 212.641C186.579 213.06 187.418 213.698 187.965 214.555C188.521 215.411 188.799 216.501 188.799 217.822C188.799 218.807 188.617 219.645 188.252 220.338C187.887 221.031 187.409 221.605 186.816 222.061C186.224 222.516 185.59 222.881 184.916 223.154L190.59 232H186.885L182.059 223.988H178.846V232H175.564V212.012H181.184ZM180.965 214.746H178.846V221.281H181.115C182.637 221.281 183.74 220.999 184.424 220.434C185.117 219.868 185.463 219.035 185.463 217.932C185.463 216.774 185.094 215.954 184.355 215.471C183.626 214.988 182.496 214.746 180.965 214.746ZM206.518 224.398C206.518 225.656 206.354 226.773 206.025 227.748C205.697 228.723 205.219 229.548 204.59 230.223C203.961 230.888 203.204 231.398 202.32 231.754C201.436 232.1 200.438 232.273 199.326 232.273C198.287 232.273 197.335 232.1 196.469 231.754C195.603 231.398 194.851 230.888 194.213 230.223C193.584 229.548 193.096 228.723 192.75 227.748C192.404 226.773 192.23 225.656 192.23 224.398C192.23 222.73 192.518 221.318 193.092 220.16C193.675 218.993 194.505 218.105 195.58 217.494C196.656 216.883 197.936 216.578 199.422 216.578C200.816 216.578 202.047 216.883 203.113 217.494C204.18 218.105 205.014 218.993 205.615 220.16C206.217 221.327 206.518 222.74 206.518 224.398ZM195.539 224.398C195.539 225.501 195.671 226.445 195.936 227.229C196.209 228.012 196.628 228.614 197.193 229.033C197.758 229.443 198.488 229.648 199.381 229.648C200.274 229.648 201.003 229.443 201.568 229.033C202.133 228.614 202.548 228.012 202.812 227.229C203.077 226.445 203.209 225.501 203.209 224.398C203.209 223.296 203.077 222.361 202.812 221.596C202.548 220.821 202.133 220.233 201.568 219.832C201.003 219.422 200.27 219.217 199.367 219.217C198.036 219.217 197.066 219.663 196.455 220.557C195.844 221.45 195.539 222.73 195.539 224.398ZM223.607 224.398C223.607 225.656 223.443 226.773 223.115 227.748C222.787 228.723 222.309 229.548 221.68 230.223C221.051 230.888 220.294 231.398 219.41 231.754C218.526 232.1 217.528 232.273 216.416 232.273C215.377 232.273 214.424 232.1 213.559 231.754C212.693 231.398 211.941 230.888 211.303 230.223C210.674 229.548 210.186 228.723 209.84 227.748C209.493 226.773 209.32 225.656 209.32 224.398C209.32 222.73 209.607 221.318 210.182 220.16C210.765 218.993 211.594 218.105 212.67 217.494C213.745 216.883 215.026 216.578 216.512 216.578C217.906 216.578 219.137 216.883 220.203 217.494C221.27 218.105 222.104 218.993 222.705 220.16C223.307 221.327 223.607 222.74 223.607 224.398ZM212.629 224.398C212.629 225.501 212.761 226.445 213.025 227.229C213.299 228.012 213.718 228.614 214.283 229.033C214.848 229.443 215.577 229.648 216.471 229.648C217.364 229.648 218.093 229.443 218.658 229.033C219.223 228.614 219.638 228.012 219.902 227.229C220.167 226.445 220.299 225.501 220.299 224.398C220.299 223.296 220.167 222.361 219.902 221.596C219.638 220.821 219.223 220.233 218.658 219.832C218.093 219.422 217.359 219.217 216.457 219.217C215.126 219.217 214.156 219.663 213.545 220.557C212.934 221.45 212.629 222.73 212.629 224.398ZM244.402 216.578C246.098 216.578 247.374 217.016 248.23 217.891C249.096 218.766 249.529 220.169 249.529 222.102V232H246.316V222.676C246.316 221.527 246.093 220.661 245.646 220.078C245.2 219.495 244.521 219.203 243.609 219.203C242.333 219.203 241.413 219.613 240.848 220.434C240.292 221.245 240.014 222.425 240.014 223.975V232H236.801V222.676C236.801 221.91 236.701 221.272 236.5 220.762C236.309 220.242 236.012 219.855 235.611 219.6C235.21 219.335 234.704 219.203 234.094 219.203C233.21 219.203 232.503 219.404 231.975 219.805C231.455 220.206 231.081 220.798 230.854 221.582C230.626 222.357 230.512 223.309 230.512 224.439V232H227.299V216.865H229.801L230.252 218.902H230.43C230.74 218.374 231.122 217.941 231.578 217.604C232.043 217.257 232.558 217.002 233.123 216.838C233.688 216.665 234.276 216.578 234.887 216.578C236.017 216.578 236.969 216.779 237.744 217.18C238.519 217.572 239.098 218.173 239.48 218.984H239.727C240.201 218.164 240.861 217.558 241.709 217.166C242.557 216.774 243.454 216.578 244.402 216.578ZM274.508 227.611H271.801V232H268.629V227.611H259.537V225.178L268.67 211.957H271.801V224.945H274.508V227.611ZM268.629 224.945V219.982C268.629 219.572 268.633 219.158 268.643 218.738C268.661 218.31 268.679 217.9 268.697 217.508C268.715 217.116 268.734 216.756 268.752 216.428C268.77 216.09 268.784 215.812 268.793 215.594H268.684C268.51 215.958 268.319 216.332 268.109 216.715C267.9 217.089 267.676 217.453 267.439 217.809L262.518 224.945H268.629ZM283.066 219.504C284.352 219.504 285.482 219.736 286.457 220.201C287.441 220.657 288.207 221.331 288.754 222.225C289.301 223.109 289.574 224.193 289.574 225.479C289.574 226.882 289.278 228.094 288.686 229.115C288.093 230.127 287.223 230.906 286.074 231.453C284.926 232 283.527 232.273 281.877 232.273C280.829 232.273 279.849 232.182 278.938 232C278.035 231.818 277.256 231.544 276.6 231.18V228.281C277.283 228.664 278.104 228.979 279.061 229.225C280.018 229.462 280.934 229.58 281.809 229.58C282.738 229.58 283.536 229.443 284.201 229.17C284.867 228.896 285.377 228.477 285.732 227.912C286.097 227.347 286.279 226.632 286.279 225.766C286.279 224.617 285.91 223.733 285.172 223.113C284.443 222.484 283.299 222.17 281.74 222.17C281.193 222.17 280.61 222.22 279.99 222.32C279.38 222.411 278.869 222.512 278.459 222.621L277.051 221.787L277.803 212.012H288.193V214.842H280.633L280.195 219.818C280.523 219.745 280.915 219.677 281.371 219.613C281.827 219.54 282.392 219.504 283.066 219.504ZM299.09 219.504C300.375 219.504 301.505 219.736 302.48 220.201C303.465 220.657 304.23 221.331 304.777 222.225C305.324 223.109 305.598 224.193 305.598 225.479C305.598 226.882 305.301 228.094 304.709 229.115C304.117 230.127 303.246 230.906 302.098 231.453C300.949 232 299.55 232.273 297.9 232.273C296.852 232.273 295.872 232.182 294.961 232C294.059 231.818 293.279 231.544 292.623 231.18V228.281C293.307 228.664 294.127 228.979 295.084 229.225C296.041 229.462 296.957 229.58 297.832 229.58C298.762 229.58 299.559 229.443 300.225 229.17C300.89 228.896 301.4 228.477 301.756 227.912C302.12 227.347 302.303 226.632 302.303 225.766C302.303 224.617 301.934 223.733 301.195 223.113C300.466 222.484 299.322 222.17 297.764 222.17C297.217 222.17 296.633 222.22 296.014 222.32C295.403 222.411 294.893 222.512 294.482 222.621L293.074 221.787L293.826 212.012H304.217V214.842H296.656L296.219 219.818C296.547 219.745 296.939 219.677 297.395 219.613C297.85 219.54 298.415 219.504 299.09 219.504ZM105.742 270L103.787 264.449H96.1445L94.1895 270H90.7305L98.168 249.93H101.805L109.229 270H105.742ZM102.939 261.633L101.039 256.164C100.966 255.927 100.861 255.594 100.725 255.166C100.588 254.729 100.451 254.286 100.314 253.84C100.178 253.384 100.064 253.001 99.9727 252.691C99.8815 253.065 99.7676 253.484 99.6309 253.949C99.5033 254.405 99.3757 254.833 99.248 255.234C99.1296 255.635 99.0384 255.945 98.9746 256.164L97.0605 261.633H102.939ZM121.711 265.68C121.711 266.673 121.469 267.512 120.986 268.195C120.503 268.879 119.797 269.398 118.867 269.754C117.947 270.1 116.816 270.273 115.477 270.273C114.419 270.273 113.508 270.196 112.742 270.041C111.986 269.895 111.27 269.667 110.596 269.357V266.582C111.316 266.919 112.122 267.211 113.016 267.457C113.918 267.703 114.77 267.826 115.572 267.826C116.63 267.826 117.391 267.662 117.855 267.334C118.32 266.997 118.553 266.55 118.553 265.994C118.553 265.666 118.457 265.374 118.266 265.119C118.083 264.855 117.737 264.586 117.227 264.312C116.725 264.03 115.987 263.693 115.012 263.301C114.055 262.918 113.248 262.535 112.592 262.152C111.936 261.77 111.439 261.309 111.102 260.771C110.764 260.225 110.596 259.527 110.596 258.68C110.596 257.34 111.124 256.324 112.182 255.631C113.248 254.929 114.656 254.578 116.406 254.578C117.336 254.578 118.211 254.674 119.031 254.865C119.861 255.048 120.672 255.316 121.465 255.672L120.453 258.092C119.77 257.791 119.081 257.545 118.389 257.354C117.705 257.153 117.008 257.053 116.297 257.053C115.467 257.053 114.834 257.18 114.396 257.436C113.968 257.691 113.754 258.055 113.754 258.529C113.754 258.885 113.859 259.186 114.068 259.432C114.278 259.678 114.638 259.924 115.148 260.17C115.668 260.416 116.388 260.721 117.309 261.086C118.211 261.432 118.99 261.797 119.646 262.18C120.312 262.553 120.822 263.014 121.178 263.561C121.533 264.107 121.711 264.814 121.711 265.68ZM135.355 265.68C135.355 266.673 135.114 267.512 134.631 268.195C134.148 268.879 133.441 269.398 132.512 269.754C131.591 270.1 130.461 270.273 129.121 270.273C128.064 270.273 127.152 270.196 126.387 270.041C125.63 269.895 124.915 269.667 124.24 269.357V266.582C124.96 266.919 125.767 267.211 126.66 267.457C127.562 267.703 128.415 267.826 129.217 267.826C130.274 267.826 131.035 267.662 131.5 267.334C131.965 266.997 132.197 266.55 132.197 265.994C132.197 265.666 132.102 265.374 131.91 265.119C131.728 264.855 131.382 264.586 130.871 264.312C130.37 264.03 129.632 263.693 128.656 263.301C127.699 262.918 126.893 262.535 126.236 262.152C125.58 261.77 125.083 261.309 124.746 260.771C124.409 260.225 124.24 259.527 124.24 258.68C124.24 257.34 124.769 256.324 125.826 255.631C126.893 254.929 128.301 254.578 130.051 254.578C130.98 254.578 131.855 254.674 132.676 254.865C133.505 255.048 134.316 255.316 135.109 255.672L134.098 258.092C133.414 257.791 132.726 257.545 132.033 257.354C131.35 257.153 130.652 257.053 129.941 257.053C129.112 257.053 128.479 257.18 128.041 257.436C127.613 257.691 127.398 258.055 127.398 258.529C127.398 258.885 127.503 259.186 127.713 259.432C127.923 259.678 128.283 259.924 128.793 260.17C129.312 260.416 130.033 260.721 130.953 261.086C131.855 261.432 132.635 261.797 133.291 262.18C133.956 262.553 134.467 263.014 134.822 263.561C135.178 264.107 135.355 264.814 135.355 265.68ZM142.041 254.865V270H138.828V254.865H142.041ZM140.455 249.068C140.947 249.068 141.371 249.201 141.727 249.465C142.091 249.729 142.273 250.185 142.273 250.832C142.273 251.47 142.091 251.926 141.727 252.199C141.371 252.464 140.947 252.596 140.455 252.596C139.945 252.596 139.512 252.464 139.156 252.199C138.81 251.926 138.637 251.47 138.637 250.832C138.637 250.185 138.81 249.729 139.156 249.465C139.512 249.201 139.945 249.068 140.455 249.068ZM150.969 276.727C148.918 276.727 147.346 276.357 146.252 275.619C145.158 274.881 144.611 273.846 144.611 272.516C144.611 271.586 144.903 270.798 145.486 270.15C146.07 269.512 146.904 269.07 147.988 268.824C147.578 268.642 147.223 268.359 146.922 267.977C146.63 267.585 146.484 267.152 146.484 266.678C146.484 266.113 146.644 265.63 146.963 265.229C147.282 264.827 147.76 264.44 148.398 264.066C147.605 263.729 146.967 263.182 146.484 262.426C146.01 261.66 145.773 260.762 145.773 259.732C145.773 258.639 146.006 257.709 146.471 256.943C146.936 256.169 147.615 255.581 148.508 255.18C149.401 254.77 150.481 254.564 151.748 254.564C152.021 254.564 152.318 254.583 152.637 254.619C152.965 254.646 153.266 254.683 153.539 254.729C153.822 254.765 154.036 254.806 154.182 254.852H159.418V256.643L156.848 257.121C157.094 257.467 157.29 257.864 157.436 258.311C157.581 258.748 157.654 259.227 157.654 259.746C157.654 261.314 157.112 262.549 156.027 263.451C154.952 264.344 153.466 264.791 151.57 264.791C151.115 264.773 150.673 264.736 150.244 264.682C149.916 264.882 149.665 265.105 149.492 265.352C149.319 265.589 149.232 265.857 149.232 266.158C149.232 266.404 149.319 266.605 149.492 266.76C149.665 266.906 149.921 267.015 150.258 267.088C150.604 267.161 151.023 267.197 151.516 267.197H154.127C155.786 267.197 157.053 267.548 157.928 268.25C158.803 268.952 159.24 269.982 159.24 271.34C159.24 273.062 158.529 274.389 157.107 275.318C155.686 276.257 153.639 276.727 150.969 276.727ZM151.092 274.471C152.213 274.471 153.156 274.361 153.922 274.143C154.688 273.924 155.266 273.609 155.658 273.199C156.05 272.798 156.246 272.32 156.246 271.764C156.246 271.271 156.123 270.893 155.877 270.629C155.631 270.365 155.262 270.182 154.77 270.082C154.277 269.982 153.667 269.932 152.938 269.932H150.559C149.966 269.932 149.442 270.023 148.986 270.205C148.531 270.396 148.175 270.67 147.92 271.025C147.674 271.381 147.551 271.809 147.551 272.311C147.551 273.003 147.856 273.536 148.467 273.91C149.087 274.284 149.962 274.471 151.092 274.471ZM151.721 262.686C152.66 262.686 153.357 262.43 153.812 261.92C154.268 261.4 154.496 260.671 154.496 259.732C154.496 258.712 154.259 257.946 153.785 257.436C153.32 256.925 152.628 256.67 151.707 256.67C150.805 256.67 150.117 256.93 149.643 257.449C149.178 257.969 148.945 258.739 148.945 259.76C148.945 260.68 149.178 261.4 149.643 261.92C150.117 262.43 150.809 262.686 151.721 262.686ZM170.068 254.578C171.773 254.578 173.099 255.02 174.047 255.904C175.004 256.779 175.482 258.188 175.482 260.129V270H172.27V260.73C172.27 259.555 172.028 258.675 171.545 258.092C171.062 257.499 170.314 257.203 169.303 257.203C167.835 257.203 166.814 257.654 166.24 258.557C165.675 259.459 165.393 260.767 165.393 262.48V270H162.18V254.865H164.682L165.133 256.916H165.311C165.639 256.387 166.044 255.954 166.527 255.617C167.02 255.271 167.566 255.011 168.168 254.838C168.779 254.665 169.412 254.578 170.068 254.578ZM186.01 254.578C187.359 254.578 188.516 254.856 189.482 255.412C190.449 255.968 191.191 256.757 191.711 257.777C192.23 258.798 192.49 260.02 192.49 261.441V263.164H182.387C182.423 264.632 182.815 265.762 183.562 266.555C184.319 267.348 185.376 267.744 186.734 267.744C187.701 267.744 188.566 267.653 189.332 267.471C190.107 267.279 190.904 267.001 191.725 266.637V269.248C190.968 269.604 190.198 269.863 189.414 270.027C188.63 270.191 187.691 270.273 186.598 270.273C185.112 270.273 183.804 269.986 182.674 269.412C181.553 268.829 180.673 267.963 180.035 266.814C179.406 265.666 179.092 264.24 179.092 262.535C179.092 260.84 179.379 259.4 179.953 258.215C180.527 257.03 181.334 256.128 182.373 255.508C183.412 254.888 184.624 254.578 186.01 254.578ZM186.01 256.998C184.998 256.998 184.178 257.326 183.549 257.982C182.929 258.639 182.564 259.6 182.455 260.867H189.346C189.337 260.111 189.209 259.441 188.963 258.857C188.726 258.274 188.361 257.818 187.869 257.49C187.386 257.162 186.766 256.998 186.01 256.998ZM201.199 270.273C199.395 270.273 197.945 269.617 196.852 268.305C195.767 266.983 195.225 265.037 195.225 262.467C195.225 259.869 195.776 257.905 196.879 256.574C197.991 255.243 199.454 254.578 201.268 254.578C202.033 254.578 202.703 254.683 203.277 254.893C203.852 255.093 204.344 255.367 204.754 255.713C205.173 256.059 205.529 256.447 205.82 256.875H205.971C205.925 256.592 205.87 256.187 205.807 255.658C205.752 255.12 205.725 254.624 205.725 254.168V248.727H208.951V270H206.436L205.861 267.936H205.725C205.451 268.373 205.105 268.77 204.686 269.125C204.275 269.471 203.783 269.749 203.209 269.959C202.644 270.169 201.974 270.273 201.199 270.273ZM202.102 267.662C203.478 267.662 204.449 267.266 205.014 266.473C205.579 265.68 205.87 264.49 205.889 262.904V262.48C205.889 260.785 205.615 259.486 205.068 258.584C204.521 257.673 203.523 257.217 202.074 257.217C200.917 257.217 200.033 257.686 199.422 258.625C198.82 259.555 198.52 260.854 198.52 262.521C198.52 264.189 198.82 265.465 199.422 266.35C200.033 267.225 200.926 267.662 202.102 267.662ZM232.699 264.559C232.699 265.743 232.408 266.764 231.824 267.621C231.25 268.478 230.421 269.134 229.336 269.59C228.26 270.046 226.975 270.273 225.48 270.273C224.751 270.273 224.054 270.232 223.389 270.15C222.723 270.068 222.094 269.95 221.502 269.795C220.919 269.631 220.385 269.435 219.902 269.207V266.117C220.714 266.473 221.62 266.796 222.623 267.088C223.626 267.37 224.646 267.512 225.686 267.512C226.533 267.512 227.235 267.402 227.791 267.184C228.356 266.956 228.775 266.637 229.049 266.227C229.322 265.807 229.459 265.32 229.459 264.764C229.459 264.171 229.299 263.67 228.98 263.26C228.661 262.85 228.178 262.476 227.531 262.139C226.893 261.792 226.091 261.423 225.125 261.031C224.469 260.767 223.84 260.466 223.238 260.129C222.646 259.792 222.117 259.395 221.652 258.939C221.188 258.484 220.818 257.946 220.545 257.326C220.281 256.697 220.148 255.959 220.148 255.111C220.148 253.981 220.417 253.015 220.955 252.213C221.502 251.411 222.268 250.796 223.252 250.367C224.245 249.939 225.403 249.725 226.725 249.725C227.773 249.725 228.757 249.834 229.678 250.053C230.607 250.271 231.519 250.581 232.412 250.982L231.373 253.621C230.553 253.284 229.755 253.015 228.98 252.814C228.215 252.614 227.431 252.514 226.629 252.514C225.936 252.514 225.348 252.618 224.865 252.828C224.382 253.038 224.013 253.334 223.758 253.717C223.512 254.09 223.389 254.537 223.389 255.057C223.389 255.64 223.53 256.132 223.812 256.533C224.104 256.925 224.551 257.285 225.152 257.613C225.763 257.941 226.547 258.306 227.504 258.707C228.607 259.163 229.541 259.641 230.307 260.143C231.081 260.644 231.674 261.245 232.084 261.947C232.494 262.64 232.699 263.51 232.699 264.559ZM249.42 254.865V270H246.891L246.453 267.963H246.275C245.956 268.482 245.551 268.915 245.059 269.262C244.566 269.599 244.02 269.85 243.418 270.014C242.816 270.187 242.183 270.273 241.518 270.273C240.378 270.273 239.403 270.082 238.592 269.699C237.79 269.307 237.174 268.706 236.746 267.895C236.318 267.083 236.104 266.035 236.104 264.75V254.865H239.33V264.148C239.33 265.324 239.567 266.204 240.041 266.787C240.524 267.37 241.271 267.662 242.283 267.662C243.258 267.662 244.033 267.462 244.607 267.061C245.182 266.66 245.587 266.067 245.824 265.283C246.07 264.499 246.193 263.538 246.193 262.398V254.865H249.42ZM260.125 270.273C258.694 270.273 257.454 269.995 256.406 269.439C255.358 268.883 254.551 268.031 253.986 266.883C253.421 265.734 253.139 264.276 253.139 262.508C253.139 260.667 253.449 259.163 254.068 257.996C254.688 256.829 255.545 255.968 256.639 255.412C257.742 254.856 259.004 254.578 260.426 254.578C261.328 254.578 262.144 254.669 262.873 254.852C263.611 255.025 264.236 255.239 264.746 255.494L263.789 258.064C263.233 257.837 262.663 257.645 262.08 257.49C261.497 257.335 260.936 257.258 260.398 257.258C259.514 257.258 258.776 257.454 258.184 257.846C257.6 258.238 257.163 258.821 256.871 259.596C256.589 260.37 256.447 261.332 256.447 262.48C256.447 263.592 256.593 264.531 256.885 265.297C257.176 266.053 257.609 266.628 258.184 267.02C258.758 267.402 259.464 267.594 260.303 267.594C261.132 267.594 261.875 267.493 262.531 267.293C263.188 267.092 263.807 266.833 264.391 266.514V269.303C263.816 269.631 263.201 269.872 262.545 270.027C261.889 270.191 261.082 270.273 260.125 270.273ZM274.043 270.273C272.612 270.273 271.372 269.995 270.324 269.439C269.276 268.883 268.469 268.031 267.904 266.883C267.339 265.734 267.057 264.276 267.057 262.508C267.057 260.667 267.367 259.163 267.986 257.996C268.606 256.829 269.463 255.968 270.557 255.412C271.66 254.856 272.922 254.578 274.344 254.578C275.246 254.578 276.062 254.669 276.791 254.852C277.529 255.025 278.154 255.239 278.664 255.494L277.707 258.064C277.151 257.837 276.581 257.645 275.998 257.49C275.415 257.335 274.854 257.258 274.316 257.258C273.432 257.258 272.694 257.454 272.102 257.846C271.518 258.238 271.081 258.821 270.789 259.596C270.507 260.37 270.365 261.332 270.365 262.48C270.365 263.592 270.511 264.531 270.803 265.297C271.094 266.053 271.527 266.628 272.102 267.02C272.676 267.402 273.382 267.594 274.221 267.594C275.05 267.594 275.793 267.493 276.449 267.293C277.105 267.092 277.725 266.833 278.309 266.514V269.303C277.734 269.631 277.119 269.872 276.463 270.027C275.807 270.191 275 270.273 274.043 270.273ZM287.893 254.578C289.242 254.578 290.399 254.856 291.365 255.412C292.331 255.968 293.074 256.757 293.594 257.777C294.113 258.798 294.373 260.02 294.373 261.441V263.164H284.27C284.306 264.632 284.698 265.762 285.445 266.555C286.202 267.348 287.259 267.744 288.617 267.744C289.583 267.744 290.449 267.653 291.215 267.471C291.99 267.279 292.787 267.001 293.607 266.637V269.248C292.851 269.604 292.081 269.863 291.297 270.027C290.513 270.191 289.574 270.273 288.48 270.273C286.995 270.273 285.687 269.986 284.557 269.412C283.436 268.829 282.556 267.963 281.918 266.814C281.289 265.666 280.975 264.24 280.975 262.535C280.975 260.84 281.262 259.4 281.836 258.215C282.41 257.03 283.217 256.128 284.256 255.508C285.295 254.888 286.507 254.578 287.893 254.578ZM287.893 256.998C286.881 256.998 286.061 257.326 285.432 257.982C284.812 258.639 284.447 259.6 284.338 260.867H291.229C291.219 260.111 291.092 259.441 290.846 258.857C290.609 258.274 290.244 257.818 289.752 257.49C289.269 257.162 288.649 256.998 287.893 256.998ZM308.168 265.68C308.168 266.673 307.926 267.512 307.443 268.195C306.96 268.879 306.254 269.398 305.324 269.754C304.404 270.1 303.273 270.273 301.934 270.273C300.876 270.273 299.965 270.196 299.199 270.041C298.443 269.895 297.727 269.667 297.053 269.357V266.582C297.773 266.919 298.579 267.211 299.473 267.457C300.375 267.703 301.227 267.826 302.029 267.826C303.087 267.826 303.848 267.662 304.312 267.334C304.777 266.997 305.01 266.55 305.01 265.994C305.01 265.666 304.914 265.374 304.723 265.119C304.54 264.855 304.194 264.586 303.684 264.312C303.182 264.03 302.444 263.693 301.469 263.301C300.512 262.918 299.705 262.535 299.049 262.152C298.393 261.77 297.896 261.309 297.559 260.771C297.221 260.225 297.053 259.527 297.053 258.68C297.053 257.34 297.581 256.324 298.639 255.631C299.705 254.929 301.113 254.578 302.863 254.578C303.793 254.578 304.668 254.674 305.488 254.865C306.318 255.048 307.129 255.316 307.922 255.672L306.91 258.092C306.227 257.791 305.538 257.545 304.846 257.354C304.162 257.153 303.465 257.053 302.754 257.053C301.924 257.053 301.291 257.18 300.854 257.436C300.425 257.691 300.211 258.055 300.211 258.529C300.211 258.885 300.316 259.186 300.525 259.432C300.735 259.678 301.095 259.924 301.605 260.17C302.125 260.416 302.845 260.721 303.766 261.086C304.668 261.432 305.447 261.797 306.104 262.18C306.769 262.553 307.279 263.014 307.635 263.561C307.99 264.107 308.168 264.814 308.168 265.68ZM321.812 265.68C321.812 266.673 321.571 267.512 321.088 268.195C320.605 268.879 319.898 269.398 318.969 269.754C318.048 270.1 316.918 270.273 315.578 270.273C314.521 270.273 313.609 270.196 312.844 270.041C312.087 269.895 311.372 269.667 310.697 269.357V266.582C311.417 266.919 312.224 267.211 313.117 267.457C314.02 267.703 314.872 267.826 315.674 267.826C316.731 267.826 317.492 267.662 317.957 267.334C318.422 266.997 318.654 266.55 318.654 265.994C318.654 265.666 318.559 265.374 318.367 265.119C318.185 264.855 317.839 264.586 317.328 264.312C316.827 264.03 316.089 263.693 315.113 263.301C314.156 262.918 313.35 262.535 312.693 262.152C312.037 261.77 311.54 261.309 311.203 260.771C310.866 260.225 310.697 259.527 310.697 258.68C310.697 257.34 311.226 256.324 312.283 255.631C313.35 254.929 314.758 254.578 316.508 254.578C317.438 254.578 318.312 254.674 319.133 254.865C319.962 255.048 320.773 255.316 321.566 255.672L320.555 258.092C319.871 257.791 319.183 257.545 318.49 257.354C317.807 257.153 317.109 257.053 316.398 257.053C315.569 257.053 314.936 257.18 314.498 257.436C314.07 257.691 313.855 258.055 313.855 258.529C313.855 258.885 313.96 259.186 314.17 259.432C314.38 259.678 314.74 259.924 315.25 260.17C315.77 260.416 316.49 260.721 317.41 261.086C318.312 261.432 319.092 261.797 319.748 262.18C320.413 262.553 320.924 263.014 321.279 263.561C321.635 264.107 321.812 264.814 321.812 265.68ZM332.846 257.312H329.168V270H325.955V257.312H323.48V255.768L325.955 254.824V253.771C325.955 252.486 326.156 251.465 326.557 250.709C326.967 249.952 327.55 249.41 328.307 249.082C329.072 248.745 329.984 248.576 331.041 248.576C331.734 248.576 332.367 248.635 332.941 248.754C333.516 248.863 333.999 248.991 334.391 249.137L333.557 251.57C333.247 251.47 332.9 251.379 332.518 251.297C332.135 251.206 331.725 251.16 331.287 251.16C330.558 251.16 330.02 251.388 329.674 251.844C329.337 252.299 329.168 252.965 329.168 253.84V254.865H332.846V257.312ZM348.623 254.865V270H346.094L345.656 267.963H345.479C345.16 268.482 344.754 268.915 344.262 269.262C343.77 269.599 343.223 269.85 342.621 270.014C342.02 270.187 341.386 270.273 340.721 270.273C339.581 270.273 338.606 270.082 337.795 269.699C336.993 269.307 336.378 268.706 335.949 267.895C335.521 267.083 335.307 266.035 335.307 264.75V254.865H338.533V264.148C338.533 265.324 338.77 266.204 339.244 266.787C339.727 267.37 340.475 267.662 341.486 267.662C342.462 267.662 343.236 267.462 343.811 267.061C344.385 266.66 344.79 266.067 345.027 265.283C345.273 264.499 345.396 263.538 345.396 262.398V254.865H348.623ZM356.457 270H353.23V248.727H356.457V270ZM364.277 270H361.051V248.727H364.277V270ZM366.588 254.865H370.088L373.191 263.506C373.328 263.898 373.451 264.285 373.561 264.668C373.679 265.042 373.779 265.411 373.861 265.775C373.952 266.14 374.025 266.505 374.08 266.869H374.162C374.253 266.395 374.381 265.867 374.545 265.283C374.718 264.691 374.91 264.098 375.119 263.506L378.1 254.865H381.559L375.064 272.078C374.691 273.062 374.23 273.901 373.684 274.594C373.146 275.296 372.508 275.824 371.77 276.18C371.031 276.544 370.188 276.727 369.24 276.727C368.785 276.727 368.388 276.699 368.051 276.645C367.714 276.599 367.426 276.549 367.189 276.494V273.924C367.381 273.969 367.622 274.01 367.914 274.047C368.206 274.083 368.507 274.102 368.816 274.102C369.391 274.102 369.887 273.988 370.307 273.76C370.726 273.532 371.081 273.208 371.373 272.789C371.665 272.379 371.906 271.91 372.098 271.381L372.631 269.959L366.588 254.865ZM386.631 263.902H384.211L383.555 250.012H387.287L386.631 263.902ZM383.391 268.305C383.391 267.557 383.582 267.033 383.965 266.732C384.357 266.423 384.835 266.268 385.4 266.268C385.956 266.268 386.43 266.423 386.822 266.732C387.214 267.033 387.41 267.557 387.41 268.305C387.41 269.034 387.214 269.562 386.822 269.891C386.43 270.21 385.956 270.369 385.4 270.369C384.835 270.369 384.357 270.21 383.965 269.891C383.582 269.562 383.391 269.034 383.391 268.305Z" fill="#31344E"/>
<g filter="url(#filter6_d_3926_12762)">
<rect x="64" y="310" width="168" height="64" rx="5" fill="white" shape-rendering="crispEdges"/>
<rect x="65.5" y="311.5" width="165" height="61" rx="3.5" stroke="#1A1040" stroke-width="3" shape-rendering="crispEdges"/>
<path d="M102.613 334.367C104.168 334.367 105.449 334.555 106.457 334.93C107.473 335.305 108.227 335.871 108.719 336.629C109.211 337.387 109.457 338.344 109.457 339.5C109.457 340.281 109.309 340.965 109.012 341.551C108.715 342.137 108.324 342.633 107.84 343.039C107.355 343.445 106.832 343.777 106.27 344.035L111.309 351.5H107.277L103.188 344.926H101.254V351.5H97.6211V334.367H102.613ZM102.355 337.344H101.254V341.973H102.426C103.629 341.973 104.488 341.773 105.004 341.375C105.527 340.969 105.789 340.375 105.789 339.594C105.789 338.781 105.508 338.203 104.945 337.859C104.391 337.516 103.527 337.344 102.355 337.344ZM118.586 338.152C119.797 338.152 120.84 338.387 121.715 338.855C122.59 339.316 123.266 339.988 123.742 340.871C124.219 341.754 124.457 342.832 124.457 344.105V345.84H116.008C116.047 346.848 116.348 347.641 116.91 348.219C117.48 348.789 118.27 349.074 119.277 349.074C120.113 349.074 120.879 348.988 121.574 348.816C122.27 348.645 122.984 348.387 123.719 348.043V350.809C123.07 351.129 122.391 351.363 121.68 351.512C120.977 351.66 120.121 351.734 119.113 351.734C117.801 351.734 116.637 351.492 115.621 351.008C114.613 350.523 113.82 349.785 113.242 348.793C112.672 347.801 112.387 346.551 112.387 345.043C112.387 343.512 112.645 342.238 113.16 341.223C113.684 340.199 114.41 339.434 115.34 338.926C116.27 338.41 117.352 338.152 118.586 338.152ZM118.609 340.695C117.914 340.695 117.336 340.918 116.875 341.363C116.422 341.809 116.16 342.508 116.09 343.461H121.105C121.098 342.93 121 342.457 120.812 342.043C120.633 341.629 120.359 341.301 119.992 341.059C119.633 340.816 119.172 340.695 118.609 340.695ZM132.73 338.129C134.488 338.129 135.836 338.512 136.773 339.277C137.711 340.043 138.18 341.207 138.18 342.77V351.5H135.684L134.992 349.719H134.898C134.523 350.188 134.141 350.57 133.75 350.867C133.359 351.164 132.91 351.383 132.402 351.523C131.895 351.664 131.277 351.734 130.551 351.734C129.777 351.734 129.082 351.586 128.465 351.289C127.855 350.992 127.375 350.539 127.023 349.93C126.672 349.312 126.496 348.531 126.496 347.586C126.496 346.195 126.984 345.172 127.961 344.516C128.938 343.852 130.402 343.484 132.355 343.414L134.629 343.344V342.77C134.629 342.082 134.449 341.578 134.09 341.258C133.73 340.938 133.23 340.777 132.59 340.777C131.957 340.777 131.336 340.867 130.727 341.047C130.117 341.227 129.508 341.453 128.898 341.727L127.715 339.312C128.41 338.945 129.188 338.656 130.047 338.445C130.914 338.234 131.809 338.129 132.73 338.129ZM134.629 345.43L133.246 345.477C132.09 345.508 131.285 345.715 130.832 346.098C130.387 346.48 130.164 346.984 130.164 347.609C130.164 348.156 130.324 348.547 130.645 348.781C130.965 349.008 131.383 349.121 131.898 349.121C132.664 349.121 133.309 348.895 133.832 348.441C134.363 347.988 134.629 347.344 134.629 346.508V345.43ZM151.012 347.609C151.012 348.5 150.801 349.254 150.379 349.871C149.965 350.48 149.344 350.945 148.516 351.266C147.688 351.578 146.656 351.734 145.422 351.734C144.508 351.734 143.723 351.676 143.066 351.559C142.418 351.441 141.762 351.246 141.098 350.973V348.02C141.809 348.34 142.57 348.605 143.383 348.816C144.203 349.02 144.922 349.121 145.539 349.121C146.234 349.121 146.73 349.02 147.027 348.816C147.332 348.605 147.484 348.332 147.484 347.996C147.484 347.777 147.422 347.582 147.297 347.41C147.18 347.23 146.922 347.031 146.523 346.812C146.125 346.586 145.5 346.293 144.648 345.934C143.828 345.59 143.152 345.242 142.621 344.891C142.098 344.539 141.707 344.125 141.449 343.648C141.199 343.164 141.074 342.551 141.074 341.809C141.074 340.598 141.543 339.688 142.48 339.078C143.426 338.461 144.688 338.152 146.266 338.152C147.078 338.152 147.852 338.234 148.586 338.398C149.328 338.562 150.09 338.824 150.871 339.184L149.793 341.762C149.145 341.48 148.531 341.25 147.953 341.07C147.383 340.891 146.801 340.801 146.207 340.801C145.684 340.801 145.289 340.871 145.023 341.012C144.758 341.152 144.625 341.367 144.625 341.656C144.625 341.867 144.691 342.055 144.824 342.219C144.965 342.383 145.23 342.566 145.621 342.77C146.02 342.965 146.602 343.219 147.367 343.531C148.109 343.836 148.754 344.156 149.301 344.492C149.848 344.82 150.27 345.23 150.566 345.723C150.863 346.207 151.012 346.836 151.012 347.609ZM162.941 347.609C162.941 348.5 162.73 349.254 162.309 349.871C161.895 350.48 161.273 350.945 160.445 351.266C159.617 351.578 158.586 351.734 157.352 351.734C156.438 351.734 155.652 351.676 154.996 351.559C154.348 351.441 153.691 351.246 153.027 350.973V348.02C153.738 348.34 154.5 348.605 155.312 348.816C156.133 349.02 156.852 349.121 157.469 349.121C158.164 349.121 158.66 349.02 158.957 348.816C159.262 348.605 159.414 348.332 159.414 347.996C159.414 347.777 159.352 347.582 159.227 347.41C159.109 347.23 158.852 347.031 158.453 346.812C158.055 346.586 157.43 346.293 156.578 345.934C155.758 345.59 155.082 345.242 154.551 344.891C154.027 344.539 153.637 344.125 153.379 343.648C153.129 343.164 153.004 342.551 153.004 341.809C153.004 340.598 153.473 339.688 154.41 339.078C155.355 338.461 156.617 338.152 158.195 338.152C159.008 338.152 159.781 338.234 160.516 338.398C161.258 338.562 162.02 338.824 162.801 339.184L161.723 341.762C161.074 341.48 160.461 341.25 159.883 341.07C159.312 340.891 158.73 340.801 158.137 340.801C157.613 340.801 157.219 340.871 156.953 341.012C156.688 341.152 156.555 341.367 156.555 341.656C156.555 341.867 156.621 342.055 156.754 342.219C156.895 342.383 157.16 342.566 157.551 342.77C157.949 342.965 158.531 343.219 159.297 343.531C160.039 343.836 160.684 344.156 161.23 344.492C161.777 344.82 162.199 345.23 162.496 345.723C162.793 346.207 162.941 346.836 162.941 347.609ZM169.305 338.398V351.5H165.73V338.398H169.305ZM167.523 333.266C168.055 333.266 168.512 333.391 168.895 333.641C169.277 333.883 169.469 334.34 169.469 335.012C169.469 335.676 169.277 336.137 168.895 336.395C168.512 336.645 168.055 336.77 167.523 336.77C166.984 336.77 166.523 336.645 166.141 336.395C165.766 336.137 165.578 335.676 165.578 335.012C165.578 334.34 165.766 333.883 166.141 333.641C166.523 333.391 166.984 333.266 167.523 333.266ZM176.898 357.266C175.07 357.266 173.672 356.945 172.703 356.305C171.742 355.672 171.262 354.781 171.262 353.633C171.262 352.844 171.508 352.184 172 351.652C172.492 351.121 173.215 350.742 174.168 350.516C173.801 350.359 173.48 350.105 173.207 349.754C172.934 349.395 172.797 349.016 172.797 348.617C172.797 348.117 172.941 347.703 173.23 347.375C173.52 347.039 173.938 346.711 174.484 346.391C173.797 346.094 173.25 345.617 172.844 344.961C172.445 344.305 172.246 343.531 172.246 342.641C172.246 341.688 172.453 340.879 172.867 340.215C173.289 339.543 173.898 339.031 174.695 338.68C175.5 338.328 176.477 338.152 177.625 338.152C177.867 338.152 178.148 338.168 178.469 338.199C178.789 338.23 179.082 338.266 179.348 338.305C179.621 338.344 179.805 338.375 179.898 338.398H184.469V340.215L182.418 340.742C182.605 341.031 182.746 341.34 182.84 341.668C182.934 341.996 182.98 342.344 182.98 342.711C182.98 344.117 182.488 345.215 181.504 346.004C180.527 346.785 179.168 347.176 177.426 347.176C177.012 347.152 176.621 347.121 176.254 347.082C176.074 347.223 175.938 347.371 175.844 347.527C175.75 347.684 175.703 347.848 175.703 348.02C175.703 348.191 175.773 348.336 175.914 348.453C176.062 348.562 176.281 348.648 176.57 348.711C176.867 348.766 177.234 348.793 177.672 348.793H179.898C181.336 348.793 182.43 349.102 183.18 349.719C183.938 350.336 184.316 351.242 184.316 352.438C184.316 353.969 183.676 355.156 182.395 356C181.121 356.844 179.289 357.266 176.898 357.266ZM177.051 354.934C177.902 354.934 178.633 354.852 179.242 354.688C179.859 354.531 180.332 354.305 180.66 354.008C180.988 353.719 181.152 353.371 181.152 352.965C181.152 352.637 181.055 352.375 180.859 352.18C180.672 351.992 180.383 351.859 179.992 351.781C179.609 351.703 179.117 351.664 178.516 351.664H176.664C176.227 351.664 175.832 351.734 175.48 351.875C175.137 352.016 174.863 352.211 174.66 352.461C174.457 352.719 174.355 353.016 174.355 353.352C174.355 353.844 174.59 354.23 175.059 354.512C175.535 354.793 176.199 354.934 177.051 354.934ZM177.625 344.996C178.297 344.996 178.789 344.789 179.102 344.375C179.414 343.961 179.57 343.398 179.57 342.688C179.57 341.898 179.406 341.309 179.078 340.918C178.758 340.52 178.273 340.32 177.625 340.32C176.969 340.32 176.477 340.52 176.148 340.918C175.82 341.309 175.656 341.898 175.656 342.688C175.656 343.398 175.816 343.961 176.137 344.375C176.465 344.789 176.961 344.996 177.625 344.996ZM194.078 338.152C195.477 338.152 196.602 338.535 197.453 339.301C198.305 340.059 198.73 341.277 198.73 342.957V351.5H195.156V343.848C195.156 342.91 194.984 342.203 194.641 341.727C194.305 341.25 193.773 341.012 193.047 341.012C191.953 341.012 191.207 341.383 190.809 342.125C190.41 342.867 190.211 343.938 190.211 345.336V351.5H186.637V338.398H189.367L189.848 340.074H190.047C190.328 339.621 190.676 339.254 191.09 338.973C191.512 338.691 191.977 338.484 192.484 338.352C193 338.219 193.531 338.152 194.078 338.152Z" fill="#1A1040"/>
</g>
<g filter="url(#filter7_d_3926_12762)">
<rect x="248" y="310" width="168" height="64" rx="5" fill="#1A1040" shape-rendering="crispEdges"/>
<path d="M286.719 337.145C286.023 337.145 285.406 337.281 284.867 337.555C284.336 337.82 283.887 338.207 283.52 338.715C283.16 339.223 282.887 339.836 282.699 340.555C282.512 341.273 282.418 342.082 282.418 342.98C282.418 344.191 282.566 345.227 282.863 346.086C283.168 346.938 283.637 347.59 284.27 348.043C284.902 348.488 285.719 348.711 286.719 348.711C287.414 348.711 288.109 348.633 288.805 348.477C289.508 348.32 290.27 348.098 291.09 347.809V350.855C290.332 351.168 289.586 351.391 288.852 351.523C288.117 351.664 287.293 351.734 286.379 351.734C284.613 351.734 283.16 351.371 282.02 350.645C280.887 349.91 280.047 348.887 279.5 347.574C278.953 346.254 278.68 344.715 278.68 342.957C278.68 341.66 278.855 340.473 279.207 339.395C279.559 338.316 280.074 337.383 280.754 336.594C281.434 335.805 282.273 335.195 283.273 334.766C284.273 334.336 285.422 334.121 286.719 334.121C287.57 334.121 288.422 334.23 289.273 334.449C290.133 334.66 290.953 334.953 291.734 335.328L290.562 338.281C289.922 337.977 289.277 337.711 288.629 337.484C287.98 337.258 287.344 337.145 286.719 337.145ZM306.371 344.926C306.371 346.02 306.223 346.988 305.926 347.832C305.637 348.676 305.211 349.391 304.648 349.977C304.094 350.555 303.422 350.992 302.633 351.289C301.852 351.586 300.969 351.734 299.984 351.734C299.062 351.734 298.215 351.586 297.441 351.289C296.676 350.992 296.008 350.555 295.438 349.977C294.875 349.391 294.438 348.676 294.125 347.832C293.82 346.988 293.668 346.02 293.668 344.926C293.668 343.473 293.926 342.242 294.441 341.234C294.957 340.227 295.691 339.461 296.645 338.938C297.598 338.414 298.734 338.152 300.055 338.152C301.281 338.152 302.367 338.414 303.312 338.938C304.266 339.461 305.012 340.227 305.551 341.234C306.098 342.242 306.371 343.473 306.371 344.926ZM297.312 344.926C297.312 345.785 297.406 346.508 297.594 347.094C297.781 347.68 298.074 348.121 298.473 348.418C298.871 348.715 299.391 348.863 300.031 348.863C300.664 348.863 301.176 348.715 301.566 348.418C301.965 348.121 302.254 347.68 302.434 347.094C302.621 346.508 302.715 345.785 302.715 344.926C302.715 344.059 302.621 343.34 302.434 342.77C302.254 342.191 301.965 341.758 301.566 341.469C301.168 341.18 300.648 341.035 300.008 341.035C299.062 341.035 298.375 341.359 297.945 342.008C297.523 342.656 297.312 343.629 297.312 344.926ZM316.766 338.152C318.164 338.152 319.289 338.535 320.141 339.301C320.992 340.059 321.418 341.277 321.418 342.957V351.5H317.844V343.848C317.844 342.91 317.672 342.203 317.328 341.727C316.992 341.25 316.461 341.012 315.734 341.012C314.641 341.012 313.895 341.383 313.496 342.125C313.098 342.867 312.898 343.938 312.898 345.336V351.5H309.324V338.398H312.055L312.535 340.074H312.734C313.016 339.621 313.363 339.254 313.777 338.973C314.199 338.691 314.664 338.484 315.172 338.352C315.688 338.219 316.219 338.152 316.766 338.152ZM330.617 348.887C331.008 348.887 331.387 348.848 331.754 348.77C332.129 348.691 332.5 348.594 332.867 348.477V351.137C332.484 351.309 332.008 351.449 331.438 351.559C330.875 351.676 330.258 351.734 329.586 351.734C328.805 351.734 328.102 351.609 327.477 351.359C326.859 351.102 326.371 350.66 326.012 350.035C325.66 349.402 325.484 348.523 325.484 347.398V341.082H323.773V339.57L325.742 338.375L326.773 335.609H329.059V338.398H332.727V341.082H329.059V347.398C329.059 347.898 329.199 348.273 329.48 348.523C329.77 348.766 330.148 348.887 330.617 348.887ZM339.102 338.398V351.5H335.527V338.398H339.102ZM337.32 333.266C337.852 333.266 338.309 333.391 338.691 333.641C339.074 333.883 339.266 334.34 339.266 335.012C339.266 335.676 339.074 336.137 338.691 336.395C338.309 336.645 337.852 336.77 337.32 336.77C336.781 336.77 336.32 336.645 335.938 336.395C335.562 336.137 335.375 335.676 335.375 335.012C335.375 334.34 335.562 333.883 335.938 333.641C336.32 333.391 336.781 333.266 337.32 333.266ZM350.305 338.152C351.703 338.152 352.828 338.535 353.68 339.301C354.531 340.059 354.957 341.277 354.957 342.957V351.5H351.383V343.848C351.383 342.91 351.211 342.203 350.867 341.727C350.531 341.25 350 341.012 349.273 341.012C348.18 341.012 347.434 341.383 347.035 342.125C346.637 342.867 346.438 343.938 346.438 345.336V351.5H342.863V338.398H345.594L346.074 340.074H346.273C346.555 339.621 346.902 339.254 347.316 338.973C347.738 338.691 348.203 338.484 348.711 338.352C349.227 338.219 349.758 338.152 350.305 338.152ZM370.66 338.398V351.5H367.918L367.438 349.824H367.25C366.969 350.27 366.617 350.633 366.195 350.914C365.773 351.195 365.309 351.402 364.801 351.535C364.293 351.668 363.766 351.734 363.219 351.734C362.281 351.734 361.465 351.57 360.77 351.242C360.074 350.906 359.531 350.387 359.141 349.684C358.758 348.98 358.566 348.066 358.566 346.941V338.398H362.141V346.051C362.141 346.988 362.309 347.695 362.645 348.172C362.98 348.648 363.516 348.887 364.25 348.887C364.977 348.887 365.547 348.723 365.961 348.395C366.375 348.059 366.664 347.57 366.828 346.93C367 346.281 367.086 345.492 367.086 344.562V338.398H370.66ZM379.812 338.152C381.023 338.152 382.066 338.387 382.941 338.855C383.816 339.316 384.492 339.988 384.969 340.871C385.445 341.754 385.684 342.832 385.684 344.105V345.84H377.234C377.273 346.848 377.574 347.641 378.137 348.219C378.707 348.789 379.496 349.074 380.504 349.074C381.34 349.074 382.105 348.988 382.801 348.816C383.496 348.645 384.211 348.387 384.945 348.043V350.809C384.297 351.129 383.617 351.363 382.906 351.512C382.203 351.66 381.348 351.734 380.34 351.734C379.027 351.734 377.863 351.492 376.848 351.008C375.84 350.523 375.047 349.785 374.469 348.793C373.898 347.801 373.613 346.551 373.613 345.043C373.613 343.512 373.871 342.238 374.387 341.223C374.91 340.199 375.637 339.434 376.566 338.926C377.496 338.41 378.578 338.152 379.812 338.152ZM379.836 340.695C379.141 340.695 378.562 340.918 378.102 341.363C377.648 341.809 377.387 342.508 377.316 343.461H382.332C382.324 342.93 382.227 342.457 382.039 342.043C381.859 341.629 381.586 341.301 381.219 341.059C380.859 340.816 380.398 340.695 379.836 340.695Z" fill="white"/>
</g>
</g>
</g>
<defs>
<filter id="filter0_d_3926_12762" x="12" y="152" width="227" height="72" filterUnits="userSpaceOnUse" color-interpolation-filters="sRGB">
<feFlood flood-opacity="0" result="BackgroundImageFix"/>
<feColorMatrix in="SourceAlpha" type="matrix" values="0 0 0 0 0 0 0 0 0 0 0 0 0 0 0 0 0 0 127 0" result="hardAlpha"/>
<feOffset dy="2"/>
<feGaussianBlur stdDeviation="2"/>
<feComposite in2="hardAlpha" operator="out"/>
<feColorMatrix type="matrix" values="0 0 0 0 0 0 0 0 0 0 0 0 0 0 0 0 0 0 0.25 0"/>
<feBlend mode="normal" in2="BackgroundImageFix" result="effect1_dropShadow_3926_12762"/>
<feBlend mode="normal" in="SourceGraphic" in2="effect1_dropShadow_3926_12762" result="shape"/>
</filter>
<filter id="filter1_d_3926_12762" x="12" y="78" width="227" height="72" filterUnits="userSpaceOnUse" color-interpolation-filters="sRGB">
<feFlood flood-opacity="0" result="BackgroundImageFix"/>
<feColorMatrix in="SourceAlpha" type="matrix" values="0 0 0 0 0 0 0 0 0 0 0 0 0 0 0 0 0 0 127 0" result="hardAlpha"/>
<feOffset dy="2"/>
<feGaussianBlur stdDeviation="2"/>
<feComposite in2="hardAlpha" operator="out"/>
<feColorMatrix type="matrix" values="0 0 0 0 0 0 0 0 0 0 0 0 0 0 0 0 0 0 0.25 0"/>
<feBlend mode="normal" in2="BackgroundImageFix" result="effect1_dropShadow_3926_12762"/>
<feBlend mode="normal" in="SourceGraphic" in2="effect1_dropShadow_3926_12762" result="shape"/>
</filter>
<filter id="filter2_d_3926_12762" x="240" y="75" width="229" height="74" filterUnits="userSpaceOnUse" color-interpolation-filters="sRGB">
<feFlood flood-opacity="0" result="BackgroundImageFix"/>
<feColorMatrix in="SourceAlpha" type="matrix" values="0 0 0 0 0 0 0 0 0 0 0 0 0 0 0 0 0 0 127 0" result="hardAlpha"/>
<feMorphology radius="3" operator="dilate" in="SourceAlpha" result="effect1_dropShadow_3926_12762"/>
<feOffset/>
<feGaussianBlur stdDeviation="1"/>
<feColorMatrix type="matrix" values="0 0 0 0 0.454167 0 0 0 0 0.706867 0 0 0 0 1 0 0 0 0.5 0"/>
<feBlend mode="normal" in2="BackgroundImageFix" result="effect1_dropShadow_3926_12762"/>
<feBlend mode="normal" in="SourceGraphic" in2="effect1_dropShadow_3926_12762" result="shape"/>
</filter>
<filter id="filter3_d_3926_12762" x="12" y="382" width="224" height="88" filterUnits="userSpaceOnUse" color-interpolation-filters="sRGB">
<feFlood flood-opacity="0" result="BackgroundImageFix"/>
<feColorMatrix in="SourceAlpha" type="matrix" values="0 0 0 0 0 0 0 0 0 0 0 0 0 0 0 0 0 0 127 0" result="hardAlpha"/>
<feOffset dy="2"/>
<feGaussianBlur stdDeviation="2"/>
<feComposite in2="hardAlpha" operator="out"/>
<feColorMatrix type="matrix" values="0 0 0 0 0 0 0 0 0 0 0 0 0 0 0 0 0 0 0.25 0"/>
<feBlend mode="normal" in2="BackgroundImageFix" result="effect1_dropShadow_3926_12762"/>
<feBlend mode="normal" in="SourceGraphic" in2="effect1_dropShadow_3926_12762" result="shape"/>
</filter>
<filter id="filter4_d_3926_12762" x="244" y="382" width="224" height="88" filterUnits="userSpaceOnUse" color-interpolation-filters="sRGB">
<feFlood flood-opacity="0" result="BackgroundImageFix"/>
<feColorMatrix in="SourceAlpha" type="matrix" values="0 0 0 0 0 0 0 0 0 0 0 0 0 0 0 0 0 0 127 0" result="hardAlpha"/>
<feOffset dy="2"/>
<feGaussianBlur stdDeviation="2"/>
<feComposite in2="hardAlpha" operator="out"/>
<feColorMatrix type="matrix" values="0 0 0 0 0 0 0 0 0 0 0 0 0 0 0 0 0 0 0.25 0"/>
<feBlend mode="normal" in2="BackgroundImageFix" result="effect1_dropShadow_3926_12762"/>
<feBlend mode="normal" in="SourceGraphic" in2="effect1_dropShadow_3926_12762" result="shape"/>
</filter>
<filter id="filter5_d_3926_12762" x="30" y="74" width="424" height="340" filterUnits="userSpaceOnUse" color-interpolation-filters="sRGB">
<feFlood flood-opacity="0" result="BackgroundImageFix"/>
<feColorMatrix in="SourceAlpha" type="matrix" values="0 0 0 0 0 0 0 0 0 0 0 0 0 0 0 0 0 0 127 0" result="hardAlpha"/>
<feOffset dx="2" dy="4"/>
<feGaussianBlur stdDeviation="2"/>
<feComposite in2="hardAlpha" operator="out"/>
<feColorMatrix type="matrix" values="0 0 0 0 0 0 0 0 0 0 0 0 0 0 0 0 0 0 0.25 0"/>
<feBlend mode="normal" in2="BackgroundImageFix" result="effect1_dropShadow_3926_12762"/>
<feBlend mode="normal" in="SourceGraphic" in2="effect1_dropShadow_3926_12762" result="shape"/>
</filter>
<filter id="filter6_d_3926_12762" x="60" y="308" width="176" height="72" filterUnits="userSpaceOnUse" color-interpolation-filters="sRGB">
<feFlood flood-opacity="0" result="BackgroundImageFix"/>
<feColorMatrix in="SourceAlpha" type="matrix" values="0 0 0 0 0 0 0 0 0 0 0 0 0 0 0 0 0 0 127 0" result="hardAlpha"/>
<feOffset dy="2"/>
<feGaussianBlur stdDeviation="2"/>
<feComposite in2="hardAlpha" operator="out"/>
<feColorMatrix type="matrix" values="0 0 0 0 0 0 0 0 0 0 0 0 0 0 0 0 0 0 0.25 0"/>
<feBlend mode="normal" in2="BackgroundImageFix" result="effect1_dropShadow_3926_12762"/>
<feBlend mode="normal" in="SourceGraphic" in2="effect1_dropShadow_3926_12762" result="shape"/>
</filter>
<filter id="filter7_d_3926_12762" x="244" y="308" width="176" height="72" filterUnits="userSpaceOnUse" color-interpolation-filters="sRGB">
<feFlood flood-opacity="0" result="BackgroundImageFix"/>
<feColorMatrix in="SourceAlpha" type="matrix" values="0 0 0 0 0 0 0 0 0 0 0 0 0 0 0 0 0 0 127 0" result="hardAlpha"/>
<feOffset dy="2"/>
<feGaussianBlur stdDeviation="2"/>
<feComposite in2="hardAlpha" operator="out"/>
<feColorMatrix type="matrix" values="0 0 0 0 0 0 0 0 0 0 0 0 0 0 0 0 0 0 0.25 0"/>
<feBlend mode="normal" in2="BackgroundImageFix" result="effect1_dropShadow_3926_12762"/>
<feBlend mode="normal" in="SourceGraphic" in2="effect1_dropShadow_3926_12762" result="shape"/>
</filter>
<clipPath id="clip0_3926_12762">
<rect width="480" height="480" fill="white"/>
</clipPath>
</defs>
</svg>
