<svg width="480" height="480" viewBox="0 0 480 480" fill="none" xmlns="http://www.w3.org/2000/svg">
<g clip-path="url(#clip0_3980_47780)">
<rect width="480" height="480" fill="#F6F6F6"/>
<g filter="url(#filter0_d_3980_47780)">
<rect width="480" height="64" fill="white"/>
<path d="M191.426 36.0352C191.426 36.8815 191.221 37.6172 190.811 38.2422C190.4 38.8672 189.801 39.349 189.014 39.6875C188.232 40.026 187.282 40.1953 186.162 40.1953C185.667 40.1953 185.182 40.1628 184.707 40.0977C184.238 40.0326 183.786 39.9382 183.35 39.8145C182.92 39.6842 182.51 39.5247 182.119 39.3359V36.5234C182.796 36.8229 183.499 37.0931 184.229 37.334C184.958 37.5749 185.68 37.6953 186.396 37.6953C186.891 37.6953 187.288 37.6302 187.588 37.5C187.894 37.3698 188.115 37.1908 188.252 36.9629C188.389 36.735 188.457 36.4746 188.457 36.1816C188.457 35.8236 188.337 35.5176 188.096 35.2637C187.855 35.0098 187.523 34.7721 187.1 34.5508C186.683 34.3294 186.211 34.0918 185.684 33.8379C185.352 33.6816 184.99 33.4928 184.6 33.2715C184.209 33.0436 183.838 32.7669 183.486 32.4414C183.135 32.1159 182.845 31.722 182.617 31.2598C182.396 30.791 182.285 30.2311 182.285 29.5801C182.285 28.7272 182.48 27.998 182.871 27.3926C183.262 26.7871 183.818 26.3249 184.541 26.0059C185.27 25.6803 186.13 25.5176 187.119 25.5176C187.861 25.5176 188.568 25.6055 189.238 25.7812C189.915 25.9505 190.622 26.1979 191.357 26.5234L190.381 28.877C189.723 28.61 189.134 28.4049 188.613 28.2617C188.092 28.112 187.562 28.0371 187.021 28.0371C186.644 28.0371 186.322 28.099 186.055 28.2227C185.788 28.3398 185.586 28.5091 185.449 28.7305C185.312 28.9453 185.244 29.196 185.244 29.4824C185.244 29.821 185.342 30.1074 185.537 30.3418C185.739 30.5697 186.038 30.791 186.436 31.0059C186.839 31.2207 187.34 31.4714 187.939 31.7578C188.669 32.1029 189.29 32.4642 189.805 32.8418C190.326 33.2129 190.726 33.6523 191.006 34.1602C191.286 34.6615 191.426 35.2865 191.426 36.0352ZM192.217 29.082H195.479L197.539 35.2246C197.604 35.4199 197.66 35.6185 197.705 35.8203C197.751 36.0221 197.79 36.2305 197.822 36.4453C197.855 36.6602 197.881 36.8848 197.9 37.1191H197.959C197.998 36.7676 198.05 36.4388 198.115 36.1328C198.187 35.8268 198.275 35.5241 198.379 35.2246L200.4 29.082H203.594L198.975 41.3965C198.695 42.1517 198.33 42.7799 197.881 43.2812C197.432 43.7891 196.914 44.1699 196.328 44.4238C195.749 44.6777 195.111 44.8047 194.414 44.8047C194.076 44.8047 193.783 44.7852 193.535 44.7461C193.288 44.7135 193.076 44.6777 192.9 44.6387V42.2754C193.037 42.3079 193.21 42.3372 193.418 42.3633C193.626 42.3893 193.844 42.4023 194.072 42.4023C194.489 42.4023 194.847 42.3145 195.146 42.1387C195.446 41.9629 195.697 41.7253 195.898 41.4258C196.1 41.1328 196.26 40.8105 196.377 40.459L196.553 39.9219L192.217 29.082ZM212.783 36.7578C212.783 37.5 212.607 38.1283 212.256 38.6426C211.911 39.1504 211.393 39.5378 210.703 39.8047C210.013 40.0651 209.154 40.1953 208.125 40.1953C207.363 40.1953 206.709 40.1465 206.162 40.0488C205.622 39.9512 205.075 39.7884 204.521 39.5605V37.0996C205.114 37.3665 205.749 37.5879 206.426 37.7637C207.109 37.9329 207.708 38.0176 208.223 38.0176C208.802 38.0176 209.215 37.9329 209.463 37.7637C209.717 37.5879 209.844 37.36 209.844 37.0801C209.844 36.8978 209.792 36.735 209.688 36.5918C209.59 36.4421 209.375 36.276 209.043 36.0938C208.711 35.9049 208.19 35.6608 207.48 35.3613C206.797 35.0749 206.234 34.7852 205.791 34.4922C205.355 34.1992 205.029 33.8542 204.814 33.457C204.606 33.0534 204.502 32.5423 204.502 31.9238C204.502 30.9147 204.893 30.1562 205.674 29.6484C206.462 29.1341 207.513 28.877 208.828 28.877C209.505 28.877 210.15 28.9453 210.762 29.082C211.38 29.2188 212.015 29.4368 212.666 29.7363L211.768 31.8848C211.227 31.6504 210.716 31.4583 210.234 31.3086C209.759 31.1589 209.274 31.084 208.779 31.084C208.343 31.084 208.014 31.1426 207.793 31.2598C207.572 31.377 207.461 31.556 207.461 31.7969C207.461 31.9727 207.516 32.1289 207.627 32.2656C207.744 32.4023 207.965 32.5553 208.291 32.7246C208.623 32.8874 209.108 33.099 209.746 33.3594C210.365 33.6133 210.902 33.8802 211.357 34.1602C211.813 34.4336 212.165 34.7754 212.412 35.1855C212.66 35.5892 212.783 36.1133 212.783 36.7578ZM219.707 37.8223C220.033 37.8223 220.348 37.7897 220.654 37.7246C220.967 37.6595 221.276 37.5781 221.582 37.4805V39.6973C221.263 39.8405 220.866 39.9577 220.391 40.0488C219.922 40.1465 219.408 40.1953 218.848 40.1953C218.197 40.1953 217.611 40.0911 217.09 39.8828C216.576 39.668 216.169 39.3001 215.869 38.7793C215.576 38.252 215.43 37.5195 215.43 36.582V31.3184H214.004V30.0586L215.645 29.0625L216.504 26.7578H218.408V29.082H221.465V31.3184H218.408V36.582C218.408 36.9987 218.525 37.3112 218.76 37.5195C219.001 37.7214 219.316 37.8223 219.707 37.8223ZM228.301 28.877C229.31 28.877 230.179 29.0723 230.908 29.4629C231.637 29.847 232.201 30.4069 232.598 31.1426C232.995 31.8783 233.193 32.7767 233.193 33.8379V35.2832H226.152C226.185 36.123 226.436 36.7839 226.904 37.2656C227.38 37.7409 228.037 37.9785 228.877 37.9785C229.574 37.9785 230.212 37.9069 230.791 37.7637C231.37 37.6204 231.966 37.4056 232.578 37.1191V39.4238C232.038 39.6908 231.471 39.8861 230.879 40.0098C230.293 40.1335 229.58 40.1953 228.74 40.1953C227.646 40.1953 226.676 39.9935 225.83 39.5898C224.99 39.1862 224.329 38.571 223.848 37.7441C223.372 36.9173 223.135 35.8757 223.135 34.6191C223.135 33.3431 223.35 32.2819 223.779 31.4355C224.215 30.5827 224.821 29.9447 225.596 29.5215C226.37 29.0918 227.272 28.877 228.301 28.877ZM228.32 30.9961C227.741 30.9961 227.259 31.1816 226.875 31.5527C226.497 31.9238 226.279 32.5065 226.221 33.3008H230.4C230.394 32.8581 230.312 32.4642 230.156 32.1191C230.007 31.7741 229.779 31.5007 229.473 31.2988C229.173 31.097 228.789 30.9961 228.32 30.9961ZM248.438 28.877C249.674 28.877 250.609 29.196 251.24 29.834C251.878 30.4655 252.197 31.4811 252.197 32.8809V40H249.209V33.623C249.209 32.8418 249.076 32.2526 248.809 31.8555C248.542 31.4583 248.128 31.2598 247.568 31.2598C246.781 31.2598 246.221 31.543 245.889 32.1094C245.557 32.6693 245.391 33.4733 245.391 34.5215V40H242.412V33.623C242.412 33.1022 242.354 32.666 242.236 32.3145C242.119 31.9629 241.94 31.6992 241.699 31.5234C241.458 31.3477 241.149 31.2598 240.771 31.2598C240.218 31.2598 239.782 31.3997 239.463 31.6797C239.15 31.9531 238.926 32.36 238.789 32.9004C238.659 33.4342 238.594 34.0885 238.594 34.8633V40H235.615V29.082H237.891L238.291 30.4785H238.457C238.678 30.1009 238.955 29.7949 239.287 29.5605C239.626 29.3262 239.997 29.1536 240.4 29.043C240.804 28.9323 241.214 28.877 241.631 28.877C242.432 28.877 243.109 29.0072 243.662 29.2676C244.222 29.528 244.652 29.9316 244.951 30.4785H245.215C245.54 29.9186 245.999 29.5117 246.592 29.2578C247.191 29.0039 247.806 28.877 248.438 28.877ZM260.693 40V25.7227H263.721V40H260.693ZM273.281 28.877C274.447 28.877 275.384 29.196 276.094 29.834C276.803 30.4655 277.158 31.4811 277.158 32.8809V40H274.18V33.623C274.18 32.8418 274.036 32.2526 273.75 31.8555C273.47 31.4583 273.027 31.2598 272.422 31.2598C271.51 31.2598 270.889 31.569 270.557 32.1875C270.225 32.806 270.059 33.6979 270.059 34.8633V40H267.08V29.082H269.355L269.756 30.4785H269.922C270.156 30.1009 270.446 29.7949 270.791 29.5605C271.143 29.3262 271.53 29.1536 271.953 29.043C272.383 28.9323 272.826 28.877 273.281 28.877ZM286.26 31.3184H283.682V40H280.703V31.3184H279.062V29.8828L280.703 29.082V28.2812C280.703 27.3503 280.859 26.6276 281.172 26.1133C281.491 25.5924 281.937 25.2279 282.51 25.0195C283.089 24.8047 283.773 24.6973 284.561 24.6973C285.14 24.6973 285.667 24.7461 286.143 24.8438C286.618 24.9349 287.005 25.0391 287.305 25.1562L286.543 27.3438C286.315 27.2721 286.068 27.207 285.801 27.1484C285.534 27.0898 285.228 27.0605 284.883 27.0605C284.466 27.0605 284.16 27.1875 283.965 27.4414C283.776 27.6888 283.682 28.0078 283.682 28.3984V29.082H286.26V31.3184ZM297.9 34.5215C297.9 35.4329 297.777 36.2402 297.529 36.9434C297.288 37.6465 296.934 38.2422 296.465 38.7305C296.003 39.2122 295.443 39.5768 294.785 39.8242C294.134 40.0716 293.398 40.1953 292.578 40.1953C291.81 40.1953 291.104 40.0716 290.459 39.8242C289.821 39.5768 289.264 39.2122 288.789 38.7305C288.32 38.2422 287.956 37.6465 287.695 36.9434C287.441 36.2402 287.314 35.4329 287.314 34.5215C287.314 33.3105 287.529 32.2852 287.959 31.4453C288.389 30.6055 289.001 29.9674 289.795 29.5312C290.589 29.0951 291.536 28.877 292.637 28.877C293.659 28.877 294.564 29.0951 295.352 29.5312C296.146 29.9674 296.768 30.6055 297.217 31.4453C297.673 32.2852 297.9 33.3105 297.9 34.5215ZM290.352 34.5215C290.352 35.2376 290.43 35.8398 290.586 36.3281C290.742 36.8164 290.986 37.1842 291.318 37.4316C291.65 37.679 292.083 37.8027 292.617 37.8027C293.145 37.8027 293.571 37.679 293.896 37.4316C294.229 37.1842 294.469 36.8164 294.619 36.3281C294.775 35.8398 294.854 35.2376 294.854 34.5215C294.854 33.7988 294.775 33.1999 294.619 32.7246C294.469 32.2428 294.229 31.8815 293.896 31.6406C293.564 31.3997 293.132 31.2793 292.598 31.2793C291.81 31.2793 291.237 31.5495 290.879 32.0898C290.527 32.6302 290.352 33.4408 290.352 34.5215Z" fill="#31344E"/>
<path d="M459.29 24.0987C460.227 23.1616 460.227 21.6399 459.29 20.7028C458.353 19.7657 456.831 19.7657 455.894 20.7028L448 28.6041L440.099 20.7103C439.162 19.7732 437.64 19.7732 436.703 20.7103C435.766 21.6474 435.766 23.1691 436.703 24.1062L444.604 32L436.71 39.9013C435.773 40.8384 435.773 42.3601 436.71 43.2972C437.647 44.2343 439.169 44.2343 440.106 43.2972L448 35.3959L455.901 43.2897C456.838 44.2268 458.36 44.2268 459.297 43.2897C460.234 42.3526 460.234 40.8309 459.297 39.8938L451.396 32L459.29 24.0987Z" fill="#1A1040"/>
</g>
<g filter="url(#filter1_d_3980_47780)">
<rect x="16" y="384" width="448" height="80" rx="5" fill="#1A1040" shape-rendering="crispEdges"/>
<path d="M221.357 419.537C220.778 419.537 220.264 419.651 219.814 419.879C219.372 420.1 218.997 420.423 218.691 420.846C218.392 421.269 218.164 421.78 218.008 422.379C217.852 422.978 217.773 423.652 217.773 424.4C217.773 425.41 217.897 426.272 218.145 426.988C218.398 427.698 218.789 428.242 219.316 428.619C219.844 428.99 220.524 429.176 221.357 429.176C221.937 429.176 222.516 429.111 223.096 428.98C223.682 428.85 224.316 428.665 225 428.424V430.963C224.368 431.223 223.747 431.409 223.135 431.52C222.523 431.637 221.836 431.695 221.074 431.695C219.603 431.695 218.392 431.393 217.441 430.787C216.497 430.175 215.798 429.322 215.342 428.229C214.886 427.128 214.658 425.846 214.658 424.381C214.658 423.3 214.805 422.311 215.098 421.412C215.391 420.514 215.82 419.736 216.387 419.078C216.953 418.421 217.653 417.913 218.486 417.555C219.32 417.197 220.277 417.018 221.357 417.018C222.067 417.018 222.777 417.109 223.486 417.291C224.202 417.467 224.886 417.711 225.537 418.023L224.561 420.484C224.027 420.23 223.49 420.009 222.949 419.82C222.409 419.632 221.878 419.537 221.357 419.537ZM230.791 431.5H227.812V416.305H230.791V431.5ZM243.848 426.021C243.848 426.933 243.724 427.74 243.477 428.443C243.236 429.146 242.881 429.742 242.412 430.23C241.95 430.712 241.39 431.077 240.732 431.324C240.081 431.572 239.346 431.695 238.525 431.695C237.757 431.695 237.051 431.572 236.406 431.324C235.768 431.077 235.212 430.712 234.736 430.23C234.268 429.742 233.903 429.146 233.643 428.443C233.389 427.74 233.262 426.933 233.262 426.021C233.262 424.811 233.477 423.785 233.906 422.945C234.336 422.105 234.948 421.467 235.742 421.031C236.536 420.595 237.484 420.377 238.584 420.377C239.606 420.377 240.511 420.595 241.299 421.031C242.093 421.467 242.715 422.105 243.164 422.945C243.62 423.785 243.848 424.811 243.848 426.021ZM236.299 426.021C236.299 426.738 236.377 427.34 236.533 427.828C236.689 428.316 236.934 428.684 237.266 428.932C237.598 429.179 238.031 429.303 238.564 429.303C239.092 429.303 239.518 429.179 239.844 428.932C240.176 428.684 240.417 428.316 240.566 427.828C240.723 427.34 240.801 426.738 240.801 426.021C240.801 425.299 240.723 424.7 240.566 424.225C240.417 423.743 240.176 423.382 239.844 423.141C239.512 422.9 239.079 422.779 238.545 422.779C237.757 422.779 237.184 423.049 236.826 423.59C236.475 424.13 236.299 424.941 236.299 426.021ZM253.926 428.258C253.926 429 253.75 429.628 253.398 430.143C253.053 430.65 252.536 431.038 251.846 431.305C251.156 431.565 250.296 431.695 249.268 431.695C248.506 431.695 247.852 431.646 247.305 431.549C246.764 431.451 246.217 431.288 245.664 431.061V428.6C246.257 428.867 246.891 429.088 247.568 429.264C248.252 429.433 248.851 429.518 249.365 429.518C249.945 429.518 250.358 429.433 250.605 429.264C250.859 429.088 250.986 428.86 250.986 428.58C250.986 428.398 250.934 428.235 250.83 428.092C250.732 427.942 250.518 427.776 250.186 427.594C249.854 427.405 249.333 427.161 248.623 426.861C247.939 426.575 247.376 426.285 246.934 425.992C246.497 425.699 246.172 425.354 245.957 424.957C245.749 424.553 245.645 424.042 245.645 423.424C245.645 422.415 246.035 421.656 246.816 421.148C247.604 420.634 248.656 420.377 249.971 420.377C250.648 420.377 251.292 420.445 251.904 420.582C252.523 420.719 253.158 420.937 253.809 421.236L252.91 423.385C252.37 423.15 251.859 422.958 251.377 422.809C250.902 422.659 250.417 422.584 249.922 422.584C249.486 422.584 249.157 422.643 248.936 422.76C248.714 422.877 248.604 423.056 248.604 423.297C248.604 423.473 248.659 423.629 248.77 423.766C248.887 423.902 249.108 424.055 249.434 424.225C249.766 424.387 250.251 424.599 250.889 424.859C251.507 425.113 252.044 425.38 252.5 425.66C252.956 425.934 253.307 426.275 253.555 426.686C253.802 427.089 253.926 427.613 253.926 428.258ZM260.752 420.377C261.761 420.377 262.63 420.572 263.359 420.963C264.089 421.347 264.652 421.907 265.049 422.643C265.446 423.378 265.645 424.277 265.645 425.338V426.783H258.604C258.636 427.623 258.887 428.284 259.355 428.766C259.831 429.241 260.488 429.479 261.328 429.479C262.025 429.479 262.663 429.407 263.242 429.264C263.822 429.12 264.417 428.906 265.029 428.619V430.924C264.489 431.191 263.923 431.386 263.33 431.51C262.744 431.633 262.031 431.695 261.191 431.695C260.098 431.695 259.128 431.493 258.281 431.09C257.441 430.686 256.781 430.071 256.299 429.244C255.824 428.417 255.586 427.376 255.586 426.119C255.586 424.843 255.801 423.782 256.23 422.936C256.667 422.083 257.272 421.445 258.047 421.021C258.822 420.592 259.723 420.377 260.752 420.377ZM260.771 422.496C260.192 422.496 259.71 422.682 259.326 423.053C258.949 423.424 258.73 424.007 258.672 424.801H262.852C262.845 424.358 262.764 423.964 262.607 423.619C262.458 423.274 262.23 423.001 261.924 422.799C261.624 422.597 261.24 422.496 260.771 422.496Z" fill="white"/>
</g>
<g filter="url(#filter2_d_3980_47780)">
<rect x="16" y="80" width="448" height="248" rx="7" fill="white" shape-rendering="crispEdges"/>
<rect x="16.5" y="80.5" width="447" height="247" rx="6.5" stroke="#D1D1D1" shape-rendering="crispEdges"/>
<path d="M50.4199 146.842C50.4199 148.001 50.332 149.036 50.1562 149.947C49.9805 150.859 49.7038 151.63 49.3262 152.262C48.9486 152.893 48.4603 153.375 47.8613 153.707C47.2624 154.033 46.543 154.195 45.7031 154.195C44.6419 154.195 43.763 153.906 43.0664 153.326C42.3763 152.747 41.8587 151.91 41.5137 150.816C41.1751 149.716 41.0059 148.391 41.0059 146.842C41.0059 145.318 41.1589 144.01 41.4648 142.916C41.7773 141.816 42.2786 140.973 42.9688 140.387C43.6589 139.794 44.5703 139.498 45.7031 139.498C46.7773 139.498 47.6628 139.791 48.3594 140.377C49.056 140.956 49.5736 141.796 49.9121 142.896C50.2507 143.99 50.4199 145.305 50.4199 146.842ZM42.6367 146.842C42.6367 148.17 42.7376 149.277 42.9395 150.162C43.1413 151.048 43.4668 151.712 43.916 152.154C44.3717 152.59 44.9674 152.809 45.7031 152.809C46.4388 152.809 47.0312 152.59 47.4805 152.154C47.9362 151.718 48.265 151.057 48.4668 150.172C48.6751 149.286 48.7793 148.176 48.7793 146.842C48.7793 145.533 48.6784 144.439 48.4766 143.561C48.2747 142.675 47.9492 142.011 47.5 141.568C47.0508 141.119 46.4518 140.895 45.7031 140.895C44.9544 140.895 44.3555 141.119 43.9062 141.568C43.457 142.011 43.1315 142.675 42.9297 143.561C42.7344 144.439 42.6367 145.533 42.6367 146.842ZM61.8652 146.842C61.8652 148.001 61.7773 149.036 61.6016 149.947C61.4258 150.859 61.1491 151.63 60.7715 152.262C60.3939 152.893 59.9056 153.375 59.3066 153.707C58.7077 154.033 57.9883 154.195 57.1484 154.195C56.0872 154.195 55.2083 153.906 54.5117 153.326C53.8216 152.747 53.304 151.91 52.959 150.816C52.6204 149.716 52.4512 148.391 52.4512 146.842C52.4512 145.318 52.6042 144.01 52.9102 142.916C53.2227 141.816 53.724 140.973 54.4141 140.387C55.1042 139.794 56.0156 139.498 57.1484 139.498C58.2227 139.498 59.1081 139.791 59.8047 140.377C60.5013 140.956 61.0189 141.796 61.3574 142.896C61.696 143.99 61.8652 145.305 61.8652 146.842ZM54.082 146.842C54.082 148.17 54.1829 149.277 54.3848 150.162C54.5866 151.048 54.9121 151.712 55.3613 152.154C55.8171 152.59 56.4128 152.809 57.1484 152.809C57.8841 152.809 58.4766 152.59 58.9258 152.154C59.3815 151.718 59.7103 151.057 59.9121 150.172C60.1204 149.286 60.2246 148.176 60.2246 146.842C60.2246 145.533 60.1237 144.439 59.9219 143.561C59.7201 142.675 59.3945 142.011 58.9453 141.568C58.4961 141.119 57.8971 140.895 57.1484 140.895C56.3997 140.895 55.8008 141.119 55.3516 141.568C54.9023 142.011 54.5768 142.675 54.375 143.561C54.1797 144.439 54.082 145.533 54.082 146.842ZM73.3105 146.842C73.3105 148.001 73.2227 149.036 73.0469 149.947C72.8711 150.859 72.5944 151.63 72.2168 152.262C71.8392 152.893 71.3509 153.375 70.752 153.707C70.153 154.033 69.4336 154.195 68.5938 154.195C67.5326 154.195 66.6536 153.906 65.957 153.326C65.2669 152.747 64.7493 151.91 64.4043 150.816C64.0658 149.716 63.8965 148.391 63.8965 146.842C63.8965 145.318 64.0495 144.01 64.3555 142.916C64.668 141.816 65.1693 140.973 65.8594 140.387C66.5495 139.794 67.4609 139.498 68.5938 139.498C69.668 139.498 70.5534 139.791 71.25 140.377C71.9466 140.956 72.4642 141.796 72.8027 142.896C73.1413 143.99 73.3105 145.305 73.3105 146.842ZM65.5273 146.842C65.5273 148.17 65.6283 149.277 65.8301 150.162C66.0319 151.048 66.3574 151.712 66.8066 152.154C67.2624 152.59 67.8581 152.809 68.5938 152.809C69.3294 152.809 69.9219 152.59 70.3711 152.154C70.8268 151.718 71.1556 151.057 71.3574 150.172C71.5658 149.286 71.6699 148.176 71.6699 146.842C71.6699 145.533 71.569 144.439 71.3672 143.561C71.1654 142.675 70.8398 142.011 70.3906 141.568C69.9414 141.119 69.3424 140.895 68.5938 140.895C67.8451 140.895 67.2461 141.119 66.7969 141.568C66.3477 142.011 66.0221 142.675 65.8203 143.561C65.625 144.439 65.5273 145.533 65.5273 146.842ZM84.7559 146.842C84.7559 148.001 84.668 149.036 84.4922 149.947C84.3164 150.859 84.0397 151.63 83.6621 152.262C83.2845 152.893 82.7962 153.375 82.1973 153.707C81.5983 154.033 80.8789 154.195 80.0391 154.195C78.9779 154.195 78.099 153.906 77.4023 153.326C76.7122 152.747 76.1947 151.91 75.8496 150.816C75.5111 149.716 75.3418 148.391 75.3418 146.842C75.3418 145.318 75.4948 144.01 75.8008 142.916C76.1133 141.816 76.6146 140.973 77.3047 140.387C77.9948 139.794 78.9062 139.498 80.0391 139.498C81.1133 139.498 81.9987 139.791 82.6953 140.377C83.3919 140.956 83.9095 141.796 84.248 142.896C84.5866 143.99 84.7559 145.305 84.7559 146.842ZM76.9727 146.842C76.9727 148.17 77.0736 149.277 77.2754 150.162C77.4772 151.048 77.8027 151.712 78.252 152.154C78.7077 152.59 79.3034 152.809 80.0391 152.809C80.7747 152.809 81.3672 152.59 81.8164 152.154C82.2721 151.718 82.6009 151.057 82.8027 150.172C83.0111 149.286 83.1152 148.176 83.1152 146.842C83.1152 145.533 83.0143 144.439 82.8125 143.561C82.6107 142.675 82.2852 142.011 81.8359 141.568C81.3867 141.119 80.7878 140.895 80.0391 140.895C79.2904 140.895 78.6914 141.119 78.2422 141.568C77.793 142.011 77.4674 142.675 77.2656 143.561C77.0703 144.439 76.9727 145.533 76.9727 146.842ZM96.2012 146.842C96.2012 148.001 96.1133 149.036 95.9375 149.947C95.7617 150.859 95.485 151.63 95.1074 152.262C94.7298 152.893 94.2415 153.375 93.6426 153.707C93.0436 154.033 92.3242 154.195 91.4844 154.195C90.4232 154.195 89.5443 153.906 88.8477 153.326C88.1576 152.747 87.64 151.91 87.2949 150.816C86.9564 149.716 86.7871 148.391 86.7871 146.842C86.7871 145.318 86.9401 144.01 87.2461 142.916C87.5586 141.816 88.0599 140.973 88.75 140.387C89.4401 139.794 90.3516 139.498 91.4844 139.498C92.5586 139.498 93.444 139.791 94.1406 140.377C94.8372 140.956 95.3548 141.796 95.6934 142.896C96.0319 143.99 96.2012 145.305 96.2012 146.842ZM88.418 146.842C88.418 148.17 88.5189 149.277 88.7207 150.162C88.9225 151.048 89.248 151.712 89.6973 152.154C90.153 152.59 90.7487 152.809 91.4844 152.809C92.2201 152.809 92.8125 152.59 93.2617 152.154C93.7174 151.718 94.0462 151.057 94.248 150.172C94.4564 149.286 94.5605 148.176 94.5605 146.842C94.5605 145.533 94.4596 144.439 94.2578 143.561C94.056 142.675 93.7305 142.011 93.2812 141.568C92.832 141.119 92.2331 140.895 91.4844 140.895C90.7357 140.895 90.1367 141.119 89.6875 141.568C89.2383 142.011 88.9128 142.675 88.7109 143.561C88.5156 144.439 88.418 145.533 88.418 146.842ZM98.3594 147.896C98.3594 147.037 98.418 146.197 98.5352 145.377C98.6589 144.557 98.8639 143.795 99.1504 143.092C99.4368 142.382 99.8275 141.76 100.322 141.227C100.817 140.693 101.432 140.276 102.168 139.977C102.91 139.671 103.799 139.518 104.834 139.518C105.127 139.518 105.443 139.534 105.781 139.566C106.12 139.592 106.4 139.638 106.621 139.703V141.1C106.38 141.015 106.104 140.953 105.791 140.914C105.485 140.875 105.176 140.855 104.863 140.855C103.652 140.855 102.699 141.119 102.002 141.646C101.312 142.174 100.814 142.89 100.508 143.795C100.202 144.693 100.026 145.706 99.9805 146.832H100.088C100.29 146.507 100.547 146.214 100.859 145.953C101.172 145.686 101.549 145.475 101.992 145.318C102.441 145.162 102.962 145.084 103.555 145.084C104.388 145.084 105.114 145.253 105.732 145.592C106.357 145.93 106.839 146.422 107.178 147.066C107.523 147.711 107.695 148.492 107.695 149.41C107.695 150.393 107.513 151.243 107.148 151.959C106.784 152.675 106.263 153.229 105.586 153.619C104.915 154.003 104.115 154.195 103.184 154.195C102.487 154.195 101.846 154.062 101.26 153.795C100.674 153.528 100.163 153.131 99.7266 152.604C99.2969 152.076 98.9616 151.422 98.7207 150.641C98.4798 149.853 98.3594 148.938 98.3594 147.896ZM103.164 152.828C104.049 152.828 104.759 152.545 105.293 151.979C105.827 151.412 106.094 150.556 106.094 149.41C106.094 148.473 105.856 147.73 105.381 147.184C104.906 146.637 104.189 146.363 103.232 146.363C102.581 146.363 102.015 146.5 101.533 146.773C101.051 147.04 100.677 147.379 100.41 147.789C100.143 148.199 100.01 148.616 100.01 149.039C100.01 149.469 100.072 149.905 100.195 150.348C100.326 150.79 100.521 151.201 100.781 151.578C101.042 151.956 101.37 152.258 101.768 152.486C102.165 152.714 102.63 152.828 103.164 152.828ZM119.014 154H109.658V152.643L113.477 148.766C114.186 148.049 114.782 147.411 115.264 146.852C115.752 146.292 116.123 145.742 116.377 145.201C116.631 144.654 116.758 144.055 116.758 143.404C116.758 142.597 116.517 141.982 116.035 141.559C115.56 141.129 114.932 140.914 114.15 140.914C113.467 140.914 112.861 141.031 112.334 141.266C111.807 141.5 111.266 141.832 110.713 142.262L109.844 141.168C110.221 140.849 110.632 140.566 111.074 140.318C111.523 140.071 112.002 139.876 112.51 139.732C113.024 139.589 113.571 139.518 114.15 139.518C115.029 139.518 115.788 139.671 116.426 139.977C117.064 140.283 117.555 140.719 117.9 141.285C118.252 141.852 118.428 142.525 118.428 143.307C118.428 144.062 118.278 144.765 117.979 145.416C117.679 146.061 117.259 146.702 116.719 147.34C116.178 147.971 115.547 148.642 114.824 149.352L111.719 152.447V152.516H119.014V154ZM130.459 154H121.104V152.643L124.922 148.766C125.632 148.049 126.227 147.411 126.709 146.852C127.197 146.292 127.568 145.742 127.822 145.201C128.076 144.654 128.203 144.055 128.203 143.404C128.203 142.597 127.962 141.982 127.48 141.559C127.005 141.129 126.377 140.914 125.596 140.914C124.912 140.914 124.307 141.031 123.779 141.266C123.252 141.5 122.712 141.832 122.158 142.262L121.289 141.168C121.667 140.849 122.077 140.566 122.52 140.318C122.969 140.071 123.447 139.876 123.955 139.732C124.469 139.589 125.016 139.518 125.596 139.518C126.475 139.518 127.233 139.671 127.871 139.977C128.509 140.283 129.001 140.719 129.346 141.285C129.697 141.852 129.873 142.525 129.873 143.307C129.873 144.062 129.723 144.765 129.424 145.416C129.124 146.061 128.704 146.702 128.164 147.34C127.624 147.971 126.992 148.642 126.27 149.352L123.164 152.447V152.516H130.459V154Z" fill="#787B91"/>
<path d="M47.959 112.51C47.2754 112.51 46.6634 112.633 46.123 112.881C45.5892 113.128 45.1367 113.486 44.7656 113.955C44.3945 114.417 44.1113 114.98 43.916 115.645C43.7207 116.302 43.623 117.044 43.623 117.871C43.623 118.978 43.7793 119.932 44.0918 120.732C44.4043 121.527 44.8796 122.139 45.5176 122.568C46.1556 122.992 46.9629 123.203 47.9395 123.203C48.5449 123.203 49.1341 123.145 49.707 123.027C50.2799 122.91 50.8724 122.751 51.4844 122.549V124.541C50.9049 124.769 50.319 124.935 49.7266 125.039C49.1341 125.143 48.4505 125.195 47.6758 125.195C46.2174 125.195 45.0065 124.893 44.043 124.287C43.0859 123.682 42.3698 122.829 41.8945 121.729C41.4258 120.628 41.1914 119.339 41.1914 117.861C41.1914 116.781 41.3411 115.791 41.6406 114.893C41.9401 113.994 42.3763 113.219 42.9492 112.568C43.5221 111.911 44.2285 111.406 45.0684 111.055C45.9147 110.697 46.8815 110.518 47.9688 110.518C48.6849 110.518 49.388 110.599 50.0781 110.762C50.7747 110.918 51.4193 111.143 52.0117 111.436L51.1914 113.369C50.6966 113.135 50.179 112.933 49.6387 112.764C49.0983 112.594 48.5384 112.51 47.959 112.51ZM63.8867 119.57C63.8867 120.469 63.7695 121.266 63.5352 121.963C63.3008 122.66 62.959 123.249 62.5098 123.73C62.0605 124.206 61.5202 124.57 60.8887 124.824C60.2572 125.072 59.5443 125.195 58.75 125.195C58.0078 125.195 57.3275 125.072 56.709 124.824C56.0905 124.57 55.5534 124.206 55.0977 123.73C54.6484 123.249 54.3001 122.66 54.0527 121.963C53.8053 121.266 53.6816 120.469 53.6816 119.57C53.6816 118.379 53.8867 117.37 54.2969 116.543C54.7135 115.71 55.306 115.075 56.0742 114.639C56.8424 114.202 57.7572 113.984 58.8184 113.984C59.8145 113.984 60.6934 114.202 61.4551 114.639C62.2168 115.075 62.8125 115.71 63.2422 116.543C63.6719 117.376 63.8867 118.385 63.8867 119.57ZM56.0449 119.57C56.0449 120.358 56.1393 121.032 56.3281 121.592C56.5234 122.152 56.8229 122.581 57.2266 122.881C57.6302 123.174 58.151 123.32 58.7891 123.32C59.4271 123.32 59.9479 123.174 60.3516 122.881C60.7552 122.581 61.0514 122.152 61.2402 121.592C61.429 121.032 61.5234 120.358 61.5234 119.57C61.5234 118.783 61.429 118.115 61.2402 117.568C61.0514 117.015 60.7552 116.595 60.3516 116.309C59.9479 116.016 59.4238 115.869 58.7793 115.869C57.8288 115.869 57.1354 116.188 56.6992 116.826C56.263 117.464 56.0449 118.379 56.0449 119.57ZM78.7402 113.984C79.9512 113.984 80.8626 114.297 81.4746 114.922C82.0931 115.547 82.4023 116.549 82.4023 117.93V125H80.1074V118.34C80.1074 117.52 79.9479 116.901 79.6289 116.484C79.3099 116.068 78.8249 115.859 78.1738 115.859C77.2624 115.859 76.6048 116.152 76.2012 116.738C75.804 117.318 75.6055 118.161 75.6055 119.268V125H73.3105V118.34C73.3105 117.793 73.2389 117.337 73.0957 116.973C72.959 116.602 72.7474 116.325 72.4609 116.143C72.1745 115.954 71.8132 115.859 71.377 115.859C70.7454 115.859 70.2409 116.003 69.8633 116.289C69.4922 116.576 69.2253 116.999 69.0625 117.559C68.8997 118.112 68.8184 118.792 68.8184 119.6V125H66.5234V114.189H68.3105L68.6328 115.645H68.7598C68.9811 115.267 69.2546 114.958 69.5801 114.717C69.9121 114.469 70.2799 114.287 70.6836 114.17C71.0872 114.046 71.5072 113.984 71.9434 113.984C72.7507 113.984 73.431 114.128 73.9844 114.414C74.5378 114.694 74.9512 115.124 75.2246 115.703H75.4004C75.7389 115.117 76.2109 114.684 76.8164 114.404C77.4219 114.124 78.0632 113.984 78.7402 113.984ZM91.1523 113.984C92.4349 113.984 93.4635 114.453 94.2383 115.391C95.0195 116.328 95.4102 117.721 95.4102 119.57C95.4102 120.794 95.2279 121.826 94.8633 122.666C94.5052 123.499 94.0007 124.131 93.3496 124.561C92.7051 124.984 91.9531 125.195 91.0938 125.195C90.5469 125.195 90.0716 125.124 89.668 124.98C89.2643 124.837 88.9193 124.652 88.6328 124.424C88.3464 124.189 88.1055 123.936 87.9102 123.662H87.7734C87.806 123.923 87.8353 124.212 87.8613 124.531C87.8939 124.844 87.9102 125.13 87.9102 125.391V129.795H85.6055V114.189H87.4805L87.8027 115.684H87.9102C88.112 115.378 88.3561 115.094 88.6426 114.834C88.9355 114.574 89.2871 114.368 89.6973 114.219C90.1139 114.062 90.599 113.984 91.1523 113.984ZM90.5371 115.859C89.9056 115.859 89.3978 115.986 89.0137 116.24C88.6361 116.488 88.3594 116.862 88.1836 117.363C88.0143 117.865 87.9232 118.493 87.9102 119.248V119.57C87.9102 120.371 87.9915 121.051 88.1543 121.611C88.3236 122.165 88.6003 122.588 88.9844 122.881C89.375 123.167 89.9023 123.311 90.5664 123.311C91.1263 123.311 91.5885 123.158 91.9531 122.852C92.3242 122.546 92.6009 122.109 92.7832 121.543C92.9655 120.977 93.0566 120.309 93.0566 119.541C93.0566 118.376 92.8483 117.471 92.4316 116.826C92.0215 116.182 91.39 115.859 90.5371 115.859ZM107.49 114.189V125H105.684L105.371 123.545H105.244C105.016 123.916 104.727 124.225 104.375 124.473C104.023 124.714 103.633 124.893 103.203 125.01C102.773 125.133 102.321 125.195 101.846 125.195C101.032 125.195 100.335 125.059 99.7559 124.785C99.1829 124.505 98.7435 124.076 98.4375 123.496C98.1315 122.917 97.9785 122.168 97.9785 121.25V114.189H100.283V120.82C100.283 121.66 100.452 122.288 100.791 122.705C101.136 123.122 101.67 123.33 102.393 123.33C103.089 123.33 103.643 123.187 104.053 122.9C104.463 122.614 104.753 122.191 104.922 121.631C105.098 121.071 105.186 120.384 105.186 119.57V114.189H107.49ZM114.805 123.34C115.104 123.34 115.4 123.314 115.693 123.262C115.986 123.203 116.253 123.135 116.494 123.057V124.795C116.24 124.906 115.911 125 115.508 125.078C115.104 125.156 114.684 125.195 114.248 125.195C113.636 125.195 113.086 125.094 112.598 124.893C112.109 124.684 111.722 124.329 111.436 123.828C111.149 123.327 111.006 122.633 111.006 121.748V115.938H109.531V114.912L111.113 114.102L111.865 111.787H113.311V114.189H116.406V115.938H113.311V121.719C113.311 122.266 113.447 122.673 113.721 122.939C113.994 123.206 114.355 123.34 114.805 123.34ZM122.998 113.984C123.962 113.984 124.788 114.183 125.479 114.58C126.169 114.977 126.699 115.54 127.07 116.27C127.441 116.999 127.627 117.871 127.627 118.887V120.117H120.41C120.436 121.165 120.716 121.973 121.25 122.539C121.79 123.105 122.546 123.389 123.516 123.389C124.206 123.389 124.824 123.324 125.371 123.193C125.924 123.057 126.494 122.858 127.08 122.598V124.463C126.54 124.717 125.99 124.902 125.43 125.02C124.87 125.137 124.199 125.195 123.418 125.195C122.357 125.195 121.423 124.99 120.615 124.58C119.814 124.163 119.186 123.545 118.73 122.725C118.281 121.904 118.057 120.885 118.057 119.668C118.057 118.457 118.262 117.428 118.672 116.582C119.082 115.736 119.658 115.091 120.4 114.648C121.143 114.206 122.008 113.984 122.998 113.984ZM122.998 115.713C122.275 115.713 121.689 115.947 121.24 116.416C120.798 116.885 120.537 117.572 120.459 118.477H125.381C125.374 117.936 125.283 117.458 125.107 117.041C124.938 116.624 124.678 116.299 124.326 116.064C123.981 115.83 123.538 115.713 122.998 115.713ZM135.645 125V110.723H137.988V125H135.645ZM153.35 117.725C153.35 119.333 153.05 120.677 152.451 121.758C151.852 122.832 150.983 123.643 149.844 124.189C148.704 124.73 147.331 125 145.723 125H141.758V110.723H146.152C147.63 110.723 148.906 110.99 149.98 111.523C151.055 112.051 151.885 112.835 152.471 113.877C153.057 114.912 153.35 116.195 153.35 117.725ZM150.908 117.793C150.908 116.621 150.723 115.658 150.352 114.902C149.987 114.147 149.447 113.587 148.73 113.223C148.021 112.852 147.145 112.666 146.104 112.666H144.102V123.037H145.762C147.487 123.037 148.776 122.598 149.629 121.719C150.482 120.84 150.908 119.531 150.908 117.793Z" fill="#787B91"/>
<path d="M44.0625 226L40 215.297H41.7383L44.0918 221.771C44.2546 222.214 44.4206 222.702 44.5898 223.236C44.7591 223.77 44.8763 224.2 44.9414 224.525H45.0098C45.0879 224.2 45.2181 223.77 45.4004 223.236C45.5827 222.696 45.7487 222.208 45.8984 221.771L48.252 215.297H49.9902L45.918 226H44.0625ZM60.3418 226H50.9863V224.643L54.8047 220.766C55.5143 220.049 56.11 219.411 56.5918 218.852C57.0801 218.292 57.4512 217.742 57.7051 217.201C57.959 216.654 58.0859 216.055 58.0859 215.404C58.0859 214.597 57.8451 213.982 57.3633 213.559C56.888 213.129 56.2598 212.914 55.4785 212.914C54.7949 212.914 54.1895 213.031 53.6621 213.266C53.1348 213.5 52.5944 213.832 52.041 214.262L51.1719 213.168C51.5495 212.849 51.9596 212.566 52.4023 212.318C52.8516 212.071 53.3301 211.876 53.8379 211.732C54.3522 211.589 54.8991 211.518 55.4785 211.518C56.3574 211.518 57.1159 211.671 57.7539 211.977C58.3919 212.283 58.8835 212.719 59.2285 213.285C59.5801 213.852 59.7559 214.525 59.7559 215.307C59.7559 216.062 59.6061 216.765 59.3066 217.416C59.0072 218.061 58.5872 218.702 58.0469 219.34C57.5065 219.971 56.875 220.642 56.1523 221.352L53.0469 224.447V224.516H60.3418V226ZM71.8652 218.842C71.8652 220.001 71.7773 221.036 71.6016 221.947C71.4258 222.859 71.1491 223.63 70.7715 224.262C70.3939 224.893 69.9056 225.375 69.3066 225.707C68.7077 226.033 67.9883 226.195 67.1484 226.195C66.0872 226.195 65.2083 225.906 64.5117 225.326C63.8216 224.747 63.304 223.91 62.959 222.816C62.6204 221.716 62.4512 220.391 62.4512 218.842C62.4512 217.318 62.6042 216.01 62.9102 214.916C63.2227 213.816 63.724 212.973 64.4141 212.387C65.1042 211.794 66.0156 211.498 67.1484 211.498C68.2227 211.498 69.1081 211.791 69.8047 212.377C70.5013 212.956 71.0189 213.796 71.3574 214.896C71.696 215.99 71.8652 217.305 71.8652 218.842ZM64.082 218.842C64.082 220.17 64.1829 221.277 64.3848 222.162C64.5866 223.048 64.9121 223.712 65.3613 224.154C65.8171 224.59 66.4128 224.809 67.1484 224.809C67.8841 224.809 68.4766 224.59 68.9258 224.154C69.3815 223.718 69.7103 223.057 69.9121 222.172C70.1204 221.286 70.2246 220.176 70.2246 218.842C70.2246 217.533 70.1237 216.439 69.9219 215.561C69.7201 214.675 69.3945 214.011 68.9453 213.568C68.4961 213.119 67.8971 212.895 67.1484 212.895C66.3997 212.895 65.8008 213.119 65.3516 213.568C64.9023 214.011 64.5768 214.675 64.375 215.561C64.1797 216.439 64.082 217.533 64.082 218.842ZM83.2324 226H73.877V224.643L77.6953 220.766C78.4049 220.049 79.0007 219.411 79.4824 218.852C79.9707 218.292 80.3418 217.742 80.5957 217.201C80.8496 216.654 80.9766 216.055 80.9766 215.404C80.9766 214.597 80.7357 213.982 80.2539 213.559C79.7786 213.129 79.1504 212.914 78.3691 212.914C77.6855 212.914 77.0801 213.031 76.5527 213.266C76.0254 213.5 75.485 213.832 74.9316 214.262L74.0625 213.168C74.4401 212.849 74.8503 212.566 75.293 212.318C75.7422 212.071 76.2207 211.876 76.7285 211.732C77.2428 211.589 77.7897 211.518 78.3691 211.518C79.248 211.518 80.0065 211.671 80.6445 211.977C81.2826 212.283 81.7741 212.719 82.1191 213.285C82.4707 213.852 82.6465 214.525 82.6465 215.307C82.6465 216.062 82.4967 216.765 82.1973 217.416C81.8978 218.061 81.4779 218.702 80.9375 219.34C80.3971 219.971 79.7656 220.642 79.043 221.352L75.9375 224.447V224.516H83.2324V226ZM89.834 217.27C90.804 217.27 91.6471 217.436 92.3633 217.768C93.0794 218.093 93.6328 218.568 94.0234 219.193C94.4206 219.818 94.6191 220.577 94.6191 221.469C94.6191 222.445 94.4076 223.288 93.9844 223.998C93.5612 224.701 92.9525 225.245 92.1582 225.629C91.3639 226.007 90.4134 226.195 89.3066 226.195C88.5645 226.195 87.8743 226.13 87.2363 226C86.5983 225.87 86.0612 225.674 85.625 225.414V223.871C86.1003 224.158 86.6764 224.385 87.3535 224.555C88.0306 224.724 88.6882 224.809 89.3262 224.809C90.0488 224.809 90.6803 224.695 91.2207 224.467C91.7676 224.232 92.1908 223.881 92.4902 223.412C92.7962 222.937 92.9492 222.341 92.9492 221.625C92.9492 220.674 92.6562 219.942 92.0703 219.428C91.4909 218.907 90.5729 218.646 89.3164 218.646C88.9128 218.646 88.4701 218.679 87.9883 218.744C87.5065 218.809 87.1094 218.881 86.7969 218.959L85.9766 218.422L86.5234 211.723H93.623V213.207H87.9102L87.5488 217.514C87.7962 217.462 88.1152 217.41 88.5059 217.357C88.8965 217.299 89.3392 217.27 89.834 217.27ZM96.582 221.352V219.906H101.426V221.352H96.582ZM112.646 218.842C112.646 220.001 112.559 221.036 112.383 221.947C112.207 222.859 111.93 223.63 111.553 224.262C111.175 224.893 110.687 225.375 110.088 225.707C109.489 226.033 108.77 226.195 107.93 226.195C106.868 226.195 105.99 225.906 105.293 225.326C104.603 224.747 104.085 223.91 103.74 222.816C103.402 221.716 103.232 220.391 103.232 218.842C103.232 217.318 103.385 216.01 103.691 214.916C104.004 213.816 104.505 212.973 105.195 212.387C105.885 211.794 106.797 211.498 107.93 211.498C109.004 211.498 109.889 211.791 110.586 212.377C111.283 212.956 111.8 213.796 112.139 214.896C112.477 215.99 112.646 217.305 112.646 218.842ZM104.863 218.842C104.863 220.17 104.964 221.277 105.166 222.162C105.368 223.048 105.693 223.712 106.143 224.154C106.598 224.59 107.194 224.809 107.93 224.809C108.665 224.809 109.258 224.59 109.707 224.154C110.163 223.718 110.492 223.057 110.693 222.172C110.902 221.286 111.006 220.176 111.006 218.842C111.006 217.533 110.905 216.439 110.703 215.561C110.501 214.675 110.176 214.011 109.727 213.568C109.277 213.119 108.678 212.895 107.93 212.895C107.181 212.895 106.582 213.119 106.133 213.568C105.684 214.011 105.358 214.675 105.156 215.561C104.961 216.439 104.863 217.533 104.863 218.842ZM124.014 226H114.658V224.643L118.477 220.766C119.186 220.049 119.782 219.411 120.264 218.852C120.752 218.292 121.123 217.742 121.377 217.201C121.631 216.654 121.758 216.055 121.758 215.404C121.758 214.597 121.517 213.982 121.035 213.559C120.56 213.129 119.932 212.914 119.15 212.914C118.467 212.914 117.861 213.031 117.334 213.266C116.807 213.5 116.266 213.832 115.713 214.262L114.844 213.168C115.221 212.849 115.632 212.566 116.074 212.318C116.523 212.071 117.002 211.876 117.51 211.732C118.024 211.589 118.571 211.518 119.15 211.518C120.029 211.518 120.788 211.671 121.426 211.977C122.064 212.283 122.555 212.719 122.9 213.285C123.252 213.852 123.428 214.525 123.428 215.307C123.428 216.062 123.278 216.765 122.979 217.416C122.679 218.061 122.259 218.702 121.719 219.34C121.178 219.971 120.547 220.642 119.824 221.352L116.719 224.447V224.516H124.014V226ZM128.73 226H127.07V211.723H135.02V213.188H128.73V218.422H134.639V219.877H128.73V226ZM141.279 215.102C142.191 215.102 142.972 215.303 143.623 215.707C144.274 216.111 144.772 216.677 145.117 217.406C145.462 218.129 145.635 218.975 145.635 219.945V220.951H138.242C138.262 222.208 138.574 223.165 139.18 223.822C139.785 224.48 140.638 224.809 141.738 224.809C142.415 224.809 143.014 224.747 143.535 224.623C144.056 224.499 144.596 224.317 145.156 224.076V225.502C144.616 225.743 144.079 225.919 143.545 226.029C143.018 226.14 142.393 226.195 141.67 226.195C140.641 226.195 139.743 225.987 138.975 225.57C138.213 225.147 137.62 224.529 137.197 223.715C136.774 222.901 136.562 221.905 136.562 220.727C136.562 219.574 136.755 218.578 137.139 217.738C137.529 216.892 138.076 216.241 138.779 215.785C139.489 215.329 140.322 215.102 141.279 215.102ZM141.26 216.43C140.394 216.43 139.704 216.713 139.189 217.279C138.675 217.846 138.369 218.637 138.271 219.652H143.936C143.929 219.014 143.828 218.454 143.633 217.973C143.444 217.484 143.154 217.107 142.764 216.84C142.373 216.566 141.872 216.43 141.26 216.43ZM150.01 210.805V214.604C150.01 215.04 149.997 215.463 149.971 215.873C149.951 216.283 149.935 216.602 149.922 216.83H150.01C150.303 216.348 150.726 215.941 151.279 215.609C151.833 215.277 152.539 215.111 153.398 215.111C154.74 215.111 155.807 215.577 156.602 216.508C157.402 217.432 157.803 218.809 157.803 220.639C157.803 221.843 157.62 222.859 157.256 223.686C156.891 224.512 156.377 225.137 155.713 225.561C155.049 225.984 154.264 226.195 153.359 226.195C152.513 226.195 151.816 226.039 151.27 225.727C150.729 225.408 150.312 225.02 150.02 224.564H149.893L149.561 226H148.389V210.805H150.01ZM153.135 216.469C152.36 216.469 151.745 216.622 151.289 216.928C150.833 217.227 150.505 217.683 150.303 218.295C150.107 218.9 150.01 219.669 150.01 220.6V220.688C150.01 222.035 150.234 223.067 150.684 223.783C151.133 224.493 151.95 224.848 153.135 224.848C154.131 224.848 154.876 224.483 155.371 223.754C155.872 223.025 156.123 221.983 156.123 220.629C156.123 219.249 155.876 218.21 155.381 217.514C154.893 216.817 154.144 216.469 153.135 216.469ZM159.727 221.352V219.906H164.57V221.352H159.727ZM175.713 226H166.357V224.643L170.176 220.766C170.885 220.049 171.481 219.411 171.963 218.852C172.451 218.292 172.822 217.742 173.076 217.201C173.33 216.654 173.457 216.055 173.457 215.404C173.457 214.597 173.216 213.982 172.734 213.559C172.259 213.129 171.631 212.914 170.85 212.914C170.166 212.914 169.561 213.031 169.033 213.266C168.506 213.5 167.965 213.832 167.412 214.262L166.543 213.168C166.921 212.849 167.331 212.566 167.773 212.318C168.223 212.071 168.701 211.876 169.209 211.732C169.723 211.589 170.27 211.518 170.85 211.518C171.729 211.518 172.487 211.671 173.125 211.977C173.763 212.283 174.255 212.719 174.6 213.285C174.951 213.852 175.127 214.525 175.127 215.307C175.127 216.062 174.977 216.765 174.678 217.416C174.378 218.061 173.958 218.702 173.418 219.34C172.878 219.971 172.246 220.642 171.523 221.352L168.418 224.447V224.516H175.713V226ZM187.871 222.689H185.732V226H184.15V222.689H177.246V221.322L184.043 211.645H185.732V221.225H187.871V222.689ZM184.15 221.225V216.557C184.15 216.199 184.154 215.876 184.16 215.59C184.167 215.297 184.176 215.027 184.189 214.779C184.202 214.525 184.212 214.285 184.219 214.057C184.232 213.829 184.242 213.604 184.248 213.383H184.17C184.046 213.643 183.903 213.92 183.74 214.213C183.584 214.499 183.424 214.757 183.262 214.984L178.857 221.225H184.15ZM189.062 221.352V219.906H193.906V221.352H189.062ZM205.762 222.689H203.623V226H202.041V222.689H195.137V221.322L201.934 211.645H203.623V221.225H205.762V222.689ZM202.041 221.225V216.557C202.041 216.199 202.044 215.876 202.051 215.59C202.057 215.297 202.067 215.027 202.08 214.779C202.093 214.525 202.103 214.285 202.109 214.057C202.122 213.829 202.132 213.604 202.139 213.383H202.061C201.937 213.643 201.794 213.92 201.631 214.213C201.475 214.499 201.315 214.757 201.152 214.984L196.748 221.225H202.041ZM207.285 219.896C207.285 219.037 207.344 218.197 207.461 217.377C207.585 216.557 207.79 215.795 208.076 215.092C208.363 214.382 208.753 213.76 209.248 213.227C209.743 212.693 210.358 212.276 211.094 211.977C211.836 211.671 212.725 211.518 213.76 211.518C214.053 211.518 214.368 211.534 214.707 211.566C215.046 211.592 215.326 211.638 215.547 211.703V213.1C215.306 213.015 215.029 212.953 214.717 212.914C214.411 212.875 214.102 212.855 213.789 212.855C212.578 212.855 211.624 213.119 210.928 213.646C210.238 214.174 209.74 214.89 209.434 215.795C209.128 216.693 208.952 217.706 208.906 218.832H209.014C209.215 218.507 209.473 218.214 209.785 217.953C210.098 217.686 210.475 217.475 210.918 217.318C211.367 217.162 211.888 217.084 212.48 217.084C213.314 217.084 214.04 217.253 214.658 217.592C215.283 217.93 215.765 218.422 216.104 219.066C216.449 219.711 216.621 220.492 216.621 221.41C216.621 222.393 216.439 223.243 216.074 223.959C215.71 224.675 215.189 225.229 214.512 225.619C213.841 226.003 213.04 226.195 212.109 226.195C211.413 226.195 210.771 226.062 210.186 225.795C209.6 225.528 209.089 225.131 208.652 224.604C208.223 224.076 207.887 223.422 207.646 222.641C207.406 221.853 207.285 220.938 207.285 219.896ZM212.09 224.828C212.975 224.828 213.685 224.545 214.219 223.979C214.753 223.412 215.02 222.556 215.02 221.41C215.02 220.473 214.782 219.73 214.307 219.184C213.831 218.637 213.115 218.363 212.158 218.363C211.507 218.363 210.941 218.5 210.459 218.773C209.977 219.04 209.603 219.379 209.336 219.789C209.069 220.199 208.936 220.616 208.936 221.039C208.936 221.469 208.997 221.905 209.121 222.348C209.251 222.79 209.447 223.201 209.707 223.578C209.967 223.956 210.296 224.258 210.693 224.486C211.09 224.714 211.556 224.828 212.09 224.828ZM228.018 218.842C228.018 220.001 227.93 221.036 227.754 221.947C227.578 222.859 227.301 223.63 226.924 224.262C226.546 224.893 226.058 225.375 225.459 225.707C224.86 226.033 224.141 226.195 223.301 226.195C222.24 226.195 221.361 225.906 220.664 225.326C219.974 224.747 219.456 223.91 219.111 222.816C218.773 221.716 218.604 220.391 218.604 218.842C218.604 217.318 218.757 216.01 219.062 214.916C219.375 213.816 219.876 212.973 220.566 212.387C221.257 211.794 222.168 211.498 223.301 211.498C224.375 211.498 225.26 211.791 225.957 212.377C226.654 212.956 227.171 213.796 227.51 214.896C227.848 215.99 228.018 217.305 228.018 218.842ZM220.234 218.842C220.234 220.17 220.335 221.277 220.537 222.162C220.739 223.048 221.064 223.712 221.514 224.154C221.969 224.59 222.565 224.809 223.301 224.809C224.036 224.809 224.629 224.59 225.078 224.154C225.534 223.718 225.863 223.057 226.064 222.172C226.273 221.286 226.377 220.176 226.377 218.842C226.377 217.533 226.276 216.439 226.074 215.561C225.872 214.675 225.547 214.011 225.098 213.568C224.648 213.119 224.049 212.895 223.301 212.895C222.552 212.895 221.953 213.119 221.504 213.568C221.055 214.011 220.729 214.675 220.527 215.561C220.332 216.439 220.234 217.533 220.234 218.842ZM230.176 219.896C230.176 219.037 230.234 218.197 230.352 217.377C230.475 216.557 230.68 215.795 230.967 215.092C231.253 214.382 231.644 213.76 232.139 213.227C232.633 212.693 233.249 212.276 233.984 211.977C234.727 211.671 235.615 211.518 236.65 211.518C236.943 211.518 237.259 211.534 237.598 211.566C237.936 211.592 238.216 211.638 238.438 211.703V213.1C238.197 213.015 237.92 212.953 237.607 212.914C237.301 212.875 236.992 212.855 236.68 212.855C235.469 212.855 234.515 213.119 233.818 213.646C233.128 214.174 232.63 214.89 232.324 215.795C232.018 216.693 231.842 217.706 231.797 218.832H231.904C232.106 218.507 232.363 218.214 232.676 217.953C232.988 217.686 233.366 217.475 233.809 217.318C234.258 217.162 234.779 217.084 235.371 217.084C236.204 217.084 236.93 217.253 237.549 217.592C238.174 217.93 238.656 218.422 238.994 219.066C239.339 219.711 239.512 220.492 239.512 221.41C239.512 222.393 239.329 223.243 238.965 223.959C238.6 224.675 238.079 225.229 237.402 225.619C236.732 226.003 235.931 226.195 235 226.195C234.303 226.195 233.662 226.062 233.076 225.795C232.49 225.528 231.979 225.131 231.543 224.604C231.113 224.076 230.778 223.422 230.537 222.641C230.296 221.853 230.176 220.938 230.176 219.896ZM234.98 224.828C235.866 224.828 236.576 224.545 237.109 223.979C237.643 223.412 237.91 222.556 237.91 221.41C237.91 220.473 237.673 219.73 237.197 219.184C236.722 218.637 236.006 218.363 235.049 218.363C234.398 218.363 233.831 218.5 233.35 218.773C232.868 219.04 232.493 219.379 232.227 219.789C231.96 220.199 231.826 220.616 231.826 221.039C231.826 221.469 231.888 221.905 232.012 222.348C232.142 222.79 232.337 223.201 232.598 223.578C232.858 223.956 233.187 224.258 233.584 224.486C233.981 224.714 234.447 224.828 234.98 224.828ZM241.621 219.896C241.621 219.037 241.68 218.197 241.797 217.377C241.921 216.557 242.126 215.795 242.412 215.092C242.699 214.382 243.089 213.76 243.584 213.227C244.079 212.693 244.694 212.276 245.43 211.977C246.172 211.671 247.061 211.518 248.096 211.518C248.389 211.518 248.704 211.534 249.043 211.566C249.382 211.592 249.661 211.638 249.883 211.703V213.1C249.642 213.015 249.365 212.953 249.053 212.914C248.747 212.875 248.438 212.855 248.125 212.855C246.914 212.855 245.96 213.119 245.264 213.646C244.574 214.174 244.076 214.89 243.77 215.795C243.464 216.693 243.288 217.706 243.242 218.832H243.35C243.551 218.507 243.809 218.214 244.121 217.953C244.434 217.686 244.811 217.475 245.254 217.318C245.703 217.162 246.224 217.084 246.816 217.084C247.65 217.084 248.376 217.253 248.994 217.592C249.619 217.93 250.101 218.422 250.439 219.066C250.785 219.711 250.957 220.492 250.957 221.41C250.957 222.393 250.775 223.243 250.41 223.959C250.046 224.675 249.525 225.229 248.848 225.619C248.177 226.003 247.376 226.195 246.445 226.195C245.749 226.195 245.107 226.062 244.521 225.795C243.936 225.528 243.424 225.131 242.988 224.604C242.559 224.076 242.223 223.422 241.982 222.641C241.742 221.853 241.621 220.938 241.621 219.896ZM246.426 224.828C247.311 224.828 248.021 224.545 248.555 223.979C249.089 223.412 249.355 222.556 249.355 221.41C249.355 220.473 249.118 219.73 248.643 219.184C248.167 218.637 247.451 218.363 246.494 218.363C245.843 218.363 245.277 218.5 244.795 218.773C244.313 219.04 243.939 219.379 243.672 219.789C243.405 220.199 243.271 220.616 243.271 221.039C243.271 221.469 243.333 221.905 243.457 222.348C243.587 222.79 243.783 223.201 244.043 223.578C244.303 223.956 244.632 224.258 245.029 224.486C245.426 224.714 245.892 224.828 246.426 224.828ZM254.766 226L260.625 213.207H252.842V211.723H262.363V212.973L256.543 226H254.766ZM266.211 226L272.07 213.207H264.287V211.723H273.809V212.973L267.988 226H266.211ZM280.322 217.27C281.292 217.27 282.135 217.436 282.852 217.768C283.568 218.093 284.121 218.568 284.512 219.193C284.909 219.818 285.107 220.577 285.107 221.469C285.107 222.445 284.896 223.288 284.473 223.998C284.049 224.701 283.441 225.245 282.646 225.629C281.852 226.007 280.902 226.195 279.795 226.195C279.053 226.195 278.363 226.13 277.725 226C277.087 225.87 276.549 225.674 276.113 225.414V223.871C276.589 224.158 277.165 224.385 277.842 224.555C278.519 224.724 279.176 224.809 279.814 224.809C280.537 224.809 281.169 224.695 281.709 224.467C282.256 224.232 282.679 223.881 282.979 223.412C283.285 222.937 283.438 222.341 283.438 221.625C283.438 220.674 283.145 219.942 282.559 219.428C281.979 218.907 281.061 218.646 279.805 218.646C279.401 218.646 278.958 218.679 278.477 218.744C277.995 218.809 277.598 218.881 277.285 218.959L276.465 218.422L277.012 211.723H284.111V213.207H278.398L278.037 217.514C278.285 217.462 278.604 217.41 278.994 217.357C279.385 217.299 279.827 217.27 280.322 217.27ZM287.07 221.352V219.906H291.914V221.352H287.07ZM298.232 226.195C296.878 226.195 295.804 225.733 295.01 224.809C294.222 223.884 293.828 222.51 293.828 220.688C293.828 218.845 294.232 217.455 295.039 216.518C295.846 215.574 296.921 215.102 298.262 215.102C298.828 215.102 299.323 215.176 299.746 215.326C300.169 215.476 300.534 215.678 300.84 215.932C301.146 216.179 301.403 216.462 301.611 216.781H301.729C301.702 216.579 301.676 216.303 301.65 215.951C301.624 215.6 301.611 215.313 301.611 215.092V210.805H303.232V226H301.924L301.68 224.477H301.611C301.41 224.796 301.152 225.085 300.84 225.346C300.534 225.606 300.166 225.814 299.736 225.971C299.313 226.12 298.812 226.195 298.232 226.195ZM298.486 224.848C299.632 224.848 300.443 224.522 300.918 223.871C301.393 223.22 301.631 222.253 301.631 220.971V220.678C301.631 219.317 301.403 218.272 300.947 217.543C300.498 216.814 299.678 216.449 298.486 216.449C297.49 216.449 296.745 216.833 296.25 217.602C295.755 218.363 295.508 219.405 295.508 220.727C295.508 222.042 295.752 223.057 296.24 223.773C296.735 224.49 297.484 224.848 298.486 224.848ZM310.957 226.195C309.993 226.195 309.144 225.997 308.408 225.6C307.673 225.202 307.1 224.597 306.689 223.783C306.279 222.969 306.074 221.944 306.074 220.707C306.074 219.411 306.289 218.354 306.719 217.533C307.155 216.706 307.754 216.094 308.516 215.697C309.277 215.3 310.143 215.102 311.113 215.102C311.647 215.102 312.161 215.157 312.656 215.268C313.158 215.372 313.568 215.505 313.887 215.668L313.398 217.025C313.073 216.895 312.695 216.778 312.266 216.674C311.842 216.57 311.445 216.518 311.074 216.518C310.332 216.518 309.714 216.677 309.219 216.996C308.73 217.315 308.363 217.784 308.115 218.402C307.874 219.021 307.754 219.783 307.754 220.688C307.754 221.553 307.871 222.292 308.105 222.904C308.346 223.516 308.701 223.985 309.17 224.311C309.645 224.63 310.238 224.789 310.947 224.789C311.514 224.789 312.025 224.73 312.48 224.613C312.936 224.49 313.35 224.346 313.721 224.184V225.629C313.363 225.811 312.962 225.951 312.52 226.049C312.083 226.146 311.562 226.195 310.957 226.195ZM325.605 222.689H323.467V226H321.885V222.689H314.98V221.322L321.777 211.645H323.467V221.225H325.605V222.689ZM321.885 221.225V216.557C321.885 216.199 321.888 215.876 321.895 215.59C321.901 215.297 321.911 215.027 321.924 214.779C321.937 214.525 321.947 214.285 321.953 214.057C321.966 213.829 321.976 213.604 321.982 213.383H321.904C321.781 213.643 321.637 213.92 321.475 214.213C321.318 214.499 321.159 214.757 320.996 214.984L316.592 221.225H321.885ZM332.471 216.566H329.805V226H328.184V216.566H326.289V215.785L328.184 215.248V214.535C328.184 213.637 328.317 212.908 328.584 212.348C328.851 211.781 329.238 211.365 329.746 211.098C330.254 210.831 330.872 210.697 331.602 210.697C332.012 210.697 332.386 210.733 332.725 210.805C333.07 210.876 333.372 210.958 333.633 211.049L333.213 212.328C332.992 212.257 332.741 212.191 332.461 212.133C332.188 212.068 331.908 212.035 331.621 212.035C331.003 212.035 330.544 212.237 330.244 212.641C329.951 213.038 329.805 213.663 329.805 214.516V215.297H332.471V216.566ZM339.199 216.566H336.533V226H334.912V216.566H333.018V215.785L334.912 215.248V214.535C334.912 213.637 335.046 212.908 335.312 212.348C335.579 211.781 335.967 211.365 336.475 211.098C336.982 210.831 337.601 210.697 338.33 210.697C338.74 210.697 339.115 210.733 339.453 210.805C339.798 210.876 340.101 210.958 340.361 211.049L339.941 212.328C339.72 212.257 339.469 212.191 339.189 212.133C338.916 212.068 338.636 212.035 338.35 212.035C337.731 212.035 337.272 212.237 336.973 212.641C336.68 213.038 336.533 213.663 336.533 214.516V215.297H339.199V216.566ZM340.586 219.896C340.586 219.037 340.645 218.197 340.762 217.377C340.885 216.557 341.09 215.795 341.377 215.092C341.663 214.382 342.054 213.76 342.549 213.227C343.044 212.693 343.659 212.276 344.395 211.977C345.137 211.671 346.025 211.518 347.061 211.518C347.354 211.518 347.669 211.534 348.008 211.566C348.346 211.592 348.626 211.638 348.848 211.703V213.1C348.607 213.015 348.33 212.953 348.018 212.914C347.712 212.875 347.402 212.855 347.09 212.855C345.879 212.855 344.925 213.119 344.229 213.646C343.538 214.174 343.04 214.89 342.734 215.795C342.428 216.693 342.253 217.706 342.207 218.832H342.314C342.516 218.507 342.773 218.214 343.086 217.953C343.398 217.686 343.776 217.475 344.219 217.318C344.668 217.162 345.189 217.084 345.781 217.084C346.615 217.084 347.34 217.253 347.959 217.592C348.584 217.93 349.066 218.422 349.404 219.066C349.749 219.711 349.922 220.492 349.922 221.41C349.922 222.393 349.74 223.243 349.375 223.959C349.01 224.675 348.49 225.229 347.812 225.619C347.142 226.003 346.341 226.195 345.41 226.195C344.714 226.195 344.072 226.062 343.486 225.795C342.9 225.528 342.389 225.131 341.953 224.604C341.523 224.076 341.188 223.422 340.947 222.641C340.706 221.853 340.586 220.938 340.586 219.896ZM345.391 224.828C346.276 224.828 346.986 224.545 347.52 223.979C348.053 223.412 348.32 222.556 348.32 221.41C348.32 220.473 348.083 219.73 347.607 219.184C347.132 218.637 346.416 218.363 345.459 218.363C344.808 218.363 344.242 218.5 343.76 218.773C343.278 219.04 342.904 219.379 342.637 219.789C342.37 220.199 342.236 220.616 342.236 221.039C342.236 221.469 342.298 221.905 342.422 222.348C342.552 222.79 342.747 223.201 343.008 223.578C343.268 223.956 343.597 224.258 343.994 224.486C344.391 224.714 344.857 224.828 345.391 224.828ZM354.229 210.805V214.604C354.229 215.04 354.215 215.463 354.189 215.873C354.17 216.283 354.154 216.602 354.141 216.83H354.229C354.521 216.348 354.945 215.941 355.498 215.609C356.051 215.277 356.758 215.111 357.617 215.111C358.958 215.111 360.026 215.577 360.82 216.508C361.621 217.432 362.021 218.809 362.021 220.639C362.021 221.843 361.839 222.859 361.475 223.686C361.11 224.512 360.596 225.137 359.932 225.561C359.268 225.984 358.483 226.195 357.578 226.195C356.732 226.195 356.035 226.039 355.488 225.727C354.948 225.408 354.531 225.02 354.238 224.564H354.111L353.779 226H352.607V210.805H354.229ZM357.354 216.469C356.579 216.469 355.964 216.622 355.508 216.928C355.052 217.227 354.723 217.683 354.521 218.295C354.326 218.9 354.229 219.669 354.229 220.6V220.688C354.229 222.035 354.453 223.067 354.902 223.783C355.352 224.493 356.169 224.848 357.354 224.848C358.35 224.848 359.095 224.483 359.59 223.754C360.091 223.025 360.342 221.983 360.342 220.629C360.342 219.249 360.094 218.21 359.6 217.514C359.111 216.817 358.363 216.469 357.354 216.469ZM368.975 215.102C369.886 215.102 370.667 215.303 371.318 215.707C371.969 216.111 372.467 216.677 372.812 217.406C373.158 218.129 373.33 218.975 373.33 219.945V220.951H365.938C365.957 222.208 366.27 223.165 366.875 223.822C367.48 224.48 368.333 224.809 369.434 224.809C370.111 224.809 370.71 224.747 371.23 224.623C371.751 224.499 372.292 224.317 372.852 224.076V225.502C372.311 225.743 371.774 225.919 371.24 226.029C370.713 226.14 370.088 226.195 369.365 226.195C368.337 226.195 367.438 225.987 366.67 225.57C365.908 225.147 365.316 224.529 364.893 223.715C364.469 222.901 364.258 221.905 364.258 220.727C364.258 219.574 364.45 218.578 364.834 217.738C365.225 216.892 365.771 216.241 366.475 215.785C367.184 215.329 368.018 215.102 368.975 215.102ZM368.955 216.43C368.089 216.43 367.399 216.713 366.885 217.279C366.37 217.846 366.064 218.637 365.967 219.652H371.631C371.624 219.014 371.523 218.454 371.328 217.973C371.139 217.484 370.85 217.107 370.459 216.84C370.068 216.566 369.567 216.43 368.955 216.43ZM375.176 221.352V219.906H380.02V221.352H375.176ZM387.598 215.102C388.867 215.102 389.827 215.414 390.479 216.039C391.13 216.658 391.455 217.654 391.455 219.027V226H389.854V219.135C389.854 218.243 389.648 217.576 389.238 217.133C388.835 216.69 388.213 216.469 387.373 216.469C386.188 216.469 385.355 216.804 384.873 217.475C384.391 218.145 384.15 219.118 384.15 220.395V226H382.529V215.297H383.838L384.082 216.84H384.17C384.398 216.462 384.688 216.146 385.039 215.893C385.391 215.632 385.785 215.437 386.221 215.307C386.657 215.17 387.116 215.102 387.598 215.102ZM403.633 215.297V226H402.305L402.07 224.496H401.982C401.761 224.867 401.475 225.18 401.123 225.434C400.771 225.688 400.374 225.876 399.932 226C399.495 226.13 399.03 226.195 398.535 226.195C397.689 226.195 396.979 226.059 396.406 225.785C395.833 225.512 395.4 225.089 395.107 224.516C394.821 223.943 394.678 223.207 394.678 222.309V215.297H396.318V222.191C396.318 223.083 396.52 223.751 396.924 224.193C397.327 224.63 397.943 224.848 398.77 224.848C399.564 224.848 400.195 224.698 400.664 224.398C401.139 224.099 401.481 223.66 401.689 223.08C401.898 222.494 402.002 221.778 402.002 220.932V215.297H403.633ZM411.348 226.195C410.384 226.195 409.535 225.997 408.799 225.6C408.063 225.202 407.49 224.597 407.08 223.783C406.67 222.969 406.465 221.944 406.465 220.707C406.465 219.411 406.68 218.354 407.109 217.533C407.546 216.706 408.145 216.094 408.906 215.697C409.668 215.3 410.534 215.102 411.504 215.102C412.038 215.102 412.552 215.157 413.047 215.268C413.548 215.372 413.958 215.505 414.277 215.668L413.789 217.025C413.464 216.895 413.086 216.778 412.656 216.674C412.233 216.57 411.836 216.518 411.465 216.518C410.723 216.518 410.104 216.677 409.609 216.996C409.121 217.315 408.753 217.784 408.506 218.402C408.265 219.021 408.145 219.783 408.145 220.688C408.145 221.553 408.262 222.292 408.496 222.904C408.737 223.516 409.092 223.985 409.561 224.311C410.036 224.63 410.628 224.789 411.338 224.789C411.904 224.789 412.415 224.73 412.871 224.613C413.327 224.49 413.74 224.346 414.111 224.184V225.629C413.753 225.811 413.353 225.951 412.91 226.049C412.474 226.146 411.953 226.195 411.348 226.195Z" fill="#787B91"/>
<path d="M50.1172 193.113C50.1172 193.96 49.9089 194.689 49.4922 195.301C49.082 195.913 48.4896 196.382 47.7148 196.707C46.9466 197.033 46.0286 197.195 44.9609 197.195C44.4401 197.195 43.9421 197.166 43.4668 197.107C42.9915 197.049 42.5423 196.964 42.1191 196.854C41.7025 196.736 41.3216 196.596 40.9766 196.434V194.227C41.556 194.48 42.2038 194.712 42.9199 194.92C43.6361 195.122 44.3652 195.223 45.1074 195.223C45.7129 195.223 46.2142 195.145 46.6113 194.988C47.015 194.826 47.3145 194.598 47.5098 194.305C47.7051 194.005 47.8027 193.657 47.8027 193.26C47.8027 192.837 47.6888 192.479 47.4609 192.186C47.2331 191.893 46.888 191.626 46.4258 191.385C45.9701 191.137 45.3971 190.874 44.707 190.594C44.2383 190.405 43.7891 190.19 43.3594 189.949C42.9362 189.708 42.5586 189.425 42.2266 189.1C41.8945 188.774 41.6309 188.39 41.4355 187.947C41.2467 187.498 41.1523 186.971 41.1523 186.365C41.1523 185.558 41.3444 184.868 41.7285 184.295C42.1191 183.722 42.666 183.283 43.3691 182.977C44.0788 182.671 44.9056 182.518 45.8496 182.518C46.5983 182.518 47.3014 182.596 47.959 182.752C48.623 182.908 49.2741 183.13 49.9121 183.416L49.1699 185.301C48.584 185.06 48.0143 184.868 47.4609 184.725C46.9141 184.581 46.3542 184.51 45.7812 184.51C45.2865 184.51 44.8665 184.585 44.5215 184.734C44.1764 184.884 43.9128 185.096 43.7305 185.369C43.5547 185.636 43.4668 185.955 43.4668 186.326C43.4668 186.743 43.5677 187.094 43.7695 187.381C43.9779 187.661 44.2969 187.918 44.7266 188.152C45.1628 188.387 45.7227 188.647 46.4062 188.934C47.194 189.259 47.8613 189.601 48.4082 189.959C48.9616 190.317 49.3848 190.747 49.6777 191.248C49.9707 191.743 50.1172 192.365 50.1172 193.113ZM62.207 191.57C62.207 192.469 62.0898 193.266 61.8555 193.963C61.6211 194.66 61.2793 195.249 60.8301 195.73C60.3809 196.206 59.8405 196.57 59.209 196.824C58.5775 197.072 57.8646 197.195 57.0703 197.195C56.3281 197.195 55.6478 197.072 55.0293 196.824C54.4108 196.57 53.8737 196.206 53.418 195.73C52.9688 195.249 52.6204 194.66 52.373 193.963C52.1257 193.266 52.002 192.469 52.002 191.57C52.002 190.379 52.207 189.37 52.6172 188.543C53.0339 187.71 53.6263 187.075 54.3945 186.639C55.1628 186.202 56.0775 185.984 57.1387 185.984C58.1348 185.984 59.0137 186.202 59.7754 186.639C60.5371 187.075 61.1328 187.71 61.5625 188.543C61.9922 189.376 62.207 190.385 62.207 191.57ZM54.3652 191.57C54.3652 192.358 54.4596 193.032 54.6484 193.592C54.8438 194.152 55.1432 194.581 55.5469 194.881C55.9505 195.174 56.4714 195.32 57.1094 195.32C57.7474 195.32 58.2682 195.174 58.6719 194.881C59.0755 194.581 59.3717 194.152 59.5605 193.592C59.7493 193.032 59.8438 192.358 59.8438 191.57C59.8438 190.783 59.7493 190.115 59.5605 189.568C59.3717 189.015 59.0755 188.595 58.6719 188.309C58.2682 188.016 57.7441 187.869 57.0996 187.869C56.1491 187.869 55.4557 188.188 55.0195 188.826C54.5833 189.464 54.3652 190.379 54.3652 191.57ZM70.2441 187.938H67.6172V197H65.3223V187.938H63.5547V186.834L65.3223 186.16V185.408C65.3223 184.49 65.4655 183.761 65.752 183.221C66.0449 182.68 66.4616 182.293 67.002 182.059C67.5488 181.818 68.1999 181.697 68.9551 181.697C69.4499 181.697 69.9023 181.74 70.3125 181.824C70.7227 181.902 71.0677 181.993 71.3477 182.098L70.752 183.836C70.5306 183.764 70.2832 183.699 70.0098 183.641C69.7363 183.576 69.4434 183.543 69.1309 183.543C68.61 183.543 68.2259 183.706 67.9785 184.031C67.7376 184.357 67.6172 184.832 67.6172 185.457V186.189H70.2441V187.938ZM76.1133 195.34C76.4128 195.34 76.709 195.314 77.002 195.262C77.2949 195.203 77.5618 195.135 77.8027 195.057V196.795C77.5488 196.906 77.2201 197 76.8164 197.078C76.4128 197.156 75.9928 197.195 75.5566 197.195C74.9447 197.195 74.3945 197.094 73.9062 196.893C73.418 196.684 73.0306 196.329 72.7441 195.828C72.4577 195.327 72.3145 194.633 72.3145 193.748V187.938H70.8398V186.912L72.4219 186.102L73.1738 183.787H74.6191V186.189H77.7148V187.938H74.6191V193.719C74.6191 194.266 74.7559 194.673 75.0293 194.939C75.3027 195.206 75.6641 195.34 76.1133 195.34ZM88.8379 196.99L87.4707 191.961C87.4056 191.714 87.3275 191.414 87.2363 191.062C87.1452 190.711 87.054 190.35 86.9629 189.979C86.8717 189.601 86.7871 189.253 86.709 188.934C86.6374 188.615 86.582 188.367 86.543 188.191H86.4648C86.4323 188.367 86.3802 188.615 86.3086 188.934C86.237 189.253 86.1556 189.601 86.0645 189.979C85.9733 190.356 85.8822 190.724 85.791 191.082C85.7064 191.44 85.6283 191.746 85.5566 192L84.1211 196.99H81.6016L78.5742 186.18H80.8984L82.3047 191.551C82.3958 191.915 82.4837 192.309 82.5684 192.732C82.6595 193.156 82.7376 193.559 82.8027 193.943C82.8678 194.327 82.9167 194.643 82.9492 194.891H83.0273C83.0534 194.715 83.0892 194.493 83.1348 194.227C83.1803 193.953 83.2324 193.67 83.291 193.377C83.3496 193.077 83.4082 192.798 83.4668 192.537C83.5254 192.27 83.5807 192.055 83.6328 191.893L85.293 186.18H87.8027L89.3945 191.893C89.4661 192.14 89.5443 192.452 89.6289 192.83C89.7135 193.201 89.7884 193.576 89.8535 193.953C89.9251 194.324 89.9707 194.633 89.9902 194.881H90.0684C90.0944 194.66 90.14 194.36 90.2051 193.982C90.2767 193.598 90.3581 193.191 90.4492 192.762C90.5404 192.326 90.6348 191.922 90.7324 191.551L92.168 186.18H94.4531L91.4062 196.99H88.8379ZM100.547 185.984C101.914 185.984 102.946 186.287 103.643 186.893C104.346 187.498 104.697 188.442 104.697 189.725V197H103.066L102.627 195.467H102.549C102.243 195.857 101.927 196.18 101.602 196.434C101.276 196.688 100.898 196.876 100.469 197C100.046 197.13 99.528 197.195 98.916 197.195C98.2715 197.195 97.6953 197.078 97.1875 196.844C96.6797 196.603 96.2793 196.238 95.9863 195.75C95.6934 195.262 95.5469 194.643 95.5469 193.895C95.5469 192.781 95.9603 191.945 96.7871 191.385C97.6204 190.825 98.877 190.516 100.557 190.457L102.432 190.389V189.822C102.432 189.074 102.256 188.54 101.904 188.221C101.559 187.902 101.071 187.742 100.439 187.742C99.8991 187.742 99.375 187.82 98.8672 187.977C98.3594 188.133 97.8646 188.325 97.3828 188.553L96.6406 186.932C97.168 186.652 97.7669 186.424 98.4375 186.248C99.1146 186.072 99.8177 185.984 100.547 185.984ZM102.422 191.834L101.025 191.883C99.8796 191.922 99.0755 192.117 98.6133 192.469C98.151 192.82 97.9199 193.302 97.9199 193.914C97.9199 194.448 98.0794 194.839 98.3984 195.086C98.7174 195.327 99.1374 195.447 99.6582 195.447C100.452 195.447 101.11 195.223 101.631 194.773C102.158 194.318 102.422 193.65 102.422 192.771V191.834ZM113.389 185.984C113.571 185.984 113.77 185.994 113.984 186.014C114.199 186.033 114.385 186.059 114.541 186.092L114.326 188.24C114.189 188.201 114.02 188.172 113.818 188.152C113.623 188.133 113.447 188.123 113.291 188.123C112.881 188.123 112.49 188.191 112.119 188.328C111.748 188.458 111.419 188.66 111.133 188.934C110.846 189.201 110.622 189.536 110.459 189.939C110.296 190.343 110.215 190.812 110.215 191.346V197H107.91V186.189H109.707L110.02 188.094H110.127C110.342 187.71 110.609 187.358 110.928 187.039C111.247 186.72 111.611 186.466 112.021 186.277C112.438 186.082 112.894 185.984 113.389 185.984ZM120.85 185.984C121.813 185.984 122.64 186.183 123.33 186.58C124.02 186.977 124.551 187.54 124.922 188.27C125.293 188.999 125.479 189.871 125.479 190.887V192.117H118.262C118.288 193.165 118.568 193.973 119.102 194.539C119.642 195.105 120.397 195.389 121.367 195.389C122.057 195.389 122.676 195.324 123.223 195.193C123.776 195.057 124.346 194.858 124.932 194.598V196.463C124.391 196.717 123.841 196.902 123.281 197.02C122.721 197.137 122.051 197.195 121.27 197.195C120.208 197.195 119.274 196.99 118.467 196.58C117.666 196.163 117.038 195.545 116.582 194.725C116.133 193.904 115.908 192.885 115.908 191.668C115.908 190.457 116.113 189.428 116.523 188.582C116.934 187.736 117.51 187.091 118.252 186.648C118.994 186.206 119.86 185.984 120.85 185.984ZM120.85 187.713C120.127 187.713 119.541 187.947 119.092 188.416C118.649 188.885 118.389 189.572 118.311 190.477H123.232C123.226 189.936 123.135 189.458 122.959 189.041C122.79 188.624 122.529 188.299 122.178 188.064C121.833 187.83 121.39 187.713 120.85 187.713ZM144.082 182.723L139.092 197H136.611L131.621 182.723H134.023L137.031 191.668C137.122 191.928 137.22 192.244 137.324 192.615C137.435 192.986 137.536 193.361 137.627 193.738C137.725 194.116 137.799 194.451 137.852 194.744C137.904 194.451 137.975 194.116 138.066 193.738C138.164 193.361 138.265 192.986 138.369 192.615C138.473 192.244 138.571 191.925 138.662 191.658L141.68 182.723H144.082ZM150.029 185.984C150.993 185.984 151.82 186.183 152.51 186.58C153.2 186.977 153.73 187.54 154.102 188.27C154.473 188.999 154.658 189.871 154.658 190.887V192.117H147.441C147.467 193.165 147.747 193.973 148.281 194.539C148.822 195.105 149.577 195.389 150.547 195.389C151.237 195.389 151.855 195.324 152.402 195.193C152.956 195.057 153.525 194.858 154.111 194.598V196.463C153.571 196.717 153.021 196.902 152.461 197.02C151.901 197.137 151.23 197.195 150.449 197.195C149.388 197.195 148.454 196.99 147.646 196.58C146.846 196.163 146.217 195.545 145.762 194.725C145.312 193.904 145.088 192.885 145.088 191.668C145.088 190.457 145.293 189.428 145.703 188.582C146.113 187.736 146.689 187.091 147.432 186.648C148.174 186.206 149.04 185.984 150.029 185.984ZM150.029 187.713C149.307 187.713 148.721 187.947 148.271 188.416C147.829 188.885 147.568 189.572 147.49 190.477H152.412C152.406 189.936 152.314 189.458 152.139 189.041C151.969 188.624 151.709 188.299 151.357 188.064C151.012 187.83 150.57 187.713 150.029 187.713ZM162.725 185.984C162.907 185.984 163.105 185.994 163.32 186.014C163.535 186.033 163.721 186.059 163.877 186.092L163.662 188.24C163.525 188.201 163.356 188.172 163.154 188.152C162.959 188.133 162.783 188.123 162.627 188.123C162.217 188.123 161.826 188.191 161.455 188.328C161.084 188.458 160.755 188.66 160.469 188.934C160.182 189.201 159.958 189.536 159.795 189.939C159.632 190.343 159.551 190.812 159.551 191.346V197H157.246V186.189H159.043L159.355 188.094H159.463C159.678 187.71 159.945 187.358 160.264 187.039C160.583 186.72 160.947 186.466 161.357 186.277C161.774 186.082 162.23 185.984 162.725 185.984ZM173.145 193.914C173.145 194.624 172.972 195.223 172.627 195.711C172.282 196.199 171.777 196.57 171.113 196.824C170.456 197.072 169.648 197.195 168.691 197.195C167.936 197.195 167.285 197.14 166.738 197.029C166.198 196.925 165.687 196.762 165.205 196.541V194.559C165.719 194.799 166.296 195.008 166.934 195.184C167.578 195.359 168.187 195.447 168.76 195.447C169.515 195.447 170.059 195.33 170.391 195.096C170.723 194.855 170.889 194.536 170.889 194.139C170.889 193.904 170.82 193.696 170.684 193.514C170.553 193.325 170.306 193.133 169.941 192.938C169.583 192.736 169.056 192.495 168.359 192.215C167.676 191.941 167.1 191.668 166.631 191.395C166.162 191.121 165.807 190.792 165.566 190.408C165.326 190.018 165.205 189.52 165.205 188.914C165.205 187.957 165.583 187.231 166.338 186.736C167.1 186.235 168.105 185.984 169.355 185.984C170.02 185.984 170.645 186.053 171.23 186.189C171.823 186.32 172.402 186.512 172.969 186.766L172.246 188.494C171.758 188.279 171.266 188.104 170.771 187.967C170.283 187.824 169.785 187.752 169.277 187.752C168.685 187.752 168.232 187.843 167.92 188.025C167.614 188.208 167.461 188.468 167.461 188.807C167.461 189.061 167.536 189.275 167.686 189.451C167.835 189.627 168.092 189.803 168.457 189.979C168.828 190.154 169.342 190.372 170 190.633C170.645 190.88 171.201 191.141 171.67 191.414C172.145 191.681 172.51 192.01 172.764 192.4C173.018 192.791 173.145 193.296 173.145 193.914ZM177.92 186.189V197H175.625V186.189H177.92ZM176.787 182.049C177.139 182.049 177.441 182.143 177.695 182.332C177.956 182.521 178.086 182.846 178.086 183.309C178.086 183.764 177.956 184.09 177.695 184.285C177.441 184.474 177.139 184.568 176.787 184.568C176.423 184.568 176.113 184.474 175.859 184.285C175.612 184.09 175.488 183.764 175.488 183.309C175.488 182.846 175.612 182.521 175.859 182.332C176.113 182.143 176.423 182.049 176.787 182.049ZM190.781 191.57C190.781 192.469 190.664 193.266 190.43 193.963C190.195 194.66 189.854 195.249 189.404 195.73C188.955 196.206 188.415 196.57 187.783 196.824C187.152 197.072 186.439 197.195 185.645 197.195C184.902 197.195 184.222 197.072 183.604 196.824C182.985 196.57 182.448 196.206 181.992 195.73C181.543 195.249 181.195 194.66 180.947 193.963C180.7 193.266 180.576 192.469 180.576 191.57C180.576 190.379 180.781 189.37 181.191 188.543C181.608 187.71 182.201 187.075 182.969 186.639C183.737 186.202 184.652 185.984 185.713 185.984C186.709 185.984 187.588 186.202 188.35 186.639C189.111 187.075 189.707 187.71 190.137 188.543C190.566 189.376 190.781 190.385 190.781 191.57ZM182.939 191.57C182.939 192.358 183.034 193.032 183.223 193.592C183.418 194.152 183.717 194.581 184.121 194.881C184.525 195.174 185.046 195.32 185.684 195.32C186.322 195.32 186.842 195.174 187.246 194.881C187.65 194.581 187.946 194.152 188.135 193.592C188.324 193.032 188.418 192.358 188.418 191.57C188.418 190.783 188.324 190.115 188.135 189.568C187.946 189.015 187.65 188.595 187.246 188.309C186.842 188.016 186.318 187.869 185.674 187.869C184.723 187.869 184.03 188.188 183.594 188.826C183.158 189.464 182.939 190.379 182.939 191.57ZM199.053 185.984C200.27 185.984 201.217 186.3 201.895 186.932C202.578 187.557 202.92 188.562 202.92 189.949V197H200.625V190.379C200.625 189.539 200.452 188.911 200.107 188.494C199.762 188.071 199.229 187.859 198.506 187.859C197.458 187.859 196.729 188.182 196.318 188.826C195.915 189.471 195.713 190.405 195.713 191.629V197H193.418V186.189H195.205L195.527 187.654H195.654C195.889 187.277 196.178 186.967 196.523 186.727C196.875 186.479 197.266 186.294 197.695 186.17C198.132 186.046 198.584 185.984 199.053 185.984Z" fill="#787B91"/>
<path d="M44.0625 298L40 287.297H41.7383L44.0918 293.771C44.2546 294.214 44.4206 294.702 44.5898 295.236C44.7591 295.77 44.8763 296.2 44.9414 296.525H45.0098C45.0879 296.2 45.2181 295.77 45.4004 295.236C45.5827 294.696 45.7487 294.208 45.8984 293.771L48.252 287.297H49.9902L45.918 298H44.0625ZM57.0215 298H55.4395V287.883C55.4395 287.499 55.4395 287.17 55.4395 286.896C55.446 286.617 55.4525 286.363 55.459 286.135C55.472 285.9 55.4883 285.663 55.5078 285.422C55.306 285.63 55.1172 285.809 54.9414 285.959C54.7656 286.102 54.5475 286.281 54.2871 286.496L52.6562 287.805L51.8066 286.701L55.6738 283.723H57.0215V298ZM62.9102 296.984C62.9102 296.529 63.0208 296.206 63.2422 296.018C63.4635 295.822 63.7337 295.725 64.0527 295.725C64.3848 295.725 64.6647 295.822 64.8926 296.018C65.1204 296.206 65.2344 296.529 65.2344 296.984C65.2344 297.434 65.1204 297.762 64.8926 297.971C64.6647 298.173 64.3848 298.273 64.0527 298.273C63.7337 298.273 63.4635 298.173 63.2422 297.971C63.0208 297.762 62.9102 297.434 62.9102 296.984ZM72.4023 283.518C73.2292 283.518 73.9616 283.648 74.5996 283.908C75.2376 284.169 75.7357 284.553 76.0938 285.061C76.4583 285.562 76.6406 286.18 76.6406 286.916C76.6406 287.495 76.5137 288.003 76.2598 288.439C76.0124 288.869 75.6771 289.247 75.2539 289.572C74.8307 289.891 74.362 290.178 73.8477 290.432C74.4596 290.712 75.0098 291.027 75.498 291.379C75.9928 291.73 76.3835 292.144 76.6699 292.619C76.9564 293.094 77.0996 293.658 77.0996 294.309C77.0996 295.109 76.9043 295.803 76.5137 296.389C76.1296 296.968 75.5892 297.414 74.8926 297.727C74.196 298.039 73.3789 298.195 72.4414 298.195C71.4323 298.195 70.5729 298.046 69.8633 297.746C69.1602 297.44 68.623 297.004 68.252 296.438C67.8874 295.865 67.7051 295.178 67.7051 294.377C67.7051 293.719 67.8451 293.15 68.125 292.668C68.4049 292.18 68.776 291.76 69.2383 291.408C69.7005 291.057 70.2051 290.76 70.752 290.52C70.2767 290.259 69.8405 289.963 69.4434 289.631C69.0527 289.299 68.7402 288.911 68.5059 288.469C68.278 288.02 68.1641 287.499 68.1641 286.906C68.1641 286.184 68.3464 285.572 68.7109 285.07C69.082 284.562 69.5866 284.178 70.2246 283.918C70.8691 283.651 71.5951 283.518 72.4023 283.518ZM69.2969 294.387C69.2969 295.116 69.554 295.718 70.0684 296.193C70.5827 296.662 71.3607 296.896 72.4023 296.896C73.3919 296.896 74.1569 296.662 74.6973 296.193C75.2376 295.718 75.5078 295.096 75.5078 294.328C75.5078 293.853 75.3841 293.436 75.1367 293.078C74.8893 292.714 74.5378 292.388 74.082 292.102C73.6263 291.815 73.0892 291.555 72.4707 291.32L72.1191 291.193C71.5202 291.441 71.0091 291.717 70.5859 292.023C70.1693 292.323 69.8503 292.665 69.6289 293.049C69.4076 293.433 69.2969 293.879 69.2969 294.387ZM72.3828 284.846C71.6146 284.846 70.9863 285.031 70.498 285.402C70.0098 285.767 69.7656 286.294 69.7656 286.984C69.7656 287.479 69.8828 287.899 70.1172 288.244C70.3581 288.583 70.6836 288.876 71.0938 289.123C71.5039 289.364 71.9629 289.589 72.4707 289.797C72.9655 289.589 73.4049 289.361 73.7891 289.113C74.1732 288.859 74.4759 288.56 74.6973 288.215C74.9186 287.87 75.0293 287.456 75.0293 286.975C75.0293 286.285 74.7852 285.757 74.2969 285.393C73.8151 285.028 73.1771 284.846 72.3828 284.846ZM79.6094 296.984C79.6094 296.529 79.7201 296.206 79.9414 296.018C80.1628 295.822 80.4329 295.725 80.752 295.725C81.084 295.725 81.3639 295.822 81.5918 296.018C81.8197 296.206 81.9336 296.529 81.9336 296.984C81.9336 297.434 81.8197 297.762 81.5918 297.971C81.3639 298.173 81.084 298.273 80.752 298.273C80.4329 298.273 80.1628 298.173 79.9414 297.971C79.7201 297.762 79.6094 297.434 79.6094 296.984ZM90.4199 298H88.8379V287.883C88.8379 287.499 88.8379 287.17 88.8379 286.896C88.8444 286.617 88.8509 286.363 88.8574 286.135C88.8704 285.9 88.8867 285.663 88.9062 285.422C88.7044 285.63 88.5156 285.809 88.3398 285.959C88.1641 286.102 87.946 286.281 87.6855 286.496L86.0547 287.805L85.2051 286.701L89.0723 283.723H90.4199V298ZM95.6445 293.352V291.906H100.488V293.352H95.6445ZM107.002 287.121C108.278 287.121 109.225 287.408 109.844 287.98C110.462 288.553 110.771 289.468 110.771 290.725V298H109.59L109.277 296.418H109.199C108.9 296.809 108.587 297.137 108.262 297.404C107.936 297.665 107.559 297.863 107.129 298C106.706 298.13 106.185 298.195 105.566 298.195C104.915 298.195 104.336 298.081 103.828 297.854C103.327 297.626 102.93 297.281 102.637 296.818C102.35 296.356 102.207 295.77 102.207 295.061C102.207 293.993 102.63 293.173 103.477 292.6C104.323 292.027 105.612 291.714 107.344 291.662L109.189 291.584V290.93C109.189 290.005 108.991 289.357 108.594 288.986C108.197 288.615 107.637 288.43 106.914 288.43C106.354 288.43 105.82 288.511 105.312 288.674C104.805 288.837 104.323 289.029 103.867 289.25L103.369 288.02C103.851 287.772 104.404 287.561 105.029 287.385C105.654 287.209 106.312 287.121 107.002 287.121ZM109.17 292.727L107.539 292.795C106.204 292.847 105.264 293.065 104.717 293.449C104.17 293.833 103.896 294.377 103.896 295.08C103.896 295.692 104.082 296.145 104.453 296.438C104.824 296.73 105.316 296.877 105.928 296.877C106.878 296.877 107.656 296.613 108.262 296.086C108.867 295.559 109.17 294.768 109.17 293.713V292.727ZM115.742 298H114.111V282.805H115.742V298ZM124.199 287.102C125.534 287.102 126.598 287.561 127.393 288.479C128.187 289.396 128.584 290.777 128.584 292.619C128.584 293.837 128.402 294.859 128.037 295.686C127.673 296.512 127.158 297.137 126.494 297.561C125.837 297.984 125.059 298.195 124.16 298.195C123.594 298.195 123.096 298.12 122.666 297.971C122.236 297.821 121.868 297.619 121.562 297.365C121.257 297.111 121.003 296.835 120.801 296.535H120.684C120.703 296.789 120.726 297.095 120.752 297.453C120.785 297.811 120.801 298.124 120.801 298.391V302.785H119.17V287.297H120.508L120.723 288.879H120.801C121.009 288.553 121.263 288.257 121.562 287.99C121.862 287.717 122.227 287.502 122.656 287.346C123.092 287.183 123.607 287.102 124.199 287.102ZM123.916 288.469C123.174 288.469 122.575 288.612 122.119 288.898C121.67 289.185 121.341 289.615 121.133 290.188C120.924 290.754 120.814 291.467 120.801 292.326V292.639C120.801 293.544 120.898 294.309 121.094 294.934C121.296 295.559 121.624 296.034 122.08 296.359C122.542 296.685 123.161 296.848 123.936 296.848C124.6 296.848 125.153 296.669 125.596 296.311C126.038 295.952 126.367 295.454 126.582 294.816C126.803 294.172 126.914 293.433 126.914 292.6C126.914 291.337 126.667 290.334 126.172 289.592C125.684 288.843 124.932 288.469 123.916 288.469ZM133.037 282.805V287.346C133.037 287.606 133.031 287.87 133.018 288.137C133.005 288.397 132.982 288.638 132.949 288.859H133.057C133.278 288.482 133.558 288.166 133.896 287.912C134.242 287.652 134.632 287.456 135.068 287.326C135.505 287.189 135.967 287.121 136.455 287.121C137.314 287.121 138.031 287.258 138.604 287.531C139.183 287.805 139.616 288.228 139.902 288.801C140.195 289.374 140.342 290.116 140.342 291.027V298H138.74V291.135C138.74 290.243 138.535 289.576 138.125 289.133C137.721 288.69 137.1 288.469 136.26 288.469C135.465 288.469 134.831 288.622 134.355 288.928C133.887 289.227 133.548 289.67 133.34 290.256C133.138 290.842 133.037 291.558 133.037 292.404V298H131.416V282.805H133.037ZM147.686 287.121C148.962 287.121 149.909 287.408 150.527 287.98C151.146 288.553 151.455 289.468 151.455 290.725V298H150.273L149.961 296.418H149.883C149.583 296.809 149.271 297.137 148.945 297.404C148.62 297.665 148.242 297.863 147.812 298C147.389 298.13 146.868 298.195 146.25 298.195C145.599 298.195 145.02 298.081 144.512 297.854C144.01 297.626 143.613 297.281 143.32 296.818C143.034 296.356 142.891 295.77 142.891 295.061C142.891 293.993 143.314 293.173 144.16 292.6C145.007 292.027 146.296 291.714 148.027 291.662L149.873 291.584V290.93C149.873 290.005 149.674 289.357 149.277 288.986C148.88 288.615 148.32 288.43 147.598 288.43C147.038 288.43 146.504 288.511 145.996 288.674C145.488 288.837 145.007 289.029 144.551 289.25L144.053 288.02C144.535 287.772 145.088 287.561 145.713 287.385C146.338 287.209 146.995 287.121 147.686 287.121ZM149.854 292.727L148.223 292.795C146.888 292.847 145.947 293.065 145.4 293.449C144.854 293.833 144.58 294.377 144.58 295.08C144.58 295.692 144.766 296.145 145.137 296.438C145.508 296.73 145.999 296.877 146.611 296.877C147.562 296.877 148.34 296.613 148.945 296.086C149.551 295.559 149.854 294.768 149.854 293.713V292.727ZM163.428 298H154.072V296.643L157.891 292.766C158.6 292.049 159.196 291.411 159.678 290.852C160.166 290.292 160.537 289.742 160.791 289.201C161.045 288.654 161.172 288.055 161.172 287.404C161.172 286.597 160.931 285.982 160.449 285.559C159.974 285.129 159.346 284.914 158.564 284.914C157.881 284.914 157.275 285.031 156.748 285.266C156.221 285.5 155.68 285.832 155.127 286.262L154.258 285.168C154.635 284.849 155.046 284.566 155.488 284.318C155.938 284.071 156.416 283.876 156.924 283.732C157.438 283.589 157.985 283.518 158.564 283.518C159.443 283.518 160.202 283.671 160.84 283.977C161.478 284.283 161.969 284.719 162.314 285.285C162.666 285.852 162.842 286.525 162.842 287.307C162.842 288.062 162.692 288.765 162.393 289.416C162.093 290.061 161.673 290.702 161.133 291.34C160.592 291.971 159.961 292.642 159.238 293.352L156.133 296.447V296.516H163.428V298Z" fill="#787B91"/>
<path d="M44.1992 269H41.875V254.723H49.9414V256.695H44.1992V261.148H49.5703V263.111H44.1992V269ZM54.5996 258.189V269H52.3047V258.189H54.5996ZM53.4668 254.049C53.8184 254.049 54.1211 254.143 54.375 254.332C54.6354 254.521 54.7656 254.846 54.7656 255.309C54.7656 255.764 54.6354 256.09 54.375 256.285C54.1211 256.474 53.8184 256.568 53.4668 256.568C53.1022 256.568 52.793 256.474 52.5391 256.285C52.2917 256.09 52.168 255.764 52.168 255.309C52.168 254.846 52.2917 254.521 52.5391 254.332C52.793 254.143 53.1022 254.049 53.4668 254.049ZM63.3691 257.984C63.5514 257.984 63.75 257.994 63.9648 258.014C64.1797 258.033 64.3652 258.059 64.5215 258.092L64.3066 260.24C64.1699 260.201 64.0007 260.172 63.7988 260.152C63.6035 260.133 63.4277 260.123 63.2715 260.123C62.8613 260.123 62.4707 260.191 62.0996 260.328C61.7285 260.458 61.3997 260.66 61.1133 260.934C60.8268 261.201 60.6022 261.536 60.4395 261.939C60.2767 262.343 60.1953 262.812 60.1953 263.346V269H57.8906V258.189H59.6875L60 260.094H60.1074C60.3223 259.71 60.5892 259.358 60.9082 259.039C61.2272 258.72 61.5918 258.466 62.002 258.277C62.4186 258.082 62.8743 257.984 63.3691 257.984ZM78.7402 257.984C79.9512 257.984 80.8626 258.297 81.4746 258.922C82.0931 259.547 82.4023 260.549 82.4023 261.93V269H80.1074V262.34C80.1074 261.52 79.9479 260.901 79.6289 260.484C79.3099 260.068 78.8249 259.859 78.1738 259.859C77.2624 259.859 76.6048 260.152 76.2012 260.738C75.804 261.318 75.6055 262.161 75.6055 263.268V269H73.3105V262.34C73.3105 261.793 73.2389 261.337 73.0957 260.973C72.959 260.602 72.7474 260.325 72.4609 260.143C72.1745 259.954 71.8132 259.859 71.377 259.859C70.7454 259.859 70.2409 260.003 69.8633 260.289C69.4922 260.576 69.2253 260.999 69.0625 261.559C68.8997 262.112 68.8184 262.792 68.8184 263.6V269H66.5234V258.189H68.3105L68.6328 259.645H68.7598C68.9811 259.267 69.2546 258.958 69.5801 258.717C69.9121 258.469 70.2799 258.287 70.6836 258.17C71.0872 258.046 71.5072 257.984 71.9434 257.984C72.7507 257.984 73.431 258.128 73.9844 258.414C74.5378 258.694 74.9512 259.124 75.2246 259.703H75.4004C75.7389 259.117 76.2109 258.684 76.8164 258.404C77.4219 258.124 78.0632 257.984 78.7402 257.984ZM94.4434 268.99L93.0762 263.961C93.0111 263.714 92.9329 263.414 92.8418 263.062C92.7507 262.711 92.6595 262.35 92.5684 261.979C92.4772 261.601 92.3926 261.253 92.3145 260.934C92.2428 260.615 92.1875 260.367 92.1484 260.191H92.0703C92.0378 260.367 91.9857 260.615 91.9141 260.934C91.8424 261.253 91.7611 261.601 91.6699 261.979C91.5788 262.356 91.4876 262.724 91.3965 263.082C91.3118 263.44 91.2337 263.746 91.1621 264L89.7266 268.99H87.207L84.1797 258.18H86.5039L87.9102 263.551C88.0013 263.915 88.0892 264.309 88.1738 264.732C88.265 265.156 88.3431 265.559 88.4082 265.943C88.4733 266.327 88.5221 266.643 88.5547 266.891H88.6328C88.6589 266.715 88.6947 266.493 88.7402 266.227C88.7858 265.953 88.8379 265.67 88.8965 265.377C88.9551 265.077 89.0137 264.798 89.0723 264.537C89.1309 264.27 89.1862 264.055 89.2383 263.893L90.8984 258.18H93.4082L95 263.893C95.0716 264.14 95.1497 264.452 95.2344 264.83C95.319 265.201 95.3939 265.576 95.459 265.953C95.5306 266.324 95.5762 266.633 95.5957 266.881H95.6738C95.6999 266.66 95.7454 266.36 95.8105 265.982C95.8822 265.598 95.9635 265.191 96.0547 264.762C96.1458 264.326 96.2402 263.922 96.3379 263.551L97.7734 258.18H100.059L97.0117 268.99H94.4434ZM106.152 257.984C107.52 257.984 108.551 258.287 109.248 258.893C109.951 259.498 110.303 260.442 110.303 261.725V269H108.672L108.232 267.467H108.154C107.848 267.857 107.533 268.18 107.207 268.434C106.882 268.688 106.504 268.876 106.074 269C105.651 269.13 105.133 269.195 104.521 269.195C103.877 269.195 103.301 269.078 102.793 268.844C102.285 268.603 101.885 268.238 101.592 267.75C101.299 267.262 101.152 266.643 101.152 265.895C101.152 264.781 101.566 263.945 102.393 263.385C103.226 262.825 104.482 262.516 106.162 262.457L108.037 262.389V261.822C108.037 261.074 107.861 260.54 107.51 260.221C107.165 259.902 106.676 259.742 106.045 259.742C105.505 259.742 104.98 259.82 104.473 259.977C103.965 260.133 103.47 260.325 102.988 260.553L102.246 258.932C102.773 258.652 103.372 258.424 104.043 258.248C104.72 258.072 105.423 257.984 106.152 257.984ZM108.027 263.834L106.631 263.883C105.485 263.922 104.681 264.117 104.219 264.469C103.757 264.82 103.525 265.302 103.525 265.914C103.525 266.448 103.685 266.839 104.004 267.086C104.323 267.327 104.743 267.447 105.264 267.447C106.058 267.447 106.715 267.223 107.236 266.773C107.764 266.318 108.027 265.65 108.027 264.771V263.834ZM118.994 257.984C119.176 257.984 119.375 257.994 119.59 258.014C119.805 258.033 119.99 258.059 120.146 258.092L119.932 260.24C119.795 260.201 119.626 260.172 119.424 260.152C119.229 260.133 119.053 260.123 118.896 260.123C118.486 260.123 118.096 260.191 117.725 260.328C117.354 260.458 117.025 260.66 116.738 260.934C116.452 261.201 116.227 261.536 116.064 261.939C115.902 262.343 115.82 262.812 115.82 263.346V269H113.516V258.189H115.312L115.625 260.094H115.732C115.947 259.71 116.214 259.358 116.533 259.039C116.852 258.72 117.217 258.466 117.627 258.277C118.044 258.082 118.499 257.984 118.994 257.984ZM126.455 257.984C127.419 257.984 128.245 258.183 128.936 258.58C129.626 258.977 130.156 259.54 130.527 260.27C130.898 260.999 131.084 261.871 131.084 262.887V264.117H123.867C123.893 265.165 124.173 265.973 124.707 266.539C125.247 267.105 126.003 267.389 126.973 267.389C127.663 267.389 128.281 267.324 128.828 267.193C129.382 267.057 129.951 266.858 130.537 266.598V268.463C129.997 268.717 129.447 268.902 128.887 269.02C128.327 269.137 127.656 269.195 126.875 269.195C125.814 269.195 124.88 268.99 124.072 268.58C123.271 268.163 122.643 267.545 122.188 266.725C121.738 265.904 121.514 264.885 121.514 263.668C121.514 262.457 121.719 261.428 122.129 260.582C122.539 259.736 123.115 259.091 123.857 258.648C124.6 258.206 125.465 257.984 126.455 257.984ZM126.455 259.713C125.732 259.713 125.146 259.947 124.697 260.416C124.255 260.885 123.994 261.572 123.916 262.477H128.838C128.831 261.936 128.74 261.458 128.564 261.041C128.395 260.624 128.135 260.299 127.783 260.064C127.438 259.83 126.995 259.713 126.455 259.713ZM149.688 254.723L144.697 269H142.217L137.227 254.723H139.629L142.637 263.668C142.728 263.928 142.826 264.244 142.93 264.615C143.04 264.986 143.141 265.361 143.232 265.738C143.33 266.116 143.405 266.451 143.457 266.744C143.509 266.451 143.581 266.116 143.672 265.738C143.77 265.361 143.87 264.986 143.975 264.615C144.079 264.244 144.176 263.925 144.268 263.658L147.285 254.723H149.688ZM155.635 257.984C156.598 257.984 157.425 258.183 158.115 258.58C158.805 258.977 159.336 259.54 159.707 260.27C160.078 260.999 160.264 261.871 160.264 262.887V264.117H153.047C153.073 265.165 153.353 265.973 153.887 266.539C154.427 267.105 155.182 267.389 156.152 267.389C156.842 267.389 157.461 267.324 158.008 267.193C158.561 267.057 159.131 266.858 159.717 266.598V268.463C159.176 268.717 158.626 268.902 158.066 269.02C157.507 269.137 156.836 269.195 156.055 269.195C154.993 269.195 154.059 268.99 153.252 268.58C152.451 268.163 151.823 267.545 151.367 266.725C150.918 265.904 150.693 264.885 150.693 263.668C150.693 262.457 150.898 261.428 151.309 260.582C151.719 259.736 152.295 259.091 153.037 258.648C153.779 258.206 154.645 257.984 155.635 257.984ZM155.635 259.713C154.912 259.713 154.326 259.947 153.877 260.416C153.434 260.885 153.174 261.572 153.096 262.477H158.018C158.011 261.936 157.92 261.458 157.744 261.041C157.575 260.624 157.314 260.299 156.963 260.064C156.618 259.83 156.175 259.713 155.635 259.713ZM168.33 257.984C168.512 257.984 168.711 257.994 168.926 258.014C169.141 258.033 169.326 258.059 169.482 258.092L169.268 260.24C169.131 260.201 168.962 260.172 168.76 260.152C168.564 260.133 168.389 260.123 168.232 260.123C167.822 260.123 167.432 260.191 167.061 260.328C166.689 260.458 166.361 260.66 166.074 260.934C165.788 261.201 165.563 261.536 165.4 261.939C165.238 262.343 165.156 262.812 165.156 263.346V269H162.852V258.189H164.648L164.961 260.094H165.068C165.283 259.71 165.55 259.358 165.869 259.039C166.188 258.72 166.553 258.466 166.963 258.277C167.38 258.082 167.835 257.984 168.33 257.984ZM178.75 265.914C178.75 266.624 178.577 267.223 178.232 267.711C177.887 268.199 177.383 268.57 176.719 268.824C176.061 269.072 175.254 269.195 174.297 269.195C173.542 269.195 172.891 269.14 172.344 269.029C171.803 268.925 171.292 268.762 170.811 268.541V266.559C171.325 266.799 171.901 267.008 172.539 267.184C173.184 267.359 173.792 267.447 174.365 267.447C175.12 267.447 175.664 267.33 175.996 267.096C176.328 266.855 176.494 266.536 176.494 266.139C176.494 265.904 176.426 265.696 176.289 265.514C176.159 265.325 175.911 265.133 175.547 264.938C175.189 264.736 174.661 264.495 173.965 264.215C173.281 263.941 172.705 263.668 172.236 263.395C171.768 263.121 171.413 262.792 171.172 262.408C170.931 262.018 170.811 261.52 170.811 260.914C170.811 259.957 171.188 259.231 171.943 258.736C172.705 258.235 173.711 257.984 174.961 257.984C175.625 257.984 176.25 258.053 176.836 258.189C177.428 258.32 178.008 258.512 178.574 258.766L177.852 260.494C177.363 260.279 176.872 260.104 176.377 259.967C175.889 259.824 175.391 259.752 174.883 259.752C174.29 259.752 173.838 259.843 173.525 260.025C173.219 260.208 173.066 260.468 173.066 260.807C173.066 261.061 173.141 261.275 173.291 261.451C173.441 261.627 173.698 261.803 174.062 261.979C174.434 262.154 174.948 262.372 175.605 262.633C176.25 262.88 176.807 263.141 177.275 263.414C177.751 263.681 178.115 264.01 178.369 264.4C178.623 264.791 178.75 265.296 178.75 265.914ZM183.525 258.189V269H181.23V258.189H183.525ZM182.393 254.049C182.744 254.049 183.047 254.143 183.301 254.332C183.561 254.521 183.691 254.846 183.691 255.309C183.691 255.764 183.561 256.09 183.301 256.285C183.047 256.474 182.744 256.568 182.393 256.568C182.028 256.568 181.719 256.474 181.465 256.285C181.217 256.09 181.094 255.764 181.094 255.309C181.094 254.846 181.217 254.521 181.465 254.332C181.719 254.143 182.028 254.049 182.393 254.049ZM196.387 263.57C196.387 264.469 196.27 265.266 196.035 265.963C195.801 266.66 195.459 267.249 195.01 267.73C194.561 268.206 194.02 268.57 193.389 268.824C192.757 269.072 192.044 269.195 191.25 269.195C190.508 269.195 189.827 269.072 189.209 268.824C188.59 268.57 188.053 268.206 187.598 267.73C187.148 267.249 186.8 266.66 186.553 265.963C186.305 265.266 186.182 264.469 186.182 263.57C186.182 262.379 186.387 261.37 186.797 260.543C187.214 259.71 187.806 259.075 188.574 258.639C189.342 258.202 190.257 257.984 191.318 257.984C192.314 257.984 193.193 258.202 193.955 258.639C194.717 259.075 195.312 259.71 195.742 260.543C196.172 261.376 196.387 262.385 196.387 263.57ZM188.545 263.57C188.545 264.358 188.639 265.032 188.828 265.592C189.023 266.152 189.323 266.581 189.727 266.881C190.13 267.174 190.651 267.32 191.289 267.32C191.927 267.32 192.448 267.174 192.852 266.881C193.255 266.581 193.551 266.152 193.74 265.592C193.929 265.032 194.023 264.358 194.023 263.57C194.023 262.783 193.929 262.115 193.74 261.568C193.551 261.015 193.255 260.595 192.852 260.309C192.448 260.016 191.924 259.869 191.279 259.869C190.329 259.869 189.635 260.188 189.199 260.826C188.763 261.464 188.545 262.379 188.545 263.57ZM204.658 257.984C205.876 257.984 206.823 258.3 207.5 258.932C208.184 259.557 208.525 260.562 208.525 261.949V269H206.23V262.379C206.23 261.539 206.058 260.911 205.713 260.494C205.368 260.071 204.834 259.859 204.111 259.859C203.063 259.859 202.334 260.182 201.924 260.826C201.52 261.471 201.318 262.405 201.318 263.629V269H199.023V258.189H200.811L201.133 259.654H201.26C201.494 259.277 201.784 258.967 202.129 258.727C202.48 258.479 202.871 258.294 203.301 258.17C203.737 258.046 204.189 257.984 204.658 257.984Z" fill="#787B91"/>
</g>
</g>
<defs>
<filter id="filter0_d_3980_47780" x="-4" y="-2" width="488" height="72" filterUnits="userSpaceOnUse" color-interpolation-filters="sRGB">
<feFlood flood-opacity="0" result="BackgroundImageFix"/>
<feColorMatrix in="SourceAlpha" type="matrix" values="0 0 0 0 0 0 0 0 0 0 0 0 0 0 0 0 0 0 127 0" result="hardAlpha"/>
<feOffset dy="2"/>
<feGaussianBlur stdDeviation="2"/>
<feComposite in2="hardAlpha" operator="out"/>
<feColorMatrix type="matrix" values="0 0 0 0 0 0 0 0 0 0 0 0 0 0 0 0 0 0 0.25 0"/>
<feBlend mode="normal" in2="BackgroundImageFix" result="effect1_dropShadow_3980_47780"/>
<feBlend mode="normal" in="SourceGraphic" in2="effect1_dropShadow_3980_47780" result="shape"/>
</filter>
<filter id="filter1_d_3980_47780" x="12" y="382" width="456" height="88" filterUnits="userSpaceOnUse" color-interpolation-filters="sRGB">
<feFlood flood-opacity="0" result="BackgroundImageFix"/>
<feColorMatrix in="SourceAlpha" type="matrix" values="0 0 0 0 0 0 0 0 0 0 0 0 0 0 0 0 0 0 127 0" result="hardAlpha"/>
<feOffset dy="2"/>
<feGaussianBlur stdDeviation="2"/>
<feComposite in2="hardAlpha" operator="out"/>
<feColorMatrix type="matrix" values="0 0 0 0 0 0 0 0 0 0 0 0 0 0 0 0 0 0 0.25 0"/>
<feBlend mode="normal" in2="BackgroundImageFix" result="effect1_dropShadow_3980_47780"/>
<feBlend mode="normal" in="SourceGraphic" in2="effect1_dropShadow_3980_47780" result="shape"/>
</filter>
<filter id="filter2_d_3980_47780" x="12" y="76" width="460" height="260" filterUnits="userSpaceOnUse" color-interpolation-filters="sRGB">
<feFlood flood-opacity="0" result="BackgroundImageFix"/>
<feColorMatrix in="SourceAlpha" type="matrix" values="0 0 0 0 0 0 0 0 0 0 0 0 0 0 0 0 0 0 127 0" result="hardAlpha"/>
<feOffset dx="2" dy="2"/>
<feGaussianBlur stdDeviation="3"/>
<feComposite in2="hardAlpha" operator="out"/>
<feColorMatrix type="matrix" values="0 0 0 0 0 0 0 0 0 0 0 0 0 0 0 0 0 0 0.25 0"/>
<feBlend mode="normal" in2="BackgroundImageFix" result="effect1_dropShadow_3980_47780"/>
<feBlend mode="normal" in="SourceGraphic" in2="effect1_dropShadow_3980_47780" result="shape"/>
</filter>
<clipPath id="clip0_3980_47780">
<rect width="480" height="480" fill="white"/>
</clipPath>
</defs>
</svg>
