<svg width="480" height="480" viewBox="0 0 480 480" fill="none" xmlns="http://www.w3.org/2000/svg">
<rect width="480" height="480" fill="#1A1040"/>
<path d="M174.426 250.259C176.943 252.776 180.286 254.158 183.844 254.158C187.402 254.158 190.745 252.771 193.262 250.259C195.779 247.746 197.161 244.399 197.161 240.841C197.161 237.282 195.775 233.94 193.262 231.423C190.75 228.905 187.402 227.523 183.844 227.523C180.286 227.523 176.943 228.91 174.426 231.423C173.031 232.818 171.985 234.469 171.33 236.268H93.6708C93.6708 236.268 93.5754 237.578 93.5415 238.425C93.5068 239.291 93.498 240.641 93.498 240.641L93.5415 242.933L93.6189 245.12L171.232 245.13C171.878 247.037 172.959 248.791 174.426 250.259ZM179.591 236.591C180.726 235.456 182.238 234.833 183.84 234.833C185.442 234.833 186.954 235.456 188.093 236.596C189.233 237.736 189.852 239.243 189.852 240.845C189.852 242.447 189.229 243.959 188.089 245.099C186.949 246.238 185.442 246.858 183.84 246.858C182.238 246.858 180.726 246.234 179.591 245.099C178.455 243.963 177.832 242.451 177.832 240.845C177.832 239.239 178.451 237.731 179.591 236.591Z" fill="white"/>
<path d="M302.32 250.259C299.803 252.776 296.46 254.158 292.902 254.158C289.344 254.158 286.001 252.771 283.484 250.259C280.967 247.746 279.585 244.399 279.585 240.841C279.585 237.282 280.971 233.94 283.484 231.423C285.996 228.905 289.344 227.523 292.902 227.523C296.46 227.523 299.803 228.91 302.32 231.423C303.715 232.818 304.761 234.469 305.416 236.268H383.075C383.075 236.268 383.171 237.578 383.205 238.425C383.239 239.291 383.248 240.641 383.248 240.641L383.205 242.933L383.127 245.12L305.515 245.13C304.868 247.037 303.787 248.791 302.32 250.259ZM297.155 236.591C296.02 235.456 294.508 234.833 292.906 234.833C291.304 234.833 289.792 235.456 288.653 236.596C287.513 237.736 286.894 239.243 286.894 240.845C286.894 242.447 287.518 243.959 288.657 245.099C289.797 246.238 291.304 246.858 292.906 246.858C294.508 246.858 296.02 246.234 297.155 245.099C298.291 243.963 298.914 242.451 298.914 240.845C298.914 239.239 298.295 237.731 297.155 236.591Z" fill="white"/>
<path d="M311.372 171.213C316.126 171.148 320.835 171.451 325.454 172.214C325.449 172.215 325.444 172.215 325.439 172.216C339.219 174.514 352.44 180.975 363.074 191.609C372.945 201.48 379.209 213.586 381.896 226.297H325.402C324.936 227.401 324.258 228.415 323.383 229.29C321.548 231.125 319.134 232.045 316.725 232.045C314.315 232.045 311.848 231.067 310.066 229.29C308.285 227.513 307.307 225.149 307.307 222.632C307.307 220.115 308.29 217.749 310.066 215.973C313.737 212.303 319.713 212.303 323.383 215.973C324.267 216.856 324.953 217.884 325.42 219.006H344.427C343.242 217.341 341.909 215.748 340.42 214.259C326.614 200.453 304.619 199.704 289.92 212.007V212.011L289.821 211.903L273.71 195.796C273.603 195.91 273.494 196.023 273.388 196.138C267.291 202.796 262.517 210.497 258.291 218.608C255.975 223.062 253.818 227.644 251.694 232.301L286.833 267.439C301.642 281.688 324.106 282.604 338.962 269.045C340.878 267.295 342.556 265.393 344.014 263.383H325.331C324.864 264.63 324.142 265.779 323.173 266.748C321.338 268.583 318.923 269.503 316.514 269.503C314.104 269.503 311.69 268.583 309.855 266.748C308.074 264.971 307.096 262.607 307.096 260.09C307.096 257.573 308.079 255.207 309.855 253.431C313.526 249.761 319.503 249.761 323.173 253.431C323.958 254.216 324.577 255.122 325.034 256.096H381.623C378.868 268.865 372.501 281.012 362.486 290.879C335.192 317.769 290.712 317.152 263.972 289.892L238.379 264.308L237.133 263.062C235.879 265.379 234.567 267.688 233.176 269.979C230.581 274.264 227.688 278.478 224.42 282.519C221.137 286.546 217.459 290.4 213.309 293.864C211.243 295.605 209.038 297.223 206.758 298.738C204.473 300.253 202.088 301.649 199.599 302.876C194.649 305.361 189.361 307.231 183.987 308.498C178.599 309.752 173.136 310.426 167.718 310.559C167.127 310.576 166.537 310.587 165.948 310.592C163.835 310.609 161.732 310.547 159.641 310.43C156.927 310.29 154.367 310.016 151.795 309.601L151.686 309.585C151.724 309.579 151.762 309.574 151.8 309.568C154.478 309.18 157.134 308.742 159.753 308.24C159.756 308.24 159.76 308.239 159.764 308.238C161.705 307.866 163.627 307.459 165.523 307.011C171.04 305.707 176.341 304.058 181.293 301.919C185.788 300.001 189.969 297.692 193.791 295.043C195.692 293.705 197.518 292.305 199.244 290.812C200.975 289.323 202.592 287.728 204.153 286.098C210.375 279.532 215.25 271.903 219.535 263.835C221.665 259.826 223.653 255.707 225.596 251.52L215.733 241.653L189.252 215.171C174.652 200.571 150.893 200.571 136.293 215.171C134.893 216.571 133.632 218.065 132.501 219.622H151.347C151.813 218.375 152.536 217.226 153.505 216.257C157.175 212.587 163.151 212.587 166.821 216.257C170.492 219.927 170.492 225.904 166.821 229.574C164.986 231.409 162.572 232.329 160.163 232.329C157.754 232.329 155.34 231.409 153.505 229.574C152.72 228.789 152.1 227.887 151.643 226.909H94.8828C97.6064 214.306 103.848 202.311 113.639 192.517C140.775 165.38 184.237 164.759 211.91 192.517L240.046 220.652C241.466 217.939 242.961 215.235 244.556 212.552C247.11 208.259 249.939 204.023 253.146 199.956C256.364 195.893 259.957 191.995 264.048 188.473C266.083 186.705 268.254 185.052 270.514 183.506C272.779 181.964 275.129 180.52 277.599 179.257C280.063 177.99 282.593 176.838 285.197 175.877C287.806 174.916 290.461 174.092 293.145 173.432C298.523 172.12 304.002 171.425 309.42 171.261C310.071 171.238 310.722 171.222 311.372 171.213ZM228.292 254.217C226.503 258.042 224.66 261.825 222.699 265.516C218.331 273.738 213.281 281.675 206.755 288.562L206.741 288.576C205.137 290.251 203.434 291.935 201.584 293.526C199.753 295.11 197.831 296.582 195.854 297.974L195.843 297.98L195.833 297.988C191.944 300.684 187.712 303.038 183.183 305.007C188.298 303.799 193.314 302.022 197.99 299.674L198.014 299.662C200.351 298.51 202.604 297.193 204.777 295.752C206.966 294.297 209.058 292.761 210.999 291.125L211.013 291.113C214.958 287.82 218.475 284.139 221.638 280.26C224.788 276.363 227.589 272.287 230.11 268.124L230.112 268.121C231.658 265.575 233.106 263.003 234.487 260.415L228.292 254.217ZM316.514 255.841C315.424 255.841 314.338 256.253 313.508 257.083C312.705 257.886 312.26 258.955 312.26 260.09C312.26 261.225 312.705 262.293 313.508 263.096C315.163 264.756 317.865 264.751 319.521 263.096C320.323 262.293 320.768 261.225 320.768 260.09C320.767 258.955 320.324 257.886 319.521 257.083C318.69 256.253 317.604 255.841 316.514 255.841ZM293.996 176.912C291.454 177.538 288.929 178.321 286.438 179.238H286.438L286.436 179.239C283.996 180.14 281.602 181.229 279.237 182.444L279.233 182.446L279.229 182.447C276.925 183.626 274.706 184.987 272.532 186.467C270.373 187.944 268.315 189.512 266.397 191.178L266.392 191.183L266.386 191.188C262.5 194.534 259.064 198.258 255.959 202.178C252.866 206.099 250.124 210.201 247.635 214.385C245.882 217.334 244.252 220.313 242.704 223.311L248.989 229.596C250.953 225.316 252.967 221.079 255.111 216.955L255.113 216.953C259.413 208.698 264.355 200.697 270.745 193.718L270.753 193.71L270.76 193.701C272.339 191.997 274.013 190.298 275.825 188.685C277.632 187.066 279.531 185.575 281.465 184.159L281.469 184.155C283.473 182.694 285.575 181.378 287.714 180.154C289.842 178.93 292.05 177.837 294.305 176.837C294.202 176.861 294.099 176.887 293.996 176.912ZM163.174 219.909C161.518 218.254 158.817 218.254 157.161 219.909C156.358 220.712 155.919 221.78 155.919 222.915C155.919 224.05 156.358 225.119 157.161 225.922C158.817 227.578 161.518 227.577 163.174 225.922C164.829 224.266 164.829 221.565 163.174 219.909ZM316.72 218.382C315.63 218.382 314.544 218.795 313.714 219.625C312.911 220.428 312.467 221.497 312.467 222.632C312.467 223.767 312.911 224.835 313.714 225.638C315.37 227.293 318.071 227.298 319.727 225.638C320.529 224.835 320.973 223.767 320.974 222.632C320.974 221.497 320.53 220.428 319.727 219.625C318.897 218.795 317.81 218.382 316.72 218.382ZM275.473 193.961C275.28 194.155 275.087 194.351 274.896 194.547C275.087 194.351 275.28 194.155 275.473 193.961ZM278.212 191.356C278.128 191.431 278.046 191.506 277.963 191.581C278.046 191.506 278.129 191.431 278.213 191.356C278.312 191.268 278.413 191.18 278.513 191.092C278.413 191.18 278.311 191.267 278.212 191.356ZM284.088 186.688C283.918 186.808 283.749 186.928 283.581 187.051C283.236 187.304 282.893 187.559 282.553 187.815C282.893 187.559 283.236 187.304 283.582 187.051C283.75 186.929 283.919 186.808 284.088 186.688ZM286.937 184.793C286.702 184.939 286.47 185.087 286.238 185.236C286.47 185.087 286.702 184.939 286.937 184.793ZM289.498 183.263C289.44 183.296 289.382 183.331 289.323 183.364C289.382 183.331 289.44 183.296 289.499 183.263C289.693 183.151 289.888 183.042 290.083 182.933C289.887 183.042 289.692 183.151 289.498 183.263ZM295.938 180.032C295.852 180.07 295.766 180.108 295.681 180.146C295.767 180.108 295.853 180.07 295.939 180.032C296.217 179.908 296.497 179.786 296.777 179.665L295.938 180.032ZM299.885 178.412C299.62 178.512 299.355 178.613 299.092 178.716C299.355 178.613 299.62 178.512 299.885 178.412ZM304.951 176.675C304.778 176.729 304.605 176.782 304.433 176.837C304.605 176.782 304.778 176.729 304.951 176.675ZM310.118 175.212C310.037 175.233 309.957 175.254 309.876 175.275C309.957 175.254 310.038 175.233 310.119 175.212C310.135 175.208 310.15 175.203 310.165 175.199C310.149 175.203 310.134 175.208 310.118 175.212ZM275.822 193.61C275.705 193.727 275.589 193.844 275.473 193.961C275.589 193.844 275.705 193.727 275.822 193.61Z" fill="white"/>
<path d="M153.66 252.448C157.335 248.774 163.306 248.769 166.977 252.439C170.647 256.11 170.647 262.087 166.977 265.757C165.141 267.592 162.728 268.512 160.318 268.512C157.909 268.512 155.495 267.592 153.66 265.757C152.781 264.877 152.098 263.854 151.632 262.741H132.441C133.626 264.406 134.954 265.999 136.448 267.493C150.25 281.295 172.232 282.048 186.931 269.754L187.038 269.857L203.71 286.529C202.278 288.008 200.8 289.456 199.223 290.812C197.496 292.305 195.67 293.705 193.77 295.043C189.948 297.692 185.767 300.001 181.271 301.919C172.286 305.8 162.15 308.069 151.663 309.584L151.773 309.601C153.65 309.904 155.52 310.13 157.447 310.285C141.531 309.036 125.966 302.323 113.794 290.151C103.923 280.28 97.6584 268.175 94.9707 255.464H151.632C152.098 254.351 152.781 253.328 153.66 252.448ZM160.318 254.854C159.228 254.854 158.138 255.271 157.308 256.101H157.312C156.509 256.904 156.064 257.972 156.064 259.103C156.065 260.233 156.505 261.301 157.308 262.104C158.963 263.76 161.665 263.76 163.32 262.104C164.976 260.449 164.976 257.747 163.32 256.092C162.49 255.266 161.409 254.854 160.318 254.854Z" fill="white"/>
<path d="M377.027 173.512H379.997V172.26H372.715V173.512H375.685V182.853H377.027V173.512ZM390.633 182.853H391.975V172.26H389.915L386.849 179.964L383.782 172.26H381.722V182.853H383.064V174.09L386.657 182.853H387.04L390.633 174.09V182.853Z" fill="white"/>
</svg>
